<svg width="1211.69" height="683.238" viewBox="0 0 320.593 180.774" xmlns="http://www.w3.org/2000/svg" xmlns:xlink="http://www.w3.org/1999/xlink" id="svg5" overflow="hidden"><defs id="defs2"></defs><g id="layer1" transform="translate(-633.473 -288.7)"><g id="g26937" transform="matrix(0.264583 0 0 0.264583 622.582 279.768)"><text id="text26689" font-family="Kalam,Kalam_MSFontService,Arial" font-weight="400" font-size="32" transform="translate(37.959 717)">K</text><text id="text26691" font-family="Kalam,Kalam_MSFontService,Arial" font-weight="400" font-size="32" transform="translate(75.5037 716)">M</text><path d="M61.3165 629.604C62.4742 629.932 64.4245 629.96 65.3314 630.21 60.2808 657.256 59.6133 670.569 56.8593 686.305 55.3809 685.989 54.5547 686.062 52.8443 685.699 52.6634 670.529 57.2229 651.584 61.3165 629.604Z" id="path26693" stroke="#042433" stroke-width="2.66667" stroke-miterlimit="8" fill="none" fill-rule="evenodd"/><path d="M76.561 631.256C77.7623 631.187 79.6149 630.577 80.5537 630.517 84.6172 657.728 88.3364 670.529 90.8752 686.301 89.3747 686.486 88.6176 686.824 86.8825 687.04 81.755 672.762 79.874 653.367 76.561 631.256Z" id="path26695" stroke="#042433" stroke-width="2.66667" stroke-miterlimit="8" fill="none" fill-rule="evenodd"/><text id="text26697" font-family="Kalam,Kalam_MSFontService,Arial" font-weight="400" font-size="32" transform="translate(114.859 717)">K</text><text id="text26699" font-family="Kalam,Kalam_MSFontService,Arial" font-weight="400" font-size="32" transform="translate(152.404 716)">M</text><path d="M138.217 629.604C139.375 629.932 141.325 629.96 142.232 630.21 137.181 657.256 136.514 670.569 133.76 686.305 132.281 685.989 131.455 686.062 129.745 685.699 129.564 670.529 134.123 651.584 138.217 629.604Z" id="path26701" stroke="#042433" stroke-width="2.66667" stroke-miterlimit="8" fill="none" fill-rule="evenodd"/><path d="M153.461 631.256C154.663 631.187 156.515 630.577 157.454 630.517 161.518 657.728 165.237 670.529 167.776 686.301 166.275 686.486 165.518 686.824 163.783 687.04 158.655 672.762 156.774 653.367 153.461 631.256Z" id="path26703" stroke="#042433" stroke-width="2.66667" stroke-miterlimit="8" fill="none" fill-rule="evenodd"/><text id="text26705" font-family="Kalam,Kalam_MSFontService,Arial" font-weight="400" font-size="32" transform="translate(191.76 717)">K</text><text id="text26707" font-family="Kalam,Kalam_MSFontService,Arial" font-weight="400" font-size="32" transform="translate(229.304 716)">M</text><path d="M215.117 629.604C216.275 629.932 218.225 629.96 219.132 630.21 214.082 657.256 213.414 670.569 210.66 686.305 209.182 685.989 208.355 686.062 206.645 685.699 206.464 670.529 211.024 651.584 215.117 629.604Z" id="path26709" stroke="#042433" stroke-width="2.66667" stroke-miterlimit="8" fill="none" fill-rule="evenodd"/><path d="M230.362 631.256C231.563 631.187 233.416 630.577 234.354 630.517 238.418 657.728 242.137 670.529 244.676 686.301 243.175 686.486 242.418 686.824 240.683 687.04 235.556 672.762 233.675 653.367 230.362 631.256Z" id="path26711" stroke="#042433" stroke-width="2.66667" stroke-miterlimit="8" fill="none" fill-rule="evenodd"/><text id="text26713" font-family="Kalam,Kalam_MSFontService,Arial" font-weight="400" font-size="32" transform="translate(268.66 717)">K</text><text id="text26715" font-family="Kalam,Kalam_MSFontService,Arial" font-weight="400" font-size="32" transform="translate(306.205 716)">M</text><path d="M292.018 629.604C293.175 629.932 295.126 629.96 296.033 630.21 290.982 657.256 290.314 670.569 287.56 686.305 286.082 685.989 285.256 686.062 283.545 685.699 283.365 670.529 287.924 651.584 292.018 629.604Z" id="path26717" stroke="#042433" stroke-width="2.66667" stroke-miterlimit="8" fill="none" fill-rule="evenodd"/><path d="M307.262 631.256C308.463 631.187 310.316 630.577 311.255 630.517 315.318 657.728 319.038 670.529 321.576 686.301 320.076 686.486 319.319 686.824 317.584 687.04 312.456 672.762 310.575 653.367 307.262 631.256Z" id="path26719" stroke="#042433" stroke-width="2.66667" stroke-miterlimit="8" fill="none" fill-rule="evenodd"/><text id="text26721" font-family="Kalam,Kalam_MSFontService,Arial" font-weight="400" font-size="32" transform="translate(345.56 717)">K</text><text id="text26723" font-family="Kalam,Kalam_MSFontService,Arial" font-weight="400" font-size="32" transform="translate(383.105 716)">M</text><path d="M368.918 629.604C370.076 629.932 372.026 629.96 372.933 630.21 367.882 657.256 367.215 670.569 364.461 686.305 362.982 685.989 362.156 686.062 360.446 685.699 360.265 670.529 364.824 651.584 368.918 629.604Z" id="path26725" stroke="#042433" stroke-width="2.66667" stroke-miterlimit="8" fill="none" fill-rule="evenodd"/><path d="M384.163 631.256C385.364 631.187 387.216 630.577 388.155 630.517 392.219 657.728 395.938 670.529 398.477 686.301 396.976 686.486 396.219 686.824 394.484 687.04 389.356 672.762 387.475 653.367 384.163 631.256Z" id="path26727" stroke="#042433" stroke-width="2.66667" stroke-miterlimit="8" fill="none" fill-rule="evenodd"/><text id="text26729" font-family="Kalam,Kalam_MSFontService,Arial" font-weight="400" font-size="32" transform="translate(422.461 717)">K</text><text id="text26731" font-family="Kalam,Kalam_MSFontService,Arial" font-weight="400" font-size="32" transform="translate(460.006 716)">M</text><path d="M445.818 629.604C446.976 629.932 448.926 629.96 449.833 630.21 444.783 657.256 444.115 670.569 441.361 686.305 439.883 685.989 439.057 686.062 437.346 685.699 437.165 670.529 441.725 651.584 445.818 629.604Z" id="path26733" stroke="#042433" stroke-width="2.66667" stroke-miterlimit="8" fill="none" fill-rule="evenodd"/><path d="M461.063 631.256C462.264 631.187 464.117 630.577 465.056 630.517 469.119 657.728 472.838 670.529 475.377 686.301 473.877 686.486 473.119 686.824 471.384 687.04 466.257 672.762 464.376 653.367 461.063 631.256Z" id="path26735" stroke="#042433" stroke-width="2.66667" stroke-miterlimit="8" fill="none" fill-rule="evenodd"/><text id="text26737" font-family="Kalam,Kalam_MSFontService,Arial" font-weight="400" font-size="32" transform="translate(499.361 717)">K</text><text id="text26739" font-family="Kalam,Kalam_MSFontService,Arial" font-weight="400" font-size="32" transform="translate(536.906 716)">M</text><path d="M522.719 629.604C523.876 629.932 525.827 629.96 526.734 630.21 521.683 657.256 521.015 670.569 518.261 686.305 516.783 685.989 515.957 686.062 514.247 685.699 514.066 670.529 518.625 651.584 522.719 629.604Z" id="path26741" stroke="#042433" stroke-width="2.66667" stroke-miterlimit="8" fill="none" fill-rule="evenodd"/><path d="M537.963 631.256C539.164 631.187 541.017 630.577 541.956 630.517 546.019 657.728 549.739 670.529 552.277 686.301 550.777 686.486 550.02 686.824 548.285 687.04 543.157 672.762 541.276 653.367 537.963 631.256Z" id="path26743" stroke="#042433" stroke-width="2.66667" stroke-miterlimit="8" fill="none" fill-rule="evenodd"/><text id="text26745" font-family="Kalam,Kalam_MSFontService,Arial" font-weight="400" font-size="32" transform="translate(576.262 717)">K</text><text id="text26747" font-family="Kalam,Kalam_MSFontService,Arial" font-weight="400" font-size="32" transform="translate(613.806 716)">M</text><path d="M599.619 629.604C600.777 629.932 602.727 629.96 603.634 630.21 598.583 657.256 597.916 670.569 595.162 686.305 593.683 685.989 592.857 686.062 591.147 685.699 590.966 670.529 595.526 651.584 599.619 629.604Z" id="path26749" stroke="#042433" stroke-width="2.66667" stroke-miterlimit="8" fill="none" fill-rule="evenodd"/><path d="M614.864 631.256C616.065 631.187 617.917 630.577 618.856 630.517 622.92 657.728 626.639 670.529 629.178 686.301 627.677 686.486 626.92 686.824 625.185 687.04 620.058 672.762 618.177 653.367 614.864 631.256Z" id="path26751" stroke="#042433" stroke-width="2.66667" stroke-miterlimit="8" fill="none" fill-rule="evenodd"/><text id="text26753" font-family="Kalam,Kalam_MSFontService,Arial" font-weight="400" font-size="32" transform="translate(653.162 717)">K</text><text id="text26755" font-family="Kalam,Kalam_MSFontService,Arial" font-weight="400" font-size="32" transform="translate(690.707 716)">M</text><path d="M676.519 629.604C677.677 629.932 679.627 629.96 680.534 630.21 675.484 657.256 674.816 670.569 672.062 686.305 670.584 685.989 669.758 686.062 668.047 685.699 667.866 670.529 672.426 651.584 676.519 629.604Z" id="path26757" stroke="#042433" stroke-width="2.66667" stroke-miterlimit="8" fill="none" fill-rule="evenodd"/><path d="M691.764 631.256C692.965 631.187 694.818 630.577 695.757 630.517 699.82 657.728 703.539 670.529 706.078 686.301 704.578 686.486 703.821 686.824 702.085 687.04 696.958 672.762 695.077 653.367 691.764 631.256Z" id="path26759" stroke="#042433" stroke-width="2.66667" stroke-miterlimit="8" fill="none" fill-rule="evenodd"/><text id="text26761" font-family="Kalam,Kalam_MSFontService,Arial" font-weight="400" font-size="32" transform="translate(730.062 717)">K</text><text id="text26763" font-family="Kalam,Kalam_MSFontService,Arial" font-weight="400" font-size="32" transform="translate(767.607 716)">M</text><path d="M753.42 629.604C754.578 629.932 756.528 629.96 757.435 630.21 752.384 657.256 751.717 670.569 748.963 686.305 747.484 685.989 746.658 686.062 744.948 685.699 744.767 670.529 749.326 651.584 753.42 629.604Z" id="path26765" stroke="#042433" stroke-width="2.66667" stroke-miterlimit="8" fill="none" fill-rule="evenodd"/><path d="M768.664 631.256C769.866 631.187 771.718 630.577 772.657 630.517 776.721 657.728 780.44 670.529 782.978 686.301 781.478 686.486 780.721 686.824 778.986 687.04 773.858 672.762 771.977 653.367 768.664 631.256Z" id="path26767" stroke="#042433" stroke-width="2.66667" stroke-miterlimit="8" fill="none" fill-rule="evenodd"/><text id="text26769" font-family="Kalam,Kalam_MSFontService,Arial" font-weight="400" font-size="32" transform="translate(806.963 717)">K</text><text id="text26771" font-family="Kalam,Kalam_MSFontService,Arial" font-weight="400" font-size="32" transform="translate(844.507 716)">M</text><path d="M830.32 629.604C831.478 629.932 833.428 629.96 834.335 630.21 829.284 657.256 828.617 670.569 825.863 686.305 824.385 685.989 823.558 686.062 821.848 685.699 821.667 670.529 826.227 651.584 830.32 629.604Z" id="path26773" stroke="#042433" stroke-width="2.66667" stroke-miterlimit="8" fill="none" fill-rule="evenodd"/><path d="M845.565 631.256C846.766 631.187 848.619 630.577 849.557 630.517 853.621 657.728 857.34 670.529 859.879 686.301 858.378 686.486 857.621 686.824 855.886 687.04 850.759 672.762 848.878 653.367 845.565 631.256Z" id="path26775" stroke="#042433" stroke-width="2.66667" stroke-miterlimit="8" fill="none" fill-rule="evenodd"/><text id="text26777" font-family="Kalam,Kalam_MSFontService,Arial" font-weight="400" font-size="32" transform="translate(883.863 717)">K</text><text id="text26779" font-family="Kalam,Kalam_MSFontService,Arial" font-weight="400" font-size="32" transform="translate(921.408 716)">M</text><path d="M907.221 629.604C908.378 629.932 910.329 629.96 911.235 630.21 906.185 657.256 905.517 670.569 902.763 686.305 901.285 685.989 900.459 686.062 898.748 685.699 898.567 670.529 903.127 651.584 907.221 629.604Z" id="path26781" stroke="#042433" stroke-width="2.66667" stroke-miterlimit="8" fill="none" fill-rule="evenodd"/><path d="M922.465 631.256C923.666 631.187 925.519 630.577 926.458 630.517 930.521 657.728 934.24 670.529 936.779 686.301 935.279 686.486 934.522 686.824 932.787 687.04 927.659 672.762 925.778 653.367 922.465 631.256Z" id="path26783" stroke="#042433" stroke-width="2.66667" stroke-miterlimit="8" fill="none" fill-rule="evenodd"/><text id="text26785" font-family="Kalam,Kalam_MSFontService,Arial" font-weight="400" font-size="32" transform="translate(960.763 717)">K</text><text id="text26787" font-family="Kalam,Kalam_MSFontService,Arial" font-weight="400" font-size="32" transform="translate(998.308 716)">M</text><path d="M984.121 629.604C985.279 629.932 987.229 629.96 988.136 630.21 983.085 657.256 982.418 670.569 979.664 686.305 978.185 685.989 977.359 686.062 975.649 685.699 975.468 670.529 980.027 651.584 984.121 629.604Z" id="path26789" stroke="#042433" stroke-width="2.66667" stroke-miterlimit="8" fill="none" fill-rule="evenodd"/><path d="M999.365 631.256C1000.57 631.187 1002.42 630.577 1003.36 630.517 1007.42 657.728 1011.14 670.529 1013.68 686.301 1012.18 686.486 1011.42 686.824 1009.69 687.04 1004.56 672.762 1002.68 653.367 999.365 631.256Z" id="path26791" stroke="#042433" stroke-width="2.66667" stroke-miterlimit="8" fill="none" fill-rule="evenodd"/><text id="text26793" font-family="Kalam,Kalam_MSFontService,Arial" font-weight="400" font-size="32" transform="translate(1037.66 717)">K</text><text id="text26795" font-family="Kalam,Kalam_MSFontService,Arial" font-weight="400" font-size="32" transform="translate(1075.21 716)">M</text><path d="M1061.02 629.604C1062.18 629.932 1064.13 629.96 1065.04 630.21 1059.99 657.256 1059.32 670.569 1056.56 686.305 1055.09 685.989 1054.26 686.062 1052.55 685.699 1052.37 670.529 1056.93 651.584 1061.02 629.604Z" id="path26797" stroke="#042433" stroke-width="2.66667" stroke-miterlimit="8" fill="none" fill-rule="evenodd"/><path d="M1076.27 631.256C1077.47 631.187 1079.32 630.577 1080.26 630.517 1084.32 657.728 1088.04 670.529 1090.58 686.301 1089.08 686.486 1088.32 686.824 1086.59 687.04 1081.46 672.762 1079.58 653.367 1076.27 631.256Z" id="path26799" stroke="#042433" stroke-width="2.66667" stroke-miterlimit="8" fill="none" fill-rule="evenodd"/><text id="text26801" font-family="Kalam,Kalam_MSFontService,Arial" font-weight="400" font-size="32" transform="translate(1114.56 717)">K</text><text id="text26803" font-family="Kalam,Kalam_MSFontService,Arial" font-weight="400" font-size="32" transform="translate(1152.11 716)">M</text><path d="M1137.92 629.604C1139.08 629.932 1141.03 629.96 1141.94 630.21 1136.89 657.256 1136.22 670.569 1133.46 686.305 1131.99 685.989 1131.16 686.062 1129.45 685.699 1129.27 670.529 1133.83 651.584 1137.92 629.604Z" id="path26805" stroke="#042433" stroke-width="2.66667" stroke-miterlimit="8" fill="none" fill-rule="evenodd"/><path d="M1153.17 631.256C1154.37 631.187 1156.22 630.577 1157.16 630.517 1160.78 658.443 1164.72 670.988 1167.48 686.301 1165.98 686.486 1165.22 686.824 1163.49 687.04 1158.48 672.217 1156.92 652.631 1153.17 631.256Z" id="path26807" stroke="#042433" stroke-width="2.66667" stroke-miterlimit="8" fill="none" fill-rule="evenodd"/><text id="text26809" font-family="Kalam,Kalam_MSFontService,Arial" font-weight="400" font-size="32" transform="translate(1191.46 717)">K</text><text id="text26811" font-family="Kalam,Kalam_MSFontService,Arial" font-weight="400" font-size="32" transform="translate(1229.01 716)">M</text><path d="M1214.82 629.604C1215.98 629.932 1217.93 629.96 1218.84 630.21 1213.79 657.256 1213.12 670.569 1210.37 686.305 1208.89 685.989 1208.06 686.062 1206.35 685.699 1206.17 670.529 1210.73 651.584 1214.82 629.604Z" id="path26813" stroke="#042433" stroke-width="2.66667" stroke-miterlimit="8" fill="none" fill-rule="evenodd"/><path d="M1230.07 631.256C1231.27 631.187 1233.12 630.577 1234.06 630.517 1238.12 657.728 1241.84 670.529 1244.38 686.301 1242.88 686.486 1242.12 686.824 1240.39 687.04 1235.26 672.762 1233.38 653.367 1230.07 631.256Z" id="path26815" stroke="#042433" stroke-width="2.66667" stroke-miterlimit="8" fill="none" fill-rule="evenodd"/><text id="text26817" font-family="Kalam,Kalam_MSFontService,Arial" font-weight="400" font-size="32" transform="translate(62.3151 624)">K</text><text id="text26819" font-family="Kalam,Kalam_MSFontService,Arial" font-weight="400" font-size="32" transform="translate(136.658 624)">M</text><text id="text26821" font-family="Kalam,Kalam_MSFontService,Arial" font-weight="400" font-size="32" transform="translate(214.372 624)">K</text><text id="text26823" font-family="Kalam,Kalam_MSFontService,Arial" font-weight="400" font-size="32" transform="translate(288.715 624)">M</text><text id="text26825" font-family="Kalam,Kalam_MSFontService,Arial" font-weight="400" font-size="32" transform="translate(368.248 624)">K</text><text id="text26827" font-family="Kalam,Kalam_MSFontService,Arial" font-weight="400" font-size="32" transform="translate(442.591 624)">M</text><text id="text26829" font-family="Kalam,Kalam_MSFontService,Arial" font-weight="400" font-size="32" transform="translate(520.305 624)">K</text><text id="text26831" font-family="Kalam,Kalam_MSFontService,Arial" font-weight="400" font-size="32" transform="translate(594.648 624)">M</text><text id="text26833" font-family="Kalam,Kalam_MSFontService,Arial" font-weight="400" font-size="32" transform="translate(677.328 624)">K</text><text id="text26835" font-family="Kalam,Kalam_MSFontService,Arial" font-weight="400" font-size="32" transform="translate(751.671 624)">M</text><text id="text26837" font-family="Kalam,Kalam_MSFontService,Arial" font-weight="400" font-size="32" transform="translate(829.385 624)">K</text><text id="text26839" font-family="Kalam,Kalam_MSFontService,Arial" font-weight="400" font-size="32" transform="translate(903.728 624)">M</text><text id="text26841" font-family="Kalam,Kalam_MSFontService,Arial" font-weight="400" font-size="32" transform="translate(984.515 624)">K</text><text id="text26843" font-family="Kalam,Kalam_MSFontService,Arial" font-weight="400" font-size="32" transform="translate(1058.86 624)">M</text><text id="text26845" font-family="Kalam,Kalam_MSFontService,Arial" font-weight="400" font-size="32" transform="translate(1136.57 624)">K</text><text id="text26847" font-family="Kalam,Kalam_MSFontService,Arial" font-weight="400" font-size="32" transform="translate(1210.91 624)">M</text><path d="M104.693 501.07C106.505 501.678 107.774 502.261 109.151 502.85 102.695 520.913 101.038 529.134 92.6063 544.301 84.1746 559.469 82.1029 572.362 73.9495 591.045 72.0763 590.404 70.5027 589.415 69.4915 589.266 77.982 569.836 78.9361 559.962 86.7403 546.05 94.5446 532.138 94.5532 521.505 104.693 501.07Z" id="path26849" stroke="#042433" stroke-width="2.66667" stroke-miterlimit="8" fill="none" fill-rule="evenodd"/><path d="M121.22 502.415C123.021 501.778 124.38 501.455 125.828 501.07 130.63 512.069 131.784 522.718 138.36 544.017 144.936 565.315 150.395 582.049 152.493 592.446 150.622 593.095 148.774 593.285 147.885 593.79 144.121 576.208 140.101 569.191 134.819 549.016 129.537 528.841 124.544 518.964 121.22 502.415Z" id="path26851" stroke="#042433" stroke-width="2.66667" stroke-miterlimit="8" fill="none" fill-rule="evenodd"/><text id="text26853" font-family="Kalam,Kalam_MSFontService,Arial" font-weight="400" font-size="32" transform="translate(107.431 494)">K</text><path d="M259.507 501.07C261.319 501.678 262.588 502.261 263.965 502.85 257.51 520.913 255.852 529.134 247.421 544.301 238.989 559.469 236.917 572.362 228.764 591.045 226.891 590.404 225.317 589.415 224.306 589.266 232.796 569.836 233.75 559.962 241.555 546.05 249.359 532.138 249.367 521.505 259.507 501.07Z" id="path26855" stroke="#042433" stroke-width="2.66667" stroke-miterlimit="8" fill="none" fill-rule="evenodd"/><path d="M276.034 502.415C277.836 501.778 279.194 501.455 280.642 501.07 285.444 512.069 286.599 522.718 293.175 544.017 299.75 565.315 305.209 582.049 307.307 592.446 305.436 593.095 303.588 593.285 302.699 593.79 298.935 576.208 294.915 569.191 289.633 549.016 284.351 528.841 279.358 518.964 276.034 502.415Z" id="path26857" stroke="#042433" stroke-width="2.66667" stroke-miterlimit="8" fill="none" fill-rule="evenodd"/><text id="text26859" font-family="Kalam,Kalam_MSFontService,Arial" font-weight="400" font-size="32" transform="translate(257.995 492)">M</text><path d="M411.894 501.07C413.706 501.678 414.975 502.261 416.352 502.85 409.896 520.913 408.239 529.134 399.807 544.301 391.376 559.469 389.304 572.362 381.151 591.045 379.277 590.404 377.704 589.415 376.693 589.266 385.183 569.836 386.137 559.962 393.941 546.05 401.746 532.138 401.754 521.505 411.894 501.07Z" id="path26861" stroke="#042433" stroke-width="2.66667" stroke-miterlimit="8" fill="none" fill-rule="evenodd"/><path d="M428.421 502.415C430.223 501.778 431.581 501.455 433.029 501.07 437.831 512.069 438.985 522.718 445.561 544.017 452.137 565.315 457.596 582.049 459.694 592.446 457.823 593.095 455.975 593.285 455.086 593.79 451.322 576.208 447.302 569.191 442.02 549.016 436.738 528.841 431.745 518.964 428.421 502.415Z" id="path26863" stroke="#042433" stroke-width="2.66667" stroke-miterlimit="8" fill="none" fill-rule="evenodd"/><text id="text26865" font-family="Kalam,Kalam_MSFontService,Arial" font-weight="400" font-size="32" transform="translate(414.632 494)">K</text><path d="M566.708 501.07C568.52 501.678 569.789 502.261 571.166 502.85 564.711 520.913 563.053 529.134 554.622 544.301 546.19 559.469 544.118 572.362 535.965 591.045 534.092 590.404 532.518 589.415 531.507 589.266 539.997 569.836 540.951 559.962 548.756 546.05 556.56 532.138 556.569 521.505 566.708 501.07Z" id="path26867" stroke="#042433" stroke-width="2.66667" stroke-miterlimit="8" fill="none" fill-rule="evenodd"/><path d="M583.235 502.415C585.037 501.778 586.395 501.455 587.843 501.07 592.645 512.069 593.8 522.718 600.376 544.017 606.951 565.315 612.41 582.049 614.508 592.446 612.638 593.095 610.789 593.285 609.9 593.79 606.136 576.208 602.116 569.191 596.834 549.016 591.552 528.841 586.559 518.964 583.235 502.415Z" id="path26869" stroke="#042433" stroke-width="2.66667" stroke-miterlimit="8" fill="none" fill-rule="evenodd"/><text id="text26871" font-family="Kalam,Kalam_MSFontService,Arial" font-weight="400" font-size="32" transform="translate(565.197 492)">M</text><path d="M722.772 501.07C724.584 501.678 725.853 502.261 727.23 502.85 720.774 520.914 719.117 529.134 710.685 544.302 702.254 559.469 700.182 572.362 692.029 591.045 690.155 590.404 688.582 589.415 687.571 589.266 696.061 569.836 697.015 559.962 704.819 546.05 712.624 532.138 712.632 521.505 722.772 501.07Z" id="path26873" stroke="#042433" stroke-width="2.66667" stroke-miterlimit="8" fill="none" fill-rule="evenodd"/><path d="M739.299 502.415C741.1 501.778 742.459 501.455 743.907 501.07 748.709 512.069 749.863 522.718 756.439 544.017 763.015 565.315 768.474 582.05 770.572 592.446 768.701 593.095 766.853 593.285 765.964 593.79 762.2 576.208 758.18 569.191 752.898 549.016 747.616 528.842 742.623 518.964 739.299 502.415Z" id="path26875" stroke="#042433" stroke-width="2.66667" stroke-miterlimit="8" fill="none" fill-rule="evenodd"/><text id="text26877" font-family="Kalam,Kalam_MSFontService,Arial" font-weight="400" font-size="32" transform="translate(725.51 494)">K</text><path d="M877.586 501.07C879.398 501.678 880.667 502.261 882.044 502.85 875.589 520.914 873.931 529.134 865.5 544.302 857.068 559.469 854.996 572.362 846.843 591.045 844.97 590.404 843.396 589.415 842.385 589.266 850.875 569.836 851.829 559.962 859.634 546.05 867.438 532.138 867.447 521.505 877.586 501.07Z" id="path26879" stroke="#042433" stroke-width="2.66667" stroke-miterlimit="8" fill="none" fill-rule="evenodd"/><path d="M894.113 502.415C895.915 501.778 897.273 501.455 898.721 501.07 903.523 512.069 904.678 522.718 911.254 544.017 917.83 565.315 923.288 582.05 925.386 592.446 923.516 593.095 921.667 593.285 920.778 593.79 917.014 576.208 912.994 569.191 907.712 549.016 902.431 528.842 897.437 518.964 894.113 502.415Z" id="path26881" stroke="#042433" stroke-width="2.66667" stroke-miterlimit="8" fill="none" fill-rule="evenodd"/><text id="text26883" font-family="Kalam,Kalam_MSFontService,Arial" font-weight="400" font-size="32" transform="translate(876.075 492)">M</text><path d="M1029.97 501.07C1031.78 501.678 1033.05 502.261 1034.43 502.85 1027.98 520.914 1026.32 529.134 1017.89 544.302 1009.45 559.469 1007.38 572.362 999.23 591.045 997.356 590.404 995.783 589.415 994.772 589.266 1003.26 569.836 1004.22 559.962 1012.02 546.05 1019.82 532.138 1019.83 521.505 1029.97 501.07Z" id="path26885" stroke="#042433" stroke-width="2.66667" stroke-miterlimit="8" fill="none" fill-rule="evenodd"/><path d="M1046.5 502.415C1048.3 501.778 1049.66 501.455 1051.11 501.07 1055.91 512.069 1057.06 522.718 1063.64 544.017 1070.22 565.315 1075.67 582.05 1077.77 592.446 1075.9 593.095 1074.05 593.285 1073.17 593.79 1069.4 576.208 1065.38 569.191 1060.1 549.016 1054.82 528.842 1049.82 518.964 1046.5 502.415Z" id="path26887" stroke="#042433" stroke-width="2.66667" stroke-miterlimit="8" fill="none" fill-rule="evenodd"/><text id="text26889" font-family="Kalam,Kalam_MSFontService,Arial" font-weight="400" font-size="32" transform="translate(1032.71 494)">K</text><path d="M1184.79 501.07C1186.6 501.678 1187.87 502.261 1189.25 502.85 1182.79 520.914 1181.13 529.134 1172.7 544.302 1164.27 559.469 1162.2 572.362 1154.04 591.045 1152.17 590.404 1150.6 589.415 1149.59 589.266 1158.08 569.836 1159.03 559.962 1166.83 546.05 1174.64 532.138 1174.65 521.505 1184.79 501.07Z" id="path26891" stroke="#042433" stroke-width="2.66667" stroke-miterlimit="8" fill="none" fill-rule="evenodd"/><path d="M1201.31 502.415C1203.12 501.778 1204.47 501.455 1205.92 501.07 1210.72 512.069 1211.88 522.718 1218.45 544.017 1225.03 565.315 1230.49 582.05 1232.59 592.446 1230.72 593.095 1228.87 593.285 1227.98 593.79 1224.22 576.208 1220.2 569.191 1214.91 549.016 1209.63 528.842 1204.64 518.964 1201.31 502.415Z" id="path26893" stroke="#042433" stroke-width="2.66667" stroke-miterlimit="8" fill="none" fill-rule="evenodd"/><text id="text26895" font-family="Kalam,Kalam_MSFontService,Arial" font-weight="400" font-size="32" transform="translate(1183.28 492)">M</text><path d="M0 0C1.90793-0.107087 3.30236-0.0360105 4.79989 0 5.94898 14.1393 7.25953 43.4255 4.79989 64.91 2.34026 86.3945 6.459 110.903 4.79989 138.106 2.82247 138.205 0.994541 137.87 0 138.106 2.66016 117.78-1.23864 94.4007 0 70.4342 1.23864 46.4677 1.10383 20.8873 0 0Z" id="path26897" stroke="#042433" stroke-width="2.66667" stroke-miterlimit="8" fill="none" fill-rule="evenodd" transform="matrix(-0.874273 -0.485435 -0.485435 0.874273 187.553 342.901)"/><path d="M201.866 343.469C203.48 342.445 204.732 341.827 206.057 341.128 218.877 368.582 231.766 381.719 237.601 397.61 243.435 413.501 260.125 434.401 273.171 461.303 271.493 462.353 269.734 462.952 268.981 463.643 263.297 449.704 250.272 434.789 236.095 404.758 221.917 374.726 210.306 358.318 201.866 343.469Z" id="path26899" stroke="#042433" stroke-width="2.66667" stroke-miterlimit="8" fill="none" fill-rule="evenodd"/><text id="text26901" font-family="Kalam,Kalam_MSFontService,Arial" font-weight="400" font-size="32" transform="translate(185.458 339)">K</text><path d="M0 0C1.90793-0.107087 3.30236-0.0360105 4.79989 0 5.94898 14.1393 7.25953 43.4255 4.79989 64.91 2.34026 86.3945 6.459 110.903 4.79989 138.106 2.82247 138.205 0.994541 137.87 0 138.106 2.66016 117.78-1.23864 94.4007 0 70.4342 1.23864 46.4677 1.10383 20.8873 0 0Z" id="path26903" stroke="#042433" stroke-width="2.66667" stroke-miterlimit="8" fill="none" fill-rule="evenodd" transform="matrix(-0.874273 -0.485435 -0.485435 0.874273 498.837 341.632)"/><path d="M513.15 342.201C514.764 341.177 516.016 340.559 517.341 339.86 530.161 367.314 543.05 380.451 548.885 396.342 554.719 412.233 571.409 433.133 584.455 460.035 582.777 461.085 581.018 461.684 580.265 462.375 574.581 448.436 561.556 433.521 547.379 403.49 533.201 373.458 521.59 357.05 513.15 342.201Z" id="path26905" stroke="#042433" stroke-width="2.66667" stroke-miterlimit="8" fill="none" fill-rule="evenodd"/><text id="text26907" font-family="Kalam,Kalam_MSFontService,Arial" font-weight="400" font-size="32" transform="translate(491.599 339)">M</text><path d="M0 0C1.90793-0.107087 3.30236-0.0360105 4.79989 0 5.94898 14.1393 7.25953 43.4255 4.79989 64.91 2.34026 86.3945 6.459 110.903 4.79989 138.106 2.82247 138.205 0.994541 137.87 0 138.106 2.66016 117.78-1.23864 94.4007 0 70.4342 1.23864 46.4677 1.10383 20.8873 0 0Z" id="path26909" stroke="#042433" stroke-width="2.66667" stroke-miterlimit="8" fill="none" fill-rule="evenodd" transform="matrix(-0.874273 -0.485435 -0.485435 0.874273 806.23 344.869)"/><path d="M820.544 345.438C822.157 344.414 823.41 343.796 824.735 343.097 837.555 370.551 850.444 383.688 856.278 399.579 862.113 415.47 878.803 436.369 891.849 463.272 890.171 464.322 888.411 464.921 887.658 465.612 881.974 451.673 868.95 436.758 854.772 406.727 840.595 376.695 828.983 360.287 820.544 345.438Z" id="path26911" stroke="#042433" stroke-width="2.66667" stroke-miterlimit="8" fill="none" fill-rule="evenodd"/><text id="text26913" font-family="Kalam,Kalam_MSFontService,Arial" font-weight="400" font-size="32" transform="translate(804.135 341)">K</text><path d="M0 0C1.90793-0.107087 3.30236-0.0360105 4.79989 0 5.94898 14.1393 7.25953 43.4255 4.79989 64.91 2.34026 86.3945 6.459 110.903 4.79989 138.106 2.82247 138.205 0.994541 137.87 0 138.106 2.66016 117.78-1.23864 94.4007 0 70.4342 1.23864 46.4677 1.10383 20.8873 0 0Z" id="path26915" stroke="#042433" stroke-width="2.66667" stroke-miterlimit="8" fill="none" fill-rule="evenodd" transform="matrix(-0.874273 -0.485435 -0.485435 0.874273 1117.51 343.601)"/><path d="M1131.83 344.169C1133.44 343.146 1134.69 342.528 1136.02 341.829 1148.84 369.283 1161.73 382.42 1167.56 398.311 1173.4 414.202 1190.09 435.101 1203.13 462.003 1201.45 463.054 1199.7 463.653 1198.94 464.344 1193.26 450.404 1180.23 435.49 1166.06 405.458 1151.88 375.427 1140.27 359.019 1131.83 344.169Z" id="path26917" stroke="#042433" stroke-width="2.66667" stroke-miterlimit="8" fill="none" fill-rule="evenodd"/><text id="text26919" font-family="Kalam,Kalam_MSFontService,Arial" font-weight="400" font-size="32" transform="translate(1110.28 341)">M</text><path d="M0 0C1.90793-0.107087 3.30236-0.0360105 4.79989 0 3.93732 16.5859 3.57554 31.945 4.79989 48.7077 6.02425 65.4704 6.18205 78.3549 4.79989 105.444 3.41774 132.534 5.54908 149.012 4.79989 160.575 2.63759 160.532 0.969344 160.583 0 160.575-0.488084 148.384 1.74457 121.962 0 103.839-1.74457 85.7147 2.4127 69.2511 0 47.102-2.4127 24.9531-1.91433 12.6584 0 0Z" id="path26921" stroke="#042433" stroke-width="2.66667" stroke-miterlimit="8" fill="none" fill-rule="evenodd" transform="matrix(-0.623715 -0.781652 -0.781652 0.623715 337.316 210.047)"/><text id="text26923" font-family="Kalam,Kalam_MSFontService,Arial" font-weight="400" font-size="32" transform="translate(344.539 206)">K</text><path d="M0 0C1.90793-0.107087 3.30236-0.0360105 4.79989 0 4.16661 13.1516 3.09312 34.1407 4.79989 47.3193 6.50667 60.4978 3.31213 82.2427 4.79989 102.439 6.28766 122.634 7.03664 134.94 4.79989 155.998 2.63759 155.955 0.969344 156.006 0 155.998-1.55738 139.45-2.49134 118.875 0 100.879 2.49134 82.8821 2.4968 65.7455 0 45.7594-2.4968 25.7732-2.27989 19.754 0 0Z" id="path26925" stroke="#042433" stroke-width="2.66667" stroke-miterlimit="8" fill="none" fill-rule="evenodd" transform="matrix(-0.674137 0.738607 0.738607 0.674137 376.959 206.003)"/><path d="M0 0C1.90793-0.107087 3.30236-0.0360105 4.79989 0 3.93732 16.5859 3.57554 31.945 4.79989 48.7077 6.02425 65.4704 6.18205 78.3549 4.79989 105.444 3.41774 132.534 5.54908 149.012 4.79989 160.575 2.63759 160.532 0.969344 160.583 0 160.575-0.488084 148.384 1.74457 121.962 0 103.839-1.74457 85.7147 2.4127 69.2511 0 47.102-2.4127 24.9531-1.91433 12.6584 0 0Z" id="path26927" stroke="#042433" stroke-width="2.66667" stroke-miterlimit="8" fill="none" fill-rule="evenodd" transform="matrix(-0.623715 -0.781652 -0.781652 0.623715 956.913 212.8)"/><text id="text26929" font-family="Kalam,Kalam_MSFontService,Arial" font-weight="400" font-size="32" transform="translate(964.136 209)">M</text><path d="M0 0C1.90793-0.107087 3.30236-0.0360105 4.79989 0 4.16661 13.1516 3.09312 34.1407 4.79989 47.3193 6.50667 60.4978 3.31213 82.2427 4.79989 102.439 6.28766 122.634 7.03664 134.94 4.79989 155.998 2.63759 155.955 0.969344 156.006 0 155.998-1.55738 139.45-2.49134 118.875 0 100.879 2.49134 82.8821 2.4968 65.7455 0 45.7594-2.4968 25.7732-2.27989 19.754 0 0Z" id="path26931" stroke="#042433" stroke-width="2.66667" stroke-miterlimit="8" fill="none" fill-rule="evenodd" transform="matrix(-0.674137 0.738607 0.738607 0.674137 996.556 208.756)"/><path d="M0 0C1.90793-0.107087 3.30236-0.0360105 4.79989 0 5.9706 16.1456 2.57039 29.1761 4.79989 51.8054 7.0294 74.4346 4.79864 92.9722 4.79989 118.848 4.80115 144.723 7.65459 157.018 4.79989 179.795 1.9452 202.572 4.0589 212.17 4.79989 234.648 5.54089 257.125 7.14541 280.47 4.79989 304.738 2.4085 304.631 1.35454 304.581 0 304.738 0.787717 278.414 1.59381 259.789 0 237.695-1.59381 215.602 1.49963 191.007 0 170.653-1.49963 150.299 2.24682 126.131 0 112.753-2.24682 99.375-0.546772 80.4513 0 54.8528 0.546772 29.2543-1.50824 21.7304 0 0Z" id="path26933" stroke="#042433" stroke-width="2.66667" stroke-miterlimit="8" fill="none" fill-rule="evenodd" transform="matrix(-0.482946 -0.87565 -0.87565 0.482946 645.854 42.1842)"/><path d="M0 0C1.90793-0.107087 3.30236-0.0360105 4.7999 0 5.9706 16.1456 2.57039 29.1761 4.7999 51.8054 7.0294 74.4346 4.79864 92.9722 4.7999 118.848 4.80116 144.723 7.65459 157.018 4.7999 179.795 1.9452 202.572 4.0589 212.171 4.7999 234.648 5.54089 257.125 7.14541 280.47 4.7999 304.738 2.4085 304.631 1.35454 304.581 0 304.738 0.787717 278.414 1.59381 259.789 0 237.695-1.59381 215.602 1.49963 191.007 0 170.653-1.49963 150.299 2.24682 126.131 0 112.753-2.24682 99.375-0.546772 80.4513 0 54.8528 0.546772 29.2543-1.50824 21.7304 0 0Z" id="path26935" stroke="#042433" stroke-width="2.66667" stroke-miterlimit="8" fill="none" fill-rule="evenodd" transform="matrix(-0.51399 0.857796 0.857796 0.51399 692.38 35.4831)"/></g></g></svg>