<svg width="1129.38" height="482.234" viewBox="0 0 298.816 127.591" xmlns="http://www.w3.org/2000/svg" xmlns:xlink="http://www.w3.org/1999/xlink" id="svg5" overflow="hidden"><defs id="defs2"></defs><g id="layer1" transform="translate(-671.058 -87.4833)"><g id="g29575" transform="matrix(0.264583 0 0 0.264583 646.249 84.2422)"><text id="text29457" font-family="Kalam,Kalam_MSFontService,Arial" font-weight="400" font-size="32" transform="translate(91.3598 489)">7</text><text id="text29459" font-family="Kalam,Kalam_MSFontService,Arial" font-weight="400" font-size="32" transform="translate(106.193 489)">-</text><text id="text29461" font-family="Kalam,Kalam_MSFontService,Arial" font-weight="400" font-size="32" transform="translate(120.86 489)">2</text><text id="text29463" font-family="Kalam,Kalam_MSFontService,Arial" font-weight="400" font-size="32" transform="translate(242.194 488)">6</text><text id="text29465" font-family="Kalam,Kalam_MSFontService,Arial" font-weight="400" font-size="32" transform="translate(260.027 488)">-</text><text id="text29467" font-family="Kalam,Kalam_MSFontService,Arial" font-weight="400" font-size="32" transform="translate(274.694 488)">3</text><text id="text29469" font-family="Kalam,Kalam_MSFontService,Arial" font-weight="400" font-size="32" transform="translate(399.683 488)">6</text><text id="text29471" font-family="Kalam,Kalam_MSFontService,Arial" font-weight="400" font-size="32" transform="translate(417.516 488)">-</text><text id="text29473" font-family="Kalam,Kalam_MSFontService,Arial" font-weight="400" font-size="32" transform="translate(432.183 488)">3</text><text id="text29475" font-family="Kalam,Kalam_MSFontService,Arial" font-weight="400" font-size="32" transform="translate(555.781 488)">5</text><text id="text29477" font-family="Kalam,Kalam_MSFontService,Arial" font-weight="400" font-size="32" transform="translate(572.948 488)">-</text><text id="text29479" font-family="Kalam,Kalam_MSFontService,Arial" font-weight="400" font-size="32" transform="translate(587.614 488)">4</text><path d="M0 0C1.90793-0.107087 3.30236-0.0360105 4.79989 0 5.94898 14.1393 7.25953 43.4255 4.79989 64.91 2.34026 86.3945 6.459 110.903 4.79989 138.106 2.82247 138.205 0.994541 137.87 0 138.106 2.66016 117.78-1.23864 94.4007 0 70.4342 1.23864 46.4677 1.10383 20.8873 0 0Z" id="path29481" stroke="#F8CECC" stroke-width="2.66667" stroke-miterlimit="8" fill="none" fill-rule="evenodd" transform="matrix(-0.874273 -0.485435 -0.485435 0.874273 187.553 342.901)"/><path d="M201.866 343.469C203.48 342.445 204.732 341.827 206.057 341.128 218.877 368.582 231.766 381.719 237.601 397.61 243.435 413.501 260.125 434.401 273.171 461.303 271.493 462.353 269.734 462.952 268.981 463.643 263.297 449.704 250.272 434.789 236.095 404.758 221.917 374.726 210.306 358.318 201.866 343.469Z" id="path29483" stroke="#C5E0B4" stroke-width="2.66667" stroke-miterlimit="8" fill="none" fill-rule="evenodd"/><text id="text29485" font-family="Kalam,Kalam_MSFontService,Arial" font-weight="400" font-size="32" transform="translate(171.502 338)">6</text><text id="text29487" font-family="Kalam,Kalam_MSFontService,Arial" font-weight="400" font-size="32" transform="translate(189.335 338)">-</text><text id="text29489" font-family="Kalam,Kalam_MSFontService,Arial" font-weight="400" font-size="32" transform="translate(204.002 338)">2</text><path d="M0 0C1.90793-0.107087 3.30236-0.0360105 4.79989 0 5.94898 14.1393 7.25953 43.4255 4.79989 64.91 2.34026 86.3945 6.459 110.903 4.79989 138.106 2.82247 138.205 0.994541 137.87 0 138.106 2.66016 117.78-1.23864 94.4007 0 70.4342 1.23864 46.4677 1.10383 20.8873 0 0Z" id="path29491" stroke="#F8CECC" stroke-width="2.66667" stroke-miterlimit="8" fill="none" fill-rule="evenodd" transform="matrix(-0.874273 -0.485435 -0.485435 0.874273 498.837 341.632)"/><path d="M513.15 342.201C514.764 341.177 516.016 340.559 517.341 339.86 530.161 367.314 543.05 380.451 548.885 396.342 554.719 412.233 571.409 433.133 584.455 460.035 582.777 461.085 581.018 461.684 580.265 462.375 574.581 448.436 561.556 433.521 547.379 403.49 533.201 373.458 521.59 357.05 513.15 342.201Z" id="path29493" stroke="#C5E0B4" stroke-width="2.66667" stroke-miterlimit="8" fill="none" fill-rule="evenodd"/><text id="text29495" font-family="Kalam,Kalam_MSFontService,Arial" font-weight="400" font-size="32" transform="translate(477.275 342)">5</text><text id="text29497" font-family="Kalam,Kalam_MSFontService,Arial" font-weight="400" font-size="32" transform="translate(494.441 342)">-</text><text id="text29499" font-family="Kalam,Kalam_MSFontService,Arial" font-weight="400" font-size="32" transform="translate(509.108 342)">3</text><path d="M0 0C1.90793-0.107087 3.30236-0.0360105 4.79989 0 5.94898 14.1393 7.25953 43.4255 4.79989 64.91 2.34026 86.3945 6.459 110.903 4.79989 138.106 2.82247 138.205 0.994541 137.87 0 138.106 2.66016 117.78-1.23864 94.4007 0 70.4342 1.23864 46.4677 1.10383 20.8873 0 0Z" id="path29501" stroke="#F8CECC" stroke-width="2.66667" stroke-miterlimit="8" fill="none" fill-rule="evenodd" transform="matrix(-0.874273 -0.485435 -0.485435 0.874273 806.23 344.869)"/><path d="M820.544 345.438C822.157 344.414 823.41 343.796 824.735 343.097 837.555 370.551 850.444 383.688 856.278 399.579 862.113 415.47 878.803 436.369 891.849 463.272 890.171 464.322 888.411 464.921 887.658 465.612 881.974 451.673 868.95 436.758 854.772 406.727 840.595 376.695 828.983 360.287 820.544 345.438Z" id="path29503" stroke="#C5E0B4" stroke-width="2.66667" stroke-miterlimit="8" fill="none" fill-rule="evenodd"/><path d="M0 0C1.90793-0.107087 3.30236-0.0360105 4.79989 0 5.94898 14.1393 7.25953 43.4255 4.79989 64.91 2.34026 86.3945 6.459 110.903 4.79989 138.106 2.82247 138.205 0.994541 137.87 0 138.106 2.66016 117.78-1.23864 94.4007 0 70.4342 1.23864 46.4677 1.10383 20.8873 0 0Z" id="path29505" stroke="#F8CECC" stroke-width="2.66667" stroke-miterlimit="8" fill="none" fill-rule="evenodd" transform="matrix(-0.874273 -0.485435 -0.485435 0.874273 1117.51 343.601)"/><path d="M1131.83 344.169C1133.44 343.146 1134.69 342.528 1136.02 341.829 1148.84 369.283 1161.73 382.42 1167.56 398.311 1173.4 414.202 1190.09 435.101 1203.13 462.003 1201.45 463.054 1199.7 463.653 1198.94 464.344 1193.26 450.404 1180.23 435.49 1166.06 405.458 1151.88 375.427 1140.27 359.019 1131.83 344.169Z" id="path29507" stroke="#C5E0B4" stroke-width="2.66667" stroke-miterlimit="8" fill="none" fill-rule="evenodd"/><path d="M0 0C1.90793-0.107087 3.30236-0.0360105 4.79989 0 3.93732 16.5859 3.57554 31.945 4.79989 48.7077 6.02425 65.4704 6.18205 78.3549 4.79989 105.444 3.41774 132.534 5.54908 149.012 4.79989 160.575 2.63759 160.532 0.969344 160.583 0 160.575-0.488084 148.384 1.74457 121.962 0 103.839-1.74457 85.7147 2.4127 69.2511 0 47.102-2.4127 24.9531-1.91433 12.6584 0 0Z" id="path29509" stroke="#F8CECC" stroke-width="2.66667" stroke-miterlimit="8" fill="none" fill-rule="evenodd" transform="matrix(-0.623715 -0.781652 -0.781652 0.623715 337.316 210.047)"/><text id="text29511" font-family="Kalam,Kalam_MSFontService,Arial" font-weight="400" font-size="32" transform="translate(637.458 36)">4</text><text id="text29513" font-family="Kalam,Kalam_MSFontService,Arial" font-weight="400" font-size="32" transform="translate(655.125 36)">-</text><text id="text29515" font-family="Kalam,Kalam_MSFontService,Arial" font-weight="400" font-size="32" transform="translate(669.791 36)">2</text><path d="M0 0C1.90793-0.107087 3.30236-0.0360105 4.79989 0 4.16661 13.1516 3.09312 34.1407 4.79989 47.3193 6.50667 60.4978 3.31213 82.2427 4.79989 102.439 6.28766 122.634 7.03664 134.94 4.79989 155.998 2.63759 155.955 0.969344 156.006 0 155.998-1.55738 139.45-2.49134 118.875 0 100.879 2.49134 82.8821 2.4968 65.7455 0 45.7594-2.4968 25.7732-2.27989 19.754 0 0Z" id="path29517" stroke="#C5E0B4" stroke-width="2.66667" stroke-miterlimit="8" fill="none" fill-rule="evenodd" transform="matrix(-0.674137 0.738607 0.738607 0.674137 376.959 206.003)"/><path d="M0 0C1.90793-0.107087 3.30236-0.0360105 4.79989 0 3.93732 16.5859 3.57554 31.945 4.79989 48.7077 6.02425 65.4704 6.18205 78.3549 4.79989 105.444 3.41774 132.534 5.54908 149.012 4.79989 160.575 2.63759 160.532 0.969344 160.583 0 160.575-0.488084 148.384 1.74457 121.962 0 103.839-1.74457 85.7147 2.4127 69.2511 0 47.102-2.4127 24.9531-1.91433 12.6584 0 0Z" id="path29519" stroke="#F8CECC" stroke-width="2.66667" stroke-miterlimit="8" fill="none" fill-rule="evenodd" transform="matrix(-0.623715 -0.781652 -0.781652 0.623715 956.913 212.8)"/><path d="M0 0C1.90793-0.107087 3.30236-0.0360105 4.79989 0 4.16661 13.1516 3.09312 34.1407 4.79989 47.3193 6.50667 60.4978 3.31213 82.2427 4.79989 102.439 6.28766 122.634 7.03664 134.94 4.79989 155.998 2.63759 155.955 0.969344 156.006 0 155.998-1.55738 139.45-2.49134 118.875 0 100.879 2.49134 82.8821 2.4968 65.7455 0 45.7594-2.4968 25.7732-2.27989 19.754 0 0Z" id="path29521" stroke="#C5E0B4" stroke-width="2.66667" stroke-miterlimit="8" fill="none" fill-rule="evenodd" transform="matrix(-0.674137 0.738607 0.738607 0.674137 996.556 208.756)"/><path d="M0 0C1.90793-0.107087 3.30236-0.0360105 4.79989 0 5.9706 16.1456 2.57039 29.1761 4.79989 51.8054 7.0294 74.4346 4.79864 92.9722 4.79989 118.848 4.80115 144.723 7.65459 157.018 4.79989 179.795 1.9452 202.572 4.0589 212.17 4.79989 234.648 5.54089 257.125 7.14541 280.47 4.79989 304.738 2.4085 304.631 1.35454 304.581 0 304.738 0.787717 278.414 1.59381 259.789 0 237.695-1.59381 215.602 1.49963 191.007 0 170.653-1.49963 150.299 2.24682 126.131 0 112.753-2.24682 99.375-0.546772 80.4513 0 54.8528 0.546772 29.2543-1.50824 21.7304 0 0Z" id="path29523" stroke="#F8CECC" stroke-width="2.66667" stroke-miterlimit="8" fill="none" fill-rule="evenodd" transform="matrix(-0.482946 -0.87565 -0.87565 0.482946 645.854 42.1842)"/><path d="M0 0C1.90793-0.107087 3.30236-0.0360105 4.7999 0 5.9706 16.1456 2.57039 29.1761 4.7999 51.8054 7.0294 74.4346 4.79864 92.9722 4.7999 118.848 4.80116 144.723 7.65459 157.018 4.7999 179.795 1.9452 202.572 4.0589 212.171 4.7999 234.648 5.54089 257.125 7.14541 280.47 4.7999 304.738 2.4085 304.631 1.35454 304.581 0 304.738 0.787717 278.414 1.59381 259.789 0 237.695-1.59381 215.602 1.49963 191.007 0 170.653-1.49963 150.299 2.24682 126.131 0 112.753-2.24682 99.375-0.546772 80.4513 0 54.8528 0.546772 29.2543-1.50824 21.7304 0 0Z" id="path29525" stroke="#C5E0B4" stroke-width="2.66667" stroke-miterlimit="8" fill="none" fill-rule="evenodd" transform="matrix(-0.51399 0.857796 0.857796 0.51399 692.38 35.4831)"/><text id="text29527" font-family="Kalam,Kalam_MSFontService,Arial" font-weight="400" font-size="32" transform="translate(324.642 202)">5</text><text id="text29529" font-family="Kalam,Kalam_MSFontService,Arial" font-weight="400" font-size="32" transform="translate(341.808 202)">-</text><text id="text29531" font-family="Kalam,Kalam_MSFontService,Arial" font-weight="400" font-size="32" transform="translate(356.475 202)">2</text><text id="text29533" font-family="Kalam,Kalam_MSFontService,Arial" font-weight="400" font-size="32" transform="translate(953.768 209)">4</text><text id="text29535" font-family="Kalam,Kalam_MSFontService,Arial" font-weight="400" font-size="32" transform="translate(971.434 209)">-</text><text id="text29537" font-family="Kalam,Kalam_MSFontService,Arial" font-weight="400" font-size="32" transform="translate(986.101 209)">3</text><text id="text29539" font-family="Kalam,Kalam_MSFontService,Arial" font-weight="400" font-size="32" transform="translate(791.749 338)">5</text><text id="text29541" font-family="Kalam,Kalam_MSFontService,Arial" font-weight="400" font-size="32" transform="translate(808.916 338)">-</text><text id="text29543" font-family="Kalam,Kalam_MSFontService,Arial" font-weight="400" font-size="32" transform="translate(823.582 338)">3</text><text id="text29545" font-family="Kalam,Kalam_MSFontService,Arial" font-weight="400" font-size="32" transform="translate(707.541 488)">6</text><text id="text29547" font-family="Kalam,Kalam_MSFontService,Arial" font-weight="400" font-size="32" transform="translate(725.374 488)">-</text><text id="text29549" font-family="Kalam,Kalam_MSFontService,Arial" font-weight="400" font-size="32" transform="translate(740.041 488)">3</text><text id="text29551" font-family="Kalam,Kalam_MSFontService,Arial" font-weight="400" font-size="32" transform="translate(863.195 493)">5</text><text id="text29553" font-family="Kalam,Kalam_MSFontService,Arial" font-weight="400" font-size="32" transform="translate(880.361 493)">-</text><text id="text29555" font-family="Kalam,Kalam_MSFontService,Arial" font-weight="400" font-size="32" transform="translate(895.028 493)">4</text><text id="text29557" font-family="Kalam,Kalam_MSFontService,Arial" font-weight="400" font-size="32" transform="translate(1096.15 341)">4</text><text id="text29559" font-family="Kalam,Kalam_MSFontService,Arial" font-weight="400" font-size="32" transform="translate(1113.81 341)">-</text><text id="text29561" font-family="Kalam,Kalam_MSFontService,Arial" font-weight="400" font-size="32" transform="translate(1128.48 341)">4</text><text id="text29563" font-family="Kalam,Kalam_MSFontService,Arial" font-weight="400" font-size="32" transform="translate(1018.85 492)">5</text><text id="text29565" font-family="Kalam,Kalam_MSFontService,Arial" font-weight="400" font-size="32" transform="translate(1036.02 492)">-</text><text id="text29567" font-family="Kalam,Kalam_MSFontService,Arial" font-weight="400" font-size="32" transform="translate(1050.68 492)">4</text><text id="text29569" font-family="Kalam,Kalam_MSFontService,Arial" font-weight="400" font-size="32" transform="translate(1172.74 494)">4</text><text id="text29571" font-family="Kalam,Kalam_MSFontService,Arial" font-weight="400" font-size="32" transform="translate(1190.41 494)">-</text><text id="text29573" font-family="Kalam,Kalam_MSFontService,Arial" font-weight="400" font-size="32" transform="translate(1205.07 494)">5</text></g></g></svg>