<svg width="913.154" height="504.538" viewBox="0 0 241.605 133.492" xmlns="http://www.w3.org/2000/svg" xmlns:xlink="http://www.w3.org/1999/xlink" id="svg5" overflow="hidden"><defs id="defs2"></defs><g id="layer1" transform="translate(195.552 -1168.4)"><g id="g13658" transform="matrix(0.264583 0 0 0.264583 -244.003 1145.52)"><path d="M186 136C210.639 134.797 219.809 133.584 237.686 136 255.563 138.416 297.291 139.159 316.612 136 335.934 132.841 348.493 138.353 368.298 136 388.104 133.647 407.268 135.746 429.065 136 450.862 136.254 478.909 139.585 507.991 136 537.073 132.415 540.598 136.517 559.677 136 578.756 135.483 594.621 136.364 620.443 136 646.265 135.636 649.773 135.169 663.049 136 676.325 136.831 724.284 140.215 751.055 136 777.827 131.785 792.658 137.939 820.901 136 849.145 134.061 873.201 138.703 899.828 136 926.455 133.297 951.174 132.586 969.674 136 988.173 139.414 1006.43 136.735 1021.36 136 1036.29 135.265 1078.51 139.565 1094 136 1093.11 150.481 1095.26 170.2 1094 196.051 1092.74 221.903 1092.12 247.631 1094 265.143 1095.88 282.655 1090.99 318.557 1094 338.754 1097.01 358.951 1092.32 367.516 1094 394.286 1095.68 421.056 1093.21 444.425 1094 467.897 1094.79 491.369 1090.18 560.519 1094 588 1082.04 589.805 1069.45 589.085 1051.39 588 1033.34 586.915 1015.66 589.93 990.628 588 965.6 586.07 927.726 591.865 911.701 588 895.677 584.135 861.116 587.323 823.695 588 786.275 588.677 779.351 591.43 744.769 588 710.187 584.57 694.453 587.303 674.923 588 655.394 588.697 652.976 586.992 632.317 588 611.658 589.008 606.095 586.966 589.711 588 573.326 589.034 535.684 590.66 501.705 588 467.725 585.34 449.702 586.308 413.698 588 377.695 589.692 355.7 583.887 325.692 588 295.684 592.113 286.652 585.652 274.006 588 261.36 590.348 221.464 586.087 186 588 185.003 568.233 185.997 542.15 186 527.949 186.003 513.747 183.465 476.826 186 458.857 188.535 440.888 187.818 419.345 186 403.326 184.182 387.307 187.719 356.528 186 343.274 184.281 330.02 187.982 311.266 186 283.223 184.018 255.18 185.594 238.677 186 209.611 186.406 180.546 185.261 158.774 186 136Z" id="path13652" fill="#F2F2F2" fill-rule="evenodd"/><path d="M186 136C199.459 138.787 230.61 133.019 246.766 136 262.922 138.981 279.897 135.744 298.452 136 317.008 136.256 336.607 133.057 368.298 136 399.99 138.943 423.768 138.826 438.145 136 452.521 133.174 485.012 137.91 498.911 136 512.81 134.09 531.105 134.686 541.517 136 551.929 137.314 610.355 139.478 629.523 136 648.691 132.522 660.901 135.081 672.129 136 683.357 136.919 724.803 136.961 751.055 136 777.308 135.039 809.826 133.165 839.062 136 868.297 138.835 866.755 137.495 890.748 136 914.74 134.505 941.391 133.775 960.594 136 979.797 138.225 995.485 138.059 1021.36 136 1047.23 133.941 1064.31 137.302 1094 136 1090.58 151.021 1094.3 172.861 1094 205.091 1093.7 237.322 1094.66 243.564 1094 274.183 1093.34 304.802 1094.27 328.864 1094 347.794 1093.73 366.724 1091.96 385.26 1094 403.326 1096.04 421.392 1091.36 434.803 1094 463.377 1096.64 491.951 1094.43 504.906 1094 518.909 1093.57 532.911 1092.04 554.137 1094 588 1073.56 588.158 1067.09 587.601 1051.39 588 1035.7 588.399 1024.31 587.291 1008.79 588 993.266 588.709 979.516 585.505 957.102 588 934.687 590.495 920.847 588.35 887.255 588 853.663 587.65 856.814 588.764 844.649 588 832.484 587.236 783.795 587.999 756.643 588 729.491 588.001 711.276 583.744 668.637 588 625.998 592.256 627.347 588.522 598.791 588 570.234 587.478 570.538 586.176 556.185 588 541.831 589.824 509.641 588.464 486.339 588 463.036 587.536 450.529 584.963 416.492 588 382.456 591.037 377.292 586.912 346.646 588 316 589.088 318.112 586.633 294.96 588 271.808 589.367 224.31 589.051 186 588 187.677 565.272 188.334 545.618 186 527.949 183.666 510.28 186.539 495.443 186 472.417 185.461 449.392 187.743 443.133 186 416.886 184.257 390.638 184.891 372.964 186 361.354 187.109 349.744 188.708 322.068 186 296.783 183.292 271.498 183.697 260.928 186 232.211 188.303 203.495 186.382 175.121 186 136Z" id="path13654" stroke="#042433" stroke-width="2" stroke-miterlimit="8" fill="none" fill-rule="evenodd"/><text id="text13656" font-family="Kalam,Kalam_MSFontService,Arial" font-weight="400" font-size="53" transform="translate(196.006 127)">Areal av utfallsrommet: 1</text></g></g></svg>