<?xml version="1.0" encoding="UTF-8" standalone="no"?>
<!-- Created with Inkscape (http://www.inkscape.org/) -->

<svg
   width="270.44034mm"
   height="66.672668mm"
   viewBox="0 0 270.44034 66.672668"
   version="1.1"
   id="svg1"
   xmlns:inkscape="http://www.inkscape.org/namespaces/inkscape"
   xmlns:sodipodi="http://sodipodi.sourceforge.net/DTD/sodipodi-0.dtd"
   xmlns="http://www.w3.org/2000/svg"
   xmlns:svg="http://www.w3.org/2000/svg">
  <sodipodi:namedview
     id="namedview1"
     pagecolor="#505050"
     bordercolor="#ffffff"
     borderopacity="1"
     inkscape:showpageshadow="0"
     inkscape:pageopacity="0"
     inkscape:pagecheckerboard="1"
     inkscape:deskcolor="#d1d1d1"
     inkscape:document-units="mm"
     inkscape:export-bgcolor="#ffffff00" />
  <defs
     id="defs1" />
  <g
     inkscape:label="Lag 1"
     inkscape:groupmode="layer"
     id="layer1"
     transform="translate(-16.113058,-35.718749)">
    <g
       transform="matrix(0.26458333,0,0,0.26458333,-13.49375,-20.372917)"
       id="g43">
      <path
         d="m 1094.86,404.513 0.01,2.992 -0.39,3.038 -1.86,5.607 -0.45,0.745 -2.56,-1.568 0.37,-0.598 -0.15,0.313 1.76,-5.305 -0.06,0.282 0.35,-2.796 -0.01,0.198 -0.01,-2.892 z m -8.15,19.841 -1.57,1.742 -5.26,4.332 -2.7,1.764 -1.64,-2.512 2.63,-1.718 -0.13,0.099 5.1,-4.209 -0.16,0.149 1.51,-1.661 z m -17.4,12.446 -2.15,1.154 -7.25,3.266 -1.86,0.524 -0.82,-2.888 1.76,-0.493 -0.21,0.076 7.1,-3.199 -0.1,0.046 2.11,-1.13 z m -20.08,7.121 -0.91,0.199 -5.91,0.855 -5.33,0.287 -0.17,-2.996 5.27,-0.283 -0.13,0.013 5.79,-0.837 -0.11,0.02 0.86,-0.188 z m -21.46,0.469 -2.75,-0.536 -5.4,-1.995 -3.4,-2.029 1.54,-2.577 3.28,1.958 -0.25,-0.119 5.16,1.906 -0.23,-0.065 2.63,0.513 z m -19.51,-8.365 -0.5,-0.227 -6.31,-3.959 -3.36,-2.887 1.96,-2.274 3.27,2.813 -0.18,-0.133 6.13,3.844 -0.18,-0.096 0.41,0.185 z m -16.398,-13.878 -0.108,-0.13 -3.219,-5.748 -1.798,-5.528 2.853,-0.928 1.753,5.388 -0.118,-0.269 3.079,5.499 -0.155,-0.226 0.02,0.024 z m -5.902,-20.924 0.136,-1.573 2.989,0.258 -0.136,1.574 z m -5.601,6.206 7.488,-10.616 5.555,11.743 c 0.354,0.749 0.035,1.643 -0.714,1.997 -0.749,0.355 -1.644,0.035 -1.998,-0.714 l -4.455,-9.419 2.582,0.223 -6.006,8.515 c -0.478,0.677 -1.413,0.838 -2.09,0.361 -0.677,-0.478 -0.839,-1.413 -0.362,-2.09 z"
         fill="#156082"
         id="path1" />
      <path
         d="m 113,360 c 21.734,-0.637 41.594,0.535 72.857,0 31.263,-0.535 59.361,-4.713 93.257,0 33.897,4.713 72.6,-2.483 93.257,0 20.658,2.483 33.647,-1.7 42.258,0 8.61,1.7 46.522,0.77 72.857,0 26.335,-0.77 31.555,-1.877 42.257,0 10.701,1.877 21.819,0.119 42.257,0 20.438,-0.119 48.806,1.668 62.657,0 13.852,-1.668 50.849,-2.373 72.857,0 22.008,2.373 26.209,0.402 42.257,0 16.048,-0.402 35.899,1.118 52.458,0 16.558,-1.118 46.9,-3.175 62.657,0 15.757,3.175 29.773,1.937 42.257,0 12.484,-1.937 30.317,-0.908 42.257,0 11.94,0.908 44.68,1.026 72.86,0 28.17,-1.026 58.89,3.666 110.74,0 0.23,1.349 0.03,3.29 0,5 -28.29,0.556 -36.62,2.057 -72.86,0 -36.23,-2.057 -46.89,-3.146 -62.654,0 -15.766,3.146 -39.653,1.173 -62.657,0 -23.005,-1.173 -70.399,2.764 -93.258,0 -22.858,-2.764 -31.333,0.268 -42.257,0 -10.924,-0.268 -59.924,1.454 -83.057,0 -23.133,-1.454 -39.367,-1.632 -62.657,0 -23.29,1.632 -34.018,-0.738 -52.457,0 -18.439,0.738 -57.933,-1.98 -72.857,0 -14.924,1.98 -48.581,4.217 -83.057,0 -34.477,-4.217 -31.539,2.014 -62.658,0 -31.119,-2.014 -41.135,2.404 -52.457,0 -11.322,-2.404 -43.174,3.047 -72.857,0 -29.683,-3.047 -53.59,2.87 -72.857,0 -19.267,-2.87 -42.031,2.589 -71.4,0 -0.031,-2.31 -0.174,-3.411 0,-5 z"
         fill-rule="evenodd"
         id="path2" />
      <path
         d="m 113,360 c 39.502,3.033 64.194,1.76 93.257,0 29.064,-1.76 36.485,-1.49 52.457,0 15.973,1.49 27.843,2.309 52.457,0 24.614,-2.309 32.036,-2.611 52.458,0 20.421,2.611 28.593,1.199 42.257,0 13.664,-1.199 24.586,-0.818 42.257,0 17.671,0.818 28.561,-0.935 42.257,0 13.696,0.935 28.272,0.481 42.257,0 13.985,-0.481 54.686,3.339 72.857,0 18.171,-3.339 50.371,-3.845 93.257,0 42.887,3.845 32.825,-1.555 42.258,0 9.432,1.555 47.593,3.107 62.657,0 15.063,-3.107 27.278,-0.915 42.257,0 14.979,0.915 37.108,0.13 62.657,0 25.549,-0.13 31.828,1.14 42.257,0 10.429,-1.14 53.133,-3.403 72.853,0 19.73,3.403 71.4,-0.896 109.29,0 0.08,1.225 0,2.507 0,5 -23.1,3.79 -40.23,-0.456 -72.86,0 -32.63,0.456 -42.83,3.293 -83.054,0 -40.222,-3.293 -24.43,-0.984 -42.257,0 -17.828,0.984 -57.507,2.835 -72.858,0 -15.35,-2.835 -57.057,-1.202 -72.857,0 -15.799,1.202 -46.669,3.181 -62.657,0 -15.987,-3.181 -55.142,3.622 -72.857,0 -17.715,-3.622 -72.638,-4.336 -93.257,0 -20.619,4.336 -35.417,3.032 -62.657,0 -27.24,-3.032 -27.319,-1.653 -42.257,0 -14.939,1.653 -38.249,-3.567 -72.858,0 -34.608,3.567 -63.708,-1.075 -83.057,0 -19.348,1.075 -47.427,-2.906 -72.857,0 -25.43,2.906 -82.05,5.35 -113.657,0 -0.064,-1.727 -0.191,-2.686 0,-5 z"
         stroke="#000000"
         stroke-width="2"
         stroke-miterlimit="8"
         fill="none"
         fill-rule="evenodd"
         id="path3" />
      <path
         d="m 639,343 c 1.609,0.027 3.066,0.1 4,0 -1.824,8.049 -1.202,24.821 0,37 -1.548,-0.095 -2.111,-0.105 -4,0 0.029,-15.119 -1.926,-25.555 0,-37 z"
         fill-rule="evenodd"
         id="path4" />
      <path
         d="m 639,343 c 1.238,0.041 2.399,0.127 4,0 0.663,12.092 0.755,22.309 0,37 -1.172,0.128 -2.462,0.166 -4,0 -0.89,-12.397 0.076,-20.428 0,-37 z"
         stroke="#000000"
         stroke-width="2"
         stroke-miterlimit="8"
         fill="none"
         fill-rule="evenodd"
         id="path5" />
      <path
         d="m 789,340 c 1.609,0.028 3.066,0.103 4,0 -1.824,8.266 -1.202,25.492 0,38 -1.548,-0.098 -2.111,-0.108 -4,0 0.029,-15.528 -1.926,-26.246 0,-38 z"
         fill-rule="evenodd"
         id="path6" />
      <path
         d="m 789,340 c 1.238,0.042 2.399,0.131 4,0 0.663,12.419 0.755,22.912 0,38 -1.172,0.132 -2.462,0.171 -4,0 -0.89,-12.732 0.076,-20.98 0,-38 z"
         stroke="#000000"
         stroke-width="2"
         stroke-miterlimit="8"
         fill="none"
         fill-rule="evenodd"
         id="path7" />
      <path
         d="m 942,341 c 1.609,0.028 3.066,0.103 4,0 -1.824,8.266 -1.202,25.492 0,38 -1.548,-0.098 -2.111,-0.108 -4,0 0.029,-15.528 -1.926,-26.246 0,-38 z"
         fill-rule="evenodd"
         id="path8" />
      <path
         d="m 942,341 c 1.238,0.042 2.399,0.131 4,0 0.663,12.419 0.755,22.912 0,38 -1.172,0.132 -2.462,0.171 -4,0 -0.89,-12.732 0.076,-20.98 0,-38 z"
         stroke="#000000"
         stroke-width="2"
         stroke-miterlimit="8"
         fill="none"
         fill-rule="evenodd"
         id="path9" />
      <path
         d="m 488,341 c 1.609,0.028 3.066,0.103 4,0 -1.824,8.266 -1.202,25.492 0,38 -1.548,-0.098 -2.111,-0.108 -4,0 0.029,-15.528 -1.926,-26.246 0,-38 z"
         fill-rule="evenodd"
         id="path10" />
      <path
         d="m 488,341 c 1.238,0.042 2.399,0.131 4,0 0.663,12.419 0.755,22.912 0,38 -1.172,0.132 -2.462,0.171 -4,0 -0.89,-12.732 0.076,-20.98 0,-38 z"
         stroke="#000000"
         stroke-width="2"
         stroke-miterlimit="8"
         fill="none"
         fill-rule="evenodd"
         id="path11" />
      <path
         d="m 336,342 c 1.609,0.028 3.066,0.103 4,0 -1.824,8.266 -1.202,25.492 0,38 -1.548,-0.098 -2.111,-0.108 -4,0 0.029,-15.528 -1.926,-26.246 0,-38 z"
         fill-rule="evenodd"
         id="path12" />
      <path
         d="m 336,342 c 1.238,0.042 2.399,0.131 4,0 0.663,12.419 0.755,22.912 0,38 -1.172,0.132 -2.462,0.171 -4,0 -0.89,-12.732 0.076,-20.98 0,-38 z"
         stroke="#000000"
         stroke-width="2"
         stroke-miterlimit="8"
         fill="none"
         fill-rule="evenodd"
         id="path13" />
      <path
         d="m 185,340 c 1.609,0.028 3.066,0.103 4,0 -1.824,8.266 -1.202,25.492 0,38 -1.548,-0.098 -2.111,-0.108 -4,0 0.029,-15.528 -1.926,-26.246 0,-38 z"
         fill-rule="evenodd"
         id="path14" />
      <path
         d="m 185,340 c 1.238,0.042 2.399,0.131 4,0 0.663,12.419 0.755,22.912 0,38 -1.172,0.132 -2.462,0.171 -4,0 -0.89,-12.732 0.076,-20.98 0,-38 z"
         stroke="#000000"
         stroke-width="2"
         stroke-miterlimit="8"
         fill="none"
         fill-rule="evenodd"
         id="path15" />
      <text
         font-family="Calibri, Calibri_MSFontService, sans-serif"
         font-weight="400"
         font-size="43px"
         transform="translate(172.864,317)"
         id="text15">0</text>
      <text
         font-family="Calibri, Calibri_MSFontService, sans-serif"
         font-weight="400"
         font-size="43px"
         transform="translate(325.359,317)"
         id="text16">4</text>
      <text
         font-family="Calibri, Calibri_MSFontService, sans-serif"
         font-weight="400"
         font-size="43px"
         transform="translate(477.307,317)"
         id="text17">8</text>
      <text
         font-family="Calibri, Calibri_MSFontService, sans-serif"
         font-weight="400"
         font-size="43px"
         transform="translate(622.481,317)"
         id="text18">12</text>
      <text
         font-family="Calibri, Calibri_MSFontService, sans-serif"
         font-weight="400"
         font-size="43px"
         transform="translate(769.286,317)"
         id="text19">16</text>
      <text
         font-family="Calibri, Calibri_MSFontService, sans-serif"
         font-weight="400"
         font-size="43px"
         transform="translate(921.782,317)"
         id="text20">20</text>
      <path
         d="m 186.032,266.528 2.322,-6.291 2.561,-5.957 2.81,-5.587 3.079,-5.215 3.371,-4.837 3.682,-4.452 4.013,-4.062 4.362,-3.665 4.727,-3.26 5.109,-2.851 5.504,-2.436 5.916,-2.021 6.344,-1.602 6.789,-1.183 7.252,-0.763 7.83,-0.346 13.707,1.862 13.167,3.08 12.366,4.369 11.199,5.71 5.105,3.408 4.667,3.759 4.209,4.135 3.704,4.517 3.149,4.907 2.548,5.3 1.898,5.692 0.609,3.08 -2.943,0.583 -0.591,-2.987 0.049,0.183 -1.838,-5.513 0.071,0.176 -2.467,-5.131 0.09,0.16 -3.053,-4.756 0.102,0.141 -3.597,-4.388 0.109,0.119 -4.098,-4.026 0.11,0.098 -4.558,-3.671 0.108,0.08 -4.975,-3.322 0.151,0.088 -11.032,-5.624 0.181,0.078 -12.194,-4.309 0.158,0.046 -13.018,-3.045 0.14,0.026 -13.503,-1.835 0.268,0.013 -7.65,0.338 0.091,-0.007 -7.157,0.753 0.101,-0.014 -6.684,1.165 0.11,-0.023 -6.23,1.573 0.118,-0.035 -5.796,1.979 0.122,-0.048 -5.381,2.383 0.124,-0.062 -4.986,2.782 0.121,-0.075 -4.61,3.179 0.113,-0.086 -4.254,3.574 0.102,-0.094 -3.917,3.965 0.089,-0.098 -3.601,4.353 0.075,-0.098 -3.303,4.74 0.061,-0.095 -3.025,5.122 0.048,-0.088 -2.766,5.502 0.038,-0.081 -2.528,5.879 0.029,-0.073 -2.308,6.254 z m 155.349,-13.775 -4.243,12.278 -8.599,-9.738 c -0.549,-0.621 -0.49,-1.569 0.131,-2.117 0.621,-0.548 1.569,-0.489 2.117,0.132 l 6.897,7.809 -2.542,0.503 3.404,-9.847 c 0.27,-0.783 1.124,-1.199 1.907,-0.928 0.783,0.27 1.199,1.125 0.928,1.908 z"
         fill="#4ea72e"
         id="path20" />
      <path
         d="m 342.97,269.167 4.612,-12.186 5.979,-10.854 3.515,-4.92 3.831,-4.522 4.159,-4.138 4.485,-3.744 4.806,-3.341 5.123,-2.931 5.435,-2.51 5.743,-2.084 6.045,-1.649 6.345,-1.21 6.64,-0.763 7.045,-0.316 13.356,2.309 12.8,3.342 12.029,4.491 10.904,5.732 4.974,3.393 4.552,3.734 4.108,4.102 3.619,4.484 3.082,4.875 2.498,5.275 1.869,5.679 0.607,3.083 -2.944,0.579 -0.588,-2.992 0.047,0.179 -1.811,-5.501 0.069,0.173 -2.419,-5.108 0.087,0.159 -2.987,-4.725 0.101,0.141 -3.514,-4.354 0.108,0.119 -4,-3.994 0.109,0.099 -4.444,-3.645 0.106,0.079 -4.848,-3.307 0.147,0.088 -10.744,-5.647 0.173,0.078 -11.868,-4.432 0.146,0.046 -12.665,-3.306 0.124,0.026 -13.134,-2.271 0.323,0.021 -6.831,0.306 0.104,-0.008 -6.532,0.751 0.109,-0.017 -6.232,1.188 0.114,-0.026 -5.93,1.618 0.116,-0.037 -5.625,2.041 0.117,-0.048 -5.318,2.457 0.115,-0.06 -5.009,2.865 0.112,-0.071 -4.698,3.267 0.105,-0.081 -4.383,3.66 0.096,-0.088 -4.067,4.047 0.087,-0.094 -3.749,4.426 0.075,-0.097 -3.428,4.798 0.094,-0.149 -5.885,10.685 0.089,-0.193 -4.575,12.086 z m 151.521,-13.732 -4.258,12.274 -8.587,-9.748 c -0.548,-0.622 -0.488,-1.569 0.134,-2.117 0.621,-0.548 1.569,-0.488 2.117,0.134 l 6.887,7.818 -2.542,0.5 3.415,-9.844 c 0.271,-0.782 1.126,-1.197 1.909,-0.925 0.782,0.271 1.197,1.126 0.925,1.908 z"
         fill="#4ea72e"
         id="path21" />
      <path
         d="m 491.965,265.872 2.043,-5.654 2.485,-5.402 2.887,-5.092 3.288,-4.803 7.593,-8.591 8.92,-7.356 10.074,-6.102 11.08,-4.854 11.943,-3.616 12.745,-2.401 6.768,0.146 6.659,0.574 6.602,0.999 6.489,1.422 6.321,1.842 6.096,2.259 5.815,2.674 5.478,3.089 5.083,3.502 4.629,3.914 4.115,4.326 3.539,4.736 2.898,5.141 2.193,5.539 1.426,5.925 0.307,3.236 -2.987,0.284 -0.297,-3.131 0.035,0.209 -1.376,-5.718 0.064,0.201 -2.117,-5.345 0.088,0.184 -2.8,-4.968 0.105,0.161 -3.428,-4.587 0.115,0.136 -3.998,-4.202 0.119,0.111 -4.511,-3.814 0.118,0.09 -4.966,-3.421 0.114,0.071 -5.365,-3.025 0.109,0.056 -5.707,-2.624 0.106,0.043 -5.993,-2.22 0.102,0.033 -6.221,-1.812 0.099,0.025 -6.392,-1.401 0.097,0.018 -6.506,-0.985 0.096,0.012 -6.562,-0.566 0.096,0.006 -6.563,-0.142 0.31,-0.026 -12.513,2.357 0.157,-0.038 -11.78,3.566 0.168,-0.061 -10.908,4.778 0.175,-0.091 -9.895,5.994 0.177,-0.125 -8.745,7.211 0.17,-0.163 -7.454,8.432 0.114,-0.146 -3.199,4.674 0.067,-0.107 -2.825,4.981 0.058,-0.113 -2.432,5.287 0.048,-0.116 -2.022,5.594 z m 151.72,-13.231 -5.456,11.79 -7.577,-10.553 c -0.483,-0.672 -0.329,-1.61 0.343,-2.093 0.673,-0.483 1.611,-0.329 2.094,0.344 l 6.077,8.463 -2.58,0.245 4.376,-9.456 c 0.348,-0.752 1.24,-1.079 1.991,-0.731 0.752,0.348 1.08,1.239 0.732,1.991 z"
         fill="#4ea72e"
         id="path22" />
      <path
         d="m 640.97,269.167 4.612,-12.186 5.979,-10.854 3.515,-4.92 3.831,-4.522 4.159,-4.138 4.485,-3.744 4.806,-3.341 5.123,-2.931 5.435,-2.51 5.743,-2.084 6.045,-1.649 6.345,-1.21 6.64,-0.763 7.045,-0.316 13.356,2.309 12.8,3.342 12.029,4.491 10.904,5.732 4.974,3.393 4.552,3.734 4.108,4.102 3.619,4.484 3.082,4.875 2.498,5.275 1.869,5.679 0.607,3.083 -2.944,0.579 -0.588,-2.992 0.047,0.179 -1.811,-5.501 0.069,0.173 -2.419,-5.108 0.087,0.159 -2.987,-4.725 0.101,0.141 -3.514,-4.354 0.108,0.119 -4,-3.994 0.109,0.099 -4.444,-3.645 0.106,0.079 -4.848,-3.307 0.147,0.088 -10.744,-5.647 0.173,0.078 -11.868,-4.432 0.146,0.046 -12.665,-3.306 0.124,0.026 -13.134,-2.271 0.323,0.021 -6.831,0.306 0.104,-0.008 -6.532,0.751 0.109,-0.017 -6.232,1.188 0.114,-0.026 -5.931,1.618 0.117,-0.037 -5.625,2.041 0.117,-0.048 -5.318,2.457 0.115,-0.06 -5.009,2.865 0.112,-0.071 -4.698,3.267 0.105,-0.081 -4.383,3.66 0.096,-0.088 -4.067,4.047 0.087,-0.094 -3.749,4.426 0.075,-0.097 -3.428,4.798 0.094,-0.149 -5.885,10.685 0.089,-0.193 -4.575,12.086 z m 151.521,-13.732 -4.258,12.274 -8.587,-9.748 c -0.548,-0.622 -0.488,-1.569 0.134,-2.117 0.621,-0.548 1.569,-0.488 2.117,0.134 l 6.887,7.818 -2.542,0.5 3.415,-9.844 c 0.271,-0.782 1.126,-1.197 1.909,-0.925 0.782,0.271 1.197,1.126 0.925,1.908 z"
         fill="#4ea72e"
         id="path23" />
      <path
         d="m 1092,343 c 1.21,0.027 2.3,0.1 3,0 -1.37,8.049 -0.9,24.821 0,37 -1.16,-0.095 -1.58,-0.105 -3,0 0.02,-15.119 -1.44,-25.555 0,-37 z"
         fill-rule="evenodd"
         id="path24" />
      <path
         d="m 1092,343 c 0.93,0.041 1.8,0.127 3,0 0.5,12.092 0.57,22.309 0,37 -0.88,0.128 -1.85,0.166 -3,0 -0.67,-12.397 0.06,-20.428 0,-37 z"
         stroke="#000000"
         stroke-width="2"
         stroke-miterlimit="8"
         fill="none"
         fill-rule="evenodd"
         id="path25" />
      <text
         font-family="Calibri, Calibri_MSFontService, sans-serif"
         font-weight="400"
         font-size="43px"
         transform="translate(1071.19,318)"
         id="text25">24</text>
      <path
         d="m 793.031,268.953 2.322,-6.339 2.56,-6.003 2.81,-5.631 3.079,-5.255 3.37,-4.874 3.681,-4.487 4.013,-4.094 4.362,-3.693 4.727,-3.286 5.109,-2.873 5.504,-2.456 5.917,-2.037 6.344,-1.614 6.79,-1.193 7.254,-0.769 7.831,-0.349 13.708,1.877 13.169,3.104 12.366,4.404 11.2,5.755 5.104,3.435 4.668,3.789 4.208,4.166 3.703,4.553 3.149,4.944 2.546,5.339 1.898,5.735 0.613,3.125 -2.944,0.578 -0.595,-3.032 0.048,0.182 -1.838,-5.556 0.07,0.175 -2.467,-5.172 0.089,0.16 -3.053,-4.793 0.102,0.14 -3.597,-4.422 0.108,0.119 -4.098,-4.057 0.11,0.098 -4.559,-3.699 0.108,0.079 -4.975,-3.348 0.152,0.09 -11.033,-5.669 0.183,0.079 -12.195,-4.343 0.159,0.047 -13.017,-3.069 0.14,0.026 -13.502,-1.849 0.27,0.013 -7.65,0.341 0.091,-0.007 -7.157,0.759 0.102,-0.014 -6.684,1.174 0.111,-0.024 -6.23,1.585 0.118,-0.035 -5.796,1.995 0.123,-0.049 -5.381,2.401 0.125,-0.062 -4.986,2.804 0.121,-0.076 -4.61,3.205 0.113,-0.087 -4.254,3.602 0.102,-0.095 -3.918,3.997 0.088,-0.099 -3.6,4.388 0.074,-0.098 -3.303,4.777 0.061,-0.095 -3.026,5.163 0.049,-0.089 -2.767,5.546 0.037,-0.081 -2.527,5.926 0.028,-0.073 -2.308,6.303 z m 155.368,-13.788 -4.261,12.271 -8.585,-9.75 c -0.547,-0.622 -0.487,-1.569 0.135,-2.117 0.622,-0.547 1.569,-0.487 2.117,0.135 l 6.885,7.82 -2.543,0.499 3.418,-9.843 c 0.272,-0.782 1.127,-1.196 1.909,-0.924 0.783,0.271 1.197,1.126 0.925,1.909 z"
         fill="#4ea72e"
         id="path26" />
      <path
         d="m 946.708,264.22 1.632,-4.369 2.029,-3.875 2.368,-3.277 2.68,-2.651 2.958,-1.984 3.191,-1.272 3.363,-0.514 3.609,0.285 2.431,1.315 2.396,1.797 2.4,2.316 2.275,2.798 2.012,3.241 1.601,3.645 1.032,4.005 0.085,1.198 -2.993,0.212 -0.075,-1.062 0.044,0.269 -0.968,-3.755 0.079,0.228 -1.509,-3.437 0.099,0.189 -1.905,-3.07 0.111,0.155 -2.158,-2.653 0.122,0.133 -2.268,-2.188 0.142,0.12 -2.233,-1.674 0.186,0.119 -2.054,-1.111 0.595,0.176 -3.119,-0.246 0.345,-0.013 -3.022,0.462 0.329,-0.089 -2.885,1.149 0.281,-0.148 -2.708,1.816 0.219,-0.179 -2.49,2.463 0.161,-0.187 -2.233,3.089 0.113,-0.182 -1.935,3.695 0.076,-0.171 -1.598,4.281 z m 40.514,-5.921 -5.738,11.654 -7.321,-10.731 c -0.467,-0.685 -0.29,-1.618 0.394,-2.085 0.684,-0.467 1.618,-0.29 2.084,0.394 l 5.872,8.608 -2.585,0.182 4.602,-9.347 c 0.366,-0.744 1.266,-1.049 2.009,-0.684 0.743,0.366 1.049,1.266 0.683,2.009 z"
         fill="#4ea72e"
         id="path27" />
      <path
         d="m 1017,349 c 0.49,-0.068 1.28,0.008 2,0 0.58,8.178 0.4,14.642 0,23 -0.75,-0.003 -1.18,-0.013 -2,0 0.03,-7.609 -1.13,-17.445 0,-23 z"
         fill-rule="evenodd"
         id="path28" />
      <path
         d="m 1017,349 c 0.53,-0.053 1.43,0.036 2,0 -0.94,9.375 -0.05,12.712 0,23 -0.58,0.037 -1.15,0.077 -2,0 0.71,-7.918 0.88,-17.9 0,-23 z"
         stroke="#000000"
         stroke-width="2"
         stroke-miterlimit="8"
         fill="none"
         fill-rule="evenodd"
         id="path29" />
      <path
         d="m 1053,349 c 0.49,-0.068 1.28,0.008 2,0 0.58,8.178 0.4,14.642 0,23 -0.75,-0.003 -1.18,-0.013 -2,0 0.03,-7.609 -1.13,-17.445 0,-23 z"
         fill-rule="evenodd"
         id="path30" />
      <path
         d="m 1053,349 c 0.53,-0.053 1.43,0.036 2,0 -0.94,9.375 -0.05,12.712 0,23 -0.58,0.037 -1.15,0.077 -2,0 0.71,-7.918 0.88,-17.9 0,-23 z"
         stroke="#000000"
         stroke-width="2"
         stroke-miterlimit="8"
         fill="none"
         fill-rule="evenodd"
         id="path31" />
      <path
         d="m 983,350 c 0.495,-0.065 1.283,0.008 2,0 0.576,7.822 0.398,14.005 0,22 -0.755,-0.002 -1.176,-0.013 -2,0 0.029,-7.278 -1.126,-16.687 0,-22 z"
         fill-rule="evenodd"
         id="path32" />
      <path
         d="m 983,350 c 0.528,-0.051 1.431,0.035 2,0 -0.937,8.968 -0.045,12.159 0,22 -0.577,0.035 -1.152,0.073 -2,0 0.71,-7.574 0.876,-17.121 0,-22 z"
         stroke="#000000"
         stroke-width="2"
         stroke-miterlimit="8"
         fill="none"
         fill-rule="evenodd"
         id="path33" />
      <path
         d="m 978,362.5 c -0.087,-3.138 3.215,-5.513 6,-5.5 3.718,0.115 6.247,2.247 6,5.5 -0.337,3.46 -2.857,6.071 -6,5.5 -2.86,-0.064 -5.676,-2.292 -6,-5.5 z"
         fill="#7f7f7f"
         fill-rule="evenodd"
         id="path34" />
      <path
         d="m 978,362.5 c -0.381,-2.97 2.951,-4.903 6,-5.5 3.396,-0.094 6.057,2.326 6,5.5 -0.217,3.463 -2.711,5.609 -6,5.5 -3.279,0.097 -6.167,-2.873 -6,-5.5 z"
         stroke="#000000"
         stroke-width="2"
         stroke-miterlimit="8"
         fill="none"
         fill-rule="evenodd"
         id="path35" />
      <path
         d="m -0.467916,53.0282 2.322106,-6.2907 2.56108,-5.9571 2.80961,-5.5879 3.07952,-5.2147 3.3706,-4.8366 3.6821,-4.4526 4.013,-4.062 4.3619,-3.6644 4.7274,-3.26032 5.1083,-2.8506 5.5044,-2.43678 5.9159,-2.02024 6.3437,-1.602074 6.789,-1.182961 7.2527,-0.763085 7.8299,-0.34654 13.7069,1.862078 13.1668,3.080272 12.366,4.36915 11.199,5.7096 5.104,3.4082 4.668,3.7592 4.209,4.1344 3.703,4.5177 3.15,4.9069 2.548,5.2994 1.898,5.6925 0.609,3.0802 -2.943,0.5823 -0.591,-2.987 0.049,0.1834 -1.838,-5.5125 0.071,0.1754 -2.467,-5.131 0.09,0.1604 -3.053,-4.7562 0.102,0.1407 -3.597,-4.3878 0.109,0.1192 -4.098,-4.026 0.11,0.0981 -4.558,-3.6708 0.108,0.0792 -4.975,-3.3221 0.151,0.0889 -11.033,-5.6246 0.182,0.0779 L 101.156,6.29804 101.314,6.3443 88.2961,3.29902 88.4359,3.3248 74.933,1.49044 l 0.2682,0.01218 -7.6498,0.33857 0.0907,-0.00677 -7.157,0.75302 0.1006,-0.01403 -6.6836,1.1646 0.1097,-0.02339 -6.2298,1.57331 0.1175,-0.03483 -5.7956,1.97915 0.1224,-0.0479 -5.3809,2.38212 0.1237,-0.06175 -4.9857,2.78218 0.1206,-0.075 -4.6101,3.1794 0.1133,-0.0863 -4.2541,3.5738 0.1023,-0.0943 -3.9175,3.9653 0.0888,-0.0983 -3.6004,4.3539 0.0747,-0.0983 -3.303,4.7397 0.0609,-0.0949 -3.02506,5.1225 0.04854,-0.0889 -2.76667,5.5025 0.0379,-0.0814 -2.52781,5.8796 0.02915,-0.073 -2.30848,6.2539 z M 154.881,39.2525 l -4.243,12.2782 -8.599,-9.7374 c -0.549,-0.621 -0.49,-1.5689 0.131,-2.1173 0.621,-0.5483 1.569,-0.4895 2.117,0.1315 l 6.897,7.8099 -2.542,0.503 3.404,-9.8478 c 0.27,-0.783 1.124,-1.1984 1.907,-0.9278 0.783,0.2706 1.199,1.1247 0.928,1.9077 z"
         fill="#156082"
         transform="matrix(1,0,0,-1,185.5,454.5)"
         id="path36" />
      <path
         d="M -0.528413,53.2399 4.08422,41.1482 10.0639,30.3771 l 3.516,-4.8825 3.8307,-4.4872 4.1596,-4.1059 4.4848,-3.7151 4.806,-3.31542 5.1228,-2.90708 5.4348,-2.49076 5.7422,-2.06712 6.045,-1.636704 6.3437,-1.199965 6.6389,-0.757191 7.0436,-0.31355 13.3546,2.291007 12.799,3.315293 12.0284,4.4564 10.904,5.68639 4.973,3.3668 4.553,3.7045 4.108,4.0709 3.62,4.4496 3.082,4.8387 2.5,5.2352 1.87,5.6366 0.602,3.039 -2.943,0.5831 -0.584,-2.9471 0.048,0.1808 -1.811,-5.4586 0.07,0.1739 -2.419,-5.0679 0.088,0.1598 -2.987,-4.6883 0.102,0.1405 -3.514,-4.3199 0.108,0.1191 -4,-3.9627 0.109,0.0979 -4.444,-3.6165 0.106,0.0787 -4.848,-3.2816 0.147,0.0878 -10.744,-5.603 0.173,0.0766 L 98.4146,6.94447 98.5596,6.98999 85.895,3.70949 86.0175,3.73582 72.8838,1.4827 73.2041,1.50282 66.3736,1.80688 66.4769,1.7987 59.9442,2.54379 60.053,2.52731 l -6.2325,1.17893 0.1132,-0.02599 -5.9301,1.60559 0.116,-0.03653 -5.6254,2.0251 0.1169,-0.04772 -5.3185,2.43742 0.1154,-0.05904 -5.0091,2.84253 0.1114,-0.0698 -4.6975,3.2405 0.1051,-0.0795 -4.3836,3.6313 0.0968,-0.0876 -4.0674,4.015 0.087,-0.0936 -3.749,4.3914 0.0764,-0.0973 -3.4282,4.7607 0.0942,-0.1485 L 6.75904,42.5109 6.84907,42.3174 2.27456,54.3091 Z M 150.973,39.5213 l -4.24,12.2794 -8.602,-9.7347 c -0.548,-0.6208 -0.49,-1.5687 0.131,-2.1173 0.621,-0.5485 1.569,-0.49 2.117,0.1308 l 6.9,7.8078 -2.542,0.5037 3.4,-9.8488 c 0.27,-0.7831 1.124,-1.1987 1.907,-0.9284 0.783,0.2704 1.199,1.1244 0.929,1.9075 z"
         fill="#156082"
         transform="matrix(1,0,0,-1,342.5,456.5)"
         id="path37" />
      <path
         d="M -0.533861,51.9453 1.50993,46.336 3.99543,40.9753 6.88295,35.9236 10.1712,31.1574 17.7655,22.6347 26.6856,15.337 36.759,9.2843 47.8383,4.46905 59.7802,0.882439 72.5244,-1.49881 l 6.7658,0.14486 6.6581,0.568823 6.6012,0.991335 6.4885,1.410532 6.32,1.82685 6.096,2.24078 5.815,2.65285 5.477,3.06368 5.083,3.4736 4.63,3.8832 4.115,4.2921 3.539,4.6992 2.9,5.1019 2.194,5.4969 1.426,5.8802 0.305,3.1889 -2.986,0.2858 -0.295,-3.0823 0.036,0.2107 -1.376,-5.6726 0.064,0.2026 -2.116,-5.3024 0.089,0.1849 -2.801,-4.9284 0.106,0.1614 -3.428,-4.5506 0.116,0.1357 -3.997,-4.1689 0.118,0.111 -4.51,-3.7834 0.117,0.0892 -4.966,-3.394 0.114,0.0707 -5.365,-3.0008 0.11,0.0556 -5.708,-2.60375 0.105,0.04319 -5.992,-2.20282 0.101,0.03312 -6.2206,-1.79806 0.0979,0.02476 -6.3915,-1.38944 0.0959,0.0176 -6.5056,-0.97698 0.0951,0.01119 -6.5627,-0.56067 0.0956,0.0051 -6.5628,-0.14051 0.3076,-0.02518 -12.5127,2.33799 0.1559,-0.03787 -11.7799,3.53796 0.1665,-0.06092 -10.9076,4.74059 0.1746,-0.0899 -9.8958,5.946 0.1773,-0.1248 -8.7446,7.1541 0.1701,-0.163 -7.4538,8.3649 0.1148,-0.1461 -3.19932,4.6373 0.06759,-0.1074 -2.8243,4.9411 0.05857,-0.1135 -2.43187,5.2452 0.04851,-0.1175 -2.02202,5.5495 z M 151.176,38.7295 145.729,50.5232 138.144,39.9768 c -0.484,-0.6726 -0.331,-1.6099 0.342,-2.0936 0.672,-0.4837 1.61,-0.3306 2.093,0.3419 l 6.084,8.4589 -2.58,0.2469 4.369,-9.4593 c 0.347,-0.7521 1.239,-1.0802 1.991,-0.7328 0.752,0.3473 1.08,1.2386 0.733,1.9907 z"
         fill="#156082"
         transform="matrix(1,0,0,-1,491.5,451.5)"
         id="path38" />
      <path
         d="M -0.528413,53.2399 4.08422,41.1482 10.0639,30.3771 l 3.516,-4.8825 3.8307,-4.4872 4.1596,-4.1059 4.4848,-3.7151 4.806,-3.31542 5.1228,-2.90708 5.4348,-2.49076 5.7422,-2.06712 6.045,-1.636704 6.3437,-1.199965 6.6389,-0.757191 7.0436,-0.31355 13.3546,2.291007 12.799,3.315293 12.0284,4.4564 10.904,5.68639 4.973,3.3668 4.553,3.7045 4.108,4.0709 3.62,4.4496 3.082,4.8387 2.5,5.2352 1.87,5.6366 0.602,3.039 -2.943,0.5831 -0.584,-2.9471 0.048,0.1808 -1.811,-5.4586 0.07,0.1739 -2.419,-5.0679 0.088,0.1598 -2.987,-4.6883 0.102,0.1405 -3.514,-4.3199 0.108,0.1191 -4,-3.9627 0.109,0.0979 -4.444,-3.6165 0.106,0.0787 -4.848,-3.2816 0.147,0.0878 -10.744,-5.603 0.173,0.0766 L 98.4146,6.94447 98.5596,6.98999 85.895,3.70949 86.0175,3.73582 72.8838,1.4827 73.2041,1.50282 66.3736,1.80688 66.4769,1.7987 59.9442,2.54379 60.053,2.52731 l -6.2325,1.17893 0.1132,-0.02599 -5.9301,1.60559 0.116,-0.03653 -5.6254,2.0251 0.1169,-0.04772 -5.3185,2.43742 0.1154,-0.05904 -5.0091,2.84253 0.1114,-0.0698 -4.6975,3.2405 0.1051,-0.0795 -4.3836,3.6313 0.0968,-0.0876 -4.0674,4.015 0.087,-0.0936 -3.749,4.3914 0.0764,-0.0973 -3.4282,4.7607 0.0942,-0.1485 L 6.75904,42.5109 6.84907,42.3174 2.27456,54.3091 Z M 150.973,39.5213 l -4.24,12.2794 -8.602,-9.7347 c -0.548,-0.6208 -0.49,-1.5687 0.131,-2.1173 0.621,-0.5485 1.569,-0.49 2.117,0.1308 l 6.9,7.8078 -2.542,0.5037 3.4,-9.8488 c 0.27,-0.7831 1.124,-1.1987 1.907,-0.9284 0.783,0.2704 1.199,1.1244 0.929,1.9075 z"
         fill="#156082"
         transform="matrix(1,0,0,-1,640.5,456.5)"
         id="path39" />
      <path
         d="m -0.467916,53.0282 2.322106,-6.2907 2.56108,-5.9571 2.80961,-5.5879 3.07952,-5.2147 3.3706,-4.8366 3.6821,-4.4526 4.013,-4.062 4.3619,-3.6644 4.7274,-3.26032 5.1083,-2.8506 5.5044,-2.43678 5.9159,-2.02024 6.3437,-1.602074 6.789,-1.182961 7.2527,-0.763085 7.8299,-0.34654 13.7069,1.862078 13.1668,3.080272 12.366,4.36915 11.199,5.7096 5.104,3.4082 4.668,3.7592 4.209,4.1344 3.703,4.5177 3.15,4.9069 2.548,5.2994 1.898,5.6925 0.609,3.0802 -2.943,0.5823 -0.591,-2.987 0.049,0.1834 -1.838,-5.5125 0.071,0.1754 -2.467,-5.131 0.09,0.1604 -3.053,-4.7562 0.102,0.1407 -3.597,-4.3878 0.109,0.1192 -4.098,-4.026 0.11,0.0981 -4.558,-3.6708 0.108,0.0792 -4.975,-3.3221 0.151,0.0889 -11.033,-5.6246 0.182,0.0779 L 101.156,6.29804 101.314,6.3443 88.2961,3.29902 88.4359,3.3248 74.933,1.49044 l 0.2682,0.01218 -7.6498,0.33857 0.0907,-0.00677 -7.157,0.75302 0.1006,-0.01403 -6.6836,1.1646 0.1097,-0.02339 -6.2298,1.57331 0.1175,-0.03483 -5.7956,1.97915 0.1224,-0.0479 -5.3809,2.38212 0.1237,-0.06175 -4.9857,2.78218 0.1206,-0.075 -4.6101,3.1794 0.1133,-0.0863 -4.2541,3.5738 0.1023,-0.0943 -3.9175,3.9653 0.0888,-0.0983 -3.6004,4.3539 0.0747,-0.0983 -3.303,4.7397 0.0609,-0.0949 -3.02506,5.1225 0.04854,-0.0889 -2.76667,5.5025 0.0379,-0.0814 -2.52781,5.8796 0.02915,-0.073 -2.30848,6.2539 z M 154.881,39.2525 l -4.243,12.2782 -8.599,-9.7374 c -0.549,-0.621 -0.49,-1.5689 0.131,-2.1173 0.621,-0.5483 1.569,-0.4895 2.117,0.1315 l 6.897,7.8099 -2.542,0.503 3.404,-9.8478 c 0.27,-0.783 1.124,-1.1984 1.907,-0.9278 0.783,0.2706 1.199,1.1247 0.928,1.9077 z"
         fill="#156082"
         transform="matrix(1,0,0,-1,792.5,456.5)"
         id="path40" />
      <path
         d="m -0.529224,52.3558 2.164414,-5.7795 2.66056,-5.437 3.10372,-5.042 3.51783,-4.6618 3.9024,-4.2977 4.2774,-3.9695 9.4387,-6.9161 10.5444,-5.7753 11.4091,-4.77147 12.0645,-3.92194 12.7114,-3.27468 6.3267,0.40508 6.2239,0.931893 6.2317,1.446067 6.1805,1.93755 6.069,2.40705 5.898,2.85514 5.667,3.28231 5.375,3.6891 5.024,4.0759 4.609,4.4433 4.133,4.7912 3.593,5.12 2.987,5.4287 2.317,5.716 1.577,5.9793 0.392,3.1645 -2.977,0.3693 -0.38,-3.0642 0.038,0.1979 -1.527,-5.7893 0.06,0.1807 -2.247,-5.5453 0.076,0.1599 -2.905,-5.2795 0.086,0.1384 -3.503,-4.9918 0.092,0.1182 -4.039,-4.6823 0.095,0.1002 -4.513,-4.3508 0.096,0.0848 -4.927,-3.9976 0.096,0.072 -5.278,-3.6226 0.096,0.0613 -5.569,-3.2257 0.098,0.0521 -5.798,-2.80694 0.1,0.0442 L 99.1731,6.03848 99.2774,6.07545 93.2043,4.17147 93.314,4.20134 87.1957,2.7816 87.3127,2.80389 81.2105,1.89023 81.3368,1.9037 75.312,1.51795 75.7821,1.47359 63.3474,4.677 63.4369,4.65094 51.4752,8.53949 l 0.115,-0.04267 -11.2798,4.71738 0.1418,-0.0682 -10.3888,5.69 0.166,-0.1056 -9.289,6.8064 0.1337,-0.1104 -4.1667,3.8667 0.0901,-0.0911 -3.8134,4.1998 0.0869,-0.1049 -3.43404,4.5508 0.08003,-0.1172 -3.02843,4.9197 0.06996,-0.1271 -2.59675,5.3066 0.05739,-0.1332 -2.13893,5.7114 z M 151.862,45.3792 146.747,57.3208 138.87,46.9909 c -0.502,-0.6587 -0.376,-1.6 0.283,-2.1023 0.659,-0.5023 1.6,-0.3756 2.102,0.2832 l 6.319,8.2852 -2.572,0.319 4.102,-9.5779 c 0.326,-0.7615 1.208,-1.1145 1.969,-0.7883 0.762,0.3261 1.115,1.2078 0.789,1.9694 z"
         fill="#156082"
         transform="matrix(1,0,0,-1,946.5,462.5)"
         id="path41" />
      <text
         fill="#4ea72e"
         font-family="Calibri, Calibri_MSFontService, sans-serif"
         font-weight="400"
         font-size="27px"
         transform="translate(951.848,240)"
         id="text41">+1</text>
      <text
         fill="#156082"
         font-family="Calibri, Calibri_MSFontService, sans-serif"
         font-weight="400"
         font-size="27px"
         transform="translate(1026.46,433)"
         id="text42">-</text>
      <text
         fill="#156082"
         font-family="Calibri, Calibri_MSFontService, sans-serif"
         font-weight="400"
         font-size="27px"
         transform="translate(1034.62,433)"
         id="text43">3</text>
    </g>
  </g>
</svg>
