<?xml version="1.0" encoding="UTF-8" standalone="no"?>
<!-- Created with Inkscape (http://www.inkscape.org/) -->

<svg
   width="203.08742mm"
   height="24.968422mm"
   viewBox="0 0 203.08742 24.968422"
   version="1.1"
   id="svg1"
   xmlns:inkscape="http://www.inkscape.org/namespaces/inkscape"
   xmlns:sodipodi="http://sodipodi.sourceforge.net/DTD/sodipodi-0.dtd"
   xmlns="http://www.w3.org/2000/svg"
   xmlns:svg="http://www.w3.org/2000/svg">
  <sodipodi:namedview
     id="namedview1"
     pagecolor="#505050"
     bordercolor="#ffffff"
     borderopacity="1"
     inkscape:showpageshadow="0"
     inkscape:pageopacity="0"
     inkscape:pagecheckerboard="1"
     inkscape:deskcolor="#d1d1d1"
     inkscape:document-units="mm" />
  <defs
     id="defs1" />
  <g
     inkscape:label="Lag 1"
     inkscape:groupmode="layer"
     id="layer1"
     transform="translate(-7.9418232,-112.80455)">
    <g
       transform="matrix(0.26458333,0,0,0.26458333,-19.314583,39.6875)"
       id="g10"
       inkscape:export-filename="g10.svg"
       inkscape:export-xdpi="96"
       inkscape:export-ydpi="96">
      <path
         d="m 111,284 c 16.921,-1.24 22.243,2.631 39,0 16.757,-2.631 19.524,4.192 36,0 0.079,13.843 -2.36,25.903 0,36.48 2.36,10.577 -3.55,21.603 0,39.52 -18.487,3.55 -24.918,-1.05 -37.5,0 -12.582,1.05 -29.234,-4.168 -37.5,0 -0.188,-10.225 0.597,-24.368 0,-38.76 -0.597,-14.392 1.953,-19.874 0,-37.24 z"
         stroke="#a6caec"
         stroke-width="4"
         stroke-miterlimit="8"
         fill="none"
         fill-rule="evenodd"
         id="path1-3" />
      <path
         d="m 206,284 c 16.921,-1.24 22.243,2.631 39,0 16.757,-2.631 19.524,4.192 36,0 0.079,13.843 -2.36,25.903 0,36.48 2.36,10.577 -3.55,21.603 0,39.52 -18.487,3.55 -24.918,-1.05 -37.5,0 -12.582,1.05 -29.234,-4.168 -37.5,0 -0.188,-10.225 0.597,-24.368 0,-38.76 -0.597,-14.392 1.953,-19.874 0,-37.24 z"
         stroke="#a6caec"
         stroke-width="4"
         stroke-miterlimit="8"
         fill="none"
         fill-rule="evenodd"
         id="path2-7" />
      <path
         d="m 337,284 c 17.146,-1.24 22.54,2.631 39.52,0 16.98,-2.631 19.784,4.192 36.48,0 0.08,13.843 -2.391,25.903 0,36.48 2.391,10.577 -3.597,21.603 0,39.52 -18.733,3.55 -25.25,-1.05 -38,0 -12.75,1.05 -29.624,-4.168 -38,0 -0.191,-10.225 0.605,-24.368 0,-38.76 -0.605,-14.392 1.979,-19.874 0,-37.24 z"
         stroke="#a6caec"
         stroke-width="4"
         stroke-miterlimit="8"
         fill="none"
         fill-rule="evenodd"
         id="path3-9" />
      <path
         d="m 432,284 c 16.921,-1.24 22.243,2.631 39,0 16.757,-2.631 19.524,4.192 36,0 0.079,13.843 -2.36,25.903 0,36.48 2.36,10.577 -3.55,21.603 0,39.52 -18.487,3.55 -24.918,-1.05 -37.5,0 -12.582,1.05 -29.234,-4.168 -37.5,0 -0.188,-10.225 0.597,-24.368 0,-38.76 -0.597,-14.392 1.953,-19.874 0,-37.24 z"
         stroke="#a6caec"
         stroke-width="4"
         stroke-miterlimit="8"
         fill="none"
         fill-rule="evenodd"
         id="path4-1" />
      <path
         d="m 564,284 c 17.146,-1.24 22.54,2.631 39.52,0 16.98,-2.631 19.784,4.192 36.48,0 0.08,13.843 -2.391,25.903 0,36.48 2.391,10.577 -3.597,21.603 0,39.52 -18.733,3.55 -25.25,-1.05 -38,0 -12.75,1.05 -29.624,-4.168 -38,0 -0.191,-10.225 0.605,-24.368 0,-38.76 -0.605,-14.392 1.979,-19.874 0,-37.24 z"
         stroke="#a6caec"
         stroke-width="4"
         stroke-miterlimit="8"
         fill="none"
         fill-rule="evenodd"
         id="path5-6" />
      <path
         d="m 659,284 c 17.146,-1.24 22.54,2.631 39.52,0 16.98,-2.631 19.784,4.192 36.48,0 0.08,13.843 -2.391,25.903 0,36.48 2.391,10.577 -3.597,21.603 0,39.52 -18.733,3.55 -25.25,-1.05 -38,0 -12.75,1.05 -29.624,-4.168 -38,0 -0.191,-10.225 0.605,-24.368 0,-38.76 -0.605,-14.392 1.979,-19.874 0,-37.24 z"
         stroke="#a6caec"
         stroke-width="4"
         stroke-miterlimit="8"
         fill="none"
         fill-rule="evenodd"
         id="path6-2" />
      <path
         d="m 792,284 c 17.146,-1.24 22.54,2.631 39.52,0 16.98,-2.631 19.784,4.192 36.48,0 0.08,13.843 -2.391,25.903 0,36.48 2.391,10.577 -3.597,21.603 0,39.52 -18.733,3.55 -25.25,-1.05 -38,0 -12.75,1.05 -29.624,-4.168 -38,0 -0.191,-10.225 0.605,-24.368 0,-38.76 -0.605,-14.392 1.979,-19.874 0,-37.24 z"
         stroke="#f2aa84"
         stroke-width="4"
         stroke-miterlimit="8"
         fill="none"
         fill-rule="evenodd"
         id="path7-7" />
      <path
         d="m 106,280 c 13.847,-6.554 40.852,6.886 62.487,0 21.635,-6.886 31.617,2.025 57.026,0 25.41,-2.025 33.285,4.024 62.487,0 3.936,14.295 -4.647,30.4 0,41.83 4.647,11.429 -3.577,35.883 0,47.17 -16.995,0.051 -38.797,-2.29 -62.487,0 -23.689,2.29 -35.945,-1.824 -58.846,0 -22.901,1.824 -37.251,-6.626 -60.667,0 -0.532,-11.751 4.926,-23.01 0,-44.5 -4.926,-21.49 1.065,-33.564 0,-44.5 z"
         stroke="#d1d1d1"
         stroke-width="2"
         stroke-miterlimit="8"
         fill="none"
         fill-rule="evenodd"
         id="path8-6" />
      <path
         d="m 330,280 c 13.923,-6.554 41.076,6.886 62.83,0 21.754,-6.886 31.791,2.025 57.34,0 25.549,-2.025 33.468,4.024 62.83,0 3.957,14.295 -4.673,30.4 0,41.83 4.673,11.429 -3.597,35.883 0,47.17 -17.088,0.051 -39.01,-2.29 -62.83,0 -23.82,2.29 -36.143,-1.824 -59.17,0 -23.027,1.824 -37.455,-6.626 -61,0 -0.535,-11.751 4.953,-23.01 0,-44.5 -4.953,-21.49 1.071,-33.564 0,-44.5 z"
         stroke="#d1d1d1"
         stroke-width="2"
         stroke-miterlimit="8"
         fill="none"
         fill-rule="evenodd"
         id="path9-8" />
      <path
         d="m 560,280 c 13.847,-6.554 40.852,6.886 62.487,0 21.635,-6.886 31.617,2.025 57.026,0 25.41,-2.025 33.285,4.024 62.487,0 3.936,14.295 -4.647,30.4 0,41.83 4.647,11.429 -3.577,35.883 0,47.17 -16.995,0.051 -38.797,-2.29 -62.487,0 -23.689,2.29 -35.945,-1.824 -58.846,0 -22.901,1.824 -37.251,-6.626 -60.667,0 -0.532,-11.751 4.926,-23.01 0,-44.5 -4.926,-21.49 1.065,-33.564 0,-44.5 z"
         stroke="#d1d1d1"
         stroke-width="2"
         stroke-miterlimit="8"
         fill="none"
         fill-rule="evenodd"
         id="path10-4" />
    </g>
  </g>
</svg>
