<?xml version="1.0" encoding="UTF-8" standalone="no"?>
<!-- Created with Inkscape (http://www.inkscape.org/) -->

<svg
   width="203.08746mm"
   height="77.091339mm"
   viewBox="0 0 203.08746 77.091339"
   version="1.1"
   id="svg1"
   xmlns:inkscape="http://www.inkscape.org/namespaces/inkscape"
   xmlns:sodipodi="http://sodipodi.sourceforge.net/DTD/sodipodi-0.dtd"
   xmlns="http://www.w3.org/2000/svg"
   xmlns:svg="http://www.w3.org/2000/svg">
  <sodipodi:namedview
     id="namedview1"
     pagecolor="#505050"
     bordercolor="#ffffff"
     borderopacity="1"
     inkscape:showpageshadow="0"
     inkscape:pageopacity="0"
     inkscape:pagecheckerboard="1"
     inkscape:deskcolor="#d1d1d1"
     inkscape:document-units="mm" />
  <defs
     id="defs1" />
  <g
     inkscape:label="Lag 1"
     inkscape:groupmode="layer"
     id="layer1"
     transform="translate(46.033177,-184.50663)">
    <g
       transform="matrix(0.26458333,0,0,0.26458333,-73.289583,111.38958)"
       id="g30">
      <path
         d="m 111,284 c 16.921,-1.24 22.243,2.631 39,0 16.757,-2.631 19.524,4.192 36,0 0.079,13.843 -2.36,25.903 0,36.48 2.36,10.577 -3.55,21.603 0,39.52 -18.487,3.55 -24.918,-1.05 -37.5,0 -12.582,1.05 -29.234,-4.168 -37.5,0 -0.188,-10.225 0.597,-24.368 0,-38.76 -0.597,-14.392 1.953,-19.874 0,-37.24 z"
         stroke="#a6caec"
         stroke-width="4"
         stroke-miterlimit="8"
         fill="none"
         fill-rule="evenodd"
         id="path1-8" />
      <path
         d="m 206,284 c 16.921,-1.24 22.243,2.631 39,0 16.757,-2.631 19.524,4.192 36,0 0.079,13.843 -2.36,25.903 0,36.48 2.36,10.577 -3.55,21.603 0,39.52 -18.487,3.55 -24.918,-1.05 -37.5,0 -12.582,1.05 -29.234,-4.168 -37.5,0 -0.188,-10.225 0.597,-24.368 0,-38.76 -0.597,-14.392 1.953,-19.874 0,-37.24 z"
         stroke="#a6caec"
         stroke-width="4"
         stroke-miterlimit="8"
         fill="none"
         fill-rule="evenodd"
         id="path2-4" />
      <path
         d="m 337,284 c 17.146,-1.24 22.54,2.631 39.52,0 16.98,-2.631 19.784,4.192 36.48,0 0.08,13.843 -2.391,25.903 0,36.48 2.391,10.577 -3.597,21.603 0,39.52 -18.733,3.55 -25.25,-1.05 -38,0 -12.75,1.05 -29.624,-4.168 -38,0 -0.191,-10.225 0.605,-24.368 0,-38.76 -0.605,-14.392 1.979,-19.874 0,-37.24 z"
         stroke="#a6caec"
         stroke-width="4"
         stroke-miterlimit="8"
         fill="none"
         fill-rule="evenodd"
         id="path3-2" />
      <path
         d="m 432,284 c 16.921,-1.24 22.243,2.631 39,0 16.757,-2.631 19.524,4.192 36,0 0.079,13.843 -2.36,25.903 0,36.48 2.36,10.577 -3.55,21.603 0,39.52 -18.487,3.55 -24.918,-1.05 -37.5,0 -12.582,1.05 -29.234,-4.168 -37.5,0 -0.188,-10.225 0.597,-24.368 0,-38.76 -0.597,-14.392 1.953,-19.874 0,-37.24 z"
         stroke="#a6caec"
         stroke-width="4"
         stroke-miterlimit="8"
         fill="none"
         fill-rule="evenodd"
         id="path4-0" />
      <path
         d="m 564,284 c 17.146,-1.24 22.54,2.631 39.52,0 16.98,-2.631 19.784,4.192 36.48,0 0.08,13.843 -2.391,25.903 0,36.48 2.391,10.577 -3.597,21.603 0,39.52 -18.733,3.55 -25.25,-1.05 -38,0 -12.75,1.05 -29.624,-4.168 -38,0 -0.191,-10.225 0.605,-24.368 0,-38.76 -0.605,-14.392 1.979,-19.874 0,-37.24 z"
         stroke="#a6caec"
         stroke-width="4"
         stroke-miterlimit="8"
         fill="none"
         fill-rule="evenodd"
         id="path5-7" />
      <path
         d="m 659,284 c 17.146,-1.24 22.54,2.631 39.52,0 16.98,-2.631 19.784,4.192 36.48,0 0.08,13.843 -2.391,25.903 0,36.48 2.391,10.577 -3.597,21.603 0,39.52 -18.733,3.55 -25.25,-1.05 -38,0 -12.75,1.05 -29.624,-4.168 -38,0 -0.191,-10.225 0.605,-24.368 0,-38.76 -0.605,-14.392 1.979,-19.874 0,-37.24 z"
         stroke="#a6caec"
         stroke-width="4"
         stroke-miterlimit="8"
         fill="none"
         fill-rule="evenodd"
         id="path6-21" />
      <path
         d="m 792,284 c 17.146,-1.24 22.54,2.631 39.52,0 16.98,-2.631 19.784,4.192 36.48,0 0.08,13.843 -2.391,25.903 0,36.48 2.391,10.577 -3.597,21.603 0,39.52 -18.733,3.55 -25.25,-1.05 -38,0 -12.75,1.05 -29.624,-4.168 -38,0 -0.191,-10.225 0.605,-24.368 0,-38.76 -0.605,-14.392 1.979,-19.874 0,-37.24 z"
         stroke="#f2aa84"
         stroke-width="4"
         stroke-miterlimit="8"
         fill="none"
         fill-rule="evenodd"
         id="path7-6" />
      <path
         d="m 111,384 c 16.921,-1.24 22.243,2.631 39,0 16.757,-2.631 19.524,4.192 36,0 0.079,13.843 -2.36,25.903 0,36.48 2.36,10.577 -3.55,21.603 0,39.52 -18.487,3.55 -24.918,-1.05 -37.5,0 -12.582,1.05 -29.234,-4.168 -37.5,0 -0.188,-10.225 0.597,-24.368 0,-38.76 -0.597,-14.392 1.953,-19.874 0,-37.24 z"
         stroke="#a6caec"
         stroke-width="4"
         stroke-miterlimit="8"
         fill="none"
         fill-rule="evenodd"
         id="path8-1" />
      <path
         d="m 206,384 c 16.921,-1.24 22.243,2.631 39,0 16.757,-2.631 19.524,4.192 36,0 0.079,13.843 -2.36,25.903 0,36.48 2.36,10.577 -3.55,21.603 0,39.52 -18.487,3.55 -24.918,-1.05 -37.5,0 -12.582,1.05 -29.234,-4.168 -37.5,0 -0.188,-10.225 0.597,-24.368 0,-38.76 -0.597,-14.392 1.953,-19.874 0,-37.24 z"
         stroke="#a6caec"
         stroke-width="4"
         stroke-miterlimit="8"
         fill="none"
         fill-rule="evenodd"
         id="path9-6" />
      <path
         d="m 337,384 c 17.146,-1.24 22.54,2.631 39.52,0 16.98,-2.631 19.784,4.192 36.48,0 0.08,13.843 -2.391,25.903 0,36.48 2.391,10.577 -3.597,21.603 0,39.52 -18.733,3.55 -25.25,-1.05 -38,0 -12.75,1.05 -29.624,-4.168 -38,0 -0.191,-10.225 0.605,-24.368 0,-38.76 -0.605,-14.392 1.979,-19.874 0,-37.24 z"
         stroke="#a6caec"
         stroke-width="4"
         stroke-miterlimit="8"
         fill="none"
         fill-rule="evenodd"
         id="path10-9" />
      <path
         d="m 432,384 c 16.921,-1.24 22.243,2.631 39,0 16.757,-2.631 19.524,4.192 36,0 0.079,13.843 -2.36,25.903 0,36.48 2.36,10.577 -3.55,21.603 0,39.52 -18.487,3.55 -24.918,-1.05 -37.5,0 -12.582,1.05 -29.234,-4.168 -37.5,0 -0.188,-10.225 0.597,-24.368 0,-38.76 -0.597,-14.392 1.953,-19.874 0,-37.24 z"
         stroke="#a6caec"
         stroke-width="4"
         stroke-miterlimit="8"
         fill="none"
         fill-rule="evenodd"
         id="path11-5" />
      <path
         d="m 564,384 c 17.146,-1.24 22.54,2.631 39.52,0 16.98,-2.631 19.784,4.192 36.48,0 0.08,13.843 -2.391,25.903 0,36.48 2.391,10.577 -3.597,21.603 0,39.52 -18.733,3.55 -25.25,-1.05 -38,0 -12.75,1.05 -29.624,-4.168 -38,0 -0.191,-10.225 0.605,-24.368 0,-38.76 -0.605,-14.392 1.979,-19.874 0,-37.24 z"
         stroke="#a6caec"
         stroke-width="4"
         stroke-miterlimit="8"
         fill="none"
         fill-rule="evenodd"
         id="path12-4" />
      <path
         d="m 659,384 c 17.146,-1.24 22.54,2.631 39.52,0 16.98,-2.631 19.784,4.192 36.48,0 0.08,13.843 -2.391,25.903 0,36.48 2.391,10.577 -3.597,21.603 0,39.52 -18.733,3.55 -25.25,-1.05 -38,0 -12.75,1.05 -29.624,-4.168 -38,0 -0.191,-10.225 0.605,-24.368 0,-38.76 -0.605,-14.392 1.979,-19.874 0,-37.24 z"
         stroke="#a6caec"
         stroke-width="4"
         stroke-miterlimit="8"
         fill="none"
         fill-rule="evenodd"
         id="path13" />
      <path
         d="m 792,384 c 17.146,-1.24 22.54,2.631 39.52,0 16.98,-2.631 19.784,4.192 36.48,0 0.08,13.843 -2.391,25.903 0,36.48 2.391,10.577 -3.597,21.603 0,39.52 -18.733,3.55 -25.25,-1.05 -38,0 -12.75,1.05 -29.624,-4.168 -38,0 -0.191,-10.225 0.605,-24.368 0,-38.76 -0.605,-14.392 1.979,-19.874 0,-37.24 z"
         stroke="#f2aa84"
         stroke-width="4"
         stroke-miterlimit="8"
         fill="none"
         fill-rule="evenodd"
         id="path14" />
      <path
         d="m 111,484 c 16.921,-1.224 22.243,2.596 39,0 16.757,-2.596 19.524,4.137 36,0 0.079,13.661 -2.36,25.562 0,36 2.36,10.438 -3.55,21.319 0,39 -18.487,3.503 -24.918,-1.036 -37.5,0 -12.582,1.036 -29.234,-4.113 -37.5,0 -0.188,-10.091 0.597,-24.048 0,-38.25 -0.597,-14.202 1.953,-19.613 0,-36.75 z"
         stroke="#a6caec"
         stroke-width="4"
         stroke-miterlimit="8"
         fill="none"
         fill-rule="evenodd"
         id="path15" />
      <path
         d="m 206,484 c 16.921,-1.224 22.243,2.596 39,0 16.757,-2.596 19.524,4.137 36,0 0.079,13.661 -2.36,25.562 0,36 2.36,10.438 -3.55,21.319 0,39 -18.487,3.503 -24.918,-1.036 -37.5,0 -12.582,1.036 -29.234,-4.113 -37.5,0 -0.188,-10.091 0.597,-24.048 0,-38.25 -0.597,-14.202 1.953,-19.613 0,-36.75 z"
         stroke="#a6caec"
         stroke-width="4"
         stroke-miterlimit="8"
         fill="none"
         fill-rule="evenodd"
         id="path16" />
      <path
         d="m 337,484 c 17.146,-1.224 22.54,2.596 39.52,0 16.98,-2.596 19.784,4.137 36.48,0 0.08,13.661 -2.391,25.562 0,36 2.391,10.438 -3.597,21.319 0,39 -18.733,3.503 -25.25,-1.036 -38,0 -12.75,1.036 -29.624,-4.113 -38,0 -0.191,-10.091 0.605,-24.048 0,-38.25 -0.605,-14.202 1.979,-19.613 0,-36.75 z"
         stroke="#a6caec"
         stroke-width="4"
         stroke-miterlimit="8"
         fill="none"
         fill-rule="evenodd"
         id="path17" />
      <path
         d="m 432,484 c 16.921,-1.224 22.243,2.596 39,0 16.757,-2.596 19.524,4.137 36,0 0.079,13.661 -2.36,25.562 0,36 2.36,10.438 -3.55,21.319 0,39 -18.487,3.503 -24.918,-1.036 -37.5,0 -12.582,1.036 -29.234,-4.113 -37.5,0 -0.188,-10.091 0.597,-24.048 0,-38.25 -0.597,-14.202 1.953,-19.613 0,-36.75 z"
         stroke="#a6caec"
         stroke-width="4"
         stroke-miterlimit="8"
         fill="none"
         fill-rule="evenodd"
         id="path18" />
      <path
         d="m 564,484 c 17.146,-1.224 22.54,2.596 39.52,0 16.98,-2.596 19.784,4.137 36.48,0 0.08,13.661 -2.391,25.562 0,36 2.391,10.438 -3.597,21.319 0,39 -18.733,3.503 -25.25,-1.036 -38,0 -12.75,1.036 -29.624,-4.113 -38,0 -0.191,-10.091 0.605,-24.048 0,-38.25 -0.605,-14.202 1.979,-19.613 0,-36.75 z"
         stroke="#a6caec"
         stroke-width="4"
         stroke-miterlimit="8"
         fill="none"
         fill-rule="evenodd"
         id="path19" />
      <path
         d="m 659,484 c 17.146,-1.224 22.54,2.596 39.52,0 16.98,-2.596 19.784,4.137 36.48,0 0.08,13.661 -2.391,25.562 0,36 2.391,10.438 -3.597,21.319 0,39 -18.733,3.503 -25.25,-1.036 -38,0 -12.75,1.036 -29.624,-4.113 -38,0 -0.191,-10.091 0.605,-24.048 0,-38.25 -0.605,-14.202 1.979,-19.613 0,-36.75 z"
         stroke="#a6caec"
         stroke-width="4"
         stroke-miterlimit="8"
         fill="none"
         fill-rule="evenodd"
         id="path20" />
      <path
         d="m 792,484 c 17.146,-1.224 22.54,2.596 39.52,0 16.98,-2.596 19.784,4.137 36.48,0 0.08,13.661 -2.391,25.562 0,36 2.391,10.438 -3.597,21.319 0,39 -18.733,3.503 -25.25,-1.036 -38,0 -12.75,1.036 -29.624,-4.113 -38,0 -0.191,-10.091 0.605,-24.048 0,-38.25 -0.605,-14.202 1.979,-19.613 0,-36.75 z"
         stroke="#f2aa84"
         stroke-width="4"
         stroke-miterlimit="8"
         fill="none"
         fill-rule="evenodd"
         id="path21" />
      <path
         d="m 106,280 c 13.847,-6.554 40.852,6.886 62.487,0 21.635,-6.886 31.617,2.025 57.026,0 25.41,-2.025 33.285,4.024 62.487,0 3.936,14.295 -4.647,30.4 0,41.83 4.647,11.429 -3.577,35.883 0,47.17 -16.995,0.051 -38.797,-2.29 -62.487,0 -23.689,2.29 -35.945,-1.824 -58.846,0 -22.901,1.824 -37.251,-6.626 -60.667,0 -0.532,-11.751 4.926,-23.01 0,-44.5 -4.926,-21.49 1.065,-33.564 0,-44.5 z"
         stroke="#d1d1d1"
         stroke-width="2"
         stroke-miterlimit="8"
         fill="none"
         fill-rule="evenodd"
         id="path22" />
      <path
         d="m 106,377 c 13.847,-6.554 40.852,6.886 62.487,0 21.635,-6.886 31.617,2.025 57.026,0 25.41,-2.025 33.285,4.024 62.487,0 3.936,14.295 -4.647,30.4 0,41.83 4.647,11.429 -3.577,35.883 0,47.17 -16.995,0.051 -38.797,-2.29 -62.487,0 -23.689,2.29 -35.945,-1.824 -58.846,0 -22.901,1.824 -37.251,-6.626 -60.667,0 -0.532,-11.751 4.926,-23.01 0,-44.5 -4.926,-21.49 1.065,-33.564 0,-44.5 z"
         stroke="#d1d1d1"
         stroke-width="2"
         stroke-miterlimit="8"
         fill="none"
         fill-rule="evenodd"
         id="path23" />
      <path
         d="m 106,477 c 13.847,-6.554 40.852,6.886 62.487,0 21.635,-6.886 31.617,2.025 57.026,0 25.41,-2.025 33.285,4.024 62.487,0 3.936,14.295 -4.647,30.4 0,41.83 4.647,11.429 -3.577,35.883 0,47.17 -16.995,0.051 -38.797,-2.29 -62.487,0 -23.689,2.29 -35.945,-1.824 -58.846,0 -22.901,1.824 -37.251,-6.626 -60.667,0 -0.532,-11.751 4.926,-23.01 0,-44.5 -4.926,-21.49 1.065,-33.564 0,-44.5 z"
         stroke="#d1d1d1"
         stroke-width="2"
         stroke-miterlimit="8"
         fill="none"
         fill-rule="evenodd"
         id="path24" />
      <path
         d="m 330,280 c 13.923,-6.554 41.076,6.886 62.83,0 21.754,-6.886 31.791,2.025 57.34,0 25.549,-2.025 33.468,4.024 62.83,0 3.957,14.295 -4.673,30.4 0,41.83 4.673,11.429 -3.597,35.883 0,47.17 -17.088,0.051 -39.01,-2.29 -62.83,0 -23.82,2.29 -36.143,-1.824 -59.17,0 -23.027,1.824 -37.455,-6.626 -61,0 -0.535,-11.751 4.953,-23.01 0,-44.5 -4.953,-21.49 1.071,-33.564 0,-44.5 z"
         stroke="#d1d1d1"
         stroke-width="2"
         stroke-miterlimit="8"
         fill="none"
         fill-rule="evenodd"
         id="path25" />
      <path
         d="m 330,377 c 13.923,-6.554 41.076,6.886 62.83,0 21.754,-6.886 31.791,2.025 57.34,0 25.549,-2.025 33.468,4.024 62.83,0 3.957,14.295 -4.673,30.4 0,41.83 4.673,11.429 -3.597,35.883 0,47.17 -17.088,0.051 -39.01,-2.29 -62.83,0 -23.82,2.29 -36.143,-1.824 -59.17,0 -23.027,1.824 -37.455,-6.626 -61,0 -0.535,-11.751 4.953,-23.01 0,-44.5 -4.953,-21.49 1.071,-33.564 0,-44.5 z"
         stroke="#d1d1d1"
         stroke-width="2"
         stroke-miterlimit="8"
         fill="none"
         fill-rule="evenodd"
         id="path26" />
      <path
         d="m 330,477 c 13.923,-6.554 41.076,6.886 62.83,0 21.754,-6.886 31.791,2.025 57.34,0 25.549,-2.025 33.468,4.024 62.83,0 3.957,14.295 -4.673,30.4 0,41.83 4.673,11.429 -3.597,35.883 0,47.17 -17.088,0.051 -39.01,-2.29 -62.83,0 -23.82,2.29 -36.143,-1.824 -59.17,0 -23.027,1.824 -37.455,-6.626 -61,0 -0.535,-11.751 4.953,-23.01 0,-44.5 -4.953,-21.49 1.071,-33.564 0,-44.5 z"
         stroke="#d1d1d1"
         stroke-width="2"
         stroke-miterlimit="8"
         fill="none"
         fill-rule="evenodd"
         id="path27" />
      <path
         d="m 560,280 c 13.847,-6.554 40.852,6.886 62.487,0 21.635,-6.886 31.617,2.025 57.026,0 25.41,-2.025 33.285,4.024 62.487,0 3.936,14.295 -4.647,30.4 0,41.83 4.647,11.429 -3.577,35.883 0,47.17 -16.995,0.051 -38.797,-2.29 -62.487,0 -23.689,2.29 -35.945,-1.824 -58.846,0 -22.901,1.824 -37.251,-6.626 -60.667,0 -0.532,-11.751 4.926,-23.01 0,-44.5 -4.926,-21.49 1.065,-33.564 0,-44.5 z"
         stroke="#d1d1d1"
         stroke-width="2"
         stroke-miterlimit="8"
         fill="none"
         fill-rule="evenodd"
         id="path28" />
      <path
         d="m 560,377 c 13.847,-6.554 40.852,6.886 62.487,0 21.635,-6.886 31.617,2.025 57.026,0 25.41,-2.025 33.285,4.024 62.487,0 3.936,14.295 -4.647,30.4 0,41.83 4.647,11.429 -3.577,35.883 0,47.17 -16.995,0.051 -38.797,-2.29 -62.487,0 -23.689,2.29 -35.945,-1.824 -58.846,0 -22.901,1.824 -37.251,-6.626 -60.667,0 -0.532,-11.751 4.926,-23.01 0,-44.5 -4.926,-21.49 1.065,-33.564 0,-44.5 z"
         stroke="#d1d1d1"
         stroke-width="2"
         stroke-miterlimit="8"
         fill="none"
         fill-rule="evenodd"
         id="path29" />
      <path
         d="m 560,477 c 13.847,-6.554 40.852,6.886 62.487,0 21.635,-6.886 31.617,2.025 57.026,0 25.41,-2.025 33.285,4.024 62.487,0 3.936,14.295 -4.647,30.4 0,41.83 4.647,11.429 -3.577,35.883 0,47.17 -16.995,0.051 -38.797,-2.29 -62.487,0 -23.689,2.29 -35.945,-1.824 -58.846,0 -22.901,1.824 -37.251,-6.626 -60.667,0 -0.532,-11.751 4.926,-23.01 0,-44.5 -4.926,-21.49 1.065,-33.564 0,-44.5 z"
         stroke="#d1d1d1"
         stroke-width="2"
         stroke-miterlimit="8"
         fill="none"
         fill-rule="evenodd"
         id="path30" />
    </g>
  </g>
</svg>
