<?xml version="1.0" encoding="UTF-8" standalone="no"?>
<!-- Created with Inkscape (http://www.inkscape.org/) -->

<svg
   width="332.83575mm"
   height="171.47093mm"
   viewBox="0 0 332.83575 171.47093"
   version="1.1"
   id="svg1"
   xmlns:inkscape="http://www.inkscape.org/namespaces/inkscape"
   xmlns:sodipodi="http://sodipodi.sourceforge.net/DTD/sodipodi-0.dtd"
   xmlns="http://www.w3.org/2000/svg"
   xmlns:svg="http://www.w3.org/2000/svg">
  <sodipodi:namedview
     id="namedview1"
     pagecolor="#505050"
     bordercolor="#ffffff"
     borderopacity="1"
     inkscape:showpageshadow="0"
     inkscape:pageopacity="0"
     inkscape:pagecheckerboard="1"
     inkscape:deskcolor="#d1d1d1"
     inkscape:document-units="mm"
     inkscape:export-bgcolor="#ffffff00"
     showguides="false" />
  <defs
     id="defs1" />
  <g
     inkscape:label="Lag 1"
     inkscape:groupmode="layer"
     id="layer1"
     transform="translate(224.67678,-1154.4244)">
    <g
       transform="matrix(0.26458333,0,0,0.26458333,-503.2375,641.87917)"
       id="g13">
      <path
         d="m 160,205 c 24.843,-2.569 51.157,-2.522 66.66,0 15.503,2.522 29.895,-1.911 51.51,0 21.615,1.911 35.774,2.782 66.66,0 30.886,-2.782 29.519,-1.453 51.51,0 21.991,1.453 42.087,2.404 66.66,0 -0.415,27.455 -1.608,32.143 0,56.81 1.608,24.667 -0.319,38.059 0,56.81 0.319,18.751 -1.784,39.532 0,56.81 1.784,17.278 0.581,41.125 0,59.8 -0.581,18.675 -0.052,46.591 0,68.77 -12.402,-1.536 -33.104,2.996 -60.6,0 -27.496,-2.996 -32.922,1.256 -54.54,0 -21.618,-1.256 -31.956,2.302 -57.57,0 -25.614,-2.302 -33.982,2.801 -66.66,0 -32.678,-2.801 -38.632,0.067 -63.63,0 -1.743,-21.327 -0.269,-36.901 0,-50.83 0.269,-13.929 2.415,-46.383 0,-59.8 -2.415,-13.417 0.009,-25.719 0,-50.83 -0.009,-25.111 1.419,-36.74 0,-59.8 -1.419,-23.06 3.411,-56.761 0,-77.74 z"
         fill="#d1d1d1"
         fill-rule="evenodd"
         id="path1-7" />
      <path
         d="m 160,205 c 12.936,-2.136 38.747,1.504 63.63,0 24.883,-1.504 41.506,1.156 66.66,0 25.154,-1.156 36.996,-2.734 60.6,0 23.604,2.734 39.684,1.1 51.51,0 11.826,-1.1 43.112,1.988 60.6,0 -2,24.282 2.615,35.692 0,53.82 -2.615,18.128 -2.763,38.558 0,59.8 2.763,21.242 1.119,46.309 0,59.8 -1.119,13.491 2.444,38.797 0,59.8 -2.444,21.003 1.568,36.732 0,65.78 -16.575,-0.569 -36.98,-2.803 -63.63,0 -26.65,2.803 -29.745,0.633 -54.54,0 -24.795,-0.633 -43.97,-0.478 -63.63,0 -19.66,0.478 -36.051,2.167 -57.57,0 -21.519,-2.167 -40.837,1.46 -63.63,0 1.894,-19.635 -2.302,-36.003 0,-50.83 2.302,-14.827 0.451,-40.649 0,-53.82 -0.451,-13.171 -0.871,-30.076 0,-53.82 0.871,-23.744 1.434,-39.937 0,-59.8 -1.434,-19.863 -4.03,-55.824 0,-80.73 z"
         stroke="#000000"
         stroke-width="2"
         stroke-miterlimit="8"
         fill="none"
         fill-rule="evenodd"
         id="path2-5" />
      <path
         d="m 160,79 c 28.389,1.3172 48.474,-1.6474 79.893,0 31.419,1.6474 39.353,1.7209 58.494,0 19.14,-1.7209 59.624,2.4932 79.893,0 20.269,-2.4932 43.024,1.023 58.493,0 15.469,-1.023 54.335,0.2407 75.614,0 21.279,-0.2407 47.464,0.6985 75.613,0 -1.984,30.102 -0.397,47.87 0,70.833 0.397,22.964 1.576,38.165 0,66.584 -1.576,28.419 0.037,52.083 0,70.833 -0.037,18.75 -0.419,35.62 0,58.083 0.419,22.464 -0.453,47.312 0,70.834 0.453,23.521 2.329,52.572 0,87.833 -17.961,-1.366 -50.163,0.795 -62.773,0 -12.61,-0.795 -51.234,-1.424 -79.894,0 -28.66,1.424 -38.588,-0.258 -75.613,0 -37.025,0.258 -33.517,1.418 -58.493,0 -24.976,-1.418 -34.195,2.052 -67.054,0 -32.858,-2.052 -48.423,3.664 -84.173,0 1.111,-31.737 -1.075,-39.969 0,-70.833 1.075,-30.864 -0.101,-60.744 0,-79.334 0.101,-18.589 1.865,-39.503 0,-75.083 -1.865,-35.58 -2.512,-47.221 0,-75.083 2.512,-27.863 0.645,-95.614 0,-124.667 z"
         stroke="#000000"
         stroke-width="2"
         stroke-miterlimit="8"
         fill="none"
         fill-rule="evenodd"
         id="path3-2" />
      <path
         d="m 756,205 c 24.843,-2.569 51.157,-2.522 66.66,0 15.503,2.522 29.895,-1.911 51.51,0 21.615,1.911 35.774,2.782 66.66,0 30.886,-2.782 29.519,-1.453 51.51,0 21.99,1.453 42.09,2.404 66.66,0 -0.41,27.455 -1.61,32.143 0,56.81 1.61,24.667 -0.32,38.059 0,56.81 0.32,18.751 -1.78,39.532 0,56.81 1.78,17.278 0.58,41.125 0,59.8 -0.58,18.675 -0.05,46.591 0,68.77 -12.4,-1.536 -33.1,2.996 -60.6,0 -27.496,-2.996 -32.922,1.256 -54.54,0 -21.618,-1.256 -31.956,2.302 -57.57,0 -25.614,-2.302 -33.982,2.801 -66.66,0 -32.678,-2.801 -38.632,0.067 -63.63,0 -1.743,-21.327 -0.269,-36.901 0,-50.83 0.269,-13.929 2.415,-46.383 0,-59.8 -2.415,-13.417 0.009,-25.719 0,-50.83 -0.009,-25.111 1.419,-36.74 0,-59.8 -1.419,-23.06 3.411,-56.761 0,-77.74 z"
         fill="#d1d1d1"
         fill-rule="evenodd"
         id="path4-2" />
      <path
         d="m 756,205 c 12.936,-2.136 38.747,1.504 63.63,0 24.883,-1.504 41.506,1.156 66.66,0 25.154,-1.156 36.996,-2.734 60.6,0 23.604,2.734 39.684,1.1 51.51,0 11.83,-1.1 43.11,1.988 60.6,0 -2,24.282 2.61,35.692 0,53.82 -2.61,18.128 -2.76,38.558 0,59.8 2.76,21.242 1.12,46.309 0,59.8 -1.12,13.491 2.44,38.797 0,59.8 -2.44,21.003 1.57,36.732 0,65.78 -16.57,-0.569 -36.98,-2.803 -63.63,0 -26.65,2.803 -29.745,0.633 -54.54,0 -24.795,-0.633 -43.97,-0.478 -63.63,0 -19.66,0.478 -36.051,2.167 -57.57,0 -21.519,-2.167 -40.837,1.46 -63.63,0 1.894,-19.635 -2.302,-36.003 0,-50.83 2.302,-14.827 0.451,-40.649 0,-53.82 -0.451,-13.171 -0.871,-30.076 0,-53.82 0.871,-23.744 1.434,-39.937 0,-59.8 -1.434,-19.863 -4.03,-55.824 0,-80.73 z"
         stroke="#000000"
         stroke-width="2"
         stroke-miterlimit="8"
         fill="none"
         fill-rule="evenodd"
         id="path5" />
      <path
         d="m 756,79 c 28.389,1.3172 48.474,-1.6474 79.893,0 31.419,1.6474 39.353,1.7209 58.494,0 19.14,-1.7209 59.624,2.4932 79.893,0 20.269,-2.4932 43.02,1.023 58.49,0 15.47,-1.023 54.34,0.2407 75.62,0 21.28,-0.2407 47.46,0.6985 75.61,0 -1.98,30.102 -0.4,47.87 0,70.833 0.4,22.964 1.58,38.165 0,66.584 -1.58,28.419 0.04,52.083 0,70.833 -0.04,18.75 -0.42,35.62 0,58.083 0.42,22.464 -0.45,47.312 0,70.834 0.45,23.521 2.33,52.572 0,87.833 -17.96,-1.366 -50.16,0.795 -62.77,0 -12.61,-0.795 -51.24,-1.424 -79.9,0 -28.66,1.424 -38.58,-0.258 -75.61,0 -37.025,0.258 -33.517,1.418 -58.493,0 -24.976,-1.418 -34.195,2.052 -67.054,0 -32.858,-2.052 -48.423,3.664 -84.173,0 1.111,-31.737 -1.075,-39.969 0,-70.833 1.075,-30.864 -0.101,-60.744 0,-79.334 0.101,-18.589 1.865,-39.503 0,-75.083 -1.865,-35.58 -2.512,-47.221 0,-75.083 2.512,-27.863 0.645,-95.614 0,-124.667 z"
         stroke="#000000"
         stroke-width="2"
         stroke-miterlimit="8"
         fill="none"
         fill-rule="evenodd"
         id="path6" />
      <rect
         x="1056"
         y="79"
         width="128"
         height="425"
         stroke="#042433"
         stroke-width="2"
         stroke-miterlimit="8"
         fill="#fbe3d6"
         fill-opacity="0.388235"
         id="rect6" />
      <rect
         x="756"
         y="79"
         width="428"
         height="126"
         stroke="#042433"
         stroke-width="2"
         stroke-miterlimit="8"
         fill="#d9f2d0"
         fill-opacity="0.419608"
         id="rect7" />
      <text
         font-family="Handlee, Handlee_MSFontService, sans-serif"
         font-weight="700"
         font-size="43px"
         transform="translate(1121.6,557)"
         id="text7-9">b</text>
      <text
         font-family="Handlee, Handlee_MSFontService, sans-serif"
         font-weight="700"
         font-size="43px"
         transform="translate(726.69,160)"
         id="text8-55">b</text>
      <text
         font-family="Handlee, Handlee_MSFontService, sans-serif"
         font-weight="700"
         font-size="43px"
         transform="translate(130.69,152)"
         id="text9-4">b</text>
      <text
         font-family="Handlee, Handlee_MSFontService, sans-serif"
         font-weight="700"
         font-size="43px"
         transform="translate(517.357,545)"
         id="text10-9">b</text>
      <path
         d="M 2,-1.19303e-6 2.0001,166 h -4 L -2,1.19303e-6 Z M 6.0001,164 1.04987e-4,176 -5.9999,164 Z"
         transform="matrix(1,0,0,-1,699,255)"
         id="path10" />
      <path
         d="m 701,336 v 170 h -4 V 336 Z m 4,168 -6,12 -6,-12 z"
         id="path11" />
      <text
         font-family="Handlee, Handlee_MSFontService, sans-serif"
         font-weight="700"
         font-size="43px"
         transform="translate(688.812,314)"
         id="text11-2">a</text>
      <path
         d="M 2,-1.19303e-6 2.0001,166 h -4 L -2,1.19303e-6 Z M 6.0001,164 1.04987e-4,176 -5.9999,164 Z"
         transform="matrix(1,0,0,-1,112,255)"
         id="path12-5" />
      <path
         d="m 114,336 v 170 h -4 V 336 Z m 4,168 -6,12 -6,-12 z"
         id="path13-8" />
      <text
         font-family="Handlee, Handlee_MSFontService, sans-serif"
         font-weight="700"
         font-size="43px"
         transform="translate(102.108,314)"
         id="text13-6">a</text>
      <g
         transform="translate(311.99998,1526)"
         id="g24">
        <g
           transform="translate(636.99999,502.00005)"
           id="g23">
          <rect
             x="1056"
             y="79"
             width="128"
             height="425"
             stroke="#042433"
             stroke-width="2"
             stroke-miterlimit="8"
             fill="#fbe3d6"
             fill-opacity="0.388235"
             id="rect1" />
          <rect
             x="756"
             y="79"
             width="428"
             height="126"
             stroke="#042433"
             stroke-width="2"
             stroke-miterlimit="8"
             fill="#d9f2d0"
             fill-opacity="0.419608"
             id="rect2" />
          <path
             d="m 160,205 c 24.843,-2.569 51.157,-2.522 66.66,0 15.503,2.522 29.895,-1.911 51.51,0 21.615,1.911 35.774,2.782 66.66,0 30.886,-2.782 29.519,-1.453 51.51,0 21.991,1.453 42.087,2.404 66.66,0 -0.415,27.455 -1.608,32.143 0,56.81 1.608,24.667 -0.319,38.059 0,56.81 0.319,18.751 -1.784,39.532 0,56.81 1.784,17.278 0.581,41.125 0,59.8 -0.581,18.675 -0.052,46.591 0,68.77 -12.402,-1.536 -33.104,2.996 -60.6,0 -27.496,-2.996 -32.922,1.256 -54.54,0 -21.618,-1.256 -31.956,2.302 -57.57,0 -25.614,-2.302 -33.982,2.801 -66.66,0 -32.678,-2.801 -38.632,0.067 -63.63,0 -1.743,-21.327 -0.269,-36.901 0,-50.83 0.269,-13.929 2.415,-46.383 0,-59.8 -2.415,-13.417 0.009,-25.719 0,-50.83 -0.009,-25.111 1.419,-36.74 0,-59.8 -1.419,-23.06 3.411,-56.761 0,-77.74 z"
             fill="#d1d1d1"
             fill-rule="evenodd"
             id="path2-1" />
          <path
             d="m 160,205 c 12.936,-2.136 38.747,1.504 63.63,0 24.883,-1.504 41.506,1.156 66.66,0 25.154,-1.156 36.996,-2.734 60.6,0 23.604,2.734 39.684,1.1 51.51,0 11.826,-1.1 43.112,1.988 60.6,0 -2,24.282 2.615,35.692 0,53.82 -2.615,18.128 -2.763,38.558 0,59.8 2.763,21.242 1.119,46.309 0,59.8 -1.119,13.491 2.444,38.797 0,59.8 -2.444,21.003 1.568,36.732 0,65.78 -16.575,-0.569 -36.98,-2.803 -63.63,0 -26.65,2.803 -29.745,0.633 -54.54,0 -24.795,-0.633 -43.97,-0.478 -63.63,0 -19.66,0.478 -36.051,2.167 -57.57,0 -21.519,-2.167 -40.837,1.46 -63.63,0 1.894,-19.635 -2.302,-36.003 0,-50.83 2.302,-14.827 0.451,-40.649 0,-53.82 -0.451,-13.171 -0.871,-30.076 0,-53.82 0.871,-23.744 1.434,-39.937 0,-59.8 -1.434,-19.863 -4.03,-55.824 0,-80.73 z"
             stroke="#000000"
             stroke-width="2"
             stroke-miterlimit="8"
             fill="none"
             fill-rule="evenodd"
             id="path3-0" />
          <path
             d="m 160,79 c 28.389,1.3172 48.474,-1.6474 79.893,0 31.419,1.6474 39.353,1.7209 58.494,0 19.14,-1.7209 59.624,2.4932 79.893,0 20.269,-2.4932 43.024,1.023 58.493,0 15.469,-1.023 54.335,0.2407 75.614,0 21.279,-0.2407 47.464,0.6985 75.613,0 -1.984,30.102 -0.397,47.87 0,70.833 0.397,22.964 1.576,38.165 0,66.584 -1.576,28.419 0.037,52.083 0,70.833 -0.037,18.75 -0.419,35.62 0,58.083 0.419,22.464 -0.453,47.312 0,70.834 0.453,23.521 2.329,52.572 0,87.833 -17.961,-1.366 -50.163,0.795 -62.773,0 -12.61,-0.795 -51.234,-1.424 -79.894,0 -28.66,1.424 -38.588,-0.258 -75.613,0 -37.025,0.258 -33.517,1.418 -58.493,0 -24.976,-1.418 -34.195,2.052 -67.054,0 -32.858,-2.052 -48.423,3.664 -84.173,0 1.111,-31.737 -1.075,-39.969 0,-70.833 1.075,-30.864 -0.101,-60.744 0,-79.334 0.101,-18.589 1.865,-39.503 0,-75.083 -1.865,-35.58 -2.512,-47.221 0,-75.083 2.512,-27.863 0.645,-95.614 0,-124.667 z"
             stroke="#000000"
             stroke-width="2"
             stroke-miterlimit="8"
             fill="none"
             fill-rule="evenodd"
             id="path4-0" />
          <path
             d="m 756,205 c 24.843,-2.569 51.157,-2.522 66.66,0 15.503,2.522 29.895,-1.911 51.51,0 21.615,1.911 35.774,2.782 66.66,0 30.886,-2.782 29.519,-1.453 51.51,0 21.99,1.453 42.09,2.404 66.66,0 -0.41,27.455 -1.61,32.143 0,56.81 1.61,24.667 -0.32,38.059 0,56.81 0.32,18.751 -1.78,39.532 0,56.81 1.78,17.278 0.58,41.125 0,59.8 -0.58,18.675 -0.05,46.591 0,68.77 -12.4,-1.536 -33.1,2.996 -60.6,0 -27.496,-2.996 -32.922,1.256 -54.54,0 -21.618,-1.256 -31.956,2.302 -57.57,0 -25.614,-2.302 -33.982,2.801 -66.66,0 -32.678,-2.801 -38.632,0.067 -63.63,0 -1.743,-21.327 -0.269,-36.901 0,-50.83 0.269,-13.929 2.415,-46.383 0,-59.8 -2.415,-13.417 0.009,-25.719 0,-50.83 -0.009,-25.111 1.419,-36.74 0,-59.8 -1.419,-23.06 3.411,-56.761 0,-77.74 z"
             fill="#d1d1d1"
             fill-rule="evenodd"
             id="path5-4" />
          <path
             d="m 756,205 c 12.936,-2.136 38.747,1.504 63.63,0 24.883,-1.504 41.506,1.156 66.66,0 25.154,-1.156 36.996,-2.734 60.6,0 23.604,2.734 39.684,1.1 51.51,0 11.83,-1.1 43.11,1.988 60.6,0 -2,24.282 2.61,35.692 0,53.82 -2.61,18.128 -2.76,38.558 0,59.8 2.76,21.242 1.12,46.309 0,59.8 -1.12,13.491 2.44,38.797 0,59.8 -2.44,21.003 1.57,36.732 0,65.78 -16.57,-0.569 -36.98,-2.803 -63.63,0 -26.65,2.803 -29.745,0.633 -54.54,0 -24.795,-0.633 -43.97,-0.478 -63.63,0 -19.66,0.478 -36.051,2.167 -57.57,0 -21.519,-2.167 -40.837,1.46 -63.63,0 1.894,-19.635 -2.302,-36.003 0,-50.83 2.302,-14.827 0.451,-40.649 0,-53.82 -0.451,-13.171 -0.871,-30.076 0,-53.82 0.871,-23.744 1.434,-39.937 0,-59.8 -1.434,-19.863 -4.03,-55.824 0,-80.73 z"
             stroke="#000000"
             stroke-width="2"
             stroke-miterlimit="8"
             fill="none"
             fill-rule="evenodd"
             id="path6-9" />
          <text
             font-family="Handlee, Handlee_MSFontService, sans-serif"
             font-weight="700"
             font-size="43px"
             transform="translate(857.417,365)"
             id="text6-6">(a</text>
          <text
             font-family="Handlee, Handlee_MSFontService, sans-serif"
             font-weight="700"
             font-size="43px"
             transform="translate(888.25,365)"
             id="text7-6">-</text>
          <text
             font-family="Handlee, Handlee_MSFontService, sans-serif"
             font-weight="700"
             font-size="43px"
             transform="translate(911.583,365)"
             id="text8-0">b)</text>
          <text
             font-family="Handlee, Handlee_MSFontService, sans-serif"
             font-weight="700"
             font-size="28px"
             transform="translate(941.083,352)"
             id="text9-1">2</text>
          <path
             d="m 756,79 c 28.389,1.3172 48.474,-1.6474 79.893,0 31.419,1.6474 39.353,1.7209 58.494,0 19.14,-1.7209 59.624,2.4932 79.893,0 20.269,-2.4932 43.02,1.023 58.49,0 15.47,-1.023 54.34,0.2407 75.62,0 21.28,-0.2407 47.46,0.6985 75.61,0 -1.98,30.102 -0.4,47.87 0,70.833 0.4,22.964 1.58,38.165 0,66.584 -1.58,28.419 0.04,52.083 0,70.833 -0.04,18.75 -0.42,35.62 0,58.083 0.42,22.464 -0.45,47.312 0,70.834 0.45,23.521 2.33,52.572 0,87.833 -17.96,-1.366 -50.16,0.795 -62.77,0 -12.61,-0.795 -51.24,-1.424 -79.9,0 -28.66,1.424 -38.58,-0.258 -75.61,0 -37.025,0.258 -33.517,1.418 -58.493,0 -24.976,-1.418 -34.195,2.052 -67.054,0 -32.858,-2.052 -48.423,3.664 -84.173,0 1.111,-31.737 -1.075,-39.969 0,-70.833 1.075,-30.864 -0.101,-60.744 0,-79.334 0.101,-18.589 1.865,-39.503 0,-75.083 -1.865,-35.58 -2.512,-47.221 0,-75.083 2.512,-27.863 0.645,-95.614 0,-124.667 z"
             stroke="#000000"
             stroke-width="2"
             stroke-miterlimit="8"
             fill="none"
             fill-rule="evenodd"
             id="path9-4" />
          <text
             font-family="Handlee, Handlee_MSFontService, sans-serif"
             font-weight="700"
             font-size="43px"
             transform="translate(1121.6,557)"
             id="text10-3">b</text>
          <text
             font-family="Handlee, Handlee_MSFontService, sans-serif"
             font-weight="700"
             font-size="43px"
             transform="translate(726.69,160)"
             id="text11-5">b</text>
          <text
             font-family="Handlee, Handlee_MSFontService, sans-serif"
             font-weight="700"
             font-size="43px"
             transform="translate(130.69,152)"
             id="text12-2">b</text>
          <text
             font-family="Handlee, Handlee_MSFontService, sans-serif"
             font-weight="700"
             font-size="43px"
             transform="translate(517.357,545)"
             id="text13-3">b</text>
          <path
             d="M 2,-1.19303e-6 2.0001,166 h -4 L -2,1.19303e-6 Z M 6.0001,164 1.04987e-4,176 -5.9999,164 Z"
             transform="matrix(1,0,0,-1,699,255)"
             id="path13-0" />
          <path
             d="m 701,336 v 170 h -4 V 336 Z m 4,168 -6,12 -6,-12 z"
             id="path14-0" />
          <text
             font-family="Handlee, Handlee_MSFontService, sans-serif"
             font-weight="700"
             font-size="43px"
             transform="translate(688.812,314)"
             id="text14-0">a</text>
          <path
             d="M 2,-1.19303e-6 2.0001,166 h -4 L -2,1.19303e-6 Z M 6.0001,164 1.04987e-4,176 -5.9999,164 Z"
             transform="matrix(1,0,0,-1,112,255)"
             id="path15" />
          <path
             d="m 114,336 v 170 h -4 V 336 Z m 4,168 -6,12 -6,-12 z"
             id="path16" />
          <text
             font-family="Handlee, Handlee_MSFontService, sans-serif"
             font-weight="700"
             font-size="43px"
             transform="translate(102.108,314)"
             id="text16-0">a</text>
          <path
             d="m 756,-88 c 18.544,2.7069 40.28,0.8837 62.773,0 22.493,-0.8837 32.96,-1.5657 62.774,0 29.813,1.5657 39.822,-3.3348 71.333,0 31.511,3.3348 58.58,-2.9078 79.89,0 21.31,2.9078 31.82,-0.2873 58.5,0 26.67,0.2873 52.85,-0.4874 92.73,0 -0.43,18.8024 -0.66,35.7885 0,63.5 0.66,27.71147 1.88,40.7545 0,63.5 -23.2,-0.9272 -49.51,-2.5953 -71.33,0 -21.83,2.5954 -47.6,2.9354 -62.78,0 -15.17,-2.9354 -37.09,-1.7074 -67.05,0 -29.96,1.7074 -58.69,-3.2613 -79.893,0 -21.204,3.2613 -60.667,-2.8067 -79.894,0 -19.227,2.8067 -37.276,1.1298 -67.053,0 -2.266,-21.0785 -1.416,-36.68253 0,-64.77 1.416,-28.0875 -0.255,-35.9325 0,-62.23 z"
             fill="#d9f2d0"
             fill-rule="evenodd"
             fill-opacity="0.419608"
             id="path17-6" />
          <path
             d="m 756,-88 c 36.176,-0.3085 59.266,1.4512 79.893,0 20.627,-1.4512 63.647,-3.2415 79.894,0 16.246,3.2415 36.442,1.1026 58.493,0 22.051,-1.1026 50.37,3.0305 67.05,0 16.68,-3.0305 29.69,-0.4304 58.5,0 28.81,0.4304 65.17,1.0877 84.17,0 0.4,30.3475 2.94,43.6861 0,66.04 -2.94,22.353898 0.29,45.6203 0,60.96 -33.71,-0.4051 -43.75,-0.1256 -79.89,0 -36.15,0.1256 -54.35,2.0469 -75.62,0 -21.26,-2.0469 -45.134,-2.0875 -58.49,0 -13.356,2.0875 -50.993,3.2913 -75.613,0 -24.621,-3.2913 -45.25,3.2659 -71.334,0 -26.083,-3.2658 -48.885,-2.6216 -67.053,0 0.749,-29.93305 2.277,-33.41547 0,-62.23 -2.277,-28.8144 2.617,-33.0346 0,-64.77 z"
             stroke="#042433"
             stroke-width="2"
             stroke-miterlimit="8"
             fill="none"
             fill-rule="evenodd"
             id="path18-2" />
          <text
             font-family="Handlee, Handlee_MSFontService, sans-serif"
             font-weight="700"
             font-size="43px"
             transform="translate(950.75,-14)"
             id="text18-8">ab</text>
          <path
             d="m 1231,79 c 19.83,-1.1371 36.14,1.8369 61.44,0 25.3,-1.8369 45.32,1.88 66.56,0 2.52,38.871 -1.79,58.464 0,79.333 1.79,20.87 -2.77,43.73 0,62.334 2.77,18.603 -2.8,40.166 0,58.083 2.8,17.917 2.11,51.446 0,79.333 -2.11,27.887 1.48,49.524 0,75.084 -1.48,25.559 1.98,49.549 0,70.833 -13.7,-0.542 -45.78,-3.182 -65.28,0 -19.5,3.182 -32.6,2.181 -62.72,0 -1.39,-36.481 1.53,-42.286 0,-75.083 -1.53,-32.798 -2.96,-33.626 0,-62.334 2.96,-28.707 -1.76,-33.332 0,-62.333 1.76,-29.001 -1.2,-45.666 0,-79.333 1.2,-33.668 1,-36.129 0,-62.334 -1,-26.204 3.75,-50.538 0,-83.583 z"
             fill="#fbe3d6"
             fill-rule="evenodd"
             fill-opacity="0.388235"
             id="path19-8" />
          <path
             d="m 1231,79 c 24.41,1.2061 38.67,-0.3104 66.56,0 27.89,0.3104 44.96,1.8568 61.44,0 -2.74,24.941 -2.36,42.602 0,62.333 2.36,19.731 -0.8,57.837 0,79.334 0.8,21.496 2.43,42.804 0,75.083 -2.42,32.279 -3.5,43.99 0,79.333 3.5,35.344 0.94,99.869 0,128.917 -21.13,-1.859 -33.96,0.176 -65.28,0 -31.32,-0.176 -39.87,-2.936 -62.72,0 1.54,-22.022 0.89,-42.819 0,-58.083 -0.89,-15.264 -1.3,-57.919 0,-75.084 1.3,-17.164 0.06,-43.147 0,-66.583 -0.06,-23.436 -2.83,-47.109 0,-75.083 2.83,-27.975 -1.69,-35.68 0,-62.334 1.69,-26.653 -0.95,-53.162 0,-87.833 z"
             stroke="#042433"
             stroke-width="2"
             stroke-miterlimit="8"
             fill="none"
             fill-rule="evenodd"
             id="path20" />
          <text
             font-family="Handlee, Handlee_MSFontService, sans-serif"
             font-weight="700"
             font-size="43px"
             transform="translate(1275.42,302)"
             id="text20-0">ab</text>
          <path
             d="m 1231,-88 c 24.02,2.4418 50.04,2.636 65.28,0 15.24,-2.636 46.27,2.8301 62.72,0 2.79,15.9235 -0.8,44.8274 0,66.04 0.8,21.212632 0.53,43.7321 0,60.96 -18.13,-1.6724 -39.31,2.627 -65.28,0 -25.97,-2.6271 -50.08,-1.7811 -62.72,0 -2.91,-29.68443 -0.48,-44.80148 0,-62.23 0.48,-17.4284 -1.27,-39.1365 0,-64.77 z"
             fill="#eef4e2"
             fill-rule="evenodd"
             fill-opacity="0.411765"
             id="path21" />
          <path
             d="m 1231,-88 c 29.21,-1.0276 34.97,0.5182 62.72,0 27.75,-0.5182 35.35,0.4337 65.28,0 1.96,15.9136 -0.22,32.7598 0,63.5 0.22,30.7402 1.78,33.72979 0,63.5 -30.3,-1.1808 -40.22,-2.3467 -61.44,0 -21.22,2.3467 -37.69,-1.6684 -66.56,0 -1.13,-30.31548 -2.98,-44.27927 0,-63.5 2.98,-19.2207 2.35,-48.2104 0,-63.5 z"
             stroke="#042433"
             stroke-width="2"
             stroke-miterlimit="8"
             fill="none"
             fill-rule="evenodd"
             id="path22-9" />
          <text
             font-family="Handlee, Handlee_MSFontService, sans-serif"
             font-weight="700"
             font-size="43px"
             transform="translate(1277.58,-14)"
             id="text22-97">b</text>
          <text
             font-family="Handlee, Handlee_MSFontService, sans-serif"
             font-weight="700"
             font-size="28px"
             transform="translate(1296.92,-27)"
             id="text23-8">2</text>
        </g>
      </g>
    </g>
  </g>
</svg>
