<svg width="3329" height="1847" xmlns="http://www.w3.org/2000/svg" xmlns:xlink="http://www.w3.org/1999/xlink" xml:space="preserve" overflow="hidden"><g transform="translate(-373 -183)"><path d="M2200.5 2020.5C2206.73 1953.02 2242.8 1923.66 2249.28 1833.54 2255.76 1743.42 2281.77 1724.49 2304.15 1623.21 2326.54 1521.93 2329.97 1527.3 2352.93 1436.25 2375.89 1345.2 2397.39 1293.77 2403.74 1241.5 2479.8 1235.16 2534.29 1257.35 2588.96 1241.5 2643.63 1225.65 2698.97 1258.35 2766.77 1241.5 2834.57 1224.65 2891.4 1252.18 2966.8 1241.5 3042.21 1230.82 3063.34 1244.98 3144.61 1241.5 3207.37 1335.6 3209.52 1399.82 3239.08 1450.03 3268.64 1500.24 3291.98 1590.66 3330.05 1650.84 3368.13 1711.02 3448.39 1919.25 3494.5 2013.84 3402.03 2026 3339.46 2011.86 3252.95 2015.08 3166.45 2018.31 3129.29 2015.4 3063.17 2016.06 2997.04 2016.72 2920.05 2008.32 2821.62 2017.3 2723.19 2026.29 2710.07 2015.5 2631.83 2018.28 2553.6 2021.06 2469.43 2016.85 2403.23 2019.46 2337.02 2022.06 2283.36 2005.9 2200.5 2020.5Z" stroke="#000000" stroke-width="6.875" stroke-miterlimit="8" fill="none" fill-rule="evenodd"/><path d="M381.5 192.5C489.304 187.224 521.894 203.736 623.98 192.5 726.066 181.264 800.909 195.105 866.46 192.5 932.012 189.895 1038.12 191.145 1108.94 192.5 1179.76 193.855 1217.37 186.33 1312.45 192.5 1407.53 198.67 1535.48 194.99 1680.5 192.5 1678.55 277.241 1685.84 339.513 1680.5 379.7 1675.16 419.887 1671.26 478.548 1680.5 566.9 1689.74 655.252 1681.06 690.866 1680.5 738.5 1679.94 786.134 1689.14 892.423 1680.5 972.5 1583.52 973.095 1517.77 977.046 1451.01 972.5 1384.25 967.954 1320.2 965.301 1234.51 972.5 1148.82 979.699 1116.01 974.618 1056.98 972.5 997.949 970.382 923.541 966.133 879.45 972.5 835.359 978.867 745.651 976.875 701.92 972.5 658.19 968.125 521.09 986.671 381.5 972.5 373.422 884.131 387.255 880.615 381.5 793.1 375.745 705.585 380.2 679.347 381.5 582.5 382.801 485.653 383.85 460.105 381.5 403.1 379.15 346.095 373.58 262.446 381.5 192.5Z" stroke="#000000" stroke-width="6.875" stroke-miterlimit="8" fill="none" fill-rule="evenodd"/><path d="M2200.5 191.5C2308.3 186.231 2340.89 202.721 2442.98 191.5 2545.07 180.279 2619.91 194.101 2685.46 191.5 2751.01 188.899 2857.12 190.146 2927.94 191.5 2998.76 192.853 3036.37 185.338 3131.45 191.5 3226.53 197.662 3354.48 193.987 3499.5 191.5 3497.55 276.132 3504.84 338.324 3499.5 378.46 3494.16 418.596 3490.26 477.181 3499.5 565.42 3508.74 653.659 3500.06 689.227 3499.5 736.8 3498.94 784.373 3508.14 890.526 3499.5 970.5 3402.52 971.095 3336.77 975.04 3270.01 970.5 3203.25 965.96 3139.2 963.31 3053.51 970.5 2967.82 977.69 2935.01 972.615 2875.98 970.5 2816.95 968.384 2742.54 964.141 2698.45 970.5 2654.36 976.859 2564.65 974.87 2520.92 970.5 2477.19 966.13 2340.09 984.653 2200.5 970.5 2192.42 882.244 2206.25 878.733 2200.5 791.33 2194.75 703.927 2199.2 677.723 2200.5 581 2201.8 484.277 2202.85 458.762 2200.5 401.83 2198.15 344.898 2192.58 261.356 2200.5 191.5Z" stroke="#000000" stroke-width="6.875" stroke-miterlimit="8" stroke-dasharray="27.5 20.625" fill="none" fill-rule="evenodd"/><path d="M2200.5 970.5C2215.81 886.211 2234.08 808.613 2251.17 767.96 2268.25 727.307 2281.27 658.95 2295.98 588.79 2310.7 518.629 2331.89 464.77 2344.7 394.04 2357.51 323.31 2390.81 242.31 2395.37 191.5 2495.39 181.659 2552.04 193.612 2638.43 191.5 2724.82 189.388 2760.08 191.397 2829.41 191.5 2898.74 191.603 2945.05 191.809 3046.43 191.5 3147.82 191.191 3188.25 188.098 3237.41 191.5 3286.57 194.902 3387.82 196.592 3480.48 191.5 3573.14 186.408 3652.94 189.072 3697.5 191.5 3678.14 279.367 3674.33 297.608 3650.73 378.46 3627.14 459.312 3613.38 512.872 3607.86 549.84 3602.34 586.808 3568.68 684.223 3564.99 721.22 3561.3 758.217 3513.84 887.905 3502.63 970.5 3397.75 964.863 3339.5 976.568 3285.61 970.5 3231.73 964.432 3159.33 967.544 3094.63 970.5 3029.93 973.456 2954.61 972.247 2916.67 970.5 2878.73 968.753 2766.05 980.51 2686.63 970.5 2607.21 960.49 2524.72 970.294 2482.63 970.5 2440.54 970.705 2327.7 974.978 2200.5 970.5Z" stroke="#000000" stroke-width="6.875" stroke-miterlimit="8" fill="none" fill-rule="evenodd"/><path d="M381.5 2020.5C424.086 1948.99 438.176 1912.53 461.204 1849.12 484.232 1785.71 523.08 1724.33 559.023 1638.79 594.966 1553.25 613.833 1510.26 645.973 1451.83 678.112 1393.4 729.7 1298.51 743.791 1241.5 791.545 1278.38 901.484 1357.06 940.5 1405.09 979.515 1453.12 1055.53 1509.01 1118.47 1553.1 1181.42 1597.19 1278.73 1677.2 1324.55 1724.48 1370.37 1771.76 1450.24 1832.45 1502.53 1872.49 1554.81 1912.53 1620.98 1965.62 1680.5 2020.5 1592.69 2014.51 1538.76 2015.34 1476.99 2020.5 1415.22 2025.66 1343.92 2020.25 1299.46 2020.5 1255 2020.75 1164.15 2022.86 1069.97 2020.5 975.789 2018.14 893.633 2009.67 840.48 2020.5 787.327 2031.33 696.379 2024.39 623.98 2020.5 551.581 2016.61 449.061 2014.66 381.5 2020.5Z" stroke="#000000" stroke-width="6.875" stroke-miterlimit="8" fill="none" fill-rule="evenodd"/><path d="M2040.5 1241.5C1995.6 1318.95 1989.91 1357.07 1961.35 1412.88 1932.8 1468.69 1908.14 1545.09 1864.22 1623.21 1820.29 1701.33 1814.96 1749.13 1777.87 1810.17 1740.79 1871.21 1722.5 1945.07 1680.74 2020.5 1595.72 1942.4 1563.8 1907.19 1483.29 1856.91 1402.77 1806.63 1390.51 1783.37 1304.64 1708.9 1218.77 1634.43 1208.03 1613.49 1097.79 1537.52 987.548 1461.55 985.393 1450.27 919.145 1389.51 852.897 1328.75 808.399 1294.37 740.5 1241.5 828.381 1247.5 882.347 1246.66 944.167 1241.5 1005.99 1236.34 1077.34 1241.75 1121.83 1241.5 1166.33 1241.25 1257.25 1239.14 1351.5 1241.5 1445.75 1243.86 1527.97 1252.33 1581.17 1241.5 1634.36 1230.67 1725.38 1237.61 1797.83 1241.5 1870.29 1245.39 1972.89 1247.34 2040.5 1241.5Z" stroke="#000000" stroke-width="6.875" stroke-miterlimit="8" stroke-dasharray="27.5 20.625" fill="none" fill-rule="evenodd"/><path d="M2200.5 2020.5C2259.45 1982.27 2308.58 1941.88 2389.28 1864.7 2469.97 1787.52 2504.33 1779.54 2568.62 1716.69 2632.91 1653.84 2664.25 1633.95 2729.08 1584.26 2793.91 1534.57 2879.54 1475.97 2927.3 1420.67 2975.05 1365.37 3034.45 1324.36 3144.39 1241.5 3171.45 1303.85 3186.45 1348.04 3222.52 1412.88 3258.58 1477.72 3272.69 1534.95 3307.74 1599.84 3342.79 1664.73 3348.46 1705.31 3396.52 1794.59 3444.58 1883.87 3451.98 1920.02 3499.5 2020.5 3431.22 2022.04 3337.12 2024.96 3295.99 2020.5 3254.86 2016.04 3181.08 2023.89 3092.48 2020.5 3003.88 2017.11 2953.01 2017.93 2850 2020.5 2746.99 2023.07 2738.28 2025.06 2659.48 2020.5 2580.68 2015.94 2506.21 2020.88 2442.98 2020.5 2379.75 2020.12 2286.58 2010.71 2200.5 2020.5Z" stroke="#000000" stroke-width="6.875" stroke-miterlimit="8" fill="none" fill-rule="evenodd"/></g></svg>