<svg width="2065" height="1102" xmlns="http://www.w3.org/2000/svg" xmlns:xlink="http://www.w3.org/1999/xlink" xml:space="preserve" overflow="hidden"><g transform="translate(-787 -696)"><path d="M1940.5 707.5C2032.72 705.823 2086.72 707.685 2151.1 707.5 2215.48 707.315 2308.78 714.559 2361.7 707.5 2414.62 700.441 2567.94 694.115 2720.5 707.5 2726.97 787.443 2720.61 854.854 2720.5 894.46 2720.39 934.066 2713.33 1017.13 2720.5 1081.42 2727.67 1145.71 2729.36 1216.07 2720.5 1276.17 2711.64 1336.27 2717.1 1415.22 2720.5 1486.5 2648.01 1487.06 2590.56 1492.29 2548.9 1486.5 2507.24 1480.71 2441.82 1476.97 2346.1 1486.5 2250.38 1496.03 2206.83 1482.3 2166.7 1486.5 2126.57 1490.7 1994.87 1488.7 1940.5 1486.5 1948.05 1424.43 1937.84 1365.86 1940.5 1315.12 1943.16 1264.38 1949.26 1188.43 1940.5 1120.37 1931.74 1052.31 1933.63 978.962 1940.5 917.83 1947.37 856.698 1947.37 779.985 1940.5 707.5Z" stroke="#000000" stroke-width="6.875" stroke-miterlimit="8" fill="none" fill-rule="evenodd"/><text font-family="Calibri,Calibri_MSFontService,sans-serif" font-weight="400" font-size="128" transform="matrix(1 0 0 1 934.53 1686)">1 lengdeenhet</text><text font-family="Calibri,Calibri_MSFontService,sans-serif" font-weight="400" font-size="128" transform="matrix(1 0 0 1 2001.11 1686)">1 arealenhet</text><path d="M906.5 1491.5 1686.03 1491.5" stroke="#000000" stroke-width="6.875" stroke-miterlimit="8" fill="none" fill-rule="evenodd"/></g></svg>