<?xml version="1.0" encoding="UTF-8" standalone="no"?>
<!-- Created with Inkscape (http://www.inkscape.org/) -->

<svg
   width="239.46616mm"
   height="95.865402mm"
   viewBox="0 0 239.46616 95.865402"
   version="1.1"
   id="svg1"
   xmlns:inkscape="http://www.inkscape.org/namespaces/inkscape"
   xmlns:sodipodi="http://sodipodi.sourceforge.net/DTD/sodipodi-0.dtd"
   xmlns="http://www.w3.org/2000/svg"
   xmlns:svg="http://www.w3.org/2000/svg">
  <sodipodi:namedview
     id="namedview1"
     pagecolor="#505050"
     bordercolor="#ffffff"
     borderopacity="1"
     inkscape:showpageshadow="0"
     inkscape:pageopacity="0"
     inkscape:pagecheckerboard="1"
     inkscape:deskcolor="#d1d1d1"
     inkscape:document-units="mm"
     inkscape:export-bgcolor="#ffffff00" />
  <defs
     id="defs1" />
  <g
     inkscape:label="Lag 1"
     inkscape:groupmode="layer"
     id="layer1"
     transform="translate(161.67118,-317.30642)">
    <path
       d="m -101.86459,396.34584 c -5.55678,0.0431 -9.9613,0.44688 -13.15508,0 -3.19379,-0.44689 -8.2087,-0.73449 -15.54692,0 -7.33822,0.73448 -10.67699,-0.32412 -13.75304,0 -3.07604,0.32411 -13.17281,0.16959 -17.34079,0 z"
       stroke="#000000"
       stroke-width="0.529167"
       stroke-miterlimit="8"
       fill="none"
       fill-rule="evenodd"
       id="path1"
       sodipodi:nodetypes="cssscc" />
    <path
       d="m -82.285421,336.02084 c 7.100622,-0.12886 11.259079,0.0143 16.216312,0 4.957233,-0.0143 12.141464,0.54186 16.216312,0 4.074848,-0.54187 15.880821,-1.02738 27.627792,0 0.498475,6.13648 0.0082,11.31093 0,14.351 -0.0082,3.04006 -0.552186,9.41572 0,14.351 0.552185,4.93527 0.682095,10.33541 0,14.94895 -0.682096,4.61354 -0.261673,10.67356 0,16.14488 -5.581386,0.0429 -10.005484,0.44476 -13.213292,0 -3.207808,-0.44477 -8.244946,-0.73131 -15.615708,0 -7.370763,0.73131 -10.724092,-0.32253 -13.813896,0 -3.089804,0.32253 -13.231018,0.16907 -17.41752,0 0.581025,-4.76435 -0.204788,-9.26015 0,-13.15508 0.204787,-3.89494 0.674423,-9.7245 0,-14.94896 -0.674423,-5.22447 -0.529167,-10.85453 0,-15.54692 0.529166,-4.69238 0.528637,-10.58095 0,-16.14487 z"
       stroke="#000000"
       stroke-width="0.529167"
       stroke-miterlimit="8"
       fill="none"
       fill-rule="evenodd"
       id="path2" />
    <text
       font-family="Calibri, Calibri_MSFontService, sans-serif"
       font-weight="400"
       font-size="9.78958px"
       id="text5"
       x="-159.58"
       y="411.42709"
       style="stroke-width:0.264583">1 lengdeenhet</text>
    <text
       font-family="Calibri, Calibri_MSFontService, sans-serif"
       font-weight="400"
       font-size="9.78958px"
       id="text6"
       x="-77.485352"
       y="411.42709"
       style="stroke-width:0.264583">1 arealenhet</text>
    <path
       d="m -2.1166724,337.47604 c 2.28282498,-2.87946 6.694752,-6.595 9.9067936,-9.9179 3.2123058,-3.3229 6.7611628,-6.17485 9.5183858,-9.52897 4.939506,0.0614 9.899914,-0.66993 13.788495,0 3.888581,0.66992 8.993188,0.10716 14.388042,0 5.394854,-0.10716 10.122429,0.43497 16.186414,0 6.063721,-0.43498 8.298921,-0.7665 15.586869,0 -0.814917,6.12008 0.60325,12.1883 0,18.86347 -0.60325,6.67517 0.841375,14.84339 0,19.44687 -0.841375,4.60349 -0.100542,14.9225 0,20.03028 -4.521465,4.71726 -5.501746,5.37237 -9.518386,9.52897 -4.016639,4.15661 -6.694752,6.15712 -9.906793,9.91791 -2.860146,-0.17145 -7.037123,0.65299 -13.788496,0 -6.751637,-0.65299 -8.237537,-0.0664 -14.987587,0 -6.749786,0.0664 -9.391121,-0.10769 -13.788231,0 -4.397111,0.10768 -10.6793773,0.49953 -17.3855064,0 -0.4302125,-8.46535 0.1844146,-10.24467 0,-17.69666 -0.1844146,-7.45199 0.3106208,-13.29399 0,-18.86347 -0.3106208,-5.56948 -0.4405312,-13.91734 0,-21.7805 z m 0,0 c 4.0970729,0.70141 11.0122228,0.1741 16.1864144,0 5.174192,-0.17409 8.590227,0.10002 13.788496,0 5.198004,-0.10001 7.876381,-0.15451 13.188949,0 5.312569,0.15452 9.444302,-0.56832 16.785961,0 4.020608,-4.24259 7.700433,-7.50517 9.712589,-9.72343 2.012156,-2.21827 4.935273,-5.21018 9.71259,-9.72344 m -19.425179,19.44687 c 0.393964,5.77427 0.06826,10.52116 0,17.69666 -0.06853,7.1755 0.518054,12.34123 0,18.86347 -0.518319,6.52224 -0.642144,16.69732 0,21.7805"
       stroke="#000000"
       stroke-width="0.529167"
       stroke-miterlimit="8"
       fill="none"
       fill-rule="evenodd"
       id="path6" />
    <text
       font-family="Calibri, Calibri_MSFontService, sans-serif"
       font-weight="400"
       font-size="9.78958px"
       id="text7"
       x="2.5537527"
       y="411.42709"
       style="stroke-width:0.264583">1 volumenhet</text>
  </g>
</svg>
