<?xml version="1.0" encoding="UTF-8" standalone="no"?>
<!-- Created with Inkscape (http://www.inkscape.org/) -->

<svg
   width="126.76173mm"
   height="79.523247mm"
   viewBox="0 0 126.76173 79.523247"
   version="1.1"
   id="svg1"
   xmlns:inkscape="http://www.inkscape.org/namespaces/inkscape"
   xmlns:sodipodi="http://sodipodi.sourceforge.net/DTD/sodipodi-0.dtd"
   xmlns="http://www.w3.org/2000/svg"
   xmlns:svg="http://www.w3.org/2000/svg">
  <sodipodi:namedview
     id="namedview1"
     pagecolor="#505050"
     bordercolor="#ffffff"
     borderopacity="1"
     inkscape:showpageshadow="0"
     inkscape:pageopacity="0"
     inkscape:pagecheckerboard="1"
     inkscape:deskcolor="#d1d1d1"
     inkscape:document-units="mm"
     inkscape:export-bgcolor="#ffffff00"
     showguides="false" />
  <defs
     id="defs1">
    <clipPath
       clipPathUnits="userSpaceOnUse"
       id="clipPath10">
      <rect
         style="fill:none;fill-rule:evenodd;stroke:#000000;stroke-width:0.753592;stroke-linecap:round;stroke-linejoin:round;stroke-dasharray:none;stroke-opacity:1;paint-order:fill markers stroke"
         id="rect10"
         width="8.2195578"
         height="4.9739375"
         x="-32.493042"
         y="575.51984" />
    </clipPath>
    <clipPath
       clipPathUnits="userSpaceOnUse"
       id="clipPath13">
      <rect
         style="fill:none;fill-rule:evenodd;stroke:#000000;stroke-width:0.7;stroke-linecap:round;stroke-linejoin:round;stroke-dasharray:none;stroke-opacity:1;paint-order:fill markers stroke"
         id="rect14"
         width="9.8004999"
         height="4.8366103"
         x="-11.964247"
         y="575.55664" />
    </clipPath>
    <clipPath
       clipPathUnits="userSpaceOnUse"
       id="clipPath14">
      <rect
         style="fill:none;fill-rule:evenodd;stroke:#000000;stroke-width:0.7;stroke-linecap:round;stroke-linejoin:round;stroke-dasharray:none;stroke-opacity:1;paint-order:fill markers stroke"
         id="rect15"
         width="9.8004999"
         height="4.3911333"
         x="9.4186621"
         y="575.81116" />
    </clipPath>
    <clipPath
       clipPathUnits="userSpaceOnUse"
       id="clipPath15">
      <rect
         style="fill:none;fill-rule:evenodd;stroke:#000000;stroke-width:0.7;stroke-linecap:round;stroke-linejoin:round;stroke-dasharray:none;stroke-opacity:1;paint-order:fill markers stroke"
         id="rect16"
         width="8.5913467"
         height="5.1548085"
         x="31.247049"
         y="575.42932" />
    </clipPath>
    <clipPath
       clipPathUnits="userSpaceOnUse"
       id="clipPath27">
      <rect
         style="fill:none;fill-rule:evenodd;stroke:#000000;stroke-width:0.7;stroke-linecap:round;stroke-linejoin:round;stroke-dasharray:none;stroke-opacity:1;paint-order:fill markers stroke"
         id="rect27"
         width="11.773328"
         height="4.3911333"
         x="-33.665356"
         y="625.06824" />
    </clipPath>
    <clipPath
       clipPathUnits="userSpaceOnUse"
       id="clipPath28">
      <rect
         style="fill:none;fill-rule:evenodd;stroke:#000000;stroke-width:0.7;stroke-linecap:round;stroke-linejoin:round;stroke-dasharray:none;stroke-opacity:1;paint-order:fill markers stroke"
         id="rect28"
         width="10.755094"
         height="4.5820518"
         x="-12.282444"
         y="624.87738" />
    </clipPath>
    <clipPath
       clipPathUnits="userSpaceOnUse"
       id="clipPath29">
      <rect
         style="fill:none;fill-rule:evenodd;stroke:#000000;stroke-width:0.7;stroke-linecap:round;stroke-linejoin:round;stroke-dasharray:none;stroke-opacity:1;paint-order:fill markers stroke"
         id="rect29"
         width="9.8641396"
         height="4.2002139"
         x="7.8913116"
         y="625.19556" />
    </clipPath>
    <clipPath
       clipPathUnits="userSpaceOnUse"
       id="clipPath30">
      <rect
         style="fill:none;fill-rule:evenodd;stroke:#000000;stroke-width:0.7;stroke-linecap:round;stroke-linejoin:round;stroke-dasharray:none;stroke-opacity:1;paint-order:fill markers stroke"
         id="rect30"
         width="9.0368242"
         height="4.3274927"
         x="30.292456"
         y="625.06824" />
    </clipPath>
  </defs>
  <g
     inkscape:label="Lag 1"
     inkscape:groupmode="layer"
     id="layer1"
     transform="translate(64.293748,-559.05986)">
    <path
       d="m -45.508331,586.09627 c 0.565415,-4.4667 3.92139,-9.04664 8.228806,-8.24627 4.697677,0.95303 13.131535,-0.002 19.867033,0 6.735233,0.002 12.3973167,-0.75195 16.81030209,0 4.41298541,0.75194 9.89012491,-0.0934 17.57441891,0 7.684558,0.0934 11.908366,1.07579 22.159383,0 4.21587,-0.11245 9.009591,3.34486 8.228806,8.24627 0.737129,3.96928 0.121179,13.44877 0,16.82221 -0.121179,3.37343 -0.537104,12.88335 0,16.16233 -1.078971,4.60852 -3.792538,8.50662 -8.228806,8.24627 -4.871773,0.78343 -14.310783,-0.60431 -19.102917,0 -4.791868,0.60431 -11.7133684,-0.16642 -19.86676825,0 -8.15339985,0.16642 -13.59746675,0.69639 -19.10265175,0 -5.505185,-0.69638 -11.7856,0.41487 -18.3388,0 -4.678627,-0.8763 -8.666956,-2.87549 -8.228806,-8.24627 -0.163513,-3.47318 -0.693473,-11.5697 0,-15.83266 0.693473,-4.26271 0.04048,-10.75373 0,-17.15188 z"
       fill="#404040"
       fill-rule="evenodd"
       id="path1-8"
       style="stroke-width:0.264583" />
    <path
       d="m -45.508331,586.09627 c -0.622565,-5.45201 4.012671,-9.09135 8.228806,-8.24627 6.334654,-0.0132 12.195969,-0.97102 19.867033,0 7.6708001,0.97102 9.7768834,0.78581 16.81030209,0 7.03341871,-0.78581 11.13948691,-0.69718 18.33853491,0 7.199313,0.69718 12.6873,0.74771 21.395267,0 4.610893,0.97181 8.076141,3.52372 8.228806,8.24627 0.46011,6.01742 0.576791,8.21637 0,15.50273 -0.576792,7.28636 0.305858,13.24663 0,17.48181 0.213519,4.75483 -3.21654,8.04413 -8.228806,8.24627 -6.187811,-0.32993 -10.623021,-0.68315 -17.574683,0 -6.951398,0.68316 -11.9107482,0.47149 -18.3385356,0 -6.4277874,-0.47149 -10.9423728,-0.88794 -19.8667684,0 -8.92466,0.88794 -10.503429,-0.99192 -20.63115,0 -4.183062,0.64373 -8.452644,-4.78393 -8.228806,-8.24627 -0.405871,-4.71461 0.436827,-12.57088 0,-16.49227 -0.436827,-3.92139 0.02302,-8.39232 0,-16.49227 z"
       stroke="#000000"
       stroke-width="0.529167"
       stroke-miterlimit="8"
       fill="none"
       fill-rule="evenodd"
       id="path2-4" />
    <path
       d="m -28.628708,575.48648 0.477043,0.0212 2.294202,0.0352 c 1.021821,0.0381 2.014009,0.0992 2.917296,0.18706 0.364332,-0.0249 0.712788,0.0624 1.032669,0.22596 l 0.04339,0.0344 0.03757,0.009 c 0.98425,0.41778 1.572683,1.27662 1.706827,2.53445 0.322527,8.05233 0.380735,8.85825 0,16.43618 l -0.0127,0.23177 0.0127,0.24686 c 0.24765,3.44276 -0.155046,6.46245 -0.162719,10.52936 l 0.106362,2.92153 0.05636,0.5916 c 0.520435,4.31642 0.680508,8.43307 0.41275,12.65132 l -0.01323,0.13732 -0.02593,1.19115 c -0.0725,1.13427 -0.19341,2.12567 -0.373591,2.93503 0.198437,1.202 -0.627327,2.21482 -1.697567,2.61884 l -0.935302,0.15426 v -0.0587 h -11.79486 l -0.716757,-0.19738 -0.818885,-0.5977 -0.08705,-0.0571 c -0.513556,-0.46513 -0.847725,-1.08373 -0.872067,-1.86213 0.04445,-3.49039 -0.06006,-6.54553 -0.05344,-11.1887 l 0.04709,-4.64053 -0.04604,-2.61779 c -0.136525,-3.41392 -0.424392,-8.02005 0.05239,-12.51029 l 0.03202,-0.82841 -0.03202,-0.60775 c -0.213254,-2.86358 -0.17092,-5.66208 -0.09631,-8.28013 l 0.01958,-0.69057 -0.116152,-2.69769 c -0.01826,-1.34144 0.02567,-2.61964 0.192881,-3.81026 -0.01032,-0.84032 0.286544,-1.50654 0.790046,-1.97988 l 0.149225,-0.0937 0.01826,-0.0291 c 0.493184,-0.55668 1.137444,-0.88 1.862932,-0.70141 2.328333,-0.25585 3.952875,-0.29025 5.593027,-0.24341 z"
       stroke="#000000"
       stroke-width="0.529167"
       stroke-miterlimit="8"
       fill="#262626"
       fill-rule="evenodd"
       id="path3-1" />
    <text
       fill="#ffffff"
       font-family="Calibri, Calibri_MSFontService, sans-serif"
       font-weight="400"
       font-size="11.3771px"
       id="text3"
       x="-31.290152"
       y="579.17291"
       style="stroke-width:0.264583"
       clip-path="url(#clipPath10)">3</text>
    <text
       fill="#ffffff"
       font-family="Calibri, Calibri_MSFontService, sans-serif"
       font-weight="400"
       font-size="11.3771px"
       id="text4-7"
       x="-31.290152"
       y="592.66669"
       style="stroke-width:0.264583">4</text>
    <text
       fill="#ffffff"
       font-family="Calibri, Calibri_MSFontService, sans-serif"
       font-weight="400"
       font-size="11.3771px"
       id="text5-0"
       x="-31.290152"
       y="606.1604"
       style="stroke-width:0.264583">5</text>
    <text
       fill="#ffffff"
       font-family="Calibri, Calibri_MSFontService, sans-serif"
       font-weight="400"
       font-size="11.3771px"
       id="text6-2"
       x="-31.290152"
       y="619.91876"
       style="stroke-width:0.264583">6</text>
    <text
       fill="#ffffff"
       font-family="Calibri, Calibri_MSFontService, sans-serif"
       font-weight="400"
       font-size="11.3771px"
       id="text7-0"
       x="-31.290152"
       y="633.41248"
       style="stroke-width:0.264583"
       clip-path="url(#clipPath27)">7</text>
    <path
       d="m -11.476829,575.73889 c 1.165225,-0.013 2.7254725,0.0503 4.2857204,0.10213 l 2.9151792,0.0609 2.3886583,-0.12144 c 0.6379104,-0.0942 1.29169577,0.22145 1.79069993,0.73369 l 0.01561042,0.0225 0.0042333,0.003 0.09339792,0.13917 0.49768124,0.72416 c 0.1508125,0.32782 0.2413,0.67787 0.250825,1.02394 -0.10212917,2.92788 0.35559999,7.60174 0.28601459,12.124 l -0.20584584,3.16442 -0.0801688,1.7182 c -0.15478125,1.4404 -0.25479375,2.87814 -0.31167916,4.2807 l -0.0251354,1.86002 -0.001588,0.65907 c 0.0679979,2.24023 0.24897291,4.48681 0.33840208,7.31917 l 0.0399521,2.19657 0.0724958,2.22409 -0.015875,0.86334 0.0558271,3.06281 c 0.006085,2.78342 -0.0386292,5.61896 -0.1524,8.65982 0.20505208,1.13823 -0.64875832,2.24552 -1.64385623,2.58709 l -0.56382715,0.0331 v -0.42096 H -13.469142 v 0.14499 l -0.005,-0.002 c -0.892175,-0.42625 -1.506802,-1.21709 -1.674019,-2.34262 -0.51382,-5.83168 -0.710935,-11.24427 0,-15.5628 l 0.02381,-0.30506 -0.02381,-0.65749 c -0.327025,-3.50811 -0.02196,-8.63812 0.04498,-12.5894 l -0.0056,-0.42148 -0.03942,-1.58936 -0.07064,-2.73394 -0.09075,-1.65311 -0.0508,-2.11879 -0.05583,-1.39461 c -0.100012,-3.17765 -0.11086,-6.55612 0.268023,-9.10617 -0.01032,-0.79772 0.269082,-1.42663 0.74295,-1.87246 l 0.129646,-0.0815 0.02064,-0.0325 c 0.46646,-0.5252 1.077118,-0.82947 1.759214,-0.65987 0.286015,-0.0243 0.630502,-0.0373 1.018911,-0.0415 z"
       stroke="#000000"
       stroke-width="0.529167"
       stroke-miterlimit="8"
       fill="#262626"
       fill-rule="evenodd"
       id="path7" />
    <text
       fill="#ffffff"
       font-family="Calibri, Calibri_MSFontService, sans-serif"
       font-weight="400"
       font-size="11.3771px"
       id="text8-5"
       x="-10.094646"
       y="579.17291"
       style="stroke-width:0.264583"
       clip-path="url(#clipPath13)">2</text>
    <text
       fill="#ffffff"
       font-family="Calibri, Calibri_MSFontService, sans-serif"
       font-weight="400"
       font-size="11.3771px"
       id="text9-9"
       x="-10.094646"
       y="592.66669"
       style="stroke-width:0.264583">3</text>
    <text
       fill="#ffffff"
       font-family="Calibri, Calibri_MSFontService, sans-serif"
       font-weight="400"
       font-size="11.3771px"
       id="text10-6"
       x="-10.094646"
       y="606.1604"
       style="stroke-width:0.264583">4</text>
    <text
       fill="#ffffff"
       font-family="Calibri, Calibri_MSFontService, sans-serif"
       font-weight="400"
       font-size="11.3771px"
       id="text11-9"
       x="-10.094646"
       y="619.91876"
       style="stroke-width:0.264583">5</text>
    <text
       fill="#ffffff"
       font-family="Calibri, Calibri_MSFontService, sans-serif"
       font-weight="400"
       font-size="11.3771px"
       id="text12-1"
       x="-10.094646"
       y="633.41248"
       style="stroke-width:0.264583"
       clip-path="url(#clipPath28)">6</text>
    <path
       d="m 13.31066,575.48648 0.469635,0.0212 2.260336,0.0355 c 1.00621,0.0381 1.983846,0.0995 2.873639,0.18759 0.35904,-0.0249 0.70194,0.0624 1.017059,0.22674 l 0.04286,0.0344 0.03704,0.009 c 0.969433,0.4191 1.549135,1.28058 1.681427,2.54238 0.317764,8.07694 0.374914,8.88524 0,16.48645 l -0.0127,0.23257 0.0127,0.24765 c 0.243946,3.45334 -0.152929,6.48229 -0.160338,10.56164 l 0.104775,2.93052 0.05556,0.5932 c 0.512498,4.32991 0.670189,8.45899 0.4064,12.69021 l -0.01297,0.13785 -0.02566,1.19459 c -0.07144,1.13798 -0.1905,2.13228 -0.367771,2.94402 0.195262,1.20571 -0.618067,2.22197 -1.672431,2.62705 l -0.887942,0.14922 V 629.285 H 8.6037225 v 0.15875 l -0.8027458,-0.0688 c -0.3743855,-0.0349 -0.7180792,-0.13468 -1.026848,-0.28787 l -0.8067145,-0.59955 -0.085725,-0.0574 c -0.5058834,-0.46646 -0.8352896,-1.08691 -0.8591021,-1.86796 0.043921,-3.50097 -0.059002,-6.56563 -0.052652,-11.22283 l 0.046567,-4.65481 -0.045508,-2.62573 c -0.1344084,-3.4245 -0.4180417,-8.04492 0.051594,-12.54866 l 0.031485,-0.83105 -0.031485,-0.6096 c -0.2100792,-2.87258 -0.168275,-5.67928 -0.094985,-8.30554 l 0.019579,-0.69268 -0.1145646,-2.70616 c -0.017992,-1.34514 0.025135,-2.62757 0.1899708,-3.82164 -0.010054,-0.84296 0.2823104,-1.5113 0.7784042,-1.98623 l 0.1468437,-0.0939 0.017992,-0.0291 c 0.4860396,-0.55853 1.1205104,-0.88265 1.83515,-0.70352 2.2936728,-0.25665 3.8938728,-0.29105 5.5096828,-0.24421 z"
       stroke="#000000"
       stroke-width="0.529167"
       stroke-miterlimit="8"
       fill="#262626"
       fill-rule="evenodd"
       id="path12" />
    <text
       fill="#ffffff"
       font-family="Calibri, Calibri_MSFontService, sans-serif"
       font-weight="400"
       font-size="11.3771px"
       id="text13-2"
       x="10.612704"
       y="579.17291"
       style="stroke-width:0.264583"
       clip-path="url(#clipPath14)">5</text>
    <text
       fill="#ffffff"
       font-family="Calibri, Calibri_MSFontService, sans-serif"
       font-weight="400"
       font-size="11.3771px"
       id="text14-8"
       x="10.612704"
       y="592.66669"
       style="stroke-width:0.264583">6</text>
    <text
       fill="#ffffff"
       font-family="Calibri, Calibri_MSFontService, sans-serif"
       font-weight="400"
       font-size="11.3771px"
       id="text15-8"
       x="10.612704"
       y="606.1604"
       style="stroke-width:0.264583">7</text>
    <text
       fill="#ffffff"
       font-family="Calibri, Calibri_MSFontService, sans-serif"
       font-weight="400"
       font-size="11.3771px"
       id="text16-6"
       x="10.612704"
       y="619.91876"
       style="stroke-width:0.264583">8</text>
    <text
       fill="#ffffff"
       font-family="Calibri, Calibri_MSFontService, sans-serif"
       font-weight="400"
       font-size="11.3771px"
       id="text17-0"
       x="10.612704"
       y="633.41248"
       style="stroke-width:0.264583"
       clip-path="url(#clipPath29)">9</text>
    <path
       d="m 29.820395,575.76244 v 0.018 h 3.050117 l 1.870604,0.0611 2.953808,0.0608 2.420408,-0.12171 c 0.646378,-0.0945 1.30863,0.22225 1.814248,0.73607 l 0.01588,0.0228 0.0042,0.003 0.09446,0.1397 0.50456,0.72681 c 0.152665,0.32861 0.244475,0.68024 0.254,1.02738 -0.0069,2.89798 0.40984,7.5012 0.308505,12.07902 l -0.235215,3.4335 -0.07329,1.55469 c -0.156898,1.44568 -0.257968,2.88845 -0.315912,4.29604 l -0.02593,1.91346 -0.0016,0.68607 c 0.06906,2.22435 0.252677,4.43124 0.343429,7.27339 l 0.03281,1.77827 0.107156,2.65218 -0.01905,2.13228 0.0336,1.81398 c 0.0061,2.79347 -0.03916,5.63907 -0.154517,8.69051 0.277019,1.5232 -1.353343,2.99111 -2.687373,2.65588 l -0.385762,10e-4 v -0.0913 H 29.074006 l -0.698765,-0.21485 c -0.904081,-0.42783 -1.52691,-1.22158 -1.696244,-2.35108 -0.563827,-5.70707 -0.725223,-11.19135 0,-15.61809 l 0.0087,-0.10901 -0.0087,-0.85699 c -0.14261,-2.38707 -0.04551,-5.49883 0.03863,-8.47063 l 0.05371,-2.67467 -0.0087,-0.21035 c -0.05451,-1.2827 -0.09446,-2.42014 -0.08361,-3.29644 l -0.06085,-2.33707 -0.181504,-2.63842 c -0.06191,-1.38245 -0.102129,-2.91703 -0.112977,-4.43839 l 0.04233,-2.83818 -0.0048,-0.48181 0.01482,-0.20188 0.01244,-0.83872 c 0.05662,-1.33059 0.150812,-2.48312 0.290512,-3.29274 -0.01032,-0.80037 0.272786,-1.43166 0.75274,-1.87908 l 0.131498,-0.0817 0.0209,-0.0326 c 0.472546,-0.52731 1.091406,-0.83264 1.782233,-0.66225 z"
       stroke="#000000"
       stroke-width="0.529167"
       stroke-miterlimit="8"
       fill="#262626"
       fill-rule="evenodd"
       id="path17" />
    <text
       fill="#ffffff"
       font-family="Calibri, Calibri_MSFontService, sans-serif"
       font-weight="400"
       font-size="11.3771px"
       id="text18-5"
       x="31.813236"
       y="579.17291"
       style="stroke-width:0.264583"
       clip-path="url(#clipPath15)">7</text>
    <text
       fill="#ffffff"
       font-family="Calibri, Calibri_MSFontService, sans-serif"
       font-weight="400"
       font-size="11.3771px"
       id="text19-1"
       x="31.813236"
       y="592.66669"
       style="stroke-width:0.264583">8</text>
    <text
       fill="#ffffff"
       font-family="Calibri, Calibri_MSFontService, sans-serif"
       font-weight="400"
       font-size="11.3771px"
       id="text20-2"
       x="31.813236"
       y="606.1604"
       style="stroke-width:0.264583">9</text>
    <text
       fill="#ffffff"
       font-family="Calibri, Calibri_MSFontService, sans-serif"
       font-weight="400"
       font-size="11.3771px"
       id="text21-7"
       x="31.813236"
       y="619.91876"
       style="stroke-width:0.264583">0</text>
    <text
       fill="#ffffff"
       font-family="Calibri, Calibri_MSFontService, sans-serif"
       font-weight="400"
       font-size="11.3771px"
       id="text22-9"
       x="31.813236"
       y="633.41248"
       style="stroke-width:0.264583"
       clip-path="url(#clipPath30)">1</text>
    <path
       d="m 26.722918,597.95833 c 0.0418,-1.16231 0.966523,-2.22832 2.08571,-2.11666 3.031861,0.1262 7.787482,-0.004 11.703579,0 1.074473,-0.0786 1.97485,1.18162 2.085711,2.11666 0.02381,3.83302 -0.02408,6.18966 0,8.46667 -0.109538,1.13109 -0.731573,2.02565 -2.085711,2.11667 -3.303852,0.37094 -8.701881,-0.47334 -11.703579,0 -1.03452,0.20002 -2.166408,-1.10305 -2.08571,-2.11667 0.259027,-1.83727 0.155575,-6.4225 0,-8.46667 z"
       stroke="#000000"
       stroke-width="0.529167"
       stroke-miterlimit="8"
       fill="none"
       fill-rule="evenodd"
       id="path22" />
    <path
       d="m 5.2916683,597.95833 c 0.042598,-1.16231 0.9826625,-2.22832 2.1203709,-2.11666 3.0823958,0.1262 7.9173918,-0.004 11.8988418,0 1.0922,-0.0786 2.007658,1.18162 2.12037,2.11666 0.02408,3.83302 -0.02461,6.18966 0,8.46667 -0.111389,1.13109 -0.744008,2.02565 -2.12037,2.11667 -3.358886,0.37094 -8.846873,-0.47334 -11.8988418,0 -1.0514542,0.20002 -2.2023917,-1.10305 -2.1203709,-2.11667 0.263525,-1.83727 0.1582209,-6.4225 0,-8.46667 z"
       stroke="#000000"
       stroke-width="0.529167"
       stroke-miterlimit="8"
       fill="none"
       fill-rule="evenodd"
       id="path23-6" />
    <path
       d="m -15.081248,597.95833 c 0.0418,-1.16231 0.966523,-2.22832 2.08571,-2.11666 3.0318607,0.1262 7.7874815,-0.004 11.7035793,0 1.07447295,-0.0786 1.97485002,1.18162 2.08571044,2.11666 0.0238125,3.83302 -0.0240771,6.18966 0,8.46667 -0.1095375,1.13109 -0.73157291,2.02565 -2.08571044,2.11667 -3.303852,0.37094 -8.7018811,-0.47334 -11.7035793,0 -1.03452,0.20002 -2.166408,-1.10305 -2.08571,-2.11667 0.259027,-1.83727 0.155575,-6.4225 0,-8.46667 z"
       stroke="#000000"
       stroke-width="0.529167"
       stroke-miterlimit="8"
       fill="none"
       fill-rule="evenodd"
       id="path24-4" />
    <path
       d="m -36.512498,597.95833 c 0.0418,-1.16231 0.966523,-2.22832 2.085711,-2.11666 3.03186,0.1262 7.787481,-0.004 11.703579,0 1.074473,-0.0786 1.97485,1.18162 2.08571,2.11666 0.02381,3.83302 -0.02408,6.18966 0,8.46667 -0.109537,1.13109 -0.731573,2.02565 -2.08571,2.11667 -3.303852,0.37094 -8.701882,-0.47334 -11.703579,0 -1.034521,0.20002 -2.166409,-1.10305 -2.085711,-2.11667 0.259027,-1.83727 0.155575,-6.4225 0,-8.46667 z"
       stroke="#000000"
       stroke-width="0.529167"
       stroke-miterlimit="8"
       fill="none"
       fill-rule="evenodd"
       id="path25-9" />
    <path
       d="m 26.722918,583.84731 c 0.201083,-1.08876 0.927629,-2.13995 1.999456,-2.02856 4.659048,0.0595 7.665773,-0.50059 11.876088,0 0.945091,-0.1614 1.902883,1.11178 1.999456,2.02856 -0.135202,2.25954 0.353219,5.11889 0,8.11371 -0.09551,1.08717 -0.834761,2.00131 -1.999456,2.02856 -3.24485,0.20029 -9.434248,0.57335 -11.876088,0 -1.078441,0.0442 -2.098675,-1.09881 -1.999456,-2.02856 -0.195527,-1.7608 0.137054,-4.29075 0,-8.11371 z"
       stroke="#000000"
       stroke-width="0.529167"
       stroke-miterlimit="8"
       fill="none"
       fill-rule="evenodd"
       id="path26-5" />
    <path
       d="m 5.2916683,583.84731 c 0.2010834,-1.08876 0.9276292,-2.13995 1.9994563,-2.02856 4.6590474,0.0595 7.6657724,-0.50059 11.8760874,0 0.945092,-0.1614 1.902883,1.11178 1.999456,2.02856 -0.135202,2.25954 0.353219,5.11889 0,8.11371 -0.09551,1.08717 -0.83476,2.00131 -1.999456,2.02856 -3.24485,0.20029 -9.4342479,0.57335 -11.8760874,0 -1.0784417,0.0442 -2.098675,-1.09881 -1.9994563,-2.02856 -0.195527,-1.7608 0.1370542,-4.29075 0,-8.11371 z"
       stroke="#000000"
       stroke-width="0.529167"
       stroke-miterlimit="8"
       fill="none"
       fill-rule="evenodd"
       id="path27-3" />
    <path
       d="m -15.081248,583.84731 c 0.201083,-1.08876 0.927629,-2.13995 1.999456,-2.02856 4.659048,0.0595 7.665773,-0.50059 11.8760875,0 0.94509167,-0.1614 1.90288332,1.11178 1.99945624,2.02856 -0.13520208,2.25954 0.35321876,5.11889 0,8.11371 -0.0955146,1.08717 -0.83476041,2.00131 -1.99945624,2.02856 -3.2448499,0.20029 -9.4342475,0.57335 -11.8760875,0 -1.078441,0.0442 -2.098675,-1.09881 -1.999456,-2.02856 -0.195527,-1.7608 0.137054,-4.29075 0,-8.11371 z"
       stroke="#000000"
       stroke-width="0.529167"
       stroke-miterlimit="8"
       fill="none"
       fill-rule="evenodd"
       id="path28-9" />
    <path
       d="m -36.512498,583.84731 c 0.201084,-1.08876 0.927629,-2.13995 1.999456,-2.02856 4.659048,0.0595 7.665773,-0.50059 11.876088,0 0.945091,-0.1614 1.902883,1.11178 1.999456,2.02856 -0.135202,2.25954 0.353219,5.11889 0,8.11371 -0.09551,1.08717 -0.83476,2.00131 -1.999456,2.02856 -3.24485,0.20029 -9.434248,0.57335 -11.876088,0 -1.078441,0.0442 -2.098675,-1.09881 -1.999456,-2.02856 -0.195527,-1.7608 0.137054,-4.29075 0,-8.11371 z"
       stroke="#000000"
       stroke-width="0.529167"
       stroke-miterlimit="8"
       fill="none"
       fill-rule="evenodd"
       id="path29-9" />
    <path
       d="m 26.722918,612.42231 c 0.201083,-1.08876 0.927629,-2.13995 1.999456,-2.02856 4.659048,0.0595 7.665773,-0.50059 11.876088,0 0.945091,-0.1614 1.902883,1.11178 1.999456,2.02856 -0.135202,2.25954 0.353219,5.11889 0,8.11371 -0.09551,1.08717 -0.834761,2.00131 -1.999456,2.02856 -3.24485,0.20029 -9.434248,0.57335 -11.876088,0 -1.078441,0.0442 -2.098675,-1.09881 -1.999456,-2.02856 -0.195527,-1.7608 0.137054,-4.29075 0,-8.11371 z"
       stroke="#000000"
       stroke-width="0.529167"
       stroke-miterlimit="8"
       fill="none"
       fill-rule="evenodd"
       id="path30-1" />
    <path
       d="m 5.2916683,612.42231 c 0.2010834,-1.08876 0.9276292,-2.13995 1.9994563,-2.02856 4.6590474,0.0595 7.6657724,-0.50059 11.8760874,0 0.945092,-0.1614 1.902883,1.11178 1.999456,2.02856 -0.135202,2.25954 0.353219,5.11889 0,8.11371 -0.09551,1.08717 -0.83476,2.00131 -1.999456,2.02856 -3.24485,0.20029 -9.4342479,0.57335 -11.8760874,0 -1.0784417,0.0442 -2.098675,-1.09881 -1.9994563,-2.02856 -0.195527,-1.7608 0.1370542,-4.29075 0,-8.11371 z"
       stroke="#000000"
       stroke-width="0.529167"
       stroke-miterlimit="8"
       fill="none"
       fill-rule="evenodd"
       id="path31-8" />
    <path
       d="m -15.081248,612.42231 c 0.201083,-1.08876 0.927629,-2.13995 1.999456,-2.02856 4.659048,0.0595 7.665773,-0.50059 11.8760875,0 0.94509167,-0.1614 1.90288332,1.11178 1.99945624,2.02856 -0.13520208,2.25954 0.35321876,5.11889 0,8.11371 -0.0955146,1.08717 -0.83476041,2.00131 -1.99945624,2.02856 -3.2448499,0.20029 -9.4342475,0.57335 -11.8760875,0 -1.078441,0.0442 -2.098675,-1.09881 -1.999456,-2.02856 -0.195527,-1.7608 0.137054,-4.29075 0,-8.11371 z"
       stroke="#000000"
       stroke-width="0.529167"
       stroke-miterlimit="8"
       fill="none"
       fill-rule="evenodd"
       id="path32-0" />
    <path
       d="m -36.512498,612.42231 c 0.201084,-1.08876 0.927629,-2.13995 1.999456,-2.02856 4.659048,0.0595 7.665773,-0.50059 11.876088,0 0.945091,-0.1614 1.902883,1.11178 1.999456,2.02856 -0.135202,2.25954 0.353219,5.11889 0,8.11371 -0.09551,1.08717 -0.83476,2.00131 -1.999456,2.02856 -3.24485,0.20029 -9.434248,0.57335 -11.876088,0 -1.078441,0.0442 -2.098675,-1.09881 -1.999456,-2.02856 -0.195527,-1.7608 0.137054,-4.29075 0,-8.11371 z"
       stroke="#000000"
       stroke-width="0.529167"
       stroke-miterlimit="8"
       fill="none"
       fill-rule="evenodd"
       id="path33-3" />
    <path
       d="m 27.781251,576.4829 c 0.07805,-0.40191 0.345017,-0.77153 0.75618,-0.74957 4.385997,-0.61145 8.281458,-0.26881 12.510558,0 0.351366,-0.0656 0.737129,0.37465 0.756179,0.74957 0.08202,0.96917 -0.05874,2.01612 0,2.99878 -0.02619,0.40508 -0.310886,0.7374 -0.756179,0.74957 -3.420004,0.29183 -9.314127,0.22304 -12.510558,0 -0.381265,0.0606 -0.794544,-0.40799 -0.75618,-0.74957 -0.149489,-1.01176 -0.08414,-1.91267 0,-2.99878 z"
       stroke="#000000"
       stroke-width="0.529167"
       stroke-miterlimit="8"
       fill="none"
       fill-rule="evenodd"
       id="path34-0" />
    <path
       d="m 6.3500017,576.4829 c 0.078052,-0.40191 0.3450166,-0.77153 0.7561791,-0.74957 4.3859982,-0.61145 8.2814582,-0.26881 12.5105582,0 0.351367,-0.0656 0.737129,0.37465 0.756179,0.74957 0.08202,0.96917 -0.05874,2.01612 0,2.99878 -0.02619,0.40508 -0.310885,0.7374 -0.756179,0.74957 -3.420004,0.29183 -9.314127,0.22304 -12.5105582,0 -0.3812646,0.0606 -0.7945437,-0.40799 -0.7561791,-0.74957 -0.1494896,-1.01176 -0.084137,-1.91267 0,-2.99878 z"
       stroke="#000000"
       stroke-width="0.529167"
       stroke-miterlimit="8"
       fill="none"
       fill-rule="evenodd"
       id="path35-7" />
    <path
       d="m -14.022915,576.4829 c 0.07805,-0.40191 0.345017,-0.77153 0.756179,-0.74957 4.3859983,-0.61145 8.2814586,-0.26881 12.51055859,0 0.35136667,-0.0656 0.73712916,0.37465 0.75617916,0.74957 0.08202083,0.96917 -0.0587375,2.01612 0,2.99878 -0.02619375,0.40508 -0.31088541,0.7374 -0.75617916,0.74957 -3.42000409,0.29183 -9.31412659,0.22304 -12.51055859,0 -0.381264,0.0606 -0.794543,-0.40799 -0.756179,-0.74957 -0.149489,-1.01176 -0.08414,-1.91267 0,-2.99878 z"
       stroke="#000000"
       stroke-width="0.529167"
       stroke-miterlimit="8"
       fill="none"
       fill-rule="evenodd"
       id="path36-7" />
    <path
       d="m -35.454164,576.4829 c 0.07805,-0.40191 0.345016,-0.77153 0.756179,-0.74957 4.385998,-0.61145 8.281458,-0.26881 12.510558,0 0.351367,-0.0656 0.737129,0.37465 0.756179,0.74957 0.08202,0.96917 -0.05874,2.01612 0,2.99878 -0.02619,0.40508 -0.310885,0.7374 -0.756179,0.74957 -3.420004,0.29183 -9.314127,0.22304 -12.510558,0 -0.381265,0.0606 -0.794544,-0.40799 -0.756179,-0.74957 -0.14949,-1.01176 -0.08414,-1.91267 0,-2.99878 z"
       stroke="#000000"
       stroke-width="0.529167"
       stroke-miterlimit="8"
       fill="none"
       fill-rule="evenodd"
       id="path37-8" />
    <path
       d="m 27.781251,625.43081 c 0.07805,-0.4019 0.345017,-0.77152 0.75618,-0.74956 4.385997,-0.61145 8.281458,-0.26882 12.510558,0 0.351366,-0.0656 0.737129,0.37465 0.756179,0.74956 0.08202,0.96917 -0.05874,2.01613 0,2.99879 -0.02619,0.40508 -0.310886,0.73739 -0.756179,0.74957 -3.420004,0.29183 -9.314127,0.22304 -12.510558,0 -0.381265,0.0606 -0.794544,-0.40799 -0.75618,-0.74957 -0.149489,-1.01177 -0.08414,-1.91267 0,-2.99879 z"
       stroke="#000000"
       stroke-width="0.529167"
       stroke-miterlimit="8"
       fill="none"
       fill-rule="evenodd"
       id="path38-4" />
    <path
       d="m 6.3500017,625.43081 c 0.078052,-0.4019 0.3450166,-0.77152 0.7561791,-0.74956 4.3859982,-0.61145 8.2814582,-0.26882 12.5105582,0 0.351367,-0.0656 0.737129,0.37465 0.756179,0.74956 0.08202,0.96917 -0.05874,2.01613 0,2.99879 -0.02619,0.40508 -0.310885,0.73739 -0.756179,0.74957 -3.420004,0.29183 -9.314127,0.22304 -12.5105582,0 -0.3812646,0.0606 -0.7945437,-0.40799 -0.7561791,-0.74957 -0.1494896,-1.01177 -0.084137,-1.91267 0,-2.99879 z"
       stroke="#000000"
       stroke-width="0.529167"
       stroke-miterlimit="8"
       fill="none"
       fill-rule="evenodd"
       id="path39-8" />
    <path
       d="m -14.287498,625.43081 c 0.07805,-0.4019 0.345017,-0.77152 0.756179,-0.74956 4.3859979,-0.61145 8.2814583,-0.26882 12.5105583,0 0.35136663,-0.0656 0.73712912,0.37465 0.75617912,0.74956 0.0820208,0.96917 -0.0587375,2.01613 0,2.99879 -0.0261938,0.40508 -0.31088541,0.73739 -0.75617912,0.74957 -3.4200042,0.29183 -9.3141273,0.22304 -12.5105583,0 -0.381264,0.0606 -0.794544,-0.40799 -0.756179,-0.74957 -0.14949,-1.01177 -0.08414,-1.91267 0,-2.99879 z"
       stroke="#000000"
       stroke-width="0.529167"
       stroke-miterlimit="8"
       fill="none"
       fill-rule="evenodd"
       id="path40-9" />
    <path
       d="m -35.718748,625.43081 c 0.07805,-0.4019 0.345017,-0.77152 0.756179,-0.74956 4.385998,-0.61145 8.281459,-0.26882 12.510559,0 0.351366,-0.0656 0.737129,0.37465 0.756179,0.74956 0.08202,0.96917 -0.05874,2.01613 0,2.99879 -0.02619,0.40508 -0.310886,0.73739 -0.756179,0.74957 -3.420005,0.29183 -9.314127,0.22304 -12.510559,0 -0.381264,0.0606 -0.794543,-0.40799 -0.756179,-0.74957 -0.149489,-1.01177 -0.08414,-1.91267 0,-2.99879 z"
       stroke="#000000"
       stroke-width="0.529167"
       stroke-miterlimit="8"
       fill="none"
       fill-rule="evenodd"
       id="path41-9" />
    <path
       d="m -45.508331,599.28125 c 2.884223,1.7317 3.032125,2.13757 5.55625,3.90789 -1.97485,1.30493 -3.883025,2.95619 -5.55625,4.02961 -0.01614,-3.77746 -0.04524,-4.69133 0,-7.9375 z"
       fill="#262626"
       fill-rule="evenodd"
       id="path42-4"
       style="stroke-width:0.264583" />
    <path
       d="m -45.508331,599.28125 c 1.932781,1.47002 4.198673,2.57016 5.55625,3.90789 -2.613554,1.67058 -3.341423,2.48762 -5.55625,4.02961 0.285221,-3.36021 0.112712,-5.43454 0,-7.9375 z"
       stroke="#000000"
       stroke-width="0.529167"
       stroke-miterlimit="8"
       fill="none"
       fill-rule="evenodd"
       id="path43-5" />
    <path
       d="m -61.912497,576.79193 c -1.314186,-7.52528 5.35252,-11.60436 12.195174,-12.1711 3.548327,-0.0267 10.135129,1.55919 13.553281,0 3.418152,-1.55919 12.820915,0.91652 18.511838,0 5.690658,-0.91651 11.2564329,1.35414 18.51157241,0 7.25513949,-1.35413 10.42246659,0.62389 16.52825559,0 6.106055,-0.62388 22.527948,0.91705 32.065119,0 5.830358,0.18997 11.243733,7.10592 12.195175,12.1711 1.3208,5.20859 -1.720057,12.74789 0,16.22769 1.720056,3.4798 -1.297252,12.0433 0,16.22742 1.297252,4.18413 -0.209815,12.11342 0,16.22769 -0.325438,5.36681 -4.546865,10.69023 -12.195175,12.1711 -4.095486,1.22079 -8.625152,-1.49648 -13.553281,0 -4.928129,1.49648 -12.117917,-0.37862 -16.528256,0 -4.41034,0.37862 -14.3491481,-1.96612 -18.51183759,0 -4.16268951,1.96612 -10.44469151,-1.13691 -13.55328141,0 -3.108325,1.13692 -10.152062,-0.99139 -13.553281,0 -3.400954,0.9914 -11.889316,-0.98742 -23.470129,0 -7.590102,-0.0497 -12.857956,-4.84134 -12.195174,-12.1711 -1.151996,-4.10474 0.254,-8.33543 0,-15.74085 -0.254,-7.40516 0.856191,-8.63574 0,-16.22743 -0.856192,-7.59195 1.330589,-11.65966 0,-16.71452 z"
       stroke="#000000"
       stroke-width="0.529167"
       stroke-miterlimit="8"
       fill="none"
       fill-rule="evenodd"
       id="path44-1" />
    <path
       d="m -64.029164,568.19271 c -0.215636,-5.53191 4.797689,-8.41216 8.863541,-8.86354 4.815417,-0.41937 8.212932,3.93964 8.863542,8.86354 -0.501121,5.7269 -4.052094,8.98075 -8.863542,8.86354 -4.775993,-1.25651 -8.764587,-3.53087 -8.863541,-8.86354 z"
       fill="#ffffff"
       fill-rule="evenodd"
       id="path45-5"
       style="stroke-width:0.264583" />
    <path
       d="m -64.029164,568.19271 c 0.0029,-5.18478 4.275402,-7.53428 8.863541,-8.86354 3.509698,0.4392 8.813271,3.80973 8.863542,8.86354 -0.597165,4.84743 -2.671498,9.20644 -8.863542,8.86354 -5.205147,0.71781 -8.750564,-3.64437 -8.863541,-8.86354 z"
       stroke="#000000"
       stroke-width="0.529167"
       stroke-miterlimit="8"
       fill="none"
       fill-rule="evenodd"
       id="path46-9" />
    <text
       font-family="Calibri, Calibri_MSFontService, sans-serif"
       font-weight="400"
       font-size="8.46667px"
       id="text46"
       x="-57.288376"
       y="570.97083"
       style="stroke-width:0.264583">4</text>
  </g>
</svg>
