<?xml version="1.0" encoding="UTF-8" standalone="no"?>
<!-- Created with Inkscape (http://www.inkscape.org/) -->

<svg
   width="301.31107mm"
   height="21.418776mm"
   viewBox="0 0 301.31107 21.418776"
   version="1.1"
   id="svg1"
   xmlns:inkscape="http://www.inkscape.org/namespaces/inkscape"
   xmlns:sodipodi="http://sodipodi.sourceforge.net/DTD/sodipodi-0.dtd"
   xmlns="http://www.w3.org/2000/svg"
   xmlns:svg="http://www.w3.org/2000/svg">
  <sodipodi:namedview
     id="namedview1"
     pagecolor="#505050"
     bordercolor="#ffffff"
     borderopacity="1"
     inkscape:showpageshadow="0"
     inkscape:pageopacity="0"
     inkscape:pagecheckerboard="1"
     inkscape:deskcolor="#d1d1d1"
     inkscape:document-units="mm" />
  <defs
     id="defs1" />
  <g
     inkscape:label="Lag 1"
     inkscape:groupmode="layer"
     id="layer1"
     transform="translate(11.171541,-46.670809)">
    <g
       transform="matrix(0.26458333,0,0,0.26458333,-39.952083,32.808334)"
       id="g12">
      <path
         d="m 111,55 c 16.921,-1.2235 22.243,2.5959 39,0 16.757,-2.5959 19.524,4.1367 36,0 0.079,13.661 -2.36,25.5622 0,36 2.36,10.438 -3.55,21.319 0,39 -18.487,3.503 -24.918,-1.036 -37.5,0 -12.582,1.036 -29.234,-4.113 -37.5,0 -0.188,-10.091 0.597,-24.048 0,-38.25 -0.597,-14.2022 1.953,-19.6126 0,-36.75 z"
         stroke="#a6caec"
         stroke-width="4"
         stroke-miterlimit="8"
         fill="none"
         fill-rule="evenodd"
         id="path1" />
      <path
         d="m 206,55 c 16.921,-1.2235 22.243,2.5959 39,0 16.757,-2.5959 19.524,4.1367 36,0 0.079,13.661 -2.36,25.5622 0,36 2.36,10.438 -3.55,21.319 0,39 -18.487,3.503 -24.918,-1.036 -37.5,0 -12.582,1.036 -29.234,-4.113 -37.5,0 -0.188,-10.091 0.597,-24.048 0,-38.25 -0.597,-14.2022 1.953,-19.6126 0,-36.75 z"
         stroke="#a6caec"
         stroke-width="4"
         stroke-miterlimit="8"
         fill="none"
         fill-rule="evenodd"
         id="path2" />
      <path
         d="m 337,55 c 17.146,-1.2235 22.54,2.5959 39.52,0 16.98,-2.5959 19.784,4.1367 36.48,0 0.08,13.661 -2.391,25.5622 0,36 2.391,10.438 -3.597,21.319 0,39 -18.733,3.503 -25.25,-1.036 -38,0 -12.75,1.036 -29.624,-4.113 -38,0 -0.191,-10.091 0.605,-24.048 0,-38.25 -0.605,-14.2022 1.979,-19.6126 0,-36.75 z"
         stroke="#a6caec"
         stroke-width="4"
         stroke-miterlimit="8"
         fill="none"
         fill-rule="evenodd"
         id="path3" />
      <path
         d="m 432,55 c 16.921,-1.2235 22.243,2.5959 39,0 16.757,-2.5959 19.524,4.1367 36,0 0.079,13.661 -2.36,25.5622 0,36 2.36,10.438 -3.55,21.319 0,39 -18.487,3.503 -24.918,-1.036 -37.5,0 -12.582,1.036 -29.234,-4.113 -37.5,0 -0.188,-10.091 0.597,-24.048 0,-38.25 -0.597,-14.2022 1.953,-19.6126 0,-36.75 z"
         stroke="#a6caec"
         stroke-width="4"
         stroke-miterlimit="8"
         fill="none"
         fill-rule="evenodd"
         id="path4" />
      <path
         d="m 716,55 c 16.921,-1.2235 22.243,2.5959 39,0 16.757,-2.5959 19.524,4.1367 36,0 0.079,13.661 -2.36,25.5622 0,36 2.36,10.438 -3.55,21.319 0,39 -18.487,3.503 -24.918,-1.036 -37.5,0 -12.582,1.036 -29.234,-4.113 -37.5,0 -0.188,-10.091 0.597,-24.048 0,-38.25 -0.597,-14.2022 1.953,-19.6126 0,-36.75 z"
         stroke="#a6caec"
         stroke-width="4"
         stroke-miterlimit="8"
         fill="none"
         fill-rule="evenodd"
         id="path5" />
      <path
         d="m 811,55 c 16.921,-1.2235 22.243,2.5959 39,0 16.757,-2.5959 19.524,4.1367 36,0 0.079,13.661 -2.36,25.5622 0,36 2.36,10.438 -3.55,21.319 0,39 -18.487,3.503 -24.918,-1.036 -37.5,0 -12.582,1.036 -29.234,-4.113 -37.5,0 -0.188,-10.091 0.597,-24.048 0,-38.25 -0.597,-14.2022 1.953,-19.6126 0,-36.75 z"
         stroke="#a6caec"
         stroke-width="4"
         stroke-miterlimit="8"
         fill="none"
         fill-rule="evenodd"
         id="path6" />
      <path
         d="m 942,55 c 16.921,-1.2235 22.243,2.5959 39,0 16.757,-2.5959 19.52,4.1367 36,0 0.08,13.661 -2.36,25.5622 0,36 2.36,10.438 -3.55,21.319 0,39 -18.487,3.503 -24.918,-1.036 -37.5,0 -12.582,1.036 -29.234,-4.113 -37.5,0 -0.188,-10.091 0.597,-24.048 0,-38.25 -0.597,-14.2022 1.953,-19.6126 0,-36.75 z"
         stroke="#a6caec"
         stroke-width="4"
         stroke-miterlimit="8"
         fill="none"
         fill-rule="evenodd"
         id="path7" />
      <path
         d="m 1037,55 c 16.92,-1.2235 22.24,2.5959 39,0 16.76,-2.5959 19.52,4.1367 36,0 0.08,13.661 -2.36,25.5622 0,36 2.36,10.438 -3.55,21.319 0,39 -18.49,3.503 -24.92,-1.036 -37.5,0 -12.58,1.036 -29.23,-4.113 -37.5,0 -0.19,-10.091 0.6,-24.048 0,-38.25 -0.6,-14.2022 1.95,-19.6126 0,-36.75 z"
         stroke="#a6caec"
         stroke-width="4"
         stroke-miterlimit="8"
         fill="none"
         fill-rule="evenodd"
         id="path8" />
      <path
         d="m 1169,55 c 17.15,-1.2235 22.54,2.5959 39.52,0 16.98,-2.5959 19.78,4.1367 36.48,0 0.08,13.661 -2.39,25.5622 0,36 2.39,10.438 -3.6,21.319 0,39 -18.73,3.503 -25.25,-1.036 -38,0 -12.75,1.036 -29.62,-4.113 -38,0 -0.19,-10.091 0.61,-24.048 0,-38.25 -0.61,-14.2022 1.98,-19.6126 0,-36.75 z"
         stroke="#f2aa84"
         stroke-width="4"
         stroke-miterlimit="8"
         fill="none"
         fill-rule="evenodd"
         id="path9" />
      <path
         d="m 559,91.5 c 0,-1.3807 1.119,-2.5 2.5,-2.5 1.381,0 2.5,1.1193 2.5,2.5 0,1.3807 -1.119,2.5 -2.5,2.5 -1.381,0 -2.5,-1.1193 -2.5,-2.5 z"
         stroke="#042433"
         stroke-width="2"
         stroke-miterlimit="8"
         fill="#156082"
         fill-rule="evenodd"
         id="path10" />
      <path
         d="m 620,91.5 c 0,-1.3807 1.119,-2.5 2.5,-2.5 1.381,0 2.5,1.1193 2.5,2.5 0,1.3807 -1.119,2.5 -2.5,2.5 -1.381,0 -2.5,-1.1193 -2.5,-2.5 z"
         stroke="#042433"
         stroke-width="2"
         stroke-miterlimit="8"
         fill="#156082"
         fill-rule="evenodd"
         id="path11" />
      <path
         d="m 680,91.5 c 0,-1.3807 1.119,-2.5 2.5,-2.5 1.381,0 2.5,1.1193 2.5,2.5 0,1.3807 -1.119,2.5 -2.5,2.5 -1.381,0 -2.5,-1.1193 -2.5,-2.5 z"
         stroke="#042433"
         stroke-width="2"
         stroke-miterlimit="8"
         fill="#156082"
         fill-rule="evenodd"
         id="path12" />
    </g>
  </g>
</svg>
