<?xml version="1.0" encoding="UTF-8" standalone="no"?>
<!-- Created with Inkscape (http://www.inkscape.org/) -->

<svg
   width="219.37193mm"
   height="67.988602mm"
   viewBox="0 0 219.37193 67.988602"
   version="1.1"
   id="svg1"
   xmlns:inkscape="http://www.inkscape.org/namespaces/inkscape"
   xmlns:sodipodi="http://sodipodi.sourceforge.net/DTD/sodipodi-0.dtd"
   xmlns="http://www.w3.org/2000/svg"
   xmlns:svg="http://www.w3.org/2000/svg">
  <sodipodi:namedview
     id="namedview1"
     pagecolor="#505050"
     bordercolor="#ffffff"
     borderopacity="1"
     inkscape:showpageshadow="0"
     inkscape:pageopacity="0"
     inkscape:pagecheckerboard="1"
     inkscape:deskcolor="#d1d1d1"
     inkscape:document-units="mm"
     inkscape:export-bgcolor="#ffffff00" />
  <defs
     id="defs1" />
  <g
     inkscape:label="Lag 1"
     inkscape:groupmode="layer"
     id="layer1"
     transform="translate(98.186251,-150.19592)">
    <path
       d="m -17.827359,217.66212 c 3.552031,-2.59688 6.952986,-8.89873 13.0222626,-14.73358 6.0690124,-5.83486 10.3769582,-11.43053 13.0219978,-14.73359 2.6450396,-3.30306 6.1608226,-7.48083 12.4301246,-14.06419 6.269567,-6.5831 9.4488,-12.90453 20.71714,-23.4397"
       stroke="#000000"
       stroke-width="0.529167"
       stroke-miterlimit="8"
       stroke-dasharray="8, 6"
       fill="none"
       fill-rule="evenodd"
       id="path1-7"
       sodipodi:nodetypes="ccscc" />
    <path
       d="m -97.102081,217.75208 c 8.708496,-4.8133 12.711113,-6.56669 18.660269,-9.03684 5.949156,-2.47015 9.348523,-5.36099 14.513454,-7.02866 5.165196,-1.66767 13.490575,-7.11359 17.278085,-8.36745 3.78751,-1.25386 8.509,-3.34274 14.513719,-7.02865 6.004454,-3.68591 11.916304,-6.47462 20.042451,-9.70624 8.1258837,-3.23162 15.2444982,-6.36111 20.0424523,-9.70624 4.7979537,-3.34513 12.8561037,-6.56061 17.2780847,-8.36745 4.421982,-1.80684 9.701477,-5.18636 15.895638,-7.69805 7.224448,-0.3765 7.870825,0.25188 15.060083,0 7.189258,-0.25188 10.94396,0.0524 15.060083,0 4.115858,-0.0524 8.09281,0.39793 15.060083,0 6.967008,-0.39793 8.251031,-0.41646 14.267389,0 6.0161,0.41645 13.10349,-0.96467 19.81571,0 -6.71407,3.83381 -10.17561,4.0804 -18.66027,9.03684 -8.48466,4.95644 -12.320325,6.53733 -17.278087,8.36745 -4.957763,1.82986 -12.450233,6.79582 -18.660269,9.03684 -6.20977,2.24102 -10.59127,5.95339 -18.660268,9.03685 -8.068998,3.08345 -15.578137,7.36388 -20.042452,9.70624 -4.464314,2.34235 -7.593806,4.26508 -14.513454,7.02865 -6.9199123,2.76358 -8.3796186,4.61248 -14.5137185,7.02866 -6.1338353,2.41617 -10.3391225,4.54898 -15.8956375,7.69805 -4.5593,0.3392 -13.886391,-0.56277 -17.437893,0 -3.551502,0.56277 -8.643938,-0.54292 -14.267392,0 -5.623454,0.54293 -11.687704,-0.51012 -17.437893,0 -5.750454,0.51012 -7.635611,-0.39555 -13.474965,0 -5.839089,0.39555 -11.402218,-0.15584 -16.645202,0 z"
       stroke="#000000"
       stroke-width="0.529167"
       stroke-miterlimit="8"
       fill="none"
       fill-rule="evenodd"
       id="path4-5" />
  </g>
</svg>
