<?xml version="1.0" encoding="UTF-8" standalone="no"?>
<!-- Created with Inkscape (http://www.inkscape.org/) -->

<svg
   width="323.45853mm"
   height="70.929688mm"
   viewBox="0 0 323.45853 70.929688"
   version="1.1"
   id="svg1"
   xmlns:inkscape="http://www.inkscape.org/namespaces/inkscape"
   xmlns:sodipodi="http://sodipodi.sourceforge.net/DTD/sodipodi-0.dtd"
   xmlns="http://www.w3.org/2000/svg"
   xmlns:svg="http://www.w3.org/2000/svg">
  <sodipodi:namedview
     id="namedview1"
     pagecolor="#505050"
     bordercolor="#ffffff"
     borderopacity="1"
     inkscape:showpageshadow="0"
     inkscape:pageopacity="0"
     inkscape:pagecheckerboard="1"
     inkscape:deskcolor="#d1d1d1"
     inkscape:document-units="mm"
     inkscape:export-bgcolor="#ffffff00" />
  <defs
     id="defs1" />
  <g
     inkscape:label="Lag 1"
     inkscape:groupmode="layer"
     id="layer1"
     transform="translate(448.71208,-362.30156)">
    <path
       d="m -268.58235,430.61887 c 26.08635,-0.34385 66.50448,-0.64259 83.90755,-1.30952 7.35323,-8.16837 5.62962,-6.03904 9.4279,-10.61113 5.3798,-6.47582 9.86785,-11.93965 12.51289,-15.24271 2.64504,-3.30306 8.7064,-9.77185 14.97571,-16.35521 6.26956,-6.5831 11.0557,-13.6523 22.32404,-24.18747"
       stroke="#000000"
       stroke-width="0.529167"
       stroke-miterlimit="8"
       stroke-dasharray="8, 6"
       fill="none"
       fill-rule="evenodd"
       id="path1-2"
       sodipodi:nodetypes="ccsscc"
       inkscape:export-filename="path1-2.svg"
       inkscape:export-xdpi="96"
       inkscape:export-ydpi="96" />
    <path
       d="m -268.81667,430.2125 c 8.7085,-4.8133 12.71111,-6.56669 18.66027,-9.03684 5.94915,-2.47015 9.34852,-5.36099 14.51345,-7.02866 5.1652,-1.66767 13.49058,-7.11359 17.27809,-8.36745 3.78751,-1.25386 8.509,-3.34274 14.51372,-7.02865 6.00445,-3.68591 11.9163,-6.47462 20.04245,-9.70624 8.12588,-3.23162 15.2445,-6.36111 20.04245,-9.70624 4.79795,-3.34513 12.8561,-6.56061 17.27808,-8.36745 4.42199,-1.80684 14.93584,-5.48865 21.13,-8.00034"
       stroke="#000000"
       stroke-width="0.529167"
       stroke-miterlimit="8"
       fill="none"
       fill-rule="evenodd"
       id="path3-0"
       sodipodi:nodetypes="csssccssc" />
    <path
       d="m -268.81667,429.94792 c 5.85285,-6.88287 8.71114,-10.14651 12.62221,-14.05731 3.91081,-3.91081 5.94069,-7.65387 10.81881,-12.04913 4.87813,-4.39526 8.07667,-9.62104 12.02108,-13.38792 3.94441,-3.76687 6.63734,-6.39788 10.81882,-12.04912 4.18147,-5.65124 8.70373,-9.0514 13.82421,-15.3961 4.83658,-0.40852 10.25366,0.71807 18.32584,0 8.07217,-0.71808 10.70821,0.62124 16.65975,0 5.95154,-0.62125 8.29363,-0.55907 14.99394,0 6.70004,0.55906 9.92187,-0.69771 18.32557,0 8.40396,0.6977 11.04027,-0.15505 14.99393,0"
       stroke="#000000"
       stroke-width="0.529167"
       stroke-miterlimit="8"
       fill="none"
       fill-rule="evenodd"
       id="path4-7"
       sodipodi:nodetypes="ccssscssssc" />
    <path
       d="m -309.14474,365.77021 c 17.33899,-0.50936 16.03324,0.20196 24.05029,0.25145 18.36545,0.11337 35.12835,-2.04967 55.09731,0.10421 l -138.32054,66.45303"
       stroke="#000000"
       stroke-width="0.529167"
       stroke-miterlimit="8"
       stroke-dasharray="8, 6"
       fill="none"
       fill-rule="evenodd"
       id="path1-3"
       sodipodi:nodetypes="cacc" />
    <path
       d="m -400.06986,432.80583 c -5.64742,0.15705 -11.6877,-0.51012 -17.43789,0 -5.75045,0.51012 -7.63561,-0.39555 -13.47496,0 -5.83909,0.39555 -11.40222,-0.15584 -16.64521,0 8.7085,-4.8133 12.71112,-6.56669 18.66027,-9.03684 5.94916,-2.47015 9.34852,-5.36099 14.51346,-7.02866 5.16519,-1.66767 13.49057,-7.11359 17.27808,-8.36745 3.78751,-1.25386 8.509,-3.34274 14.51372,-7.02865 6.00445,-3.68591 11.9163,-6.47462 20.04245,-9.70624 8.12588,-3.23162 15.2445,-6.36111 20.04245,-9.70624 34.07218,-15.30938 29.14785,-14.19736 33.56983,-16.0042 4.42198,-1.80684 -32.76478,36.50983 -58.97845,66.57697 -20.68184,0.19428 -23.09684,0.0514 -32.08375,0.30131 z"
       stroke="#000000"
       stroke-width="0.529167"
       stroke-miterlimit="8"
       fill="none"
       fill-rule="evenodd"
       id="path4-74"
       sodipodi:nodetypes="sssscscsccscs" />
  </g>
</svg>
