<?xml version="1.0" encoding="UTF-8" standalone="no"?>
<!-- Created with Inkscape (http://www.inkscape.org/) -->

<svg
   width="144.64728mm"
   height="68.343376mm"
   viewBox="0 0 144.64728 68.343376"
   version="1.1"
   id="svg1"
   xmlns:inkscape="http://www.inkscape.org/namespaces/inkscape"
   xmlns:sodipodi="http://sodipodi.sourceforge.net/DTD/sodipodi-0.dtd"
   xmlns="http://www.w3.org/2000/svg"
   xmlns:svg="http://www.w3.org/2000/svg">
  <sodipodi:namedview
     id="namedview1"
     pagecolor="#505050"
     bordercolor="#ffffff"
     borderopacity="1"
     inkscape:showpageshadow="0"
     inkscape:pageopacity="0"
     inkscape:pagecheckerboard="1"
     inkscape:deskcolor="#d1d1d1"
     inkscape:document-units="mm"
     inkscape:export-bgcolor="#ffffff00" />
  <defs
     id="defs1" />
  <g
     inkscape:label="Lag 1"
     inkscape:groupmode="layer"
     id="layer1"
     transform="translate(269.90082,-362.30156)">
    <path
       d="m -184.70534,428.83696 c 3.55203,-2.59688 3.38917,-4.30389 9.45844,-10.13874 6.06902,-5.83486 9.86785,-11.93965 12.51289,-15.24271 2.64504,-3.30306 8.7064,-9.77185 14.97571,-16.35521 6.26956,-6.5831 11.0557,-13.6523 22.32404,-24.18747"
       stroke="#000000"
       stroke-width="0.529167"
       stroke-miterlimit="8"
       stroke-dasharray="8, 6"
       fill="none"
       fill-rule="evenodd"
       id="path1-2"
       sodipodi:nodetypes="ccscc"
       inkscape:export-filename="path1-2.svg"
       inkscape:export-xdpi="96"
       inkscape:export-ydpi="96" />
    <path
       d="m -184.71672,429.19427 c -4.5593,0.3392 -18.723,0.45546 -22.2745,1.01823 -3.5515,0.56277 -8.64394,-0.54292 -14.26739,0 -5.62345,0.54293 -11.6877,-0.51012 -17.43789,0 -5.75046,0.51012 -7.63561,-0.39555 -13.47497,0 -5.83909,0.39555 -11.40222,-0.15584 -16.6452,0 8.7085,-4.8133 12.71111,-6.56669 18.66027,-9.03684 5.94915,-2.47015 9.34852,-5.36099 14.51345,-7.02866 5.1652,-1.66767 13.49058,-7.11359 17.27809,-8.36745 3.78751,-1.25386 8.509,-3.34274 14.51372,-7.02865 6.00445,-3.68591 11.9163,-6.47462 20.04245,-9.70624 8.12588,-3.23162 15.2445,-6.36111 20.04245,-9.70624 4.79795,-3.34513 12.8561,-6.56061 17.27808,-8.36745 4.42199,-1.80684 14.93584,-5.48865 21.13,-8.00034"
       stroke="#000000"
       stroke-width="0.529167"
       stroke-miterlimit="8"
       fill="none"
       fill-rule="evenodd"
       id="path3-0"
       sodipodi:nodetypes="csssscsssccssc" />
    <path
       d="m -268.81667,429.94792 c 5.85285,-6.88287 8.71114,-10.14651 12.62221,-14.05731 3.91081,-3.91081 5.94069,-7.65387 10.81881,-12.04913 4.87813,-4.39526 8.07667,-9.62104 12.02108,-13.38792 3.94441,-3.76687 6.63734,-6.39788 10.81882,-12.04912 4.18147,-5.65124 8.70373,-9.0514 13.82421,-15.3961 4.83658,-0.40852 10.25366,0.71807 18.32584,0 8.07217,-0.71808 10.70821,0.62124 16.65975,0 5.95154,-0.62125 8.29363,-0.55907 14.99394,0 6.70004,0.55906 9.92187,-0.69771 18.32557,0 8.40396,0.6977 11.04027,-0.15505 14.99393,0"
       stroke="#000000"
       stroke-width="0.529167"
       stroke-miterlimit="8"
       fill="none"
       fill-rule="evenodd"
       id="path4-7"
       sodipodi:nodetypes="ccssscssssc" />
  </g>
</svg>
