<?xml version="1.0" encoding="UTF-8" standalone="no"?>
<!-- Created with Inkscape (http://www.inkscape.org/) -->

<svg
   width="161.73926mm"
   height="61.458138mm"
   viewBox="0 0 161.73926 61.458138"
   version="1.1"
   id="svg1"
   xmlns:inkscape="http://www.inkscape.org/namespaces/inkscape"
   xmlns:sodipodi="http://sodipodi.sourceforge.net/DTD/sodipodi-0.dtd"
   xmlns="http://www.w3.org/2000/svg"
   xmlns:svg="http://www.w3.org/2000/svg">
  <sodipodi:namedview
     id="namedview1"
     pagecolor="#505050"
     bordercolor="#ffffff"
     borderopacity="1"
     inkscape:showpageshadow="0"
     inkscape:pageopacity="0"
     inkscape:pagecheckerboard="1"
     inkscape:deskcolor="#d1d1d1"
     inkscape:document-units="mm"
     inkscape:export-bgcolor="#ffffff00" />
  <defs
     id="defs1" />
  <g
     inkscape:label="Lag 1"
     inkscape:groupmode="layer"
     id="layer1"
     transform="translate(53.779035,-326.85515)">
    <path
       d="m -53.445834,387.61459 c 1.20015,-5.01439 2.249488,-7.72981 3.757083,-14.4145 1.507596,-6.6847 2.01639,-8.53467 4.226455,-16.21632 2.210329,-7.68164 2.132541,-7.35727 3.757083,-14.4145 1.624541,-7.05723 2.373577,-11.25908 3.913452,-15.0151 8.3566,-0.11668 9.702006,-0.91678 19.020895,0 9.3188899,0.91678 12.2629086,0.43048 18.4501898,0 6.1875458,-0.43048 10.0393499,0.83476 19.5916022,0 0.522552,4.944 1.857375,9.28767 4.070085,15.61571 2.212446,6.32804 2.462742,7.5946 3.60045,13.81389 1.137708,6.2193 2.926556,8.67913 4.070085,15.61571 1.143265,6.93632 2.977886,9.44086 3.913452,15.01511 -5.482166,-0.65432 -9.930606,-0.63633 -19.441583,0 -9.5109767,0.63632 -11.1627704,0.10451 -15.90674953,0 -4.74397907,-0.10452 -12.41398547,-0.90567 -19.44158347,0 -7.027597,0.90566 -10.869877,-0.0786 -15.906749,0 -5.036873,0.0786 -12.867746,0.13308 -17.674167,0 z"
       stroke="#000000"
       stroke-width="0.529167"
       stroke-miterlimit="8"
       fill="none"
       fill-rule="evenodd"
       id="path1" />
    <path
       d="m 19.256248,327.55417 c 5.482167,0.65431 9.930607,0.63632 19.441583,0 9.510977,-0.63632 11.162771,-0.10451 15.90675,0 4.743979,0.10451 12.413986,0.90567 19.441583,0 7.027598,-0.90567 10.869877,0.0786 15.906746,0 5.03688,-0.0786 12.86775,-0.13309 17.67417,0 -1.20015,5.01438 -2.24949,7.7298 -3.75708,14.4145 -1.5076,6.6847 -2.01639,8.53466 -4.22646,16.21631 -2.21033,7.68165 -2.13254,7.35727 -3.75708,14.4145 -1.62428,7.05723 -2.37358,11.25908 -3.91345,15.01511 -8.356602,0.11668 -9.702008,0.91678 -19.020898,0 -9.318889,-0.91679 -12.262908,-0.43048 -18.450189,0 -6.187546,0.43047 -10.03935,-0.83477 -19.591602,0"
       stroke="#000000"
       stroke-width="0.529167"
       stroke-miterlimit="8"
       stroke-dasharray="8, 6"
       fill="none"
       fill-rule="evenodd"
       id="path4"
       sodipodi:nodetypes="csssscscccssc" />
  </g>
</svg>
