<?xml version="1.0" encoding="UTF-8" standalone="no"?>
<!-- Created with Inkscape (http://www.inkscape.org/) -->

<svg
   width="190.50127mm"
   height="162.22495mm"
   viewBox="0 0 190.50127 162.22495"
   version="1.1"
   id="svg1"
   xmlns:inkscape="http://www.inkscape.org/namespaces/inkscape"
   xmlns:sodipodi="http://sodipodi.sourceforge.net/DTD/sodipodi-0.dtd"
   xmlns="http://www.w3.org/2000/svg"
   xmlns:svg="http://www.w3.org/2000/svg">
  <sodipodi:namedview
     id="namedview1"
     pagecolor="#505050"
     bordercolor="#ffffff"
     borderopacity="1"
     inkscape:showpageshadow="0"
     inkscape:pageopacity="0"
     inkscape:pagecheckerboard="1"
     inkscape:deskcolor="#d1d1d1"
     inkscape:document-units="mm"
     inkscape:export-bgcolor="#ffffff00" />
  <defs
     id="defs1" />
  <g
     inkscape:label="Lag 1"
     inkscape:groupmode="layer"
     id="layer1"
     transform="translate(128.02063,-309.79705)">
    <path
       d="m -65.612659,310.07866 c -3.204898,5.87031 -11.398816,22.97963 -14.066875,28.39618 -2.668322,5.41655 -4.74345,10.32775 -8.061589,16.68463 -3.31814,6.35714 -5.532702,12.64285 -8.706115,18.01971 -3.173412,5.3766 -3.898902,9.09082 -6.771742,14.01524 -2.87285,4.92416 -7.99889,14.15865 -9.35117,19.35427 -1.35229,5.19563 -4.30689,8.81354 -6.77148,14.01525 -2.46486,5.20171 -5.47274,13.2304 -8.34638,17.83971"
       stroke="#000000"
       stroke-width="0.529167"
       stroke-miterlimit="8"
       fill="none"
       fill-rule="evenodd"
       id="path1"
       sodipodi:nodetypes="cccccscc" />
    <path
       d="m -127.64108,438.59953 c 4.89664,-2.72945 10.66932,-7.06015 14.73067,-9.05934 4.06136,-1.99919 7.58376,-4.93606 15.186558,-9.33952 7.602537,-4.40347 11.530541,-7.90761 15.641902,-9.61973 -1.31154,4.42437 -3.899694,8.64315 -5.300927,13.40115 -1.401234,4.758 -4.921779,11.6803 -6.505575,16.44676 -1.583796,4.76621 -3.955256,9.62264 -6.505838,16.4465 -2.55032,6.82387 -3.82535,10.71272 -5.78273,14.61929 -1.86399,-3.39857 -4.16296,-6.11849 -6.72545,-10.30711 -2.56222,-4.18862 -4.65958,-5.96159 -7.58402,-11.62288 -2.92417,-5.66129 -5.0546,-7.99756 -7.15459,-10.96512 z"
       fill="#f2f2f2"
       fill-rule="evenodd"
       id="path2"
       style="stroke-width:0.264583" />
    <path
       d="m -127.64108,438.59953 c 6.46218,-3.40916 11.45328,-8.14758 16.09751,-9.89992 4.64423,-1.75233 6.87943,-5.021 14.275066,-8.77914 7.395898,-3.75788 8.040423,-5.51365 15.186554,-9.33953 -1.230313,4.2209 -3.096948,9.21227 -6.023769,15.22863 -2.926821,6.01609 -4.081462,10.81987 -5.782733,14.61928 -1.701536,3.79942 -2.31484,7.46416 -5.300927,13.40089 -2.986091,5.93672 -5.043221,12.64364 -6.987641,17.6649 -2.11059,-2.15979 -5.17658,-7.92771 -6.51061,-9.97823 -1.33429,-2.05052 -3.81264,-6.3709 -7.58401,-11.62288 -3.77164,-5.25198 -5.31098,-8.12112 -7.36944,-11.294 z"
       stroke="#000000"
       stroke-width="0.529167"
       stroke-miterlimit="8"
       fill="none"
       fill-rule="evenodd"
       id="path3" />
    <path
       d="m -105.97991,471.5756 c 1.67587,-3.86106 3.72904,-8.30924 5.71447,-14.76639 1.985434,-6.45742 3.28639,-9.11119 5.952596,-15.38182 2.666471,-6.27062 3.514196,-10.01633 5.714471,-14.76666 2.200275,-4.75006 3.763169,-11.83296 6.428846,-16.61213 5.042164,5.79226 8.956675,9.67608 12.358952,13.97873 3.402277,4.30266 6.306872,8.55054 13.100314,14.81746 6.793442,6.26692 9.078119,9.5213 11.617325,13.14001 -6.853238,2.12857 -7.263871,2.21482 -14.004131,4.50585 -6.739996,2.29129 -8.827558,3.35254 -16.439356,5.28955 -7.612063,1.93701 -8.627004,2.51751 -15.83055,5.09376 -7.20381,2.57625 -11.184997,3.11944 -14.612937,4.70164 z"
       fill="#d9d9d9"
       fill-rule="evenodd"
       id="path4"
       style="stroke-width:0.264583" />
    <path
       d="m -105.97991,471.5756 c 1.87272,-5.29854 3.98383,-8.90772 5.71447,-14.76639 1.73064,-5.85867 3.299619,-10.25499 6.428846,-16.6124 3.129227,-6.3574 4.868069,-11.83878 5.952596,-15.38181 1.084527,-3.54277 3.410479,-7.81394 5.714471,-14.7664 5.273939,7.28795 9.4361,10.1346 12.358952,13.97873 2.922587,3.84413 6.190191,7.85257 11.988006,13.55937 5.797814,5.7068 6.726502,6.96436 12.729633,14.3981 -2.869142,0.73421 -7.103798,1.78593 -13.39506,4.31006 -6.291527,2.52412 -7.637463,1.94283 -14.004131,4.50585 -6.366669,2.56302 -6.942932,2.80353 -14.003867,4.50586 -7.0612,1.70259 -11.878204,3.42529 -19.483916,6.26903 z"
       stroke="#000000"
       stroke-width="0.529167"
       stroke-miterlimit="8"
       fill="none"
       fill-rule="evenodd"
       id="path5" />
    <path
       d="m -105.07292,471.5756 c 1.07633,-4.63391 2.80379,-8.62541 3.98542,-16.31024 1.181629,-7.68482 3.049323,-11.99382 4.379383,-17.9234 1.330061,-5.92958 2.556404,-9.97347 3.985419,-16.3105 1.429015,-6.33677 2.261394,-9.04928 3.19696,-13.08391 0.935832,-4.03463 2.982913,-11.52234 4.379648,-17.92367 1.396471,-6.40107 2.526506,-12.72064 5.167577,-21.14947 2.641336,-8.42883 2.480204,-7.49618 3.59119,-14.69734 1.11125,-7.2009 3.863181,-12.29757 4.773612,-19.53657 0.910696,-7.23873 3.057525,-13.79326 5.9563,-24.37585 3.937794,3.29798 11.53504,8.42941 15.460662,13.02602 3.925623,4.59661 9.784821,9.17628 15.460927,13.02597 5.675842,3.84968 8.859573,7.45119 11.630819,9.79937 2.77151,2.34791 10.490464,9.0514 16.7375414,14.1015 6.24707698,5.0501 6.36084782,4.65561 11.6310832,9.79937 5.2699704,5.14376 9.6506774,8.17166 12.9074334,10.8749 3.257021,2.70299 8.739187,6.66248 16.737541,14.1015 7.99809,7.43903 10.501842,8.22934 12.907698,10.87491 2.405592,2.64556 8.307387,6.11505 14.184048,11.95043 -6.327511,2.34686 -9.409642,2.61858 -15.036536,4.83817 -5.626893,2.21959 -10.025856,3.21178 -13.365956,4.30054 -3.339835,1.08876 -15.138399,4.95882 -20.048801,6.45081 -4.9101379,1.49198 -6.9003337,2.56354 -13.36569195,4.30053 -6.46535825,1.73699 -10.43701905,3.86689 -13.36595605,4.30054 -2.928937,0.43365 -7.906808,2.86782 -13.365956,4.30054 -5.458883,1.43298 -13.237369,3.32634 -18.377958,5.91344 -5.140325,2.58709 -10.501048,3.97615 -18.377958,5.91317 -7.877175,1.93701 -11.763375,3.3647 -18.378223,5.91344 -6.614848,2.54846 -15.853039,5.29007 -23.390226,7.5258 z"
       stroke="#000000"
       stroke-width="0.529167"
       stroke-miterlimit="8"
       fill="none"
       fill-rule="evenodd"
       id="path6" />
  </g>
</svg>
