<?xml version="1.0" encoding="UTF-8" standalone="no"?>
<!-- Created with Inkscape (http://www.inkscape.org/) -->

<svg
   width="162.00519mm"
   height="54.182579mm"
   viewBox="0 0 162.00519 54.182579"
   version="1.1"
   id="svg1"
   xmlns:inkscape="http://www.inkscape.org/namespaces/inkscape"
   xmlns:sodipodi="http://sodipodi.sourceforge.net/DTD/sodipodi-0.dtd"
   xmlns="http://www.w3.org/2000/svg"
   xmlns:svg="http://www.w3.org/2000/svg">
  <sodipodi:namedview
     id="namedview1"
     pagecolor="#505050"
     bordercolor="#ffffff"
     borderopacity="1"
     inkscape:showpageshadow="0"
     inkscape:pageopacity="0"
     inkscape:pagecheckerboard="1"
     inkscape:deskcolor="#d1d1d1"
     inkscape:document-units="mm"
     inkscape:export-bgcolor="#ffffff00" />
  <defs
     id="defs1" />
  <g
     inkscape:label="Lag 1"
     inkscape:groupmode="layer"
     id="layer1"
     transform="translate(72.326402,-365.32534)">
    <path
       d="m 70.660681,367.19748 c 6.109493,-1.02658 12.272433,-0.92022 18.744406,-0.2741 -0.164042,4.37858 -2.183606,10.03485 -2.971271,16.90766 -0.787665,6.87256 -1.050131,8.32406 -2.625196,14.93758 -1.5748,6.61353 -1.412346,10.55159 -3.057789,17.40006 -0.472282,-5.60678 -2.099998,-7.9629 -3.0607,-14.8545 -0.960438,-6.89187 -2.529946,-10.06316 -3.0607,-14.85477 -0.530754,-4.79134 -2.332038,-12.67274 -3.96875,-19.26193 z"
       stroke="#000000"
       stroke-width="0.529167"
       stroke-miterlimit="8"
       fill="none"
       fill-rule="evenodd"
       id="path1" />
    <path
       d="m 51.890346,366.62016 c 6.109493,-1.02658 12.272433,-0.92022 18.744406,-0.27384 -0.164042,4.37859 -2.183607,10.03485 -2.971271,16.9074 -0.787665,6.87255 -1.050131,8.32432 -2.625196,14.93785 -1.5748,6.61352 -1.412346,10.55132 -3.05779,17.40006 -0.472281,-5.60679 -2.099997,-7.96317 -3.0607,-14.85477 -0.960437,-6.8916 -2.529681,-10.06316 -3.060699,-14.8545 -0.530755,-4.79161 -2.332038,-12.67275 -3.96875,-19.2622 z"
       stroke="#000000"
       stroke-width="0.529167"
       stroke-miterlimit="8"
       fill="none"
       fill-rule="evenodd"
       id="path2" />
    <path
       d="m 32.840346,366.35584 c 6.109493,-1.02658 12.272433,-0.92022 18.744406,-0.2741 -0.164042,4.37885 -2.183606,10.03511 -2.971271,16.90766 -0.787665,6.87256 -1.050131,8.32432 -2.625196,14.93785 -1.5748,6.61352 -1.412346,10.55132 -3.057789,17.39979 -0.472282,-5.60652 -2.099998,-7.9629 -3.0607,-14.8545 -0.960438,-6.8916 -2.529946,-10.06316 -3.0607,-14.8545 -0.530754,-4.7916 -2.332038,-12.67275 -3.96875,-19.2622 z"
       stroke="#000000"
       stroke-width="0.529167"
       stroke-miterlimit="8"
       fill="none"
       fill-rule="evenodd"
       id="path3" />
    <path
       d="m -5.5665704,367.67109 c 6.10949371,-1.02659 12.2724332,-0.92022 18.7444064,-0.27411 -0.164042,4.37859 -2.183607,10.03485 -2.971271,16.90767 -0.7876647,6.87255 -1.0501314,8.32405 -2.6249314,14.93758 -1.5750645,6.61352 -1.4126104,10.55158 -3.0580541,17.40006 -0.4720166,-5.60679 -2.0999979,-7.9629 -3.0604354,-14.85451 -0.96070204,-6.89186 -2.5299458,-10.06316 -3.0606999,-14.85476 -0.5310188,-4.79134 -2.3323021,-12.67275 -3.9690146,-19.26193 z"
       stroke="#000000"
       stroke-width="0.529167"
       stroke-miterlimit="8"
       fill="none"
       fill-rule="evenodd"
       id="path4" />
    <path
       d="m 13.786113,366.64768 c 6.109229,-1.02658 12.272433,-0.92022 18.744406,-0.27411 -0.164307,4.37859 -2.183606,10.03485 -2.971271,16.90767 -0.787929,6.87255 -1.050396,8.32406 -2.625196,14.93758 -1.5748,6.61353 -1.41261,10.55158 -3.057789,17.40006 -0.472282,-5.60679 -2.100263,-7.9629 -3.0607,-14.8545 -0.960438,-6.89187 -2.529946,-10.06317 -3.0607,-14.85477 -0.530754,-4.79134 -2.332038,-12.67275 -3.96875,-19.26193 z"
       stroke="#000000"
       stroke-width="0.529167"
       stroke-miterlimit="8"
       fill="none"
       fill-rule="evenodd"
       id="path5" />
    <path
       d="m -24.918989,368.06135 c 6.109494,-1.02659 12.272433,-0.92022 18.7444061,-0.27411 -0.1640416,4.37859 -2.1836062,10.03485 -2.9712707,16.90767 -0.7876646,6.87255 -1.0501314,8.32405 -2.6251954,14.93758 -1.5748,6.61352 -1.412346,10.55158 -3.05779,17.40006 -0.472281,-5.60679 -2.099998,-7.9629 -3.0607,-14.8545 -0.960437,-6.89187 -2.529681,-10.06317 -3.0607,-14.85477 -0.530754,-4.79134 -2.332037,-12.67275 -3.96875,-19.26193 z"
       stroke="#000000"
       stroke-width="0.529167"
       stroke-miterlimit="8"
       fill="none"
       fill-rule="evenodd"
       id="path6" />
    <path
       d="m -63.466134,368.61512 c 6.109493,-1.02658 12.272433,-0.92022 18.744406,-0.27384 -0.164042,4.37859 -2.183342,10.03485 -2.971271,16.9074 -0.787665,6.87282 -1.050131,8.32432 -2.624931,14.93785 -1.575065,6.61352 -1.412611,10.55158 -3.058054,17.40005 -0.472017,-5.60678 -2.099998,-7.9629 -3.060436,-14.85476 -0.960702,-6.8916 -2.529946,-10.06316 -3.0607,-14.8545 -0.531018,-4.79161 -2.332302,-12.67275 -3.969014,-19.2622 z"
       stroke="#000000"
       stroke-width="0.529167"
       stroke-miterlimit="8"
       fill="none"
       fill-rule="evenodd"
       id="path7" />
    <path
       d="m -44.41587,368.8797 c 6.109229,-1.02658 12.272169,-0.92022 18.744406,-0.2741 -0.164306,4.37859 -2.183606,10.03485 -2.971535,16.9074 -0.787665,6.87282 -1.050131,8.32432 -2.624931,14.93785 -1.575065,6.61352 -1.412611,10.55158 -3.05779,17.40005 -0.472281,-5.60678 -2.100262,-7.9629 -3.0607,-14.85476 -0.960702,-6.8916 -2.529946,-10.0629 -3.0607,-14.8545 -0.530754,-4.79134 -2.332302,-12.67275 -3.96875,-19.26194 z"
       stroke="#000000"
       stroke-width="0.529167"
       stroke-miterlimit="8"
       fill="none"
       fill-rule="evenodd"
       id="path8" />
    <path
       d="m -53.274649,417.66781 c -7.050617,2.20901 -13.266473,1.25836 -18.744406,0.28046 0.269875,-3.95235 1.657615,-9.83827 2.620169,-14.93864 0.962289,-5.10064 2.029354,-11.74221 2.879196,-16.41607 0.849577,-4.67413 2.566987,-9.74328 3.138222,-17.89377 0.873125,6.70242 2.269596,11.63161 3.166798,15.34345 0.897467,3.71157 1.844675,9.00086 3.166798,15.34319 1.321859,6.34259 2.440517,11.20775 3.773223,18.28138 z"
       stroke="#000000"
       stroke-width="0.529167"
       stroke-miterlimit="8"
       fill="none"
       fill-rule="evenodd"
       id="path10" />
    <path
       style="fill:none;fill-rule:evenodd;stroke:#000000;stroke-width:0.7;stroke-linecap:round;stroke-linejoin:round;stroke-dasharray:none;stroke-opacity:0.840617;paint-order:fill markers stroke"
       d="m 81.013222,416.77582 c 0.414083,0.26794 -9.224415,2.08442 -18.773685,-0.0637 -8.315346,1.11642 -9.907735,2.52167 -19.091883,-0.25456 -8.828033,2.788 -9.767748,2.31139 -18.900963,0.25456 -9.584949,2.53047 -9.415045,1.89099 -19.664639,0.44548 -8.1800353,2.29777 -8.9579672,1.869 -19.155522,0.38184 -8.397555,1.66284 -9.927488,1.40271 -19.346441,-0.12729 -8.878953,1.53 -8.856313,1.79881 -19.346442,0.12729 -8.060129,2.01848 -18.628103,0.35481 -18.710044,0.19093"
       id="path9"
       sodipodi:nodetypes="ccccccccc" />
  </g>
</svg>
