<svg width="1280" height="720" xmlns="http://www.w3.org/2000/svg" xmlns:xlink="http://www.w3.org/1999/xlink" overflow="hidden"><g><rect x="0" y="0" width="1280" height="720" fill="#FFFFFF"/><path d="M303 331.167C305.137 314.285 317.821 296.975 334.101 300 351.856 303.602 383.732 299.992 409.189 300 434.645 300.008 456.045 297.158 472.724 300 489.403 302.842 510.104 299.647 539.147 300 568.191 300.353 584.155 304.066 622.899 300 638.833 299.575 656.951 312.642 654 331.167 656.786 346.169 654.458 381.997 654 394.747 653.542 407.497 651.97 443.44 654 455.833 649.922 473.251 639.666 487.984 622.899 487 604.486 489.961 568.811 484.716 550.699 487 532.588 489.284 506.428 486.371 475.612 487 444.796 487.629 424.22 489.632 403.413 487 382.606 484.368 358.869 488.568 334.101 487 316.418 483.688 301.344 476.132 303 455.833 302.382 442.706 300.379 412.105 303 395.993 305.621 379.882 303.153 355.349 303 331.167Z" fill="#404040" fill-rule="evenodd"/><path d="M303 331.167C300.647 310.561 318.166 296.806 334.101 300 358.043 299.95 380.196 296.33 409.189 300 438.181 303.67 446.141 302.97 472.724 300 499.307 297.03 514.826 297.365 542.035 300 569.245 302.635 589.987 302.826 622.899 300 640.326 303.673 653.423 313.318 654 331.167 655.739 353.91 656.18 362.221 654 389.76 651.82 417.299 655.156 439.826 654 455.833 654.807 473.804 641.843 486.236 622.899 487 599.512 485.753 582.749 484.418 556.475 487 530.202 489.582 511.458 488.782 487.164 487 462.87 485.218 445.807 483.644 412.077 487 378.346 490.356 372.379 483.251 334.101 487 318.291 489.433 302.154 468.919 303 455.833 301.466 438.014 304.651 408.321 303 393.5 301.349 378.679 303.087 361.781 303 331.167Z" stroke="#000000" stroke-width="2" stroke-miterlimit="8" fill="none" fill-rule="evenodd"/><path d="M335 302.592C335.923 296.883 340.179 290.651 345.667 292 363.279 290.067 370.24 291.481 388.333 292 393.846 291.625 398.382 298.019 399 302.592 400.22 333.005 400.44 336.049 399 364.672 397.56 393.295 396.376 397.782 399 419.52 401.624 441.258 401.824 461.654 399 483.408 400 489.462 394.115 494.246 388.333 494 372.798 493.309 357.484 496.115 345.667 494 339.917 493.473 336.067 489.047 335 483.408 335.225 465.83 334.447 451.175 335 421.328 335.553 391.481 336.613 382.689 335 361.056 333.387 339.422 335.642 318.778 335 302.592Z" fill="#262626" fill-rule="evenodd"/><path d="M335 302.592C334.923 296.243 339.491 292.526 345.667 292 355.611 290.966 374.669 290.67 388.333 292 394.591 292.602 398.323 296.256 399 302.592 396.344 330.157 397.752 349.142 399 366.48 400.248 383.818 397.125 398.315 399 423.136 400.875 447.957 401.722 471.181 399 483.408 398.515 489.417 394.575 493.864 388.333 494 370.274 492.896 357.648 494.867 345.667 494 340.056 492.753 335.184 489.29 335 483.408 336.118 463.652 334.666 437.404 335 424.944 335.334 412.485 332.596 389.093 335 366.48 337.404 343.868 332.472 320.579 335 302.592Z" stroke="#000000" stroke-width="2" stroke-miterlimit="8" fill="none" fill-rule="evenodd"/><text fill="#FFFFFF" font-family="Calibri,Calibri_MSFontService,sans-serif" font-weight="400" font-size="43" transform="translate(356.217 305)">3</text><text fill="#FFFFFF" font-family="Calibri,Calibri_MSFontService,sans-serif" font-weight="400" font-size="43" transform="translate(356.217 356)">4</text><text fill="#FFFFFF" font-family="Calibri,Calibri_MSFontService,sans-serif" font-weight="400" font-size="43" transform="translate(356.217 407)">5</text><text fill="#FFFFFF" font-family="Calibri,Calibri_MSFontService,sans-serif" font-weight="400" font-size="43" transform="translate(356.217 459)">6</text><text fill="#FFFFFF" font-family="Calibri,Calibri_MSFontService,sans-serif" font-weight="400" font-size="43" transform="translate(356.217 510)">7</text><path d="M418 302.006C418.789 296.601 422.858 290.717 428 292 436.627 291.26 459.376 293.35 468 292 472.81 291.288 477.859 296.773 478 302.006 477.488 316.767 480.727 343.263 478 364.488 475.273 385.714 477.326 398.274 478 419.692 478.674 441.109 478.859 461 478 483.994 479.032 489.732 472.964 495.263 468 494 453.006 492.144 445.823 492.204 428 494 422.811 492.746 418.864 489.348 418 483.994 416.417 454.157 419.644 439.197 418 421.512 416.356 403.827 418.949 375.238 418 360.849 417.051 346.459 416.519 331.42 418 302.006Z" fill="#262626" fill-rule="evenodd"/><path d="M418 302.006C417.923 295.974 422.212 292.494 428 292 436.029 293.101 455.215 292.903 468 292 473.858 292.554 477.011 295.764 478 302.006 476.415 322.604 480.335 344.523 478 366.308 475.665 388.094 476.65 409.711 478 423.332 479.35 436.952 476.965 468.71 478 483.994 476.772 489.926 474.134 493.76 468 494 455.679 493.479 438.092 495.825 428 494 422.68 493.093 418.84 489.669 418 483.994 416.062 461.945 415.319 441.48 418 425.151 420.681 408.823 417.837 379.514 418 366.308 418.163 353.103 415.142 321.29 418 302.006Z" stroke="#000000" stroke-width="2" stroke-miterlimit="8" fill="none" fill-rule="evenodd"/><text fill="#FFFFFF" font-family="Calibri,Calibri_MSFontService,sans-serif" font-weight="400" font-size="43" transform="translate(437.167 305)">2</text><text fill="#FFFFFF" font-family="Calibri,Calibri_MSFontService,sans-serif" font-weight="400" font-size="43" transform="translate(437.167 356)">3</text><text fill="#FFFFFF" font-family="Calibri,Calibri_MSFontService,sans-serif" font-weight="400" font-size="43" transform="translate(437.167 407)">4</text><text fill="#FFFFFF" font-family="Calibri,Calibri_MSFontService,sans-serif" font-weight="400" font-size="43" transform="translate(437.167 459)">5</text><text fill="#FFFFFF" font-family="Calibri,Calibri_MSFontService,sans-serif" font-weight="400" font-size="43" transform="translate(437.167 510)">6</text><path d="M494 302.592C494.909 296.883 499.098 290.651 504.5 292 521.837 290.067 528.689 291.481 546.5 292 551.926 291.625 556.391 298.019 557 302.592 558.201 333.005 558.417 336.049 557 364.672 555.583 393.295 554.417 397.782 557 419.52 559.583 441.258 559.78 461.654 557 483.408 557.984 489.462 552.191 494.246 546.5 494 531.207 493.309 516.133 496.115 504.5 494 498.84 493.473 495.05 489.047 494 483.408 494.222 465.83 493.456 451.175 494 421.328 494.544 391.481 495.587 382.689 494 361.056 492.413 339.422 494.632 318.778 494 302.592Z" fill="#262626" fill-rule="evenodd"/><path d="M494 302.592C493.924 296.243 498.421 292.526 504.5 292 514.289 290.966 533.049 290.67 546.5 292 552.66 292.602 556.334 296.256 557 302.592 554.385 330.157 555.771 349.142 557 366.48 558.229 383.818 555.154 398.315 557 423.136 558.846 447.957 559.68 471.181 557 483.408 556.522 489.417 552.644 493.864 546.5 494 528.723 492.896 516.294 494.867 504.5 494 498.977 492.753 494.181 489.29 494 483.408 495.1 463.652 493.672 437.404 494 424.944 494.328 412.485 491.633 389.093 494 366.48 496.367 343.868 491.511 320.579 494 302.592Z" stroke="#000000" stroke-width="2" stroke-miterlimit="8" fill="none" fill-rule="evenodd"/><text fill="#FFFFFF" font-family="Calibri,Calibri_MSFontService,sans-serif" font-weight="400" font-size="43" transform="translate(514.59 305)">5</text><text fill="#FFFFFF" font-family="Calibri,Calibri_MSFontService,sans-serif" font-weight="400" font-size="43" transform="translate(514.59 356)">6</text><text fill="#FFFFFF" font-family="Calibri,Calibri_MSFontService,sans-serif" font-weight="400" font-size="43" transform="translate(514.59 407)">7</text><text fill="#FFFFFF" font-family="Calibri,Calibri_MSFontService,sans-serif" font-weight="400" font-size="43" transform="translate(514.59 459)">8</text><text fill="#FFFFFF" font-family="Calibri,Calibri_MSFontService,sans-serif" font-weight="400" font-size="43" transform="translate(514.59 510)">9</text><path d="M576 302.006C576.789 296.601 580.858 290.717 586 292 594.627 291.26 617.376 293.35 626 292 630.81 291.288 635.859 296.773 636 302.006 635.966 316.564 638.733 342.543 636 364.488 633.267 386.434 635.326 398.274 636 419.692 636.674 441.109 636.859 461 636 483.994 637.032 489.732 630.964 495.263 626 494 611.006 492.144 603.823 492.204 586 494 580.811 492.746 576.864 489.348 576 483.994 573.741 454.561 577.062 439.499 576 421.512 574.938 403.524 577.445 374.615 576 360.849 574.555 347.082 573.918 314.207 576 302.006Z" fill="#262626" fill-rule="evenodd"/><path d="M576 302.006C575.923 295.974 580.212 292.494 586 292 594.029 293.101 613.215 292.903 626 292 631.858 292.554 635.011 295.764 636 302.006 634.415 322.604 638.335 344.523 636 366.308 633.665 388.094 634.65 409.711 636 423.331 637.35 436.951 635.652 468.545 636 483.994 634.772 489.926 632.134 493.76 626 494 613.679 493.479 596.092 495.825 586 494 580.68 493.093 576.84 489.669 576 483.994 573.901 462.492 573.301 441.83 576 425.151 578.699 408.473 575.837 379.514 576 366.308 576.163 353.103 573.142 321.29 576 302.006Z" stroke="#000000" stroke-width="2" stroke-miterlimit="8" fill="none" fill-rule="evenodd"/><text fill="#FFFFFF" font-family="Calibri,Calibri_MSFontService,sans-serif" font-weight="400" font-size="43" transform="translate(595.54 305)">7</text><text fill="#FFFFFF" font-family="Calibri,Calibri_MSFontService,sans-serif" font-weight="400" font-size="43" transform="translate(595.54 356)">8</text><text fill="#FFFFFF" font-family="Calibri,Calibri_MSFontService,sans-serif" font-weight="400" font-size="43" transform="translate(595.54 407)">9</text><text fill="#FFFFFF" font-family="Calibri,Calibri_MSFontService,sans-serif" font-weight="400" font-size="43" transform="translate(595.54 459)">0</text><text fill="#FFFFFF" font-family="Calibri,Calibri_MSFontService,sans-serif" font-weight="400" font-size="43" transform="translate(595.54 510)">1</text><path d="M576 376C576.158 371.607 579.653 367.578 583.883 368 595.342 368.477 613.316 367.984 628.117 368 632.178 367.703 635.581 372.466 636 376 636.09 390.487 635.909 399.394 636 408 635.586 412.275 633.235 415.656 628.117 416 615.63 417.402 595.228 414.211 583.883 416 579.973 416.756 575.695 411.831 576 408 576.979 401.056 576.588 383.726 576 376Z" stroke="#000000" stroke-width="2" stroke-miterlimit="8" fill="none" fill-rule="evenodd"/><path d="M495 376C495.161 371.607 498.714 367.578 503.014 368 514.664 368.477 532.938 367.984 547.986 368 552.114 367.703 555.574 372.466 556 376 556.091 390.487 555.907 399.394 556 408 555.579 412.275 553.188 415.656 547.986 416 535.291 417.402 514.549 414.211 503.014 416 499.04 416.756 494.69 411.831 495 408 495.996 401.056 495.598 383.726 495 376Z" stroke="#000000" stroke-width="2" stroke-miterlimit="8" fill="none" fill-rule="evenodd"/><path d="M418 376C418.158 371.607 421.653 367.578 425.883 368 437.342 368.477 455.316 367.984 470.117 368 474.178 367.703 477.581 372.466 478 376 478.09 390.487 477.909 399.394 478 408 477.586 412.275 475.235 415.656 470.117 416 457.63 417.402 437.228 414.211 425.883 416 421.973 416.756 417.695 411.831 418 408 418.979 401.056 418.588 383.726 418 376Z" stroke="#000000" stroke-width="2" stroke-miterlimit="8" fill="none" fill-rule="evenodd"/><path d="M337 376C337.158 371.607 340.653 367.578 344.883 368 356.342 368.477 374.316 367.984 389.117 368 393.178 367.703 396.581 372.466 397 376 397.09 390.487 396.909 399.394 397 408 396.586 412.275 394.235 415.656 389.117 416 376.63 417.402 356.228 414.211 344.883 416 340.973 416.756 336.695 411.831 337 408 337.979 401.056 337.588 383.726 337 376Z" stroke="#000000" stroke-width="2" stroke-miterlimit="8" fill="none" fill-rule="evenodd"/><path d="M576 322.667C576.76 318.552 579.506 314.579 583.557 315 601.166 315.225 612.53 313.108 628.443 315 632.015 314.39 635.635 319.202 636 322.667 635.489 331.207 637.335 342.014 636 353.333 635.639 357.442 632.845 360.897 628.443 361 616.179 361.757 592.786 363.167 583.557 361 579.481 361.167 575.625 356.847 576 353.333 575.261 346.678 576.518 337.116 576 322.667Z" stroke="#000000" stroke-width="2" stroke-miterlimit="8" fill="none" fill-rule="evenodd"/><path d="M495 322.667C495.76 318.552 498.506 314.579 502.557 315 520.166 315.225 531.53 313.108 547.443 315 551.015 314.39 554.635 319.202 555 322.667 554.489 331.207 556.335 342.014 555 353.333 554.639 357.442 551.845 360.897 547.443 361 535.179 361.757 511.786 363.167 502.557 361 498.481 361.167 494.625 356.847 495 353.333 494.261 346.678 495.518 337.116 495 322.667Z" stroke="#000000" stroke-width="2" stroke-miterlimit="8" fill="none" fill-rule="evenodd"/><path d="M418 322.667C418.76 318.552 421.506 314.579 425.557 315 443.166 315.225 454.53 313.108 470.443 315 474.015 314.39 477.635 319.202 478 322.667 477.489 331.207 479.335 342.014 478 353.333 477.639 357.442 474.845 360.897 470.443 361 458.179 361.757 434.786 363.167 425.557 361 421.481 361.167 417.625 356.847 418 353.333 417.261 346.678 418.518 337.116 418 322.667Z" stroke="#000000" stroke-width="2" stroke-miterlimit="8" fill="none" fill-rule="evenodd"/><path d="M337 322.667C337.76 318.552 340.506 314.579 344.557 315 362.166 315.225 373.53 313.108 389.443 315 393.015 314.39 396.635 319.202 397 322.667 396.489 331.207 398.335 342.014 397 353.333 396.639 357.442 393.845 360.897 389.443 361 377.179 361.757 353.786 363.167 344.557 361 340.481 361.167 336.625 356.847 337 353.333 336.261 346.678 337.518 337.116 337 322.667Z" stroke="#000000" stroke-width="2" stroke-miterlimit="8" fill="none" fill-rule="evenodd"/><path d="M576 430.667C576.76 426.552 579.506 422.579 583.557 423 601.166 423.225 612.53 421.108 628.443 423 632.015 422.39 635.635 427.202 636 430.667 635.489 439.207 637.335 450.014 636 461.333 635.639 465.442 632.845 468.897 628.443 469 616.179 469.757 592.786 471.167 583.557 469 579.481 469.167 575.625 464.847 576 461.333 575.261 454.678 576.518 445.116 576 430.667Z" stroke="#000000" stroke-width="2" stroke-miterlimit="8" fill="none" fill-rule="evenodd"/><path d="M495 430.667C495.76 426.552 498.506 422.579 502.557 423 520.166 423.225 531.53 421.108 547.443 423 551.015 422.39 554.635 427.202 555 430.667 554.489 439.207 556.335 450.014 555 461.333 554.639 465.442 551.845 468.897 547.443 469 535.179 469.757 511.786 471.167 502.557 469 498.481 469.167 494.625 464.847 495 461.333 494.261 454.678 495.518 445.116 495 430.667Z" stroke="#000000" stroke-width="2" stroke-miterlimit="8" fill="none" fill-rule="evenodd"/><path d="M418 430.667C418.76 426.552 421.506 422.579 425.557 423 443.166 423.225 454.53 421.108 470.443 423 474.015 422.39 477.635 427.202 478 430.667 477.489 439.207 479.335 450.014 478 461.333 477.639 465.442 474.845 468.897 470.443 469 458.179 469.757 434.786 471.167 425.557 469 421.481 469.167 417.625 464.847 418 461.333 417.261 454.678 418.518 445.116 418 430.667Z" stroke="#000000" stroke-width="2" stroke-miterlimit="8" fill="none" fill-rule="evenodd"/><path d="M337 430.667C337.76 426.552 340.506 422.579 344.557 423 362.166 423.225 373.53 421.108 389.443 423 393.015 422.39 396.635 427.202 397 430.667 396.489 439.207 398.335 450.014 397 461.333 396.639 465.442 393.845 468.897 389.443 469 377.179 469.757 353.786 471.167 344.557 469 340.481 469.167 336.625 464.847 337 461.333 336.261 454.678 337.518 445.116 337 430.667Z" stroke="#000000" stroke-width="2" stroke-miterlimit="8" fill="none" fill-rule="evenodd"/><path d="M580 294.833C580.295 293.314 581.304 291.917 582.858 292 599.435 289.689 614.158 290.984 630.142 292 631.47 291.752 632.928 293.416 633 294.833 633.31 298.496 632.778 302.453 633 306.167 632.901 307.698 631.825 308.954 630.142 309 617.216 310.103 594.939 309.843 582.858 309 581.417 309.229 579.855 307.458 580 306.167 579.435 302.343 579.682 298.938 580 294.833Z" stroke="#000000" stroke-width="2" stroke-miterlimit="8" fill="none" fill-rule="evenodd"/><path d="M499 294.833C499.295 293.314 500.304 291.917 501.858 292 518.435 289.689 533.158 290.984 549.142 292 550.47 291.752 551.928 293.416 552 294.833 552.31 298.496 551.778 302.453 552 306.167 551.901 307.698 550.825 308.954 549.142 309 536.216 310.103 513.939 309.843 501.858 309 500.417 309.229 498.855 307.458 499 306.167 498.435 302.343 498.682 298.938 499 294.833Z" stroke="#000000" stroke-width="2" stroke-miterlimit="8" fill="none" fill-rule="evenodd"/><path d="M422 294.833C422.295 293.314 423.304 291.917 424.858 292 441.435 289.689 456.158 290.984 472.142 292 473.47 291.752 474.928 293.416 475 294.833 475.31 298.496 474.778 302.453 475 306.167 474.901 307.698 473.825 308.954 472.142 309 459.216 310.103 436.939 309.843 424.858 309 423.417 309.229 421.855 307.458 422 306.167 421.435 302.343 421.682 298.938 422 294.833Z" stroke="#000000" stroke-width="2" stroke-miterlimit="8" fill="none" fill-rule="evenodd"/><path d="M341 294.833C341.295 293.314 342.304 291.917 343.858 292 360.435 289.689 375.158 290.984 391.142 292 392.47 291.752 393.928 293.416 394 294.833 394.31 298.496 393.778 302.453 394 306.167 393.901 307.698 392.825 308.954 391.142 309 378.216 310.103 355.939 309.843 343.858 309 342.417 309.229 340.855 307.458 341 306.167 340.435 302.343 340.682 298.938 341 294.833Z" stroke="#000000" stroke-width="2" stroke-miterlimit="8" fill="none" fill-rule="evenodd"/><path d="M580 479.833C580.295 478.314 581.304 476.917 582.858 477 599.435 474.689 614.158 475.984 630.142 477 631.47 476.752 632.928 478.416 633 479.833 633.31 483.496 632.778 487.453 633 491.167 632.901 492.698 631.825 493.954 630.142 494 617.216 495.103 594.939 494.843 582.858 494 581.417 494.229 579.855 492.458 580 491.167 579.435 487.343 579.682 483.938 580 479.833Z" stroke="#000000" stroke-width="2" stroke-miterlimit="8" fill="none" fill-rule="evenodd"/><path d="M499 479.833C499.295 478.314 500.304 476.917 501.858 477 518.435 474.689 533.158 475.984 549.142 477 550.47 476.752 551.928 478.416 552 479.833 552.31 483.496 551.778 487.453 552 491.167 551.901 492.698 550.825 493.954 549.142 494 536.216 495.103 513.939 494.843 501.858 494 500.417 494.229 498.855 492.458 499 491.167 498.435 487.343 498.682 483.938 499 479.833Z" stroke="#000000" stroke-width="2" stroke-miterlimit="8" fill="none" fill-rule="evenodd"/><path d="M421 479.833C421.295 478.314 422.304 476.917 423.858 477 440.435 474.689 455.158 475.984 471.142 477 472.47 476.752 473.928 478.416 474 479.833 474.31 483.496 473.778 487.453 474 491.167 473.901 492.698 472.825 493.954 471.142 494 458.216 495.103 435.939 494.843 423.858 494 422.417 494.229 420.855 492.458 421 491.167 420.435 487.343 420.682 483.938 421 479.833Z" stroke="#000000" stroke-width="2" stroke-miterlimit="8" fill="none" fill-rule="evenodd"/><path d="M340 479.833C340.295 478.314 341.304 476.917 342.858 477 359.435 474.689 374.158 475.984 390.142 477 391.47 476.752 392.928 478.416 393 479.833 393.31 483.496 392.778 487.453 393 491.167 392.901 492.698 391.825 493.954 390.142 494 377.216 495.103 354.939 494.843 342.858 494 341.417 494.229 339.855 492.458 340 491.167 339.435 487.343 339.682 483.938 340 479.833Z" stroke="#000000" stroke-width="2" stroke-miterlimit="8" fill="none" fill-rule="evenodd"/><path d="M303 381C313.901 387.545 314.46 389.079 324 395.77 316.536 400.702 309.324 406.943 303 411 302.939 396.723 302.829 393.269 303 381Z" fill="#262626" fill-rule="evenodd"/><path d="M303 381C310.305 386.556 318.869 390.714 324 395.77 314.122 402.084 311.371 405.172 303 411 304.078 398.3 303.426 390.46 303 381Z" stroke="#000000" stroke-width="2" stroke-miterlimit="8" fill="none" fill-rule="evenodd"/><path d="M241 296.001C236.033 267.559 261.23 252.142 287.092 250 300.503 249.899 325.398 255.893 338.317 250 351.236 244.107 386.774 253.464 408.283 250 429.791 246.536 450.827 255.118 478.248 250 505.669 244.882 517.64 252.358 540.717 250 563.795 247.642 625.862 253.466 661.908 250 683.944 250.718 704.404 276.857 708 296.001 712.992 315.687 701.499 344.182 708 357.334 714.501 370.486 703.097 402.852 708 418.666 712.903 434.48 707.207 464.449 708 479.999 706.77 500.283 690.815 520.403 661.908 526 646.429 530.614 629.309 520.344 610.683 526 592.057 531.656 564.883 524.569 548.214 526 531.545 527.431 493.981 518.569 478.248 526 462.515 533.431 438.772 521.703 427.023 526 415.275 530.297 388.653 522.253 375.798 526 362.944 529.747 330.862 522.268 287.092 526 258.405 525.812 238.495 507.702 241 479.999 236.646 464.485 241.96 448.495 241 420.506 240.04 392.518 244.236 387.867 241 359.174 237.764 330.48 246.029 315.106 241 296.001Z" stroke="#000000" stroke-width="2" stroke-miterlimit="8" fill="none" fill-rule="evenodd"/><path d="M233 263.5C232.185 242.592 251.133 231.706 266.5 230 284.7 228.415 297.541 244.89 300 263.5 298.106 285.145 284.685 297.443 266.5 297 248.449 292.251 233.374 283.655 233 263.5Z" fill="#FFFFFF" fill-rule="evenodd"/><path d="M233 263.5C233.011 243.904 249.159 235.024 266.5 230 279.765 231.66 299.81 244.399 300 263.5 297.743 281.821 289.903 298.296 266.5 297 246.827 299.713 233.427 283.226 233 263.5Z" stroke="#000000" stroke-width="2" stroke-miterlimit="8" fill="none" fill-rule="evenodd"/><text font-family="Calibri,Calibri_MSFontService,sans-serif" font-weight="400" font-size="32" transform="translate(258.477 274)">4</text></g></svg>