<svg width="1280" height="720" xmlns="http://www.w3.org/2000/svg" xmlns:xlink="http://www.w3.org/1999/xlink" overflow="hidden"><g><rect x="0" y="0" width="1280" height="720" fill="#FFFFFF"/><path d="M79 360C104.774 356.932 133.492 363.486 147.154 360 160.815 356.514 205.527 359.874 233.028 360 260.528 360.126 276.291 362.276 318.902 360 361.513 357.724 339.87 358.922 360.475 360 381.08 361.078 396.298 359.38 428.629 360 460.96 360.62 455.227 360.043 470.203 360 485.179 359.957 492.171 358.49 511.777 360 531.383 361.51 545.86 360.999 571.071 360 596.282 359.001 623.659 357.331 639.225 360 654.79 362.669 668.121 360.616 680.799 360 693.476 359.384 706.594 362.461 731.232 360 755.871 357.539 765.164 358.851 790.526 360 815.888 361.149 819.285 359.256 832.1 360 844.915 360.744 860.593 358.409 873.674 360 886.755 361.591 925.266 355.94 965 360 964.983 361.075 965.038 363.322 965 365 946.491 362.386 919.903 361.067 879.126 365 838.349 368.933 831.833 364.546 793.252 365 754.671 365.454 762.585 364.42 733.958 365 705.331 365.58 687.396 366.592 674.665 365 661.933 363.408 608.961 364.264 588.791 365 568.621 365.736 556.409 363.481 547.217 365 538.025 366.519 486.761 366.279 470.203 365 453.645 363.721 423.575 363.849 410.909 365 398.244 366.151 371.38 367.086 360.475 365 349.571 362.914 306.73 368.293 292.322 365 277.913 361.707 234.64 368.984 215.308 365 195.976 361.016 171.219 367.245 156.014 365 140.809 362.755 106.338 366.78 79 365 78.9458 363.62 79.118 362.423 79 360Z" fill-rule="evenodd"/><path d="M79 360C97.5116 358.257 111.29 358.265 120.574 360 129.858 361.735 147.953 358.457 171.008 360 194.062 361.543 214.342 359.951 230.301 360 246.261 360.049 263.753 359.993 289.595 360 315.438 360.007 327.282 362.386 340.029 360 352.776 357.614 379.632 361.557 390.463 360 401.294 358.443 427.877 360.271 440.897 360 453.917 359.729 470.877 361.301 482.471 360 494.064 358.699 508.544 360.619 524.045 360 539.546 359.381 549.052 358.587 565.618 360 582.185 361.413 595.347 360.264 607.192 360 619.038 359.736 646.935 358.526 675.346 360 703.757 361.474 742.909 357.8 761.22 360 779.531 362.2 791.983 359.375 802.794 360 813.604 360.625 838.618 357.892 862.088 360 885.557 362.108 890.024 361.063 903.661 360 917.299 358.937 946.984 362.134 965 360 965.086 361.576 964.909 363.147 965 365 924.705 361.167 909.095 360.529 879.126 365 849.157 369.471 838.481 362.727 810.972 365 783.464 367.273 786.543 367.034 769.398 365 752.253 362.966 741.749 362.797 718.965 365 696.181 367.203 657.71 368.388 641.951 365 626.191 361.612 614.192 365.751 600.377 365 586.562 364.249 548.461 361.465 532.223 365 515.985 368.535 481.145 367.694 464.069 365 446.994 362.306 425.675 365.497 404.775 365 383.875 364.503 355.398 362.135 336.622 365 317.845 367.865 280.912 361.299 250.748 365 220.584 368.701 216.238 365.64 191.454 365 166.67 364.36 164.481 364.565 149.88 365 135.279 365.435 101.649 367.079 79 365 79.0699 362.826 79.023 361.54 79 360Z" stroke="#000000" stroke-width="2" stroke-miterlimit="8" fill="none" fill-rule="evenodd"/><path d="M488 20C490.077 20.1493 491.951 20.1557 494 20 498.275 51.967 494.897 67.6607 494 102.862 493.103 138.064 491.886 128.817 494 154.124 496.114 179.432 495.308 194.041 494 205.387 492.692 216.732 491.684 241.959 494 256.649 496.316 271.338 496.059 301.061 494 314.231 491.942 327.401 494.796 350.101 494 365.493 493.204 380.886 496.227 413.844 494 448.356 491.773 482.867 493.927 493.596 494 505.938 494.073 518.279 493.168 546.101 494 557.2 494.832 568.299 498.525 605.04 494 652 491.542 651.806 489.703 652.115 488 652 485.794 633.306 487.166 620.622 488 600.738 488.834 580.853 484.002 544.734 488 524.196 491.998 503.657 484.86 469.544 488 453.973 491.14 438.402 485.047 397.026 488 371.111 490.953 345.196 486.508 335.971 488 319.849 489.492 303.727 484.445 264.442 488 243.307 491.555 222.171 487.887 198.771 488 179.404 488.113 160.038 488.917 132.847 488 109.182 487.083 85.5176 485.334 44.8161 488 20Z" fill-rule="evenodd"/><path d="M488 20C489.97 20.1925 492.16 19.8594 494 20 492.536 42.7914 493.556 49.4119 494 77.5823 494.444 105.753 493.65 120.392 494 147.804 494.35 175.216 491.171 196.511 494 224.347 496.829 252.182 493.919 265.783 494 288.249 494.081 310.715 494.587 319.645 494 345.831 493.413 372.017 495.595 392.314 494 416.053 492.405 439.793 492.965 466.934 494 486.276 495.035 505.617 496.595 514.398 494 537.538 491.405 560.677 492.249 577.587 494 588.8 495.751 600.013 491.893 622.57 494 652 491.244 652.224 490.824 651.736 488 652 490.447 632.361 484.737 607.099 488 569.138 491.263 531.176 488.306 525.509 488 511.556 487.694 497.602 488.384 472.229 488 460.293 487.616 448.357 488.845 425.241 488 409.031 487.155 392.821 490.197 379.912 488 357.769 485.803 335.626 487.058 324.078 488 306.507 488.942 288.936 486.571 252.275 488 236.284 489.429 220.293 487.263 191.201 488 153.422 488.737 115.644 488.359 120.238 488 102.16 487.641 84.0818 485.371 36.8998 488 20Z" stroke="#000000" stroke-width="2" stroke-miterlimit="8" fill="none" fill-rule="evenodd"/><path d="M896.694 342.995C896.615 343.46 896.316 344.146 896.117 344.794 873.388 337.602 835.668 321.995 814.059 318.482 792.449 314.969 780.374 306.17 766.192 303.134 752.009 300.097 732.249 294.195 718.324 287.785 704.4 281.375 692.546 280.885 670.457 272.437 648.368 263.988 637.627 259.858 615.752 254.895 593.877 249.933 589.465 248.731 567.885 239.547 546.304 230.362 523.236 226.206 485.827 213.235 448.417 200.264 452.056 205.088 431.122 195.694 410.187 186.299 396.074 182.754 383.254 180.345 370.434 177.936 346.15 170.995 328.549 162.804 310.948 154.613 264.309 137.189 212.3 125.529 212.495 124.676 212.578 124.504 212.877 123.729 236.707 129.115 250.542 137.097 260.744 139.078 270.947 141.058 305.278 150.558 329.126 161.004 352.975 171.451 369.474 177.459 411.184 187.316 452.895 197.173 442.21 198.781 459.051 202.665 475.893 206.548 512.426 216.846 534.271 226.784 556.116 236.722 579.85 240.733 595.814 246.518 611.779 252.302 644.636 263.321 664.196 268.444 683.756 273.568 699.475 281.241 725.74 288.178 752.005 295.116 763.878 302.082 794.121 310.105 824.365 318.128 851.969 329.71 896.694 342.995Z" fill="#4EA72E" fill-rule="evenodd"/><path d="M896.694 342.995C896.55 343.737 896.299 343.964 896.117 344.794 873.109 337.18 861.794 332.186 834.573 325.06 807.353 317.934 801.472 312.491 773.03 305.326 744.588 298.162 742.91 298.02 718.324 287.785 693.739 277.55 680.915 278.443 649.943 265.859 618.97 253.274 598.191 247.723 581.561 243.932 564.931 240.141 556.807 237.493 533.694 228.583 510.581 219.674 496.45 216.489 485.827 213.235 475.203 209.98 456.291 202.604 437.96 197.886 419.629 193.168 404.012 187.798 390.093 182.538 376.173 177.278 357.725 170.15 328.549 162.804 299.373 155.458 302.301 152.188 280.682 147.455 259.063 142.722 232.026 132.422 212.3 125.529 212.53 124.902 212.764 124.368 212.877 123.729 245.322 129.676 275.22 140.819 294.935 150.041 314.651 159.263 321.659 158.535 342.802 165.39 363.946 172.244 394.674 182.633 411.184 187.316 427.694 191.999 466.491 201.95 493.242 213.628 519.993 225.306 526.765 223.965 541.109 228.977 555.454 233.988 581.404 238.671 602.653 248.71 623.902 258.75 631.255 258.417 650.52 264.059 669.785 269.701 696.507 276.253 712.063 283.793 727.62 291.333 743.417 291.403 759.93 299.142 776.444 306.88 796.952 313.215 828.312 321.068 859.672 328.922 874.845 335.946 896.694 342.995Z" stroke="#4EA72E" stroke-width="2" stroke-miterlimit="8" fill="none" fill-rule="evenodd"/><text fill="#4EA72E" font-family="Calibri,Calibri_MSFontService,sans-serif" font-style="italic" font-weight="400" font-size="37" transform="translate(502.801 209)">b</text><text fill="#4EA72E" font-family="Calibri,Calibri_MSFontService,sans-serif" font-weight="400" font-size="37" transform="translate(530.468 209)">&gt; 0</text><text fill="#E97132" font-family="Calibri,Calibri_MSFontService,sans-serif" font-style="italic" font-weight="400" font-size="37" transform="translate(388.735 516)">b</text><text fill="#E97132" font-family="Calibri,Calibri_MSFontService,sans-serif" font-weight="400" font-size="37" transform="translate(416.402 516)">&lt; 0</text><path d="M782.951 43.9695C783.382 44.1634 783.971 44.6248 784.548 44.981 771.863 65.1666 747.262 97.7408 738.42 117.769 729.579 137.797 718.023 147.268 711.513 160.229 705.003 173.189 694.315 190.827 684.605 202.688 674.895 214.55 671.436 225.899 657.698 245.148 643.959 264.398 637.257 273.753 626.946 293.674 616.635 313.594 614.361 317.561 600.039 336.133 585.716 354.705 575.885 375.984 553.911 408.921 531.938 441.859 537.523 439.552 523.16 457.447 508.796 475.341 501.811 488.106 496.252 499.906 490.693 511.707 477.86 533.46 465.501 548.432 453.141 563.403 424.534 604.151 400.154 651.548 399.377 651.145 399.232 651.021 398.557 650.536 409.771 628.831 420.979 617.452 425.465 608.077 429.951 598.701 447.789 567.87 463.904 547.42 480.02 526.971 489.989 512.516 510.032 474.632 530.074 436.748 528.94 447.493 536.939 432.172 544.938 416.851 564.104 384.089 579.223 365.45 594.341 346.811 604.2 324.853 613.818 310.859 623.436 296.865 642.374 267.842 652.258 250.202 662.141 232.563 673.525 219.283 686.853 195.611 700.181 171.94 709.912 162.203 725.292 134.955 740.672 107.706 758.833 83.9074 782.951 43.9695Z" fill="#E97132" fill-rule="evenodd"/><path d="M782.951 43.9695C783.634 44.2952 783.79 44.5959 784.548 44.981 771.385 65.33 763.703 75.0233 749.952 99.5721 736.201 124.121 729.453 128.442 715.357 154.163 701.261 179.884 700.701 181.472 684.605 202.688 668.509 223.905 666.144 236.54 646.166 263.345 626.188 290.151 615.583 308.862 607.726 324.002 599.87 339.141 595.262 346.337 580.819 366.462 566.376 386.586 559.736 399.46 553.911 408.921 548.086 418.383 536.186 434.829 527.004 451.381 517.822 467.933 508.692 481.694 500.096 493.841 491.5 505.987 479.957 522.045 465.501 548.432 451.045 574.818 448.617 571.161 438.593 590.891 428.569 610.622 411.792 634.194 400.154 651.548 399.605 651.168 399.148 650.808 398.557 650.536 412.483 620.635 430.795 594.506 444.685 577.748 458.574 560.991 459.634 554.025 471.592 535.289 483.551 516.552 501.342 489.431 510.032 474.632 518.721 459.833 538.121 424.793 556.159 401.844 574.197 378.895 574.605 372.005 583.067 359.384 591.528 346.764 602.595 322.829 617.662 304.793 632.729 286.757 634.258 279.557 644.57 262.334 654.881 245.11 667.951 220.899 679.165 207.743 690.379 194.586 694.426 179.315 706.073 165.283 717.72 151.25 729.015 132.998 744.512 104.626 760.009 76.2546 770.628 63.3394 782.951 43.9695Z" stroke="#E97132" stroke-width="2" stroke-miterlimit="8" fill="none" fill-rule="evenodd"/><text font-family="Calibri,Calibri_MSFontService,sans-serif" font-style="italic" font-weight="400" font-size="37" transform="translate(396.287 352)">x</text><text font-family="Calibri,Calibri_MSFontService,sans-serif" font-weight="400" font-size="37" transform="translate(420.953 352)">= 0</text><path d="M485 214C485.158 211.4 487.551 208.932 491.5 209 494.718 209.137 498.062 211.025 498 214 498.374 217.173 495.425 219.122 491.5 219 487.398 218.951 484.878 217.422 485 214Z" fill="#D9F2D0" fill-rule="evenodd"/><path d="M485 214C484.903 211.253 488.341 208.944 491.5 209 494.571 208.915 498.288 211.379 498 214 498.187 216.518 494.487 218.862 491.5 219 488.104 218.728 485.413 216.267 485 214Z" stroke="#4EA72E" stroke-width="2" stroke-miterlimit="8" fill="none" fill-rule="evenodd"/><path d="M484 504C484.692 500.892 486.389 496.803 491.5 497 495.552 497.035 499.046 499.965 499 504 499.286 508.203 496.129 511.19 491.5 511 486.522 510.914 483.89 508.502 484 504Z" fill="#FBE3D6" fill-rule="evenodd"/><path d="M484 504C483.052 500.286 487.522 496.977 491.5 497 494.903 496.871 499.107 500.19 499 504 499.183 507.61 495.386 510.937 491.5 511 487.527 510.745 484.22 507.584 484 504Z" stroke="#E97132" stroke-width="2" stroke-miterlimit="8" fill="none" fill-rule="evenodd"/><path d="M485 362C485.176 359.417 487.563 356.977 491 357 494.04 357.1 497.104 358.88 497 362 497.311 365.102 494.995 367.247 491 367 487.023 366.936 484.947 365.046 485 362Z" fill="#F2F2F2" fill-rule="evenodd"/><path d="M485 362C484.327 359.339 488.477 356.897 491 357 493.818 356.919 497.441 359.453 497 362 497.358 364.296 493.899 366.906 491 367 487.848 366.773 485.093 364.65 485 362Z" stroke="#000000" stroke-width="2" stroke-miterlimit="8" fill="none" fill-rule="evenodd"/></g></svg>