<svg width="1280" height="720" xmlns="http://www.w3.org/2000/svg" xmlns:xlink="http://www.w3.org/1999/xlink" overflow="hidden"><g><rect x="0" y="0" width="1280" height="720" fill="#FFFFFF"/><path d="M662.5 491C680.352 492.796 689.447 490.675 698.922 491 708.398 491.326 724.548 491.07 736.831 491 735.763 504.439 735.906 520.432 736.831 529.22 737.758 538.008 738.019 548.73 736.831 564.5 728.82 563.825 709.346 566.244 699.666 564.5 689.986 562.757 671.852 563.506 662.5 564.5 661.204 554.656 663.679 536.851 662.5 527.75 661.321 518.649 660.772 505.111 662.5 491Z" fill="#FFFFFF" fill-rule="evenodd"/><path d="M736.831 491C741.393 485.105 748.344 477.34 761.5 466.5 762.095 476.11 762.177 487.508 761.5 504.72 760.823 521.932 761.728 530.133 761.5 540 752.742 548.873 746.002 553.964 736.831 564.5 738.602 551.303 736.498 537.098 736.831 529.22 737.165 521.342 736.274 500.542 736.831 491Z" fill="#CDCDCD" fill-rule="evenodd"/><path d="M662.5 491C672.948 481.24 676.896 475.75 687.169 466.5 696.752 467.38 709.351 467.682 724.334 466.5 739.318 465.318 743.635 467.464 761.5 466.5 754.387 471.585 747.486 478.466 736.831 491 720.195 491.822 715.016 489.413 698.179 491 681.343 492.587 673.532 492.458 662.5 491Z" fill="#FFFFFF" fill-rule="evenodd"/><path d="M662.5 491C673.665 477.75 678.144 476.889 687.169 466.5 696.948 466.409 712.857 467.268 722.104 466.5 731.352 465.732 749.214 467.901 761.5 466.5 763.293 477.304 762.082 492.978 761.5 503.985 760.918 514.992 761.151 527.724 761.5 540 757.058 546.314 748.134 555.465 736.831 564.5 722.627 564.445 711.328 564.622 698.922 564.5 686.516 564.379 675.234 564.301 662.5 564.5 661.724 555.202 663.617 545.632 662.5 529.22 661.383 512.808 663.162 505.903 662.5 491ZM662.5 491C675.401 492.614 690.422 489.832 698.922 491 707.423 492.168 724.34 491.785 736.831 491 744.074 481.982 748.161 477.459 761.5 466.5M736.831 491C737.332 506.857 736.972 516.857 736.831 526.28 736.691 535.703 735.183 553.577 736.831 564.5" stroke="#000000" stroke-width="1.33333" stroke-miterlimit="8" fill="none" fill-rule="evenodd"/><path d="M736.5 491C754.352 492.796 763.447 490.675 772.922 491 782.398 491.326 798.548 491.07 810.831 491 809.763 504.439 809.906 520.432 810.831 529.22 811.758 538.008 812.019 548.73 810.831 564.5 802.82 563.825 783.346 566.244 773.666 564.5 763.986 562.757 745.852 563.506 736.5 564.5 735.204 554.656 737.679 536.851 736.5 527.75 735.321 518.649 734.772 505.111 736.5 491Z" fill="#FFFFFF" fill-rule="evenodd"/><path d="M810.831 491C815.393 485.105 822.344 477.34 835.5 466.5 836.095 476.11 836.177 487.508 835.5 504.72 834.823 521.932 835.728 530.133 835.5 540 826.742 548.873 820.002 553.964 810.831 564.5 812.602 551.303 810.498 537.098 810.831 529.22 811.165 521.342 810.274 500.542 810.831 491Z" fill="#CDCDCD" fill-rule="evenodd"/><path d="M736.5 491C746.948 481.24 750.896 475.75 761.169 466.5 770.752 467.38 783.351 467.682 798.334 466.5 813.318 465.318 817.635 467.464 835.5 466.5 828.387 471.585 821.486 478.466 810.831 491 794.195 491.822 789.016 489.413 772.179 491 755.343 492.587 747.532 492.458 736.5 491Z" fill="#FFFFFF" fill-rule="evenodd"/><path d="M736.5 491C747.665 477.75 752.144 476.889 761.169 466.5 770.948 466.409 786.857 467.268 796.104 466.5 805.352 465.732 823.214 467.901 835.5 466.5 837.293 477.304 836.082 492.978 835.5 503.985 834.918 514.992 835.151 527.724 835.5 540 831.058 546.314 822.134 555.465 810.831 564.5 796.627 564.445 785.328 564.622 772.922 564.5 760.516 564.379 749.234 564.301 736.5 564.5 735.724 555.202 737.617 545.632 736.5 529.22 735.383 512.808 737.162 505.903 736.5 491ZM736.5 491C749.401 492.614 764.422 489.832 772.922 491 781.423 492.168 798.34 491.785 810.831 491 818.074 481.982 822.161 477.459 835.5 466.5M810.831 491C811.332 506.857 810.972 516.857 810.831 526.28 810.691 535.703 809.183 553.577 810.831 564.5" stroke="#000000" stroke-width="1.33333" stroke-miterlimit="8" fill="none" fill-rule="evenodd"/><path d="M812.5 491C830.352 492.796 839.447 490.675 848.922 491 858.398 491.326 874.548 491.07 886.831 491 885.763 504.439 885.906 520.432 886.831 529.22 887.758 538.008 888.019 548.73 886.831 564.5 878.82 563.825 859.346 566.244 849.666 564.5 839.986 562.757 821.852 563.506 812.5 564.5 811.204 554.656 813.679 536.851 812.5 527.75 811.321 518.649 810.772 505.111 812.5 491Z" fill="#FFFFFF" fill-rule="evenodd"/><path d="M886.831 491C891.393 485.105 898.344 477.34 911.5 466.5 912.095 476.11 912.177 487.508 911.5 504.72 910.823 521.932 911.728 530.133 911.5 540 902.742 548.873 896.002 553.964 886.831 564.5 888.602 551.303 886.498 537.098 886.831 529.22 887.165 521.342 886.274 500.542 886.831 491Z" fill="#CDCDCD" fill-rule="evenodd"/><path d="M812.5 491C822.948 481.24 826.896 475.75 837.169 466.5 846.752 467.38 859.351 467.682 874.334 466.5 889.318 465.318 893.635 467.464 911.5 466.5 904.387 471.585 897.486 478.466 886.831 491 870.195 491.822 865.016 489.413 848.179 491 831.343 492.587 823.532 492.458 812.5 491Z" fill="#FFFFFF" fill-rule="evenodd"/><path d="M812.5 491C823.665 477.75 828.144 476.889 837.169 466.5 846.948 466.409 862.857 467.268 872.104 466.5 881.352 465.732 899.214 467.901 911.5 466.5 913.293 477.304 912.082 492.978 911.5 503.985 910.918 514.992 911.151 527.724 911.5 540 907.058 546.314 898.134 555.465 886.831 564.5 872.627 564.445 861.328 564.622 848.922 564.5 836.516 564.379 825.234 564.301 812.5 564.5 811.724 555.202 813.617 545.632 812.5 529.22 811.383 512.808 813.162 505.903 812.5 491ZM812.5 491C825.401 492.614 840.422 489.832 848.922 491 857.423 492.168 874.34 491.785 886.831 491 894.074 481.982 898.161 477.459 911.5 466.5M886.831 491C887.332 506.857 886.972 516.857 886.831 526.28 886.691 535.703 885.183 553.577 886.831 564.5" stroke="#000000" stroke-width="1.33333" stroke-miterlimit="8" fill="none" fill-rule="evenodd"/><path d="M641.5 514.25C659.352 516.064 668.447 513.921 677.922 514.25 687.398 514.579 703.548 514.321 715.831 514.25 714.763 527.826 714.906 543.982 715.831 552.86 716.758 561.738 717.019 572.569 715.831 588.5 707.82 587.818 688.346 590.261 678.666 588.5 668.986 586.739 650.852 587.495 641.5 588.5 640.204 578.556 642.679 560.569 641.5 551.375 640.321 542.181 639.772 528.505 641.5 514.25Z" fill="#FFFFFF" fill-rule="evenodd"/><path d="M715.831 514.25C720.393 508.295 727.344 500.451 740.5 489.5 741.095 499.209 741.177 510.722 740.5 528.11 739.823 545.498 740.728 553.782 740.5 563.75 731.742 572.713 725.002 577.857 715.831 588.5 717.602 575.169 715.498 560.819 715.831 552.86 716.165 544.902 715.274 523.89 715.831 514.25Z" fill="#CDCDCD" fill-rule="evenodd"/><path d="M641.5 514.25C651.948 504.391 655.896 498.844 666.169 489.5 675.752 490.389 688.351 490.695 703.334 489.5 718.318 488.306 722.635 490.474 740.5 489.5 733.387 494.637 726.486 501.588 715.831 514.25 699.195 515.08 694.016 512.647 677.179 514.25 660.343 515.853 652.532 515.723 641.5 514.25Z" fill="#FFFFFF" fill-rule="evenodd"/><path d="M641.5 514.25C652.665 500.865 657.144 499.995 666.169 489.5 675.948 489.408 691.857 490.276 701.104 489.5 710.352 488.724 728.214 490.916 740.5 489.5 742.293 500.414 741.082 516.248 740.5 527.368 739.918 538.487 740.151 551.349 740.5 563.75 736.058 570.128 727.134 579.373 715.831 588.5 701.627 588.444 690.328 588.623 677.922 588.5 665.516 588.377 654.234 588.299 641.5 588.5 640.724 579.107 642.617 569.439 641.5 552.86 640.383 536.281 642.162 529.305 641.5 514.25ZM641.5 514.25C654.401 515.881 669.422 513.07 677.922 514.25 686.423 515.43 703.34 515.043 715.831 514.25 723.074 505.14 727.161 500.571 740.5 489.5M715.831 514.25C716.332 530.269 715.972 540.371 715.831 549.89 715.691 559.409 714.183 577.466 715.831 588.5" stroke="#000000" stroke-width="1.33333" stroke-miterlimit="8" fill="none" fill-rule="evenodd"/><path d="M715.5 514.25C733.352 516.064 742.447 513.921 751.922 514.25 761.398 514.579 777.548 514.321 789.831 514.25 788.763 527.826 788.906 543.982 789.831 552.86 790.758 561.738 791.019 572.569 789.831 588.5 781.82 587.818 762.346 590.261 752.666 588.5 742.986 586.739 724.852 587.495 715.5 588.5 714.204 578.556 716.679 560.569 715.5 551.375 714.321 542.181 713.772 528.505 715.5 514.25Z" fill="#FFFFFF" fill-rule="evenodd"/><path d="M789.831 514.25C794.393 508.295 801.344 500.451 814.5 489.5 815.095 499.209 815.177 510.722 814.5 528.11 813.823 545.498 814.728 553.782 814.5 563.75 805.742 572.713 799.002 577.857 789.831 588.5 791.602 575.169 789.498 560.819 789.831 552.86 790.165 544.902 789.274 523.89 789.831 514.25Z" fill="#CDCDCD" fill-rule="evenodd"/><path d="M715.5 514.25C725.948 504.391 729.896 498.844 740.169 489.5 749.752 490.389 762.351 490.695 777.334 489.5 792.318 488.306 796.635 490.474 814.5 489.5 807.387 494.637 800.486 501.588 789.831 514.25 773.195 515.08 768.016 512.647 751.179 514.25 734.343 515.853 726.532 515.723 715.5 514.25Z" fill="#FFFFFF" fill-rule="evenodd"/><path d="M715.5 514.25C726.665 500.865 731.144 499.995 740.169 489.5 749.948 489.408 765.857 490.276 775.104 489.5 784.352 488.724 802.214 490.916 814.5 489.5 816.293 500.414 815.082 516.248 814.5 527.368 813.918 538.487 814.151 551.349 814.5 563.75 810.058 570.128 801.134 579.373 789.831 588.5 775.627 588.444 764.328 588.623 751.922 588.5 739.516 588.377 728.234 588.299 715.5 588.5 714.724 579.107 716.617 569.439 715.5 552.86 714.383 536.281 716.162 529.305 715.5 514.25ZM715.5 514.25C728.401 515.881 743.422 513.07 751.922 514.25 760.423 515.43 777.34 515.043 789.831 514.25 797.074 505.14 801.161 500.571 814.5 489.5M789.831 514.25C790.332 530.269 789.972 540.371 789.831 549.89 789.691 559.409 788.183 577.466 789.831 588.5" stroke="#000000" stroke-width="1.33333" stroke-miterlimit="8" fill="none" fill-rule="evenodd"/><path d="M788.5 514.25C806.352 516.064 815.447 513.921 824.922 514.25 834.398 514.579 850.548 514.321 862.831 514.25 861.763 527.826 861.906 543.982 862.831 552.86 863.758 561.738 864.019 572.569 862.831 588.5 854.82 587.818 835.346 590.261 825.666 588.5 815.986 586.739 797.852 587.495 788.5 588.5 787.204 578.556 789.679 560.569 788.5 551.375 787.321 542.181 786.772 528.505 788.5 514.25Z" fill="#FFFFFF" fill-rule="evenodd"/><path d="M862.831 514.25C867.393 508.295 874.344 500.451 887.5 489.5 888.095 499.209 888.177 510.722 887.5 528.11 886.823 545.498 887.728 553.782 887.5 563.75 878.742 572.713 872.002 577.857 862.831 588.5 864.602 575.169 862.498 560.819 862.831 552.86 863.165 544.902 862.274 523.89 862.831 514.25Z" fill="#CDCDCD" fill-rule="evenodd"/><path d="M788.5 514.25C798.948 504.391 802.896 498.844 813.169 489.5 822.752 490.389 835.351 490.695 850.334 489.5 865.318 488.306 869.635 490.474 887.5 489.5 880.387 494.637 873.486 501.588 862.831 514.25 846.195 515.08 841.016 512.647 824.179 514.25 807.343 515.853 799.532 515.723 788.5 514.25Z" fill="#FFFFFF" fill-rule="evenodd"/><path d="M788.5 514.25C799.665 500.865 804.144 499.995 813.169 489.5 822.948 489.408 838.857 490.276 848.104 489.5 857.352 488.724 875.214 490.916 887.5 489.5 889.293 500.414 888.082 516.248 887.5 527.368 886.918 538.487 887.151 551.349 887.5 563.75 883.058 570.128 874.134 579.373 862.831 588.5 848.627 588.444 837.328 588.623 824.922 588.5 812.516 588.377 801.234 588.299 788.5 588.5 787.724 579.107 789.617 569.439 788.5 552.86 787.383 536.281 789.162 529.305 788.5 514.25ZM788.5 514.25C801.401 515.881 816.422 513.07 824.922 514.25 833.423 515.43 850.34 515.043 862.831 514.25 870.074 505.14 874.161 500.571 887.5 489.5M862.831 514.25C863.332 530.269 862.972 540.371 862.831 549.89 862.691 559.409 861.183 577.466 862.831 588.5" stroke="#000000" stroke-width="1.33333" stroke-miterlimit="8" fill="none" fill-rule="evenodd"/><path d="M660.5 417C678.352 418.796 687.447 416.675 696.922 417 706.398 417.326 722.548 417.07 734.831 417 733.763 430.439 733.906 446.432 734.831 455.22 735.758 464.008 736.019 474.73 734.831 490.5 726.82 489.825 707.346 492.244 697.666 490.5 687.986 488.757 669.852 489.506 660.5 490.5 659.204 480.656 661.679 462.851 660.5 453.75 659.321 444.649 658.772 431.111 660.5 417Z" fill="#FFFFFF" fill-rule="evenodd"/><path d="M734.831 417C739.393 411.105 746.344 403.34 759.5 392.5 760.095 402.11 760.177 413.508 759.5 430.72 758.823 447.932 759.728 456.133 759.5 466 750.742 474.873 744.002 479.964 734.831 490.5 736.602 477.303 734.498 463.098 734.831 455.22 735.165 447.342 734.274 426.542 734.831 417Z" fill="#CDCDCD" fill-rule="evenodd"/><path d="M660.5 417C670.948 407.24 674.896 401.75 685.169 392.5 694.752 393.38 707.351 393.682 722.334 392.5 737.318 391.318 741.635 393.464 759.5 392.5 752.387 397.585 745.486 404.466 734.831 417 718.195 417.822 713.016 415.413 696.179 417 679.343 418.587 671.532 418.458 660.5 417Z" fill="#FFFFFF" fill-rule="evenodd"/><path d="M660.5 417C671.665 403.75 676.144 402.889 685.169 392.5 694.948 392.409 710.857 393.268 720.104 392.5 729.352 391.732 747.214 393.901 759.5 392.5 761.293 403.304 760.082 418.978 759.5 429.985 758.918 440.992 759.151 453.724 759.5 466 755.058 472.314 746.134 481.465 734.831 490.5 720.627 490.445 709.328 490.622 696.922 490.5 684.516 490.379 673.234 490.301 660.5 490.5 659.724 481.202 661.617 471.632 660.5 455.22 659.383 438.808 661.162 431.903 660.5 417ZM660.5 417C673.401 418.614 688.422 415.832 696.922 417 705.423 418.168 722.34 417.785 734.831 417 742.074 407.982 746.161 403.459 759.5 392.5M734.831 417C735.332 432.857 734.972 442.857 734.831 452.28 734.691 461.703 733.183 479.577 734.831 490.5" stroke="#000000" stroke-width="1.33333" stroke-miterlimit="8" fill="none" fill-rule="evenodd"/><path d="M734.5 417C752.352 418.796 761.447 416.675 770.922 417 780.398 417.326 796.548 417.07 808.831 417 807.763 430.439 807.906 446.432 808.831 455.22 809.758 464.008 810.019 474.73 808.831 490.5 800.82 489.825 781.346 492.244 771.666 490.5 761.986 488.757 743.852 489.506 734.5 490.5 733.204 480.656 735.679 462.851 734.5 453.75 733.321 444.649 732.772 431.111 734.5 417Z" fill="#FFFFFF" fill-rule="evenodd"/><path d="M808.831 417C813.393 411.105 820.344 403.34 833.5 392.5 834.095 402.11 834.177 413.508 833.5 430.72 832.823 447.932 833.728 456.133 833.5 466 824.742 474.873 818.002 479.964 808.831 490.5 810.602 477.303 808.498 463.098 808.831 455.22 809.165 447.342 808.274 426.542 808.831 417Z" fill="#CDCDCD" fill-rule="evenodd"/><path d="M734.5 417C744.948 407.24 748.896 401.75 759.169 392.5 768.752 393.38 781.351 393.682 796.334 392.5 811.318 391.318 815.635 393.464 833.5 392.5 826.387 397.585 819.486 404.466 808.831 417 792.195 417.822 787.016 415.413 770.179 417 753.343 418.587 745.532 418.458 734.5 417Z" fill="#FFFFFF" fill-rule="evenodd"/><path d="M734.5 417C745.665 403.75 750.144 402.889 759.169 392.5 768.948 392.409 784.857 393.268 794.104 392.5 803.352 391.732 821.214 393.901 833.5 392.5 835.293 403.304 834.082 418.978 833.5 429.985 832.918 440.992 833.151 453.724 833.5 466 829.058 472.314 820.134 481.465 808.831 490.5 794.627 490.445 783.328 490.622 770.922 490.5 758.516 490.379 747.234 490.301 734.5 490.5 733.724 481.202 735.617 471.632 734.5 455.22 733.383 438.808 735.162 431.903 734.5 417ZM734.5 417C747.401 418.614 762.422 415.832 770.922 417 779.423 418.168 796.34 417.785 808.831 417 816.074 407.982 820.161 403.459 833.5 392.5M808.831 417C809.332 432.857 808.972 442.857 808.831 452.28 808.691 461.703 807.183 479.577 808.831 490.5" stroke="#000000" stroke-width="1.33333" stroke-miterlimit="8" fill="none" fill-rule="evenodd"/><path d="M810.5 417C828.352 418.796 837.447 416.675 846.922 417 856.398 417.326 872.548 417.07 884.831 417 883.763 430.439 883.906 446.432 884.831 455.22 885.758 464.008 886.019 474.73 884.831 490.5 876.82 489.825 857.346 492.244 847.666 490.5 837.986 488.757 819.852 489.506 810.5 490.5 809.204 480.656 811.679 462.851 810.5 453.75 809.321 444.649 808.772 431.111 810.5 417Z" fill="#FFFFFF" fill-rule="evenodd"/><path d="M884.831 417C889.393 411.105 896.344 403.34 909.5 392.5 910.095 402.11 910.177 413.508 909.5 430.72 908.823 447.932 909.728 456.133 909.5 466 900.742 474.873 894.002 479.964 884.831 490.5 886.602 477.303 884.498 463.098 884.831 455.22 885.165 447.342 884.274 426.542 884.831 417Z" fill="#CDCDCD" fill-rule="evenodd"/><path d="M810.5 417C820.948 407.24 824.896 401.75 835.169 392.5 844.752 393.38 857.351 393.682 872.334 392.5 887.318 391.318 891.635 393.464 909.5 392.5 902.387 397.585 895.486 404.466 884.831 417 868.195 417.822 863.016 415.413 846.179 417 829.343 418.587 821.532 418.458 810.5 417Z" fill="#FFFFFF" fill-rule="evenodd"/><path d="M810.5 417C821.665 403.75 826.144 402.889 835.169 392.5 844.948 392.409 860.857 393.268 870.104 392.5 879.352 391.732 897.214 393.901 909.5 392.5 911.293 403.304 910.082 418.978 909.5 429.985 908.918 440.992 909.151 453.724 909.5 466 905.058 472.314 896.134 481.465 884.831 490.5 870.627 490.445 859.328 490.622 846.922 490.5 834.516 490.379 823.234 490.301 810.5 490.5 809.724 481.202 811.617 471.632 810.5 455.22 809.383 438.808 811.162 431.903 810.5 417ZM810.5 417C823.401 418.614 838.422 415.832 846.922 417 855.423 418.168 872.34 417.785 884.831 417 892.074 407.982 896.161 403.459 909.5 392.5M884.831 417C885.332 432.857 884.972 442.857 884.831 452.28 884.691 461.703 883.183 479.577 884.831 490.5" stroke="#000000" stroke-width="1.33333" stroke-miterlimit="8" fill="none" fill-rule="evenodd"/><path d="M640.5 440.25C658.352 442.064 667.447 439.921 676.922 440.25 686.398 440.579 702.548 440.321 714.831 440.25 713.763 453.826 713.906 469.982 714.831 478.86 715.758 487.738 716.019 498.569 714.831 514.5 706.82 513.818 687.346 516.261 677.666 514.5 667.986 512.739 649.852 513.495 640.5 514.5 639.204 504.556 641.679 486.569 640.5 477.375 639.321 468.181 638.772 454.505 640.5 440.25Z" fill="#FFFFFF" fill-rule="evenodd"/><path d="M714.831 440.25C719.393 434.295 726.344 426.451 739.5 415.5 740.095 425.209 740.177 436.722 739.5 454.11 738.823 471.498 739.728 479.782 739.5 489.75 730.742 498.713 724.002 503.857 714.831 514.5 716.602 501.169 714.498 486.819 714.831 478.86 715.165 470.902 714.274 449.89 714.831 440.25Z" fill="#CDCDCD" fill-rule="evenodd"/><path d="M640.5 440.25C650.948 430.391 654.896 424.844 665.169 415.5 674.752 416.389 687.351 416.695 702.334 415.5 717.318 414.306 721.635 416.474 739.5 415.5 732.387 420.637 725.486 427.588 714.831 440.25 698.195 441.08 693.016 438.647 676.179 440.25 659.343 441.853 651.532 441.723 640.5 440.25Z" fill="#FFFFFF" fill-rule="evenodd"/><path d="M640.5 440.25C651.665 426.865 656.144 425.995 665.169 415.5 674.948 415.408 690.857 416.276 700.104 415.5 709.352 414.724 727.214 416.916 739.5 415.5 741.293 426.414 740.082 442.248 739.5 453.368 738.918 464.487 739.151 477.349 739.5 489.75 735.058 496.128 726.134 505.373 714.831 514.5 700.627 514.444 689.328 514.623 676.922 514.5 664.516 514.377 653.234 514.299 640.5 514.5 639.724 505.107 641.617 495.439 640.5 478.86 639.383 462.281 641.162 455.305 640.5 440.25ZM640.5 440.25C653.401 441.881 668.422 439.07 676.922 440.25 685.423 441.43 702.34 441.043 714.831 440.25 722.074 431.14 726.161 426.571 739.5 415.5M714.831 440.25C715.332 456.269 714.972 466.371 714.831 475.89 714.691 485.409 713.183 503.466 714.831 514.5" stroke="#000000" stroke-width="1.33333" stroke-miterlimit="8" fill="none" fill-rule="evenodd"/><path d="M714.5 440.25C732.352 442.064 741.447 439.921 750.922 440.25 760.398 440.579 776.548 440.321 788.831 440.25 787.763 453.826 787.906 469.982 788.831 478.86 789.758 487.738 790.019 498.569 788.831 514.5 780.82 513.818 761.346 516.261 751.666 514.5 741.986 512.739 723.852 513.495 714.5 514.5 713.204 504.556 715.679 486.569 714.5 477.375 713.321 468.181 712.772 454.505 714.5 440.25Z" fill="#FFFFFF" fill-rule="evenodd"/><path d="M788.831 440.25C793.393 434.295 800.344 426.451 813.5 415.5 814.095 425.209 814.177 436.722 813.5 454.11 812.823 471.498 813.728 479.782 813.5 489.75 804.742 498.713 798.002 503.857 788.831 514.5 790.602 501.169 788.498 486.819 788.831 478.86 789.165 470.902 788.274 449.89 788.831 440.25Z" fill="#CDCDCD" fill-rule="evenodd"/><path d="M714.5 440.25C724.948 430.391 728.896 424.844 739.169 415.5 748.752 416.389 761.351 416.695 776.334 415.5 791.318 414.306 795.635 416.474 813.5 415.5 806.387 420.637 799.486 427.588 788.831 440.25 772.195 441.08 767.016 438.647 750.179 440.25 733.343 441.853 725.532 441.723 714.5 440.25Z" fill="#FFFFFF" fill-rule="evenodd"/><path d="M714.5 440.25C725.665 426.865 730.144 425.995 739.169 415.5 748.948 415.408 764.857 416.276 774.104 415.5 783.352 414.724 801.214 416.916 813.5 415.5 815.293 426.414 814.082 442.248 813.5 453.368 812.918 464.487 813.151 477.349 813.5 489.75 809.058 496.128 800.134 505.373 788.831 514.5 774.627 514.444 763.328 514.623 750.922 514.5 738.516 514.377 727.234 514.299 714.5 514.5 713.724 505.107 715.617 495.439 714.5 478.86 713.383 462.281 715.162 455.305 714.5 440.25ZM714.5 440.25C727.401 441.881 742.422 439.07 750.922 440.25 759.423 441.43 776.34 441.043 788.831 440.25 796.074 431.14 800.161 426.571 813.5 415.5M788.831 440.25C789.332 456.269 788.972 466.371 788.831 475.89 788.691 485.409 787.183 503.466 788.831 514.5" stroke="#000000" stroke-width="1.33333" stroke-miterlimit="8" fill="none" fill-rule="evenodd"/><path d="M787.5 440.25C805.352 442.064 814.447 439.921 823.922 440.25 833.398 440.579 849.548 440.321 861.831 440.25 860.763 453.826 860.906 469.982 861.831 478.86 862.758 487.738 863.019 498.569 861.831 514.5 853.82 513.818 834.346 516.261 824.666 514.5 814.986 512.739 796.852 513.495 787.5 514.5 786.204 504.556 788.679 486.569 787.5 477.375 786.321 468.181 785.772 454.505 787.5 440.25Z" fill="#FFFFFF" fill-rule="evenodd"/><path d="M861.831 440.25C866.393 434.295 873.344 426.451 886.5 415.5 887.095 425.209 887.177 436.722 886.5 454.11 885.823 471.498 886.728 479.782 886.5 489.75 877.742 498.713 871.002 503.857 861.831 514.5 863.602 501.169 861.498 486.819 861.831 478.86 862.165 470.902 861.274 449.89 861.831 440.25Z" fill="#CDCDCD" fill-rule="evenodd"/><path d="M787.5 440.25C797.948 430.391 801.896 424.844 812.169 415.5 821.752 416.389 834.351 416.695 849.334 415.5 864.318 414.306 868.635 416.474 886.5 415.5 879.387 420.637 872.486 427.588 861.831 440.25 845.195 441.08 840.016 438.647 823.179 440.25 806.343 441.853 798.532 441.723 787.5 440.25Z" fill="#FFFFFF" fill-rule="evenodd"/><path d="M787.5 440.25C798.665 426.865 803.144 425.995 812.169 415.5 821.948 415.408 837.857 416.276 847.104 415.5 856.352 414.724 874.214 416.916 886.5 415.5 888.293 426.414 887.082 442.248 886.5 453.368 885.918 464.487 886.151 477.349 886.5 489.75 882.058 496.128 873.134 505.373 861.831 514.5 847.627 514.444 836.328 514.623 823.922 514.5 811.516 514.377 800.234 514.299 787.5 514.5 786.724 505.107 788.617 495.439 787.5 478.86 786.383 462.281 788.162 455.305 787.5 440.25ZM787.5 440.25C800.401 441.881 815.422 439.07 823.922 440.25 832.423 441.43 849.34 441.043 861.831 440.25 869.074 431.14 873.161 426.571 886.5 415.5M861.831 440.25C862.332 456.269 861.972 466.371 861.831 475.89 861.691 485.409 860.183 503.466 861.831 514.5" stroke="#000000" stroke-width="1.33333" stroke-miterlimit="8" fill="none" fill-rule="evenodd"/><path d="M662.5 344.25C680.352 346.064 689.447 343.921 698.922 344.25 708.398 344.579 724.548 344.321 736.831 344.25 735.763 357.826 735.906 373.982 736.831 382.86 737.758 391.738 738.019 402.569 736.831 418.5 728.82 417.818 709.346 420.261 699.666 418.5 689.986 416.739 671.852 417.495 662.5 418.5 661.204 408.556 663.679 390.569 662.5 381.375 661.321 372.181 660.772 358.505 662.5 344.25Z" fill="#FFFFFF" fill-rule="evenodd"/><path d="M736.831 344.25C741.393 338.295 748.344 330.451 761.5 319.5 762.095 329.209 762.177 340.722 761.5 358.11 760.823 375.498 761.728 383.782 761.5 393.75 752.742 402.713 746.002 407.857 736.831 418.5 738.602 405.169 736.498 390.819 736.831 382.86 737.165 374.902 736.274 353.89 736.831 344.25Z" fill="#CDCDCD" fill-rule="evenodd"/><path d="M662.5 344.25C672.948 334.391 676.896 328.844 687.169 319.5 696.752 320.389 709.351 320.695 724.334 319.5 739.318 318.306 743.635 320.474 761.5 319.5 754.387 324.637 747.486 331.588 736.831 344.25 720.195 345.08 715.016 342.647 698.179 344.25 681.343 345.853 673.532 345.723 662.5 344.25Z" fill="#FFFFFF" fill-rule="evenodd"/><path d="M662.5 344.25C673.665 330.865 678.144 329.995 687.169 319.5 696.948 319.408 712.857 320.276 722.104 319.5 731.352 318.724 749.214 320.916 761.5 319.5 763.293 330.414 762.082 346.248 761.5 357.368 760.918 368.487 761.151 381.349 761.5 393.75 757.058 400.128 748.134 409.373 736.831 418.5 722.627 418.444 711.328 418.623 698.922 418.5 686.516 418.377 675.234 418.299 662.5 418.5 661.724 409.107 663.617 399.439 662.5 382.86 661.383 366.281 663.162 359.305 662.5 344.25ZM662.5 344.25C675.401 345.881 690.422 343.07 698.922 344.25 707.423 345.43 724.34 345.043 736.831 344.25 744.074 335.14 748.161 330.571 761.5 319.5M736.831 344.25C737.332 360.269 736.972 370.371 736.831 379.89 736.691 389.409 735.183 407.466 736.831 418.5" stroke="#000000" stroke-width="1.33333" stroke-miterlimit="8" fill="none" fill-rule="evenodd"/><path d="M736.5 344.25C754.352 346.064 763.447 343.921 772.922 344.25 782.398 344.579 798.548 344.321 810.831 344.25 809.763 357.826 809.906 373.982 810.831 382.86 811.758 391.738 812.019 402.569 810.831 418.5 802.82 417.818 783.346 420.261 773.666 418.5 763.986 416.739 745.852 417.495 736.5 418.5 735.204 408.556 737.679 390.569 736.5 381.375 735.321 372.181 734.772 358.505 736.5 344.25Z" fill="#FFFFFF" fill-rule="evenodd"/><path d="M810.831 344.25C815.393 338.295 822.344 330.451 835.5 319.5 836.095 329.209 836.177 340.722 835.5 358.11 834.823 375.498 835.728 383.782 835.5 393.75 826.742 402.713 820.002 407.857 810.831 418.5 812.602 405.169 810.498 390.819 810.831 382.86 811.165 374.902 810.274 353.89 810.831 344.25Z" fill="#CDCDCD" fill-rule="evenodd"/><path d="M736.5 344.25C746.948 334.391 750.896 328.844 761.169 319.5 770.752 320.389 783.351 320.695 798.334 319.5 813.318 318.306 817.635 320.474 835.5 319.5 828.387 324.637 821.486 331.588 810.831 344.25 794.195 345.08 789.016 342.647 772.179 344.25 755.343 345.853 747.532 345.723 736.5 344.25Z" fill="#FFFFFF" fill-rule="evenodd"/><path d="M736.5 344.25C747.665 330.865 752.144 329.995 761.169 319.5 770.948 319.408 786.857 320.276 796.104 319.5 805.352 318.724 823.214 320.916 835.5 319.5 837.293 330.414 836.082 346.248 835.5 357.368 834.918 368.487 835.151 381.349 835.5 393.75 831.058 400.128 822.134 409.373 810.831 418.5 796.627 418.444 785.328 418.623 772.922 418.5 760.516 418.377 749.234 418.299 736.5 418.5 735.724 409.107 737.617 399.439 736.5 382.86 735.383 366.281 737.162 359.305 736.5 344.25ZM736.5 344.25C749.401 345.881 764.422 343.07 772.922 344.25 781.423 345.43 798.34 345.043 810.831 344.25 818.074 335.14 822.161 330.571 835.5 319.5M810.831 344.25C811.332 360.269 810.972 370.371 810.831 379.89 810.691 389.409 809.183 407.466 810.831 418.5" stroke="#000000" stroke-width="1.33333" stroke-miterlimit="8" fill="none" fill-rule="evenodd"/><path d="M812.5 344.25C830.352 346.064 839.447 343.921 848.922 344.25 858.398 344.579 874.548 344.321 886.831 344.25 885.763 357.826 885.906 373.982 886.831 382.86 887.758 391.738 888.019 402.569 886.831 418.5 878.82 417.818 859.346 420.261 849.666 418.5 839.986 416.739 821.852 417.495 812.5 418.5 811.204 408.556 813.679 390.569 812.5 381.375 811.321 372.181 810.772 358.505 812.5 344.25Z" fill="#FFFFFF" fill-rule="evenodd"/><path d="M886.831 344.25C891.393 338.295 898.344 330.451 911.5 319.5 912.095 329.209 912.177 340.722 911.5 358.11 910.823 375.498 911.728 383.782 911.5 393.75 902.742 402.713 896.002 407.857 886.831 418.5 888.602 405.169 886.498 390.819 886.831 382.86 887.165 374.902 886.274 353.89 886.831 344.25Z" fill="#CDCDCD" fill-rule="evenodd"/><path d="M812.5 344.25C822.948 334.391 826.896 328.844 837.169 319.5 846.752 320.389 859.351 320.695 874.334 319.5 889.318 318.306 893.635 320.474 911.5 319.5 904.387 324.637 897.486 331.588 886.831 344.25 870.195 345.08 865.016 342.647 848.179 344.25 831.343 345.853 823.532 345.723 812.5 344.25Z" fill="#FFFFFF" fill-rule="evenodd"/><path d="M812.5 344.25C823.665 330.865 828.144 329.995 837.169 319.5 846.948 319.408 862.857 320.276 872.104 319.5 881.352 318.724 899.214 320.916 911.5 319.5 913.293 330.414 912.082 346.248 911.5 357.368 910.918 368.487 911.151 381.349 911.5 393.75 907.058 400.128 898.134 409.373 886.831 418.5 872.627 418.444 861.328 418.623 848.922 418.5 836.516 418.377 825.234 418.299 812.5 418.5 811.724 409.107 813.617 399.439 812.5 382.86 811.383 366.281 813.162 359.305 812.5 344.25ZM812.5 344.25C825.401 345.881 840.422 343.07 848.922 344.25 857.423 345.43 874.34 345.043 886.831 344.25 894.074 335.14 898.161 330.571 911.5 319.5M886.831 344.25C887.332 360.269 886.972 370.371 886.831 379.89 886.691 389.409 885.183 407.466 886.831 418.5" stroke="#000000" stroke-width="1.33333" stroke-miterlimit="8" fill="none" fill-rule="evenodd"/><path d="M641.5 367.25C659.352 369.064 668.447 366.921 677.922 367.25 687.398 367.579 703.548 367.321 715.831 367.25 714.763 380.826 714.906 396.982 715.831 405.86 716.758 414.738 717.019 425.569 715.831 441.5 707.82 440.818 688.346 443.261 678.666 441.5 668.986 439.739 650.852 440.495 641.5 441.5 640.204 431.556 642.679 413.569 641.5 404.375 640.321 395.181 639.772 381.505 641.5 367.25Z" fill="#FFFFFF" fill-rule="evenodd"/><path d="M715.831 367.25C720.393 361.295 727.344 353.451 740.5 342.5 741.095 352.209 741.177 363.722 740.5 381.11 739.823 398.498 740.728 406.782 740.5 416.75 731.742 425.713 725.002 430.857 715.831 441.5 717.602 428.169 715.498 413.819 715.831 405.86 716.165 397.902 715.274 376.89 715.831 367.25Z" fill="#CDCDCD" fill-rule="evenodd"/><path d="M641.5 367.25C651.948 357.391 655.896 351.844 666.169 342.5 675.752 343.389 688.351 343.695 703.334 342.5 718.318 341.306 722.635 343.474 740.5 342.5 733.387 347.637 726.486 354.588 715.831 367.25 699.195 368.08 694.016 365.647 677.179 367.25 660.343 368.853 652.532 368.723 641.5 367.25Z" fill="#FFFFFF" fill-rule="evenodd"/><path d="M641.5 367.25C652.665 353.865 657.144 352.995 666.169 342.5 675.948 342.408 691.857 343.276 701.104 342.5 710.352 341.724 728.214 343.916 740.5 342.5 742.293 353.414 741.082 369.248 740.5 380.368 739.918 391.487 740.151 404.349 740.5 416.75 736.058 423.128 727.134 432.373 715.831 441.5 701.627 441.444 690.328 441.623 677.922 441.5 665.516 441.377 654.234 441.299 641.5 441.5 640.724 432.107 642.617 422.439 641.5 405.86 640.383 389.281 642.162 382.305 641.5 367.25ZM641.5 367.25C654.401 368.881 669.422 366.07 677.922 367.25 686.423 368.43 703.34 368.043 715.831 367.25 723.074 358.14 727.161 353.571 740.5 342.5M715.831 367.25C716.332 383.269 715.972 393.371 715.831 402.89 715.691 412.409 714.183 430.466 715.831 441.5" stroke="#000000" stroke-width="1.33333" stroke-miterlimit="8" fill="none" fill-rule="evenodd"/><path d="M715.5 367.25C733.352 369.064 742.447 366.921 751.922 367.25 761.398 367.579 777.548 367.321 789.831 367.25 788.763 380.826 788.906 396.982 789.831 405.86 790.758 414.738 791.019 425.569 789.831 441.5 781.82 440.818 762.346 443.261 752.666 441.5 742.986 439.739 724.852 440.495 715.5 441.5 714.204 431.556 716.679 413.569 715.5 404.375 714.321 395.181 713.772 381.505 715.5 367.25Z" fill="#FFFFFF" fill-rule="evenodd"/><path d="M789.831 367.25C794.393 361.295 801.344 353.451 814.5 342.5 815.095 352.209 815.177 363.722 814.5 381.11 813.823 398.498 814.728 406.782 814.5 416.75 805.742 425.713 799.002 430.857 789.831 441.5 791.602 428.169 789.498 413.819 789.831 405.86 790.165 397.902 789.274 376.89 789.831 367.25Z" fill="#CDCDCD" fill-rule="evenodd"/><path d="M715.5 367.25C725.948 357.391 729.896 351.844 740.169 342.5 749.752 343.389 762.351 343.695 777.334 342.5 792.318 341.306 796.635 343.474 814.5 342.5 807.387 347.637 800.486 354.588 789.831 367.25 773.195 368.08 768.016 365.647 751.179 367.25 734.343 368.853 726.532 368.723 715.5 367.25Z" fill="#FFFFFF" fill-rule="evenodd"/><path d="M715.5 367.25C726.665 353.865 731.144 352.995 740.169 342.5 749.948 342.408 765.857 343.276 775.104 342.5 784.352 341.724 802.214 343.916 814.5 342.5 816.293 353.414 815.082 369.248 814.5 380.368 813.918 391.487 814.151 404.349 814.5 416.75 810.058 423.128 801.134 432.373 789.831 441.5 775.627 441.444 764.328 441.623 751.922 441.5 739.516 441.377 728.234 441.299 715.5 441.5 714.724 432.107 716.617 422.439 715.5 405.86 714.383 389.281 716.162 382.305 715.5 367.25ZM715.5 367.25C728.401 368.881 743.422 366.07 751.922 367.25 760.423 368.43 777.34 368.043 789.831 367.25 797.074 358.14 801.161 353.571 814.5 342.5M789.831 367.25C790.332 383.269 789.972 393.371 789.831 402.89 789.691 412.409 788.183 430.466 789.831 441.5" stroke="#000000" stroke-width="1.33333" stroke-miterlimit="8" fill="none" fill-rule="evenodd"/><path d="M788.5 367.25C806.352 369.064 815.447 366.921 824.922 367.25 834.398 367.579 850.548 367.321 862.831 367.25 861.763 380.826 861.906 396.982 862.831 405.86 863.758 414.738 864.019 425.569 862.831 441.5 854.82 440.818 835.346 443.261 825.666 441.5 815.986 439.739 797.852 440.495 788.5 441.5 787.204 431.556 789.679 413.569 788.5 404.375 787.321 395.181 786.772 381.505 788.5 367.25Z" fill="#FFFFFF" fill-rule="evenodd"/><path d="M862.831 367.25C867.393 361.295 874.344 353.451 887.5 342.5 888.095 352.209 888.177 363.722 887.5 381.11 886.823 398.498 887.728 406.782 887.5 416.75 878.742 425.713 872.002 430.857 862.831 441.5 864.602 428.169 862.498 413.819 862.831 405.86 863.165 397.902 862.274 376.89 862.831 367.25Z" fill="#CDCDCD" fill-rule="evenodd"/><path d="M788.5 367.25C798.948 357.391 802.896 351.844 813.169 342.5 822.752 343.389 835.351 343.695 850.334 342.5 865.318 341.306 869.635 343.474 887.5 342.5 880.387 347.637 873.486 354.588 862.831 367.25 846.195 368.08 841.016 365.647 824.179 367.25 807.343 368.853 799.532 368.723 788.5 367.25Z" fill="#FFFFFF" fill-rule="evenodd"/><path d="M788.5 367.25C799.665 353.865 804.144 352.995 813.169 342.5 822.948 342.408 838.857 343.276 848.104 342.5 857.352 341.724 875.214 343.916 887.5 342.5 889.293 353.414 888.082 369.248 887.5 380.368 886.918 391.487 887.151 404.349 887.5 416.75 883.058 423.128 874.134 432.373 862.831 441.5 848.627 441.444 837.328 441.623 824.922 441.5 812.516 441.377 801.234 441.299 788.5 441.5 787.724 432.107 789.617 422.439 788.5 405.86 787.383 389.281 789.162 382.305 788.5 367.25ZM788.5 367.25C801.401 368.881 816.422 366.07 824.922 367.25 833.423 368.43 850.34 368.043 862.831 367.25 870.074 358.14 874.161 353.571 887.5 342.5M862.831 367.25C863.332 383.269 862.972 393.371 862.831 402.89 862.691 412.409 861.183 430.466 862.831 441.5" stroke="#000000" stroke-width="1.33333" stroke-miterlimit="8" fill="none" fill-rule="evenodd"/><path d="M663.5 269C681.352 270.796 690.447 268.675 699.922 269 709.398 269.326 725.548 269.07 737.831 269 736.763 282.439 736.906 298.432 737.831 307.22 738.758 316.008 739.019 326.73 737.831 342.5 729.82 341.825 710.346 344.244 700.666 342.5 690.986 340.757 672.852 341.506 663.5 342.5 662.204 332.656 664.679 314.851 663.5 305.75 662.321 296.649 661.772 283.111 663.5 269Z" fill="#FFFFFF" fill-rule="evenodd"/><path d="M737.831 269C742.393 263.105 749.344 255.34 762.5 244.5 763.095 254.11 763.177 265.508 762.5 282.72 761.823 299.932 762.728 308.133 762.5 318 753.742 326.873 747.002 331.964 737.831 342.5 739.602 329.303 737.498 315.098 737.831 307.22 738.165 299.342 737.274 278.542 737.831 269Z" fill="#CDCDCD" fill-rule="evenodd"/><path d="M663.5 269C673.948 259.24 677.896 253.75 688.169 244.5 697.752 245.38 710.351 245.682 725.334 244.5 740.318 243.318 744.635 245.464 762.5 244.5 755.387 249.585 748.486 256.466 737.831 269 721.195 269.822 716.016 267.413 699.179 269 682.343 270.587 674.532 270.458 663.5 269Z" fill="#FFFFFF" fill-rule="evenodd"/><path d="M663.5 269C674.665 255.75 679.144 254.889 688.169 244.5 697.948 244.409 713.857 245.268 723.104 244.5 732.352 243.732 750.214 245.901 762.5 244.5 764.293 255.304 763.082 270.978 762.5 281.985 761.918 292.992 762.151 305.724 762.5 318 758.058 324.314 749.134 333.465 737.831 342.5 723.627 342.445 712.328 342.622 699.922 342.5 687.516 342.379 676.234 342.301 663.5 342.5 662.724 333.202 664.617 323.632 663.5 307.22 662.383 290.808 664.162 283.903 663.5 269ZM663.5 269C676.401 270.614 691.422 267.832 699.922 269 708.423 270.168 725.34 269.785 737.831 269 745.074 259.982 749.161 255.459 762.5 244.5M737.831 269C738.332 284.857 737.972 294.857 737.831 304.28 737.691 313.703 736.183 331.577 737.831 342.5" stroke="#000000" stroke-width="1.33333" stroke-miterlimit="8" fill="none" fill-rule="evenodd"/><path d="M736.5 269C754.352 270.796 763.447 268.675 772.922 269 782.398 269.326 798.548 269.07 810.831 269 809.763 282.439 809.906 298.432 810.831 307.22 811.758 316.008 812.019 326.73 810.831 342.5 802.82 341.825 783.346 344.244 773.666 342.5 763.986 340.757 745.852 341.506 736.5 342.5 735.204 332.656 737.679 314.851 736.5 305.75 735.321 296.649 734.772 283.111 736.5 269Z" fill="#FFFFFF" fill-rule="evenodd"/><path d="M810.831 269C815.393 263.105 822.344 255.34 835.5 244.5 836.095 254.11 836.177 265.508 835.5 282.72 834.823 299.932 835.728 308.133 835.5 318 826.742 326.873 820.002 331.964 810.831 342.5 812.602 329.303 810.498 315.098 810.831 307.22 811.165 299.342 810.274 278.542 810.831 269Z" fill="#CDCDCD" fill-rule="evenodd"/><path d="M736.5 269C746.948 259.24 750.896 253.75 761.169 244.5 770.752 245.38 783.351 245.682 798.334 244.5 813.318 243.318 817.635 245.464 835.5 244.5 828.387 249.585 821.486 256.466 810.831 269 794.195 269.822 789.016 267.413 772.179 269 755.343 270.587 747.532 270.458 736.5 269Z" fill="#FFFFFF" fill-rule="evenodd"/><path d="M736.5 269C747.665 255.75 752.144 254.889 761.169 244.5 770.948 244.409 786.857 245.268 796.104 244.5 805.352 243.732 823.214 245.901 835.5 244.5 837.293 255.304 836.082 270.978 835.5 281.985 834.918 292.992 835.151 305.724 835.5 318 831.058 324.314 822.134 333.465 810.831 342.5 796.627 342.445 785.328 342.622 772.922 342.5 760.516 342.379 749.234 342.301 736.5 342.5 735.724 333.202 737.617 323.632 736.5 307.22 735.383 290.808 737.162 283.903 736.5 269ZM736.5 269C749.401 270.614 764.422 267.832 772.922 269 781.423 270.168 798.34 269.785 810.831 269 818.074 259.982 822.161 255.459 835.5 244.5M810.831 269C811.332 284.857 810.972 294.857 810.831 304.28 810.691 313.703 809.183 331.577 810.831 342.5" stroke="#000000" stroke-width="1.33333" stroke-miterlimit="8" fill="none" fill-rule="evenodd"/><path d="M812.5 269C830.352 270.796 839.447 268.675 848.922 269 858.398 269.326 874.548 269.07 886.831 269 885.763 282.439 885.906 298.432 886.831 307.22 887.758 316.008 888.019 326.73 886.831 342.5 878.82 341.825 859.346 344.244 849.666 342.5 839.986 340.757 821.852 341.506 812.5 342.5 811.204 332.656 813.679 314.851 812.5 305.75 811.321 296.649 810.772 283.111 812.5 269Z" fill="#FFFFFF" fill-rule="evenodd"/><path d="M886.831 269C891.393 263.105 898.344 255.34 911.5 244.5 912.095 254.11 912.177 265.508 911.5 282.72 910.823 299.932 911.728 308.133 911.5 318 902.742 326.873 896.002 331.964 886.831 342.5 888.602 329.303 886.498 315.098 886.831 307.22 887.165 299.342 886.274 278.542 886.831 269Z" fill="#CDCDCD" fill-rule="evenodd"/><path d="M812.5 269C822.948 259.24 826.896 253.75 837.169 244.5 846.752 245.38 859.351 245.682 874.334 244.5 889.318 243.318 893.635 245.464 911.5 244.5 904.387 249.585 897.486 256.466 886.831 269 870.195 269.822 865.016 267.413 848.179 269 831.343 270.587 823.532 270.458 812.5 269Z" fill="#FFFFFF" fill-rule="evenodd"/><path d="M812.5 269C823.665 255.75 828.144 254.889 837.169 244.5 846.948 244.409 862.857 245.268 872.104 244.5 881.352 243.732 899.214 245.901 911.5 244.5 913.293 255.304 912.082 270.978 911.5 281.985 910.918 292.992 911.151 305.724 911.5 318 907.058 324.314 898.134 333.465 886.831 342.5 872.627 342.445 861.328 342.622 848.922 342.5 836.516 342.379 825.234 342.301 812.5 342.5 811.724 333.202 813.617 323.632 812.5 307.22 811.383 290.808 813.162 283.903 812.5 269ZM812.5 269C825.401 270.614 840.422 267.832 848.922 269 857.423 270.168 874.34 269.785 886.831 269 894.074 259.982 898.161 255.459 911.5 244.5M886.831 269C887.332 284.857 886.972 294.857 886.831 304.28 886.691 313.703 885.183 331.577 886.831 342.5" stroke="#000000" stroke-width="1.33333" stroke-miterlimit="8" fill="none" fill-rule="evenodd"/><path d="M640.5 292.25C658.352 294.064 667.447 291.921 676.922 292.25 686.398 292.579 702.548 292.321 714.831 292.25 713.763 305.826 713.906 321.982 714.831 330.86 715.758 339.738 716.019 350.569 714.831 366.5 706.82 365.818 687.346 368.261 677.666 366.5 667.986 364.739 649.852 365.495 640.5 366.5 639.204 356.556 641.679 338.569 640.5 329.375 639.321 320.181 638.772 306.505 640.5 292.25Z" fill="#FFFFFF" fill-rule="evenodd"/><path d="M714.831 292.25C719.393 286.295 726.344 278.451 739.5 267.5 740.095 277.209 740.177 288.722 739.5 306.11 738.823 323.498 739.728 331.782 739.5 341.75 730.742 350.713 724.002 355.857 714.831 366.5 716.602 353.169 714.498 338.819 714.831 330.86 715.165 322.902 714.274 301.89 714.831 292.25Z" fill="#CDCDCD" fill-rule="evenodd"/><path d="M640.5 292.25C650.948 282.391 654.896 276.844 665.169 267.5 674.752 268.389 687.351 268.695 702.334 267.5 717.318 266.306 721.635 268.474 739.5 267.5 732.387 272.637 725.486 279.588 714.831 292.25 698.195 293.08 693.016 290.647 676.179 292.25 659.343 293.853 651.532 293.723 640.5 292.25Z" fill="#FFFFFF" fill-rule="evenodd"/><path d="M640.5 292.25C651.665 278.865 656.144 277.995 665.169 267.5 674.948 267.408 690.857 268.276 700.104 267.5 709.352 266.724 727.214 268.916 739.5 267.5 741.293 278.414 740.082 294.248 739.5 305.368 738.918 316.487 739.151 329.349 739.5 341.75 735.058 348.128 726.134 357.373 714.831 366.5 700.627 366.444 689.328 366.623 676.922 366.5 664.516 366.377 653.234 366.299 640.5 366.5 639.724 357.107 641.617 347.439 640.5 330.86 639.383 314.281 641.162 307.305 640.5 292.25ZM640.5 292.25C653.401 293.881 668.422 291.07 676.922 292.25 685.423 293.43 702.34 293.043 714.831 292.25 722.074 283.14 726.161 278.571 739.5 267.5M714.831 292.25C715.332 308.269 714.972 318.371 714.831 327.89 714.691 337.409 713.183 355.466 714.831 366.5" stroke="#000000" stroke-width="1.33333" stroke-miterlimit="8" fill="none" fill-rule="evenodd"/><path d="M715.5 292.25C733.352 294.064 742.447 291.921 751.922 292.25 761.398 292.579 777.548 292.321 789.831 292.25 788.763 305.826 788.906 321.982 789.831 330.86 790.758 339.738 791.019 350.569 789.831 366.5 781.82 365.818 762.346 368.261 752.666 366.5 742.986 364.739 724.852 365.495 715.5 366.5 714.204 356.556 716.679 338.569 715.5 329.375 714.321 320.181 713.772 306.505 715.5 292.25Z" fill="#FFFFFF" fill-rule="evenodd"/><path d="M789.831 292.25C794.393 286.295 801.344 278.451 814.5 267.5 815.095 277.209 815.177 288.722 814.5 306.11 813.823 323.498 814.728 331.782 814.5 341.75 805.742 350.713 799.002 355.857 789.831 366.5 791.602 353.169 789.498 338.819 789.831 330.86 790.165 322.902 789.274 301.89 789.831 292.25Z" fill="#CDCDCD" fill-rule="evenodd"/><path d="M715.5 292.25C725.948 282.391 729.896 276.844 740.169 267.5 749.752 268.389 762.351 268.695 777.334 267.5 792.318 266.306 796.635 268.474 814.5 267.5 807.387 272.637 800.486 279.588 789.831 292.25 773.195 293.08 768.016 290.647 751.179 292.25 734.343 293.853 726.532 293.723 715.5 292.25Z" fill="#FFFFFF" fill-rule="evenodd"/><path d="M715.5 292.25C726.665 278.865 731.144 277.995 740.169 267.5 749.948 267.408 765.857 268.276 775.104 267.5 784.352 266.724 802.214 268.916 814.5 267.5 816.293 278.414 815.082 294.248 814.5 305.368 813.918 316.487 814.151 329.349 814.5 341.75 810.058 348.128 801.134 357.373 789.831 366.5 775.627 366.444 764.328 366.623 751.922 366.5 739.516 366.377 728.234 366.299 715.5 366.5 714.724 357.107 716.617 347.439 715.5 330.86 714.383 314.281 716.162 307.305 715.5 292.25ZM715.5 292.25C728.401 293.881 743.422 291.07 751.922 292.25 760.423 293.43 777.34 293.043 789.831 292.25 797.074 283.14 801.161 278.571 814.5 267.5M789.831 292.25C790.332 308.269 789.972 318.371 789.831 327.89 789.691 337.409 788.183 355.466 789.831 366.5" stroke="#000000" stroke-width="1.33333" stroke-miterlimit="8" fill="none" fill-rule="evenodd"/><path d="M788.5 292.25C806.352 294.064 815.447 291.921 824.922 292.25 834.398 292.579 850.548 292.321 862.831 292.25 861.763 305.826 861.906 321.982 862.831 330.86 863.758 339.738 864.019 350.569 862.831 366.5 854.82 365.818 835.346 368.261 825.666 366.5 815.986 364.739 797.852 365.495 788.5 366.5 787.204 356.556 789.679 338.569 788.5 329.375 787.321 320.181 786.772 306.505 788.5 292.25Z" fill="#FFFFFF" fill-rule="evenodd"/><path d="M862.831 292.25C867.393 286.295 874.344 278.451 887.5 267.5 888.095 277.209 888.177 288.722 887.5 306.11 886.823 323.498 887.728 331.782 887.5 341.75 878.742 350.713 872.002 355.857 862.831 366.5 864.602 353.169 862.498 338.819 862.831 330.86 863.165 322.902 862.274 301.89 862.831 292.25Z" fill="#CDCDCD" fill-rule="evenodd"/><path d="M788.5 292.25C798.948 282.391 802.896 276.844 813.169 267.5 822.752 268.389 835.351 268.695 850.334 267.5 865.318 266.306 869.635 268.474 887.5 267.5 880.387 272.637 873.486 279.588 862.831 292.25 846.195 293.08 841.016 290.647 824.179 292.25 807.343 293.853 799.532 293.723 788.5 292.25Z" fill="#FFFFFF" fill-rule="evenodd"/><path d="M788.5 292.25C799.665 278.865 804.144 277.995 813.169 267.5 822.948 267.408 838.857 268.276 848.104 267.5 857.352 266.724 875.214 268.916 887.5 267.5 889.293 278.414 888.082 294.248 887.5 305.368 886.918 316.487 887.151 329.349 887.5 341.75 883.058 348.128 874.134 357.373 862.831 366.5 848.627 366.444 837.328 366.623 824.922 366.5 812.516 366.377 801.234 366.299 788.5 366.5 787.724 357.107 789.617 347.439 788.5 330.86 787.383 314.281 789.162 307.305 788.5 292.25ZM788.5 292.25C801.401 293.881 816.422 291.07 824.922 292.25 833.423 293.43 850.34 293.043 862.831 292.25 870.074 283.14 874.161 278.571 887.5 267.5M862.831 292.25C863.332 308.269 862.972 318.371 862.831 327.89 862.691 337.409 861.183 355.466 862.831 366.5" stroke="#000000" stroke-width="1.33333" stroke-miterlimit="8" fill="none" fill-rule="evenodd"/><path d="M641 293.598C662.724 272.336 664.385 266.595 686.73 248 700.435 245.632 733.626 245.227 747.013 248 760.4 250.773 773.142 248.498 796.132 248 819.123 247.502 840.961 248.87 854.182 248 867.404 247.13 884.692 245.575 910 248 910.967 276.304 910.317 278.639 910 306.88 909.683 335.121 910.009 341.125 910 365.761 909.991 390.397 912.016 392.28 910 415.809 907.984 439.338 907.251 450.383 910 474.69 912.749 498.997 910.497 512.292 910 542.402 899.621 553.076 885.298 568.138 864.27 588 843.699 589.887 825.935 585.559 815.151 588 804.366 590.441 784.596 588.372 761.566 588 738.536 587.628 726.25 587.724 705.748 588 685.247 588.276 669.229 584.86 641 588 640.028 573.573 640.548 557.933 641 532.064 641.452 506.194 643.105 494.625 641 467.295 638.895 439.965 640.582 440.765 641 414.303 641.418 387.84 643.789 364.077 641 349.534 638.211 334.991 639.04 316.771 641 293.598ZM641 293.598C654.357 293.041 686.36 293.217 701.283 293.598 716.206 293.978 732.172 294.835 754.868 293.598 777.563 292.361 802.814 293.979 815.151 293.598 827.487 293.217 844.84 293.193 864.27 293.598 885.522 270.581 891.701 269.651 910 248M864.27 293.598C864.962 309.364 863.049 330.665 864.27 343.646 865.491 356.628 862.852 384.447 864.27 402.527 865.688 420.606 863.458 447.474 864.27 461.407 865.082 475.34 863.599 500.579 864.27 520.288 864.941 539.996 866.021 569.005 864.27 588" stroke="#000000" stroke-width="2" stroke-miterlimit="8" fill="none" fill-rule="evenodd"/><path d="M258 293.598C279.643 272.336 281.298 266.595 303.56 248 317.214 245.632 350.282 245.227 363.619 248 376.956 250.773 389.651 248.498 412.556 248 435.461 247.502 457.218 248.87 470.39 248 483.562 247.13 500.786 245.575 526 248 526.964 276.304 526.316 278.639 526 306.88 525.684 335.121 526.009 341.125 526 365.761 525.991 390.397 528.008 392.28 526 415.809 523.992 439.338 523.261 450.383 526 474.69 528.739 498.997 526.496 512.292 526 542.402 515.659 553.076 501.39 568.138 480.44 588 459.946 589.887 442.247 585.559 431.503 588 420.759 590.441 401.062 588.372 378.118 588 355.173 587.628 342.933 587.724 322.508 588 302.083 588.276 286.124 584.86 258 588 257.031 573.573 257.55 557.933 258 532.064 258.45 506.194 260.097 494.625 258 467.295 255.903 439.965 257.583 440.765 258 414.303 258.417 387.84 260.778 364.077 258 349.534 255.222 334.991 256.047 316.771 258 293.598ZM258 293.598C271.307 293.041 303.192 293.217 318.059 293.598 332.926 293.978 348.833 294.835 371.444 293.598 394.055 292.361 419.212 293.979 431.503 293.598 443.794 293.217 461.082 293.193 480.44 293.598 501.613 270.581 507.769 269.651 526 248M480.44 293.598C481.129 309.364 479.223 330.665 480.44 343.646 481.657 356.628 479.027 384.447 480.44 402.527 481.853 420.606 479.631 447.474 480.44 461.407 481.249 475.34 479.772 500.579 480.44 520.288 481.108 539.996 482.185 569.005 480.44 588" stroke="#000000" stroke-width="2" stroke-miterlimit="8" fill="none" fill-rule="evenodd"/></g></svg>