<svg width="1280" height="720" xmlns="http://www.w3.org/2000/svg" xmlns:xlink="http://www.w3.org/1999/xlink" overflow="hidden"><g><rect x="0" y="0" width="1280" height="720" fill="#FFFFFF"/><path d="M315 174C315.114 163.181 323.966 156.747 333 156 340.998 155.248 351.4 162.624 351 174 352.635 182.835 342.72 192.578 333 192 322.931 192.431 316.374 182.705 315 174Z" stroke="#000000" stroke-width="2" stroke-miterlimit="8" fill="none" fill-rule="evenodd"/><path d="M119.856 194.083C109.253 194.93 102.15 186.636 100.597 177.654 99.1344 169.711 105.409 158.638 116.584 158.028 125.085 155.605 135.524 164.67 135.842 174.456 137.179 184.502 128.253 191.933 119.856 194.083Z" stroke="#000000" stroke-width="2" stroke-miterlimit="8" fill="none" fill-rule="evenodd"/><path d="M636 83C636.114 72.1811 644.966 65.7472 654 65 661.998 64.2485 672.4 71.6236 672 83 673.635 91.8354 663.72 101.578 654 101 643.931 101.431 637.374 91.7049 636 83Z" stroke="#000000" stroke-width="2" stroke-miterlimit="8" fill="none" fill-rule="evenodd"/><path d="M410.44 76.2638C415.681 67.0088 426.531 65.7746 434.84 69.5233 442.238 72.7645 447.891 84.1678 442.133 93.7636 439.374 102.162 426.015 105.726 417.733 100.504 408.664 95.9802 407.513 84.4229 410.44 76.2638Z" stroke="#000000" stroke-width="2" stroke-miterlimit="8" fill="none" fill-rule="evenodd"/><path d="M107.142 514.263C97.1643 510.58 94.1994 500.07 96.5615 491.266 98.5693 483.443 108.914 476.027 119.311 480.165 128.044 481.536 133.712 494.147 129.892 503.162 126.888 512.841 115.666 515.838 107.142 514.263Z" stroke="#000000" stroke-width="2" stroke-miterlimit="8" fill="none" fill-rule="evenodd"/><path d="M368.261 190.432C358.729 185.713 356.893 174.948 360.174 166.444 362.999 158.877 374.07 152.599 383.971 157.815 392.51 160.102 396.811 173.242 392.058 181.802 388.045 191.109 376.57 192.9 368.261 190.432Z" stroke="#000000" stroke-width="2" stroke-miterlimit="8" fill="none" fill-rule="evenodd"/><path d="M360 129C360.114 118.181 368.966 111.747 378 111 385.998 110.248 396.4 117.624 396 129 397.635 137.835 387.72 147.578 378 147 367.931 147.431 361.374 137.705 360 129Z" stroke="#000000" stroke-width="2" stroke-miterlimit="8" fill="none" fill-rule="evenodd"/><path d="M632 172C632.081 161.986 642.95 156.645 652 155 661.182 154.279 672.209 161.862 672 172 673.569 180.328 662.69 189.926 652 189 640.372 190.958 632.424 181.007 632 172Z" stroke="#000000" stroke-width="2" stroke-miterlimit="8" fill="none" fill-rule="evenodd"/><path d="M650.167 112.153C662.462 110.063 670.037 117.439 672.54 125.241 674.73 131.918 667.623 143.622 656.462 145.572 647.249 149.02 635.205 141.594 634.09 132.484 631.4 123.151 639.875 114.408 650.167 112.153Z" stroke="#000000" stroke-width="2" stroke-miterlimit="8" fill="none" fill-rule="evenodd"/><path d="M415.855 145.351C406.323 140.633 404.488 129.868 407.769 121.364 410.593 113.797 421.665 107.519 431.566 112.734 440.105 115.022 444.406 128.162 439.652 136.722 435.64 146.029 424.164 147.82 415.855 145.351Z" stroke="#000000" stroke-width="2" stroke-miterlimit="8" fill="none" fill-rule="evenodd"/><path d="M401 174.5C401.081 164.78 411.95 159.597 421 158 430.182 157.3 441.209 164.66 441 174.5 442.569 182.583 431.69 191.899 421 191 409.372 192.9 401.424 183.243 401 174.5Z" stroke="#000000" stroke-width="2" stroke-miterlimit="8" fill="none" fill-rule="evenodd"/><path d="M644.981 56.5192C633.843 50.9084 632.12 40.4768 634.735 32.711 636.932 26.0367 649.597 20.8308 659.738 25.8818 669.201 28.5718 674.491 41.6949 669.985 49.69 666.614 58.7989 654.604 60.8103 644.981 56.5192Z" stroke="#000000" stroke-width="2" stroke-miterlimit="8" fill="none" fill-rule="evenodd"/><path d="M406 410C406.117 399.181 415.215 392.747 424.5 392 432.721 391.248 443.411 398.624 443 410 444.681 418.835 434.49 428.578 424.5 428 414.151 428.431 407.412 418.705 406 410Z" stroke="#000000" stroke-width="2" stroke-miterlimit="8" fill="none" fill-rule="evenodd"/><path d="M360 499.5C360.114 488.982 368.966 482.726 378 482 385.998 481.269 396.4 488.44 396 499.5 397.635 508.09 387.72 517.562 378 517 367.931 517.419 361.374 507.963 360 499.5Z" stroke="#000000" stroke-width="2" stroke-miterlimit="8" fill="none" fill-rule="evenodd"/><path d="M591 83.5C591.114 72.9817 599.966 66.7264 609 66 616.998 65.2693 627.4 72.4396 627 83.5 628.635 92.09 618.72 101.562 609 101 598.931 101.419 592.374 91.9631 591 83.5Z" stroke="#000000" stroke-width="2" stroke-miterlimit="8" fill="none" fill-rule="evenodd"/><path d="M499 172C499.114 161.181 507.966 154.747 517 154 524.998 153.248 535.4 160.624 535 172 536.635 180.835 526.72 190.578 517 190 506.931 190.431 500.374 180.705 499 172Z" stroke="#000000" stroke-width="2" stroke-miterlimit="8" fill="none" fill-rule="evenodd"/><path d="M552.853 188.168C543.321 183.45 541.485 172.685 544.766 164.181 547.591 156.614 558.663 150.336 568.564 155.552 577.102 157.839 581.404 170.979 576.65 179.539 572.638 188.846 561.162 190.637 552.853 188.168Z" stroke="#000000" stroke-width="2" stroke-miterlimit="8" fill="none" fill-rule="evenodd"/><path d="M543 129.5C543.114 118.982 551.966 112.726 561 112 568.998 111.269 579.4 118.44 579 129.5 580.635 138.09 570.72 147.562 561 147 550.931 147.419 544.374 137.963 543 129.5Z" stroke="#000000" stroke-width="2" stroke-miterlimit="8" fill="none" fill-rule="evenodd"/><path d="M599.11 145.54C589.577 140.821 587.742 130.057 591.023 121.553 593.848 113.985 604.919 107.707 614.82 112.923 623.359 115.211 627.66 128.351 622.907 136.91 618.894 146.217 607.419 148.009 599.11 145.54Z" stroke="#000000" stroke-width="2" stroke-miterlimit="8" fill="none" fill-rule="evenodd"/><path d="M586 171.5C586.081 161.78 596.95 156.597 606 155 615.182 154.3 626.209 161.66 626 171.5 627.569 179.583 616.69 188.899 606 188 594.372 189.9 586.424 180.243 586 171.5Z" stroke="#000000" stroke-width="2" stroke-miterlimit="8" fill="none" fill-rule="evenodd"/><path d="M410 455.5C410.114 443.873 418.966 436.73 428 436 437.183 435.713 446.524 442.895 446 455.5 447.635 465.19 437.72 475.564 428 475 417.331 477.388 411.994 464.517 410 455.5Z" stroke="#000000" stroke-width="2" stroke-miterlimit="8" fill="none" fill-rule="evenodd"/><path d="M317.628 516.317C308.096 511.599 306.26 500.834 309.541 492.33 312.366 484.763 323.438 478.485 333.339 483.7 341.878 485.988 346.178 499.128 341.425 507.688 337.413 516.995 325.937 518.786 317.628 516.317Z" stroke="#000000" stroke-width="2" stroke-miterlimit="8" fill="none" fill-rule="evenodd"/><path d="M408 500C408.081 489.986 418.95 484.645 428 483 437.182 482.279 448.209 489.862 448 500 449.569 508.328 438.69 517.926 428 517 416.372 518.958 408.424 509.007 408 500Z" stroke="#000000" stroke-width="2" stroke-miterlimit="8" fill="none" fill-rule="evenodd"/><path d="M639 503C639.114 492.181 647.966 485.747 657 485 664.998 484.248 675.4 491.624 675 503 676.635 511.835 666.72 521.578 657 521 646.931 521.431 640.374 511.705 639 503Z" stroke="#000000" stroke-width="2" stroke-miterlimit="8" fill="none" fill-rule="evenodd"/><path d="M639 456.5C639.114 444.873 647.966 437.73 657 437 666.182 436.713 675.524 443.895 675 456.5 676.635 466.19 666.72 476.564 657 476 646.331 478.388 640.994 465.517 639 456.5Z" stroke="#000000" stroke-width="2" stroke-miterlimit="8" fill="none" fill-rule="evenodd"/><path d="M639 410.5C639.114 399.982 647.966 393.726 657 393 664.998 392.269 675.4 399.44 675 410.5 676.635 419.09 666.72 428.562 657 428 646.931 428.419 640.374 418.963 639 410.5Z" stroke="#000000" stroke-width="2" stroke-miterlimit="8" fill="none" fill-rule="evenodd"/><path d="M187.501 516.317C177.969 511.599 176.133 500.834 179.414 492.33 182.239 484.763 193.31 478.485 203.211 483.7 211.75 485.988 216.051 499.128 211.298 507.688 207.285 516.995 195.81 518.786 187.501 516.317Z" stroke="#000000" stroke-width="2" stroke-miterlimit="8" fill="none" fill-rule="evenodd"/><path d="M224 499.5C224.081 489.78 234.95 484.597 244 483 253.182 482.3 264.209 489.66 264 499.5 265.569 507.583 254.69 516.899 244 516 232.372 517.9 224.424 508.243 224 499.5Z" stroke="#000000" stroke-width="2" stroke-miterlimit="8" fill="none" fill-rule="evenodd"/><path d="M308.72 445.394C313.961 436.139 324.811 434.904 333.119 438.653 340.518 441.894 346.171 453.298 340.413 462.893 337.654 471.292 324.295 474.856 316.013 469.634 306.943 465.11 305.793 453.553 308.72 445.394Z" stroke="#000000" stroke-width="2" stroke-miterlimit="8" fill="none" fill-rule="evenodd"/><path d="M358 456.5C358.117 445.982 367.215 439.726 376.5 439 384.721 438.269 395.411 445.44 395 456.5 396.681 465.09 386.49 474.562 376.5 474 366.151 474.419 359.412 464.963 358 456.5Z" stroke="#000000" stroke-width="2" stroke-miterlimit="8" fill="none" fill-rule="evenodd"/><path d="M317.213 427.348C306.075 421.737 304.352 411.305 306.967 403.54 309.164 396.865 321.829 391.659 331.97 396.71 341.432 399.401 346.723 412.524 342.217 420.519 338.846 429.628 326.836 431.639 317.213 427.348Z" stroke="#000000" stroke-width="2" stroke-miterlimit="8" fill="none" fill-rule="evenodd"/><path d="M357 412C357.114 400.075 365.966 392.748 375 392 384.183 391.706 393.524 399.072 393 412 394.635 421.938 384.72 432.579 375 432 364.331 434.449 358.994 421.248 357 412Z" stroke="#000000" stroke-width="2" stroke-miterlimit="8" fill="none" fill-rule="evenodd"/><path d="M190 174C190.114 163.181 198.966 156.747 208 156 215.998 155.248 226.4 162.624 226 174 227.635 182.835 217.72 192.578 208 192 197.931 192.431 191.374 182.705 190 174Z" stroke="#000000" stroke-width="2" stroke-miterlimit="8" fill="none" fill-rule="evenodd"/><path d="M243.626 190.432C234.094 185.713 232.258 174.949 235.539 166.444 238.364 158.877 249.435 152.599 259.336 157.815 267.875 160.102 272.176 173.242 267.423 181.802 263.41 191.109 251.935 192.9 243.626 190.432Z" stroke="#000000" stroke-width="2" stroke-miterlimit="8" fill="none" fill-rule="evenodd"/><path d="M233 130.5C233.117 119.982 242.215 113.726 251.5 113 259.721 112.269 270.411 119.44 270 130.5 271.681 139.09 261.49 148.562 251.5 148 241.151 148.419 234.412 138.963 233 130.5Z" stroke="#000000" stroke-width="2" stroke-miterlimit="8" fill="none" fill-rule="evenodd"/><path d="M594 409C594.114 398.181 602.966 391.747 612 391 619.998 390.248 630.4 397.624 630 409 631.635 417.835 621.72 427.578 612 427 601.931 427.431 595.374 417.705 594 409Z" stroke="#000000" stroke-width="2" stroke-miterlimit="8" fill="none" fill-rule="evenodd"/><path d="M228 455C228.114 444.181 236.966 437.747 246 437 253.998 436.248 264.4 443.624 264 455 265.635 463.835 255.72 473.578 246 473 235.931 473.431 229.374 463.705 228 455Z" stroke="#000000" stroke-width="2" stroke-miterlimit="8" fill="none" fill-rule="evenodd"/><path d="M597 454.5C597.114 442.873 605.966 435.73 615 435 624.182 434.713 633.524 441.895 633 454.5 634.635 464.19 624.72 474.564 615 474 604.331 476.388 598.994 463.517 597 454.5Z" stroke="#000000" stroke-width="2" stroke-miterlimit="8" fill="none" fill-rule="evenodd"/><path d="M633 365.5C633.114 354.982 641.966 348.726 651 348 658.998 347.269 669.4 354.44 669 365.5 670.635 374.09 660.72 383.562 651 383 640.931 383.419 634.374 373.963 633 365.5Z" stroke="#000000" stroke-width="2" stroke-miterlimit="8" fill="none" fill-rule="evenodd"/><path d="M185.456 471.927C175.924 467.208 174.089 456.444 177.37 447.939 180.195 440.372 191.266 434.094 201.167 439.31 209.706 441.597 214.007 454.737 209.254 463.297 205.241 472.604 193.766 474.395 185.456 471.927Z" stroke="#000000" stroke-width="2" stroke-miterlimit="8" fill="none" fill-rule="evenodd"/><path d="M593 501.5C593.081 491.78 603.95 486.597 613 485 622.182 484.3 633.209 491.66 633 501.5 634.569 509.583 623.69 518.899 613 518 601.372 519.9 593.424 510.243 593 501.5Z" stroke="#000000" stroke-width="2" stroke-miterlimit="8" fill="none" fill-rule="evenodd"/><path d="M496.192 444.352C501.433 435.097 512.283 433.863 520.592 437.611 527.99 440.853 533.643 452.256 527.885 461.852 525.126 470.25 511.767 473.814 503.485 468.592 494.416 464.068 493.265 452.511 496.192 444.352Z" stroke="#000000" stroke-width="2" stroke-miterlimit="8" fill="none" fill-rule="evenodd"/><path d="M546 455.5C546.114 444.982 554.966 438.726 564 438 571.998 437.269 582.4 444.44 582 455.5 583.635 464.09 573.72 473.562 564 473 553.931 473.419 547.374 463.963 546 455.5Z" stroke="#000000" stroke-width="2" stroke-miterlimit="8" fill="none" fill-rule="evenodd"/><path d="M584 365.5C584.081 355.78 594.95 350.597 604 349 613.182 348.3 624.209 355.66 624 365.5 625.569 373.583 614.69 382.899 604 382 592.372 383.9 584.424 374.243 584 365.5Z" stroke="#000000" stroke-width="2" stroke-miterlimit="8" fill="none" fill-rule="evenodd"/><path d="M504.685 426.306C493.547 420.695 491.825 410.264 494.439 402.498 496.637 395.824 509.301 390.618 519.443 395.669 528.905 398.359 534.196 411.482 529.689 419.477 526.318 428.586 514.308 430.597 504.685 426.306Z" stroke="#000000" stroke-width="2" stroke-miterlimit="8" fill="none" fill-rule="evenodd"/><path d="M544 411C544.114 399.075 552.966 391.748 562 391 571.182 390.706 580.524 398.072 580 411 581.635 420.938 571.72 431.579 562 431 551.331 433.449 545.994 420.248 544 411Z" stroke="#000000" stroke-width="2" stroke-miterlimit="8" fill="none" fill-rule="evenodd"/><path d="M504.665 381.752C495.133 377.033 493.298 366.269 496.579 357.765 499.404 350.198 510.475 343.919 520.376 349.135 528.915 351.423 533.216 364.563 528.463 373.123 524.45 382.43 512.975 384.221 504.665 381.752Z" stroke="#000000" stroke-width="2" stroke-miterlimit="8" fill="none" fill-rule="evenodd"/><path d="M494 501.5C494.114 490.982 502.966 484.726 512 484 519.998 483.269 530.4 490.44 530 501.5 531.635 510.09 521.72 519.562 512 519 501.931 519.419 495.374 509.963 494 501.5Z" stroke="#000000" stroke-width="2" stroke-miterlimit="8" fill="none" fill-rule="evenodd"/><path d="M549.829 517.844C540.297 513.125 538.461 502.361 541.742 493.857 544.567 486.29 555.639 480.011 565.54 485.227 574.079 487.515 578.38 500.655 573.626 509.215 569.614 518.522 558.138 520.313 549.829 517.844Z" stroke="#000000" stroke-width="2" stroke-miterlimit="8" fill="none" fill-rule="evenodd"/><path d="M538 365.5C538.081 355.78 548.95 350.597 558 349 567.182 348.3 578.209 355.66 578 365.5 579.569 373.583 568.69 382.899 558 382 546.372 383.9 538.424 374.243 538 365.5Z" stroke="#000000" stroke-width="2" stroke-miterlimit="8" fill="none" fill-rule="evenodd"/><text font-family="Calibri,Calibri_MSFontService,sans-serif" font-weight="400" font-size="37" transform="translate(103.881 247)">T</text><text font-family="Calibri,Calibri_MSFontService,sans-serif" font-weight="400" font-size="25" transform="translate(122.047 255)">1</text><text font-family="Calibri,Calibri_MSFontService,sans-serif" font-weight="400" font-size="37" transform="translate(216.284 249)">T</text><text font-family="Calibri,Calibri_MSFontService,sans-serif" font-weight="400" font-size="25" transform="translate(234.451 257)">2</text><text font-family="Calibri,Calibri_MSFontService,sans-serif" font-weight="400" font-size="37" transform="translate(363.331 247)">T</text><text font-family="Calibri,Calibri_MSFontService,sans-serif" font-weight="400" font-size="25" transform="translate(381.498 255)">3</text><text font-family="Calibri,Calibri_MSFontService,sans-serif" font-weight="400" font-size="37" transform="translate(586.42 244)">T</text><text font-family="Calibri,Calibri_MSFontService,sans-serif" font-weight="400" font-size="25" transform="translate(604.586 252)">4</text><text font-family="Calibri,Calibri_MSFontService,sans-serif" font-weight="400" font-size="37" transform="translate(99.503 566)">K</text><text font-family="Calibri,Calibri_MSFontService,sans-serif" font-weight="400" font-size="25" transform="translate(118.836 574)">1</text><text font-family="Calibri,Calibri_MSFontService,sans-serif" font-weight="400" font-size="37" transform="translate(205.743 564)">K</text><text font-family="Calibri,Calibri_MSFontService,sans-serif" font-weight="400" font-size="25" transform="translate(225.076 572)">2</text><text font-family="Calibri,Calibri_MSFontService,sans-serif" font-weight="400" font-size="37" transform="translate(357.242 570)">K</text><text font-family="Calibri,Calibri_MSFontService,sans-serif" font-weight="400" font-size="25" transform="translate(376.575 578)">3</text><text font-family="Calibri,Calibri_MSFontService,sans-serif" font-weight="400" font-size="37" transform="translate(575.731 564)">K</text><text font-family="Calibri,Calibri_MSFontService,sans-serif" font-weight="400" font-size="25" transform="translate(595.064 572)">4</text><path d="M934 502.5C934.117 491.982 943.215 485.726 952.5 485 960.721 484.269 971.411 491.44 971 502.5 972.681 511.09 962.49 520.562 952.5 520 942.151 520.419 935.412 510.963 934 502.5Z" stroke="#000000" stroke-width="2" stroke-miterlimit="8" fill="none" fill-rule="evenodd"/><path d="M934 456.5C934.117 444.873 943.215 437.73 952.5 437 961.938 436.713 971.539 443.895 971 456.5 972.681 466.19 962.49 476.564 952.5 476 941.535 478.388 936.05 465.517 934 456.5Z" stroke="#000000" stroke-width="2" stroke-miterlimit="8" fill="none" fill-rule="evenodd"/><path d="M934 410C934.117 399.181 943.215 392.747 952.5 392 960.721 391.248 971.411 398.624 971 410 972.681 418.835 962.49 428.578 952.5 428 942.151 428.431 935.412 418.705 934 410Z" stroke="#000000" stroke-width="2" stroke-miterlimit="8" fill="none" fill-rule="evenodd"/><path d="M889 408.5C889.117 397.982 898.215 391.726 907.5 391 915.721 390.269 926.411 397.44 926 408.5 927.681 417.09 917.49 426.562 907.5 426 897.151 426.419 890.412 416.963 889 408.5Z" fill="#D9F2D0" fill-rule="evenodd"/><path d="M889 408.5C889.188 399.008 896.687 390.691 907.5 391 917.963 391.427 925.189 397.735 926 408.5 924.048 416.895 915.391 425.871 907.5 426 897.253 426.546 890.514 416.347 889 408.5Z" stroke="#000000" stroke-width="2" stroke-miterlimit="8" fill="none" fill-rule="evenodd"/><path d="M893 454.5C893.114 442.873 901.966 435.73 911 435 920.182 434.713 929.524 441.895 929 454.5 930.635 464.19 920.72 474.564 911 474 900.331 476.388 894.994 463.517 893 454.5Z" fill="#D9F2D0" fill-rule="evenodd"/><path d="M893 454.5C893.183 443.904 900.479 434.69 911 435 921.98 436.866 928.184 442.588 929 454.5 927.1 463.994 918.677 473.87 911 474 901.017 474.801 893.546 464.593 893 454.5Z" stroke="#000000" stroke-width="2" stroke-miterlimit="8" fill="none" fill-rule="evenodd"/><path d="M929 365C929.114 354.181 937.966 347.747 947 347 954.998 346.248 965.4 353.624 965 365 966.635 373.835 956.72 383.578 947 383 936.931 383.431 930.374 373.705 929 365Z" stroke="#000000" stroke-width="2" stroke-miterlimit="8" fill="none" fill-rule="evenodd"/><path d="M888 501.5C888.081 491.78 898.95 486.597 908 485 917.182 484.3 928.209 491.66 928 501.5 929.569 509.583 918.69 518.899 908 518 896.372 519.9 888.424 510.243 888 501.5Z" fill="#D9F2D0" fill-rule="evenodd"/><path d="M888 501.5C889.382 493.689 896.485 484.75 908 485 919.182 485.243 927.292 491.402 928 501.5 927.637 510.371 916.766 517.87 908 518 896.856 519.87 889.154 509.19 888 501.5Z" stroke="#000000" stroke-width="2" stroke-miterlimit="8" fill="none" fill-rule="evenodd"/><path d="M791.734 444.1C796.976 434.845 807.826 433.611 816.134 437.359 823.533 440.601 829.186 452.004 823.427 461.6 820.668 469.998 807.31 473.562 799.028 468.34 789.958 463.816 788.807 452.259 791.734 444.1Z" stroke="#000000" stroke-width="2" stroke-miterlimit="8" fill="none" fill-rule="evenodd"/><path d="M841 455.5C841.117 444.982 850.215 438.726 859.5 438 867.721 437.269 878.411 444.44 878 455.5 879.681 464.09 869.49 473.562 859.5 473 849.151 473.419 842.412 463.963 841 455.5Z" stroke="#000000" stroke-width="2" stroke-miterlimit="8" fill="none" fill-rule="evenodd"/><path d="M880 365.5C880.081 355.78 890.95 350.597 900 349 909.182 348.3 920.209 355.66 920 365.5 921.569 373.583 910.69 382.899 900 382 888.372 383.9 880.424 374.243 880 365.5Z" stroke="#000000" stroke-width="2" stroke-miterlimit="8" fill="none" fill-rule="evenodd"/><path d="M800.228 426.054C789.09 420.443 787.367 410.012 789.981 402.246 792.179 395.572 804.844 390.366 814.985 395.417 824.447 398.107 829.738 411.23 825.232 419.225 821.86 428.334 809.851 430.345 800.228 426.054Z" fill="#D9F2D0" fill-rule="evenodd"/><path d="M800.228 426.054C790.84 421.234 784.616 411.648 789.981 402.246 796.242 393.657 804.021 390.941 814.985 395.417 823.566 400.781 828.844 411.599 825.232 419.225 823.067 428.732 808.852 428.407 800.228 426.054Z" stroke="#000000" stroke-width="2" stroke-miterlimit="8" fill="none" fill-rule="evenodd"/><path d="M840 410.5C840.114 398.873 848.966 391.73 858 391 867.182 390.713 876.524 397.895 876 410.5 877.635 420.19 867.72 430.564 858 430 847.331 432.388 841.994 419.517 840 410.5Z" fill="#D9F2D0" fill-rule="evenodd"/><path d="M840 410.5C840.183 399.904 847.479 390.69 858 391 868.98 392.866 875.184 398.588 876 410.5 874.1 419.994 865.677 429.87 858 430 848.017 430.801 840.546 420.593 840 410.5Z" stroke="#000000" stroke-width="2" stroke-miterlimit="8" fill="none" fill-rule="evenodd"/><path d="M800.208 381.5C790.676 376.782 788.84 366.017 792.121 357.513 794.946 349.946 806.018 343.668 815.919 348.883 824.457 351.171 828.758 364.311 824.005 372.871 819.993 382.178 808.517 383.969 800.208 381.5Z" stroke="#000000" stroke-width="2" stroke-miterlimit="8" fill="none" fill-rule="evenodd"/><path d="M789 501.5C789.114 490.982 797.966 484.726 807 484 814.998 483.269 825.4 490.44 825 501.5 826.635 510.09 816.72 519.562 807 519 796.931 519.419 790.374 509.963 789 501.5Z" fill="#D9F2D0" fill-rule="evenodd"/><path d="M789 501.5C789.183 492.008 796.479 483.691 807 484 817.18 484.427 824.211 490.735 825 501.5 823.1 509.895 814.677 518.871 807 519 797.03 519.546 790.473 509.347 789 501.5Z" stroke="#000000" stroke-width="2" stroke-miterlimit="8" fill="none" fill-rule="evenodd"/><path d="M845.372 517.592C835.839 512.874 834.004 502.109 837.285 493.605 840.11 486.038 851.181 479.76 861.082 484.975 869.621 487.263 873.922 500.403 869.169 508.963 865.156 518.27 853.681 520.061 845.372 517.592Z" stroke="#000000" stroke-width="2" stroke-miterlimit="8" fill="none" fill-rule="evenodd"/><path d="M833 365.5C833.081 355.78 843.95 350.597 853 349 862.182 348.3 873.209 355.66 873 365.5 874.569 373.583 863.69 382.899 853 382 841.372 383.9 833.424 374.243 833 365.5Z" stroke="#000000" stroke-width="2" stroke-miterlimit="8" fill="none" fill-rule="evenodd"/><text font-family="Calibri,Calibri_MSFontService,sans-serif" font-weight="400" font-size="37" transform="translate(808.369 569)">1+3+5+7=</text><text font-family="Calibri,Calibri_MSFontService,sans-serif" font-weight="400" font-size="37" transform="translate(867.703 613)">K</text><text font-family="Calibri,Calibri_MSFontService,sans-serif" font-weight="400" font-size="25" transform="translate(887.036 621)">4</text><path d="M918 89C918.114 78.1811 926.966 71.7472 936 71 943.998 70.2485 954.4 77.6236 954 89 955.635 97.8354 945.72 107.578 936 107 925.931 107.431 919.374 97.7049 918 89Z" fill="#D9F2D0" fill-rule="evenodd"/><path d="M918 89C918.183 79.2367 925.479 70.6825 936 71 946.18 71.4393 953.211 77.9275 954 89 952.1 97.6352 943.677 106.867 936 107 926.03 107.562 919.473 97.0708 918 89Z" stroke="#000000" stroke-width="2" stroke-miterlimit="8" fill="none" fill-rule="evenodd"/><path d="M915 177.5C915.081 167.78 925.95 162.597 935 161 944.182 160.3 955.209 167.66 955 177.5 956.569 185.583 945.69 194.899 935 194 923.372 195.9 915.424 186.243 915 177.5Z" fill="#D9F2D0" fill-rule="evenodd"/><path d="M915 177.5C916.382 169.689 923.485 160.75 935 161 946.182 161.243 954.292 167.402 955 177.5 954.637 186.371 943.766 193.87 935 194 923.856 195.87 916.154 185.19 915 177.5Z" stroke="#000000" stroke-width="2" stroke-miterlimit="8" fill="none" fill-rule="evenodd"/><path d="M932.332 117.918C944.627 115.827 952.202 123.203 954.704 131.006 956.894 137.682 949.787 149.386 938.627 151.336 929.414 154.784 917.369 147.358 916.254 138.249 913.564 128.916 922.039 120.172 932.332 117.918Z" fill="#D9F2D0" fill-rule="evenodd"/><path d="M932.332 117.918C942.749 116.229 953.446 120.253 954.704 131.006 954.759 141.634 950.109 148.435 938.627 151.336 928.536 152.108 917.87 146.531 916.254 138.249 912.357 129.311 923.994 121.14 932.332 117.918Z" stroke="#000000" stroke-width="2" stroke-miterlimit="8" fill="none" fill-rule="evenodd"/><path d="M927.146 62.2836C916.007 56.6728 914.285 46.2412 916.899 38.4754 919.097 31.8011 931.761 26.5952 941.903 31.6462 951.365 34.3362 956.656 47.4593 952.149 55.4544 948.778 64.5633 936.769 66.5747 927.146 62.2836Z" fill="#D9F2D0" fill-rule="evenodd"/><path d="M927.146 62.2836C917.758 57.4635 911.533 47.8778 916.899 38.4754 923.16 29.8867 930.939 27.1702 941.903 31.6462 950.484 37.0108 955.762 47.8285 952.149 55.4544 949.985 64.9612 935.769 64.6362 927.146 62.2836Z" stroke="#000000" stroke-width="2" stroke-miterlimit="8" fill="none" fill-rule="evenodd"/><path d="M873 89.5C873.114 78.9817 881.966 72.7264 891 72 898.998 71.2693 909.4 78.4396 909 89.5 910.635 98.09 900.72 107.562 891 107 880.931 107.419 874.374 97.9631 873 89.5Z" stroke="#000000" stroke-width="2" stroke-miterlimit="8" fill="none" fill-rule="evenodd"/><path d="M781 177.5C781.117 166.982 790.215 160.726 799.5 160 807.721 159.269 818.411 166.44 818 177.5 819.681 186.09 809.49 195.562 799.5 195 789.151 195.419 782.412 185.963 781 177.5Z" stroke="#000000" stroke-width="2" stroke-miterlimit="8" fill="none" fill-rule="evenodd"/><path d="M835.017 193.933C825.485 189.214 823.65 178.45 826.931 169.946 829.756 162.378 840.827 156.1 850.728 161.316 859.267 163.604 863.568 176.743 858.815 185.303 854.802 194.61 843.327 196.402 835.017 193.933Z" fill="#D9F2D0" fill-rule="evenodd"/><path d="M835.017 193.933C826.45 189.602 822.058 179.342 826.931 169.946 831.762 160.91 840.577 157.308 850.728 161.316 857.547 166.721 862.047 178.291 858.815 185.303 854.962 194.576 842.808 196.041 835.017 193.933Z" stroke="#000000" stroke-width="2" stroke-miterlimit="8" fill="none" fill-rule="evenodd"/><path d="M825 135C825.114 124.181 833.966 117.747 843 117 850.998 116.248 861.4 123.624 861 135 862.635 143.835 852.72 153.578 843 153 832.931 153.431 826.374 143.705 825 135Z" fill="#D9F2D0" fill-rule="evenodd"/><path d="M825 135C825.183 125.237 832.479 116.682 843 117 853.18 117.439 860.211 123.927 861 135 859.1 143.635 850.677 152.867 843 153 833.03 153.562 826.473 143.071 825 135Z" stroke="#000000" stroke-width="2" stroke-miterlimit="8" fill="none" fill-rule="evenodd"/><path d="M881.274 151.304C871.742 146.586 869.906 135.821 873.187 127.317 876.012 119.75 887.084 113.472 896.985 118.688 905.524 120.975 909.825 134.115 905.071 142.675 901.059 151.982 889.583 153.773 881.274 151.304Z" stroke="#000000" stroke-width="2" stroke-miterlimit="8" fill="none" fill-rule="evenodd"/><path d="M868 177.5C868.081 167.78 878.95 162.597 888 161 897.182 160.3 908.209 167.66 908 177.5 909.569 185.583 898.69 194.899 888 194 876.372 195.9 868.424 186.243 868 177.5Z" stroke="#000000" stroke-width="2" stroke-miterlimit="8" fill="none" fill-rule="evenodd"/><text font-family="Calibri,Calibri_MSFontService,sans-serif" font-weight="400" font-size="37" transform="translate(783.129 250)">1+2+3+4=T</text><text font-family="Calibri,Calibri_MSFontService,sans-serif" font-weight="400" font-size="25" transform="translate(951.962 258)">4</text></g></svg>