<svg width="1280" height="720" xmlns="http://www.w3.org/2000/svg" xmlns:xlink="http://www.w3.org/1999/xlink" overflow="hidden"><g><rect x="0" y="0" width="1280" height="720" fill="#FFFFFF"/><path d="M306 314.5C299.406 212.669 367.132 132.667 485.5 143 576.775 127.21 654.253 217.804 665 314.5 677.66 424.88 573.849 473.307 485.5 486 390.015 488.378 306.954 405.411 306 314.5Z" stroke="#000000" stroke-width="2" stroke-miterlimit="8" fill="none" fill-rule="evenodd"/><path d="M819.455 417.221C760.506 496.774 657.074 512.44 581.412 446.166 504.319 411.043 503.368 286.518 558.292 207.487 617.621 127.02 724.656 136.575 796.335 178.542 863.866 222.46 865.784 353.188 819.455 417.221Z" stroke="#000000" stroke-width="2" stroke-miterlimit="8" fill="none" fill-rule="evenodd"/><text font-family="Calibri,Calibri_MSFontService,sans-serif" font-weight="400" font-size="24" transform="translate(423.654 126)">Klatring</text><text font-family="Calibri,Calibri_MSFontService,sans-serif" font-weight="400" font-size="24" transform="translate(677.535 126)">Løping</text></g></svg>