<svg width="1280" height="720" xmlns="http://www.w3.org/2000/svg" xmlns:xlink="http://www.w3.org/1999/xlink" overflow="hidden"><g><rect x="0" y="0" width="1280" height="720" fill="#FFFFFF"/><path d="M79 360C104.774 356.932 133.492 363.486 147.154 360 160.815 356.514 205.527 359.874 233.028 360 260.528 360.126 276.291 362.276 318.902 360 361.513 357.724 339.87 358.922 360.475 360 381.08 361.078 396.298 359.38 428.629 360 460.96 360.62 455.227 360.043 470.203 360 485.179 359.957 492.171 358.49 511.777 360 531.383 361.51 545.86 360.999 571.071 360 596.282 359.001 623.659 357.331 639.225 360 654.79 362.669 668.121 360.616 680.799 360 693.476 359.384 706.594 362.461 731.232 360 755.871 357.539 765.164 358.851 790.526 360 815.888 361.149 819.285 359.256 832.1 360 844.915 360.744 860.593 358.409 873.674 360 886.755 361.591 925.266 355.94 965 360 964.983 361.075 965.038 363.322 965 365 946.491 362.386 919.903 361.067 879.126 365 838.349 368.933 831.833 364.546 793.252 365 754.671 365.454 762.585 364.42 733.958 365 705.331 365.58 687.396 366.592 674.665 365 661.933 363.408 608.961 364.264 588.791 365 568.621 365.736 556.409 363.481 547.217 365 538.025 366.519 486.761 366.279 470.203 365 453.645 363.721 423.575 363.849 410.909 365 398.244 366.151 371.38 367.086 360.475 365 349.571 362.914 306.73 368.293 292.322 365 277.913 361.707 234.64 368.984 215.308 365 195.976 361.016 171.219 367.245 156.014 365 140.809 362.755 106.338 366.78 79 365 78.9458 363.62 79.118 362.423 79 360Z" fill-rule="evenodd"/><path d="M79 360C97.5116 358.257 111.29 358.265 120.574 360 129.858 361.735 147.953 358.457 171.008 360 194.062 361.543 214.342 359.951 230.301 360 246.261 360.049 263.753 359.993 289.595 360 315.438 360.007 327.282 362.386 340.029 360 352.776 357.614 379.632 361.557 390.463 360 401.294 358.443 427.877 360.271 440.897 360 453.917 359.729 470.877 361.301 482.471 360 494.064 358.699 508.544 360.619 524.045 360 539.546 359.381 549.052 358.587 565.618 360 582.185 361.413 595.347 360.264 607.192 360 619.038 359.736 646.935 358.526 675.346 360 703.757 361.474 742.909 357.8 761.22 360 779.531 362.2 791.983 359.375 802.794 360 813.604 360.625 838.618 357.892 862.088 360 885.557 362.108 890.024 361.063 903.661 360 917.299 358.937 946.984 362.134 965 360 965.086 361.576 964.909 363.147 965 365 924.705 361.167 909.095 360.529 879.126 365 849.157 369.471 838.481 362.727 810.972 365 783.464 367.273 786.543 367.034 769.398 365 752.253 362.966 741.749 362.797 718.965 365 696.181 367.203 657.71 368.388 641.951 365 626.191 361.612 614.192 365.751 600.377 365 586.562 364.249 548.461 361.465 532.223 365 515.985 368.535 481.145 367.694 464.069 365 446.994 362.306 425.675 365.497 404.775 365 383.875 364.503 355.398 362.135 336.622 365 317.845 367.865 280.912 361.299 250.748 365 220.584 368.701 216.238 365.64 191.454 365 166.67 364.36 164.481 364.565 149.88 365 135.279 365.435 101.649 367.079 79 365 79.0699 362.826 79.023 361.54 79 360Z" stroke="#000000" stroke-width="2" stroke-miterlimit="8" fill="none" fill-rule="evenodd"/><path d="M488 74C490.077 74.1493 491.951 74.1557 494 74 498.275 105.967 494.897 121.661 494 156.862 493.103 192.064 491.886 182.817 494 208.124 496.114 233.432 495.308 248.041 494 259.387 492.692 270.732 491.684 295.959 494 310.649 496.316 325.338 496.059 355.061 494 368.231 491.942 381.401 494.796 404.101 494 419.493 493.204 434.886 496.227 467.844 494 502.356 491.773 536.867 493.927 547.596 494 559.938 494.073 572.279 493.168 600.101 494 611.2 494.832 622.299 498.525 659.04 494 706 491.542 705.806 489.703 706.115 488 706 485.794 687.306 487.166 674.622 488 654.738 488.834 634.853 484.002 598.734 488 578.196 491.998 557.657 484.86 523.544 488 507.973 491.14 492.402 485.047 451.026 488 425.111 490.953 399.196 486.508 389.971 488 373.849 489.492 357.727 484.445 318.442 488 297.307 491.555 276.171 487.887 252.771 488 233.404 488.113 214.038 488.917 186.847 488 163.182 487.083 139.518 485.334 98.8161 488 74Z" fill-rule="evenodd"/><path d="M488 74C489.97 74.1925 492.16 73.8594 494 74 492.536 96.7914 493.556 103.412 494 131.582 494.444 159.753 493.65 174.392 494 201.804 494.35 229.216 491.171 250.511 494 278.347 496.829 306.182 493.919 319.783 494 342.249 494.081 364.715 494.587 373.645 494 399.831 493.413 426.017 495.595 446.314 494 470.053 492.405 493.793 492.965 520.934 494 540.276 495.035 559.617 496.595 568.398 494 591.538 491.405 614.677 492.249 631.587 494 642.8 495.751 654.013 491.893 676.57 494 706 491.244 706.224 490.824 705.736 488 706 490.447 686.361 484.737 661.099 488 623.138 491.263 585.176 488.306 579.509 488 565.556 487.694 551.602 488.384 526.229 488 514.293 487.616 502.357 488.845 479.241 488 463.031 487.155 446.821 490.197 433.912 488 411.769 485.803 389.626 487.058 378.078 488 360.507 488.942 342.936 486.571 306.275 488 290.284 489.429 274.293 487.263 245.201 488 207.422 488.737 169.644 488.359 174.238 488 156.16 487.641 138.082 485.371 90.8998 488 74Z" stroke="#000000" stroke-width="2" stroke-miterlimit="8" fill="none" fill-rule="evenodd"/><path d="M743.932 705.17C743.579 705.484 742.918 705.833 742.358 706.215 729.1 686.401 709.391 650.654 694.71 634.413 680.029 618.172 676.094 603.758 666.916 592.528 657.737 581.298 645.992 564.347 639.121 550.644 632.251 536.94 623.3 529.154 611.327 508.759 599.354 488.364 593.545 478.43 579.562 460.891 565.578 443.352 562.884 439.658 551.767 419.006 540.651 398.355 525.233 380.7 504.12 347.204 483.007 313.709 482.836 319.749 472.355 299.336 461.874 278.924 453.068 267.34 444.561 257.452 436.053 247.563 421.425 226.974 412.796 209.584 404.166 192.193 378.628 149.455 345.295 107.864 345.98 107.32 346.152 107.237 346.869 106.819 362.115 125.91 367.933 140.784 374.664 148.704 381.395 156.623 402.271 185.485 414.37 208.539 426.469 231.593 435.601 246.591 462.018 280.341 488.434 314.091 479.085 308.673 489.812 322.225 500.539 335.777 522.637 366.639 533.489 388.044 544.341 409.449 560.37 427.406 569.225 441.896 578.079 456.385 596.856 485.512 608.931 501.731 621.006 517.949 628.488 533.759 644.667 555.582 660.845 577.405 665.765 590.261 684.373 615.417 702.98 640.573 717.303 666.86 743.932 705.17Z" fill-rule="evenodd"/><path d="M743.932 705.17C743.356 705.66 743.018 705.68 742.358 706.215 729.146 685.898 723.428 674.93 706.622 652.363 689.816 629.796 688.623 621.872 670.886 598.512 653.15 575.152 651.928 573.993 639.121 550.644 626.314 527.294 615.742 519.982 599.415 490.809 583.088 461.635 570.328 444.321 559.709 430.973 549.09 417.626 544.399 410.483 531.914 389.089 519.43 367.695 510.383 356.382 504.12 347.204 497.857 338.027 487.694 320.454 476.326 305.32 464.957 290.186 456.116 276.238 448.531 263.435 440.946 250.633 430.992 233.544 412.796 209.584 394.599 185.623 398.928 184.899 385.001 167.699 371.074 150.5 356.393 125.568 345.295 107.864 345.866 107.518 346.381 107.247 346.869 106.819 368.492 131.729 384.881 159.105 394.517 178.621 404.153 198.138 410.081 201.946 422.311 220.506 434.542 239.066 452.05 266.371 462.018 280.341 471.986 294.31 496.068 326.314 509.665 352.143 523.262 377.972 529.388 381.154 537.46 394.027 545.532 406.901 562.872 426.766 573.195 447.879 583.518 468.992 589.469 473.324 600.99 489.764 612.51 506.203 629.286 528.01 636.725 543.615 644.164 559.22 656.457 569.142 664.52 585.5 672.582 601.857 684.641 619.614 704.226 645.335 723.811 671.055 731.272 686.018 743.932 705.17Z" stroke="#000000" stroke-width="2" stroke-miterlimit="8" fill="none" fill-rule="evenodd"/><text font-family="Calibri,Calibri_MSFontService,sans-serif" font-weight="400" font-size="37" transform="translate(391.6 423)">-</text><text font-family="Calibri,Calibri_MSFontService,sans-serif" font-weight="400" font-size="37" transform="translate(403.1 423)">1</text><path d="M407.5 210C407.676 207.159 410.063 204.474 413.5 204.5 416.54 204.611 419.604 206.568 419.5 210 419.811 213.413 417.495 215.772 413.5 215.5 409.523 215.43 407.447 213.351 407.5 210Z" fill="#F2F2F2" fill-rule="evenodd"/><path d="M407.5 210C406.827 207.073 410.977 204.387 413.5 204.5 416.318 204.411 419.941 207.199 419.5 210 419.858 212.526 416.399 215.396 413.5 215.5 410.348 215.25 407.593 212.915 407.5 210Z" stroke="#000000" stroke-width="3" stroke-miterlimit="8" fill="none" fill-rule="evenodd"/><path d="M510 207C509.973 208.609 509.9 210.066 510 211 501.951 209.176 485.179 209.798 473 211 473.095 209.452 473.105 208.889 473 207 488.119 207.029 498.555 205.074 510 207Z" fill-rule="evenodd"/><path d="M510 207C509.959 208.238 509.872 209.399 510 211 497.908 211.663 487.69 211.755 473 211 472.872 209.828 472.834 208.538 473 207 485.397 206.11 493.428 207.076 510 207Z" stroke="#000000" stroke-width="2" stroke-miterlimit="8" fill="none" fill-rule="evenodd"/><path d="M412 342C413.207 342.028 414.299 342.103 415 342 413.632 350.266 414.098 367.492 415 380 413.839 379.902 413.417 379.892 412 380 412.022 364.472 410.556 353.754 412 342Z" fill-rule="evenodd"/><path d="M412 342C412.928 342.042 413.799 342.131 415 342 415.497 354.419 415.566 364.912 415 380 414.121 380.132 413.154 380.171 412 380 411.333 367.268 412.057 359.02 412 342Z" stroke="#000000" stroke-width="2" stroke-miterlimit="8" fill="none" fill-rule="evenodd"/><path d="M714 340C715.609 340.028 717.066 340.103 718 340 716.176 348.266 716.798 365.492 718 378 716.452 377.902 715.889 377.892 714 378 714.029 362.472 712.074 351.754 714 340Z" fill-rule="evenodd"/><path d="M714 340C715.238 340.042 716.399 340.131 718 340 718.663 352.419 718.755 362.912 718 378 716.828 378.132 715.538 378.171 714 378 713.11 365.268 714.076 357.02 714 340Z" stroke="#000000" stroke-width="2" stroke-miterlimit="8" fill="none" fill-rule="evenodd"/><path d="M509 661C508.972 662.609 508.897 664.066 509 665 500.734 663.176 483.508 663.798 471 665 471.098 663.452 471.108 662.889 471 661 486.528 661.029 497.246 659.074 509 661Z" fill-rule="evenodd"/><path d="M509 661C508.958 662.238 508.869 663.399 509 665 496.581 665.663 486.088 665.755 471 665 470.868 663.828 470.829 662.538 471 661 483.732 660.11 491.98 661.076 509 661Z" stroke="#000000" stroke-width="2" stroke-miterlimit="8" fill="none" fill-rule="evenodd"/><text font-family="Calibri,Calibri_MSFontService,sans-serif" font-weight="400" font-size="37" transform="translate(709.938 420)">3</text><text font-family="Calibri,Calibri_MSFontService,sans-serif" font-weight="400" font-size="37" transform="translate(434 675)">-</text><text font-family="Calibri,Calibri_MSFontService,sans-serif" font-weight="400" font-size="37" transform="translate(445.5 675)">4</text><text font-family="Calibri,Calibri_MSFontService,sans-serif" font-weight="400" font-size="37" transform="translate(446.332 220)">2</text><path d="M710.5 663C710.676 660.159 713.063 657.474 716.5 657.5 719.54 657.611 722.604 659.568 722.5 663 722.811 666.413 720.495 668.772 716.5 668.5 712.523 668.43 710.447 666.351 710.5 663Z" fill="#F2F2F2" fill-rule="evenodd"/><path d="M710.5 663C709.827 660.073 713.977 657.387 716.5 657.5 719.318 657.411 722.941 660.199 722.5 663 722.858 665.526 719.399 668.396 716.5 668.5 713.348 668.25 710.593 665.915 710.5 663Z" stroke="#000000" stroke-width="3" stroke-miterlimit="8" fill="none" fill-rule="evenodd"/></g></svg>