<svg width="1280" height="720" xmlns="http://www.w3.org/2000/svg" xmlns:xlink="http://www.w3.org/1999/xlink" overflow="hidden"><g><rect x="0" y="0" width="1280" height="720" fill="#FFFFFF"/><g><g><g><path d="M530.615 292.125C535.894 274.025 548.715 258.942 565.683 250.646 548.715 242.35 535.894 227.267 530.615 209.167 525.335 227.267 512.515 242.35 495.546 250.646 512.515 258.942 525.335 274.025 530.615 292.125ZM530.615 228.021C530.615 228.021 530.992 228.775 531.369 229.152 536.271 237.448 543.058 244.99 550.977 250.646 542.681 256.679 535.894 264.598 530.992 273.271 526.09 264.221 519.302 256.679 511.006 250.646 518.925 244.99 525.335 237.448 530.237 229.152 530.237 228.775 530.615 228.021 530.615 228.021Z" stroke="#FFFFFF" stroke-width="3.77083"/><path d="M342.827 292.125C346.221 280.435 354.14 271.008 365.075 265.729 354.14 260.45 346.221 251.023 342.827 239.333 339.433 251.023 331.515 260.45 320.579 265.729 331.515 271.008 339.433 280.435 342.827 292.125ZM342.827 256.302C345.09 259.696 348.106 262.712 351.123 265.729 348.106 268.369 345.09 271.763 342.827 275.156 340.565 271.763 337.548 268.746 334.531 265.729 337.548 263.09 340.565 259.696 342.827 256.302Z" stroke="#FFFFFF" stroke-width="3.77083"/><path d="M409.194 235.562C412.21 224.627 419.752 215.954 429.933 211.052 419.752 206.15 412.21 197.477 409.194 186.542 406.177 197.477 398.635 206.15 388.454 211.052 398.635 215.954 406.177 224.627 409.194 235.562ZM409.194 203.51C411.079 206.15 413.719 208.79 415.981 211.052 413.342 213.315 411.079 215.954 409.194 218.594 407.308 215.954 404.669 213.315 402.406 211.052 404.669 208.79 407.308 206.15 409.194 203.51Z" stroke="#FFFFFF" stroke-width="3.77083"/><path d="M448.033 269.5C449.919 262.712 454.444 257.433 460.854 254.417 454.444 251.4 449.919 246.121 448.033 239.333 446.148 246.121 441.623 251.4 435.212 254.417 441.246 257.433 446.148 262.712 448.033 269.5Z" stroke="#FFFFFF" stroke-width="3.77083"/><path d="M572.471 345.294C572.471 312.487 504.973 294.765 441.246 294.765 377.519 294.765 310.021 312.487 310.021 345.294 310.021 363.017 330.006 376.592 358.665 384.888 359.042 427.875 354.517 470.862 345.09 512.719 364.321 525.162 398.258 533.458 441.246 533.458 484.233 533.458 518.171 525.162 537.402 512.719 528.352 470.862 523.827 427.875 523.827 384.888 552.485 376.215 572.471 363.017 572.471 345.294ZM317.562 345.294C317.562 321.537 372.994 302.306 441.246 302.306 509.498 302.306 564.929 321.537 564.929 345.294 564.929 369.05 509.498 388.281 441.246 388.281 372.994 388.281 317.562 368.673 317.562 345.294ZM528.729 508.948C509.121 519.883 477.446 525.917 441.246 525.917 405.046 525.917 373.371 519.883 353.763 508.948 359.796 479.913 363.567 450.5 365.452 421.087 390.34 426.744 415.981 429.383 441.246 429.383 466.888 429.383 492.152 426.744 517.04 421.087 518.925 450.877 522.696 480.29 528.729 508.948ZM516.662 413.546C491.775 419.202 466.51 421.842 441.246 421.842 415.981 421.842 390.34 419.202 365.829 413.546 366.206 404.873 366.206 395.823 366.206 386.773 390.717 392.806 415.981 395.446 441.246 395.446 466.51 395.446 491.775 392.806 516.285 386.773 516.285 395.823 516.285 404.873 516.662 413.546Z" stroke="#FFFFFF" stroke-width="3.77083"/><path d="M517.417 345.294C517.417 340.015 513.646 335.112 508.367 333.981 486.496 328.702 463.871 326.062 441.246 326.062 418.621 325.685 395.996 328.325 374.125 333.981 367.715 335.49 363.944 341.523 365.452 347.933 366.583 352.458 369.977 355.852 374.125 356.606 395.996 361.885 418.621 364.525 441.246 364.525 463.871 364.902 486.496 362.263 508.367 356.606 513.646 355.098 517.417 350.573 517.417 345.294ZM441.246 356.606C419.375 356.983 397.127 354.344 376.01 349.065 373.748 348.688 372.24 346.425 372.617 344.54 372.994 342.654 374.125 341.523 376.01 341.146 397.504 335.867 419.375 333.227 441.246 333.604 463.117 333.227 485.365 335.867 506.481 341.146 508.744 341.523 510.252 343.785 509.875 345.671 509.498 347.556 508.367 348.688 506.481 349.065 484.987 354.344 463.117 356.983 441.246 356.606L441.246 356.606Z" stroke="#FFFFFF" stroke-width="3.77083"/></g></g></g><path d="M994 251C1011.92 250.799 1036.88 253.335 1061 251 1060.33 269.627 1060.8 286.616 1061 313 1038.99 312.523 1015.88 315.88 994 313 996.14 290.165 996.492 270.02 994 251Z" stroke="#000000" stroke-width="2" stroke-miterlimit="8" fill="none" fill-rule="evenodd"/><text font-family="Calibri,Calibri_MSFontService,sans-serif" font-weight="400" font-size="53" transform="translate(1012.01 300)">A</text><path d="M908 338C925.654 337.799 950.241 340.335 974 338 973.343 356.627 973.801 373.616 974 400 952.321 399.523 929.556 402.88 908 400 910.108 377.165 910.455 357.02 908 338Z" stroke="#000000" stroke-width="2" stroke-miterlimit="8" fill="none" fill-rule="evenodd"/><text font-family="Calibri,Calibri_MSFontService,sans-serif" font-weight="400" font-size="53" transform="translate(924.31 387)">G</text><path d="M928 438C945.654 437.803 970.241 440.298 994 438 993.343 456.327 993.801 473.042 994 499 972.321 498.531 949.556 501.833 928 499 930.108 476.533 930.455 456.713 928 438Z" stroke="#000000" stroke-width="2" stroke-miterlimit="8" fill="none" fill-rule="evenodd"/><text font-family="Calibri,Calibri_MSFontService,sans-serif" font-weight="400" font-size="53" transform="translate(948.893 487)">F</text><path d="M906 182C923.921 181.803 948.88 184.298 973 182 972.333 200.327 972.798 217.042 973 243 950.992 242.531 927.883 245.833 906 243 908.14 220.533 908.492 200.713 906 182Z" stroke="#000000" stroke-width="2" stroke-miterlimit="8" fill="none" fill-rule="evenodd"/><text font-family="Calibri,Calibri_MSFontService,sans-serif" font-weight="400" font-size="53" transform="translate(926.429 231)">E</text><path d="M1019 371C1036.65 370.799 1061.24 373.335 1085 371 1084.34 389.627 1084.8 406.616 1085 433 1063.32 432.523 1040.56 435.88 1019 433 1021.11 410.165 1021.45 390.02 1019 371Z" stroke="#000000" stroke-width="2" stroke-miterlimit="8" fill="none" fill-rule="evenodd"/><text font-family="Calibri,Calibri_MSFontService,sans-serif" font-weight="400" font-size="53" transform="translate(1035.26 420)">D</text><path d="M797 251C814.654 250.799 839.241 253.335 863 251 862.343 269.627 862.801 286.616 863 313 841.321 312.523 818.556 315.88 797 313 799.108 290.165 799.455 270.02 797 251Z" stroke="#000000" stroke-width="2" stroke-miterlimit="8" fill="none" fill-rule="evenodd"/><text font-family="Calibri,Calibri_MSFontService,sans-serif" font-weight="400" font-size="53" transform="translate(815.464 300)">C</text><path d="M785 369C802.654 368.799 827.241 371.335 851 369 850.343 387.627 850.801 404.616 851 431 829.321 430.523 806.556 433.88 785 431 787.108 408.165 787.455 388.02 785 369Z" stroke="#000000" stroke-width="2" stroke-miterlimit="8" fill="none" fill-rule="evenodd"/><text font-family="Calibri,Calibri_MSFontService,sans-serif" font-weight="400" font-size="53" transform="translate(803.786 418)">B</text><path d="M736 348.5C731.721 229.848 808.699 132.373 938.5 142 1042.62 126.528 1113.05 229.319 1141 348.5 1151.76 475.829 1046.3 550.261 938.5 555 844.114 566.341 738.054 454.374 736 348.5Z" stroke="#000000" stroke-width="2" stroke-miterlimit="8" fill="none" fill-rule="evenodd"/><path d="M512.145 460.161C526.782 445.047 536.606 436.749 545.645 430.143 546.964 437.844 547.763 438.226 548.677 445.851 566.242 440.847 579.979 442.575 608.959 434.214 637.94 425.853 651.773 426.092 671.229 422.193 690.685 418.294 721.017 409.726 747.409 407.486 747.878 411.04 749.377 414.996 750.111 421.479 732.346 422.427 702.065 430.705 683.867 434.268 665.668 437.831 643.423 441.896 613.648 447.823 583.873 453.75 575.221 452.423 551.379 459.844 553.447 466.86 552.85 469.265 554.411 475.553 541.42 470.533 528.009 466.261 512.145 460.161Z" fill="#FFFFFF" fill-rule="evenodd"/><path d="M512.145 460.161C519.569 453.648 537.523 435.245 545.645 430.143 546.403 435.184 547.346 441.766 548.677 445.851 561.583 443.865 582.126 437.409 610.947 433.83 639.767 430.252 663.157 421.439 679.178 420.658 695.199 419.878 726.353 414.688 747.409 407.486 748.358 411.723 748.521 416.422 750.111 421.479 723.961 425.66 714.759 427.54 681.879 434.651 648.999 441.763 645.752 444.516 619.61 446.672 593.467 448.829 578.785 457.395 551.379 459.844 551.712 465.182 552.617 467.775 554.411 475.553 536.051 468.31 531.863 466.667 512.145 460.161Z" stroke="#000000" stroke-width="2" stroke-miterlimit="8" fill="none" fill-rule="evenodd"/></g></svg>