<svg width="1280" height="720" xmlns="http://www.w3.org/2000/svg" xmlns:xlink="http://www.w3.org/1999/xlink" overflow="hidden"><g><rect x="0" y="0" width="1280" height="720" fill="#FFFFFF"/><path d="M79 360C104.774 356.932 133.492 363.486 147.154 360 160.815 356.514 205.527 359.874 233.028 360 260.528 360.126 276.291 362.276 318.902 360 361.513 357.724 339.87 358.922 360.475 360 381.08 361.078 396.298 359.38 428.629 360 460.96 360.62 455.227 360.043 470.203 360 485.179 359.957 492.171 358.49 511.777 360 531.383 361.51 545.86 360.999 571.071 360 596.282 359.001 623.659 357.331 639.225 360 654.79 362.669 668.121 360.616 680.799 360 693.476 359.384 706.594 362.461 731.232 360 755.871 357.539 765.164 358.851 790.526 360 815.888 361.149 819.285 359.256 832.1 360 844.915 360.744 860.593 358.409 873.674 360 886.755 361.591 925.266 355.94 965 360 964.983 361.075 965.038 363.322 965 365 946.491 362.386 919.903 361.067 879.126 365 838.349 368.933 831.833 364.546 793.252 365 754.671 365.454 762.585 364.42 733.958 365 705.331 365.58 687.396 366.592 674.665 365 661.933 363.408 608.961 364.264 588.791 365 568.621 365.736 556.409 363.481 547.217 365 538.025 366.519 486.761 366.279 470.203 365 453.645 363.721 423.575 363.849 410.909 365 398.244 366.151 371.38 367.086 360.475 365 349.571 362.914 306.73 368.293 292.322 365 277.913 361.707 234.64 368.984 215.308 365 195.976 361.016 171.219 367.245 156.014 365 140.809 362.755 106.338 366.78 79 365 78.9458 363.62 79.118 362.423 79 360Z" fill-rule="evenodd"/><path d="M79 360C97.5116 358.257 111.29 358.265 120.574 360 129.858 361.735 147.953 358.457 171.008 360 194.062 361.543 214.342 359.951 230.301 360 246.261 360.049 263.753 359.993 289.595 360 315.438 360.007 327.282 362.386 340.029 360 352.776 357.614 379.632 361.557 390.463 360 401.294 358.443 427.877 360.271 440.897 360 453.917 359.729 470.877 361.301 482.471 360 494.064 358.699 508.544 360.619 524.045 360 539.546 359.381 549.052 358.587 565.618 360 582.185 361.413 595.347 360.264 607.192 360 619.038 359.736 646.935 358.526 675.346 360 703.757 361.474 742.909 357.8 761.22 360 779.531 362.2 791.983 359.375 802.794 360 813.604 360.625 838.618 357.892 862.088 360 885.557 362.108 890.024 361.063 903.661 360 917.299 358.937 946.984 362.134 965 360 965.086 361.576 964.909 363.147 965 365 924.705 361.167 909.095 360.529 879.126 365 849.157 369.471 838.481 362.727 810.972 365 783.464 367.273 786.543 367.034 769.398 365 752.253 362.966 741.749 362.797 718.965 365 696.181 367.203 657.71 368.388 641.951 365 626.191 361.612 614.192 365.751 600.377 365 586.562 364.249 548.461 361.465 532.223 365 515.985 368.535 481.145 367.694 464.069 365 446.994 362.306 425.675 365.497 404.775 365 383.875 364.503 355.398 362.135 336.622 365 317.845 367.865 280.912 361.299 250.748 365 220.584 368.701 216.238 365.64 191.454 365 166.67 364.36 164.481 364.565 149.88 365 135.279 365.435 101.649 367.079 79 365 79.0699 362.826 79.023 361.54 79 360Z" stroke="#000000" stroke-width="2" stroke-miterlimit="8" fill="none" fill-rule="evenodd"/><path d="M488 20C490.077 20.1493 491.951 20.1557 494 20 498.275 51.967 494.897 67.6607 494 102.862 493.103 138.064 491.886 128.817 494 154.124 496.114 179.432 495.308 194.041 494 205.387 492.692 216.732 491.684 241.959 494 256.649 496.316 271.338 496.059 301.061 494 314.231 491.942 327.401 494.796 350.101 494 365.493 493.204 380.886 496.227 413.844 494 448.356 491.773 482.867 493.927 493.596 494 505.938 494.073 518.279 493.168 546.101 494 557.2 494.832 568.299 498.525 605.04 494 652 491.542 651.806 489.703 652.115 488 652 485.794 633.306 487.166 620.622 488 600.738 488.834 580.853 484.002 544.734 488 524.196 491.998 503.657 484.86 469.544 488 453.973 491.14 438.402 485.047 397.026 488 371.111 490.953 345.196 486.508 335.971 488 319.849 489.492 303.727 484.445 264.442 488 243.307 491.555 222.171 487.887 198.771 488 179.404 488.113 160.038 488.917 132.847 488 109.182 487.083 85.5176 485.334 44.8161 488 20Z" fill-rule="evenodd"/><path d="M488 20C489.97 20.1925 492.16 19.8594 494 20 492.536 42.7914 493.556 49.4119 494 77.5823 494.444 105.753 493.65 120.392 494 147.804 494.35 175.216 491.171 196.511 494 224.347 496.829 252.182 493.919 265.783 494 288.249 494.081 310.715 494.587 319.645 494 345.831 493.413 372.017 495.595 392.314 494 416.053 492.405 439.793 492.965 466.934 494 486.276 495.035 505.617 496.595 514.398 494 537.538 491.405 560.677 492.249 577.587 494 588.8 495.751 600.013 491.893 622.57 494 652 491.244 652.224 490.824 651.736 488 652 490.447 632.361 484.737 607.099 488 569.138 491.263 531.176 488.306 525.509 488 511.556 487.694 497.602 488.384 472.229 488 460.293 487.616 448.357 488.845 425.241 488 409.031 487.155 392.821 490.197 379.912 488 357.769 485.803 335.626 487.058 324.078 488 306.507 488.942 288.936 486.571 252.275 488 236.284 489.429 220.293 487.263 191.201 488 153.422 488.737 115.644 488.359 120.238 488 102.16 487.641 84.0818 485.371 36.8998 488 20Z" stroke="#000000" stroke-width="2" stroke-miterlimit="8" fill="none" fill-rule="evenodd"/><path d="M985.851 240.825C986.086 241.235 986.291 241.954 986.549 242.581 956.873 256.229 931.186 265.306 904.754 275.117 878.323 284.929 872.555 287.555 859.834 292.986 847.113 298.417 829.852 307.357 814.914 310.854 799.976 314.351 786.394 323.996 769.994 328.723 753.593 333.449 735.642 341.461 717.698 349.525 699.755 357.589 690.168 361.676 672.778 367.393 655.389 373.111 606.799 390.817 590.983 399.93 575.168 409.042 553.517 412.553 538.688 420.732 523.859 428.911 506.806 433.029 493.768 438.6 480.73 444.172 462.712 452.483 441.473 459.402 420.234 466.321 386.525 478.135 367.053 489.005 347.581 499.875 326.652 502.449 314.758 509.807 302.863 517.165 275.008 527.945 249.054 535.943 248.744 535.331 248.598 534.973 248.355 534.187 268.236 528.66 274.235 522.303 293.275 516.318 312.316 510.334 322.069 502.5 338.195 498.45 354.322 494.4 386.918 475.978 412.615 468.847 438.313 461.717 444.018 458.245 472.286 445.112 500.553 431.978 514.743 427.011 539.331 418.442 563.918 409.874 584.88 401.922 599.001 394.707 613.121 387.492 647.487 379.073 666.046 368.037 684.605 357.002 708.735 348.95 725.716 344.302 742.697 339.654 766.204 327.29 792.761 317.632 819.318 307.975 832.156 303.933 852.431 293.897 872.707 283.861 890.249 276.494 904.726 273.095 919.204 269.696 965.705 248.483 985.851 240.825Z" fill="#4EA72E" fill-rule="evenodd"/><path d="M985.851 240.825C986.095 241.27 986.191 241.788 986.549 242.581 959.51 250.048 936.244 259.486 912.129 272.184 888.014 284.882 878.038 283.87 867.209 290.052 856.38 296.235 840.858 301.841 822.289 307.921 803.72 314 792.439 319.885 777.369 325.789 762.298 331.693 744.503 339.467 732.448 343.658 720.394 347.848 689.331 359.639 672.778 367.393 656.226 375.148 646.855 379.207 627.858 385.262 608.862 391.316 595.198 399.326 582.938 403.13 570.678 406.934 548.391 415.098 515.893 429.799 483.395 444.5 492.201 437.988 470.973 447.668 449.745 457.347 430.333 465.335 389.178 480.204 348.023 495.073 345.989 494.98 329.508 503.94 313.026 512.9 264.301 527.138 249.054 535.943 248.847 535.377 248.63 534.727 248.355 534.187 262.59 525.958 274.415 523.954 293.275 516.318 312.135 508.683 320.973 507.298 338.195 498.45 355.418 489.602 375.7 484.579 397.866 474.714 420.031 464.85 427.392 461.435 442.786 456.846 458.18 452.257 495.505 437.964 509.831 430.177 524.157 422.389 561.867 405.19 584.251 400.574 606.634 395.958 612.367 390.575 636.546 379.772 660.725 368.969 679.119 362.256 718.341 347.235 757.563 332.215 766.07 331.062 800.136 314.699 834.202 298.335 833.065 303.969 845.056 296.831 857.047 289.692 899.766 274.298 919.476 267.228 939.187 260.157 954.468 256.316 985.851 240.825Z" stroke="#4EA72E" stroke-width="2" stroke-miterlimit="8" fill="none" fill-rule="evenodd"/><path d="M642.641 19.548C643.103 19.6434 643.778 19.9655 644.419 20.1875 636.438 42.6518 619.525 79.8037 615.259 101.277 610.994 122.751 601.779 134.512 598.25 148.58 594.72 162.647 588.132 182.19 581.24 195.882 574.348 209.574 573.445 221.404 564.23 243.184 555.016 264.965 550.513 275.556 544.791 297.244 539.068 318.933 537.713 323.3 527.781 344.547 517.849 365.793 512.89 388.702 498.621 425.636 484.353 462.57 489.301 459.102 479.182 479.696 469.062 500.29 465.026 514.27 462.172 526.998 459.317 539.727 451.533 563.754 442.732 581.058 433.932 598.363 414.891 644.365 401.423 695.935 400.577 695.711 400.408 695.622 399.645 695.296 405.859 671.669 414.319 658.121 416.654 647.994 418.989 637.866 429.681 603.888 440.954 580.419 452.227 556.949 458.807 540.67 470.113 499.329 481.42 457.988 482.654 468.722 487.123 452.027 491.592 435.331 503.159 399.179 513.853 377.694 524.547 356.21 529.384 332.63 535.722 316.877 542.061 301.124 554.219 268.672 560.022 249.302 565.825 229.933 574.042 214.492 581.892 188.485 589.742 162.478 597.118 150.856 606.191 120.91 615.265 90.965 627.804 63.7815 642.641 19.548Z" fill="#E97132" fill-rule="evenodd"/><path d="M642.641 19.548C643.378 19.7173 643.596 19.9767 644.419 20.1875 636.007 42.9155 630.621 54.0497 622.549 81.0048 614.477 107.96 608.832 113.648 600.68 141.822 592.527 169.997 592.326 171.668 581.24 195.882 570.154 220.095 570.598 232.942 556.94 263.457 543.283 293.971 537.01 314.544 532.641 331.032 528.272 347.519 525.342 355.546 515.631 378.334 505.92 401.122 502.245 415.133 498.621 425.636 494.998 436.14 486.967 454.784 481.612 472.939 476.257 491.094 470.345 506.513 464.602 520.241 458.859 533.969 451.092 552.156 442.732 581.058 434.373 609.96 431.207 606.92 425.723 628.361 420.238 649.801 409.001 676.463 401.423 695.935 400.805 695.684 400.28 695.432 399.645 695.296 406.721 663.079 418.9 633.588 428.804 614.206 438.709 594.825 438.225 587.796 445.814 566.904 453.402 546.012 464.857 515.665 470.113 499.329 475.37 482.993 486.669 444.567 499.273 418.239 511.877 391.912 510.774 385.098 516.283 370.937 521.792 356.776 527.377 331.005 538.152 310.12 548.927 289.234 548.851 281.874 555.162 262.817 561.473 243.761 568.954 217.284 577.032 202 585.11 186.716 585.732 170.931 594.042 154.698 602.351 138.464 609.398 118.189 618.341 87.1228 627.284 56.0563 634.834 41.1376 642.641 19.548Z" stroke="#E97132" stroke-width="2" stroke-miterlimit="8" fill="none" fill-rule="evenodd"/><text fill="#4EA72E" font-family="Calibri,Calibri_MSFontService,sans-serif" font-weight="400" font-size="37" transform="translate(697.365 416)">Lavt positivt</text><text fill="#4EA72E" font-family="Calibri,Calibri_MSFontService,sans-serif" font-weight="400" font-size="37" transform="translate(699.718 460)">stigningstall</text><text fill="#E97132" font-family="Calibri,Calibri_MSFontService,sans-serif" font-weight="400" font-size="37" transform="translate(672.375 131)">Høyt positivt</text><text fill="#E97132" font-family="Calibri,Calibri_MSFontService,sans-serif" font-weight="400" font-size="37" transform="translate(679.768 175)">stigningstall</text><path d="M640 247C640.067 247.495 639.992 248.283 640 249 621.301 250.296 614.141 250.758 600.48 249 586.819 247.242 572.121 247.097 564 249 563.962 248.023 563.932 247.604 564 247 582.437 246.165 584.38 248.165 601.24 247 618.1 245.835 622.086 245.719 640 247Z" stroke="#E97132" stroke-width="2" stroke-miterlimit="8" stroke-dasharray="8 6" fill="none" fill-rule="evenodd"/><path d="M636 46C636.247 45.9332 636.641 46.0079 637 46 638.416 61.4602 637.409 92.5414 637 118.787 636.591 145.032 637.145 160.768 637 181.273 636.855 201.779 635.537 233.829 637 252 636.618 251.94 636.376 251.939 636 252 637.247 217.931 636.159 216.143 636 181.273 635.841 146.403 636.005 140.568 636 112.607 635.995 84.6451 635.985 77.8351 636 46Z" stroke="#E97132" stroke-width="2" stroke-miterlimit="8" stroke-dasharray="8 6" fill="none" fill-rule="evenodd"/><path d="M640 408C640.067 408.495 639.992 409.283 640 410 621.301 411.296 614.141 411.758 600.48 410 586.819 408.242 572.121 408.097 564 410 563.962 409.023 563.932 408.604 564 408 582.437 407.165 584.38 409.165 601.24 408 618.1 406.835 622.086 406.719 640 408Z" stroke="#4EA72E" stroke-width="2" stroke-miterlimit="8" stroke-dasharray="8 6" fill="none" fill-rule="evenodd"/><path d="M638 381C638.495 380.934 639.283 381.008 640 381 639.912 387.15 639.162 398.345 640 408 639.245 407.997 638.824 407.987 638 408 636.746 400.482 638.669 394.13 638 381Z" stroke="#4EA72E" stroke-width="2" stroke-miterlimit="8" stroke-dasharray="8 6" fill="none" fill-rule="evenodd"/><text fill="#E97132" font-family="Calibri,Calibri_MSFontService,sans-serif" font-weight="400" font-size="37" transform="translate(596.684 292)">1</text><text fill="#4EA72E" font-family="Calibri,Calibri_MSFontService,sans-serif" font-weight="400" font-size="37" transform="translate(596.684 454)">1</text></g></svg>