<svg width="1280" height="720" xmlns="http://www.w3.org/2000/svg" xmlns:xlink="http://www.w3.org/1999/xlink" overflow="hidden"><g><rect x="0" y="0" width="1280" height="720" fill="#FFFFFF"/><path d="M189 285C202.764 283.072 226.069 283.221 255.44 285 284.811 286.779 293.391 288.189 321.88 285 350.369 281.811 355.816 286.704 388.32 285 420.824 283.296 454.349 282.795 491 285 490.3 305.654 488.582 329.904 491 348.25 493.418 366.596 493.3 386.951 491 411.5 488.7 436.049 488.012 452.847 491 472.22 493.988 491.593 490.426 517.19 491 538 477.617 534.858 456.562 538.677 427.58 538 398.598 537.323 388.78 536.812 373.22 538 357.66 539.188 336.497 540.959 312.82 538 289.143 535.041 282.735 538.776 261.48 538 240.225 537.224 212.432 541.064 189 538 191.082 515.185 190.364 508.429 189 482.34 187.636 456.251 190.578 434.352 189 421.62 187.422 408.888 189.428 386.23 189 365.96 188.572 345.69 191.935 308.503 189 285Z" stroke="#000000" stroke-width="2" stroke-miterlimit="8" stroke-dasharray="8 6" fill="none" fill-rule="evenodd"/><path d="M189 538C221.914 519.808 237.042 513.181 259.527 503.845 282.012 494.509 294.86 483.583 314.381 477.28 333.903 470.977 365.369 450.394 379.684 445.655 393.999 440.916 411.844 433.021 434.539 419.09 457.233 405.159 479.577 394.619 510.29 382.405 541.002 370.191 567.907 358.363 586.041 345.72 604.175 333.077 634.631 320.924 651.344 314.095 668.057 307.266 688.011 294.493 711.422 285 738.727 283.577 741.17 285.952 768.342 285 795.514 284.048 809.705 285.198 825.262 285 840.818 284.802 855.849 286.504 882.182 285 908.514 283.496 913.367 283.426 936.106 285 958.844 286.574 985.631 281.354 1011 285 985.624 299.49 972.541 300.422 940.473 319.155 908.405 337.888 893.908 343.863 875.17 350.78 856.432 357.696 828.114 376.465 804.643 384.935 781.173 393.405 764.613 407.436 734.116 419.09 703.619 430.744 675.238 446.922 658.365 455.775 641.492 464.628 629.664 471.895 603.511 482.34 577.357 492.785 571.84 499.773 548.656 508.905 525.473 518.037 509.579 526.098 488.578 538 471.346 539.282 436.094 535.873 422.671 538 409.248 540.127 390.001 535.948 368.747 538 347.493 540.052 324.573 536.072 302.84 538 281.106 539.928 273.981 536.505 251.911 538 229.842 539.495 208.816 537.411 189 538Z" stroke="#000000" stroke-width="2" stroke-miterlimit="8" fill="none" fill-rule="evenodd"/><path d="M190 538C212.118 511.986 222.919 499.651 237.697 484.87 252.476 470.089 260.147 455.942 278.581 439.33 297.015 422.718 309.101 402.967 324.007 388.73 338.913 374.493 349.089 364.549 364.891 343.19 380.692 321.831 397.781 308.98 417.131 285 438.353 286.256 453.541 286.557 482.442 285 511.343 283.443 513.53 285.668 541.816 285 570.102 284.332 572.479 285.89 595.252 285 618.025 284.11 643.514 285.36 660.563 285 677.613 284.64 702.85 282.467 714 285 701.984 294.24 680.734 318.411 670.845 333.07 660.956 347.729 641.604 364.325 632.233 376.08 622.862 387.835 604.761 406.493 593.621 419.09 582.48 431.687 566.008 445.808 548.195 469.69 530.382 493.572 509.778 510.601 486.869 538 461.55 539.277 443.293 536.427 424.527 538 405.761 539.573 386.423 538.576 374.059 538 361.695 537.424 339.56 536.906 311.716 538 283.873 539.094 270.823 540.343 255.311 538 239.8 535.657 219.436 538.347 190 538Z" stroke="#000000" stroke-width="2" stroke-miterlimit="8" fill="none" fill-rule="evenodd"/><rect x="714" y="256" width="304" height="237" stroke="#FFFFFF" stroke-width="2" stroke-miterlimit="8" fill="#FFFFFF"/><rect x="493" y="535" width="77" height="30" stroke="#FFFFFF" stroke-width="2" stroke-miterlimit="8" fill="#FFFFFF"/><path d="M494.959 531.926 651.09 458.547 664.053 486.128 507.921 559.507Z" stroke="#FFFFFF" stroke-width="2" stroke-miterlimit="8" fill="#FFFFFF" fill-rule="evenodd"/><path d="M564.959 487.972 721.09 414.593 734.053 442.174 577.921 515.553Z" stroke="#FFFFFF" stroke-width="2" stroke-miterlimit="8" fill="#FFFFFF" fill-rule="evenodd"/></g></svg>