<svg width="1280" height="720" xmlns="http://www.w3.org/2000/svg" xmlns:xlink="http://www.w3.org/1999/xlink" overflow="hidden"><g><rect x="0" y="0" width="1280" height="720" fill="#FFFFFF"/><path d="M189 133C214.555 132.303 230.333 131.635 265.705 133 301.077 134.365 320.636 132.919 342.41 133 364.184 133.081 392.806 130.708 419.115 133 445.424 135.292 462.423 134.275 479.95 133 497.477 131.725 515.6 131.675 546.075 133 576.55 134.325 590.672 133.02 606.91 133 623.148 132.98 690.742 133.371 718 133 719.008 158.994 718.843 161.863 718 187.48 717.157 213.097 715.525 218.194 718 246.5 720.475 274.806 718.563 285.492 718 305.52 717.436 325.548 717.124 338.865 718 360 702.881 360.202 675.073 358.92 657.165 360 639.257 361.08 618.364 360.222 606.91 360 595.456 359.778 576.136 362.352 556.655 360 537.174 357.648 515.723 360.41 501.11 360 486.497 359.59 469.56 359.458 445.565 360 421.57 360.542 407.143 358.974 384.73 360 362.317 361.026 352.736 359.083 323.895 360 295.054 360.917 298.723 357.556 273.64 360 248.557 362.444 212.517 363.997 189 360 191.761 338.526 187.226 317.36 189 303.25 190.774 289.14 189.505 270.497 189 248.77 188.495 227.043 190.793 209.446 189 192.02 187.207 174.594 189.113 155.173 189 133Z" stroke="#000000" stroke-width="2" stroke-miterlimit="8" fill="none" fill-rule="evenodd"/><path d="M566 133 566 359.772" stroke="#000000" stroke-width="2" stroke-miterlimit="8" stroke-dasharray="8 6" fill="none" fill-rule="evenodd"/><text font-family="Calibri,Calibri_MSFontService,sans-serif" font-weight="400" font-size="43" transform="translate(142.627 261)">3</text><text font-family="Calibri,Calibri_MSFontService,sans-serif" font-weight="400" font-size="43" transform="translate(420.964 414)">7=5+2</text></g></svg>