<svg width="1280" height="720" xmlns="http://www.w3.org/2000/svg" xmlns:xlink="http://www.w3.org/1999/xlink" overflow="hidden"><g><rect x="0" y="0" width="1280" height="720" fill="#FFFFFF"/><path d="M619 291C619.114 280.181 627.966 273.747 637 273 644.998 272.248 655.4 279.624 655 291 656.635 299.835 646.72 309.578 637 309 626.931 309.431 620.374 299.705 619 291Z" fill="#B8D4F0" fill-rule="evenodd"/><path d="M619 291C619.183 281.237 626.479 272.682 637 273 647.18 273.439 654.211 279.927 655 291 653.1 299.635 644.677 308.867 637 309 627.03 309.562 620.473 299.071 619 291Z" stroke="#000000" stroke-width="2" stroke-miterlimit="8" fill="none" fill-rule="evenodd"/><path d="M456 336.5C456.081 326.78 466.95 321.597 476 320 485.182 319.3 496.209 326.66 496 336.5 497.569 344.583 486.69 353.899 476 353 464.372 354.9 456.424 345.243 456 336.5Z" fill="#B8D4F0" fill-rule="evenodd"/><path d="M456 336.5C457.382 328.689 464.485 319.75 476 320 487.182 320.243 495.292 326.402 496 336.5 495.637 345.371 484.766 352.87 476 353 464.856 354.87 457.154 344.19 456 336.5Z" stroke="#000000" stroke-width="2" stroke-miterlimit="8" fill="none" fill-rule="evenodd"/><path d="M576.424 237.569C588.719 235.478 596.294 242.854 598.796 250.657 600.987 257.333 593.88 269.037 582.719 270.987 573.506 274.435 561.462 267.009 560.347 257.9 557.657 248.567 566.132 239.823 576.424 237.569Z" fill="#2D7FCF" fill-rule="evenodd"/><path d="M576.424 237.569C586.841 235.88 597.538 239.904 598.796 250.657 598.852 261.285 594.201 268.086 582.719 270.987 572.629 271.759 561.962 266.182 560.347 257.9 556.449 248.962 568.086 240.791 576.424 237.569Z" stroke="#000000" stroke-width="2" stroke-miterlimit="8" fill="none" fill-rule="evenodd"/><path d="M909.844 214.453C898.706 208.843 896.984 198.411 899.598 190.645 901.796 183.971 914.46 178.765 924.602 183.816 934.064 186.506 939.355 199.629 934.848 207.624 931.477 216.733 919.467 218.744 909.844 214.453Z" fill="#B8D4F0" fill-rule="evenodd"/><path d="M909.844 214.453C900.457 209.633 894.232 200.048 899.598 190.645 905.859 182.056 913.637 179.34 924.602 183.816 933.183 189.181 938.46 199.998 934.848 207.624 932.683 217.131 918.468 216.806 909.844 214.453Z" stroke="#000000" stroke-width="2" stroke-miterlimit="8" fill="none" fill-rule="evenodd"/><path d="M799 279.5C799.114 268.982 807.966 262.726 817 262 824.998 261.269 835.4 268.44 835 279.5 836.635 288.09 826.72 297.562 817 297 806.931 297.419 800.374 287.963 799 279.5Z" fill="#B8D4F0" fill-rule="evenodd"/><path d="M799 279.5C799.183 270.008 806.479 261.691 817 262 827.18 262.427 834.211 268.735 835 279.5 833.1 287.895 824.677 296.871 817 297 807.03 297.546 800.473 287.347 799 279.5Z" stroke="#000000" stroke-width="2" stroke-miterlimit="8" fill="none" fill-rule="evenodd"/><path d="M104 452.5C104.114 441.982 112.966 435.726 122 435 129.998 434.269 140.4 441.44 140 452.5 141.635 461.09 131.72 470.562 122 470 111.931 470.419 105.374 460.963 104 452.5Z" stroke="#000000" stroke-width="2" stroke-miterlimit="8" fill="none" fill-rule="evenodd"/><path d="M303.952 467.972C294.42 463.253 292.584 452.488 295.865 443.984 298.69 436.417 309.761 430.139 319.662 435.355 328.201 437.642 332.502 450.782 327.749 459.342 323.736 468.649 312.261 470.44 303.952 467.972Z" fill="#B8D4F0" fill-rule="evenodd"/><path d="M303.952 467.972C295.385 463.64 290.993 453.381 295.865 443.984 300.697 434.948 309.511 431.346 319.662 435.355 326.481 440.759 330.982 452.329 327.749 459.342 323.896 468.615 311.743 470.08 303.952 467.972Z" stroke="#000000" stroke-width="2" stroke-miterlimit="8" fill="none" fill-rule="evenodd"/><path d="M265 351C265.114 340.181 273.966 333.747 283 333 290.998 332.248 301.4 339.624 301 351 302.635 359.835 292.72 369.578 283 369 272.931 369.431 266.374 359.705 265 351Z" fill="#2D7FCF" fill-rule="evenodd"/><path d="M265 351C265.183 341.237 272.479 332.682 283 333 293.18 333.439 300.211 339.927 301 351 299.1 359.635 290.677 368.867 283 369 273.03 369.562 266.473 359.071 265 351Z" stroke="#000000" stroke-width="2" stroke-miterlimit="8" fill="none" fill-rule="evenodd"/><path d="M518.892 313.692C509.36 308.973 507.524 298.209 510.805 289.705 513.63 282.138 524.701 275.859 534.602 281.075 543.141 283.363 547.442 296.503 542.689 305.062 538.676 314.369 527.201 316.161 518.892 313.692Z" fill="#B8D4F0" fill-rule="evenodd"/><path d="M518.892 313.692C510.325 309.361 505.932 299.102 510.805 289.705 515.637 280.669 524.451 277.067 534.602 281.075 541.421 286.48 545.922 298.05 542.689 305.062 538.836 314.335 526.683 315.8 518.892 313.692Z" stroke="#000000" stroke-width="2" stroke-miterlimit="8" fill="none" fill-rule="evenodd"/><path d="M643 392.5C643.081 382.78 653.95 377.597 663 376 672.182 375.3 683.209 382.66 683 392.5 684.569 400.583 673.69 409.899 663 409 651.372 410.9 643.424 401.243 643 392.5Z" fill="#B8D4F0" fill-rule="evenodd"/><path d="M643 392.5C644.382 384.689 651.485 375.75 663 376 674.182 376.243 682.292 382.402 683 392.5 682.637 401.371 671.766 408.87 663 409 651.856 410.87 644.154 400.19 643 392.5Z" stroke="#000000" stroke-width="2" stroke-miterlimit="8" fill="none" fill-rule="evenodd"/><path d="M849 243.5C849.114 232.982 857.966 226.726 867 226 874.998 225.269 885.4 232.44 885 243.5 886.635 252.09 876.72 261.562 867 261 856.931 261.419 850.374 251.963 849 243.5Z" fill="#B8D4F0" fill-rule="evenodd"/><path d="M849 243.5C849.183 234.008 856.479 225.691 867 226 877.18 226.427 884.211 232.735 885 243.5 883.1 251.895 874.677 260.871 867 261 857.03 261.546 850.473 251.347 849 243.5Z" stroke="#000000" stroke-width="2" stroke-miterlimit="8" fill="none" fill-rule="evenodd"/><path d="M1086.89 378.992C1099.19 376.901 1106.76 384.277 1109.26 392.08 1111.45 398.756 1104.35 410.46 1093.19 412.411 1083.97 415.858 1071.93 408.432 1070.81 399.323 1068.12 389.99 1076.6 381.246 1086.89 378.992Z" fill="#B8D4F0" fill-rule="evenodd"/><path d="M1086.89 378.992C1097.31 377.303 1108.01 381.327 1109.26 392.08 1109.32 402.708 1104.67 409.509 1093.19 412.411 1083.1 413.182 1072.43 407.605 1070.81 399.323 1066.92 390.385 1078.55 382.214 1086.89 378.992Z" stroke="#000000" stroke-width="2" stroke-miterlimit="8" fill="none" fill-rule="evenodd"/><path d="M1050 451.5C1050.11 440.982 1058.97 434.726 1068 434 1076 433.269 1086.4 440.44 1086 451.5 1087.64 460.09 1077.72 469.562 1068 469 1057.93 469.419 1051.37 459.963 1050 451.5Z" fill="#B8D4F0" fill-rule="evenodd"/><path d="M1050 451.5C1050.18 442.008 1057.48 433.691 1068 434 1078.18 434.427 1085.21 440.735 1086 451.5 1084.1 459.895 1075.68 468.871 1068 469 1058.03 469.546 1051.47 459.347 1050 451.5Z" stroke="#000000" stroke-width="2" stroke-miterlimit="8" fill="none" fill-rule="evenodd"/><path d="M627 452.5C627.114 441.982 635.966 435.726 645 435 652.998 434.269 663.4 441.44 663 452.5 664.635 461.09 654.72 470.562 645 470 634.931 470.419 628.374 460.963 627 452.5Z" fill="#B8D4F0" fill-rule="evenodd"/><path d="M627 452.5C627.183 443.008 634.479 434.691 645 435 655.18 435.427 662.211 441.735 663 452.5 661.1 460.895 652.677 469.871 645 470 635.03 470.546 628.473 460.347 627 452.5Z" stroke="#000000" stroke-width="2" stroke-miterlimit="8" fill="none" fill-rule="evenodd"/><path d="M675.006 349.756C665.474 345.037 663.638 334.273 666.919 325.768 669.744 318.201 680.815 311.923 690.716 317.139 699.255 319.426 703.556 332.566 698.803 341.126 694.79 350.433 683.315 352.224 675.006 349.756Z" fill="#2D7FCF" fill-rule="evenodd"/><path d="M675.006 349.756C666.439 345.425 662.046 335.165 666.919 325.768 671.751 316.733 680.565 313.131 690.716 317.139 697.535 322.544 702.035 334.113 698.803 341.126 694.95 350.399 682.796 351.864 675.006 349.756Z" stroke="#000000" stroke-width="2" stroke-miterlimit="8" fill="none" fill-rule="evenodd"/><path d="M1050 249C1050.11 238.181 1058.97 231.747 1068 231 1076 230.248 1086.4 237.624 1086 249 1087.64 257.835 1077.72 267.578 1068 267 1057.93 267.431 1051.37 257.705 1050 249Z" fill="#B8D4F0" fill-rule="evenodd"/><path d="M1050 249C1050.18 239.237 1057.48 230.682 1068 231 1078.18 231.439 1085.21 237.927 1086 249 1084.1 257.635 1075.68 266.867 1068 267 1058.03 267.562 1051.47 257.071 1050 249Z" stroke="#000000" stroke-width="2" stroke-miterlimit="8" fill="none" fill-rule="evenodd"/><path d="M316 392.5C316.081 382.78 326.95 377.597 336 376 345.182 375.3 356.209 382.66 356 392.5 357.569 400.583 346.69 409.899 336 409 324.372 410.9 316.424 401.243 316 392.5Z" fill="#2D7FCF" fill-rule="evenodd"/><path d="M316 392.5C317.382 384.689 324.485 375.75 336 376 347.182 376.243 355.292 382.402 356 392.5 355.637 401.371 344.766 408.87 336 409 324.856 410.87 317.154 400.19 316 392.5Z" stroke="#000000" stroke-width="2" stroke-miterlimit="8" fill="none" fill-rule="evenodd"/><path d="M1013.24 186.936C1025.54 184.846 1033.11 192.222 1035.62 200.024 1037.81 206.701 1030.7 218.405 1019.54 220.355 1010.33 223.803 998.282 216.377 997.167 207.267 994.477 197.934 1002.95 189.191 1013.24 186.936Z" fill="#B8D4F0" fill-rule="evenodd"/><path d="M1013.24 186.936C1023.66 185.248 1034.36 189.272 1035.62 200.024 1035.67 210.652 1031.02 217.454 1019.54 220.355 1009.45 221.127 998.783 215.549 997.167 207.267 993.27 198.33 1004.91 190.158 1013.24 186.936Z" stroke="#000000" stroke-width="2" stroke-miterlimit="8" fill="none" fill-rule="evenodd"/><path d="M1096.75 358.724C1087.22 354.005 1085.38 343.24 1088.66 334.736 1091.49 327.169 1102.56 320.891 1112.46 326.107 1121 328.394 1125.3 341.534 1120.55 350.094 1116.54 359.401 1105.06 361.192 1096.75 358.724Z" fill="#B8D4F0" fill-rule="evenodd"/><path d="M1096.75 358.724C1088.18 354.392 1083.79 344.133 1088.66 334.736 1093.5 325.7 1102.31 322.098 1112.46 326.107 1119.28 331.511 1123.78 343.081 1120.55 350.094 1116.69 359.367 1104.54 360.832 1096.75 358.724Z" stroke="#000000" stroke-width="2" stroke-miterlimit="8" fill="none" fill-rule="evenodd"/><path d="M1114.21 307.4C1104.67 302.681 1102.84 291.917 1106.12 283.413 1108.94 275.845 1120.02 269.567 1129.92 274.783 1138.46 277.071 1142.76 290.211 1138 298.77 1133.99 308.077 1122.52 309.869 1114.21 307.4Z" fill="#2D7FCF" fill-rule="evenodd"/><path d="M1114.21 307.4C1105.64 303.069 1101.25 292.809 1106.12 283.413 1110.95 274.377 1119.77 270.775 1129.92 274.783 1136.74 280.188 1141.24 291.758 1138 298.77 1134.15 308.043 1122 309.508 1114.21 307.4Z" stroke="#000000" stroke-width="2" stroke-miterlimit="8" fill="none" fill-rule="evenodd"/><path d="M948 168.5C948.081 158.78 958.95 153.597 968 152 977.182 151.3 988.209 158.66 988 168.5 989.569 176.583 978.69 185.899 968 185 956.372 186.9 948.424 177.243 948 168.5Z" fill="#2D7FCF" fill-rule="evenodd"/><path d="M948 168.5C949.382 160.689 956.485 151.75 968 152 979.182 152.243 987.292 158.402 988 168.5 987.637 177.371 976.766 184.87 968 185 956.856 186.87 949.154 176.19 948 168.5Z" stroke="#000000" stroke-width="2" stroke-miterlimit="8" fill="none" fill-rule="evenodd"/><path d="M229 451.5C229.114 440.982 237.966 434.726 247 434 254.998 433.269 265.4 440.44 265 451.5 266.635 460.09 256.72 469.562 247 469 236.931 469.419 230.374 459.963 229 451.5Z" stroke="#000000" stroke-width="2" stroke-miterlimit="8" fill="none" fill-rule="evenodd"/><path d="M220.675 409.133C211.143 404.414 209.308 393.65 212.589 385.146 215.413 377.578 226.485 371.3 236.386 376.516 244.925 378.804 249.226 391.943 244.472 400.503 240.46 409.81 228.984 411.602 220.675 409.133Z" fill="#B8D4F0" fill-rule="evenodd"/><path d="M220.675 409.133C212.108 404.802 207.716 394.542 212.589 385.146 217.42 376.11 226.235 372.508 236.386 376.516 243.205 381.921 247.705 393.491 244.472 400.503 240.619 409.776 228.466 411.241 220.675 409.133Z" stroke="#000000" stroke-width="2" stroke-miterlimit="8" fill="none" fill-rule="evenodd"/><path d="M571.716 467.972C562.184 463.253 560.349 452.488 563.63 443.984 566.455 436.417 577.526 430.139 587.427 435.355 595.966 437.642 600.267 450.782 595.514 459.342 591.501 468.649 580.026 470.44 571.716 467.972Z" stroke="#000000" stroke-width="2" stroke-miterlimit="8" fill="none" fill-rule="evenodd"/><path d="M532 351C532.117 340.181 541.215 333.747 550.5 333 558.721 332.248 569.411 339.624 569 351 570.681 359.835 560.49 369.578 550.5 369 540.151 369.431 533.412 359.705 532 351Z" stroke="#000000" stroke-width="2" stroke-miterlimit="8" fill="none" fill-rule="evenodd"/><path d="M583 392.5C583.081 382.78 593.95 377.597 603 376 612.182 375.3 623.209 382.66 623 392.5 624.569 400.583 613.69 409.899 603 409 591.372 410.9 583.424 401.243 583 392.5Z" stroke="#000000" stroke-width="2" stroke-miterlimit="8" fill="none" fill-rule="evenodd"/><path d="M496 451.5C496.114 440.982 504.966 434.726 514 434 521.998 433.269 532.4 440.44 532 451.5 533.635 460.09 523.72 469.562 514 469 503.931 469.419 497.374 459.963 496 451.5Z" stroke="#000000" stroke-width="2" stroke-miterlimit="8" fill="none" fill-rule="evenodd"/><path d="M488.44 409.133C478.908 404.414 477.072 393.65 480.353 385.146 483.178 377.578 494.249 371.3 504.15 376.516 512.689 378.804 516.99 391.943 512.237 400.503 508.224 409.81 496.749 411.602 488.44 409.133Z" stroke="#000000" stroke-width="2" stroke-miterlimit="8" fill="none" fill-rule="evenodd"/><path d="M980 291C980.114 280.181 988.966 273.747 998 273 1006 272.248 1016.4 279.624 1016 291 1017.64 299.835 1007.72 309.578 998 309 987.931 309.431 981.374 299.705 980 291Z" stroke="#000000" stroke-width="2" stroke-miterlimit="8" fill="none" fill-rule="evenodd"/><path d="M818 336.5C818.081 326.78 828.95 321.597 838 320 847.182 319.3 858.209 326.66 858 336.5 859.569 344.583 848.69 353.899 838 353 826.372 354.9 818.424 345.243 818 336.5Z" stroke="#000000" stroke-width="2" stroke-miterlimit="8" fill="none" fill-rule="evenodd"/><path d="M937.873 237.569C950.168 235.478 957.743 242.854 960.245 250.657 962.435 257.333 955.329 269.037 944.168 270.987 934.955 274.435 922.91 267.009 921.795 257.9 919.106 248.567 927.58 239.823 937.873 237.569Z" stroke="#000000" stroke-width="2" stroke-miterlimit="8" fill="none" fill-rule="evenodd"/><path d="M883.19 310.779C873.658 306.061 871.823 295.296 875.103 286.792 877.928 279.225 889 272.947 898.901 278.162 907.44 280.45 911.741 293.59 906.987 302.15 902.975 311.457 891.499 313.248 883.19 310.779Z" stroke="#000000" stroke-width="2" stroke-miterlimit="8" fill="none" fill-rule="evenodd"/><path d="M1004 392.5C1004.08 382.78 1014.95 377.597 1024 376 1033.18 375.3 1044.21 382.66 1044 392.5 1045.57 400.583 1034.69 409.899 1024 409 1012.37 410.9 1004.42 401.243 1004 392.5Z" stroke="#000000" stroke-width="2" stroke-miterlimit="8" fill="none" fill-rule="evenodd"/><path d="M988 452.5C988.114 441.982 996.966 435.726 1006 435 1014 434.269 1024.4 441.44 1024 452.5 1025.64 461.09 1015.72 470.562 1006 470 995.931 470.419 989.374 460.963 988 452.5Z" stroke="#000000" stroke-width="2" stroke-miterlimit="8" fill="none" fill-rule="evenodd"/><path d="M1036.45 349.756C1026.92 345.037 1025.09 334.273 1028.37 325.768 1031.19 318.201 1042.26 311.923 1052.17 317.139 1060.7 319.426 1065 332.566 1060.25 341.126 1056.24 350.433 1044.76 352.224 1036.45 349.756Z" stroke="#000000" stroke-width="2" stroke-miterlimit="8" fill="none" fill-rule="evenodd"/><path d="M933.165 467.972C923.633 463.253 921.798 452.488 925.079 443.984 927.904 436.417 938.975 430.139 948.876 435.355 957.415 437.642 961.716 450.782 956.963 459.342 952.95 468.649 941.474 470.44 933.165 467.972Z" stroke="#000000" stroke-width="2" stroke-miterlimit="8" fill="none" fill-rule="evenodd"/><path d="M894 351C894.114 340.181 902.966 333.747 912 333 919.998 332.248 930.4 339.624 930 351 931.635 359.835 921.72 369.578 912 369 901.931 369.431 895.374 359.705 894 351Z" stroke="#000000" stroke-width="2" stroke-miterlimit="8" fill="none" fill-rule="evenodd"/><path d="M945 392.5C945.081 382.78 955.95 377.597 965 376 974.182 375.3 985.209 382.66 985 392.5 986.569 400.583 975.69 409.899 965 409 953.372 410.9 945.424 401.243 945 392.5Z" stroke="#000000" stroke-width="2" stroke-miterlimit="8" fill="none" fill-rule="evenodd"/><path d="M858 451.5C858.114 440.982 866.966 434.726 876 434 883.998 433.269 894.4 440.44 894 451.5 895.635 460.09 885.72 469.562 876 469 865.931 469.419 859.374 459.963 858 451.5Z" stroke="#000000" stroke-width="2" stroke-miterlimit="8" fill="none" fill-rule="evenodd"/><path d="M849.889 409.133C840.356 404.414 838.521 393.65 841.802 385.146 844.627 377.578 855.698 371.3 865.599 376.516 874.138 378.804 878.439 391.943 873.686 400.503 869.673 409.81 858.198 411.602 849.889 409.133Z" stroke="#000000" stroke-width="2" stroke-miterlimit="8" fill="none" fill-rule="evenodd"/><text font-family="Calibri,Calibri_MSFontService,sans-serif" font-weight="400" font-size="37" transform="translate(265.1 530)">P</text><text font-family="Calibri,Calibri_MSFontService,sans-serif" font-weight="400" font-size="25" transform="translate(284.433 538)">2</text><text font-family="Calibri,Calibri_MSFontService,sans-serif" font-weight="400" font-size="37" transform="translate(567.356 530)">P</text><text font-family="Calibri,Calibri_MSFontService,sans-serif" font-weight="400" font-size="25" transform="translate(586.69 538)">3</text><text font-family="Calibri,Calibri_MSFontService,sans-serif" font-weight="400" font-size="37" transform="translate(957.007 530)">P</text><text font-family="Calibri,Calibri_MSFontService,sans-serif" font-weight="400" font-size="25" transform="translate(976.341 538)">4</text><text font-family="Calibri,Calibri_MSFontService,sans-serif" font-weight="400" font-size="37" transform="translate(112.366 530)">P</text><text font-family="Calibri,Calibri_MSFontService,sans-serif" font-weight="400" font-size="25" transform="translate(131.7 538)">1</text></g></svg>