<svg width="1280" height="720" xmlns="http://www.w3.org/2000/svg" xmlns:xlink="http://www.w3.org/1999/xlink" overflow="hidden"><g><rect x="0" y="0" width="1280" height="720" fill="#FFFFFF"/><path d="M264 207C290.719 206.511 306.366 207.054 325.02 207 343.674 206.946 370.707 209.057 386.04 207 401.373 204.943 445.798 203.1 490 207 491.876 230.295 490.031 249.939 490 261.48 489.969 273.021 487.922 297.225 490 315.96 492.078 334.695 492.567 355.196 490 372.71 487.433 390.224 489.015 413.229 490 434 468.998 434.163 452.351 435.689 440.28 434 428.209 432.311 409.255 431.224 381.52 434 353.785 436.776 341.166 432.775 329.54 434 317.914 435.225 279.753 434.641 264 434 266.186 415.914 263.229 398.846 264 384.06 264.771 369.274 266.538 347.143 264 327.31 261.462 307.477 262.009 286.104 264 268.29 265.991 250.476 265.99 228.122 264 207Z" stroke="#000000" stroke-width="2" stroke-miterlimit="8" fill="none" fill-rule="evenodd"/><path d="M564 206C590.837 205.513 606.554 206.054 625.29 206 644.026 205.946 671.179 208.048 686.58 206 701.981 203.952 746.602 202.117 791 206 792.884 229.193 791.031 248.75 791 260.24 790.969 271.73 788.913 295.827 791 314.48 793.087 333.133 793.578 353.543 791 370.98 788.422 388.417 790.011 411.321 791 432 769.905 432.162 753.184 433.681 741.06 432 728.936 430.319 709.898 429.236 682.04 432 654.182 434.764 641.508 430.781 629.83 432 618.152 433.219 579.823 432.639 564 432 566.196 413.993 563.226 397.001 564 382.28 564.774 367.559 566.549 345.526 564 325.78 561.451 306.034 562 284.755 564 267.02 566 249.285 565.998 227.029 564 206Z" stroke="#000000" stroke-width="2" stroke-miterlimit="8" fill="none" fill-rule="evenodd"/><path d="M255 202C274.743 202.102 304.016 202.764 320.88 202 337.744 201.236 364.198 203.551 386.76 202 409.322 200.449 446.36 200.946 499 202 500.882 225.295 499.031 244.939 499 256.48 498.969 268.021 496.915 292.225 499 310.96 501.085 329.695 501.576 350.196 499 367.71 496.424 385.224 498.012 408.229 499 429 486.314 426.686 470.346 430.583 445.32 429 420.294 427.417 413.084 427.186 381.88 429 350.676 430.814 345.267 427.058 325.76 429 306.253 430.942 288.992 429.49 255 429 257.194 410.914 254.226 393.846 255 379.06 255.774 364.274 257.547 342.143 255 322.31 252.453 302.477 253.002 281.104 255 263.29 256.998 245.476 256.996 223.122 255 202Z" fill="#FFFFFF" fill-rule="evenodd"/><path d="M255 202C274.426 200.072 288.397 202.715 308.68 202 328.963 201.285 347.627 202.211 367.24 202 386.853 201.789 399.899 200.439 428.24 202 456.581 203.561 479.902 198.811 499 202 497.659 230.232 500.929 246.805 499 258.75 497.071 270.695 498.179 288.04 499 308.69 499.821 329.34 498.281 355.256 499 369.98 499.719 384.704 501.374 407.298 499 429 483.983 431.736 450.661 426.996 433.12 429 415.579 431.004 387.014 427.514 367.24 429 347.466 430.486 323.935 430.061 308.68 429 293.425 427.939 270.544 431.604 255 429 257.096 414.067 253.493 404.017 255 379.06 256.507 354.103 254.296 352.443 255 329.12 255.704 305.797 253.827 291.62 255 272.37 256.173 253.12 256.666 225.983 255 202Z" stroke="#FFFFFF" stroke-width="2" stroke-miterlimit="8" fill="none" fill-rule="evenodd"/><rect x="231" y="405" width="40" height="27" stroke="#FFFFFF" stroke-width="2" stroke-miterlimit="8" fill="#FFFFFF"/><rect x="477" y="405" width="44" height="27" stroke="#FFFFFF" stroke-width="2" stroke-miterlimit="8" fill="#FFFFFF"/><text font-family="Calibri,Calibri_MSFontService,sans-serif" font-weight="400" font-size="37" transform="translate(271.863 491)">1 lengdeenhet</text><text font-family="Calibri,Calibri_MSFontService,sans-serif" font-weight="400" font-size="37" transform="translate(582.142 491)">1 arealenhet</text></g></svg>