<svg width="1280" height="720" xmlns="http://www.w3.org/2000/svg" xmlns:xlink="http://www.w3.org/1999/xlink" overflow="hidden"><g><rect x="0" y="0" width="1280" height="720" fill="#FFFFFF"/><path d="M68 324C80.672 212.316 151.13 130.278 257 135 369.681 117.361 443.559 225.026 446 324 439.1 427.911 360.636 510.373 257 513 162.598 515.611 70.9409 407.157 68 324Z" stroke="#000000" stroke-width="2" stroke-miterlimit="8" fill="none" fill-rule="evenodd"/><path d="M97 324C99.2649 228.807 167.371 135.782 267 154 362.072 151.485 430.703 244.058 437 324 416.114 416.462 355.014 473.313 267 494 182.887 496.557 99.2677 401.523 97 324Z" stroke="#000000" stroke-width="2" stroke-miterlimit="8" fill="none" fill-rule="evenodd"/><path d="M127 324C138.676 244.396 183.11 181.844 259.5 192 340.399 175.652 390.066 255.365 392 324 388.251 396.646 331.504 451.883 259.5 456 200.099 459.59 127.506 393.264 127 324Z" stroke="#000000" stroke-width="2" stroke-miterlimit="8" fill="none" fill-rule="evenodd"/><path d="M111 324C127.23 231.253 177.327 168.943 262 173 347.334 168.88 404.97 258.391 413 324 406.604 406.958 340.901 459.174 262 475 197.251 479.878 112.552 396.192 111 324Z" stroke="#000000" stroke-width="2" stroke-miterlimit="8" fill="none" fill-rule="evenodd"/><path d="M146 324C152.979 257.588 196.01 208.454 259.5 211 325.489 204.007 367.453 273.824 373 324 367.193 386.013 320.454 430.935 259.5 437 205.633 439.297 148.052 371.663 146 324Z" stroke="#000000" stroke-width="2" stroke-miterlimit="8" fill="none" fill-rule="evenodd"/><path d="M167 324.5C177.885 266.037 208.575 227.669 261.5 230 315.882 225.343 354.463 275.713 356 324.5 350.433 376.311 313.324 417.708 261.5 419 217.892 421.245 168.04 369.183 167 324.5Z" stroke="#000000" stroke-width="2" stroke-miterlimit="8" fill="none" fill-rule="evenodd"/><path d="M187 324C192.917 278.594 220.473 246.947 262.5 248 304.816 246.678 334.961 288.803 338 324 332.808 365.617 302.648 394.508 262.5 400 228.93 402.14 188.241 356.959 187 324Z" stroke="#000000" stroke-width="2" stroke-miterlimit="8" fill="none" fill-rule="evenodd"/><path d="M206 324C210.636 289.825 229.458 261.117 262.5 267 295.47 263.213 317.62 295.603 319 324 314.277 355.155 292.303 376.023 262.5 381 238.818 382.985 206.729 350.17 206 324Z" stroke="#000000" stroke-width="2" stroke-miterlimit="8" fill="none" fill-rule="evenodd"/><path d="M224 322C226.323 299.675 239.631 279.615 262 284 285.156 279.391 298.899 303.451 300 322 295.921 342.708 281.801 355.825 262 360 243.026 360.526 224.069 342.487 224 322Z" stroke="#000000" stroke-width="2" stroke-miterlimit="8" fill="none" fill-rule="evenodd"/><path d="M243 322C243.317 311.324 250.774 300.676 262 303 272.797 302.356 280.149 313.391 281 322 280.349 332.449 272.318 340.383 262 341 251.98 341.124 243.141 331.479 243 322Z" stroke="#000000" stroke-width="2" stroke-miterlimit="8" fill="none" fill-rule="evenodd"/><path d="M259 322C259.075 320.852 259.84 319.824 261 320 262.188 319.822 262.9 321.118 263 322 262.889 323.097 262.058 323.837 261 324 260.078 324.048 259.024 322.932 259 322Z" stroke="#000000" stroke-width="2" stroke-miterlimit="8" fill="none" fill-rule="evenodd"/></g></svg>