<svg width="1280" height="720" xmlns="http://www.w3.org/2000/svg" xmlns:xlink="http://www.w3.org/1999/xlink" overflow="hidden"><g><rect x="0" y="0" width="1280" height="720" fill="#FFFFFF"/><path d="M288 242C288.114 231.181 296.966 224.747 306 224 313.998 223.248 324.4 230.624 324 242 325.635 250.835 315.72 260.578 306 260 295.931 260.431 289.374 250.705 288 242Z" stroke="#000000" stroke-width="2" stroke-miterlimit="8" fill="none" fill-rule="evenodd"/><path d="M285 330.5C285.081 320.78 295.95 315.597 305 314 314.182 313.3 325.209 320.66 325 330.5 326.569 338.583 315.69 347.899 305 347 293.372 348.9 285.424 339.243 285 330.5Z" stroke="#000000" stroke-width="2" stroke-miterlimit="8" fill="none" fill-rule="evenodd"/><path d="M302.546 270.806C314.841 268.715 322.416 276.091 324.919 283.894 327.109 290.57 320.002 302.274 308.841 304.224 299.628 307.672 287.584 300.246 286.469 291.137 283.779 281.804 292.254 273.06 302.546 270.806Z" stroke="#000000" stroke-width="2" stroke-miterlimit="8" fill="none" fill-rule="evenodd"/><path d="M297.36 215.172C286.222 209.561 284.499 199.129 287.114 191.363 289.311 184.689 301.976 179.483 312.117 184.534 321.58 187.224 326.87 200.347 322.364 208.342 318.993 217.451 306.983 219.463 297.36 215.172Z" stroke="#000000" stroke-width="2" stroke-miterlimit="8" fill="none" fill-rule="evenodd"/><path d="M243 242.5C243.114 231.982 251.966 225.726 261 225 268.998 224.269 279.4 231.44 279 242.5 280.635 251.09 270.72 260.562 261 260 250.931 260.419 244.374 250.963 243 242.5Z" stroke="#000000" stroke-width="2" stroke-miterlimit="8" fill="none" fill-rule="evenodd"/><path d="M152 330.5C152.114 319.982 160.966 313.726 170 313 177.998 312.269 188.4 319.44 188 330.5 189.635 339.09 179.72 348.562 170 348 159.931 348.419 153.374 338.963 152 330.5Z" stroke="#000000" stroke-width="2" stroke-miterlimit="8" fill="none" fill-rule="evenodd"/><path d="M205.232 346.821C195.7 342.102 193.864 331.338 197.145 322.834 199.97 315.266 211.042 308.988 220.943 314.204 229.482 316.492 233.782 329.632 229.029 338.191 225.017 347.498 213.541 349.29 205.232 346.821Z" stroke="#000000" stroke-width="2" stroke-miterlimit="8" fill="none" fill-rule="evenodd"/><path d="M195 288C195.117 277.181 204.215 270.747 213.5 270 221.721 269.248 232.411 276.624 232 288 233.681 296.835 223.49 306.578 213.5 306 203.151 306.431 196.412 296.705 195 288Z" stroke="#000000" stroke-width="2" stroke-miterlimit="8" fill="none" fill-rule="evenodd"/><path d="M251.489 304.193C241.956 299.474 240.121 288.709 243.402 280.205 246.227 272.638 257.298 266.36 267.199 271.576 275.738 273.863 280.039 287.003 275.286 295.563 271.273 304.87 259.798 306.661 251.489 304.193Z" stroke="#000000" stroke-width="2" stroke-miterlimit="8" fill="none" fill-rule="evenodd"/><path d="M238 330.5C238.081 320.78 248.95 315.597 258 314 267.182 313.3 278.209 320.66 278 330.5 279.569 338.583 268.69 347.899 258 347 246.372 348.9 238.424 339.243 238 330.5Z" stroke="#000000" stroke-width="2" stroke-miterlimit="8" fill="none" fill-rule="evenodd"/><text font-family="Calibri,Calibri_MSFontService,sans-serif" font-weight="400" font-size="37" transform="translate(158.031 406)">1+2+3+4+5=T</text><text font-family="Calibri,Calibri_MSFontService,sans-serif" font-weight="400" font-size="25" transform="translate(254.944 458)">5</text><path d="M333 200.5C333.114 189.982 341.966 183.726 351 183 358.998 182.269 369.4 189.44 369 200.5 370.635 209.09 360.72 218.562 351 218 340.931 218.419 334.374 208.963 333 200.5Z" stroke="#000000" stroke-width="2" stroke-miterlimit="8" fill="none" fill-rule="evenodd"/><path d="M351.84 138.623C364.135 136.532 371.71 143.908 374.212 151.71 376.403 158.387 369.296 170.091 358.135 172.041 348.922 175.489 336.878 168.063 335.763 158.953 333.073 149.621 341.548 140.877 351.84 138.623Z" stroke="#000000" stroke-width="2" stroke-miterlimit="8" fill="none" fill-rule="evenodd"/><path d="M333 240C333.117 229.181 342.215 222.747 351.5 222 359.721 221.248 370.411 228.624 370 240 371.681 248.835 361.49 258.578 351.5 258 341.151 258.431 334.412 248.705 333 240Z" stroke="#000000" stroke-width="2" stroke-miterlimit="8" fill="none" fill-rule="evenodd"/><path d="M331 331.5C331.117 320.982 340.215 314.726 349.5 314 357.721 313.269 368.411 320.44 368 331.5 369.681 340.09 359.49 349.562 349.5 349 339.151 349.419 332.412 339.963 331 331.5Z" stroke="#000000" stroke-width="2" stroke-miterlimit="8" fill="none" fill-rule="evenodd"/><path d="M345.34 304.192C335.808 299.474 333.972 288.709 337.253 280.205 340.078 272.638 351.149 266.36 361.05 271.575 369.589 273.863 373.89 287.003 369.137 295.563 365.124 304.87 353.649 306.661 345.34 304.192Z" stroke="#000000" stroke-width="2" stroke-miterlimit="8" fill="none" fill-rule="evenodd"/><path d="M690 242C690.114 231.181 698.966 224.747 708 224 715.998 223.248 726.4 230.624 726 242 727.635 250.835 717.72 260.578 708 260 697.931 260.431 691.374 250.705 690 242Z" stroke="#000000" stroke-width="2" stroke-miterlimit="8" fill="none" fill-rule="evenodd"/><path d="M687 330.5C687.081 320.78 697.95 315.597 707 314 716.182 313.3 727.209 320.66 727 330.5 728.569 338.583 717.69 347.899 707 347 695.372 348.9 687.424 339.243 687 330.5Z" stroke="#000000" stroke-width="2" stroke-miterlimit="8" fill="none" fill-rule="evenodd"/><path d="M704.567 270.806C716.862 268.715 724.438 276.091 726.94 283.894 729.13 290.57 722.023 302.274 710.862 304.224 701.649 307.672 689.605 300.246 688.49 291.137 685.8 281.804 694.275 273.06 704.567 270.806Z" stroke="#000000" stroke-width="2" stroke-miterlimit="8" fill="none" fill-rule="evenodd"/><path d="M699.381 215.172C688.243 209.561 686.521 199.129 689.135 191.363 691.333 184.689 703.997 179.483 714.139 184.534 723.601 187.224 728.892 200.347 724.385 208.342 721.014 217.451 709.004 219.463 699.381 215.172Z" stroke="#000000" stroke-width="2" stroke-miterlimit="8" fill="none" fill-rule="evenodd"/><path d="M645 242.5C645.114 231.982 653.966 225.726 663 225 670.998 224.269 681.4 231.44 681 242.5 682.635 251.09 672.72 260.562 663 260 652.931 260.419 646.374 250.963 645 242.5Z" stroke="#000000" stroke-width="2" stroke-miterlimit="8" fill="none" fill-rule="evenodd"/><path d="M554 330.5C554.114 319.982 562.966 313.726 572 313 579.998 312.269 590.4 319.44 590 330.5 591.635 339.09 581.72 348.562 572 348 561.931 348.419 555.374 338.963 554 330.5Z" stroke="#000000" stroke-width="2" stroke-miterlimit="8" fill="none" fill-rule="evenodd"/><path d="M607.253 346.821C597.721 342.102 595.885 331.338 599.166 322.834 601.991 315.266 613.063 308.988 622.964 314.204 631.503 316.492 635.804 329.632 631.05 338.191 627.038 347.498 615.562 349.29 607.253 346.821Z" stroke="#000000" stroke-width="2" stroke-miterlimit="8" fill="none" fill-rule="evenodd"/><path d="M597 288C597.117 277.181 606.215 270.747 615.5 270 623.721 269.248 634.411 276.624 634 288 635.681 296.835 625.49 306.578 615.5 306 605.151 306.431 598.412 296.705 597 288Z" stroke="#000000" stroke-width="2" stroke-miterlimit="8" fill="none" fill-rule="evenodd"/><path d="M653.51 304.193C643.978 299.474 642.142 288.709 645.423 280.205 648.248 272.638 659.319 266.36 669.22 271.576 677.759 273.863 682.06 287.003 677.307 295.563 673.294 304.87 661.819 306.661 653.51 304.193Z" stroke="#000000" stroke-width="2" stroke-miterlimit="8" fill="none" fill-rule="evenodd"/><path d="M640 330.5C640.081 320.78 650.95 315.597 660 314 669.182 313.3 680.209 320.66 680 330.5 681.569 338.583 670.69 347.899 660 347 648.372 348.9 640.424 339.243 640 330.5Z" stroke="#000000" stroke-width="2" stroke-miterlimit="8" fill="none" fill-rule="evenodd"/><text font-family="Calibri,Calibri_MSFontService,sans-serif" font-weight="400" font-size="37" transform="translate(586.219 406)">T</text><text font-family="Calibri,Calibri_MSFontService,sans-serif" font-weight="400" font-size="25" transform="translate(604.385 414)">5</text><text font-family="Calibri,Calibri_MSFontService,sans-serif" font-weight="400" font-size="37" transform="translate(617.052 406)">=(5</text><text font-family="Cambria Math,Cambria Math_MSFontService,sans-serif" font-weight="400" font-size="37" transform="translate(666.052 406)">⋅</text><text font-family="Calibri,Calibri_MSFontService,sans-serif" font-weight="400" font-size="37" transform="translate(676.552 406)">6)/2</text><path d="M735 200.5C735.114 189.982 743.966 183.726 753 183 760.998 182.269 771.4 189.44 771 200.5 772.635 209.09 762.72 218.562 753 218 742.931 218.419 736.374 208.963 735 200.5Z" stroke="#000000" stroke-width="2" stroke-miterlimit="8" fill="none" fill-rule="evenodd"/><path d="M753.861 138.623C766.156 136.532 773.731 143.908 776.234 151.71 778.424 158.387 771.317 170.091 760.156 172.041 750.943 175.489 738.899 168.063 737.784 158.953 735.094 149.621 743.569 140.877 753.861 138.623Z" stroke="#000000" stroke-width="2" stroke-miterlimit="8" fill="none" fill-rule="evenodd"/><path d="M735 240C735.117 229.181 744.215 222.747 753.5 222 761.721 221.248 772.411 228.624 772 240 773.681 248.835 763.49 258.578 753.5 258 743.151 258.431 736.412 248.705 735 240Z" stroke="#000000" stroke-width="2" stroke-miterlimit="8" fill="none" fill-rule="evenodd"/><path d="M733 331.5C733.117 320.982 742.215 314.726 751.5 314 759.721 313.269 770.411 320.44 770 331.5 771.681 340.09 761.49 349.562 751.5 349 741.151 349.419 734.412 339.963 733 331.5Z" stroke="#000000" stroke-width="2" stroke-miterlimit="8" fill="none" fill-rule="evenodd"/><path d="M747.361 304.192C737.829 299.474 735.993 288.709 739.274 280.205 742.099 272.638 753.17 266.36 763.071 271.575 771.61 273.863 775.911 287.003 771.158 295.563 767.145 304.87 755.67 306.661 747.361 304.192Z" stroke="#000000" stroke-width="2" stroke-miterlimit="8" fill="none" fill-rule="evenodd"/><path d="M598 152.5C598.114 141.982 606.966 135.726 616 135 623.998 134.269 634.4 141.44 634 152.5 635.635 161.09 625.72 170.562 616 170 605.931 170.419 599.374 160.963 598 152.5Z" fill="#D9F2D0" fill-rule="evenodd"/><path d="M598 152.5C598.183 143.008 605.479 134.691 616 135 626.18 135.427 633.211 141.735 634 152.5 632.1 160.895 623.677 169.871 616 170 606.03 170.546 599.473 160.347 598 152.5Z" stroke="#000000" stroke-width="2" stroke-miterlimit="8" fill="none" fill-rule="evenodd"/><path d="M594 241.5C594.081 231.78 604.95 226.597 614 225 623.182 224.3 634.209 231.66 634 241.5 635.569 249.583 624.69 258.899 614 258 602.372 259.9 594.424 250.243 594 241.5Z" fill="#D9F2D0" fill-rule="evenodd"/><path d="M594 241.5C595.382 233.689 602.485 224.75 614 225 625.182 225.243 633.292 231.402 634 241.5 633.637 250.371 622.766 257.87 614 258 602.856 259.87 595.154 249.19 594 241.5Z" stroke="#000000" stroke-width="2" stroke-miterlimit="8" fill="none" fill-rule="evenodd"/><path d="M611.907 181.375C624.202 179.284 631.777 186.66 634.279 194.463 636.469 201.139 629.362 212.843 618.202 214.793 608.989 218.241 596.944 210.815 595.829 201.705 593.139 192.373 601.614 183.629 611.907 181.375Z" fill="#D9F2D0" fill-rule="evenodd"/><path d="M611.907 181.375C622.324 179.686 633.021 183.71 634.279 194.463 634.334 205.091 629.684 211.892 618.202 214.793 608.111 215.565 597.445 209.987 595.829 201.705 591.932 192.768 603.569 184.597 611.907 181.375Z" stroke="#000000" stroke-width="2" stroke-miterlimit="8" fill="none" fill-rule="evenodd"/><path d="M607.718 126.221C597.438 121.077 595.521 110.529 598.87 102.059 601.973 94.2738 612.495 88.0705 623.278 93.9161 632.188 96.3325 637.298 110.1 632.126 118.078 629.267 128.324 616.624 129.652 607.718 126.221Z" fill="#D9F2D0" fill-rule="evenodd"/><path d="M607.718 126.221C598.785 121.702 594.344 111.147 598.87 102.059 605.188 93.0196 613.425 89.6084 623.278 93.9161 631.63 98.8272 635.698 110.463 632.126 118.078 628.952 127.614 616.092 128.941 607.718 126.221Z" stroke="#000000" stroke-width="2" stroke-miterlimit="8" fill="none" fill-rule="evenodd"/><path d="M643 109C643.114 98.1811 651.966 91.7472 661 91 668.998 90.2485 679.4 97.6236 679 109 680.635 117.835 670.72 127.578 661 127 650.931 127.431 644.374 117.705 643 109Z" fill="#D9F2D0" fill-rule="evenodd"/><path d="M643 109C643.183 99.2367 650.479 90.6825 661 91 671.18 91.4393 678.211 97.9275 679 109 677.1 117.635 668.677 126.867 661 127 651.03 127.562 644.473 117.071 643 109Z" stroke="#000000" stroke-width="2" stroke-miterlimit="8" fill="none" fill-rule="evenodd"/><path d="M737 111.5C737.114 100.982 745.966 94.7264 755 94 762.998 93.2693 773.4 100.44 773 111.5 774.635 120.09 764.72 129.562 755 129 744.931 129.419 738.374 119.963 737 111.5Z" fill="#D9F2D0" fill-rule="evenodd"/><path d="M737 111.5C737.183 102.008 744.479 93.6913 755 94 765.18 94.4271 772.211 100.735 773 111.5 771.1 119.895 762.677 128.871 755 129 745.03 129.546 738.473 119.347 737 111.5Z" stroke="#000000" stroke-width="2" stroke-miterlimit="8" fill="none" fill-rule="evenodd"/><path d="M699.571 169.217C690.039 164.498 688.203 153.734 691.484 145.229 694.309 137.662 705.38 131.384 715.281 136.6 723.82 138.887 728.121 152.027 723.368 160.587 719.355 169.894 707.88 171.685 699.571 169.217Z" fill="#D9F2D0" fill-rule="evenodd"/><path d="M699.571 169.217C691.004 164.886 686.611 154.626 691.484 145.229 696.316 136.194 705.13 132.592 715.281 136.6 722.1 142.005 726.6 153.574 723.368 160.587 719.515 169.86 707.362 171.325 699.571 169.217Z" stroke="#000000" stroke-width="2" stroke-miterlimit="8" fill="none" fill-rule="evenodd"/><path d="M690 110.5C690.114 99.9817 698.966 93.7264 708 93 715.998 92.2693 726.4 99.4396 726 110.5 727.635 119.09 717.72 128.562 708 128 697.931 128.419 691.374 118.963 690 110.5Z" fill="#D9F2D0" fill-rule="evenodd"/><path d="M690 110.5C690.183 101.008 697.479 92.6913 708 93 718.18 93.4271 725.211 99.7351 726 110.5 724.1 118.895 715.677 127.871 708 128 698.03 128.546 691.473 118.347 690 110.5Z" stroke="#000000" stroke-width="2" stroke-miterlimit="8" fill="none" fill-rule="evenodd"/><path d="M650.818 171.125C641.285 166.406 639.45 155.642 642.731 147.137 645.556 139.57 656.627 133.292 666.528 138.508 675.067 140.795 679.368 153.935 674.615 162.495 670.602 171.802 659.127 173.593 650.818 171.125Z" fill="#D9F2D0" fill-rule="evenodd"/><path d="M650.818 171.125C642.251 166.794 637.858 156.534 642.731 147.137 647.563 138.102 656.377 134.5 666.528 138.508 673.347 143.913 677.847 155.482 674.615 162.495 670.762 171.768 658.608 173.233 650.818 171.125Z" stroke="#000000" stroke-width="2" stroke-miterlimit="8" fill="none" fill-rule="evenodd"/><path d="M638 197.5C638.081 187.78 648.95 182.597 658 181 667.182 180.3 678.209 187.66 678 197.5 679.569 205.583 668.69 214.899 658 214 646.372 215.9 638.424 206.243 638 197.5Z" fill="#D9F2D0" fill-rule="evenodd"/><path d="M638 197.5C639.382 189.689 646.485 180.75 658 181 669.182 181.243 677.292 187.402 678 197.5 677.637 206.371 666.766 213.87 658 214 646.856 215.87 639.154 205.19 638 197.5Z" stroke="#000000" stroke-width="2" stroke-miterlimit="8" fill="none" fill-rule="evenodd"/><path d="M551 153.5C551.114 142.982 559.966 136.726 569 136 576.998 135.269 587.4 142.44 587 153.5 588.635 162.09 578.72 171.562 569 171 558.931 171.419 552.374 161.963 551 153.5Z" fill="#D9F2D0" fill-rule="evenodd"/><path d="M551 153.5C551.183 144.008 558.479 135.691 569 136 579.18 136.427 586.211 142.735 587 153.5 585.1 161.895 576.677 170.871 569 171 559.03 171.546 552.473 161.347 551 153.5Z" stroke="#000000" stroke-width="2" stroke-miterlimit="8" fill="none" fill-rule="evenodd"/><path d="M570.199 91.8917C582.494 89.801 590.069 97.1769 592.571 104.98 594.762 111.656 587.655 123.36 576.494 125.31 567.281 128.758 555.237 121.332 554.122 112.222 551.432 102.89 559.907 94.1459 570.199 91.8917Z" fill="#D9F2D0" fill-rule="evenodd"/><path d="M570.199 91.8917C580.616 90.2028 591.313 94.227 592.571 104.98 592.627 115.608 587.976 122.409 576.494 125.31 566.404 126.082 555.737 120.504 554.122 112.222 550.224 103.285 561.861 95.1137 570.199 91.8917Z" stroke="#000000" stroke-width="2" stroke-miterlimit="8" fill="none" fill-rule="evenodd"/><path d="M552 193C552.114 182.181 560.966 175.747 570 175 577.998 174.248 588.4 181.624 588 193 589.635 201.835 579.72 211.578 570 211 559.931 211.431 553.374 201.705 552 193Z" fill="#D9F2D0" fill-rule="evenodd"/><path d="M552 193C552.183 183.237 559.479 174.682 570 175 580.18 175.439 587.211 181.927 588 193 586.1 201.635 577.677 210.867 570 211 560.03 211.562 553.473 201.071 552 193Z" stroke="#000000" stroke-width="2" stroke-miterlimit="8" fill="none" fill-rule="evenodd"/><path d="M550 285C550.114 274.181 558.966 267.747 568 267 575.998 266.248 586.4 273.624 586 285 587.635 293.835 577.72 303.578 568 303 557.931 303.431 551.374 293.705 550 285Z" fill="#D9F2D0" fill-rule="evenodd"/><path d="M550 285C550.183 275.237 557.479 266.682 568 267 578.18 267.439 585.211 273.927 586 285 584.1 293.635 575.677 302.867 568 303 558.03 303.562 551.473 293.071 550 285Z" stroke="#000000" stroke-width="2" stroke-miterlimit="8" fill="none" fill-rule="evenodd"/><path d="M563.699 257.461C554.167 252.743 552.331 241.978 555.612 233.474 558.437 225.907 569.508 219.629 579.409 224.844 587.948 227.132 592.249 240.272 587.496 248.832 583.483 258.139 572.008 259.93 563.699 257.461Z" fill="#D9F2D0" fill-rule="evenodd"/><path d="M563.699 257.461C555.132 253.13 550.74 242.871 555.612 233.474 560.444 224.438 569.258 220.836 579.409 224.844 586.228 230.249 590.729 241.819 587.496 248.832 583.643 258.104 571.49 259.57 563.699 257.461Z" stroke="#000000" stroke-width="2" stroke-miterlimit="8" fill="none" fill-rule="evenodd"/></g></svg>