<svg width="1280" height="720" xmlns="http://www.w3.org/2000/svg" xmlns:xlink="http://www.w3.org/1999/xlink" overflow="hidden"><g><rect x="0" y="0" width="1280" height="720" fill="#FFFFFF"/><path d="M640 588C644.536 569.048 648.502 558.785 654.2 533.52 659.898 508.255 661.821 501.263 670.174 472.23 678.528 443.197 678.234 444.423 684.374 417.75 690.513 391.077 693.345 375.196 699.165 361 730.749 360.559 735.834 357.535 771.055 361 806.276 364.465 817.403 362.627 840.788 361 864.174 359.373 878.732 364.155 914.835 361 916.81 379.686 921.855 396.103 930.218 420.02 938.58 443.937 939.526 448.724 943.826 472.23 948.126 495.736 954.887 505.033 959.209 531.25 963.53 557.466 970.464 566.932 974 588 953.28 585.527 936.467 585.595 900.52 588 864.573 590.405 858.33 588.395 840.4 588 822.47 587.605 793.481 584.577 766.92 588 740.359 591.423 725.837 587.703 706.8 588 687.763 588.297 658.166 588.503 640 588Z" stroke="#000000" stroke-width="2" stroke-miterlimit="8" fill="none" fill-rule="evenodd"/><path d="M111 56C142.37 54.4645 151.854 59.2699 181.56 56 211.266 52.7301 233.045 56.758 252.12 56 271.195 55.242 302.072 55.6056 322.68 56 343.288 56.3944 354.233 54.2043 381.9 56 409.567 57.7957 446.799 56.7247 489 56 488.432 80.6617 490.555 98.7845 489 110.48 487.445 122.176 486.311 139.247 489 164.96 491.689 190.673 489.162 201.037 489 214.9 488.838 228.763 491.513 259.696 489 283 460.779 283.173 441.646 284.323 422.22 283 402.794 281.677 384.156 280.905 359.22 283 334.284 285.095 324.738 283.616 307.56 283 290.382 282.384 268.73 281.147 255.9 283 243.07 284.853 216.965 284.273 204.24 283 191.515 281.727 151.62 287.124 111 283 108.649 257.282 112.675 256.259 111 230.79 109.325 205.321 110.622 197.685 111 169.5 111.378 141.315 111.684 133.88 111 117.29 110.316 100.7 108.695 76.3561 111 56Z" stroke="#000000" stroke-width="2" stroke-miterlimit="8" fill="none" fill-rule="evenodd"/><path d="M640 56C671.37 54.4713 680.854 59.2554 710.56 56 740.266 52.7446 762.045 56.7547 781.12 56 800.195 55.2453 831.072 55.6073 851.68 56 872.288 56.3927 883.233 54.2122 910.9 56 938.567 57.7878 975.799 56.7215 1018 56 1017.43 80.553 1019.56 98.596 1018 110.24 1016.44 121.884 1015.31 138.88 1018 164.48 1020.69 190.08 1018.16 200.398 1018 214.2 1017.84 228.002 1020.51 258.798 1018 282 989.779 282.173 970.646 283.317 951.22 282 931.794 280.683 913.156 279.914 888.22 282 863.284 284.086 853.738 282.614 836.56 282 819.382 281.386 797.73 280.155 784.9 282 772.07 283.845 745.965 283.268 733.24 282 720.515 280.732 680.62 286.106 640 282 637.649 256.396 641.675 255.377 640 230.02 638.325 204.663 639.622 197.061 640 169 640.378 140.939 640.684 133.537 640 117.02 639.316 100.503 637.695 76.2664 640 56Z" stroke="#000000" stroke-width="2" stroke-miterlimit="8" stroke-dasharray="8 6" fill="none" fill-rule="evenodd"/><path d="M640 282C644.459 257.546 649.78 235.034 654.756 223.24 659.732 211.446 663.524 191.615 667.81 171.26 672.096 150.905 678.267 135.28 681.998 114.76 685.73 94.2401 695.429 70.7406 696.755 56 725.887 53.1449 742.386 56.6128 767.547 56 792.708 55.3872 802.979 55.9701 823.17 56 843.361 56.0299 856.849 56.0898 886.377 56 915.906 55.9102 927.683 55.013 942 56 956.317 56.987 985.805 57.4772 1012.79 56 1039.78 54.5228 1063.02 55.2957 1076 56 1070.36 81.4915 1069.25 86.7835 1062.38 110.24 1055.51 133.697 1051.5 149.235 1049.89 159.96 1048.28 170.685 1038.48 198.947 1037.41 209.68 1036.33 220.413 1022.51 258.038 1019.25 282 988.699 280.365 971.732 283.76 956.038 282 940.344 280.24 919.259 281.142 900.415 282 881.571 282.858 859.635 282.507 848.585 282 837.535 281.493 804.717 284.904 781.585 282 758.453 279.096 734.428 281.94 722.17 282 709.912 282.06 677.048 283.299 640 282Z" stroke="#000000" stroke-width="2" stroke-miterlimit="8" fill="none" fill-rule="evenodd"/><path d="M111 588C123.392 567.162 127.492 556.539 134.193 538.06 140.894 519.581 152.199 501.698 162.658 476.77 173.117 451.842 178.607 439.318 187.96 422.29 197.312 405.262 212.324 377.612 216.424 361 230.32 371.746 262.312 394.674 273.665 408.67 285.018 422.666 307.138 438.952 325.455 451.8 343.771 464.648 372.088 487.964 385.421 501.74 398.755 515.516 421.997 533.201 437.211 544.87 452.425 556.539 471.68 572.009 489 588 463.447 586.253 447.755 586.497 429.78 588 411.805 589.503 391.059 587.927 378.12 588 365.181 588.073 338.746 588.688 311.34 588 283.934 587.312 260.027 584.844 244.56 588 229.093 591.156 202.628 589.134 181.56 588 160.492 586.866 130.66 586.298 111 588Z" stroke="#000000" stroke-width="2" stroke-miterlimit="8" fill="none" fill-rule="evenodd"/><path d="M593 361C579.943 383.569 578.29 394.677 569.986 410.94 561.683 427.203 554.514 449.467 541.742 472.23 528.97 494.993 527.419 508.922 516.636 526.71 505.854 544.498 500.536 566.019 488.392 588 463.671 565.241 454.391 554.982 430.98 540.33 407.569 525.678 404.004 518.9 379.035 497.2 354.066 475.5 350.944 469.399 318.889 447.26 286.834 425.121 286.207 421.834 266.945 404.13 247.682 386.426 234.743 376.407 215 361 240.553 362.747 256.245 362.503 274.22 361 292.195 359.497 312.941 361.073 325.88 361 338.819 360.927 365.254 360.312 392.66 361 420.066 361.688 443.973 364.156 459.44 361 474.907 357.844 501.372 359.866 522.44 361 543.508 362.134 573.34 362.702 593 361Z" stroke="#000000" stroke-width="2" stroke-miterlimit="8" stroke-dasharray="8 6" fill="none" fill-rule="evenodd"/><path d="M640 588C656.31 578.399 675.382 558.405 686.693 549.41 698.004 540.415 729.452 514.134 747.12 499.47 764.788 484.806 780.996 467.086 799.306 456.34 817.617 445.595 839.018 427.934 859.733 406.4 880.448 384.866 895.396 378.325 914.666 361 919.004 374.143 930.909 403.645 940.5 417.75 950.09 431.855 958.49 460.157 968.4 479.04 978.309 497.923 981.433 506.453 993.2 533.52 1004.97 560.587 1014.11 576.388 1018 588 992.447 586.253 976.755 586.497 958.78 588 940.805 589.503 920.059 587.927 907.12 588 894.181 588.073 867.746 588.688 840.34 588 812.934 587.312 789.027 584.844 773.56 588 758.093 591.156 731.628 589.134 710.56 588 689.492 586.866 659.66 586.298 640 588Z" fill="#FFFFFF" fill-rule="evenodd"/><path d="M640 588C657.153 576.859 671.451 565.091 694.933 542.6 718.415 520.109 728.412 517.784 747.12 499.47 765.828 481.156 774.947 475.361 793.813 460.88 812.679 446.399 837.596 429.324 851.493 413.21 865.39 397.096 882.673 385.146 914.666 361 922.539 379.169 926.906 392.045 937.4 410.94 947.893 429.835 952 446.511 962.2 465.42 972.399 484.329 974.048 496.154 988.033 522.17 1002.02 548.186 1004.17 558.721 1018 588 998.131 588.45 970.749 589.299 958.78 588 946.811 586.701 925.342 588.989 899.56 588 873.778 587.011 858.976 587.251 829 588 799.024 588.749 796.49 589.329 773.56 588 750.63 586.671 728.96 588.111 710.56 588 692.16 587.889 665.05 585.148 640 588Z" stroke="#000000" stroke-width="2" stroke-miterlimit="8" fill="none" fill-rule="evenodd"/></g></svg>