<svg width="1280" height="720" xmlns="http://www.w3.org/2000/svg" xmlns:xlink="http://www.w3.org/1999/xlink" overflow="hidden"><g><rect x="0" y="0" width="1280" height="720" fill="#FFFFFF"/><text font-family="Calibri,Calibri_MSFontService,sans-serif" font-weight="400" font-size="43" transform="translate(347.995 303)">A</text><text font-family="Calibri,Calibri_MSFontService,sans-serif" font-weight="400" font-size="43" transform="translate(434.066 303)">B</text><text font-family="Calibri,Calibri_MSFontService,sans-serif" font-weight="400" font-size="43" transform="translate(519.553 301)">C</text><text font-family="Calibri,Calibri_MSFontService,sans-serif" font-weight="400" font-size="43" transform="translate(606.265 303)">D</text><text font-family="Calibri,Calibri_MSFontService,sans-serif" font-weight="400" font-size="43" transform="translate(698.037 301)">E</text><text font-family="Calibri,Calibri_MSFontService,sans-serif" font-weight="400" font-size="32" transform="translate(671.08 390)">5</text><text font-family="Calibri,Calibri_MSFontService,sans-serif" font-weight="400" font-size="32" transform="translate(586.715 391)">4</text><text font-family="Calibri,Calibri_MSFontService,sans-serif" font-weight="400" font-size="32" transform="translate(498.254 392)">3</text><text font-family="Calibri,Calibri_MSFontService,sans-serif" font-weight="400" font-size="32" transform="translate(414.889 389)">2</text><text font-family="Calibri,Calibri_MSFontService,sans-serif" font-weight="400" font-size="32" transform="translate(328.613 391)">1</text><path d="M324.5 360.5C333.564 361.079 347.445 361.054 364.5 360.5 381.556 359.946 390.277 360.83 404.5 360.5 405.874 376.432 404.896 388.036 404.5 397.5 404.104 406.964 403.477 423.598 404.5 434.5 390.155 434.521 382.138 433.985 366.1 434.5 350.062 435.016 338.345 435.699 324.5 434.5 323.701 415.348 326.265 406.72 324.5 396.02 322.735 385.32 324.308 372.454 324.5 360.5Z" stroke="#000000" stroke-width="3" stroke-miterlimit="8" fill="none" fill-rule="evenodd"/><path d="M409.5 360.5C418.564 361.079 432.445 361.054 449.5 360.5 466.556 359.946 475.277 360.83 489.5 360.5 490.874 376.432 489.896 388.036 489.5 397.5 489.104 406.964 488.477 423.598 489.5 434.5 475.155 434.521 467.138 433.985 451.1 434.5 435.062 435.016 423.345 435.699 409.5 434.5 408.701 415.348 411.265 406.72 409.5 396.02 407.735 385.32 409.308 372.454 409.5 360.5Z" stroke="#000000" stroke-width="3" stroke-miterlimit="8" fill="none" fill-rule="evenodd"/><path d="M494.5 362.5C503.677 363.079 517.732 363.054 535 362.5 552.269 361.946 561.099 362.83 575.5 362.5 576.891 378.432 575.901 390.036 575.5 399.5 575.099 408.964 574.464 425.598 575.5 436.5 560.975 436.521 552.859 435.985 536.62 436.5 520.381 437.016 508.519 437.699 494.5 436.5 493.691 417.348 496.287 408.72 494.5 398.02 492.713 387.32 494.306 374.454 494.5 362.5Z" stroke="#000000" stroke-width="3" stroke-miterlimit="8" fill="none" fill-rule="evenodd"/><path d="M668.5 360.5C677.564 361.079 691.445 361.054 708.5 360.5 725.556 359.946 734.277 360.83 748.5 360.5 749.874 376.432 748.896 388.036 748.5 397.5 748.104 406.964 747.477 423.598 748.5 434.5 734.155 434.521 726.138 433.985 710.1 434.5 694.062 435.016 682.345 435.699 668.5 434.5 667.701 415.348 670.265 406.72 668.5 396.02 666.735 385.32 668.308 372.454 668.5 360.5Z" stroke="#000000" stroke-width="3" stroke-miterlimit="8" fill="none" fill-rule="evenodd"/><path d="M583.5 362.5C592.564 363.079 606.445 363.054 623.5 362.5 640.556 361.946 649.277 362.83 663.5 362.5 664.874 378.432 663.896 390.036 663.5 399.5 663.104 408.964 662.477 425.598 663.5 436.5 649.155 436.521 641.138 435.985 625.1 436.5 609.062 437.016 597.345 437.699 583.5 436.5 582.701 417.348 585.265 408.72 583.5 398.02 581.735 387.32 583.308 374.454 583.5 362.5Z" stroke="#000000" stroke-width="3" stroke-miterlimit="8" fill="none" fill-rule="evenodd"/></g></svg>