<svg width="1280" height="720" xmlns="http://www.w3.org/2000/svg" xmlns:xlink="http://www.w3.org/1999/xlink" overflow="hidden"><g><rect x="0" y="0" width="1280" height="720" fill="#FFFFFF"/><path d="M112 133C137.377 130.809 153.392 133.395 165.353 133 177.315 132.605 194.467 132.9 218.707 133 242.946 133.1 252.325 132.101 263 133 262.699 148.861 260.636 170.2 263 193.317 265.364 216.434 264.196 229.715 263 253.634 261.804 277.554 262.747 299.531 263 318.491 263.253 337.452 262.071 357.116 263 378.809 263.929 400.501 263.359 411.439 263 430.046 262.641 448.653 263.794 474.516 263 499.443 262.206 524.37 261.533 554.703 263 587 248.391 585.669 227.676 586.494 209.647 587 191.617 587.506 180.904 588.436 163.843 587 146.782 585.564 137.774 589.246 112 587 110.347 573.153 112.798 553.367 112 535.763 111.202 518.159 114.283 498.491 112 475.446 109.717 452.401 110.345 438.079 112 424.209 113.655 410.338 113.481 379.441 112 350.271 110.519 321.102 114.583 309.223 112 294.494 109.417 279.766 114.028 266.283 112 243.257 109.972 220.232 113.883 157.945 112 133Z" stroke="#000000" stroke-width="2" stroke-miterlimit="8" fill="none" fill-rule="evenodd"/><path d="M716 360C741.377 357.809 757.392 360.395 769.353 360 781.315 359.605 798.467 359.9 822.707 360 846.946 360.1 856.325 359.101 867 360 868.88 383.295 867.031 402.939 867 414.48 866.969 426.021 864.917 450.225 867 468.96 869.083 487.695 869.572 508.196 867 525.71 864.428 543.224 866.013 566.229 867 587 853.755 588.323 836.087 587.377 821.197 587 806.307 586.623 779.784 585.586 769.353 587 758.923 588.414 732.803 588.991 716 587 714.001 572.877 718.055 551.569 716 530.25 713.945 508.931 715.907 502.24 716 475.77 716.093 449.3 718.544 438.853 716 419.02 713.456 399.187 714.005 377.814 716 360Z" stroke="#000000" stroke-width="2" stroke-miterlimit="8" fill="none" fill-rule="evenodd"/><path d="M377 133C402.377 130.809 418.392 133.395 430.353 133 442.315 132.605 459.467 132.9 483.707 133 507.946 133.1 517.325 132.101 528 133 527.699 148.861 525.636 170.2 528 193.317 530.364 216.434 529.196 229.715 528 253.634 526.804 277.554 527.747 299.531 528 318.491 528.253 337.452 527.071 357.116 528 378.809 528.929 400.501 528.359 411.439 528 430.046 527.641 448.653 528.794 474.516 528 499.443 527.206 524.37 526.533 554.703 528 587 513.391 585.669 492.676 586.494 474.647 587 456.617 587.506 445.904 588.436 428.843 587 411.782 585.564 402.774 589.246 377 587 375.347 573.153 377.798 553.367 377 535.763 376.202 518.159 379.283 498.491 377 475.446 374.717 452.401 375.345 438.079 377 424.209 378.655 410.338 378.481 379.441 377 350.271 375.519 321.102 379.583 309.223 377 294.494 374.417 279.766 379.028 266.283 377 243.257 374.972 220.232 378.883 157.945 377 133Z" stroke="#000000" stroke-width="2" stroke-miterlimit="8" fill="none" fill-rule="evenodd"/><path d="M377 360 528.181 360" stroke="#000000" stroke-width="2" stroke-miterlimit="8" stroke-dasharray="8 6" fill="none" fill-rule="evenodd"/><path d="M867 360C892.377 357.809 908.392 360.395 920.353 360 932.315 359.605 949.467 359.9 973.707 360 997.946 360.1 1007.33 359.101 1018 360 1019.88 383.295 1018.03 402.939 1018 414.48 1017.97 426.021 1015.92 450.225 1018 468.96 1020.08 487.695 1020.57 508.196 1018 525.71 1015.43 543.224 1017.01 566.229 1018 587 1004.75 588.323 987.087 587.377 972.197 587 957.307 586.623 930.784 585.586 920.353 587 909.923 588.414 883.803 588.991 867 587 865.001 572.877 869.055 551.569 867 530.25 864.945 508.931 866.907 502.24 867 475.77 867.093 449.3 869.544 438.853 867 419.02 864.456 399.187 865.005 377.814 867 360Z" stroke="#000000" stroke-width="2" stroke-miterlimit="8" fill="none" fill-rule="evenodd"/><rect x="685" y="325" width="182" height="36" stroke="#FFFFFF" stroke-width="2" stroke-miterlimit="8" fill="#FFFFFF"/><path d="M716 359 867.181 359" stroke="#000000" stroke-width="2" stroke-miterlimit="8" stroke-dasharray="8 6" fill="none" fill-rule="evenodd"/><rect x="870" y="585" width="182" height="36" stroke="#FFFFFF" stroke-width="2" stroke-miterlimit="8" fill="#FFFFFF"/><path d="M868 585 1019.18 585" stroke="#000000" stroke-width="2" stroke-miterlimit="8" stroke-dasharray="8 6" fill="none" fill-rule="evenodd"/><text font-family="Calibri,Calibri_MSFontService,sans-serif" font-style="italic" font-weight="400" font-size="43" transform="translate(328.301 375)">a</text><text font-family="Calibri,Calibri_MSFontService,sans-serif" font-style="italic" font-weight="400" font-size="43" transform="translate(428.348 635)">b</text><text font-family="Calibri,Calibri_MSFontService,sans-serif" font-weight="400" font-size="43" transform="translate(847.774 647)">2</text><text font-family="Calibri,Calibri_MSFontService,sans-serif" font-style="italic" font-weight="400" font-size="43" transform="translate(869.44 647)">b</text><text font-family="Calibri,Calibri_MSFontService,sans-serif" font-style="italic" font-weight="400" font-size="43" transform="translate(628.69 479)">a</text><text font-family="Calibri,Calibri_MSFontService,sans-serif" font-weight="400" font-size="43" transform="translate(650.69 479)">/2</text></g></svg>