<svg width="1280" height="720" xmlns="http://www.w3.org/2000/svg" xmlns:xlink="http://www.w3.org/1999/xlink" overflow="hidden"><g><rect x="0" y="0" width="1280" height="720" fill="#FFFFFF"/><path d="M79 360C104.774 356.932 133.492 363.486 147.154 360 160.815 356.514 205.527 359.874 233.028 360 260.528 360.126 276.291 362.276 318.902 360 361.513 357.724 339.87 358.922 360.475 360 381.08 361.078 396.298 359.38 428.629 360 460.96 360.62 455.227 360.043 470.203 360 485.179 359.957 492.171 358.49 511.777 360 531.383 361.51 545.86 360.999 571.071 360 596.282 359.001 623.659 357.331 639.225 360 654.79 362.669 668.121 360.616 680.799 360 693.476 359.384 706.594 362.461 731.232 360 755.871 357.539 765.164 358.851 790.526 360 815.888 361.149 819.285 359.256 832.1 360 844.915 360.744 860.593 358.409 873.674 360 886.755 361.591 925.266 355.94 965 360 964.983 361.075 965.038 363.322 965 365 946.491 362.386 919.903 361.067 879.126 365 838.349 368.933 831.833 364.546 793.252 365 754.671 365.454 762.585 364.42 733.958 365 705.331 365.58 687.396 366.592 674.665 365 661.933 363.408 608.961 364.264 588.791 365 568.621 365.736 556.409 363.481 547.217 365 538.025 366.519 486.761 366.279 470.203 365 453.645 363.721 423.575 363.849 410.909 365 398.244 366.151 371.38 367.086 360.475 365 349.571 362.914 306.73 368.293 292.322 365 277.913 361.707 234.64 368.984 215.308 365 195.976 361.016 171.219 367.245 156.014 365 140.809 362.755 106.338 366.78 79 365 78.9458 363.62 79.118 362.423 79 360Z" fill-rule="evenodd"/><path d="M79 360C97.5116 358.257 111.29 358.265 120.574 360 129.858 361.735 147.953 358.457 171.008 360 194.062 361.543 214.342 359.951 230.301 360 246.261 360.049 263.753 359.993 289.595 360 315.438 360.007 327.282 362.386 340.029 360 352.776 357.614 379.632 361.557 390.463 360 401.294 358.443 427.877 360.271 440.897 360 453.917 359.729 470.877 361.301 482.471 360 494.064 358.699 508.544 360.619 524.045 360 539.546 359.381 549.052 358.587 565.618 360 582.185 361.413 595.347 360.264 607.192 360 619.038 359.736 646.935 358.526 675.346 360 703.757 361.474 742.909 357.8 761.22 360 779.531 362.2 791.983 359.375 802.794 360 813.604 360.625 838.618 357.892 862.088 360 885.557 362.108 890.024 361.063 903.661 360 917.299 358.937 946.984 362.134 965 360 965.086 361.576 964.909 363.147 965 365 924.705 361.167 909.095 360.529 879.126 365 849.157 369.471 838.481 362.727 810.972 365 783.464 367.273 786.543 367.034 769.398 365 752.253 362.966 741.749 362.797 718.965 365 696.181 367.203 657.71 368.388 641.951 365 626.191 361.612 614.192 365.751 600.377 365 586.562 364.249 548.461 361.465 532.223 365 515.985 368.535 481.145 367.694 464.069 365 446.994 362.306 425.675 365.497 404.775 365 383.875 364.503 355.398 362.135 336.622 365 317.845 367.865 280.912 361.299 250.748 365 220.584 368.701 216.238 365.64 191.454 365 166.67 364.36 164.481 364.565 149.88 365 135.279 365.435 101.649 367.079 79 365 79.0699 362.826 79.023 361.54 79 360Z" stroke="#000000" stroke-width="2" stroke-miterlimit="8" fill="none" fill-rule="evenodd"/><path d="M488 20C490.077 20.1493 491.951 20.1557 494 20 498.275 51.967 494.897 67.6607 494 102.862 493.103 138.064 491.886 128.817 494 154.124 496.114 179.432 495.308 194.041 494 205.387 492.692 216.732 491.684 241.959 494 256.649 496.316 271.338 496.059 301.061 494 314.231 491.942 327.401 494.796 350.101 494 365.493 493.204 380.886 496.227 413.844 494 448.356 491.773 482.867 493.927 493.596 494 505.938 494.073 518.279 493.168 546.101 494 557.2 494.832 568.299 498.525 605.04 494 652 491.542 651.806 489.703 652.115 488 652 485.794 633.306 487.166 620.622 488 600.738 488.834 580.853 484.002 544.734 488 524.196 491.998 503.657 484.86 469.544 488 453.973 491.14 438.402 485.047 397.026 488 371.111 490.953 345.196 486.508 335.971 488 319.849 489.492 303.727 484.445 264.442 488 243.307 491.555 222.171 487.887 198.771 488 179.404 488.113 160.038 488.917 132.847 488 109.182 487.083 85.5176 485.334 44.8161 488 20Z" fill-rule="evenodd"/><path d="M488 20C489.97 20.1925 492.16 19.8594 494 20 492.536 42.7914 493.556 49.4119 494 77.5823 494.444 105.753 493.65 120.392 494 147.804 494.35 175.216 491.171 196.511 494 224.347 496.829 252.182 493.919 265.783 494 288.249 494.081 310.715 494.587 319.645 494 345.831 493.413 372.017 495.595 392.314 494 416.053 492.405 439.793 492.965 466.934 494 486.276 495.035 505.617 496.595 514.398 494 537.538 491.405 560.677 492.249 577.587 494 588.8 495.751 600.013 491.893 622.57 494 652 491.244 652.224 490.824 651.736 488 652 490.447 632.361 484.737 607.099 488 569.138 491.263 531.176 488.306 525.509 488 511.556 487.694 497.602 488.384 472.229 488 460.293 487.616 448.357 488.845 425.241 488 409.031 487.155 392.821 490.197 379.912 488 357.769 485.803 335.626 487.058 324.078 488 306.507 488.942 288.936 486.571 252.275 488 236.284 489.429 220.293 487.263 191.201 488 153.422 488.737 115.644 488.359 120.238 488 102.16 487.641 84.0818 485.371 36.8998 488 20Z" stroke="#000000" stroke-width="2" stroke-miterlimit="8" fill="none" fill-rule="evenodd"/><path d="M867.725 569.002C867.63 569.465 867.31 570.14 867.089 570.781 835.796 561.415 810.519 551.252 784.197 541.15 757.875 531.048 751.811 529.207 738.674 524.878 725.538 520.548 706.675 515.852 693.152 508.605 679.629 501.358 663.062 499.623 647.629 492.332 632.197 485.042 613.43 479.193 594.633 473.388 575.836 467.583 565.94 464.316 549.11 457.115 532.28 449.915 484.111 431.096 466.219 427.485 448.326 423.873 429.757 412.201 413.222 408.54 396.687 404.88 381.167 396.702 367.699 392.268 354.232 387.834 335.216 382.166 314.703 373.323 294.19 364.481 261.083 351.073 239.285 346.364 217.487 341.655 200.078 329.757 186.289 327.42 172.499 325.083 144.469 314.766 119.703 303.618 119.875 302.954 120.002 302.589 120.34 301.839 138.913 310.828 147.616 310.021 165.862 318.111 184.108 326.201 196.605 326.767 211.385 334.384 226.164 342.001 262.803 349.713 286.803 361.343 310.802 372.973 317.378 374.137 347.273 382.959 377.168 391.781 391.101 397.43 415.217 407.247 439.333 417.063 460.321 424.947 475.687 428.862 491.053 432.778 522.41 449.169 543.631 453.15 564.853 457.131 588.285 467.033 604.102 474.766 619.918 482.499 645.732 488.752 672.046 499.054 698.36 509.355 710.667 514.803 732.516 520.669 754.366 526.535 772.4 532.598 785.513 539.614 798.625 546.63 847.544 561.437 867.725 569.002Z" fill="#4EA72E" fill-rule="evenodd"/><path d="M867.725 569.002C867.615 569.497 867.344 569.949 867.089 570.781 841.86 558.517 818.161 550.227 791.671 543.822 765.18 537.417 758.362 530.065 746.148 527.549 733.935 525.033 718.58 518.984 700.626 511.277 682.672 503.569 670.316 500.531 655.103 495.004 639.891 489.477 621.397 483.552 609.581 478.731 597.764 473.91 566.658 462.233 549.11 457.115 531.563 451.997 521.846 448.852 503.588 440.843 485.329 432.834 469.781 429.816 458.065 424.57 446.349 419.324 424.227 410.724 390.121 400.282 356.015 389.841 366.927 390.773 344.599 384.01 322.27 377.247 302.422 370.415 261.707 354.379 220.992 338.343 219.528 336.929 201.236 332.763 182.945 328.597 136.966 307.085 119.703 303.618 119.922 303.057 120.189 302.425 120.34 301.839 136.461 305.069 146.661 311.379 165.862 318.111 185.063 324.844 192.611 329.644 211.385 334.384 230.158 339.124 248.7 348.757 271.855 356 295.01 363.243 302.791 365.544 317.378 372.272 331.964 379.001 369.423 392.938 385.322 396.56 401.22 400.182 440.89 412.192 460.74 423.519 480.59 434.846 488.45 434.594 513.736 442.464 539.022 450.333 557.264 457.45 596.628 472.094 635.992 486.739 643.138 491.495 679.52 501.725 715.901 511.955 711.326 515.432 725.042 517.998 738.759 520.564 780.994 537.239 800.46 544.957 819.926 552.675 833.934 559.89 867.725 569.002Z" stroke="#4EA72E" stroke-width="2" stroke-miterlimit="8" fill="none" fill-rule="evenodd"/><path d="M321.826 1.84547C322.238 1.6148 322.959 1.41645 323.589 1.165 332.258 23.373 343.787 62.5313 354.618 81.5579 365.448 100.585 366.179 115.508 372.718 128.454 379.257 141.4 387.067 160.487 390.818 175.35 394.569 190.212 401.629 199.747 408.919 222.245 416.208 244.743 419.736 255.697 429.605 275.841 439.474 295.984 441.307 300.173 447.705 322.737 454.102 345.301 465.348 365.867 478.734 403.13 492.12 440.392 493.592 434.532 499.42 456.725 505.249 478.918 511.348 492.129 517.52 503.621 523.693 515.112 533.534 538.373 538.206 557.216 542.879 576.059 558.593 623.302 582.164 671.106 581.378 671.49 581.192 671.533 580.401 671.786 569.636 649.856 567.164 634.076 562.301 624.891 557.438 615.705 543.282 583.018 536.443 557.896 529.605 532.774 523.925 516.159 505.414 477.504 486.904 438.848 494.863 446.155 487.314 430.608 479.765 415.06 464.848 380.157 458.871 356.914 452.894 333.671 441.118 312.678 435.599 296.619 430.08 280.561 418.032 248.068 409.741 229.625 401.451 211.183 397.557 194.131 386.469 169.331 375.382 144.53 373.352 130.915 360.612 102.337 347.872 73.758 339.56 44.999 321.826 1.84547Z" fill="#E97132" fill-rule="evenodd"/><path d="M321.826 1.84547C322.494 1.49096 322.828 1.54463 323.589 1.165 332.104 23.8544 335.32 35.7972 346.86 61.4597 358.4 87.1221 357.855 95.1171 370.132 121.754 382.409 148.392 383.352 149.787 390.818 175.35 398.285 200.912 407.029 210.334 416.676 242.344 426.322 274.353 435.045 294.013 442.533 309.338 450.022 324.663 453.061 332.649 460.634 356.234 468.207 379.818 474.599 392.817 478.734 403.13 482.869 413.442 489 432.794 496.834 450.025 504.669 467.256 510.291 482.784 514.935 496.921 519.578 511.059 525.61 529.893 538.206 557.216 550.803 584.539 546.42 584.312 556.307 604.112 566.194 623.912 575.148 651.424 582.164 671.106 581.532 671.32 580.97 671.474 580.401 671.786 564.664 642.797 554.57 612.529 549.372 591.393 544.175 570.257 539.209 565.26 531.272 544.498 523.335 523.736 512.133 493.295 505.414 477.504 498.696 461.712 482.088 425.265 474.385 397.111 466.683 368.956 461.389 364.526 456.285 350.215 451.181 335.903 438.537 312.763 433.013 289.92 427.489 267.077 422.614 261.563 414.913 243.024 407.211 224.486 395.537 199.572 391.641 182.73 387.745 165.887 377.883 153.545 373.541 135.834 369.198 118.122 361.255 98.1806 347.683 68.8396 334.111 39.4985 330.054 23.2777 321.826 1.84547Z" stroke="#E97132" stroke-width="2" stroke-miterlimit="8" fill="none" fill-rule="evenodd"/><text fill="#4EA72E" font-family="Calibri,Calibri_MSFontService,sans-serif" font-weight="400" font-size="37" transform="translate(724.274 445)">Negativt</text><text fill="#4EA72E" font-family="Calibri,Calibri_MSFontService,sans-serif" font-weight="400" font-size="37" transform="translate(698.407 489)">stigningstall</text><text fill="#E97132" font-family="Calibri,Calibri_MSFontService,sans-serif" font-weight="400" font-size="37" transform="translate(84.2836 121)">«Mer negativt»</text><text fill="#E97132" font-family="Calibri,Calibri_MSFontService,sans-serif" font-weight="400" font-size="37" transform="translate(49.9036 165)">(lavere) stigningstall</text><path d="M413 242C413.067 242.495 412.992 243.283 413 244 394.301 245.296 387.141 245.758 373.48 244 359.819 242.242 345.121 242.097 337 244 336.962 243.023 336.932 242.604 337 242 355.437 241.165 357.38 243.165 374.24 242 391.1 240.835 395.086 240.719 413 242Z" stroke="#E97132" stroke-width="2" stroke-miterlimit="8" stroke-dasharray="8 6" fill="none" fill-rule="evenodd"/><path d="M335 38C335.495 37.9332 336.283 38.0079 337 38 339.832 53.4602 337.817 84.5414 337 110.787 336.183 137.032 337.29 152.768 337 173.273 336.71 193.779 334.075 225.829 337 244 336.237 243.94 335.752 243.939 335 244 337.493 209.931 335.318 208.143 335 173.273 334.682 138.403 335.009 132.568 335 104.607 334.991 76.6451 334.97 69.8351 335 38Z" stroke="#E97132" stroke-width="2" stroke-miterlimit="8" stroke-dasharray="8 6" fill="none" fill-rule="evenodd"/><path d="M640 490C640.067 490.495 639.992 491.283 640 492 621.301 493.296 614.141 493.758 600.48 492 586.819 490.242 572.121 490.097 564 492 563.962 491.023 563.932 490.604 564 490 582.437 489.165 584.38 491.165 601.24 490 618.1 488.835 622.086 488.719 640 490Z" stroke="#4EA72E" stroke-width="2" stroke-miterlimit="8" stroke-dasharray="8 6" fill="none" fill-rule="evenodd"/><path d="M566 460C566.495 459.931 567.283 460.008 568 460 567.912 466.378 567.162 477.988 568 488 567.245 487.997 566.824 487.987 566 488 564.746 480.203 566.669 473.616 566 460Z" stroke="#4EA72E" stroke-width="2" stroke-miterlimit="8" stroke-dasharray="8 6" fill="none" fill-rule="evenodd"/><text fill="#E97132" font-family="Calibri,Calibri_MSFontService,sans-serif" font-weight="400" font-size="37" transform="translate(363.056 282)">1</text><text fill="#4EA72E" font-family="Calibri,Calibri_MSFontService,sans-serif" font-weight="400" font-size="37" transform="translate(589.088 528)">1</text></g></svg>