<svg width="1280" height="720" xmlns="http://www.w3.org/2000/svg" xmlns:xlink="http://www.w3.org/1999/xlink" overflow="hidden"><g><rect x="0" y="0" width="1280" height="720" fill="#FFFFFF"/><path d="M968.12 598.215C953.523 575.698 945.64 558.323 938.349 542.563 931.057 526.804 921.022 510.365 905.989 482.072 890.957 453.778 888.187 445.396 876.218 426.419 864.25 407.443 860.792 395.968 851.625 380.446 842.458 364.923 827.901 341.229 819.265 319.954 810.63 298.679 803.047 282.91 781.728 249.784 760.41 216.658 762.935 219.466 754.546 198.971 746.157 178.476 726.713 146.494 709.243 114.283 718.386 127.978 739.711 142.766 758.413 166.125 777.115 189.483 793.212 201.73 803.941 214.127 814.67 226.523 837.902 252.676 853.111 265.968 868.321 279.261 882.137 296.616 891.355 306.29 900.573 315.963 923.833 340.992 944.168 361.972 964.502 382.952 971.348 394.499 982.411 402.293 993.474 410.087 1007.57 429.721 1024.3 446.455 1041.02 463.189 1053.47 475.023 1073.47 498.297 1059.43 510.221 1045.84 524.291 1021.85 547.257 997.856 570.223 995.073 573.73 968.12 598.215Z" fill="#D9D9D9" fill-rule="evenodd"/><path d="M968.12 598.215C954.602 577.114 951.285 569.757 943.526 552.242 935.768 534.726 932.174 525.874 918.933 506.268 905.692 486.663 904.334 478.117 891.751 455.455 879.168 432.794 872.641 418.149 861.98 399.803 851.319 381.457 847.616 370.722 832.209 344.151 816.803 317.58 808.612 294.327 794.672 273.981 780.733 253.634 774.65 236.615 762.312 213.489 749.975 190.363 720.159 139.027 709.243 114.283 716.647 123.112 735.891 146.057 747.486 154.604 759.081 163.152 774.14 178.725 789.372 198.766 804.604 218.807 819.297 226.58 838.542 250.608 857.788 274.636 878.68 292.637 891.355 306.29 904.03 319.943 921.667 336.74 936.883 354.292 952.099 371.843 955.51 377.88 975.127 394.613 994.743 411.346 995.08 417.225 1009.73 431.094 1024.38 444.964 1047.11 473.071 1073.47 498.297 1052.2 521.3 1042.3 527.24 1021.85 547.257 1001.39 567.274 989.157 573.374 968.12 598.215Z" stroke="#000000" stroke-width="2" stroke-miterlimit="8" stroke-dasharray="8 6" fill="none" fill-rule="evenodd"/><path d="M232 594C243.828 584.634 262.046 560.227 274.99 550.98 287.935 541.733 297.791 525.343 322.758 503.18 347.724 481.017 351.97 471.476 365.748 460.16 379.526 448.844 382.669 443.086 399.185 426.7 415.701 410.314 423.4 401.955 446.952 378.9 470.504 355.845 478.388 345.115 504.273 321.54 530.157 297.965 531.737 291.843 542.486 283.3 553.236 274.757 569.974 257.005 595.03 230.72 620.086 204.435 631.784 198.126 647.574 178.14 663.364 158.154 690.044 139.496 709.671 116 717.429 135.989 725.831 152.105 741.962 175.75 758.093 199.395 760.666 207.482 769.087 225.94 777.508 244.398 797.354 279.913 806.545 295.25 815.735 310.587 825.327 329.929 833.669 345.44 842.011 360.951 856.794 388.479 863.377 400.41 869.96 412.341 890.514 450.897 900.835 469.72 911.155 488.543 917.394 501.376 930.542 524.69 943.69 548.004 950.337 566.536 968 594 947.454 595.995 920.638 594.413 908.451 594 896.264 593.587 869.43 592.697 856.262 594 843.093 595.303 808.479 597.785 774.633 594 740.787 590.215 737.432 594.771 722.444 594 707.455 593.229 683.831 594.369 670.255 594 656.678 593.631 633.642 593.201 618.065 594 602.489 594.799 577.355 593.971 543.796 594 510.238 594.029 495.236 594.471 469.527 594 443.818 593.529 415.201 595.344 395.258 594 375.315 592.656 367.897 592.223 350.429 594 332.962 595.777 317.327 596.064 305.6 594 293.873 591.936 255.662 592.428 232 594Z" fill="#F2F2F2" fill-rule="evenodd"/><path d="M232 594C247.45 582.003 259.962 565.762 274.99 550.98 290.019 536.198 302.117 523.032 322.758 503.18 343.398 483.328 338.23 484.62 356.195 469.72 374.159 454.82 377.801 444.8 394.408 431.48 411.016 418.16 422.369 400.778 432.622 393.24 442.875 385.702 455.608 369.444 466.059 359.78 476.51 350.116 486.564 339.964 504.273 321.54 521.981 303.116 542.831 279.813 561.593 264.18 580.355 248.547 594.106 232.017 618.914 206.82 643.722 181.623 670.953 149.161 709.671 116 720.683 135.38 732.534 154.574 741.962 175.75 751.391 196.926 758.051 202.848 771.67 230.72 785.289 258.592 787.799 256.95 796.211 276.13 804.623 295.31 819.557 318.675 831.086 340.66 842.615 362.645 849.701 373.859 858.21 390.85 866.72 407.841 876.274 421.142 882.751 436.26 889.229 451.378 901.142 472.183 912.459 491.23 923.777 510.277 946.673 545.442 968 594 953.501 596.426 921.371 596.164 908.451 594 895.531 591.836 864.372 593.747 826.822 594 789.272 594.253 785.218 590.536 752.553 594 719.888 597.463 718.596 592.44 707.724 594 696.851 595.56 666.483 596.428 633.454 594 600.426 591.572 594.273 596.916 573.905 594 553.537 591.084 528.915 592.065 514.356 594 499.797 595.934 478.274 592.681 462.167 594 446.061 595.319 434.565 595.437 417.338 594 400.111 592.563 385.547 594.201 372.509 594 359.471 593.799 314.538 594.107 290.88 594 267.222 593.893 246.151 595.301 232 594Z" stroke="#000000" stroke-width="2" stroke-miterlimit="8" stroke-dasharray="8 6" fill="none" fill-rule="evenodd"/><path d="M533.609 595.489C526.748 581.881 519.147 566.435 508.178 548.466 497.209 530.497 495.906 521.119 481.686 499.484 467.467 477.849 465.338 470.231 456.255 452.461 447.172 434.692 436.727 410.888 427.645 399.561 440.349 405.226 463.11 419.61 477.79 424.487 492.47 429.365 511.87 438.487 531.947 451.408 552.024 464.329 556.747 462.625 580.086 475.337 603.426 488.05 604.361 488.834 628.226 499.267 615.76 512.735 597.303 527.722 581.864 546.416 566.424 565.109 551.626 573.871 533.609 595.489Z" fill="#D9D9D9" fill-rule="evenodd"/><path d="M533.609 595.489C523.534 576.832 514.353 563.426 504.999 542.588 495.644 521.75 485.413 507.658 480.627 497.525 475.841 487.392 456.154 456.352 452.016 444.624 447.879 432.897 438.958 421.888 427.645 399.561 443.288 404.086 464.294 417.468 481.801 426.481 499.309 435.494 506.665 441.055 525.929 448.417 545.194 455.778 554.888 460.667 574.069 472.346 593.25 484.026 606.031 485.607 628.226 499.267 612.38 517.85 592.384 534.073 583.756 544.491 575.128 554.909 556.793 574.83 533.609 595.489Z" stroke="#000000" stroke-width="2" stroke-miterlimit="8" fill="none" fill-rule="evenodd"/><path d="M232 594C243.858 583.798 255.872 568.712 279.04 547.44 302.208 526.168 309.859 518.809 328.04 498.94 346.222 479.071 363.662 467.641 375.081 452.38 386.5 437.119 413.606 410.873 428.001 400 433.475 413.957 442.794 428 454.501 448.5 466.208 469 470.964 479.008 483.12 500.88 495.277 522.752 499.665 532.793 508.56 547.44 517.455 562.087 519.774 572.875 534 594 522.419 595.35 497.61 595.107 476.62 594 455.63 592.893 438.731 594.494 413.2 594 387.669 593.506 370.233 594.871 346.76 594 323.287 593.129 311.877 594.327 289.38 594 266.883 593.673 256.322 593.066 232 594Z" fill="#F2F2F2" fill-rule="evenodd"/><path d="M232 594C247.647 574.379 259.393 567.845 279.04 547.44 298.687 527.035 320.658 506.542 331.96 495.06 343.263 483.578 364.469 466.127 380.961 446.56 397.453 426.993 411.172 420.15 428.001 400 436.195 416.618 444.857 431.325 453.441 446.56 462.025 461.795 470.043 472.205 476.761 489.24 483.478 506.275 488.388 514.606 502.2 535.8 516.013 556.994 523.594 568.575 534 594 519.4 596.229 495.63 593.898 482.66 594 469.69 594.102 437.712 595.744 419.24 594 400.769 592.256 374.3 590.953 355.82 594 337.34 597.047 312.259 596.974 292.4 594 272.541 591.026 245.485 592.544 232 594Z" stroke="#000000" stroke-width="2" stroke-miterlimit="8" fill="none" fill-rule="evenodd"/></g></svg>