<svg width="1280" height="720" xmlns="http://www.w3.org/2000/svg" xmlns:xlink="http://www.w3.org/1999/xlink" overflow="hidden"><g><rect x="0" y="0" width="1280" height="720" fill="#FFFFFF"/><path d="M165 546C181.723 546.608 198.132 547.463 207 546 207.721 556.343 207.734 570.727 207 589 191.161 590.437 174.94 588.286 165 589 165.948 578.817 163.522 558.492 165 546Z" stroke="#000000" stroke-width="2" stroke-miterlimit="8" fill="none" fill-rule="evenodd"/><path d="M113 545C129.723 545.608 146.132 546.463 155 545 155.721 555.343 155.734 569.727 155 588 139.161 589.437 122.94 587.286 113 588 113.948 577.817 111.522 557.492 113 545Z" stroke="#000000" stroke-width="2" stroke-miterlimit="8" fill="none" fill-rule="evenodd"/><path d="M217 543C233.723 543.608 250.132 544.463 259 543 259.721 553.343 259.734 567.727 259 586 243.161 587.437 226.94 585.286 217 586 217.948 575.817 215.522 555.492 217 543Z" stroke="#000000" stroke-width="2" stroke-miterlimit="8" fill="none" fill-rule="evenodd"/><path d="M219 485C235.723 485.594 252.132 486.429 261 485 261.721 495.102 261.734 509.152 261 527 245.161 528.404 228.94 526.302 219 527 219.948 517.054 217.522 497.201 219 485Z" stroke="#000000" stroke-width="2" stroke-miterlimit="8" fill="none" fill-rule="evenodd"/><path d="M111 489C127.723 489.608 144.132 490.463 153 489 153.721 499.343 153.734 513.727 153 532 137.161 533.437 120.94 531.286 111 532 111.948 521.817 109.522 501.492 111 489Z" stroke="#000000" stroke-width="2" stroke-miterlimit="8" fill="none" fill-rule="evenodd"/><path d="M165 485C181.723 485.594 198.132 486.429 207 485 207.721 495.102 207.734 509.152 207 527 191.161 528.404 174.94 526.302 165 527 165.948 517.054 163.522 497.201 165 485Z" stroke="#000000" stroke-width="2" stroke-miterlimit="8" fill="none" fill-rule="evenodd"/><path d="M217 427C233.723 427.594 250.132 428.429 259 427 259.721 437.102 259.734 451.152 259 469 243.161 470.404 226.94 468.302 217 469 217.948 459.054 215.522 439.201 217 427Z" stroke="#000000" stroke-width="2" stroke-miterlimit="8" fill="none" fill-rule="evenodd"/><path d="M449 546C465.325 546.608 481.344 547.463 490 546 490.704 556.343 490.717 570.727 490 589 474.538 590.437 458.703 588.286 449 589 449.926 578.817 447.557 558.492 449 546Z" stroke="#000000" stroke-width="2" stroke-miterlimit="8" fill="none" fill-rule="evenodd"/><path d="M397 545C413.325 545.608 429.344 546.463 438 545 438.704 555.343 438.717 569.727 438 588 422.538 589.437 406.703 587.286 397 588 397.926 577.817 395.557 557.492 397 545Z" stroke="#000000" stroke-width="2" stroke-miterlimit="8" fill="none" fill-rule="evenodd"/><path d="M501 543C517.325 543.608 533.344 544.463 542 543 542.704 553.343 542.717 567.727 542 586 526.538 587.437 510.703 585.286 501 586 501.926 575.817 499.557 555.492 501 543Z" stroke="#000000" stroke-width="2" stroke-miterlimit="8" fill="none" fill-rule="evenodd"/><path d="M503 485C519.723 485.594 536.132 486.429 545 485 545.721 495.102 545.734 509.152 545 527 529.161 528.404 512.94 526.302 503 527 503.948 517.054 501.522 497.201 503 485Z" stroke="#000000" stroke-width="2" stroke-miterlimit="8" fill="none" fill-rule="evenodd"/><path d="M395 489C411.325 489.608 427.344 490.463 436 489 436.704 499.343 436.717 513.727 436 532 420.538 533.437 404.703 531.286 395 532 395.926 521.817 393.557 501.492 395 489Z" stroke="#000000" stroke-width="2" stroke-miterlimit="8" fill="none" fill-rule="evenodd"/><path d="M449 485C465.325 485.594 481.344 486.429 490 485 490.704 495.102 490.717 509.152 490 527 474.538 528.404 458.703 526.302 449 527 449.926 517.054 447.557 497.201 449 485Z" stroke="#000000" stroke-width="2" stroke-miterlimit="8" fill="none" fill-rule="evenodd"/><path d="M501 427C517.325 427.594 533.344 428.429 542 427 542.704 437.102 542.717 451.152 542 469 526.538 470.404 510.703 468.302 501 469 501.926 459.054 499.557 439.201 501 427Z" stroke="#000000" stroke-width="2" stroke-miterlimit="8" fill="none" fill-rule="evenodd"/><path d="M449 427C465.325 427.594 481.344 428.429 490 427 490.704 437.102 490.717 451.152 490 469 474.538 470.404 458.703 468.302 449 469 449.926 459.054 447.557 439.201 449 427Z" stroke="#000000" stroke-width="2" stroke-miterlimit="8" fill="none" fill-rule="evenodd"/><path d="M566 545C582.325 545.608 598.344 546.463 607 545 607.704 555.343 607.717 569.727 607 588 591.538 589.437 575.703 587.286 566 588 566.926 577.817 564.557 557.492 566 545Z" stroke="#000000" stroke-width="2" stroke-miterlimit="8" fill="none" fill-rule="evenodd"/><path d="M337 546C353.723 546.608 370.132 547.463 379 546 379.721 556.343 379.734 570.727 379 589 363.161 590.437 346.94 588.286 337 589 337.948 578.817 335.522 558.492 337 546Z" stroke="#000000" stroke-width="2" stroke-miterlimit="8" fill="none" fill-rule="evenodd"/><path d="M335 491C351.723 491.594 368.132 492.429 377 491 377.721 501.102 377.734 515.152 377 533 361.161 534.404 344.94 532.302 335 533 335.948 523.054 333.522 503.201 335 491Z" stroke="#000000" stroke-width="2" stroke-miterlimit="8" fill="none" fill-rule="evenodd"/><path d="M501 364C517.325 364.608 533.344 365.463 542 364 542.704 374.343 542.717 388.727 542 407 526.538 408.437 510.703 406.286 501 407 501.926 396.817 499.557 376.492 501 364Z" stroke="#000000" stroke-width="2" stroke-miterlimit="8" fill="none" fill-rule="evenodd"/><path d="M449 364C465.325 364.608 481.344 365.463 490 364 490.704 374.343 490.717 388.727 490 407 474.538 408.437 458.703 406.286 449 407 449.926 396.817 447.557 376.492 449 364Z" stroke="#000000" stroke-width="2" stroke-miterlimit="8" fill="none" fill-rule="evenodd"/><path d="M564 485C580.723 485.594 597.132 486.429 606 485 606.721 495.102 606.734 509.152 606 527 590.161 528.404 573.94 526.302 564 527 564.948 517.054 562.522 497.201 564 485Z" stroke="#000000" stroke-width="2" stroke-miterlimit="8" fill="none" fill-rule="evenodd"/><path d="M887 543C903.723 543.608 920.132 544.463 929 543 929.721 553.343 929.734 567.727 929 586 913.161 587.437 896.94 585.286 887 586 887.948 575.817 885.522 555.492 887 543Z" stroke="#000000" stroke-width="2" stroke-miterlimit="8" fill="none" fill-rule="evenodd"/><path d="M835 542C851.723 542.594 868.132 543.429 877 542 877.721 552.102 877.734 566.152 877 584 861.161 585.404 844.94 583.302 835 584 835.948 574.054 833.522 554.201 835 542Z" stroke="#000000" stroke-width="2" stroke-miterlimit="8" fill="none" fill-rule="evenodd"/><path d="M998 540C1014.72 540.608 1031.13 541.463 1040 540 1040.72 550.343 1040.73 564.727 1040 583 1024.16 584.437 1007.94 582.286 998 583 998.948 572.817 996.522 552.492 998 540Z" stroke="#000000" stroke-width="2" stroke-miterlimit="8" fill="none" fill-rule="evenodd"/><path d="M1000 482C1016.72 482.594 1033.13 483.429 1042 482 1042.72 492.102 1042.73 506.152 1042 524 1026.16 525.404 1009.94 523.302 1000 524 1000.95 514.054 998.522 494.201 1000 482Z" stroke="#000000" stroke-width="2" stroke-miterlimit="8" fill="none" fill-rule="evenodd"/><path d="M833 486C849.723 486.608 866.132 487.463 875 486 875.721 496.343 875.734 510.727 875 529 859.161 530.437 842.94 528.286 833 529 833.948 518.817 831.522 498.492 833 486Z" stroke="#000000" stroke-width="2" stroke-miterlimit="8" fill="none" fill-rule="evenodd"/><path d="M887 482C903.723 482.594 920.132 483.429 929 482 929.721 492.102 929.734 506.152 929 524 913.161 525.404 896.94 523.302 887 524 887.948 514.054 885.522 494.201 887 482Z" stroke="#000000" stroke-width="2" stroke-miterlimit="8" fill="none" fill-rule="evenodd"/><path d="M998 423C1014.72 423.608 1031.13 424.463 1040 423 1040.72 433.343 1040.73 447.727 1040 466 1024.16 467.437 1007.94 465.286 998 466 998.948 455.817 996.522 435.492 998 423Z" stroke="#000000" stroke-width="2" stroke-miterlimit="8" fill="none" fill-rule="evenodd"/><path d="M887 423C903.723 423.608 920.132 424.463 929 423 929.721 433.343 929.734 447.727 929 466 913.161 467.437 896.94 465.286 887 466 887.948 455.817 885.522 435.492 887 423Z" stroke="#000000" stroke-width="2" stroke-miterlimit="8" fill="none" fill-rule="evenodd"/><path d="M833 423C849.723 423.608 866.132 424.463 875 423 875.721 433.343 875.734 447.727 875 466 859.161 467.437 842.94 465.286 833 466 833.948 455.817 831.522 435.492 833 423Z" stroke="#000000" stroke-width="2" stroke-miterlimit="8" fill="none" fill-rule="evenodd"/><path d="M1063 542C1079.72 542.594 1096.13 543.429 1105 542 1105.72 552.102 1105.73 566.152 1105 584 1089.16 585.404 1072.94 583.302 1063 584 1063.95 574.054 1061.52 554.201 1063 542Z" stroke="#000000" stroke-width="2" stroke-miterlimit="8" fill="none" fill-rule="evenodd"/><path d="M776 543C792.325 543.608 808.344 544.463 817 543 817.704 553.343 817.717 567.727 817 586 801.538 587.437 785.703 585.286 776 586 776.926 575.817 774.557 555.492 776 543Z" stroke="#000000" stroke-width="2" stroke-miterlimit="8" fill="none" fill-rule="evenodd"/><path d="M774 487C790.325 487.608 806.344 488.463 815 487 815.704 497.343 815.717 511.727 815 530 799.538 531.437 783.703 529.286 774 530 774.926 519.817 772.557 499.492 774 487Z" stroke="#000000" stroke-width="2" stroke-miterlimit="8" fill="none" fill-rule="evenodd"/><path d="M939 361C955.723 361.608 972.132 362.463 981 361 981.721 371.343 981.734 385.727 981 404 965.161 405.437 948.94 403.286 939 404 939.948 393.817 937.522 373.492 939 361Z" stroke="#000000" stroke-width="2" stroke-miterlimit="8" fill="none" fill-rule="evenodd"/><path d="M887 361C903.723 361.608 920.132 362.463 929 361 929.721 371.343 929.734 385.727 929 404 913.161 405.437 896.94 403.286 887 404 887.948 393.817 885.522 373.492 887 361Z" stroke="#000000" stroke-width="2" stroke-miterlimit="8" fill="none" fill-rule="evenodd"/><path d="M833 361C849.723 361.608 866.132 362.463 875 361 875.721 371.343 875.734 385.727 875 404 859.161 405.437 842.94 403.286 833 404 833.948 393.817 831.522 373.492 833 361Z" stroke="#000000" stroke-width="2" stroke-miterlimit="8" fill="none" fill-rule="evenodd"/><path d="M1062 482C1078.33 482.594 1094.34 483.429 1103 482 1103.7 492.102 1103.72 506.152 1103 524 1087.54 525.404 1071.7 523.302 1062 524 1062.93 514.054 1060.56 494.201 1062 482Z" stroke="#000000" stroke-width="2" stroke-miterlimit="8" fill="none" fill-rule="evenodd"/><path d="M714 543C730.723 543.608 747.132 544.463 756 543 756.721 553.343 756.734 567.727 756 586 740.161 587.437 723.94 585.286 714 586 714.948 575.817 712.522 555.492 714 543Z" stroke="#000000" stroke-width="2" stroke-miterlimit="8" fill="none" fill-rule="evenodd"/><path d="M712 487C728.723 487.608 745.132 488.463 754 487 754.721 497.343 754.734 511.727 754 530 738.161 531.437 721.94 529.286 712 530 712.948 519.817 710.522 499.492 712 487Z" stroke="#000000" stroke-width="2" stroke-miterlimit="8" fill="none" fill-rule="evenodd"/><path d="M939 297C955.723 297.608 972.132 298.463 981 297 981.721 307.343 981.734 321.727 981 340 965.161 341.437 948.94 339.286 939 340 939.948 329.817 937.522 309.492 939 297Z" stroke="#000000" stroke-width="2" stroke-miterlimit="8" fill="none" fill-rule="evenodd"/><path d="M887 297C903.723 297.608 920.132 298.463 929 297 929.721 307.343 929.734 321.727 929 340 913.161 341.437 896.94 339.286 887 340 887.948 329.817 885.522 309.492 887 297Z" stroke="#000000" stroke-width="2" stroke-miterlimit="8" fill="none" fill-rule="evenodd"/><path d="M833 297C849.723 297.608 866.132 298.463 875 297 875.721 307.343 875.734 321.727 875 340 859.161 341.437 842.94 339.286 833 340 833.948 329.817 831.522 309.492 833 297Z" stroke="#000000" stroke-width="2" stroke-miterlimit="8" fill="none" fill-rule="evenodd"/><path d="M939 540C955.723 540.608 972.132 541.463 981 540 981.721 550.343 981.734 564.727 981 583 965.161 584.437 948.94 582.286 939 583 939.948 572.817 937.522 552.492 939 540Z" stroke="#000000" stroke-width="2" stroke-miterlimit="8" fill="none" fill-rule="evenodd"/><path d="M941 482C957.723 482.594 974.132 483.429 983 482 983.721 492.102 983.734 506.152 983 524 967.161 525.404 950.94 523.302 941 524 941.948 514.054 939.522 494.201 941 482Z" stroke="#000000" stroke-width="2" stroke-miterlimit="8" fill="none" fill-rule="evenodd"/><path d="M939 423C955.723 423.608 972.132 424.463 981 423 981.721 433.343 981.734 447.727 981 466 965.161 467.437 948.94 465.286 939 466 939.948 455.817 937.522 435.492 939 423Z" stroke="#000000" stroke-width="2" stroke-miterlimit="8" fill="none" fill-rule="evenodd"/></g></svg>