<svg width="1280" height="720" xmlns="http://www.w3.org/2000/svg" xmlns:xlink="http://www.w3.org/1999/xlink" overflow="hidden"><g><rect x="0" y="0" width="1280" height="720" fill="#FFFFFF"/><path d="M0 0C23.7794 0.0288714 37.1124-1.15223 47.9622 0 58.812 1.15223 84.859-1.95496 102.047 0 101.959 0.759475 102.105 1.47349 102.047 1.88976 91.266-0.36231 73.8153 2.25365 51.0236 1.88976 28.2319 1.52588 15.8133-0.276955 0 1.88976 0.0857743 1.08031 0.0909186 0.692388 0 0Z" stroke="#000000" stroke-miterlimit="8" stroke-dasharray="4 3" fill="none" fill-rule="evenodd" transform="matrix(-0.253323 0.967382 0.967382 0.253323 244.53 361.045)"/><path d="M0 0C19.5482-2.40211 23.3023 1.89989 45.8033 0 68.3043-1.89989 84.3312 0.662333 96.1367 0 107.942-0.662333 124.896 0.793 151 0 150.969 0.418778 151.016 1.15967 151 2 132.233-0.0232222 112.57 0.873555 100.667 2 88.7628 3.12644 67.1893 3.24922 48.8233 2 30.4573 0.750778 17.2785 3.32867 0 2-0.0177215 1.27578 0.0570444 0.494 0 0Z" stroke="#000000" stroke-miterlimit="8" stroke-dasharray="4 3" fill="none" fill-rule="evenodd" transform="matrix(6.12323e-17 1 1 -6.12323e-17 204.5 339.5)"/><path d="M0 0C19.5482-1.20106 23.3023 0.949944 45.8033 0 68.3043-0.949944 84.3312 0.331167 96.1367 0 107.942-0.331167 124.896 0.3965 151 0 150.969 0.209389 151.016 0.579833 151 1 132.233-0.0116111 112.57 0.436778 100.667 1 88.7628 1.56322 67.1893 1.62461 48.8233 1 30.4573 0.375389 17.2785 1.66433 0 1-0.0177215 0.637889 0.0570444 0.247 0 0Z" stroke="#000000" stroke-miterlimit="8" stroke-dasharray="4 3" fill="none" fill-rule="evenodd" transform="matrix(6.12323e-17 1 1 -6.12323e-17 660.5 341.5)"/><path d="M562.5 591.5C580.896 572.033 595.943 559.775 608.328 545.5 620.713 531.225 640.375 508.871 654.156 499.5 670.875 502.684 701.598 499.494 720.891 499.5 740.185 499.506 756.773 499.5 772.46 499.5 788.148 499.5 811.686 497.192 833.129 499.5 854.571 501.808 872.457 500.224 890.764 499.5 909.072 498.777 927.91 496.812 957.5 499.5 939.584 517.932 925.013 534.555 913.505 543.66 901.998 552.765 886.488 574.269 865.844 591.5 852.9 589.364 827.614 589.997 805.175 591.5 782.737 593.003 770.764 589.254 744.507 591.5 718.25 593.746 697.773 592.482 680.804 591.5 663.836 590.518 649.712 590.767 623.169 591.5 596.626 592.233 582.156 590.361 562.5 591.5Z" fill="#D9D9D9" fill-rule="evenodd"/><path d="M562.5 591.5C577.947 573.965 594.571 554.831 609.245 544.58 623.918 534.329 639.665 517.36 654.156 499.5 671.727 500.623 695.555 498.092 714.825 499.5 734.095 500.908 754.16 496.647 781.56 499.5 808.961 502.353 817.665 501.976 836.162 499.5 854.66 497.024 868.759 497.031 893.798 499.5 918.837 501.97 932.059 500.492 957.5 499.5 940.11 518.344 934.598 525.769 912.589 544.58 890.58 563.391 887.116 567.832 865.844 591.5 838.133 590.461 832.26 589.14 805.175 591.5 778.091 593.86 770.776 588.779 744.507 591.5 718.237 594.221 699.4 589.834 677.771 591.5 656.142 593.166 637.511 593.535 623.169 591.5 608.827 589.465 580.89 589.237 562.5 591.5Z" stroke="#000000" stroke-miterlimit="8" fill="none" fill-rule="evenodd"/><path d="M110.5 588.5C128.942 569.033 144.028 556.775 156.444 542.5 168.86 528.225 188.573 505.871 202.388 496.5 219.149 499.684 249.95 496.494 269.292 496.5 288.635 496.506 305.264 496.5 320.992 496.5 336.719 496.5 360.317 494.192 381.814 496.5 403.311 498.808 421.242 497.224 439.595 496.5 457.949 495.777 476.835 493.812 506.5 496.5 488.538 514.932 473.93 531.555 462.394 540.66 450.857 549.765 435.308 571.269 414.612 588.5 401.635 586.364 376.285 586.997 353.79 588.5 331.294 590.003 319.291 586.254 292.967 588.5 266.644 590.746 246.116 589.482 229.104 588.5 212.092 587.518 197.933 587.767 171.322 588.5 144.712 589.233 130.206 587.361 110.5 588.5Z" fill="#D9D9D9" fill-rule="evenodd"/><path d="M110.5 588.5C125.986 570.965 142.652 551.831 157.363 541.58 172.074 531.329 187.861 514.36 202.388 496.5 220.004 497.623 243.892 495.092 263.21 496.5 282.529 497.908 302.645 493.647 330.115 496.5 357.585 499.353 366.311 498.976 384.855 496.5 403.4 494.024 417.534 494.031 442.637 496.5 467.739 498.97 480.995 497.492 506.5 496.5 489.066 515.344 483.54 522.769 461.475 541.58 439.411 560.391 435.938 564.832 414.612 588.5 386.83 587.461 380.943 586.14 353.79 588.5 326.637 590.86 319.304 585.779 292.967 588.5 266.631 591.221 247.746 586.834 226.063 588.5 204.379 590.166 185.701 590.535 171.322 588.5 156.944 586.465 128.937 586.237 110.5 588.5Z" stroke="#000000" stroke-miterlimit="8" fill="none" fill-rule="evenodd"/><path d="M627.5 527.5C635.53 519.855 650.981 500.905 660.687 494.5 670.393 488.095 677.936 474.721 693.874 461.5 713.916 460.663 739.94 463.122 766.882 461.5 793.823 459.878 803.376 460.165 829.558 461.5 855.741 462.835 880.799 459.304 900.5 461.5 889.106 470.762 875.948 485.048 867.977 493.84 860.005 502.632 841.887 521.23 834.126 527.5 819.309 526.025 798.437 529.076 769.383 527.5 740.329 525.924 722.279 530.876 698.442 527.5 674.604 524.124 662.147 528.071 627.5 527.5Z" fill="#F2F2F2" fill-rule="evenodd"/><path d="M627.5 527.5C637.248 520.06 651.103 506.474 660.687 494.5 670.272 482.526 678.414 474.415 693.874 461.5 723.878 460.545 746.998 463.895 762.749 461.5 778.501 459.105 801.446 458.084 833.691 461.5 865.936 464.916 871.82 464.52 900.5 461.5 893.273 469.338 884.098 476.709 869.304 492.52 854.51 508.332 847.232 517.155 834.126 527.5 806.512 529.561 800.673 530.545 769.383 527.5 738.093 524.456 715.339 525.794 700.508 527.5 685.676 529.206 655.2 529.312 627.5 527.5Z" stroke="#000000" stroke-miterlimit="8" fill="none" fill-rule="evenodd"/><path d="M149.5 527.5C157.916 516.891 169.868 507.79 185.043 492 200.217 476.21 211.252 464.656 220.585 456.5 241.153 459.251 281.409 456.386 297.582 456.5 313.754 456.614 343.97 454.872 363.683 456.5 383.395 458.128 419.573 454.37 438.5 456.5 421.193 471.388 418.009 478.714 403.668 491.29 389.327 503.866 381.463 510.209 367.415 527.5 341.729 524.655 313.643 524.693 299.135 527.5 284.627 530.307 240.723 527.94 224.317 527.5 207.912 527.06 164.584 526.579 149.5 527.5Z" fill="#F2F2F2" fill-rule="evenodd"/><path d="M149.5 527.5C163.429 515.255 165.792 508.148 185.043 492 204.293 475.852 203.716 472.143 220.585 456.5 253.559 454.62 274.697 459.606 293.223 456.5 311.75 453.394 341.281 456.947 368.041 456.5 394.801 456.053 416.122 456.305 438.5 456.5 425.345 468.106 414.767 478.518 405.09 489.87 395.413 501.222 375.23 517.183 367.415 527.5 353.667 525.909 322.244 527.639 299.135 527.5 276.026 527.361 247.692 525.033 226.497 527.5 205.301 529.967 172.391 524.347 149.5 527.5Z" stroke="#000000" stroke-miterlimit="8" fill="none" fill-rule="evenodd"/><path d="M413.609 588.377C400.588 572.855 386.647 554.03 373.142 533.55 359.637 513.07 339.742 488.53 330.989 476.438 322.237 464.346 311.023 444.661 290.523 421.61 270.022 398.559 261.55 377.64 244.998 359.929 257.311 367.513 285.424 382.452 297.643 386.375 309.863 390.298 335.892 402.262 355.554 415.464 375.215 428.667 379.951 430.006 405.567 440.587 431.183 451.169 438.179 455.89 452.948 464.388 467.717 472.886 487.9 481.927 508.226 492.156 488.367 515.269 481.155 514.995 460.918 540.266 440.68 565.538 429.934 571.339 413.609 588.377Z" stroke="#000000" stroke-width="2" stroke-miterlimit="8" fill="none" fill-rule="evenodd"/><path d="M112 587C126.789 560.112 136.047 547.985 144.32 532.52 152.593 517.055 170.868 491.911 177.987 475.77 185.106 459.629 200.409 437.544 210.308 421.29 220.207 405.036 231.073 380.804 246.668 360 260.552 381.629 271.221 398.379 288.501 416.75 305.781 435.121 321.8 456.281 333.681 478.04 345.561 499.799 355.381 512.471 373.84 532.52 392.299 552.569 396.888 568.701 414 587 402.419 588.35 377.61 588.107 356.62 587 335.63 585.893 318.731 587.494 293.2 587 267.669 586.506 250.233 587.87 226.76 587 203.287 586.13 191.877 587.327 169.38 587 146.883 586.673 136.322 586.066 112 587Z" stroke="#000000" stroke-width="2" stroke-miterlimit="8" fill="none" fill-rule="evenodd"/><path d="M112 434.692C130.266 418.649 137.797 412.751 158.839 387.846 179.881 362.941 188.69 354.455 205.678 341 223.226 340.903 233.713 339.69 256.733 341 279.752 342.31 299.085 339.8 319.8 341 340.516 342.2 362.224 342.937 382.868 341 403.512 339.063 412.902 343.866 442.932 341 472.962 338.134 490.601 342.643 506 341 507.885 357.377 505.003 366.677 506 391.77 506.997 416.862 503.924 424.828 506 442.539 508.076 460.25 508.506 472.714 506 493.308 496.017 504.082 481.22 517.374 458.224 541.091 435.228 564.808 436.948 566.092 412.322 587 394.709 588.269 380.584 588.49 349.254 587 317.924 585.51 319.12 586.792 289.19 587 259.26 587.208 260.422 589.339 238.135 587 215.848 584.661 202.874 587.192 181.074 587 159.274 586.807 135.318 590.238 112 587 112.098 563.229 113.298 550.99 112 537.754 110.702 524.518 111.787 510.377 112 483.938 112.213 457.498 112.378 446.954 112 434.692ZM112 434.692C132.304 431.418 157.961 436.775 178.071 434.692 198.181 432.608 220.942 437.006 235.132 434.692 249.321 432.377 269.737 434.231 301.203 434.692 332.669 435.152 339.098 432.885 358.264 434.692 377.43 436.498 394.522 432.047 412.322 434.692 428.128 417.576 440.441 402.694 459.161 387.846 477.881 372.998 488.107 358.53 506 341M412.322 434.692C414.159 461.028 410.984 470.085 412.322 488.507 413.66 506.929 414.298 527.254 412.322 539.277 410.346 551.299 410.227 572.8 412.322 587" stroke="#000000" stroke-width="2" stroke-miterlimit="8" fill="none" fill-rule="evenodd"/><path d="M864.939 589.952C858.078 576.345 850.476 560.898 839.507 542.93 828.538 524.961 827.236 515.583 813.016 493.948 798.796 472.313 796.668 464.695 787.585 446.925 778.501 429.155 768.057 405.352 758.974 394.025 771.679 399.689 794.44 414.073 809.12 418.951 823.799 423.829 843.2 432.951 863.277 445.872 883.353 458.792 888.077 457.089 911.416 469.801 934.755 482.513 935.691 483.298 959.556 493.73 947.09 507.198 928.633 522.186 913.193 540.879 897.753 559.572 882.956 568.334 864.939 589.952Z" stroke="#000000" stroke-width="2" stroke-miterlimit="8" fill="none" fill-rule="evenodd"/><path d="M564 588C575.858 577.851 587.872 562.842 611.04 541.68 634.208 520.518 641.859 513.197 660.04 493.43 678.222 473.663 695.662 462.292 707.081 447.11 718.5 431.928 745.606 405.817 760.001 395 765.475 408.886 774.794 422.856 786.501 443.25 798.208 463.644 802.964 473.601 815.12 495.36 827.277 517.119 831.666 527.109 840.56 541.68 849.455 556.252 851.774 566.984 866 588 854.419 589.343 829.61 589.101 808.62 588 787.63 586.899 770.731 588.492 745.2 588 719.669 587.508 702.233 588.866 678.76 588 655.287 587.134 643.877 588.326 621.38 588 598.883 587.674 588.322 587.07 564 588Z" stroke="#000000" stroke-width="2" stroke-miterlimit="8" fill="none" fill-rule="evenodd"/><path d="M566 434.692C584.266 418.649 591.797 412.751 612.839 387.846 633.881 362.941 642.69 354.455 659.678 341 677.226 340.903 687.713 339.69 710.733 341 733.752 342.31 753.085 339.8 773.8 341 794.516 342.2 816.224 342.937 836.868 341 857.512 339.063 866.902 343.866 896.932 341 926.963 338.134 944.601 342.643 960 341 961.885 357.377 959.003 366.677 960 391.77 960.997 416.862 957.924 424.828 960 442.539 962.076 460.25 962.506 472.714 960 493.308 950.017 504.082 935.22 517.374 912.224 541.091 889.228 564.808 890.948 566.092 866.322 587 848.709 588.269 834.584 588.49 803.254 587 771.924 585.51 773.12 586.792 743.19 587 713.26 587.208 714.422 589.339 692.135 587 669.848 584.661 656.874 587.192 635.074 587 613.274 586.807 589.318 590.238 566 587 566.098 563.229 567.298 550.99 566 537.754 564.702 524.518 565.787 510.377 566 483.938 566.213 457.498 566.378 446.954 566 434.692ZM566 434.692C586.304 431.418 611.961 436.775 632.071 434.692 652.181 432.608 674.942 437.006 689.132 434.692 703.321 432.377 723.737 434.231 755.203 434.692 786.669 435.152 793.098 432.885 812.264 434.692 831.43 436.498 848.522 432.047 866.322 434.692 882.128 417.576 894.441 402.694 913.161 387.846 931.881 372.998 942.107 358.53 960 341M866.322 434.692C868.159 461.028 864.984 470.085 866.322 488.507 867.66 506.929 868.298 527.254 866.322 539.277 864.346 551.299 864.227 572.8 866.322 587" stroke="#000000" stroke-width="2" stroke-miterlimit="8" fill="none" fill-rule="evenodd"/></g></svg>