<svg width="1280" height="720" xmlns="http://www.w3.org/2000/svg" xmlns:xlink="http://www.w3.org/1999/xlink" overflow="hidden"><g><rect x="0" y="0" width="1280" height="720" fill="#FFFFFF"/><path d="M666 129C666.114 118.181 674.966 111.747 684 111 691.998 110.248 702.4 117.624 702 129 703.635 137.835 693.72 147.578 684 147 673.931 147.431 667.374 137.705 666 129Z" stroke="#000000" stroke-width="2" stroke-miterlimit="8" fill="none" fill-rule="evenodd"/><path d="M618 80.5C618.114 69.9817 626.966 63.7264 636 63 643.998 62.2693 654.4 69.4396 654 80.5 655.635 89.09 645.72 98.5615 636 98 625.931 98.4191 619.374 88.9631 618 80.5Z" stroke="#000000" stroke-width="2" stroke-miterlimit="8" fill="none" fill-rule="evenodd"/><path d="M669 174.5C669.117 162.873 678.215 155.73 687.5 155 696.938 154.713 706.539 161.895 706 174.5 707.681 184.19 697.49 194.564 687.5 194 676.535 196.388 671.05 183.517 669 174.5Z" stroke="#000000" stroke-width="2" stroke-miterlimit="8" fill="none" fill-rule="evenodd"/><path d="M577.473 235.193C567.94 230.474 566.105 219.71 569.386 211.206 572.211 203.638 583.282 197.36 593.183 202.576 601.722 204.864 606.023 218.004 601.27 226.563 597.257 235.87 585.782 237.662 577.473 235.193Z" stroke="#000000" stroke-width="2" stroke-miterlimit="8" fill="none" fill-rule="evenodd"/><path d="M668 219C668.081 208.986 678.95 203.645 688 202 697.182 201.279 708.209 208.862 708 219 709.569 227.328 698.69 236.926 688 236 676.372 237.958 668.424 228.007 668 219Z" stroke="#000000" stroke-width="2" stroke-miterlimit="8" fill="none" fill-rule="evenodd"/><path d="M568.564 164.269C573.806 155.014 584.655 153.78 592.964 157.529 600.362 160.77 606.015 172.173 600.257 181.769 597.498 190.167 584.14 193.731 575.857 188.509 566.788 183.986 565.637 172.428 568.564 164.269Z" stroke="#000000" stroke-width="2" stroke-miterlimit="8" fill="none" fill-rule="evenodd"/><path d="M618 175.5C618.114 164.982 626.966 158.726 636 158 643.998 157.269 654.4 164.44 654 175.5 655.635 184.09 645.72 193.562 636 193 625.931 193.419 619.374 183.963 618 175.5Z" stroke="#000000" stroke-width="2" stroke-miterlimit="8" fill="none" fill-rule="evenodd"/><path d="M577.058 146.224C565.919 140.613 564.197 130.181 566.811 122.415 569.009 115.741 581.673 110.535 591.815 115.586 601.277 118.276 606.568 131.399 602.061 139.394 598.69 148.503 586.681 150.515 577.058 146.224Z" stroke="#000000" stroke-width="2" stroke-miterlimit="8" fill="none" fill-rule="evenodd"/><path d="M616 131C616.117 119.075 625.215 111.748 634.5 111 643.938 110.706 653.539 118.072 653 131 654.681 140.938 644.49 151.579 634.5 151 623.535 153.449 618.05 140.248 616 131Z" stroke="#000000" stroke-width="2" stroke-miterlimit="8" fill="none" fill-rule="evenodd"/><path d="M477 149C477.117 138.181 486.215 131.747 495.5 131 503.721 130.248 514.411 137.624 514 149 515.681 157.835 505.49 167.578 495.5 167 485.151 167.431 478.412 157.705 477 149Z" stroke="#000000" stroke-width="2" stroke-miterlimit="8" fill="none" fill-rule="evenodd"/><path d="M758 155C758.114 143.075 766.966 135.748 776 135 785.182 134.706 794.524 142.072 794 155 795.635 164.938 785.72 175.579 776 175 765.331 177.449 759.994 164.248 758 155Z" stroke="#000000" stroke-width="2" stroke-miterlimit="8" fill="none" fill-rule="evenodd"/><path d="M522.076 162.127C527.317 152.872 538.167 151.638 546.476 155.386 553.874 158.628 559.527 170.031 553.769 179.627 551.01 188.025 537.652 191.589 529.369 186.367 520.3 181.843 519.149 170.286 522.076 162.127Z" stroke="#000000" stroke-width="2" stroke-miterlimit="8" fill="none" fill-rule="evenodd"/><path d="M714 175.5C714.117 164.982 723.215 158.726 732.5 158 740.721 157.269 751.411 164.44 751 175.5 752.681 184.09 742.49 193.562 732.5 193 722.151 193.419 715.412 183.963 714 175.5Z" stroke="#000000" stroke-width="2" stroke-miterlimit="8" fill="none" fill-rule="evenodd"/><path d="M530.57 144.081C519.431 138.47 517.709 128.039 520.323 120.273 522.521 113.599 535.185 108.393 545.327 113.444 554.789 116.134 560.08 129.257 555.573 137.252 552.202 146.361 540.192 148.372 530.57 144.081Z" stroke="#000000" stroke-width="2" stroke-miterlimit="8" fill="none" fill-rule="evenodd"/><path d="M713 131C713.114 119.075 721.966 111.748 731 111 740.182 110.706 749.524 118.072 749 131 750.635 140.938 740.72 151.579 731 151 720.331 153.449 714.994 140.248 713 131Z" stroke="#000000" stroke-width="2" stroke-miterlimit="8" fill="none" fill-rule="evenodd"/><path d="M287 456C287.114 445.181 295.966 438.747 305 438 312.998 437.248 323.4 444.624 323 456 324.635 464.835 314.72 474.578 305 474 294.931 474.431 288.374 464.705 287 456Z" stroke="#000000" stroke-width="2" stroke-miterlimit="8" fill="none" fill-rule="evenodd"/><path d="M237 547C237.117 536.181 246.215 529.747 255.5 529 263.721 528.248 274.411 535.624 274 547 275.681 555.835 265.49 565.578 255.5 565 245.151 565.431 238.412 555.705 237 547Z" stroke="#000000" stroke-width="2" stroke-miterlimit="8" fill="none" fill-rule="evenodd"/><path d="M290 501.5C290.114 489.873 298.966 482.73 308 482 317.183 481.713 326.524 488.895 326 501.5 327.635 511.19 317.72 521.564 308 521 297.331 523.388 291.994 510.517 290 501.5Z" stroke="#000000" stroke-width="2" stroke-miterlimit="8" fill="none" fill-rule="evenodd"/><path d="M198.253 562.156C188.721 557.437 186.886 546.673 190.167 538.169 192.992 530.602 204.063 524.323 213.964 529.539 222.503 531.827 226.804 544.967 222.05 553.527 218.038 562.834 206.562 564.625 198.253 562.156Z" stroke="#000000" stroke-width="2" stroke-miterlimit="8" fill="none" fill-rule="evenodd"/><path d="M288 545.5C288.081 535.78 298.95 530.597 308 529 317.182 528.3 328.209 535.66 328 545.5 329.569 553.583 318.69 562.899 308 562 296.372 563.9 288.424 554.243 288 545.5Z" stroke="#000000" stroke-width="2" stroke-miterlimit="8" fill="none" fill-rule="evenodd"/><path d="M189.345 491.233C194.586 481.978 205.436 480.743 213.745 484.492 221.143 487.733 226.796 499.137 221.038 508.732 218.279 517.131 204.92 520.695 196.638 515.473 187.568 510.949 186.418 499.392 189.345 491.233Z" stroke="#000000" stroke-width="2" stroke-miterlimit="8" fill="none" fill-rule="evenodd"/><path d="M239 502.5C239.114 491.982 247.966 485.726 257 485 264.998 484.269 275.4 491.44 275 502.5 276.635 511.09 266.72 520.562 257 520 246.931 520.419 240.374 510.963 239 502.5Z" stroke="#000000" stroke-width="2" stroke-miterlimit="8" fill="none" fill-rule="evenodd"/><path d="M197.838 473.187C186.7 467.576 184.977 457.144 187.592 449.379 189.789 442.704 202.454 437.498 212.595 442.549 222.058 445.239 227.348 458.363 222.842 466.358 219.471 475.466 207.461 477.478 197.838 473.187Z" stroke="#000000" stroke-width="2" stroke-miterlimit="8" fill="none" fill-rule="evenodd"/><path d="M237 457.5C237.114 445.873 245.966 438.73 255 438 264.183 437.713 273.524 444.895 273 457.5 274.635 467.19 264.72 477.564 255 477 244.331 479.388 238.994 466.517 237 457.5Z" stroke="#000000" stroke-width="2" stroke-miterlimit="8" fill="none" fill-rule="evenodd"/><path d="M47 501.5C47.1141 490.982 55.9656 484.726 65.0001 484 72.9983 483.269 83.4003 490.44 83.0001 501.5 84.6353 510.09 74.7196 519.562 65.0001 519 54.9306 519.419 48.3739 509.963 47 501.5Z" stroke="#000000" stroke-width="2" stroke-miterlimit="8" fill="none" fill-rule="evenodd"/><path d="M479 507C479.117 495.075 488.215 487.748 497.5 487 506.938 486.706 516.539 494.072 516 507 517.681 516.938 507.49 527.579 497.5 527 486.535 529.449 481.05 516.248 479 507Z" stroke="#000000" stroke-width="2" stroke-miterlimit="8" fill="none" fill-rule="evenodd"/><path d="M91.7849 514.643C97.0262 505.388 107.876 504.154 116.185 507.902 123.583 511.143 129.236 522.547 123.478 532.142 120.719 540.541 107.36 544.105 99.0781 538.883 90.0086 534.359 88.858 522.802 91.7849 514.643Z" stroke="#000000" stroke-width="2" stroke-miterlimit="8" fill="none" fill-rule="evenodd"/><path d="M436 527.5C436.114 516.982 444.966 510.726 454 510 461.998 509.269 472.4 516.44 472 527.5 473.635 536.09 463.72 545.562 454 545 443.931 545.419 437.374 535.963 436 527.5Z" stroke="#000000" stroke-width="2" stroke-miterlimit="8" fill="none" fill-rule="evenodd"/><path d="M100.278 496.597C89.14 490.986 87.4175 480.555 90.0319 472.789 92.2296 466.115 104.894 460.909 115.036 465.96 124.498 468.65 129.789 481.773 125.282 489.768 121.911 498.877 109.901 500.888 100.278 496.597Z" stroke="#000000" stroke-width="2" stroke-miterlimit="8" fill="none" fill-rule="evenodd"/><path d="M434 483C434.114 471.075 442.966 463.748 452 463 461.183 462.706 470.524 470.072 470 483 471.635 492.938 461.72 503.579 452 503 441.331 505.449 435.994 492.248 434 483Z" stroke="#000000" stroke-width="2" stroke-miterlimit="8" fill="none" fill-rule="evenodd"/><path d="M287 409.5C287.114 397.873 295.966 390.73 305 390 314.183 389.713 323.524 396.895 323 409.5 324.635 419.19 314.72 429.564 305 429 294.331 431.388 288.994 418.517 287 409.5Z" stroke="#000000" stroke-width="2" stroke-miterlimit="8" fill="none" fill-rule="evenodd"/><path d="M189.345 583.375C194.586 574.12 205.436 572.886 213.745 576.635 221.143 579.876 226.796 591.279 221.038 600.875 218.279 609.274 204.92 612.837 196.638 607.616 187.568 603.092 186.418 591.534 189.345 583.375Z" stroke="#000000" stroke-width="2" stroke-miterlimit="8" fill="none" fill-rule="evenodd"/><path d="M236 410.5C236.114 399.982 244.966 393.726 254 393 261.998 392.269 272.4 399.44 272 410.5 273.635 419.09 263.72 428.562 254 428 243.931 428.419 237.374 418.963 236 410.5Z" stroke="#000000" stroke-width="2" stroke-miterlimit="8" fill="none" fill-rule="evenodd"/><path d="M341 547C341.117 536.181 350.215 529.747 359.5 529 367.721 528.248 378.411 535.624 378 547 379.681 555.835 369.49 565.578 359.5 565 349.151 565.431 342.412 555.705 341 547Z" stroke="#000000" stroke-width="2" stroke-miterlimit="8" fill="none" fill-rule="evenodd"/><path d="M343 502.5C343.114 491.982 351.966 485.726 361 485 368.998 484.269 379.4 491.44 379 502.5 380.635 511.09 370.72 520.562 361 520 350.931 520.419 344.374 510.963 343 502.5Z" stroke="#000000" stroke-width="2" stroke-miterlimit="8" fill="none" fill-rule="evenodd"/><path d="M341 457.5C341.114 445.873 349.966 438.73 359 438 368.183 437.713 377.524 444.895 377 457.5 378.635 467.19 368.72 477.564 359 477 348.331 479.388 342.994 466.517 341 457.5Z" stroke="#000000" stroke-width="2" stroke-miterlimit="8" fill="none" fill-rule="evenodd"/><path d="M343 594.5C343.114 583.982 351.966 577.726 361 577 368.998 576.269 379.4 583.44 379 594.5 380.635 603.09 370.72 612.562 361 612 350.931 612.419 344.374 602.963 343 594.5Z" stroke="#000000" stroke-width="2" stroke-miterlimit="8" fill="none" fill-rule="evenodd"/><path d="M394 505C394.114 494.181 402.966 487.747 412 487 419.998 486.248 430.4 493.624 430 505 431.635 513.835 421.72 523.578 412 523 401.931 523.431 395.374 513.705 394 505Z" stroke="#000000" stroke-width="2" stroke-miterlimit="8" fill="none" fill-rule="evenodd"/><path d="M394.756 447.967C399.997 438.712 410.847 437.478 419.156 441.227 426.554 444.468 432.207 455.871 426.449 465.467 423.69 473.866 410.331 477.429 402.049 472.208 392.98 467.684 391.829 456.126 394.756 447.967Z" stroke="#000000" stroke-width="2" stroke-miterlimit="8" fill="none" fill-rule="evenodd"/><path d="M136 505C136.114 494.181 144.966 487.747 154 487 161.998 486.248 172.4 493.624 172 505 173.635 513.835 163.72 523.578 154 523 143.931 523.431 137.374 513.705 136 505Z" stroke="#000000" stroke-width="2" stroke-miterlimit="8" fill="none" fill-rule="evenodd"/><path d="M137.254 447.821C142.496 438.566 153.345 437.332 161.654 441.08 169.053 444.322 174.705 455.725 168.947 465.321 166.188 473.719 152.83 477.283 144.548 472.061 135.478 467.537 134.327 455.98 137.254 447.821Z" stroke="#000000" stroke-width="2" stroke-miterlimit="8" fill="none" fill-rule="evenodd"/><path d="M146.628 562.952C135.49 557.341 133.767 546.909 136.382 539.143 138.579 532.469 151.244 527.263 161.385 532.314 170.847 535.004 176.138 548.127 171.632 556.122 168.26 565.231 156.251 567.243 146.628 562.952Z" stroke="#000000" stroke-width="2" stroke-miterlimit="8" fill="none" fill-rule="evenodd"/><path d="M394 548.5C394.114 537.982 402.966 531.726 412 531 419.998 530.269 430.4 537.44 430 548.5 431.635 557.09 421.72 566.562 412 566 401.931 566.419 395.374 556.963 394 548.5Z" stroke="#000000" stroke-width="2" stroke-miterlimit="8" fill="none" fill-rule="evenodd"/><path d="M244.92 158.663C250.161 149.408 261.011 148.174 269.32 151.922 276.718 155.164 282.371 166.567 276.613 176.163 273.854 184.561 260.496 188.125 252.213 182.903 243.144 178.379 241.993 166.822 244.92 158.663Z" stroke="#000000" stroke-width="2" stroke-miterlimit="8" fill="none" fill-rule="evenodd"/><path d="M295 170C295.114 159.181 303.966 152.747 313 152 320.998 151.248 331.4 158.624 331 170 332.635 178.835 322.72 188.578 313 188 302.931 188.431 296.374 178.705 295 170Z" stroke="#000000" stroke-width="2" stroke-miterlimit="8" fill="none" fill-rule="evenodd"/><path d="M254.212 232.275C243.074 226.664 241.351 216.233 243.966 208.467 246.163 201.793 258.828 196.587 268.969 201.638 278.432 204.328 283.722 217.451 279.216 225.446 275.845 234.555 263.835 236.566 254.212 232.275Z" stroke="#000000" stroke-width="2" stroke-miterlimit="8" fill="none" fill-rule="evenodd"/><path d="M294 217C294.114 205.075 302.966 197.748 312 197 321.183 196.706 330.524 204.072 330 217 331.635 226.938 321.72 237.579 312 237 301.331 239.449 295.994 226.248 294 217Z" stroke="#000000" stroke-width="2" stroke-miterlimit="8" fill="none" fill-rule="evenodd"/><path d="M197 216C197.114 205.181 205.966 198.747 215 198 222.998 197.248 233.4 204.624 233 216 234.635 224.835 224.72 234.578 215 234 204.931 234.431 198.374 224.705 197 216Z" stroke="#000000" stroke-width="2" stroke-miterlimit="8" fill="none" fill-rule="evenodd"/><path d="M341 217C341.114 205.075 349.966 197.748 359 197 368.183 196.706 377.524 204.072 377 217 378.635 226.938 368.72 237.579 359 237 348.331 239.449 342.994 226.248 341 217Z" stroke="#000000" stroke-width="2" stroke-miterlimit="8" fill="none" fill-rule="evenodd"/><path d="M907 405C907.114 394.181 915.966 387.747 925 387 932.998 386.248 943.4 393.624 943 405 944.635 413.835 934.72 423.578 925 423 914.931 423.431 908.374 413.705 907 405Z" stroke="#000000" stroke-width="2" stroke-miterlimit="8" fill="none" fill-rule="evenodd"/><path d="M858 496C858.114 485.181 866.966 478.747 876 478 883.998 477.248 894.4 484.624 894 496 895.635 504.835 885.72 514.578 876 514 865.931 514.431 859.374 504.705 858 496Z" stroke="#000000" stroke-width="2" stroke-miterlimit="8" fill="none" fill-rule="evenodd"/><path d="M910 450.5C910.117 438.873 919.215 431.73 928.5 431 937.938 430.713 947.539 437.895 947 450.5 948.681 460.19 938.49 470.564 928.5 470 917.535 472.388 912.05 459.517 910 450.5Z" stroke="#000000" stroke-width="2" stroke-miterlimit="8" fill="none" fill-rule="evenodd"/><path d="M818.508 511.261C808.976 506.542 807.141 495.778 810.422 487.274 813.247 479.707 824.318 473.428 834.219 478.644 842.758 480.932 847.059 494.072 842.306 502.632 838.293 511.939 826.818 513.73 818.508 511.261Z" stroke="#000000" stroke-width="2" stroke-miterlimit="8" fill="none" fill-rule="evenodd"/><path d="M909 495C909.081 484.986 919.95 479.645 929 478 938.182 477.279 949.209 484.862 949 495 950.569 503.328 939.69 512.926 929 512 917.372 513.958 909.424 504.007 909 495Z" stroke="#000000" stroke-width="2" stroke-miterlimit="8" fill="none" fill-rule="evenodd"/><path d="M809.6 440.337C814.841 431.082 825.691 429.848 834 433.597 841.398 436.838 847.051 448.241 841.293 457.837 838.534 466.236 825.176 469.799 816.893 464.578 807.824 460.054 806.673 448.497 809.6 440.337Z" stroke="#000000" stroke-width="2" stroke-miterlimit="8" fill="none" fill-rule="evenodd"/><path d="M859 451.5C859.117 440.982 868.215 434.726 877.5 434 885.721 433.269 896.411 440.44 896 451.5 897.681 460.09 887.49 469.562 877.5 469 867.151 469.419 860.412 459.963 859 451.5Z" stroke="#000000" stroke-width="2" stroke-miterlimit="8" fill="none" fill-rule="evenodd"/><path d="M818.094 422.292C806.955 416.681 805.233 406.249 807.847 398.484 810.045 391.809 822.709 386.603 832.851 391.654 842.313 394.344 847.604 407.468 843.097 415.463 839.726 424.571 827.716 426.583 818.094 422.292Z" stroke="#000000" stroke-width="2" stroke-miterlimit="8" fill="none" fill-rule="evenodd"/><path d="M857 407C857.117 395.075 866.215 387.748 875.5 387 884.938 386.706 894.539 394.072 894 407 895.681 416.938 885.49 427.579 875.5 427 864.535 429.449 859.05 416.248 857 407Z" stroke="#000000" stroke-width="2" stroke-miterlimit="8" fill="none" fill-rule="evenodd"/><path d="M623 480.5C623.114 469.982 631.966 463.726 641 463 648.998 462.269 659.4 469.44 659 480.5 660.635 489.09 650.72 498.562 641 498 630.931 498.419 624.374 488.963 623 480.5Z" stroke="#000000" stroke-width="2" stroke-miterlimit="8" fill="none" fill-rule="evenodd"/><path d="M1190 475.5C1190.11 463.873 1198.97 456.73 1208 456 1217.18 455.713 1226.52 462.895 1226 475.5 1227.64 485.19 1217.72 495.564 1208 495 1197.33 497.388 1191.99 484.517 1190 475.5Z" stroke="#000000" stroke-width="2" stroke-miterlimit="8" fill="none" fill-rule="evenodd"/><path d="M667.294 493.779C672.536 484.524 683.386 483.29 691.694 487.039 699.093 490.28 704.746 501.683 698.987 511.279 696.229 519.677 682.87 523.241 674.588 518.02 665.518 513.496 664.368 501.938 667.294 493.779Z" stroke="#000000" stroke-width="2" stroke-miterlimit="8" fill="none" fill-rule="evenodd"/><path d="M1147 496C1147.11 485.181 1155.97 478.747 1165 478 1173 477.248 1183.4 484.624 1183 496 1184.64 504.835 1174.72 514.578 1165 514 1154.93 514.431 1148.37 504.705 1147 496Z" stroke="#000000" stroke-width="2" stroke-miterlimit="8" fill="none" fill-rule="evenodd"/><path d="M675.788 475.734C664.65 470.123 662.927 459.691 665.542 451.925 667.739 445.251 680.404 440.045 690.545 445.096 700.007 447.786 705.298 460.909 700.792 468.904 697.42 478.013 685.411 480.025 675.788 475.734Z" stroke="#000000" stroke-width="2" stroke-miterlimit="8" fill="none" fill-rule="evenodd"/><path d="M1145 451.5C1145.11 439.873 1153.97 432.73 1163 432 1172.18 431.713 1181.52 438.895 1181 451.5 1182.64 461.19 1172.72 471.564 1163 471 1152.33 473.388 1146.99 460.517 1145 451.5Z" stroke="#000000" stroke-width="2" stroke-miterlimit="8" fill="none" fill-rule="evenodd"/><path d="M911 543.5C911.114 531.873 919.966 524.73 929 524 938.182 523.713 947.524 530.895 947 543.5 948.635 553.19 938.72 563.564 929 563 918.331 565.388 912.994 552.517 911 543.5Z" stroke="#000000" stroke-width="2" stroke-miterlimit="8" fill="none" fill-rule="evenodd"/><path d="M809.6 532.48C814.841 523.225 825.691 521.991 834 525.74 841.398 528.981 847.051 540.384 841.293 549.98 838.534 558.379 825.176 561.942 816.893 556.721 807.824 552.197 806.673 540.639 809.6 532.48Z" stroke="#000000" stroke-width="2" stroke-miterlimit="8" fill="none" fill-rule="evenodd"/><path d="M860 544.5C860.114 533.982 868.966 527.726 878 527 885.998 526.269 896.4 533.44 896 544.5 897.635 553.09 887.72 562.562 878 562 867.931 562.419 861.374 552.963 860 544.5Z" stroke="#000000" stroke-width="2" stroke-miterlimit="8" fill="none" fill-rule="evenodd"/><path d="M962 496C962.114 485.181 970.966 478.747 980 478 987.998 477.248 998.4 484.624 998 496 999.635 504.835 989.72 514.578 980 514 969.931 514.431 963.374 504.705 962 496Z" stroke="#000000" stroke-width="2" stroke-miterlimit="8" fill="none" fill-rule="evenodd"/><path d="M963 451.5C963.117 440.982 972.215 434.726 981.5 434 989.721 433.269 1000.41 440.44 1000 451.5 1001.68 460.09 991.49 469.562 981.5 469 971.151 469.419 964.412 459.963 963 451.5Z" stroke="#000000" stroke-width="2" stroke-miterlimit="8" fill="none" fill-rule="evenodd"/><path d="M961 406.5C961.117 394.873 970.215 387.73 979.5 387 988.938 386.713 998.539 393.895 998 406.5 999.681 416.19 989.49 426.564 979.5 426 968.535 428.388 963.05 415.517 961 406.5Z" stroke="#000000" stroke-width="2" stroke-miterlimit="8" fill="none" fill-rule="evenodd"/><path d="M963 543.5C963.117 532.982 972.215 526.726 981.5 526 989.721 525.269 1000.41 532.44 1000 543.5 1001.68 552.09 991.49 561.562 981.5 561 971.151 561.419 964.412 551.963 963 543.5Z" stroke="#000000" stroke-width="2" stroke-miterlimit="8" fill="none" fill-rule="evenodd"/><path d="M1104 473.5C1104.12 462.982 1113.21 456.726 1122.5 456 1130.72 455.269 1141.41 462.44 1141 473.5 1142.68 482.09 1132.49 491.562 1122.5 491 1112.15 491.419 1105.41 481.963 1104 473.5Z" stroke="#000000" stroke-width="2" stroke-miterlimit="8" fill="none" fill-rule="evenodd"/><path d="M1105.45 416.294C1110.69 407.039 1121.54 405.805 1129.85 409.554 1137.25 412.795 1142.9 424.198 1137.14 433.794 1134.38 442.192 1121.02 445.756 1112.74 440.534 1103.67 436.011 1102.52 424.453 1105.45 416.294Z" stroke="#000000" stroke-width="2" stroke-miterlimit="8" fill="none" fill-rule="evenodd"/><path d="M712 484C712.114 473.181 720.966 466.747 730 466 737.998 465.248 748.4 472.624 748 484 749.635 492.835 739.72 502.578 730 502 719.931 502.431 713.374 492.705 712 484Z" stroke="#000000" stroke-width="2" stroke-miterlimit="8" fill="none" fill-rule="evenodd"/><path d="M712.764 426.958C718.005 417.703 728.855 416.468 737.164 420.217 744.562 423.458 750.215 434.862 744.457 444.457 741.698 452.856 728.339 456.42 720.057 451.198 710.988 446.674 709.837 435.117 712.764 426.958Z" stroke="#000000" stroke-width="2" stroke-miterlimit="8" fill="none" fill-rule="evenodd"/><path d="M722.138 542.088C710.999 536.477 709.277 526.046 711.891 518.28 714.089 511.606 726.753 506.4 736.895 511.451 746.357 514.141 751.648 527.264 747.141 535.259 743.77 544.368 731.76 546.379 722.138 542.088Z" stroke="#000000" stroke-width="2" stroke-miterlimit="8" fill="none" fill-rule="evenodd"/><path d="M1105 517C1105.11 506.181 1113.97 499.747 1123 499 1131 498.248 1141.4 505.624 1141 517 1142.64 525.835 1132.72 535.578 1123 535 1112.93 535.431 1106.37 525.705 1105 517Z" stroke="#000000" stroke-width="2" stroke-miterlimit="8" fill="none" fill-rule="evenodd"/><path d="M856 590.5C856.114 579.982 864.966 573.726 874 573 881.998 572.269 892.4 579.44 892 590.5 893.635 599.09 883.72 608.562 874 608 863.931 608.419 857.374 598.963 856 590.5Z" stroke="#000000" stroke-width="2" stroke-miterlimit="8" fill="none" fill-rule="evenodd"/><path d="M758 545.5C758.114 533.873 766.966 526.73 776 526 785.182 525.713 794.524 532.895 794 545.5 795.635 555.19 785.72 565.564 776 565 765.331 567.388 759.994 554.517 758 545.5Z" stroke="#000000" stroke-width="2" stroke-miterlimit="8" fill="none" fill-rule="evenodd"/><path d="M1015.52 536.183C1020.76 526.928 1031.61 525.694 1039.92 529.442 1047.32 532.684 1052.97 544.087 1047.21 553.683 1044.45 562.081 1031.1 565.645 1022.81 560.423 1013.74 555.899 1012.59 544.342 1015.52 536.183Z" stroke="#000000" stroke-width="2" stroke-miterlimit="8" fill="none" fill-rule="evenodd"/><path d="M1017 587C1017.11 576.181 1025.97 569.747 1035 569 1043 568.248 1053.4 575.624 1053 587 1054.64 595.835 1044.72 605.578 1035 605 1024.93 605.431 1018.37 595.705 1017 587Z" stroke="#000000" stroke-width="2" stroke-miterlimit="8" fill="none" fill-rule="evenodd"/><path d="M1024.01 518.137C1012.88 512.526 1011.15 502.095 1013.77 494.329 1015.96 487.655 1028.63 482.449 1038.77 487.5 1048.23 490.19 1053.52 503.313 1049.02 511.308 1045.65 520.417 1033.64 522.428 1024.01 518.137Z" stroke="#000000" stroke-width="2" stroke-miterlimit="8" fill="none" fill-rule="evenodd"/><path d="M806 592.5C806.117 580.873 815.215 573.73 824.5 573 833.938 572.713 843.539 579.895 843 592.5 844.681 602.19 834.49 612.564 824.5 612 813.535 614.388 808.05 601.517 806 592.5Z" stroke="#000000" stroke-width="2" stroke-miterlimit="8" fill="none" fill-rule="evenodd"/><path d="M1062 452.5C1062.12 441.982 1071.21 435.726 1080.5 435 1088.72 434.269 1099.41 441.44 1099 452.5 1100.68 461.09 1090.49 470.562 1080.5 470 1070.15 470.419 1063.41 460.963 1062 452.5Z" stroke="#000000" stroke-width="2" stroke-miterlimit="8" fill="none" fill-rule="evenodd"/><path d="M908 355.5C908.114 343.873 916.966 336.73 926 336 935.182 335.713 944.524 342.895 944 355.5 945.635 365.19 935.72 375.564 926 375 915.331 377.388 909.994 364.517 908 355.5Z" stroke="#000000" stroke-width="2" stroke-miterlimit="8" fill="none" fill-rule="evenodd"/><path d="M1062 407.5C1062.12 396.982 1071.21 390.726 1080.5 390 1088.72 389.269 1099.41 396.44 1099 407.5 1100.68 416.09 1090.49 425.562 1080.5 425 1070.15 425.419 1063.41 415.963 1062 407.5Z" stroke="#000000" stroke-width="2" stroke-miterlimit="8" fill="none" fill-rule="evenodd"/><path d="M963.955 582.864C969.196 573.609 980.046 572.375 988.355 576.124 995.753 579.365 1001.41 590.768 995.648 600.364 992.889 608.763 979.53 612.326 971.248 607.105 962.179 602.581 961.028 591.023 963.955 582.864Z" stroke="#000000" stroke-width="2" stroke-miterlimit="8" fill="none" fill-rule="evenodd"/><path d="M1012 455C1012.11 444.181 1020.97 437.747 1030 437 1038 436.248 1048.4 443.624 1048 455 1049.64 463.835 1039.72 473.578 1030 473 1019.93 473.431 1013.37 463.705 1012 455Z" stroke="#000000" stroke-width="2" stroke-miterlimit="8" fill="none" fill-rule="evenodd"/><path d="M1012.75 398.091C1018 388.836 1028.85 387.601 1037.15 391.35 1044.55 394.591 1050.21 405.995 1044.45 415.59 1041.69 423.989 1028.33 427.553 1020.05 422.331 1010.98 417.807 1009.83 406.25 1012.75 398.091Z" stroke="#000000" stroke-width="2" stroke-miterlimit="8" fill="none" fill-rule="evenodd"/><path d="M1063 499.5C1063.12 487.873 1072.21 480.73 1081.5 480 1090.94 479.713 1100.54 486.895 1100 499.5 1101.68 509.19 1091.49 519.564 1081.5 519 1070.53 521.388 1065.05 508.517 1063 499.5Z" stroke="#000000" stroke-width="2" stroke-miterlimit="8" fill="none" fill-rule="evenodd"/><path d="M1063 548.5C1063.12 537.982 1072.21 531.726 1081.5 531 1089.72 530.269 1100.41 537.44 1100 548.5 1101.68 557.09 1091.49 566.562 1081.5 566 1071.15 566.419 1064.41 556.963 1063 548.5Z" stroke="#000000" stroke-width="2" stroke-miterlimit="8" fill="none" fill-rule="evenodd"/><path d="M754 456.5C754.114 444.873 762.966 437.73 772 437 781.182 436.713 790.524 443.895 790 456.5 791.635 466.19 781.72 476.564 772 476 761.331 478.388 755.994 465.517 754 456.5Z" stroke="#000000" stroke-width="2" stroke-miterlimit="8" fill="none" fill-rule="evenodd"/><path d="M755 407.5C755.114 396.982 763.966 390.726 773 390 780.998 389.269 791.4 396.44 791 407.5 792.635 416.09 782.72 425.562 773 425 762.931 425.419 756.374 415.963 755 407.5Z" stroke="#000000" stroke-width="2" stroke-miterlimit="8" fill="none" fill-rule="evenodd"/><path d="M758 506C758.114 495.181 766.966 488.747 776 488 783.998 487.248 794.4 494.624 794 506 795.635 514.835 785.72 524.578 776 524 765.931 524.431 759.374 514.705 758 506Z" stroke="#000000" stroke-width="2" stroke-miterlimit="8" fill="none" fill-rule="evenodd"/><text font-family="Calibri,Calibri_MSFontService,sans-serif" font-weight="400" font-size="37" transform="translate(268.511 297)">G</text><text font-family="Calibri,Calibri_MSFontService,sans-serif" font-weight="400" font-size="25" transform="translate(292.011 305)">1</text><text font-family="Calibri,Calibri_MSFontService,sans-serif" font-weight="400" font-size="37" transform="translate(613.807 298)">G</text><text font-family="Calibri,Calibri_MSFontService,sans-serif" font-weight="400" font-size="25" transform="translate(637.307 306)">2</text><text font-family="Calibri,Calibri_MSFontService,sans-serif" font-weight="400" font-size="37" transform="translate(267.147 670)">G</text><text font-family="Calibri,Calibri_MSFontService,sans-serif" font-weight="400" font-size="25" transform="translate(290.647 678)">3</text><text font-family="Calibri,Calibri_MSFontService,sans-serif" font-weight="400" font-size="37" transform="translate(915.263 680)">G</text><text font-family="Calibri,Calibri_MSFontService,sans-serif" font-weight="400" font-size="25" transform="translate(938.763 688)">4</text></g></svg>