<svg width="1280" height="720" xmlns="http://www.w3.org/2000/svg" xmlns:xlink="http://www.w3.org/1999/xlink" overflow="hidden"><g><rect x="0" y="0" width="1280" height="720" fill="#FFFFFF"/><path d="M112 335C124.672 223.316 195.13 141.278 301 146 413.681 128.361 487.559 236.026 490 335 483.1 438.911 404.636 521.373 301 524 206.598 526.611 114.941 418.157 112 335Z" stroke="#000000" stroke-width="2" stroke-miterlimit="8" fill="none" fill-rule="evenodd"/><path d="M565 335C577.672 223.316 648.13 141.278 754 146 866.682 128.361 940.559 236.026 943 335 936.1 438.911 857.636 521.373 754 524 659.598 526.611 567.941 418.157 565 335Z" stroke="#000000" stroke-width="2" stroke-miterlimit="8" fill="none" fill-rule="evenodd"/><path d="M0 0C0.735667 0.000735 1.51967-0.003045 2 0 0.164111 14.5862 3.643 36.0063 2 55.44 0.357 74.8737-1.216 93.0726 2 118.44 5.216 143.807 5.195 154.484 2 181.44-1.195 208.396 4.09133 219.585 2 252-0.0913333 284.415 0.411667 283.939 2 311.22 3.58833 338.501 3.66333 353.551 2 378 1.34111 378.073 0.460333 377.96 0 378-0.587889 350.926 0.999333 336.48 0 307.44-0.999333 278.4-1.71867 270.425 0 255.78 1.71867 241.135 3.19089 220.699 0 192.78-3.19089 164.86 0.287556 136.749 0 122.22-0.287556 107.691 2.11922 72.8452 0 59.22-2.11922 45.5948 2.60489 14.2144 0 0Z" stroke="#000000" stroke-miterlimit="8" fill="none" fill-rule="evenodd" transform="matrix(-1 0 0 1 754.5 146.5)"/><path d="M0 0C0.735667 0.000735 1.51967-0.003045 2 0 0.164111 14.5862 3.643 36.0063 2 55.44 0.357 74.8737-1.216 93.0726 2 118.44 5.216 143.807 5.195 154.484 2 181.44-1.195 208.396 4.09133 219.585 2 252-0.0913333 284.415 0.411667 283.939 2 311.22 3.58833 338.501 3.66333 353.551 2 378 1.34111 378.073 0.460333 377.96 0 378-0.587889 350.926 0.999333 336.48 0 307.44-0.999333 278.4-1.71867 270.425 0 255.78 1.71867 241.135 3.19089 220.699 0 192.78-3.19089 164.86 0.287556 136.749 0 122.22-0.287556 107.691 2.11922 72.8452 0 59.22-2.11922 45.5948 2.60489 14.2144 0 0Z" stroke="#000000" stroke-miterlimit="8" fill="none" fill-rule="evenodd" transform="matrix(-6.12323e-17 -1 -1 6.12323e-17 944.5 333.5)"/><path d="M0 0C0.695118 0.000734908 1.43591-0.00304462 1.88976 0 0.155066 14.5844 3.4422 36.0018 1.88976 55.4331 0.337323 74.8644-1.14898 93.061 1.88976 118.425 4.9285 143.789 4.90866 154.465 1.88976 181.417-1.12913 208.37 3.86583 219.558 1.88976 251.968-0.0862992 284.379 0.388976 283.904 1.88976 311.181 3.39055 338.459 3.46142 353.506 1.88976 377.953 1.26719 378.026 0.434961 377.913 0 377.953-0.555486 350.883 0.944252 336.438 0 307.402-0.944252 278.366-1.62394 270.391 0 255.748 1.62394 241.105 3.01501 220.672 0 192.756-3.01501 164.84 0.271706 136.731 0 122.205-0.271706 107.678 2.00241 72.8361 0 59.2126-2.00241 45.5891 2.46131 14.2126 0 0Z" stroke="#000000" stroke-miterlimit="8" fill="none" fill-rule="evenodd" transform="matrix(0.704985 -0.709223 -0.709223 -0.704985 888.395 468.965)"/><path d="M0 0C0.695118 0.000734908 1.43591-0.00304462 1.88976 0 0.155066 14.5844 3.4422 36.0018 1.88976 55.4331 0.337323 74.8644-1.14898 93.061 1.88976 118.425 4.9285 143.789 4.90866 154.465 1.88976 181.417-1.12913 208.37 3.86583 219.558 1.88976 251.969-0.0862992 284.379 0.388976 283.904 1.88976 311.181 3.39055 338.459 3.46142 353.506 1.88976 377.953 1.26719 378.026 0.434961 377.913 0 377.953-0.555486 350.883 0.944252 336.438 0 307.402-0.944252 278.366-1.62394 270.391 0 255.748 1.62394 241.105 3.01501 220.672 0 192.756-3.01501 164.84 0.271706 136.731 0 122.205-0.271706 107.678 2.00241 72.8361 0 59.2126-2.00241 45.5891 2.46131 14.2126 0 0Z" stroke="#000000" stroke-miterlimit="8" fill="none" fill-rule="evenodd" transform="matrix(0.69477 0.719232 0.719232 -0.69477 620.342 461.74)"/><path d="M0 0C0.695118 0.000734908 1.43591-0.00304462 1.88976 0 0.155066 14.5844 3.4422 36.0018 1.88976 55.4331 0.337323 74.8644-1.14898 93.061 1.88976 118.425 4.9285 143.789 4.90866 154.465 1.88976 181.417-1.12913 208.37 3.86583 219.558 1.88976 251.968-0.0862992 284.379 0.388976 283.904 1.88976 311.181 3.39055 338.459 3.46142 353.506 1.88976 377.953 1.26719 378.026 0.434961 377.913 0 377.953-0.555486 350.883 0.944252 336.438 0 307.402-0.944252 278.366-1.62394 270.391 0 255.748 1.62394 241.105 3.01501 220.672 0 192.756-3.01501 164.84 0.271706 136.731 0 122.205-0.271706 107.678 2.00241 72.8361 0 59.2126-2.00241 45.5891 2.46131 14.2126 0 0Z" stroke="#000000" stroke-miterlimit="8" fill="none" fill-rule="evenodd" transform="matrix(-0.911924 -0.410359 -0.410359 0.911924 831.445 161.07)"/><path d="M0 0C0.695118 0.000734908 1.43591-0.00304462 1.88976 0 0.155066 14.5844 3.4422 36.0018 1.88976 55.4331 0.337323 74.8644-1.14898 93.061 1.88976 118.425 4.9285 143.789 4.90866 154.465 1.88976 181.417-1.12913 208.37 3.86583 219.558 1.88976 251.968-0.0862992 284.379 0.388976 283.904 1.88976 311.181 3.39055 338.459 3.46142 353.506 1.88976 377.953 1.26719 378.026 0.434961 377.913 0 377.953-0.555486 350.883 0.944252 336.438 0 307.402-0.944252 278.366-1.62394 270.391 0 255.748 1.62394 241.105 3.01501 220.672 0 192.756-3.01501 164.84 0.271706 136.731 0 122.205-0.271706 107.678 2.00241 72.8361 0 59.2126-2.00241 45.5891 2.46131 14.2126 0 0Z" stroke="#000000" stroke-miterlimit="8" fill="none" fill-rule="evenodd" transform="matrix(0.410359 -0.911924 -0.911924 -0.410359 926.979 408.424)"/><path d="M0 0C0.695118 0.000734908 1.43591-0.00304462 1.88976 0 0.155066 14.5844 3.4422 36.0018 1.88976 55.4331 0.337323 74.8644-1.14898 93.061 1.88976 118.425 4.9285 143.789 4.90866 154.465 1.88976 181.417-1.12913 208.37 3.86583 219.558 1.88976 251.968-0.0862992 284.379 0.388976 283.904 1.88976 311.181 3.39055 338.459 3.46142 353.506 1.88976 377.953 1.26719 378.026 0.434961 377.913 0 377.953-0.555486 350.883 0.944252 336.438 0 307.402-0.944252 278.366-1.62394 270.391 0 255.748 1.62394 241.105 3.01501 220.672 0 192.756-3.01501 164.84 0.271706 136.731 0 122.205-0.271706 107.678 2.00241 72.8361 0 59.2126-2.00241 45.5891 2.46131 14.2126 0 0Z" stroke="#000000" stroke-miterlimit="8" fill="none" fill-rule="evenodd" transform="matrix(0.933928 -0.35746 -0.35746 -0.933928 821.704 509.842)"/><path d="M0 0C0.695118 0.000734908 1.43591-0.00304462 1.88976 0 0.155066 14.5844 3.4422 36.0018 1.88976 55.4331 0.337323 74.8644-1.14898 93.061 1.88976 118.425 4.9285 143.789 4.90866 154.465 1.88976 181.417-1.12913 208.37 3.86583 219.558 1.88976 251.968-0.0862992 284.379 0.388976 283.904 1.88976 311.181 3.39055 338.459 3.46142 353.506 1.88976 377.953 1.26719 378.026 0.434961 377.913 0 377.953-0.555486 350.883 0.944252 336.438 0 307.402-0.944252 278.366-1.62394 270.391 0 255.748 1.62394 241.105 3.01501 220.672 0 192.756-3.01501 164.84 0.271706 136.731 0 122.205-0.271706 107.678 2.00241 72.8361 0 59.2126-2.00241 45.5891 2.46131 14.2126 0 0Z" stroke="#000000" stroke-miterlimit="8" fill="none" fill-rule="evenodd" transform="matrix(0.338434 0.94099 0.94099 -0.338434 578.772 392.136)"/></g></svg>