<svg width="1280" height="720" xmlns="http://www.w3.org/2000/svg" xmlns:xlink="http://www.w3.org/1999/xlink" overflow="hidden"><g><rect x="0" y="0" width="1280" height="720" fill="#FFFFFF"/><path d="M111 286C142.37 284.464 151.854 289.27 181.56 286 211.266 282.73 233.045 286.758 252.12 286 271.195 285.242 302.072 285.606 322.68 286 343.288 286.394 354.233 284.204 381.9 286 409.567 287.796 446.799 286.725 489 286 488.432 310.662 490.555 328.784 489 340.48 487.445 352.176 486.311 369.247 489 394.96 491.689 420.673 489.162 431.037 489 444.9 488.838 458.763 491.513 489.696 489 513 460.779 513.173 441.646 514.323 422.22 513 402.794 511.677 384.156 510.905 359.22 513 334.284 515.095 324.738 513.616 307.56 513 290.382 512.384 268.73 511.147 255.9 513 243.07 514.853 216.965 514.273 204.24 513 191.515 511.727 151.62 517.124 111 513 108.649 487.282 112.675 486.259 111 460.79 109.325 435.321 110.622 427.685 111 399.5 111.378 371.315 111.684 363.88 111 347.29 110.316 330.7 108.695 306.356 111 286Z" stroke="#000000" stroke-width="2" stroke-miterlimit="8" fill="none" fill-rule="evenodd"/><path d="M111.5 286.5C125.5 286.123 141.705 285.984 150.5 286.5 159.296 287.016 178.435 285.944 186.5 286.5 186.541 295.56 185.531 316.099 186.5 326.02 187.469 335.941 187.431 348.231 186.5 362.5 172.398 361.125 160.848 362.692 149.75 362.5 138.652 362.308 124.983 361.094 111.5 362.5 112.299 347.579 111.241 331.952 111.5 322.98 111.759 314.008 110.098 298.396 111.5 286.5Z" stroke="#000000" stroke-miterlimit="8" fill="none" fill-rule="evenodd"/><path d="M186.5 286.5C200.687 286.123 217.107 285.984 226.02 286.5 234.933 287.016 254.328 285.944 262.5 286.5 262.542 295.56 261.518 316.099 262.5 326.02 263.482 335.941 263.443 348.231 262.5 362.5 248.21 361.125 236.506 362.692 225.26 362.5 214.014 362.308 200.162 361.094 186.5 362.5 187.31 347.579 186.238 331.952 186.5 322.98 186.762 314.008 185.079 298.396 186.5 286.5Z" stroke="#000000" stroke-miterlimit="8" fill="none" fill-rule="evenodd"/><path d="M262.5 286.5C276.5 286.123 292.705 285.984 301.5 286.5 310.296 287.016 329.435 285.944 337.5 286.5 337.541 295.56 336.531 316.099 337.5 326.02 338.469 335.941 338.431 348.231 337.5 362.5 323.398 361.125 311.848 362.692 300.75 362.5 289.652 362.308 275.983 361.094 262.5 362.5 263.299 347.579 262.241 331.952 262.5 322.98 262.759 314.008 261.098 298.396 262.5 286.5Z" stroke="#000000" stroke-miterlimit="8" fill="none" fill-rule="evenodd"/><path d="M337.5 286.5C351.687 286.123 368.107 285.984 377.02 286.5 385.933 287.016 405.328 285.944 413.5 286.5 413.542 295.56 412.518 316.099 413.5 326.02 414.482 335.941 414.443 348.231 413.5 362.5 399.21 361.125 387.506 362.692 376.26 362.5 365.014 362.308 351.162 361.094 337.5 362.5 338.31 347.579 337.238 331.952 337.5 322.98 337.762 314.008 336.079 298.396 337.5 286.5Z" stroke="#000000" stroke-miterlimit="8" fill="none" fill-rule="evenodd"/><path d="M413.5 286.5C427.687 286.123 444.107 285.984 453.02 286.5 461.933 287.016 481.328 285.944 489.5 286.5 489.542 295.56 488.518 316.099 489.5 326.02 490.482 335.941 490.443 348.231 489.5 362.5 475.21 361.125 463.506 362.692 452.26 362.5 441.014 362.308 427.162 361.094 413.5 362.5 414.31 347.579 413.238 331.952 413.5 322.98 413.762 314.008 412.079 298.396 413.5 286.5Z" stroke="#000000" stroke-miterlimit="8" fill="none" fill-rule="evenodd"/><path d="M111.5 362.5C125.5 362.128 141.705 361.991 150.5 362.5 159.296 363.009 178.435 361.951 186.5 362.5 186.541 371.441 185.531 391.709 186.5 401.5 187.469 411.291 187.431 423.419 186.5 437.5 172.398 436.143 160.848 437.689 149.75 437.5 138.652 437.311 124.983 436.112 111.5 437.5 112.299 422.775 111.241 407.354 111.5 398.5 111.759 389.646 110.098 374.24 111.5 362.5Z" stroke="#000000" stroke-miterlimit="8" fill="none" fill-rule="evenodd"/><path d="M186.5 362.5C200.687 362.128 217.107 361.991 226.02 362.5 234.933 363.009 254.328 361.951 262.5 362.5 262.542 371.441 261.518 391.709 262.5 401.5 263.482 411.291 263.443 423.419 262.5 437.5 248.21 436.143 236.506 437.689 225.26 437.5 214.014 437.311 200.162 436.112 186.5 437.5 187.31 422.775 186.238 407.354 186.5 398.5 186.762 389.646 185.079 374.24 186.5 362.5Z" stroke="#000000" stroke-miterlimit="8" fill="none" fill-rule="evenodd"/><path d="M262.5 362.5C276.5 362.128 292.705 361.991 301.5 362.5 310.296 363.009 329.435 361.951 337.5 362.5 337.541 371.441 336.531 391.709 337.5 401.5 338.469 411.291 338.431 423.419 337.5 437.5 323.398 436.143 311.848 437.689 300.75 437.5 289.652 437.311 275.983 436.112 262.5 437.5 263.299 422.775 262.241 407.354 262.5 398.5 262.759 389.646 261.098 374.24 262.5 362.5Z" stroke="#000000" stroke-miterlimit="8" fill="none" fill-rule="evenodd"/><path d="M337.5 362.5C351.687 362.128 368.107 361.991 377.02 362.5 385.933 363.009 405.328 361.951 413.5 362.5 413.542 371.441 412.518 391.709 413.5 401.5 414.482 411.291 414.443 423.419 413.5 437.5 399.21 436.143 387.506 437.689 376.26 437.5 365.014 437.311 351.162 436.112 337.5 437.5 338.31 422.775 337.238 407.354 337.5 398.5 337.762 389.646 336.079 374.24 337.5 362.5Z" stroke="#000000" stroke-miterlimit="8" fill="none" fill-rule="evenodd"/><path d="M413.5 362.5C427.687 362.128 444.107 361.991 453.02 362.5 461.933 363.009 481.328 361.951 489.5 362.5 489.542 371.441 488.518 391.709 489.5 401.5 490.482 411.291 490.443 423.419 489.5 437.5 475.21 436.143 463.506 437.689 452.26 437.5 441.014 437.311 427.162 436.112 413.5 437.5 414.31 422.775 413.238 407.354 413.5 398.5 413.762 389.646 412.079 374.24 413.5 362.5Z" stroke="#000000" stroke-miterlimit="8" fill="none" fill-rule="evenodd"/><path d="M111.5 437.5C125.5 437.123 141.705 436.984 150.5 437.5 159.296 438.016 178.435 436.944 186.5 437.5 186.541 446.56 185.531 467.099 186.5 477.02 187.469 486.941 187.431 499.231 186.5 513.5 172.398 512.125 160.848 513.692 149.75 513.5 138.652 513.308 124.983 512.094 111.5 513.5 112.299 498.579 111.241 482.952 111.5 473.98 111.759 465.008 110.098 449.396 111.5 437.5Z" stroke="#000000" stroke-miterlimit="8" fill="none" fill-rule="evenodd"/><path d="M186.5 437.5C200.687 437.123 217.107 436.984 226.02 437.5 234.933 438.016 254.328 436.944 262.5 437.5 262.542 446.56 261.518 467.099 262.5 477.02 263.482 486.941 263.443 499.231 262.5 513.5 248.21 512.125 236.506 513.692 225.26 513.5 214.014 513.308 200.162 512.094 186.5 513.5 187.31 498.579 186.238 482.952 186.5 473.98 186.762 465.008 185.079 449.396 186.5 437.5Z" stroke="#000000" stroke-miterlimit="8" fill="none" fill-rule="evenodd"/><path d="M262.5 437.5C276.5 437.123 292.705 436.984 301.5 437.5 310.296 438.016 329.435 436.944 337.5 437.5 337.541 446.56 336.531 467.099 337.5 477.02 338.469 486.941 338.431 499.231 337.5 513.5 323.398 512.125 311.848 513.692 300.75 513.5 289.652 513.308 275.983 512.094 262.5 513.5 263.299 498.579 262.241 482.952 262.5 473.98 262.759 465.008 261.098 449.396 262.5 437.5Z" stroke="#000000" stroke-miterlimit="8" fill="none" fill-rule="evenodd"/><path d="M337.5 437.5C351.687 437.123 368.107 436.984 377.02 437.5 385.933 438.016 405.328 436.944 413.5 437.5 413.542 446.56 412.518 467.099 413.5 477.02 414.482 486.941 414.443 499.231 413.5 513.5 399.21 512.125 387.506 513.692 376.26 513.5 365.014 513.308 351.162 512.094 337.5 513.5 338.31 498.579 337.238 482.952 337.5 473.98 337.762 465.008 336.079 449.396 337.5 437.5Z" stroke="#000000" stroke-miterlimit="8" fill="none" fill-rule="evenodd"/><path d="M413.5 437.5C427.687 437.123 444.107 436.984 453.02 437.5 461.933 438.016 481.328 436.944 489.5 437.5 489.542 446.56 488.518 467.099 489.5 477.02 490.482 486.941 490.443 499.231 489.5 513.5 475.21 512.125 463.506 513.692 452.26 513.5 441.014 513.308 427.162 512.094 413.5 513.5 414.31 498.579 413.238 482.952 413.5 473.98 413.762 465.008 412.079 449.396 413.5 437.5Z" stroke="#000000" stroke-miterlimit="8" fill="none" fill-rule="evenodd"/><path d="M564 286C603.618 284.595 627.893 283.32 643.893 286 659.893 288.68 689.16 287.934 723.787 286 758.413 284.066 776.271 285.983 803.68 286 831.089 286.017 854.082 286.507 870.733 286 887.385 285.493 941.409 286.58 992 286 991.432 310.662 993.554 328.784 992 340.48 990.446 352.176 989.312 369.247 992 394.96 994.688 420.673 992.162 431.037 992 444.9 991.838 458.763 994.512 489.696 992 513 970.288 510.978 943.229 510.389 916.387 513 889.544 515.611 874.052 509.527 845.053 513 816.055 516.473 812.022 512.399 786.56 513 761.098 513.601 749.921 511.057 728.067 513 706.212 514.943 685.939 512.29 669.573 513 653.207 513.71 604.67 517.745 564 513 561.651 487.282 565.673 486.259 564 460.79 562.327 435.321 563.622 427.685 564 399.5 564.378 371.315 564.683 363.88 564 347.29 563.317 330.7 561.697 306.356 564 286Z" stroke="#000000" stroke-width="2" stroke-miterlimit="8" fill="none" fill-rule="evenodd"/><path d="M564.5 286.5C578.687 286.123 595.107 285.984 604.02 286.5 612.933 287.016 632.328 285.944 640.5 286.5 640.542 295.56 639.518 316.099 640.5 326.02 641.482 335.941 641.443 348.231 640.5 362.5 626.21 361.125 614.506 362.692 603.26 362.5 592.014 362.308 578.162 361.094 564.5 362.5 565.31 347.579 564.238 331.952 564.5 322.98 564.762 314.008 563.079 298.396 564.5 286.5Z" stroke="#000000" stroke-miterlimit="8" fill="none" fill-rule="evenodd"/><path d="M640.5 286.5C654.5 286.123 670.705 285.984 679.5 286.5 688.296 287.016 707.435 285.944 715.5 286.5 715.541 295.56 714.531 316.099 715.5 326.02 716.469 335.941 716.431 348.231 715.5 362.5 701.398 361.125 689.848 362.692 678.75 362.5 667.652 362.308 653.983 361.094 640.5 362.5 641.299 347.579 640.241 331.952 640.5 322.98 640.759 314.008 639.098 298.396 640.5 286.5Z" stroke="#000000" stroke-miterlimit="8" fill="none" fill-rule="evenodd"/><path d="M715.5 286.5C729.687 286.123 746.107 285.984 755.02 286.5 763.933 287.016 783.328 285.944 791.5 286.5 791.542 295.56 790.518 316.099 791.5 326.02 792.482 335.941 792.443 348.231 791.5 362.5 777.21 361.125 765.506 362.692 754.26 362.5 743.014 362.308 729.162 361.094 715.5 362.5 716.31 347.579 715.238 331.952 715.5 322.98 715.762 314.008 714.079 298.396 715.5 286.5Z" stroke="#000000" stroke-miterlimit="8" fill="none" fill-rule="evenodd"/><path d="M791.5 286.5C805.687 286.123 822.107 285.984 831.02 286.5 839.933 287.016 859.328 285.944 867.5 286.5 867.542 295.56 866.518 316.099 867.5 326.02 868.482 335.941 868.443 348.231 867.5 362.5 853.21 361.125 841.506 362.692 830.26 362.5 819.014 362.308 805.162 361.094 791.5 362.5 792.31 347.579 791.238 331.952 791.5 322.98 791.762 314.008 790.079 298.396 791.5 286.5Z" stroke="#000000" stroke-miterlimit="8" fill="none" fill-rule="evenodd"/><path d="M867.5 286.5C881.5 286.123 897.705 285.984 906.5 286.5 915.296 287.016 934.435 285.944 942.5 286.5 942.541 295.56 941.531 316.099 942.5 326.02 943.469 335.941 943.431 348.231 942.5 362.5 928.398 361.125 916.848 362.692 905.75 362.5 894.652 362.308 880.983 361.094 867.5 362.5 868.299 347.579 867.241 331.952 867.5 322.98 867.759 314.008 866.098 298.396 867.5 286.5Z" stroke="#000000" stroke-miterlimit="8" fill="none" fill-rule="evenodd"/><path d="M564.5 362.5C578.687 362.128 595.107 361.991 604.02 362.5 612.933 363.009 632.328 361.951 640.5 362.5 640.542 371.441 639.518 391.709 640.5 401.5 641.482 411.291 641.443 423.419 640.5 437.5 626.21 436.143 614.506 437.689 603.26 437.5 592.014 437.311 578.162 436.112 564.5 437.5 565.31 422.775 564.238 407.354 564.5 398.5 564.762 389.646 563.079 374.24 564.5 362.5Z" stroke="#000000" stroke-miterlimit="8" fill="none" fill-rule="evenodd"/><path d="M640.5 362.5C654.5 362.128 670.705 361.991 679.5 362.5 688.296 363.009 707.435 361.951 715.5 362.5 715.541 371.441 714.531 391.709 715.5 401.5 716.469 411.291 716.431 423.419 715.5 437.5 701.398 436.143 689.848 437.689 678.75 437.5 667.652 437.311 653.983 436.112 640.5 437.5 641.299 422.775 640.241 407.354 640.5 398.5 640.759 389.646 639.098 374.24 640.5 362.5Z" stroke="#000000" stroke-miterlimit="8" fill="none" fill-rule="evenodd"/><path d="M715.5 362.5C729.687 362.128 746.107 361.991 755.02 362.5 763.933 363.009 783.328 361.951 791.5 362.5 791.542 371.441 790.518 391.709 791.5 401.5 792.482 411.291 792.443 423.419 791.5 437.5 777.21 436.143 765.506 437.689 754.26 437.5 743.014 437.311 729.162 436.112 715.5 437.5 716.31 422.775 715.238 407.354 715.5 398.5 715.762 389.646 714.079 374.24 715.5 362.5Z" stroke="#000000" stroke-miterlimit="8" fill="none" fill-rule="evenodd"/><path d="M791.5 362.5C805.687 362.128 822.107 361.991 831.02 362.5 839.933 363.009 859.328 361.951 867.5 362.5 867.542 371.441 866.518 391.709 867.5 401.5 868.482 411.291 868.443 423.419 867.5 437.5 853.21 436.143 841.506 437.689 830.26 437.5 819.014 437.311 805.162 436.112 791.5 437.5 792.31 422.775 791.238 407.354 791.5 398.5 791.762 389.646 790.079 374.24 791.5 362.5Z" stroke="#000000" stroke-miterlimit="8" fill="none" fill-rule="evenodd"/><path d="M867.5 362.5C881.5 362.128 897.705 361.991 906.5 362.5 915.296 363.009 934.435 361.951 942.5 362.5 942.541 371.441 941.531 391.709 942.5 401.5 943.469 411.291 943.431 423.419 942.5 437.5 928.398 436.143 916.848 437.689 905.75 437.5 894.652 437.311 880.983 436.112 867.5 437.5 868.299 422.775 867.241 407.354 867.5 398.5 867.759 389.646 866.098 374.24 867.5 362.5Z" stroke="#000000" stroke-miterlimit="8" fill="none" fill-rule="evenodd"/><path d="M564.5 437.5C578.687 437.123 595.107 436.984 604.02 437.5 612.933 438.016 632.328 436.944 640.5 437.5 640.542 446.56 639.518 467.099 640.5 477.02 641.482 486.941 641.443 499.231 640.5 513.5 626.21 512.125 614.506 513.692 603.26 513.5 592.014 513.308 578.162 512.094 564.5 513.5 565.31 498.579 564.238 482.952 564.5 473.98 564.762 465.008 563.079 449.396 564.5 437.5Z" stroke="#000000" stroke-miterlimit="8" fill="none" fill-rule="evenodd"/><path d="M640.5 437.5C654.5 437.123 670.705 436.984 679.5 437.5 688.296 438.016 707.435 436.944 715.5 437.5 715.541 446.56 714.531 467.099 715.5 477.02 716.469 486.941 716.431 499.231 715.5 513.5 701.398 512.125 689.848 513.692 678.75 513.5 667.652 513.308 653.983 512.094 640.5 513.5 641.299 498.579 640.241 482.952 640.5 473.98 640.759 465.008 639.098 449.396 640.5 437.5Z" stroke="#000000" stroke-miterlimit="8" fill="none" fill-rule="evenodd"/><path d="M715.5 437.5C729.687 437.123 746.107 436.984 755.02 437.5 763.933 438.016 783.328 436.944 791.5 437.5 791.542 446.56 790.518 467.099 791.5 477.02 792.482 486.941 792.443 499.231 791.5 513.5 777.21 512.125 765.506 513.692 754.26 513.5 743.014 513.308 729.162 512.094 715.5 513.5 716.31 498.579 715.238 482.952 715.5 473.98 715.762 465.008 714.079 449.396 715.5 437.5Z" stroke="#000000" stroke-miterlimit="8" fill="none" fill-rule="evenodd"/><path d="M791.5 437.5C805.687 437.123 822.107 436.984 831.02 437.5 839.933 438.016 859.328 436.944 867.5 437.5 867.542 446.56 866.518 467.099 867.5 477.02 868.482 486.941 868.443 499.231 867.5 513.5 853.21 512.125 841.506 513.692 830.26 513.5 819.014 513.308 805.162 512.094 791.5 513.5 792.31 498.579 791.238 482.952 791.5 473.98 791.762 465.008 790.079 449.396 791.5 437.5Z" stroke="#000000" stroke-miterlimit="8" fill="none" fill-rule="evenodd"/><path d="M867.5 437.5C881.5 437.123 897.705 436.984 906.5 437.5 915.296 438.016 934.435 436.944 942.5 437.5 942.541 446.56 941.531 467.099 942.5 477.02 943.469 486.941 943.431 499.231 942.5 513.5 928.398 512.125 916.848 513.692 905.75 513.5 894.652 513.308 880.983 512.094 867.5 513.5 868.299 498.579 867.241 482.952 867.5 473.98 867.759 465.008 866.098 449.396 867.5 437.5Z" stroke="#000000" stroke-miterlimit="8" fill="none" fill-rule="evenodd"/><path d="M942.5 286.5C961.25 285.002 976.46 284.065 992.5 286.5 991.396 301.039 992.824 312.835 992.5 326.02 992.176 339.205 991.98 344.929 992.5 362.5 978.882 363.88 966.117 364.145 942.5 362.5 944.002 349.732 943.959 343.491 942.5 324.5 941.041 305.51 944.279 298.625 942.5 286.5Z" stroke="#000000" stroke-miterlimit="8" stroke-dasharray="4 3" fill="none" fill-rule="evenodd"/><path d="M942.5 362.5C961.25 361.022 976.46 360.097 992.5 362.5 991.396 376.847 992.824 388.488 992.5 401.5 992.176 414.512 991.98 420.16 992.5 437.5 978.882 438.862 966.117 439.124 942.5 437.5 944.002 424.9 943.959 418.741 942.5 400 941.041 381.259 944.279 374.465 942.5 362.5Z" stroke="#000000" stroke-miterlimit="8" stroke-dasharray="4 3" fill="none" fill-rule="evenodd"/><path d="M942.5 437.5C961.625 436.002 977.14 435.065 993.5 437.5 992.374 452.039 993.831 463.835 993.5 477.02 993.169 490.205 992.969 495.929 993.5 513.5 979.61 514.88 966.589 515.145 942.5 513.5 944.032 500.732 943.988 494.491 942.5 475.5 941.012 456.51 944.315 449.625 942.5 437.5Z" stroke="#000000" stroke-miterlimit="8" stroke-dasharray="4 3" fill="none" fill-rule="evenodd"/></g></svg>