<svg width="1280" height="720" xmlns="http://www.w3.org/2000/svg" xmlns:xlink="http://www.w3.org/1999/xlink" overflow="hidden"><g><rect x="0" y="0" width="1280" height="720" fill="#FFFFFF"/><path d="M760.385 219.819C749.247 214.208 747.525 203.776 750.139 196.01 752.337 189.336 765.001 184.13 775.143 189.181 784.605 191.871 789.896 204.994 785.389 212.989 782.018 222.098 770.008 224.11 760.385 219.819Z" fill="#B8D4F0" fill-rule="evenodd"/><path d="M760.385 219.819C750.997 214.999 744.773 205.413 750.139 196.01 756.399 187.422 764.178 184.705 775.143 189.181 783.724 194.546 789.001 205.364 785.389 212.989 783.224 222.496 769.009 222.171 760.385 219.819Z" stroke="#000000" stroke-width="2" stroke-miterlimit="8" fill="none" fill-rule="evenodd"/><path d="M650 285C650.114 274.181 658.966 267.747 668 267 675.998 266.248 686.4 273.624 686 285 687.635 293.835 677.72 303.578 668 303 657.931 303.431 651.374 293.705 650 285Z" fill="#B8D4F0" fill-rule="evenodd"/><path d="M650 285C650.183 275.237 657.479 266.682 668 267 678.18 267.439 685.211 273.927 686 285 684.1 293.635 675.677 302.867 668 303 658.03 303.562 651.473 293.071 650 285Z" stroke="#000000" stroke-width="2" stroke-miterlimit="8" fill="none" fill-rule="evenodd"/><path d="M700 248.5C700.114 237.982 708.966 231.726 718 231 725.998 230.269 736.4 237.44 736 248.5 737.635 257.09 727.72 266.562 718 266 707.931 266.419 701.374 256.963 700 248.5Z" fill="#B8D4F0" fill-rule="evenodd"/><path d="M700 248.5C700.183 239.008 707.479 230.691 718 231 728.18 231.427 735.211 237.735 736 248.5 734.1 256.895 725.677 265.871 718 266 708.03 266.546 701.473 256.347 700 248.5Z" stroke="#000000" stroke-width="2" stroke-miterlimit="8" fill="none" fill-rule="evenodd"/><path d="M937.432 384.357C949.727 382.266 957.302 389.642 959.805 397.445 961.995 404.122 954.888 415.826 943.727 417.776 934.514 421.224 922.47 413.798 921.355 404.688 918.665 395.355 927.14 386.611 937.432 384.357Z" fill="#B8D4F0" fill-rule="evenodd"/><path d="M937.432 384.357C947.849 382.668 958.546 386.693 959.805 397.445 959.86 408.073 955.209 414.875 943.727 417.776 933.637 418.548 922.971 412.97 921.355 404.688 917.457 395.751 929.094 387.579 937.432 384.357Z" stroke="#000000" stroke-width="2" stroke-miterlimit="8" fill="none" fill-rule="evenodd"/><path d="M900 457C900.114 446.181 908.966 439.747 918 439 925.998 438.248 936.4 445.624 936 457 937.635 465.835 927.72 475.578 918 475 907.931 475.431 901.374 465.705 900 457Z" fill="#B8D4F0" fill-rule="evenodd"/><path d="M900 457C900.183 447.237 907.479 438.682 918 439 928.18 439.439 935.211 445.927 936 457 934.1 465.635 925.677 474.867 918 475 908.03 475.562 901.473 465.071 900 457Z" stroke="#000000" stroke-width="2" stroke-miterlimit="8" fill="none" fill-rule="evenodd"/><path d="M900 254.5C900.114 243.982 908.966 237.726 918 237 925.998 236.269 936.4 243.44 936 254.5 937.635 263.09 927.72 272.562 918 272 907.931 272.419 901.374 262.963 900 254.5Z" fill="#B8D4F0" fill-rule="evenodd"/><path d="M900 254.5C900.183 245.008 907.479 236.691 918 237 928.18 237.427 935.211 243.735 936 254.5 934.1 262.895 925.677 271.871 918 272 908.03 272.546 901.473 262.347 900 254.5Z" stroke="#000000" stroke-width="2" stroke-miterlimit="8" fill="none" fill-rule="evenodd"/><path d="M863.785 192.302C876.081 190.211 883.656 197.587 886.158 205.39 888.348 212.066 881.241 223.77 870.081 225.72 860.867 229.168 848.823 221.742 847.708 212.632 845.018 203.3 853.493 194.556 863.785 192.302Z" fill="#B8D4F0" fill-rule="evenodd"/><path d="M863.785 192.302C874.202 190.613 884.9 194.637 886.158 205.39 886.213 216.018 881.562 222.819 870.081 225.72 859.99 226.492 849.324 220.914 847.708 212.632 843.811 203.695 855.447 195.524 863.785 192.302Z" stroke="#000000" stroke-width="2" stroke-miterlimit="8" fill="none" fill-rule="evenodd"/><path d="M947.291 364.089C937.759 359.37 935.924 348.606 939.205 340.102 942.03 332.534 953.101 326.256 963.002 331.472 971.541 333.76 975.842 346.899 971.089 355.459 967.076 364.766 955.601 366.558 947.291 364.089Z" fill="#B8D4F0" fill-rule="evenodd"/><path d="M947.291 364.089C938.724 359.758 934.332 349.498 939.205 340.102 944.036 331.066 952.851 327.464 963.002 331.472 969.821 336.877 974.321 348.446 971.089 355.459 967.236 364.732 955.082 366.197 947.291 364.089Z" stroke="#000000" stroke-width="2" stroke-miterlimit="8" fill="none" fill-rule="evenodd"/><path d="M964.747 312.765C955.215 308.047 953.38 297.282 956.661 288.778 959.486 281.211 970.557 274.933 980.458 280.148 988.997 282.436 993.298 295.576 988.545 304.136 984.532 313.443 973.057 315.234 964.747 312.765Z" fill="#B8D4F0" fill-rule="evenodd"/><path d="M964.747 312.765C956.18 308.434 951.788 298.175 956.661 288.778 961.492 279.742 970.307 276.14 980.458 280.148 987.277 285.553 991.777 297.123 988.545 304.136 984.692 313.408 972.538 314.874 964.747 312.765Z" stroke="#000000" stroke-width="2" stroke-miterlimit="8" fill="none" fill-rule="evenodd"/><path d="M799 173.5C799.081 163.78 809.95 158.597 819 157 828.182 156.3 839.209 163.66 839 173.5 840.569 181.583 829.69 190.899 819 190 807.372 191.9 799.424 182.243 799 173.5Z" fill="#B8D4F0" fill-rule="evenodd"/><path d="M799 173.5C800.382 165.689 807.485 156.75 819 157 830.182 157.243 838.292 163.402 839 173.5 838.637 182.371 827.766 189.87 819 190 807.856 191.87 800.154 181.19 799 173.5Z" stroke="#000000" stroke-width="2" stroke-miterlimit="8" fill="none" fill-rule="evenodd"/><path d="M831 296.5C831.114 285.982 839.966 279.726 849 279 856.998 278.269 867.4 285.44 867 296.5 868.635 305.09 858.72 314.562 849 314 838.931 314.419 832.374 304.963 831 296.5Z" stroke="#000000" stroke-width="2" stroke-miterlimit="8" fill="none" fill-rule="evenodd"/><path d="M668 341.5C668.081 331.78 678.95 326.597 688 325 697.182 324.3 708.209 331.66 708 341.5 709.569 349.583 698.69 358.899 688 358 676.372 359.9 668.424 350.243 668 341.5Z" stroke="#000000" stroke-width="2" stroke-miterlimit="8" fill="none" fill-rule="evenodd"/><path d="M788.414 242.934C800.709 240.843 808.284 248.219 810.786 256.022 812.976 262.699 805.869 274.402 794.709 276.353 785.496 279.8 773.451 272.375 772.336 263.265 769.646 253.932 778.121 245.188 788.414 242.934Z" stroke="#000000" stroke-width="2" stroke-miterlimit="8" fill="none" fill-rule="evenodd"/><path d="M733.731 316.145C724.199 311.426 722.363 300.661 725.644 292.157 728.469 284.59 739.541 278.312 749.442 283.528 757.98 285.815 762.281 298.955 757.528 307.515 753.516 316.822 742.04 318.613 733.731 316.145Z" stroke="#000000" stroke-width="2" stroke-miterlimit="8" fill="none" fill-rule="evenodd"/><path d="M855 398.5C855.081 388.78 865.95 383.597 875 382 884.182 381.3 895.209 388.66 895 398.5 896.569 406.583 885.69 415.899 875 415 863.372 416.9 855.424 407.243 855 398.5Z" stroke="#000000" stroke-width="2" stroke-miterlimit="8" fill="none" fill-rule="evenodd"/><path d="M839 458C839.114 447.181 847.966 440.747 857 440 864.998 439.248 875.4 446.624 875 458 876.635 466.835 866.72 476.578 857 476 846.931 476.431 840.374 466.705 839 458Z" stroke="#000000" stroke-width="2" stroke-miterlimit="8" fill="none" fill-rule="evenodd"/><path d="M886.995 355.121C877.463 350.402 875.628 339.638 878.909 331.134 881.734 323.566 892.805 317.288 902.706 322.504 911.245 324.792 915.546 337.931 910.793 346.491 906.78 355.798 895.305 357.59 886.995 355.121Z" stroke="#000000" stroke-width="2" stroke-miterlimit="8" fill="none" fill-rule="evenodd"/><path d="M783.706 473.337C774.174 468.618 772.339 457.854 775.62 449.349 778.444 441.782 789.516 435.504 799.417 440.72 807.956 443.008 812.257 456.147 807.503 464.707 803.491 474.014 792.015 475.806 783.706 473.337Z" fill="#B8D4F0" fill-rule="evenodd"/><path d="M783.706 473.337C775.139 469.006 770.747 458.746 775.62 449.349 780.451 440.314 789.266 436.712 799.417 440.72 806.236 446.125 810.736 457.694 807.503 464.707 803.65 473.98 791.497 475.445 783.706 473.337Z" stroke="#000000" stroke-width="2" stroke-miterlimit="8" fill="none" fill-rule="evenodd"/><path d="M744 356.5C744.117 345.982 753.215 339.726 762.5 339 770.721 338.269 781.411 345.44 781 356.5 782.681 365.09 772.49 374.562 762.5 374 752.151 374.419 745.412 364.963 744 356.5Z" fill="#B8D4F0" fill-rule="evenodd"/><path d="M744 356.5C744.188 347.008 751.687 338.691 762.5 339 772.963 339.427 780.189 345.735 781 356.5 779.048 364.895 770.391 373.871 762.5 374 752.253 374.546 745.514 364.347 744 356.5Z" stroke="#000000" stroke-width="2" stroke-miterlimit="8" fill="none" fill-rule="evenodd"/><path d="M795 398.5C795.081 388.78 805.95 383.597 815 382 824.182 381.3 835.209 388.66 835 398.5 836.569 406.583 825.69 415.899 815 415 803.372 416.9 795.424 407.243 795 398.5Z" fill="#B8D4F0" fill-rule="evenodd"/><path d="M795 398.5C796.382 390.689 803.485 381.75 815 382 826.182 382.243 834.292 388.402 835 398.5 834.637 407.371 823.766 414.87 815 415 803.856 416.87 796.154 406.19 795 398.5Z" stroke="#000000" stroke-width="2" stroke-miterlimit="8" fill="none" fill-rule="evenodd"/><path d="M708 457C708.114 446.181 716.966 439.747 726 439 733.998 438.248 744.4 445.624 744 457 745.635 465.835 735.72 475.578 726 475 715.931 475.431 709.374 465.705 708 457Z" stroke="#000000" stroke-width="2" stroke-miterlimit="8" fill="none" fill-rule="evenodd"/><path d="M700.429 414.498C690.897 409.779 689.062 399.015 692.343 390.511 695.168 382.944 706.239 376.665 716.14 381.881 724.679 384.169 728.98 397.309 724.227 405.868 720.214 415.175 708.739 416.967 700.429 414.498Z" fill="#B8D4F0" fill-rule="evenodd"/><path d="M700.429 414.498C691.862 410.167 687.47 399.908 692.343 390.511 697.174 381.475 705.989 377.873 716.14 381.881 722.959 387.286 727.459 398.856 724.227 405.868 720.374 415.141 708.22 416.606 700.429 414.498Z" stroke="#000000" stroke-width="2" stroke-miterlimit="8" fill="none" fill-rule="evenodd"/><text font-family="Calibri,Calibri_MSFontService,sans-serif" font-weight="400" font-size="37" transform="translate(807.548 536)">P</text><text font-family="Calibri,Calibri_MSFontService,sans-serif" font-weight="400" font-size="25" transform="translate(826.881 544)">4</text><path d="M221.823 219.819C210.684 214.208 208.962 203.776 211.576 196.01 213.774 189.336 226.438 184.13 236.58 189.181 246.042 191.871 251.333 204.994 246.826 212.989 243.455 222.098 231.445 224.11 221.823 219.819Z" fill="#B8D4F0" fill-rule="evenodd"/><path d="M221.823 219.819C212.435 214.999 206.21 205.413 211.576 196.01 217.837 187.422 225.615 184.705 236.58 189.181 245.161 194.546 250.439 205.364 246.826 212.989 244.662 222.496 230.446 222.171 221.823 219.819Z" stroke="#000000" stroke-width="2" stroke-miterlimit="8" fill="none" fill-rule="evenodd"/><path d="M111 285C111.114 274.181 119.966 267.747 129 267 136.998 266.248 147.4 273.624 147 285 148.635 293.835 138.72 303.578 129 303 118.931 303.431 112.374 293.705 111 285Z" fill="#B8D4F0" fill-rule="evenodd"/><path d="M111 285C111.183 275.237 118.479 266.682 129 267 139.18 267.439 146.211 273.927 147 285 145.1 293.635 136.677 302.867 129 303 119.03 303.562 112.473 293.071 111 285Z" stroke="#000000" stroke-width="2" stroke-miterlimit="8" fill="none" fill-rule="evenodd"/><path d="M161 248.5C161.114 237.982 169.966 231.726 179 231 186.998 230.269 197.4 237.44 197 248.5 198.635 257.09 188.72 266.562 179 266 168.931 266.419 162.374 256.963 161 248.5Z" fill="#B8D4F0" fill-rule="evenodd"/><path d="M161 248.5C161.183 239.008 168.479 230.691 179 231 189.18 231.427 196.211 237.735 197 248.5 195.1 256.895 186.677 265.871 179 266 169.03 266.546 162.473 256.347 161 248.5Z" stroke="#000000" stroke-width="2" stroke-miterlimit="8" fill="none" fill-rule="evenodd"/><path d="M398.869 384.357C411.164 382.266 418.739 389.642 421.242 397.445 423.432 404.122 416.325 415.826 405.164 417.776 395.951 421.224 383.907 413.798 382.792 404.688 380.102 395.355 388.577 386.611 398.869 384.357Z" fill="#B8D4F0" fill-rule="evenodd"/><path d="M398.869 384.357C409.286 382.668 419.984 386.693 421.242 397.445 421.297 408.073 416.646 414.875 405.164 417.776 395.074 418.548 384.408 412.97 382.792 404.688 378.895 395.751 390.531 387.579 398.869 384.357Z" stroke="#000000" stroke-width="2" stroke-miterlimit="8" fill="none" fill-rule="evenodd"/><path d="M362 457C362.114 446.181 370.966 439.747 380 439 387.998 438.248 398.4 445.624 398 457 399.635 465.835 389.72 475.578 380 475 369.931 475.431 363.374 465.705 362 457Z" fill="#B8D4F0" fill-rule="evenodd"/><path d="M362 457C362.183 447.237 369.479 438.682 380 439 390.18 439.439 397.211 445.927 398 457 396.1 465.635 387.677 474.867 380 475 370.03 475.562 363.473 465.071 362 457Z" stroke="#000000" stroke-width="2" stroke-miterlimit="8" fill="none" fill-rule="evenodd"/><path d="M362 254.5C362.114 243.982 370.966 237.726 380 237 387.998 236.269 398.4 243.44 398 254.5 399.635 263.09 389.72 272.562 380 272 369.931 272.419 363.374 262.963 362 254.5Z" fill="#B8D4F0" fill-rule="evenodd"/><path d="M362 254.5C362.183 245.008 369.479 236.691 380 237 390.18 237.427 397.211 243.735 398 254.5 396.1 262.895 387.677 271.871 380 272 370.03 272.546 363.473 262.347 362 254.5Z" stroke="#000000" stroke-width="2" stroke-miterlimit="8" fill="none" fill-rule="evenodd"/><path d="M325.223 192.302C337.518 190.211 345.093 197.587 347.595 205.39 349.785 212.066 342.678 223.77 331.518 225.72 322.305 229.168 310.26 221.742 309.145 212.632 306.455 203.3 314.93 194.556 325.223 192.302Z" fill="#B8D4F0" fill-rule="evenodd"/><path d="M325.223 192.302C335.64 190.613 346.337 194.637 347.595 205.39 347.65 216.018 343 222.819 331.518 225.72 321.427 226.492 310.761 220.914 309.145 212.632 305.248 203.695 316.885 195.524 325.223 192.302Z" stroke="#000000" stroke-width="2" stroke-miterlimit="8" fill="none" fill-rule="evenodd"/><path d="M408.729 364.089C399.196 359.37 397.361 348.606 400.642 340.102 403.467 332.534 414.538 326.256 424.439 331.472 432.978 333.76 437.279 346.899 432.526 355.459 428.513 364.766 417.038 366.558 408.729 364.089Z" fill="#B8D4F0" fill-rule="evenodd"/><path d="M408.729 364.089C400.162 359.758 395.769 349.498 400.642 340.102 405.474 331.066 414.288 327.464 424.439 331.472 431.258 336.877 435.758 348.446 432.526 355.459 428.673 364.732 416.519 366.197 408.729 364.089Z" stroke="#000000" stroke-width="2" stroke-miterlimit="8" fill="none" fill-rule="evenodd"/><path d="M426.185 312.765C416.653 308.047 414.817 297.282 418.098 288.778 420.923 281.211 431.994 274.933 441.895 280.148 450.434 282.436 454.735 295.576 449.982 304.136 445.969 313.443 434.494 315.234 426.185 312.765Z" fill="#B8D4F0" fill-rule="evenodd"/><path d="M426.185 312.765C417.618 308.434 413.225 298.175 418.098 288.778 422.93 279.742 431.744 276.14 441.895 280.148 448.714 285.553 453.214 297.123 449.982 304.136 446.129 313.408 433.975 314.874 426.185 312.765Z" stroke="#000000" stroke-width="2" stroke-miterlimit="8" fill="none" fill-rule="evenodd"/><path d="M260 173.5C260.081 163.78 270.95 158.597 280 157 289.182 156.3 300.209 163.66 300 173.5 301.569 181.583 290.69 190.899 280 190 268.372 191.9 260.424 182.243 260 173.5Z" fill="#B8D4F0" fill-rule="evenodd"/><path d="M260 173.5C261.382 165.689 268.485 156.75 280 157 291.182 157.243 299.292 163.402 300 173.5 299.637 182.371 288.766 189.87 280 190 268.856 191.87 261.154 181.19 260 173.5Z" stroke="#000000" stroke-width="2" stroke-miterlimit="8" fill="none" fill-rule="evenodd"/><path d="M292 296.5C292.114 285.982 300.966 279.726 310 279 317.998 278.269 328.4 285.44 328 296.5 329.635 305.09 319.72 314.562 310 314 299.931 314.419 293.374 304.963 292 296.5Z" stroke="#000000" stroke-width="2" stroke-miterlimit="8" fill="none" fill-rule="evenodd"/><path d="M130 341.5C130.081 331.78 140.95 326.597 150 325 159.182 324.3 170.209 331.66 170 341.5 171.569 349.583 160.69 358.899 150 358 138.372 359.9 130.424 350.243 130 341.5Z" stroke="#000000" stroke-width="2" stroke-miterlimit="8" fill="none" fill-rule="evenodd"/><path d="M249.851 242.934C262.146 240.843 269.721 248.219 272.223 256.022 274.414 262.699 267.307 274.402 256.146 276.353 246.933 279.8 234.888 272.375 233.773 263.265 231.084 253.932 239.558 245.188 249.851 242.934Z" stroke="#000000" stroke-width="2" stroke-miterlimit="8" fill="none" fill-rule="evenodd"/><path d="M195.168 316.145C185.636 311.426 183.801 300.661 187.082 292.157 189.906 284.59 200.978 278.312 210.879 283.528 219.418 285.815 223.719 298.955 218.965 307.515 214.953 316.822 203.477 318.613 195.168 316.145Z" stroke="#000000" stroke-width="2" stroke-miterlimit="8" fill="none" fill-rule="evenodd"/><path d="M316 398.5C316.081 388.78 326.95 383.597 336 382 345.182 381.3 356.209 388.66 356 398.5 357.569 406.583 346.69 415.899 336 415 324.372 416.9 316.424 407.243 316 398.5Z" stroke="#000000" stroke-width="2" stroke-miterlimit="8" fill="none" fill-rule="evenodd"/><path d="M300 458C300.114 447.181 308.966 440.747 318 440 325.998 439.248 336.4 446.624 336 458 337.635 466.835 327.72 476.578 318 476 307.931 476.431 301.374 466.705 300 458Z" stroke="#000000" stroke-width="2" stroke-miterlimit="8" fill="none" fill-rule="evenodd"/><path d="M348.432 355.121C338.9 350.402 337.065 339.638 340.346 331.134 343.171 323.566 354.242 317.288 364.143 322.504 372.682 324.792 376.983 337.931 372.23 346.491 368.217 355.798 356.742 357.59 348.432 355.121Z" stroke="#000000" stroke-width="2" stroke-miterlimit="8" fill="none" fill-rule="evenodd"/><path d="M245.143 473.337C235.611 468.618 233.776 457.854 237.057 449.349 239.882 441.782 250.953 435.504 260.854 440.72 269.393 443.008 273.694 456.147 268.941 464.707 264.928 474.014 253.452 475.806 245.143 473.337Z" fill="#B8D4F0" fill-rule="evenodd"/><path d="M245.143 473.337C236.576 469.006 232.184 458.746 237.057 449.349 241.888 440.314 250.703 436.712 260.854 440.72 267.673 446.125 272.173 457.694 268.941 464.707 265.087 473.98 252.934 475.445 245.143 473.337Z" stroke="#000000" stroke-width="2" stroke-miterlimit="8" fill="none" fill-rule="evenodd"/><path d="M206 356.5C206.114 345.982 214.966 339.726 224 339 231.998 338.269 242.4 345.44 242 356.5 243.635 365.09 233.72 374.562 224 374 213.931 374.419 207.374 364.963 206 356.5Z" fill="#B8D4F0" fill-rule="evenodd"/><path d="M206 356.5C206.183 347.008 213.479 338.691 224 339 234.18 339.427 241.211 345.735 242 356.5 240.1 364.895 231.677 373.871 224 374 214.03 374.546 207.473 364.347 206 356.5Z" stroke="#000000" stroke-width="2" stroke-miterlimit="8" fill="none" fill-rule="evenodd"/><path d="M257 398.5C257.081 388.78 267.95 383.597 277 382 286.182 381.3 297.209 388.66 297 398.5 298.569 406.583 287.69 415.899 277 415 265.372 416.9 257.424 407.243 257 398.5Z" fill="#B8D4F0" fill-rule="evenodd"/><path d="M257 398.5C258.382 390.689 265.485 381.75 277 382 288.182 382.243 296.292 388.402 297 398.5 296.637 407.371 285.766 414.87 277 415 265.856 416.87 258.154 406.19 257 398.5Z" stroke="#000000" stroke-width="2" stroke-miterlimit="8" fill="none" fill-rule="evenodd"/><path d="M170 457C170.114 446.181 178.966 439.747 188 439 195.998 438.248 206.4 445.624 206 457 207.635 465.835 197.72 475.578 188 475 177.931 475.431 171.374 465.705 170 457Z" stroke="#000000" stroke-width="2" stroke-miterlimit="8" fill="none" fill-rule="evenodd"/><path d="M161.867 414.498C152.335 409.779 150.499 399.015 153.78 390.511 156.605 382.944 167.676 376.665 177.577 381.881 186.116 384.169 190.417 397.309 185.664 405.868 181.651 415.175 170.176 416.967 161.867 414.498Z" fill="#B8D4F0" fill-rule="evenodd"/><path d="M161.867 414.498C153.3 410.167 148.907 399.908 153.78 390.511 158.612 381.475 167.426 377.873 177.577 381.881 184.396 387.286 188.896 398.856 185.664 405.868 181.811 415.141 169.657 416.606 161.867 414.498Z" stroke="#000000" stroke-width="2" stroke-miterlimit="8" fill="none" fill-rule="evenodd"/><text font-family="Calibri,Calibri_MSFontService,sans-serif" font-weight="400" font-size="37" transform="translate(268.985 536)">P</text><text font-family="Calibri,Calibri_MSFontService,sans-serif" font-weight="400" font-size="25" transform="translate(288.319 544)">4</text></g></svg>