<svg width="1280" height="720" xmlns="http://www.w3.org/2000/svg" xmlns:xlink="http://www.w3.org/1999/xlink" overflow="hidden"><g><rect x="0" y="0" width="1280" height="720" fill="#FFFFFF"/><path d="M315 174C315.114 163.181 323.966 156.747 333 156 340.998 155.248 351.4 162.624 351 174 352.635 182.835 342.72 192.578 333 192 322.931 192.431 316.374 182.705 315 174Z" stroke="#000000" stroke-width="2" stroke-miterlimit="8" fill="none" fill-rule="evenodd"/><path d="M119.856 194.083C109.253 194.93 102.15 186.636 100.597 177.654 99.1344 169.711 105.409 158.638 116.584 158.028 125.085 155.605 135.524 164.67 135.842 174.456 137.179 184.502 128.253 191.933 119.856 194.083Z" stroke="#000000" stroke-width="2" stroke-miterlimit="8" fill="none" fill-rule="evenodd"/><path d="M636 83C636.114 72.1811 644.966 65.7472 654 65 661.998 64.2485 672.4 71.6236 672 83 673.635 91.8354 663.72 101.578 654 101 643.931 101.431 637.374 91.7049 636 83Z" stroke="#000000" stroke-width="2" stroke-miterlimit="8" fill="none" fill-rule="evenodd"/><path d="M410.44 76.2638C415.681 67.0088 426.531 65.7746 434.84 69.5233 442.238 72.7645 447.891 84.1678 442.133 93.7636 439.374 102.162 426.015 105.726 417.733 100.504 408.664 95.9802 407.513 84.4229 410.44 76.2638Z" stroke="#000000" stroke-width="2" stroke-miterlimit="8" fill="none" fill-rule="evenodd"/><path d="M107.142 514.263C97.1643 510.58 94.1994 500.07 96.5615 491.266 98.5693 483.443 108.914 476.027 119.311 480.165 128.044 481.536 133.712 494.147 129.892 503.162 126.888 512.841 115.666 515.838 107.142 514.263Z" stroke="#000000" stroke-width="2" stroke-miterlimit="8" fill="none" fill-rule="evenodd"/><path d="M368.261 190.432C358.729 185.713 356.893 174.948 360.174 166.444 362.999 158.877 374.07 152.599 383.971 157.815 392.51 160.102 396.811 173.242 392.058 181.802 388.045 191.109 376.57 192.9 368.261 190.432Z" stroke="#000000" stroke-width="2" stroke-miterlimit="8" fill="none" fill-rule="evenodd"/><path d="M360 129C360.114 118.181 368.966 111.747 378 111 385.998 110.248 396.4 117.624 396 129 397.635 137.835 387.72 147.578 378 147 367.931 147.431 361.374 137.705 360 129Z" stroke="#000000" stroke-width="2" stroke-miterlimit="8" fill="none" fill-rule="evenodd"/><path d="M632 172C632.081 161.986 642.95 156.645 652 155 661.182 154.279 672.209 161.862 672 172 673.569 180.328 662.69 189.926 652 189 640.372 190.958 632.424 181.007 632 172Z" stroke="#000000" stroke-width="2" stroke-miterlimit="8" fill="none" fill-rule="evenodd"/><path d="M650.167 112.153C662.462 110.063 670.037 117.439 672.54 125.241 674.73 131.918 667.623 143.622 656.462 145.572 647.249 149.02 635.205 141.594 634.09 132.484 631.4 123.151 639.875 114.408 650.167 112.153Z" stroke="#000000" stroke-width="2" stroke-miterlimit="8" fill="none" fill-rule="evenodd"/><path d="M415.855 145.351C406.323 140.633 404.488 129.868 407.769 121.364 410.593 113.797 421.665 107.519 431.566 112.734 440.105 115.022 444.406 128.162 439.652 136.722 435.64 146.029 424.164 147.82 415.855 145.351Z" stroke="#000000" stroke-width="2" stroke-miterlimit="8" fill="none" fill-rule="evenodd"/><path d="M401 174.5C401.081 164.78 411.95 159.597 421 158 430.182 157.3 441.209 164.66 441 174.5 442.569 182.583 431.69 191.899 421 191 409.372 192.9 401.424 183.243 401 174.5Z" stroke="#000000" stroke-width="2" stroke-miterlimit="8" fill="none" fill-rule="evenodd"/><path d="M644.981 56.5192C633.843 50.9084 632.12 40.4768 634.735 32.711 636.932 26.0367 649.597 20.8308 659.738 25.8818 669.201 28.5718 674.491 41.6949 669.985 49.69 666.614 58.7989 654.604 60.8103 644.981 56.5192Z" stroke="#000000" stroke-width="2" stroke-miterlimit="8" fill="none" fill-rule="evenodd"/><path d="M406 410C406.117 399.181 415.215 392.747 424.5 392 432.721 391.248 443.411 398.624 443 410 444.681 418.835 434.49 428.578 424.5 428 414.151 428.431 407.412 418.705 406 410Z" stroke="#000000" stroke-width="2" stroke-miterlimit="8" fill="none" fill-rule="evenodd"/><path d="M360 499.5C360.114 488.982 368.966 482.726 378 482 385.998 481.269 396.4 488.44 396 499.5 397.635 508.09 387.72 517.562 378 517 367.931 517.419 361.374 507.963 360 499.5Z" stroke="#000000" stroke-width="2" stroke-miterlimit="8" fill="none" fill-rule="evenodd"/><path d="M591 83.5C591.114 72.9817 599.966 66.7264 609 66 616.998 65.2693 627.4 72.4396 627 83.5 628.635 92.09 618.72 101.562 609 101 598.931 101.419 592.374 91.9631 591 83.5Z" stroke="#000000" stroke-width="2" stroke-miterlimit="8" fill="none" fill-rule="evenodd"/><path d="M499 172C499.114 161.181 507.966 154.747 517 154 524.998 153.248 535.4 160.624 535 172 536.635 180.835 526.72 190.578 517 190 506.931 190.431 500.374 180.705 499 172Z" stroke="#000000" stroke-width="2" stroke-miterlimit="8" fill="none" fill-rule="evenodd"/><path d="M552.853 188.168C543.321 183.45 541.485 172.685 544.766 164.181 547.591 156.614 558.663 150.336 568.564 155.552 577.102 157.839 581.404 170.979 576.65 179.539 572.638 188.846 561.162 190.637 552.853 188.168Z" stroke="#000000" stroke-width="2" stroke-miterlimit="8" fill="none" fill-rule="evenodd"/><path d="M543 129.5C543.114 118.982 551.966 112.726 561 112 568.998 111.269 579.4 118.44 579 129.5 580.635 138.09 570.72 147.562 561 147 550.931 147.419 544.374 137.963 543 129.5Z" stroke="#000000" stroke-width="2" stroke-miterlimit="8" fill="none" fill-rule="evenodd"/><path d="M599.11 145.54C589.577 140.821 587.742 130.057 591.023 121.553 593.848 113.985 604.919 107.707 614.82 112.923 623.359 115.211 627.66 128.351 622.907 136.91 618.894 146.217 607.419 148.009 599.11 145.54Z" stroke="#000000" stroke-width="2" stroke-miterlimit="8" fill="none" fill-rule="evenodd"/><path d="M586 171.5C586.081 161.78 596.95 156.597 606 155 615.182 154.3 626.209 161.66 626 171.5 627.569 179.583 616.69 188.899 606 188 594.372 189.9 586.424 180.243 586 171.5Z" stroke="#000000" stroke-width="2" stroke-miterlimit="8" fill="none" fill-rule="evenodd"/><path d="M410 455.5C410.114 443.873 418.966 436.73 428 436 437.183 435.713 446.524 442.895 446 455.5 447.635 465.19 437.72 475.564 428 475 417.331 477.388 411.994 464.517 410 455.5Z" stroke="#000000" stroke-width="2" stroke-miterlimit="8" fill="none" fill-rule="evenodd"/><path d="M317.628 516.317C308.096 511.599 306.26 500.834 309.541 492.33 312.366 484.763 323.438 478.485 333.339 483.7 341.878 485.988 346.178 499.128 341.425 507.688 337.413 516.995 325.937 518.786 317.628 516.317Z" stroke="#000000" stroke-width="2" stroke-miterlimit="8" fill="none" fill-rule="evenodd"/><path d="M408 500C408.081 489.986 418.95 484.645 428 483 437.182 482.279 448.209 489.862 448 500 449.569 508.328 438.69 517.926 428 517 416.372 518.958 408.424 509.007 408 500Z" stroke="#000000" stroke-width="2" stroke-miterlimit="8" fill="none" fill-rule="evenodd"/><path d="M639 503C639.114 492.181 647.966 485.747 657 485 664.998 484.248 675.4 491.624 675 503 676.635 511.835 666.72 521.578 657 521 646.931 521.431 640.374 511.705 639 503Z" stroke="#000000" stroke-width="2" stroke-miterlimit="8" fill="none" fill-rule="evenodd"/><path d="M639 456.5C639.114 444.873 647.966 437.73 657 437 666.182 436.713 675.524 443.895 675 456.5 676.635 466.19 666.72 476.564 657 476 646.331 478.388 640.994 465.517 639 456.5Z" stroke="#000000" stroke-width="2" stroke-miterlimit="8" fill="none" fill-rule="evenodd"/><path d="M639 410.5C639.114 399.982 647.966 393.726 657 393 664.998 392.269 675.4 399.44 675 410.5 676.635 419.09 666.72 428.562 657 428 646.931 428.419 640.374 418.963 639 410.5Z" stroke="#000000" stroke-width="2" stroke-miterlimit="8" fill="none" fill-rule="evenodd"/><path d="M187.501 516.317C177.969 511.599 176.133 500.834 179.414 492.33 182.239 484.763 193.31 478.485 203.211 483.7 211.75 485.988 216.051 499.128 211.298 507.688 207.285 516.995 195.81 518.786 187.501 516.317Z" stroke="#000000" stroke-width="2" stroke-miterlimit="8" fill="none" fill-rule="evenodd"/><path d="M224 499.5C224.081 489.78 234.95 484.597 244 483 253.182 482.3 264.209 489.66 264 499.5 265.569 507.583 254.69 516.899 244 516 232.372 517.9 224.424 508.243 224 499.5Z" stroke="#000000" stroke-width="2" stroke-miterlimit="8" fill="none" fill-rule="evenodd"/><path d="M308.72 445.394C313.961 436.139 324.811 434.904 333.119 438.653 340.518 441.894 346.171 453.298 340.413 462.893 337.654 471.292 324.295 474.856 316.013 469.634 306.943 465.11 305.793 453.553 308.72 445.394Z" stroke="#000000" stroke-width="2" stroke-miterlimit="8" fill="none" fill-rule="evenodd"/><path d="M358 456.5C358.117 445.982 367.215 439.726 376.5 439 384.721 438.269 395.411 445.44 395 456.5 396.681 465.09 386.49 474.562 376.5 474 366.151 474.419 359.412 464.963 358 456.5Z" stroke="#000000" stroke-width="2" stroke-miterlimit="8" fill="none" fill-rule="evenodd"/><path d="M317.213 427.348C306.075 421.737 304.352 411.305 306.967 403.54 309.164 396.865 321.829 391.659 331.97 396.71 341.432 399.401 346.723 412.524 342.217 420.519 338.846 429.628 326.836 431.639 317.213 427.348Z" stroke="#000000" stroke-width="2" stroke-miterlimit="8" fill="none" fill-rule="evenodd"/><path d="M357 412C357.114 400.075 365.966 392.748 375 392 384.183 391.706 393.524 399.072 393 412 394.635 421.938 384.72 432.579 375 432 364.331 434.449 358.994 421.248 357 412Z" stroke="#000000" stroke-width="2" stroke-miterlimit="8" fill="none" fill-rule="evenodd"/><path d="M190 174C190.114 163.181 198.966 156.747 208 156 215.998 155.248 226.4 162.624 226 174 227.635 182.835 217.72 192.578 208 192 197.931 192.431 191.374 182.705 190 174Z" stroke="#000000" stroke-width="2" stroke-miterlimit="8" fill="none" fill-rule="evenodd"/><path d="M243.626 190.432C234.094 185.713 232.258 174.949 235.539 166.444 238.364 158.877 249.435 152.599 259.336 157.815 267.875 160.102 272.176 173.242 267.423 181.802 263.41 191.109 251.935 192.9 243.626 190.432Z" stroke="#000000" stroke-width="2" stroke-miterlimit="8" fill="none" fill-rule="evenodd"/><path d="M233 130.5C233.117 119.982 242.215 113.726 251.5 113 259.721 112.269 270.411 119.44 270 130.5 271.681 139.09 261.49 148.562 251.5 148 241.151 148.419 234.412 138.963 233 130.5Z" stroke="#000000" stroke-width="2" stroke-miterlimit="8" fill="none" fill-rule="evenodd"/><path d="M594 409C594.114 398.181 602.966 391.747 612 391 619.998 390.248 630.4 397.624 630 409 631.635 417.835 621.72 427.578 612 427 601.931 427.431 595.374 417.705 594 409Z" stroke="#000000" stroke-width="2" stroke-miterlimit="8" fill="none" fill-rule="evenodd"/><path d="M228 455C228.114 444.181 236.966 437.747 246 437 253.998 436.248 264.4 443.624 264 455 265.635 463.835 255.72 473.578 246 473 235.931 473.431 229.374 463.705 228 455Z" stroke="#000000" stroke-width="2" stroke-miterlimit="8" fill="none" fill-rule="evenodd"/><path d="M597 454.5C597.114 442.873 605.966 435.73 615 435 624.182 434.713 633.524 441.895 633 454.5 634.635 464.19 624.72 474.564 615 474 604.331 476.388 598.994 463.517 597 454.5Z" stroke="#000000" stroke-width="2" stroke-miterlimit="8" fill="none" fill-rule="evenodd"/><path d="M633 365.5C633.114 354.982 641.966 348.726 651 348 658.998 347.269 669.4 354.44 669 365.5 670.635 374.09 660.72 383.562 651 383 640.931 383.419 634.374 373.963 633 365.5Z" stroke="#000000" stroke-width="2" stroke-miterlimit="8" fill="none" fill-rule="evenodd"/><path d="M185.456 471.927C175.924 467.208 174.089 456.444 177.37 447.939 180.195 440.372 191.266 434.094 201.167 439.31 209.706 441.597 214.007 454.737 209.254 463.297 205.241 472.604 193.766 474.395 185.456 471.927Z" stroke="#000000" stroke-width="2" stroke-miterlimit="8" fill="none" fill-rule="evenodd"/><path d="M593 501.5C593.081 491.78 603.95 486.597 613 485 622.182 484.3 633.209 491.66 633 501.5 634.569 509.583 623.69 518.899 613 518 601.372 519.9 593.424 510.243 593 501.5Z" stroke="#000000" stroke-width="2" stroke-miterlimit="8" fill="none" fill-rule="evenodd"/><path d="M496.192 444.352C501.433 435.097 512.283 433.863 520.592 437.611 527.99 440.853 533.643 452.256 527.885 461.852 525.126 470.25 511.767 473.814 503.485 468.592 494.416 464.068 493.265 452.511 496.192 444.352Z" stroke="#000000" stroke-width="2" stroke-miterlimit="8" fill="none" fill-rule="evenodd"/><path d="M546 455.5C546.114 444.982 554.966 438.726 564 438 571.998 437.269 582.4 444.44 582 455.5 583.635 464.09 573.72 473.562 564 473 553.931 473.419 547.374 463.963 546 455.5Z" stroke="#000000" stroke-width="2" stroke-miterlimit="8" fill="none" fill-rule="evenodd"/><path d="M584 365.5C584.081 355.78 594.95 350.597 604 349 613.182 348.3 624.209 355.66 624 365.5 625.569 373.583 614.69 382.899 604 382 592.372 383.9 584.424 374.243 584 365.5Z" stroke="#000000" stroke-width="2" stroke-miterlimit="8" fill="none" fill-rule="evenodd"/><path d="M504.685 426.306C493.547 420.695 491.825 410.264 494.439 402.498 496.637 395.824 509.301 390.618 519.443 395.669 528.905 398.359 534.196 411.482 529.689 419.477 526.318 428.586 514.308 430.597 504.685 426.306Z" stroke="#000000" stroke-width="2" stroke-miterlimit="8" fill="none" fill-rule="evenodd"/><path d="M544 411C544.114 399.075 552.966 391.748 562 391 571.182 390.706 580.524 398.072 580 411 581.635 420.938 571.72 431.579 562 431 551.331 433.449 545.994 420.248 544 411Z" stroke="#000000" stroke-width="2" stroke-miterlimit="8" fill="none" fill-rule="evenodd"/><path d="M504.665 381.752C495.133 377.033 493.298 366.269 496.579 357.765 499.404 350.198 510.475 343.919 520.376 349.135 528.915 351.423 533.216 364.563 528.463 373.123 524.45 382.43 512.975 384.221 504.665 381.752Z" stroke="#000000" stroke-width="2" stroke-miterlimit="8" fill="none" fill-rule="evenodd"/><path d="M494 501.5C494.114 490.982 502.966 484.726 512 484 519.998 483.269 530.4 490.44 530 501.5 531.635 510.09 521.72 519.562 512 519 501.931 519.419 495.374 509.963 494 501.5Z" stroke="#000000" stroke-width="2" stroke-miterlimit="8" fill="none" fill-rule="evenodd"/><path d="M549.829 517.844C540.297 513.125 538.461 502.361 541.742 493.857 544.567 486.29 555.639 480.011 565.54 485.227 574.079 487.515 578.38 500.655 573.626 509.215 569.614 518.522 558.138 520.313 549.829 517.844Z" stroke="#000000" stroke-width="2" stroke-miterlimit="8" fill="none" fill-rule="evenodd"/><path d="M538 365.5C538.081 355.78 548.95 350.597 558 349 567.182 348.3 578.209 355.66 578 365.5 579.569 373.583 568.69 382.899 558 382 546.372 383.9 538.424 374.243 538 365.5Z" stroke="#000000" stroke-width="2" stroke-miterlimit="8" fill="none" fill-rule="evenodd"/><text font-family="Calibri,Calibri_MSFontService,sans-serif" font-weight="400" font-size="37" transform="translate(103.881 247)">T</text><text font-family="Calibri,Calibri_MSFontService,sans-serif" font-weight="400" font-size="25" transform="translate(122.047 255)">1</text><text font-family="Calibri,Calibri_MSFontService,sans-serif" font-weight="400" font-size="37" transform="translate(216.284 249)">T</text><text font-family="Calibri,Calibri_MSFontService,sans-serif" font-weight="400" font-size="25" transform="translate(234.451 257)">2</text><text font-family="Calibri,Calibri_MSFontService,sans-serif" font-weight="400" font-size="37" transform="translate(363.331 247)">T</text><text font-family="Calibri,Calibri_MSFontService,sans-serif" font-weight="400" font-size="25" transform="translate(381.498 255)">3</text><text font-family="Calibri,Calibri_MSFontService,sans-serif" font-weight="400" font-size="37" transform="translate(586.42 244)">T</text><text font-family="Calibri,Calibri_MSFontService,sans-serif" font-weight="400" font-size="25" transform="translate(604.586 252)">4</text><text font-family="Calibri,Calibri_MSFontService,sans-serif" font-weight="400" font-size="37" transform="translate(99.503 566)">K</text><text font-family="Calibri,Calibri_MSFontService,sans-serif" font-weight="400" font-size="25" transform="translate(118.836 574)">1</text><text font-family="Calibri,Calibri_MSFontService,sans-serif" font-weight="400" font-size="37" transform="translate(205.743 564)">K</text><text font-family="Calibri,Calibri_MSFontService,sans-serif" font-weight="400" font-size="25" transform="translate(225.076 572)">2</text><text font-family="Calibri,Calibri_MSFontService,sans-serif" font-weight="400" font-size="37" transform="translate(357.242 570)">K</text><text font-family="Calibri,Calibri_MSFontService,sans-serif" font-weight="400" font-size="25" transform="translate(376.575 578)">3</text><text font-family="Calibri,Calibri_MSFontService,sans-serif" font-weight="400" font-size="37" transform="translate(575.731 564)">K</text><text font-family="Calibri,Calibri_MSFontService,sans-serif" font-weight="400" font-size="25" transform="translate(595.064 572)">4</text></g></svg>