<svg width="1280" height="720" xmlns="http://www.w3.org/2000/svg" xmlns:xlink="http://www.w3.org/1999/xlink" overflow="hidden"><g><rect x="0" y="0" width="1280" height="720" fill="#FFFFFF"/><path d="M807 399.5C807.114 388.982 815.966 382.726 825 382 832.998 381.269 843.4 388.44 843 399.5 844.635 408.09 834.72 417.562 825 417 814.931 417.419 808.374 407.963 807 399.5Z" stroke="#000000" stroke-width="2" stroke-miterlimit="8" fill="none" fill-rule="evenodd"/><path d="M807 353.5C807.114 341.873 815.966 334.73 825 334 834.182 333.713 843.524 340.895 843 353.5 844.635 363.19 834.72 373.564 825 373 814.331 375.388 808.994 362.517 807 353.5Z" stroke="#000000" stroke-width="2" stroke-miterlimit="8" fill="none" fill-rule="evenodd"/><path d="M807 307.5C807.114 296.982 815.966 290.726 825 290 832.998 289.269 843.4 296.44 843 307.5 844.635 316.09 834.72 325.562 825 325 814.931 325.419 808.374 315.963 807 307.5Z" stroke="#000000" stroke-width="2" stroke-miterlimit="8" fill="none" fill-rule="evenodd"/><path d="M761 306C761.117 295.181 770.215 288.747 779.5 288 787.721 287.248 798.411 294.624 798 306 799.681 314.835 789.49 324.578 779.5 324 769.151 324.431 762.412 314.705 761 306Z" fill="#FBE3D6" fill-rule="evenodd"/><path d="M761 306C761.188 296.237 768.687 287.682 779.5 288 789.963 288.439 797.189 294.927 798 306 796.048 314.635 787.391 323.867 779.5 324 769.253 324.562 762.514 314.071 761 306Z" stroke="#000000" stroke-width="2" stroke-miterlimit="8" fill="none" fill-rule="evenodd"/><path d="M765 351.5C765.114 339.873 773.966 332.73 783 332 792.182 331.713 801.524 338.895 801 351.5 802.635 361.19 792.72 371.564 783 371 772.331 373.388 766.994 360.517 765 351.5Z" fill="#FBE3D6" fill-rule="evenodd"/><path d="M765 351.5C765.183 340.904 772.479 331.69 783 332 793.98 333.866 800.184 339.588 801 351.5 799.1 360.994 790.677 370.87 783 371 773.017 371.801 765.546 361.593 765 351.5Z" stroke="#000000" stroke-width="2" stroke-miterlimit="8" fill="none" fill-rule="evenodd"/><path d="M801 262.5C801.114 251.982 809.966 245.726 819 245 826.998 244.269 837.4 251.44 837 262.5 838.635 271.09 828.72 280.562 819 280 808.931 280.419 802.374 270.963 801 262.5Z" stroke="#000000" stroke-width="2" stroke-miterlimit="8" fill="none" fill-rule="evenodd"/><path d="M760 398.5C760.081 388.78 770.95 383.597 780 382 789.182 381.3 800.209 388.66 800 398.5 801.569 406.583 790.69 415.899 780 415 768.372 416.9 760.424 407.243 760 398.5Z" fill="#FBE3D6" fill-rule="evenodd"/><path d="M760 398.5C761.382 390.689 768.485 381.75 780 382 791.182 382.243 799.292 388.402 800 398.5 799.637 407.371 788.766 414.87 780 415 768.856 416.87 761.154 406.19 760 398.5Z" stroke="#000000" stroke-width="2" stroke-miterlimit="8" fill="none" fill-rule="evenodd"/><path d="M663.897 341.175C669.139 331.92 679.989 330.685 688.297 334.434 695.696 337.675 701.349 349.079 695.59 358.674 692.832 367.073 679.473 370.637 671.191 365.415 662.121 360.891 660.971 349.334 663.897 341.175Z" stroke="#000000" stroke-width="2" stroke-miterlimit="8" fill="none" fill-rule="evenodd"/><path d="M714 352.5C714.114 341.982 722.966 335.726 732 335 739.998 334.269 750.4 341.44 750 352.5 751.635 361.09 741.72 370.562 732 370 721.931 370.419 715.374 360.963 714 352.5Z" stroke="#000000" stroke-width="2" stroke-miterlimit="8" fill="none" fill-rule="evenodd"/><path d="M752 262.5C752.081 252.78 762.95 247.597 772 246 781.182 245.3 792.209 252.66 792 262.5 793.569 270.583 782.69 279.899 772 279 760.372 280.9 752.424 271.243 752 262.5Z" stroke="#000000" stroke-width="2" stroke-miterlimit="8" fill="none" fill-rule="evenodd"/><path d="M672.391 323.129C661.253 317.518 659.53 307.086 662.144 299.321 664.342 292.646 677.007 287.44 687.148 292.491 696.61 295.181 701.901 308.305 697.395 316.3 694.023 325.409 682.014 327.42 672.391 323.129Z" fill="#FBE3D6" fill-rule="evenodd"/><path d="M672.391 323.129C663.003 318.309 656.779 308.723 662.144 299.321 668.405 290.732 676.184 288.015 687.148 292.491 695.729 297.856 701.007 308.674 697.395 316.3 695.23 325.806 681.015 325.481 672.391 323.129Z" stroke="#000000" stroke-width="2" stroke-miterlimit="8" fill="none" fill-rule="evenodd"/><path d="M712 307.5C712.114 295.873 720.966 288.73 730 288 739.182 287.713 748.524 294.895 748 307.5 749.635 317.19 739.72 327.564 730 327 719.331 329.388 713.994 316.517 712 307.5Z" fill="#FBE3D6" fill-rule="evenodd"/><path d="M712 307.5C712.183 296.904 719.479 287.69 730 288 740.98 289.866 747.184 295.588 748 307.5 746.1 316.994 737.677 326.87 730 327 720.017 327.801 712.546 317.593 712 307.5Z" stroke="#000000" stroke-width="2" stroke-miterlimit="8" fill="none" fill-rule="evenodd"/><path d="M672.371 278.575C662.839 273.856 661.003 263.092 664.284 254.588 667.109 247.02 678.181 240.742 688.082 245.958 696.62 248.246 700.922 261.386 696.168 269.945 692.156 279.252 680.68 281.044 672.371 278.575Z" stroke="#000000" stroke-width="2" stroke-miterlimit="8" fill="none" fill-rule="evenodd"/><path d="M661 398.5C661.117 387.982 670.215 381.726 679.5 381 687.721 380.269 698.411 387.44 698 398.5 699.681 407.09 689.49 416.562 679.5 416 669.151 416.419 662.412 406.963 661 398.5Z" fill="#FBE3D6" fill-rule="evenodd"/><path d="M661 398.5C661.188 389.008 668.687 380.691 679.5 381 689.963 381.427 697.189 387.735 698 398.5 696.048 406.895 687.391 415.871 679.5 416 669.253 416.546 662.514 406.347 661 398.5Z" stroke="#000000" stroke-width="2" stroke-miterlimit="8" fill="none" fill-rule="evenodd"/><path d="M717.535 414.667C708.002 409.948 706.167 399.184 709.448 390.68 712.273 383.112 723.344 376.834 733.245 382.05 741.784 384.338 746.085 397.478 741.332 406.037 737.319 415.344 725.844 417.136 717.535 414.667Z" stroke="#000000" stroke-width="2" stroke-miterlimit="8" fill="none" fill-rule="evenodd"/><path d="M706 262.5C706.081 252.78 716.95 247.597 726 246 735.182 245.3 746.209 252.66 746 262.5 747.569 270.583 736.69 279.899 726 279 714.372 280.9 706.424 271.243 706 262.5Z" stroke="#000000" stroke-width="2" stroke-miterlimit="8" fill="none" fill-rule="evenodd"/><text font-family="Calibri,Calibri_MSFontService,sans-serif" font-weight="400" font-size="37" transform="translate(682.195 471)">K</text><text font-family="Calibri,Calibri_MSFontService,sans-serif" font-weight="400" font-size="25" transform="translate(701.528 479)">5</text><text font-family="Calibri,Calibri_MSFontService,sans-serif" font-weight="400" font-size="37" transform="translate(714.195 471)">=</text><text fill="#C04F15" font-family="Calibri,Calibri_MSFontService,sans-serif" font-weight="400" font-size="37" transform="translate(732.861 471)">1</text><text font-family="Calibri,Calibri_MSFontService,sans-serif" font-weight="400" font-size="37" transform="translate(751.861 471)">+3+</text><text fill="#C04F15" font-family="Calibri,Calibri_MSFontService,sans-serif" font-weight="400" font-size="37" transform="translate(808.195 471)">5</text><text font-family="Calibri,Calibri_MSFontService,sans-serif" font-weight="400" font-size="37" transform="translate(827.195 471)">+7+</text><text fill="#C04F15" font-family="Calibri,Calibri_MSFontService,sans-serif" font-weight="400" font-size="37" transform="translate(773.361 515)">9</text><path d="M174 305.5C174.114 294.982 182.966 288.726 192 288 199.998 287.269 210.4 294.44 210 305.5 211.635 314.09 201.72 323.562 192 323 181.931 323.419 175.374 313.963 174 305.5Z" fill="#D9F2D0" fill-rule="evenodd"/><path d="M174 305.5C174.183 296.008 181.479 287.691 192 288 202.18 288.427 209.211 294.735 210 305.5 208.1 313.895 199.677 322.871 192 323 182.03 323.546 175.473 313.347 174 305.5Z" stroke="#000000" stroke-width="2" stroke-miterlimit="8" fill="none" fill-rule="evenodd"/><path d="M171 394.5C171.081 384.78 181.95 379.597 191 378 200.182 377.3 211.209 384.66 211 394.5 212.569 402.583 201.69 411.899 191 411 179.372 412.9 171.424 403.243 171 394.5Z" fill="#D9F2D0" fill-rule="evenodd"/><path d="M171 394.5C172.382 386.689 179.485 377.75 191 378 202.182 378.243 210.292 384.402 211 394.5 210.637 403.371 199.766 410.87 191 411 179.856 412.87 172.154 402.19 171 394.5Z" stroke="#000000" stroke-width="2" stroke-miterlimit="8" fill="none" fill-rule="evenodd"/><path d="M188.451 334.387C200.747 332.296 208.322 339.672 210.824 347.475 213.014 354.151 205.907 365.855 194.747 367.805 185.533 371.253 173.489 363.827 172.374 354.718 169.684 345.385 178.159 336.641 188.451 334.387Z" fill="#D9F2D0" fill-rule="evenodd"/><path d="M188.451 334.387C198.868 332.698 209.566 336.722 210.824 347.475 210.879 358.103 206.229 364.904 194.747 367.805 184.656 368.577 173.99 363 172.374 354.718 168.477 345.78 180.113 337.609 188.451 334.387Z" stroke="#000000" stroke-width="2" stroke-miterlimit="8" fill="none" fill-rule="evenodd"/><path d="M183.266 278.753C172.127 273.142 170.405 262.71 173.019 254.944 175.217 248.27 187.881 243.064 198.023 248.115 207.485 250.805 212.776 263.928 208.269 271.923 204.898 281.032 192.888 283.044 183.266 278.753Z" fill="#D9F2D0" fill-rule="evenodd"/><path d="M183.266 278.753C173.878 273.933 167.653 264.347 173.019 254.944 179.28 246.356 187.058 243.639 198.023 248.115 206.604 253.48 211.882 264.298 208.269 271.923 206.104 281.43 191.889 281.105 183.266 278.753Z" stroke="#000000" stroke-width="2" stroke-miterlimit="8" fill="none" fill-rule="evenodd"/><path d="M129 305.5C129.114 294.982 137.966 288.726 147 288 154.998 287.269 165.4 294.44 165 305.5 166.635 314.09 156.72 323.562 147 323 136.931 323.419 130.374 313.963 129 305.5Z" stroke="#000000" stroke-width="2" stroke-miterlimit="8" fill="none" fill-rule="evenodd"/><path d="M37 394C37.1173 383.181 46.2147 376.747 55.5001 376 63.7205 375.248 74.4114 382.624 74.0001 394 75.6807 402.835 65.4896 412.578 55.5001 412 45.1509 412.431 38.412 402.705 37 394Z" stroke="#000000" stroke-width="2" stroke-miterlimit="8" fill="none" fill-rule="evenodd"/><path d="M91.1373 410.402C81.6052 405.683 79.7697 394.919 83.0507 386.415 85.8756 378.847 96.9469 372.569 106.848 377.785 115.387 380.073 119.688 393.213 114.935 401.772 110.922 411.079 99.4464 412.871 91.1373 410.402Z" fill="#D9F2D0" fill-rule="evenodd"/><path d="M91.1373 410.402C82.5703 406.071 78.1781 395.811 83.0507 386.415 87.8823 377.379 96.6969 373.777 106.848 377.785 113.667 383.19 118.167 394.76 114.935 401.772 111.081 411.045 98.9281 412.51 91.1373 410.402Z" stroke="#000000" stroke-width="2" stroke-miterlimit="8" fill="none" fill-rule="evenodd"/><path d="M81 351.5C81.1141 340.982 89.9656 334.726 99.0001 334 106.998 333.269 117.4 340.44 117 351.5 118.635 360.09 108.72 369.562 99.0001 369 88.9306 369.419 82.3739 359.963 81 351.5Z" fill="#D9F2D0" fill-rule="evenodd"/><path d="M81 351.5C81.1833 342.008 88.4791 333.691 99.0001 334 109.18 334.427 116.211 340.735 117 351.5 115.1 359.895 106.677 368.871 99.0001 369 89.0302 369.546 82.4731 359.347 81 351.5Z" stroke="#000000" stroke-width="2" stroke-miterlimit="8" fill="none" fill-rule="evenodd"/><path d="M137.394 367.774C127.862 363.055 126.026 352.29 129.307 343.786 132.132 336.219 143.204 329.941 153.105 335.157 161.643 337.444 165.944 350.584 161.191 359.144 157.179 368.451 145.703 370.242 137.394 367.774Z" stroke="#000000" stroke-width="2" stroke-miterlimit="8" fill="none" fill-rule="evenodd"/><path d="M124 394C124.081 383.986 134.95 378.645 144 377 153.182 376.279 164.209 383.862 164 394 165.569 402.328 154.69 411.926 144 411 132.372 412.958 124.424 403.007 124 394Z" stroke="#000000" stroke-width="2" stroke-miterlimit="8" fill="none" fill-rule="evenodd"/><text font-family="Calibri,Calibri_MSFontService,sans-serif" font-weight="400" font-size="37" transform="translate(53.0752 467)">T</text><text font-family="Calibri,Calibri_MSFontService,sans-serif" font-weight="400" font-size="25" transform="translate(71.2418 475)">5</text><text font-family="Calibri,Calibri_MSFontService,sans-serif" font-weight="400" font-size="37" transform="translate(83.9085 467)">=1+</text><text fill="#3B7D23" font-family="Calibri,Calibri_MSFontService,sans-serif" font-weight="400" font-size="37" transform="translate(140.242 467)">2</text><text font-family="Calibri,Calibri_MSFontService,sans-serif" font-weight="400" font-size="37" transform="translate(159.242 467)">+3+</text><text fill="#3B7D23" font-family="Calibri,Calibri_MSFontService,sans-serif" font-weight="400" font-size="37" transform="translate(215.575 467)">4</text><text font-family="Calibri,Calibri_MSFontService,sans-serif" font-weight="400" font-size="37" transform="translate(124.995 511)">+5</text><path d="M479 215C479.114 204.181 487.966 197.747 497 197 504.998 196.248 515.4 203.624 515 215 516.635 223.835 506.72 233.578 497 233 486.931 233.431 480.374 223.705 479 215Z" stroke="#000000" stroke-width="2" stroke-miterlimit="8" fill="none" fill-rule="evenodd"/><path d="M441.917 228.707C430.779 223.096 429.056 212.665 431.671 204.899 433.868 198.225 446.533 193.019 456.674 198.07 466.137 200.76 471.427 213.883 466.921 221.878 463.55 230.987 451.54 232.998 441.917 228.707Z" stroke="#000000" stroke-width="2" stroke-miterlimit="8" fill="none" fill-rule="evenodd"/><path d="M384 213.5C384.117 202.982 393.215 196.726 402.5 196 410.721 195.269 421.411 202.44 421 213.5 422.681 222.09 412.49 231.562 402.5 231 392.151 231.419 385.412 221.963 384 213.5Z" stroke="#000000" stroke-width="2" stroke-miterlimit="8" fill="none" fill-rule="evenodd"/><path d="M339 213.5C339.117 202.982 348.215 196.726 357.5 196 365.721 195.269 376.411 202.44 376 213.5 377.681 222.09 367.49 231.562 357.5 231 347.151 231.419 340.412 221.963 339 213.5Z" stroke="#000000" stroke-width="2" stroke-miterlimit="8" fill="none" fill-rule="evenodd"/><path d="M485 396.5C485.114 385.982 493.966 379.726 503 379 510.998 378.269 521.4 385.44 521 396.5 522.635 405.09 512.72 414.562 503 414 492.931 414.419 486.374 404.963 485 396.5Z" stroke="#000000" stroke-width="2" stroke-miterlimit="8" fill="none" fill-rule="evenodd"/><path d="M485 350.5C485.114 338.873 493.966 331.73 503 331 512.182 330.713 521.524 337.895 521 350.5 522.635 360.19 512.72 370.564 503 370 492.331 372.388 486.994 359.517 485 350.5Z" stroke="#000000" stroke-width="2" stroke-miterlimit="8" fill="none" fill-rule="evenodd"/><path d="M485 304.5C485.114 293.982 493.966 287.726 503 287 510.998 286.269 521.4 293.44 521 304.5 522.635 313.09 512.72 322.562 503 322 492.931 322.419 486.374 312.963 485 304.5Z" stroke="#000000" stroke-width="2" stroke-miterlimit="8" fill="none" fill-rule="evenodd"/><path d="M440 302.5C440.114 291.982 448.966 285.726 458 285 465.998 284.269 476.4 291.44 476 302.5 477.635 311.09 467.72 320.562 458 320 447.931 320.419 441.374 310.963 440 302.5Z" fill="#B8D4F0" fill-rule="evenodd"/><path d="M440 302.5C440.183 293.008 447.479 284.691 458 285 468.18 285.427 475.211 291.735 476 302.5 474.1 310.895 465.677 319.871 458 320 448.03 320.546 441.473 310.347 440 302.5Z" stroke="#000000" stroke-width="2" stroke-miterlimit="8" fill="none" fill-rule="evenodd"/><path d="M443 348.5C443.114 336.873 451.966 329.73 461 329 470.183 328.713 479.524 335.895 479 348.5 480.635 358.19 470.72 368.564 461 368 450.331 370.388 444.994 357.517 443 348.5Z" fill="#B8D4F0" fill-rule="evenodd"/><path d="M443 348.5C443.183 337.904 450.479 328.69 461 329 471.98 330.866 478.184 336.588 479 348.5 477.1 357.994 468.677 367.87 461 368 451.017 368.801 443.546 358.593 443 348.5Z" stroke="#000000" stroke-width="2" stroke-miterlimit="8" fill="none" fill-rule="evenodd"/><path d="M479 259.5C479.114 248.982 487.966 242.726 497 242 504.998 241.269 515.4 248.44 515 259.5 516.635 268.09 506.72 277.562 497 277 486.931 277.419 480.374 267.963 479 259.5Z" stroke="#000000" stroke-width="2" stroke-miterlimit="8" fill="none" fill-rule="evenodd"/><path d="M439 395.5C439.081 385.78 449.95 380.597 459 379 468.182 378.3 479.209 385.66 479 395.5 480.569 403.583 469.69 412.899 459 412 447.372 413.9 439.424 404.243 439 395.5Z" fill="#B8D4F0" fill-rule="evenodd"/><path d="M439 395.5C440.382 387.689 447.485 378.75 459 379 470.182 379.243 478.292 385.402 479 395.5 478.637 404.371 467.766 411.87 459 412 447.856 413.87 440.154 403.19 439 395.5Z" stroke="#000000" stroke-width="2" stroke-miterlimit="8" fill="none" fill-rule="evenodd"/><path d="M342.06 338.125C347.301 328.87 358.151 327.636 366.46 331.385 373.858 334.626 379.511 346.029 373.753 355.625 370.994 364.023 357.635 367.587 349.353 362.366 340.284 357.842 339.133 346.284 342.06 338.125Z" fill="#B8D4F0" fill-rule="evenodd"/><path d="M342.06 338.125C346.861 329.812 357.348 325.997 366.46 331.385 375.213 336.711 378.319 345.713 373.753 355.625 367.977 362.133 356.175 365.983 349.353 362.366 340.309 358.003 339.522 345.787 342.06 338.125Z" stroke="#000000" stroke-width="2" stroke-miterlimit="8" fill="none" fill-rule="evenodd"/><path d="M392 349.5C392.114 338.982 400.966 332.726 410 332 417.998 331.269 428.4 338.44 428 349.5 429.635 358.09 419.72 367.562 410 367 399.931 367.419 393.374 357.963 392 349.5Z" stroke="#000000" stroke-width="2" stroke-miterlimit="8" fill="none" fill-rule="evenodd"/><path d="M430 259.5C430.081 249.78 440.95 244.597 450 243 459.182 242.3 470.209 249.66 470 259.5 471.569 267.583 460.69 276.899 450 276 438.372 277.9 430.424 268.243 430 259.5Z" fill="#B8D4F0" fill-rule="evenodd"/><path d="M430 259.5C431.382 251.689 438.485 242.75 450 243 461.182 243.243 469.292 249.402 470 259.5 469.637 268.371 458.766 275.87 450 276 438.856 277.87 431.154 267.19 430 259.5Z" stroke="#000000" stroke-width="2" stroke-miterlimit="8" fill="none" fill-rule="evenodd"/><path d="M350.553 320.08C339.415 314.469 337.692 304.037 340.307 296.271 342.505 289.597 355.169 284.391 365.311 289.442 374.773 292.132 380.064 305.255 375.557 313.25 372.186 322.359 360.176 324.371 350.553 320.08Z" stroke="#000000" stroke-width="2" stroke-miterlimit="8" fill="none" fill-rule="evenodd"/><path d="M390 304.5C390.114 292.873 398.966 285.73 408 285 417.183 284.713 426.524 291.895 426 304.5 427.635 314.19 417.72 324.564 408 324 397.331 326.388 391.994 313.517 390 304.5Z" stroke="#000000" stroke-width="2" stroke-miterlimit="8" fill="none" fill-rule="evenodd"/><path d="M350.533 275.526C341.001 270.807 339.166 260.043 342.447 251.538 345.272 243.971 356.343 237.693 366.244 242.909 374.783 245.197 379.084 258.336 374.331 266.896 370.318 276.203 358.843 277.995 350.533 275.526Z" fill="#B8D4F0" fill-rule="evenodd"/><path d="M350.533 275.526C341.966 271.195 337.574 260.935 342.447 251.538 347.278 242.503 356.093 238.901 366.244 242.909 373.063 248.314 377.563 259.883 374.331 266.896 370.478 276.169 358.324 277.634 350.533 275.526Z" stroke="#000000" stroke-width="2" stroke-miterlimit="8" fill="none" fill-rule="evenodd"/><path d="M340 395.5C340.114 384.982 348.966 378.726 358 378 365.998 377.269 376.4 384.44 376 395.5 377.635 404.09 367.72 413.562 358 413 347.931 413.419 341.374 403.963 340 395.5Z" fill="#B8D4F0" fill-rule="evenodd"/><path d="M340 395.5C340.183 386.008 347.479 377.691 358 378 368.18 378.427 375.211 384.735 376 395.5 374.1 403.895 365.677 412.871 358 413 348.03 413.546 341.473 403.347 340 395.5Z" stroke="#000000" stroke-width="2" stroke-miterlimit="8" fill="none" fill-rule="evenodd"/><path d="M401.392 411.618C391.86 406.899 390.024 396.135 393.305 387.63 396.13 380.063 407.201 373.785 417.102 379.001 425.641 381.288 429.942 394.428 425.189 402.988 421.176 412.295 409.701 414.086 401.392 411.618Z" stroke="#000000" stroke-width="2" stroke-miterlimit="8" fill="none" fill-rule="evenodd"/><path d="M384 259.5C384.081 249.78 394.95 244.597 404 243 413.182 242.3 424.209 249.66 424 259.5 425.569 267.583 414.69 276.899 404 276 392.372 277.9 384.424 268.243 384 259.5Z" fill="#B8D4F0" fill-rule="evenodd"/><path d="M384 259.5C385.382 251.689 392.485 242.75 404 243 415.182 243.243 423.292 249.402 424 259.5 423.637 268.371 412.766 275.87 404 276 392.856 277.87 385.154 267.19 384 259.5Z" stroke="#000000" stroke-width="2" stroke-miterlimit="8" fill="none" fill-rule="evenodd"/><text font-family="Calibri,Calibri_MSFontService,sans-serif" font-weight="400" font-size="37" transform="translate(340.676 474)">R</text><text font-family="Calibri,Calibri_MSFontService,sans-serif" font-weight="400" font-size="25" transform="translate(361.009 482)">4</text><text font-family="Calibri,Calibri_MSFontService,sans-serif" font-weight="400" font-size="37" transform="translate(373.676 474)">=</text><text fill="#2D7FCF" font-family="Calibri,Calibri_MSFontService,sans-serif" font-weight="400" font-size="37" transform="translate(392.342 474)">2</text><text font-family="Calibri,Calibri_MSFontService,sans-serif" font-weight="400" font-size="37" transform="translate(411.342 474)">+4+</text><text fill="#2D7FCF" font-family="Calibri,Calibri_MSFontService,sans-serif" font-weight="400" font-size="37" transform="translate(467.676 474)">6</text><text font-family="Calibri,Calibri_MSFontService,sans-serif" font-weight="400" font-size="37" transform="translate(486.676 474)">+8+</text><text fill="#2D7FCF" font-family="Calibri,Calibri_MSFontService,sans-serif" font-weight="400" font-size="37" transform="translate(543.009 474)">1</text><text fill="#2D7FCF" font-family="Calibri,Calibri_MSFontService,sans-serif" font-weight="400" font-size="37" transform="translate(441.842 518)">0</text><path d="M223 212.5C223.114 201.982 231.966 195.726 241 195 248.998 194.269 259.4 201.44 259 212.5 260.635 221.09 250.72 230.562 241 230 230.931 230.419 224.374 220.963 223 212.5Z" stroke="#000000" stroke-width="2" stroke-miterlimit="8" fill="none" fill-rule="evenodd"/><path d="M223 394C223.114 383.181 231.966 376.747 241 376 248.998 375.248 259.4 382.624 259 394 260.635 402.835 250.72 412.578 241 412 230.931 412.431 224.374 402.705 223 394Z" stroke="#000000" stroke-width="2" stroke-miterlimit="8" fill="none" fill-rule="evenodd"/><path d="M223 348C223.114 336.075 231.966 328.748 241 328 250.183 327.706 259.524 335.072 259 348 260.635 357.938 250.72 368.579 241 368 230.331 370.449 224.994 357.248 223 348Z" stroke="#000000" stroke-width="2" stroke-miterlimit="8" fill="none" fill-rule="evenodd"/><path d="M223 301.5C223.114 290.982 231.966 284.726 241 284 248.998 283.269 259.4 290.44 259 301.5 260.635 310.09 250.72 319.562 241 319 230.931 319.419 224.374 309.963 223 301.5Z" stroke="#000000" stroke-width="2" stroke-miterlimit="8" fill="none" fill-rule="evenodd"/><path d="M223 256.5C223.114 245.982 231.966 239.726 241 239 248.998 238.269 259.4 245.44 259 256.5 260.635 265.09 250.72 274.562 241 274 230.931 274.419 224.374 264.963 223 256.5Z" stroke="#000000" stroke-width="2" stroke-miterlimit="8" fill="none" fill-rule="evenodd"/><path d="M854 308.5C854.114 297.982 862.966 291.726 872 291 879.998 290.269 890.4 297.44 890 308.5 891.635 317.09 881.72 326.562 872 326 861.931 326.419 855.374 316.963 854 308.5Z" fill="#FBE3D6" fill-rule="evenodd"/><path d="M854 308.5C854.183 299.008 861.479 290.691 872 291 882.18 291.427 889.211 297.735 890 308.5 888.1 316.895 879.677 325.871 872 326 862.03 326.546 855.473 316.347 854 308.5Z" stroke="#000000" stroke-width="2" stroke-miterlimit="8" fill="none" fill-rule="evenodd"/><path d="M855 354C855.114 342.075 863.966 334.748 873 334 882.182 333.706 891.524 341.072 891 354 892.635 363.938 882.72 374.579 873 374 862.331 376.449 856.994 363.248 855 354Z" fill="#FBE3D6" fill-rule="evenodd"/><path d="M855 354C855.183 343.132 862.479 333.682 873 334 883.98 335.914 890.184 341.782 891 354 889.1 363.738 880.677 373.867 873 374 863.017 374.822 855.546 364.352 855 354Z" stroke="#000000" stroke-width="2" stroke-miterlimit="8" fill="none" fill-rule="evenodd"/><path d="M850 400.5C850.081 390.78 860.95 385.597 870 384 879.182 383.3 890.209 390.66 890 400.5 891.569 408.583 880.69 417.899 870 417 858.372 418.9 850.424 409.243 850 400.5Z" fill="#FBE3D6" fill-rule="evenodd"/><path d="M850 400.5C851.382 392.689 858.485 383.75 870 384 881.182 384.243 889.292 390.402 890 400.5 889.637 409.371 878.766 416.87 870 417 858.856 418.87 851.154 408.19 850 400.5Z" stroke="#000000" stroke-width="2" stroke-miterlimit="8" fill="none" fill-rule="evenodd"/><path d="M855 217C855.114 205.075 863.966 197.748 873 197 882.182 196.706 891.524 204.072 891 217 892.635 226.938 882.72 237.579 873 237 862.331 239.449 856.994 226.248 855 217Z" fill="#FBE3D6" fill-rule="evenodd"/><path d="M855 217C855.183 206.132 862.479 196.682 873 197 883.98 198.914 890.184 204.782 891 217 889.1 226.738 880.677 236.867 873 237 863.017 237.822 855.546 227.352 855 217Z" stroke="#000000" stroke-width="2" stroke-miterlimit="8" fill="none" fill-rule="evenodd"/><path d="M850 263.5C850.081 253.78 860.95 248.597 870 247 879.182 246.3 890.209 253.66 890 263.5 891.569 271.583 880.69 280.899 870 280 858.372 281.9 850.424 272.243 850 263.5Z" fill="#FBE3D6" fill-rule="evenodd"/><path d="M850 263.5C851.382 255.689 858.485 246.75 870 247 881.182 247.243 889.292 253.402 890 263.5 889.637 272.371 878.766 279.87 870 280 858.856 281.87 851.154 271.19 850 263.5Z" stroke="#000000" stroke-width="2" stroke-miterlimit="8" fill="none" fill-rule="evenodd"/><path d="M803 215C803.114 204.181 811.966 197.747 821 197 828.998 196.248 839.4 203.624 839 215 840.635 223.835 830.72 233.578 821 233 810.931 233.431 804.374 223.705 803 215Z" fill="#FBE3D6" fill-rule="evenodd"/><path d="M803 215C803.183 205.237 810.479 196.682 821 197 831.18 197.439 838.211 203.927 839 215 837.1 223.635 828.677 232.867 821 233 811.03 233.562 804.473 223.071 803 215Z" stroke="#000000" stroke-width="2" stroke-miterlimit="8" fill="none" fill-rule="evenodd"/><path d="M713.958 232.419C702.82 226.809 701.098 216.377 703.712 208.611 705.91 201.937 718.574 196.731 728.716 201.782 738.178 204.472 743.469 217.595 738.962 225.59 735.591 234.699 723.581 236.711 713.958 232.419Z" fill="#FBE3D6" fill-rule="evenodd"/><path d="M713.958 232.419C704.571 227.599 698.346 218.014 703.712 208.611 709.973 200.023 717.751 197.306 728.716 201.782 737.297 207.147 742.574 217.964 738.962 225.59 736.797 235.097 722.582 234.772 713.958 232.419Z" stroke="#000000" stroke-width="2" stroke-miterlimit="8" fill="none" fill-rule="evenodd"/><path d="M753 217C753.114 205.075 761.966 197.748 771 197 780.182 196.706 789.524 204.072 789 217 790.635 226.938 780.72 237.579 771 237 760.331 239.449 754.994 226.248 753 217Z" fill="#FBE3D6" fill-rule="evenodd"/><path d="M753 217C753.183 206.132 760.479 196.682 771 197 781.98 198.914 788.184 204.782 789 217 787.1 226.738 778.677 236.867 771 237 761.017 237.822 753.546 227.352 753 217Z" stroke="#000000" stroke-width="2" stroke-miterlimit="8" fill="none" fill-rule="evenodd"/><path d="M657 215.5C657.081 205.78 667.95 200.597 677 199 686.182 198.3 697.209 205.66 697 215.5 698.569 223.583 687.69 232.899 677 232 665.372 233.9 657.424 224.243 657 215.5Z" fill="#FBE3D6" fill-rule="evenodd"/><path d="M657 215.5C658.382 207.689 665.485 198.75 677 199 688.182 199.243 696.292 205.402 697 215.5 696.637 224.371 685.766 231.87 677 232 665.856 233.87 658.154 223.19 657 215.5Z" stroke="#000000" stroke-width="2" stroke-miterlimit="8" fill="none" fill-rule="evenodd"/><path d="M523 168C523.081 157.986 533.95 152.645 543 151 552.182 150.279 563.209 157.862 563 168 564.569 176.328 553.69 185.926 543 185 531.372 186.958 523.424 177.007 523 168Z" fill="#B8D4F0" fill-rule="evenodd"/><path d="M523 168C524.382 159.952 531.485 150.743 543 151 554.182 151.25 562.292 157.596 563 168 562.637 177.139 551.766 184.866 543 185 531.856 186.926 524.154 175.923 523 168Z" stroke="#000000" stroke-width="2" stroke-miterlimit="8" fill="none" fill-rule="evenodd"/><path d="M443.487 184.223C433.955 179.505 432.12 168.74 435.401 160.236 438.225 152.669 449.297 146.391 459.198 151.606 467.737 153.894 472.038 167.034 467.284 175.594 463.272 184.901 451.796 186.692 443.487 184.223Z" fill="#B8D4F0" fill-rule="evenodd"/><path d="M443.487 184.223C434.92 179.892 430.528 169.633 435.401 160.236 440.232 151.2 449.047 147.598 459.198 151.606 466.017 157.011 470.517 168.581 467.284 175.594 463.431 184.866 451.278 186.332 443.487 184.223Z" stroke="#000000" stroke-width="2" stroke-miterlimit="8" fill="none" fill-rule="evenodd"/><path d="M477 168C477.081 157.986 487.95 152.645 497 151 506.182 150.279 517.209 157.862 517 168 518.569 176.328 507.69 185.926 497 185 485.372 186.958 477.424 177.007 477 168Z" fill="#B8D4F0" fill-rule="evenodd"/><path d="M477 168C478.382 159.952 485.485 150.743 497 151 508.182 151.25 516.292 157.596 517 168 516.637 177.139 505.766 184.866 497 185 485.856 186.926 478.154 175.923 477 168Z" stroke="#000000" stroke-width="2" stroke-miterlimit="8" fill="none" fill-rule="evenodd"/><path d="M527 218.5C527.114 207.982 535.966 201.726 545 201 552.998 200.269 563.4 207.44 563 218.5 564.635 227.09 554.72 236.562 545 236 534.931 236.419 528.374 226.963 527 218.5Z" fill="#B8D4F0" fill-rule="evenodd"/><path d="M527 218.5C527.183 209.008 534.479 200.691 545 201 555.18 201.427 562.211 207.735 563 218.5 561.1 226.895 552.677 235.871 545 236 535.03 236.546 528.473 226.347 527 218.5Z" stroke="#000000" stroke-width="2" stroke-miterlimit="8" fill="none" fill-rule="evenodd"/><path d="M530 397.5C530.114 385.873 538.966 378.73 548 378 557.182 377.713 566.524 384.895 566 397.5 567.635 407.19 557.72 417.564 548 417 537.331 419.388 531.994 406.517 530 397.5Z" fill="#B8D4F0" fill-rule="evenodd"/><path d="M530 397.5C530.183 386.904 537.479 377.69 548 378 558.98 379.866 565.184 385.588 566 397.5 564.1 406.994 555.677 416.87 548 417 538.017 417.801 530.546 407.593 530 397.5Z" stroke="#000000" stroke-width="2" stroke-miterlimit="8" fill="none" fill-rule="evenodd"/><path d="M529 351.5C529.081 341.78 539.95 336.597 549 335 558.182 334.3 569.209 341.66 569 351.5 570.569 359.583 559.69 368.899 549 368 537.372 369.9 529.424 360.243 529 351.5Z" fill="#B8D4F0" fill-rule="evenodd"/><path d="M529 351.5C530.382 343.689 537.485 334.75 549 335 560.182 335.243 568.292 341.402 569 351.5 568.637 360.371 557.766 367.87 549 368 537.856 369.87 530.154 359.19 529 351.5Z" stroke="#000000" stroke-width="2" stroke-miterlimit="8" fill="none" fill-rule="evenodd"/><path d="M531.085 249.841C536.326 240.586 547.176 239.352 555.484 243.1 562.883 246.342 568.536 257.745 562.778 267.341 560.019 275.739 546.66 279.303 538.378 274.081 529.308 269.557 528.158 258 531.085 249.841Z" fill="#B8D4F0" fill-rule="evenodd"/><path d="M531.085 249.841C535.885 241.528 546.373 237.713 555.484 243.1 564.238 248.427 567.344 257.428 562.778 267.341 557.002 273.849 545.2 277.699 538.378 274.081 529.334 269.719 528.547 257.503 531.085 249.841Z" stroke="#000000" stroke-width="2" stroke-miterlimit="8" fill="none" fill-rule="evenodd"/><path d="M529 307C529.114 296.181 537.966 289.747 547 289 554.998 288.248 565.4 295.624 565 307 566.635 315.835 556.72 325.578 547 325 536.931 325.431 530.374 315.705 529 307Z" fill="#B8D4F0" fill-rule="evenodd"/><path d="M529 307C529.183 297.237 536.479 288.682 547 289 557.18 289.439 564.211 295.927 565 307 563.1 315.635 554.677 324.867 547 325 537.03 325.562 530.473 315.071 529 307Z" stroke="#000000" stroke-width="2" stroke-miterlimit="8" fill="none" fill-rule="evenodd"/><path d="M390.166 160.823C395.407 151.568 406.257 150.333 414.566 154.082 421.964 157.323 427.617 168.727 421.859 178.322 419.1 186.721 405.741 190.285 397.459 185.063 388.39 180.539 387.239 168.982 390.166 160.823Z" fill="#B8D4F0" fill-rule="evenodd"/><path d="M390.166 160.823C394.967 152.51 405.454 148.695 414.566 154.082 423.319 159.409 426.425 168.41 421.859 178.322 416.083 184.83 404.281 188.68 397.459 185.063 388.415 180.7 387.628 168.484 390.166 160.823Z" stroke="#000000" stroke-width="2" stroke-miterlimit="8" fill="none" fill-rule="evenodd"/><path d="M339 170C339.114 159.181 347.966 152.747 357 152 364.998 151.248 375.4 158.624 375 170 376.635 178.835 366.72 188.578 357 188 346.931 188.431 340.374 178.705 339 170Z" fill="#B8D4F0" fill-rule="evenodd"/><path d="M339 170C339.183 160.237 346.479 151.682 357 152 367.18 152.439 374.211 158.927 375 170 373.1 178.635 364.677 187.867 357 188 347.03 188.562 340.473 178.071 339 170Z" stroke="#000000" stroke-width="2" stroke-miterlimit="8" fill="none" fill-rule="evenodd"/></g></svg>