<svg width="1280" height="720" xmlns="http://www.w3.org/2000/svg" xmlns:xlink="http://www.w3.org/1999/xlink" overflow="hidden"><g><rect x="0" y="0" width="1280" height="720" fill="#FFFFFF"/><path d="M112.977 396.066C125.226 387.006 147.241 361.036 159.155 348.344 171.068 335.651 183.993 320.358 206.677 299.232 229.361 278.105 232.239 275.694 247.475 257.07 248.396 258.066 250.112 259.386 251.304 260.775 239.096 276.107 221.026 296.139 207.816 305.717 194.607 315.295 173.817 343.492 162.984 352.049 152.15 360.606 133.248 378.975 116.806 399.771 115.667 398.849 114.515 397.8 112.977 396.066Z" fill="#BFBFBF" fill-rule="evenodd"/><path d="M112.977 396.066C136.118 373.422 151.188 360.088 159.155 348.344 167.121 336.6 187.002 314.946 206.677 299.232 226.352 283.518 238.839 265.972 247.475 257.07 248.688 258.374 249.58 259.235 251.304 260.775 239.519 273.552 220.556 292.258 203.782 309.887 187.007 327.516 171.59 340.828 156.259 358.999 140.928 377.17 131.661 388.318 116.806 399.771 115.481 398.466 114.923 397.646 112.977 396.066Z" stroke="#000000" stroke-width="2" stroke-miterlimit="8" fill="none" fill-rule="evenodd"/><path d="M112 396C137.907 398.617 150.623 398.692 167.963 396 185.303 393.308 206.744 394.086 225.557 396 244.369 397.914 254.7 393.582 275 396 275.073 398.483 275.052 399.2 275 401 249.011 401.693 246.063 403.379 222.297 401 198.531 398.621 187.391 402.365 167.963 401 148.535 399.635 134.546 399.886 112 401 112.109 399.642 112.171 397.229 112 396Z" fill="#BFBFBF" fill-rule="evenodd"/><path d="M112 396C130.774 395.752 147.854 393.235 167.963 396 188.073 398.765 206.116 397.094 225.557 396 244.997 394.906 263.266 395.02 275 396 274.887 397.195 274.875 399.608 275 401 258.882 403.181 233.994 402.074 217.407 401 200.819 399.926 171.756 400.273 159.813 401 147.87 401.727 124.656 400.014 112 401 112.155 399.783 111.802 397.041 112 396Z" stroke="#000000" stroke-width="2" stroke-miterlimit="8" fill="none" fill-rule="evenodd"/><path d="M0 0C20.8499-0.15622 39.1413 0.0826247 64.1971 0 89.2528-0.0826247 104.608-0.255433 130.264 0 155.92 0.255433 175.616 2.11087 186.982 0 187.055 2.38373 187.034 3.07202 186.982 4.7999 172.25 5.65743 151.112 6.17785 126.524 4.7999 101.937 3.42194 81.3827 6.21743 64.1971 4.7999 47.0114 3.38236 32.0181 4.98656 0 4.7999 0.109711 3.49638 0.171339 1.17942 0 0Z" fill="#BFBFBF" fill-rule="evenodd" transform="matrix(0.736575 0.676355 0.676355 -0.736575 111.508 401.936)"/><path d="M0 0C15.1851-2.55717 37.2977 2.00577 64.1971 0 91.0964-2.00577 116.341 0.810289 130.264 0 144.187-0.810289 171.488-1.04829 186.982 0 186.868 1.14677 186.857 3.46404 186.982 4.7999 159.915 7.37995 150.463 5.95286 120.915 4.7999 91.3665 3.64693 85.6325 2.67139 54.848 4.7999 24.0634 6.9284 17.7121 7.30404 0 4.7999 0.155591 3.6315-0.19874 0.99916 0 0Z" stroke="#000000" stroke-width="2" stroke-miterlimit="8" fill="none" fill-rule="evenodd" transform="matrix(0.736575 0.676355 0.676355 -0.736575 111.508 401.936)"/><path d="M0 0C25.2852 2.76021 33.9474 1.43948 59.0805 0 84.2137-1.43948 90.1383 2.41081 119.882 0 149.625-2.41081 156.181-0.993701 172.079 0 172.152 2.38373 172.131 3.07202 172.079 4.7999 156.217 2.23927 143.977 6.92409 116.44 4.7999 88.903 2.6757 82.63 7.31244 59.0805 4.7999 35.531 2.28735 20.6002 7.07213 0 4.7999 0.109711 3.49638 0.171339 1.17942 0 0Z" fill="#BFBFBF" fill-rule="evenodd" transform="matrix(0.673392 -0.739285 -0.739285 -0.673392 289.542 213.989)"/><path d="M0 0C21.548-0.154751 42.1315 1.37512 59.0805 0 76.0295-1.37512 102.679-2.55118 119.882 0 137.084 2.55118 155.829 1.52714 172.079 0 171.966 1.14677 171.954 3.46404 172.079 4.7999 142.206 3.73953 135.545 6.76619 111.278 4.7999 87.0106 2.8336 67.4567 2.2443 50.4765 4.7999 33.4964 7.35549 10.2581 4.12063 0 4.7999 0.155591 3.6315-0.19874 0.99916 0 0Z" stroke="#000000" stroke-width="2" stroke-miterlimit="8" fill="none" fill-rule="evenodd" transform="matrix(0.673392 -0.739285 -0.739285 -0.673392 289.542 213.989)"/><path d="M288.953 212.57C313.323 203.235 324.766 197.613 339.175 187.547 353.584 177.48 373.157 168.561 390.859 161.794 408.561 155.027 415.977 146.686 435.23 139.686 436.358 141.787 436.647 142.412 437.37 143.982 414.345 156.198 412.421 158.965 390.074 167.548 367.728 176.131 359.334 184.328 341.316 191.843 323.297 199.357 310.85 205.828 291.094 216.866 290.611 215.651 289.633 213.549 288.953 212.57Z" fill="#BFBFBF" fill-rule="evenodd"/><path d="M288.953 212.57C305.696 203.962 319.945 194.163 339.175 187.547 358.405 180.93 373.881 171.426 390.859 161.794 407.837 152.162 424.281 144.091 435.23 139.686 435.64 140.763 436.663 142.842 437.37 143.982 423.84 153.063 401.032 163.241 385.686 169.734 370.341 176.228 344.409 189.522 334.002 195.487 323.595 201.451 302.03 210.36 291.094 216.866 290.712 215.751 289.221 213.553 288.953 212.57Z" stroke="#000000" stroke-width="2" stroke-miterlimit="8" fill="none" fill-rule="evenodd"/><path d="M305.084 564.653C333.996 567.639 354.331 570.575 375.643 575.156 396.954 579.737 417.022 578.214 443.434 585.248 443.406 586.805 443.049 588.398 442.728 589.995 418.689 588.014 394.684 583.196 372.169 579.492 349.654 575.788 333.014 576.27 304.377 569.401 304.58 567.773 305.04 565.861 305.084 564.653Z" fill="#BFBFBF" fill-rule="evenodd"/><path d="M305.084 564.653C317.889 568.076 350.16 573.963 370.108 574.332 390.057 574.702 409.997 576.583 443.434 585.248 443.139 586.357 442.836 588.751 442.728 589.995 409.324 585.967 399.613 580.004 370.785 579.286 341.957 578.568 319.031 573.333 304.377 569.401 304.796 568.151 304.794 566.765 305.084 564.653Z" stroke="#000000" stroke-width="2" stroke-miterlimit="8" fill="none" fill-rule="evenodd"/><path d="M301.668 567.53C321.38 586.62 326.104 589.768 348.666 609.642 371.228 629.515 382.463 636.206 393.821 650.102 392.94 651.386 391.766 652.519 390.618 653.677 375.406 636.201 364.903 627.908 343.62 611.565 322.337 595.221 318.747 589.041 298.465 571.105 299.53 569.857 300.966 568.514 301.668 567.53Z" fill="#BFBFBF" fill-rule="evenodd"/><path d="M301.668 567.53C322.423 582.386 332.362 593.438 344.98 606.339 357.598 619.239 382.994 638.905 393.821 650.102 392.964 650.865 391.393 652.698 390.618 653.677 375.182 637.269 361.692 627.281 342.698 610.739 323.705 594.197 315.76 588.03 298.465 571.105 299.502 570.292 300.263 569.133 301.668 567.53Z" stroke="#000000" stroke-width="2" stroke-miterlimit="8" fill="none" fill-rule="evenodd"/><path d="M333.514 397.63C363.648 386.678 372.52 384.853 393.759 374.789 414.999 364.725 427.549 361.976 451.641 352.844 452.377 354.217 452.843 355.781 453.343 357.332 437.607 363.503 407.286 376.528 393.098 380.173 378.91 383.818 347.002 396.875 335.216 402.118 334.598 400.598 334.066 398.705 333.514 397.63Z" fill="#BFBFBF" fill-rule="evenodd"/><path d="M333.514 397.63C354.866 386.564 371.294 382.901 389.034 376.58 406.774 370.26 427.277 361.781 451.641 352.844 451.925 353.956 452.83 356.194 453.343 357.332 435.518 364.309 416.121 372.444 391.917 380.621 367.713 388.797 352.18 393.477 335.216 402.118 334.971 400.823 334.292 399.615 333.514 397.63Z" stroke="#000000" stroke-width="2" stroke-miterlimit="8" fill="none" fill-rule="evenodd"/><path d="M0 0C26.2258-0.0956431 35.8998-2.31465 53.4007 0 70.9016 2.31465 82.0891 2.07244 108.357 0 134.625-2.07244 139.838-2.25638 155.536 0 155.609 2.38373 155.588 3.07202 155.536 4.7999 144.336 6.04798 123.442 4.13722 105.246 4.7999 87.0505 5.46257 74.163 3.02037 53.4007 4.7999 32.6384 6.57942 12.5796 2.95402 0 4.7999 0.109711 3.49638 0.171339 1.17942 0 0Z" fill="#BFBFBF" fill-rule="evenodd" transform="matrix(0.880761 0.473561 0.473561 -0.880761 335.787 400.229)"/><path d="M0 0C23.8159 0.903622 32.6538-0.252388 53.4007 0 74.1477 0.252388 83.6647 1.79129 108.357 0 133.049-1.79129 140.861-1.32011 155.536 0 155.423 1.14677 155.411 3.46404 155.536 4.7999 134.071 2.99139 127.203 4.43717 100.58 4.7999 73.9566 5.16262 63.4396 7.27412 45.6239 4.7999 27.8083 2.32567 22.5886 2.63517 0 4.7999 0.155591 3.6315-0.19874 0.99916 0 0Z" stroke="#000000" stroke-width="2" stroke-miterlimit="8" fill="none" fill-rule="evenodd" transform="matrix(0.880761 0.473561 0.473561 -0.880761 335.787 400.229)"/><path d="M460 55C476.931 55.6099 494.497 56.3384 520.06 55 545.623 53.6616 564.785 52.8814 582.43 55 600.075 57.1186 615.941 56.8355 633.25 55 650.558 53.1645 675.891 56.9691 691 55 690.887 58.4741 691.2 59.7389 691 62 674.02 59.5057 659.775 61.5594 640.18 62 620.585 62.4406 610.937 64.4889 584.74 62 558.543 59.5111 549.107 61.7093 522.37 62 495.634 62.2907 490.294 63.944 460 62 459.66 60.3911 460.312 57.3051 460 55Z" fill="#BFBFBF" fill-rule="evenodd"/><path d="M460 55C473.957 55.9233 491.459 52.1913 517.75 55 544.041 57.8087 545.893 56.3089 570.88 55 595.867 53.6911 602.872 54.9953 630.94 55 659.008 55.0047 662.37 54.2835 691 55 690.868 58.087 691.302 59.8866 691 62 664.437 62.5208 656.393 61.7073 635.56 62 614.727 62.2927 598.343 61.4291 580.12 62 561.897 62.5709 550.803 61.3458 522.37 62 493.937 62.6542 489.62 63.2115 460 62 459.789 59.8518 459.882 57.7424 460 55Z" stroke="#000000" stroke-width="2" stroke-miterlimit="8" fill="none" fill-rule="evenodd"/><path d="M511 132C537.066 134.617 549.86 134.692 567.307 132 584.753 129.308 606.325 130.086 625.253 132 644.181 133.914 654.575 129.582 675 132 675.073 134.483 675.052 135.2 675 137 648.852 137.693 645.885 139.379 621.973 137 598.062 134.621 586.854 138.365 567.307 137 547.76 135.635 533.685 135.886 511 137 511.11 135.642 511.172 133.229 511 132Z" fill="#BFBFBF" fill-rule="evenodd"/><path d="M511 132C529.89 131.752 547.074 129.235 567.307 132 587.54 134.765 605.693 133.094 625.253 132 644.813 130.906 663.194 131.02 675 132 674.886 133.195 674.875 135.608 675 137 658.783 139.181 633.742 138.074 617.053 137 600.364 135.926 571.123 136.273 559.107 137 547.09 137.727 523.734 136.014 511 137 511.156 135.783 510.801 133.041 511 132Z" stroke="#000000" stroke-width="2" stroke-miterlimit="8" fill="none" fill-rule="evenodd"/><path d="M510 341C543.453 344.324 563.967 337.48 579.87 341 595.773 344.52 632.193 340.127 647 341 647.095 343.948 646.801 345.169 647 348 623.297 351.541 592.947 345.904 577.13 348 561.313 350.096 537.065 349.664 510 348 509.816 346.458 510.338 344.407 510 341Z" fill="#BFBFBF" fill-rule="evenodd"/><path d="M510 341C542.18 343.917 548.7 339.134 574.39 341 600.08 342.866 617.243 340.194 647 341 647.284 343.255 647.194 346.592 647 348 621.951 345.027 595.656 348.98 575.76 348 555.864 347.02 529.157 350.61 510 348 509.958 345.029 510.245 342.419 510 341Z" stroke="#000000" stroke-width="2" stroke-miterlimit="8" fill="none" fill-rule="evenodd"/><path d="M523 462C549.066 464.094 561.86 464.153 579.307 462 596.753 459.847 618.325 460.469 637.253 462 656.181 463.531 666.575 460.066 687 462 687.073 463.986 687.052 464.56 687 466 660.852 466.554 657.885 467.903 633.973 466 610.062 464.097 598.854 467.092 579.307 466 559.76 464.908 545.685 465.109 523 466 523.11 464.914 523.172 462.983 523 462Z" fill="#BFBFBF" fill-rule="evenodd"/><path d="M523 462C541.89 461.802 559.074 459.788 579.307 462 599.54 464.212 617.693 462.875 637.253 462 656.813 461.125 675.194 461.216 687 462 686.886 462.956 686.875 464.887 687 466 670.783 467.745 645.742 466.859 629.053 466 612.364 465.141 583.123 465.419 571.107 466 559.09 466.581 535.734 465.211 523 466 523.156 465.026 522.801 462.833 523 462Z" stroke="#000000" stroke-width="2" stroke-miterlimit="8" fill="none" fill-rule="evenodd"/><path d="M506 588C518.829 586.599 533.258 587.044 557.157 588 581.055 588.956 586.802 589.618 609.803 588 632.805 586.382 645.802 586.177 655 588 655.073 589.987 655.052 590.56 655 592 644.075 590.387 619.07 590.067 606.823 592 594.576 593.933 567.701 592.5 557.157 592 546.612 591.5 523.066 593.013 506 592 506.109 590.914 506.171 588.983 506 588Z" fill="#BFBFBF" fill-rule="evenodd"/><path d="M506 588C523.578 586.986 536.512 587.706 557.157 588 577.802 588.294 586.534 586.094 609.803 588 633.073 589.906 640.51 588.146 655 588 654.887 588.956 654.876 590.887 655 592 629.506 591.409 620.805 593.193 602.353 592 583.902 590.807 571.358 592.087 549.707 592 528.055 591.913 523.825 593.061 506 592 506.155 591.026 505.802 588.833 506 588Z" stroke="#000000" stroke-width="2" stroke-miterlimit="8" fill="none" fill-rule="evenodd"/><path d="M460.5 660.5C486.407 662.594 499.123 662.653 516.463 660.5 533.803 658.347 555.244 658.969 574.057 660.5 592.869 662.031 603.2 658.566 623.5 660.5 623.573 662.487 623.552 663.06 623.5 664.5 597.511 665.055 594.563 666.403 570.797 664.5 547.031 662.597 535.891 665.592 516.463 664.5 497.035 663.408 483.046 663.609 460.5 664.5 460.609 663.414 460.671 661.483 460.5 660.5Z" fill="#BFBFBF" fill-rule="evenodd"/><path d="M460.5 660.5C479.275 660.302 496.354 658.288 516.463 660.5 536.573 662.712 554.616 661.375 574.057 660.5 593.497 659.625 611.766 659.716 623.5 660.5 623.387 661.456 623.376 663.387 623.5 664.5 607.382 666.245 582.494 665.36 565.907 664.5 549.319 663.641 520.257 663.919 508.313 664.5 496.37 665.081 473.156 663.711 460.5 664.5 460.655 663.526 460.302 661.333 460.5 660.5Z" stroke="#000000" stroke-width="1.33333" stroke-miterlimit="8" fill="none" fill-rule="evenodd"/><path d="M275.5 365.5C303.716 366.738 318.447 363.384 335.5 365.5 333.202 391.939 333.294 413.214 335.5 427.5 322.029 428.09 301.993 425.261 275.5 427.5 274.767 406.988 273.837 387.642 275.5 365.5Z" fill="#FFFFFF" fill-rule="evenodd"/><path d="M275.5 365.5C298.983 365.016 320.857 364.775 335.5 365.5 333.509 390.661 334.254 398.187 335.5 427.5 308.795 429.678 305.371 428.055 275.5 427.5 274.293 411.594 274.984 395.957 275.5 365.5Z" stroke="#000000" stroke-width="1.33333" stroke-miterlimit="8" fill="none" fill-rule="evenodd"/><text font-family="Aptos Display,Aptos Display_MSFontService,sans-serif" font-weight="400" font-size="43" transform="translate(292.947 409)">B</text><path d="M237.5 207.5C265.716 208.718 280.447 205.418 297.5 207.5 295.202 233.512 295.294 254.445 297.5 268.5 284.028 269.08 263.993 266.297 237.5 268.5 236.767 248.319 235.837 229.285 237.5 207.5Z" fill="#FFFFFF" fill-rule="evenodd"/><path d="M237.5 207.5C260.983 207.023 282.857 206.787 297.5 207.5 295.509 232.255 296.254 239.66 297.5 268.5 270.795 270.643 267.371 269.046 237.5 268.5 236.293 252.851 236.984 237.466 237.5 207.5Z" stroke="#000000" stroke-width="1.33333" stroke-miterlimit="8" fill="none" fill-rule="evenodd"/><text font-family="Aptos Display,Aptos Display_MSFontService,sans-serif" font-weight="400" font-size="43" transform="translate(254.863 251)">A</text><path d="M245.5 514.5C273.716 515.718 288.447 512.418 305.5 514.5 303.202 540.512 303.294 561.445 305.5 575.5 292.028 576.08 271.993 573.297 245.5 575.5 244.767 555.319 243.837 536.285 245.5 514.5Z" fill="#FFFFFF" fill-rule="evenodd"/><path d="M245.5 514.5C268.983 514.023 290.857 513.787 305.5 514.5 303.509 539.255 304.254 546.66 305.5 575.5 278.795 577.643 275.371 576.046 245.5 575.5 244.293 559.851 244.984 544.466 245.5 514.5Z" stroke="#000000" stroke-width="1.33333" stroke-miterlimit="8" fill="none" fill-rule="evenodd"/><text font-family="Aptos Display,Aptos Display_MSFontService,sans-serif" font-weight="400" font-size="43" transform="translate(261.428 558)">C</text><path d="M451.5 316.5C479.716 317.718 494.447 314.418 511.5 316.5 509.202 342.512 509.294 363.445 511.5 377.5 498.029 378.08 477.993 375.297 451.5 377.5 450.767 357.319 449.837 338.285 451.5 316.5Z" fill="#FFFFFF" fill-rule="evenodd"/><path d="M451.5 316.5C474.983 316.023 496.857 315.787 511.5 316.5 509.509 341.255 510.254 348.66 511.5 377.5 484.795 379.643 481.371 378.046 451.5 377.5 450.293 361.851 450.984 346.466 451.5 316.5Z" stroke="#000000" stroke-width="1.33333" stroke-miterlimit="8" fill="none" fill-rule="evenodd"/><text font-family="Aptos Display,Aptos Display_MSFontService,sans-serif" font-weight="400" font-size="43" transform="translate(468.724 360)">A</text><path d="M689.5 431.5C717.716 432.718 732.447 429.418 749.5 431.5 747.202 457.512 747.294 478.445 749.5 492.5 736.029 493.08 715.993 490.297 689.5 492.5 688.767 472.319 687.837 453.285 689.5 431.5Z" fill="#FFFFFF" fill-rule="evenodd"/><path d="M689.5 431.5C712.983 431.023 734.857 430.787 749.5 431.5 747.509 456.255 748.254 463.66 749.5 492.5 722.795 494.643 719.371 493.046 689.5 492.5 688.293 476.851 688.984 461.466 689.5 431.5Z" stroke="#000000" stroke-width="1.33333" stroke-miterlimit="8" fill="none" fill-rule="evenodd"/><text font-family="Aptos Display,Aptos Display_MSFontService,sans-serif" font-weight="400" font-size="43" transform="translate(706.295 475)">A</text><path d="M442.5 550.5C470.716 551.718 485.447 548.418 502.5 550.5 500.202 576.512 500.294 597.445 502.5 611.5 489.029 612.08 468.993 609.297 442.5 611.5 441.767 591.319 440.837 572.285 442.5 550.5Z" fill="#FFFFFF" fill-rule="evenodd"/><path d="M442.5 550.5C465.983 550.023 487.857 549.787 502.5 550.5 500.509 575.255 501.254 582.66 502.5 611.5 475.795 613.643 472.371 612.046 442.5 611.5 441.293 595.851 441.984 580.466 442.5 550.5Z" stroke="#000000" stroke-width="1.33333" stroke-miterlimit="8" fill="none" fill-rule="evenodd"/><text font-family="Aptos Display,Aptos Display_MSFontService,sans-serif" font-weight="400" font-size="43" transform="translate(459.966 594)">A</text><path d="M623.5 634.5C651.716 635.718 666.447 632.418 683.5 634.5 681.202 660.512 681.294 681.445 683.5 695.5 670.029 696.08 649.993 693.297 623.5 695.5 622.767 675.319 621.837 656.285 623.5 634.5Z" fill="#FFFFFF" fill-rule="evenodd"/><path d="M623.5 634.5C646.983 634.023 668.857 633.787 683.5 634.5 681.509 659.255 682.254 666.66 683.5 695.5 656.795 697.643 653.371 696.046 623.5 695.5 622.293 679.851 622.984 664.466 623.5 634.5Z" stroke="#000000" stroke-width="1.33333" stroke-miterlimit="8" fill="none" fill-rule="evenodd"/><text font-family="Aptos Display,Aptos Display_MSFontService,sans-serif" font-weight="400" font-size="43" transform="translate(640.659 678)">A</text><path d="M405.5 32.5001C433.716 33.7178 448.447 30.4183 465.5 32.5001 463.202 58.5121 463.294 79.4445 465.5 93.5 452.029 94.0804 431.993 91.2967 405.5 93.5 404.767 73.3191 403.837 54.2851 405.5 32.5001Z" fill="#FFFFFF" fill-rule="evenodd"/><path d="M405.5 32.5001C428.983 32.0233 450.857 31.7868 465.5 32.5001 463.509 57.2547 464.254 64.66 465.5 93.5 438.795 95.6426 435.371 94.0463 405.5 93.5 404.293 77.8507 404.984 62.4656 405.5 32.5001Z" stroke="#000000" stroke-width="1.33333" stroke-miterlimit="8" fill="none" fill-rule="evenodd"/><text font-family="Aptos Display,Aptos Display_MSFontService,sans-serif" font-weight="400" font-size="43" transform="translate(422.381 76)">B</text><path d="M674.5 103.5C702.716 104.718 717.447 101.418 734.5 103.5 732.202 129.512 732.294 150.445 734.5 164.5 721.029 165.08 700.993 162.297 674.5 164.5 673.767 144.319 672.837 125.285 674.5 103.5Z" fill="#FFFFFF" fill-rule="evenodd"/><path d="M674.5 103.5C697.983 103.023 719.857 102.787 734.5 103.5 732.509 128.255 733.254 135.66 734.5 164.5 707.795 166.643 704.371 165.046 674.5 164.5 673.293 148.851 673.984 133.466 674.5 103.5Z" stroke="#000000" stroke-width="1.33333" stroke-miterlimit="8" fill="none" fill-rule="evenodd"/><text font-family="Aptos Display,Aptos Display_MSFontService,sans-serif" font-weight="400" font-size="43" transform="translate(691.232 147)">B</text><path d="M657.5 557.5C685.716 558.718 700.447 555.418 717.5 557.5 715.202 583.512 715.294 604.445 717.5 618.5 704.029 619.08 683.993 616.297 657.5 618.5 656.767 598.319 655.837 579.285 657.5 557.5Z" fill="#FFFFFF" fill-rule="evenodd"/><path d="M657.5 557.5C680.983 557.023 702.857 556.787 717.5 557.5 715.509 582.255 716.254 589.66 717.5 618.5 690.795 620.643 687.371 619.046 657.5 618.5 656.293 602.851 656.984 587.466 657.5 557.5Z" stroke="#000000" stroke-width="1.33333" stroke-miterlimit="8" fill="none" fill-rule="evenodd"/><text font-family="Aptos Display,Aptos Display_MSFontService,sans-serif" font-weight="400" font-size="43" transform="translate(674.205 601)">B</text><path d="M393.5 630.5C421.716 631.718 436.447 628.418 453.5 630.5 451.202 656.512 451.294 677.445 453.5 691.5 440.029 692.08 419.993 689.297 393.5 691.5 392.767 671.319 391.837 652.285 393.5 630.5Z" fill="#FFFFFF" fill-rule="evenodd"/><path d="M393.5 630.5C416.983 630.023 438.857 629.787 453.5 630.5 451.509 655.255 452.254 662.66 453.5 691.5 426.795 693.643 423.371 692.046 393.5 691.5 392.293 675.851 392.984 660.466 393.5 630.5Z" stroke="#000000" stroke-width="1.33333" stroke-miterlimit="8" fill="none" fill-rule="evenodd"/><text font-family="Aptos Display,Aptos Display_MSFontService,sans-serif" font-weight="400" font-size="43" transform="translate(410.991 674)">B</text><path d="M446.5 105.5C474.716 106.718 489.447 103.418 506.5 105.5 504.202 131.512 504.294 152.445 506.5 166.5 493.029 167.08 472.993 164.297 446.5 166.5 445.767 146.319 444.837 127.285 446.5 105.5Z" fill="#FFFFFF" fill-rule="evenodd"/><path d="M446.5 105.5C469.983 105.023 491.857 104.787 506.5 105.5 504.509 130.255 505.254 137.66 506.5 166.5 479.795 168.643 476.371 167.046 446.5 166.5 445.293 150.851 445.984 135.466 446.5 105.5Z" stroke="#000000" stroke-width="1.33333" stroke-miterlimit="8" fill="none" fill-rule="evenodd"/><text font-family="Aptos Display,Aptos Display_MSFontService,sans-serif" font-weight="400" font-size="43" transform="translate(461.757 149)">C</text><path d="M691.5 21.5001C719.245 22.7178 733.731 19.4183 750.5 21.5001 748.24 47.5121 748.331 68.4445 750.5 82.5 737.253 83.0804 717.551 80.2967 691.5 82.5 690.779 62.3191 689.865 43.2851 691.5 21.5001Z" fill="#FFFFFF" fill-rule="evenodd"/><path d="M691.5 21.5001C714.591 21.0233 736.101 20.7868 750.5 21.5001 748.542 46.2547 749.274 53.66 750.5 82.5 724.24 84.6426 720.873 83.0463 691.5 82.5 690.313 66.8507 690.992 51.4656 691.5 21.5001Z" stroke="#000000" stroke-width="1.33333" stroke-miterlimit="8" fill="none" fill-rule="evenodd"/><text font-family="Aptos Display,Aptos Display_MSFontService,sans-serif" font-weight="400" font-size="43" transform="translate(706.439 65)">C</text><path d="M647.5 314.5C675.245 315.718 689.731 312.418 706.5 314.5 704.24 340.512 704.331 361.445 706.5 375.5 693.253 376.08 673.551 373.297 647.5 375.5 646.779 355.319 645.865 336.285 647.5 314.5Z" fill="#FFFFFF" fill-rule="evenodd"/><path d="M647.5 314.5C670.591 314.023 692.101 313.787 706.5 314.5 704.542 339.255 705.274 346.66 706.5 375.5 680.24 377.643 676.873 376.046 647.5 375.5 646.313 359.851 646.992 344.466 647.5 314.5Z" stroke="#000000" stroke-width="1.33333" stroke-miterlimit="8" fill="none" fill-rule="evenodd"/><text font-family="Aptos Display,Aptos Display_MSFontService,sans-serif" font-weight="400" font-size="43" transform="translate(662.455 358)">C</text><path d="M476.5 434.5C504.716 435.718 519.447 432.418 536.5 434.5 534.202 460.512 534.294 481.445 536.5 495.5 523.029 496.08 502.993 493.297 476.5 495.5 475.767 475.319 474.837 456.285 476.5 434.5Z" fill="#FFFFFF" fill-rule="evenodd"/><path d="M476.5 434.5C499.983 434.023 521.857 433.787 536.5 434.5 534.509 459.255 535.254 466.66 536.5 495.5 509.795 497.643 506.371 496.046 476.5 495.5 475.293 479.851 475.984 464.466 476.5 434.5Z" stroke="#000000" stroke-width="1.33333" stroke-miterlimit="8" fill="none" fill-rule="evenodd"/><text font-family="Aptos Display,Aptos Display_MSFontService,sans-serif" font-weight="400" font-size="43" transform="translate(491.692 478)">C</text></g></svg>