<svg width="1280" height="720" xmlns="http://www.w3.org/2000/svg" xmlns:xlink="http://www.w3.org/1999/xlink" overflow="hidden"><g><rect x="0" y="0" width="1280" height="720" fill="#FFFFFF"/><path d="M347 156.5C345.131 139.267 356.983 127.243 376.5 129 391.334 126.028 403.827 140.906 406 156.5 406.282 172.042 391.416 182.357 376.5 184 362.78 185.7 347.15 171.081 347 156.5Z" fill="#B4E5A2" fill-rule="evenodd"/><path d="M347 156.5C345.375 143.755 361.156 128.597 376.5 129 393.971 129.848 406.844 142.962 406 156.5 405.862 173.307 392.574 183.29 376.5 184 360.1 185.579 350.548 172.151 347 156.5Z" stroke="#000000" stroke-width="2" stroke-miterlimit="8" fill="none" fill-rule="evenodd"/><path d="M429 156.5C426.946 139.08 438.426 127.438 456.5 129 470.22 126.028 481.813 140.906 484 156.5 485.935 174.1 471.021 183.209 456.5 184 443.901 185.7 429.151 171.081 429 156.5Z" fill="#B4E5A2" fill-rule="evenodd"/><path d="M429 156.5C428.739 141.702 442.878 128.338 456.5 129 472.874 129.848 484.85 142.962 484 156.5 483.796 174.06 470.581 180.428 456.5 184 441.204 185.579 432.571 172.151 429 156.5Z" stroke="#000000" stroke-width="2" stroke-miterlimit="8" fill="none" fill-rule="evenodd"/><path d="M602 156.5C600.099 139.267 612.152 127.243 632 129 647.086 126.028 659.79 140.906 662 156.5 662.287 172.042 647.169 182.357 632 184 618.047 185.7 602.152 171.081 602 156.5Z" fill="#B4E5A2" fill-rule="evenodd"/><path d="M602 156.5C600.347 143.755 616.396 128.597 632 129 649.767 129.848 662.859 142.962 662 156.5 661.859 173.307 648.346 183.29 632 184 615.322 185.579 605.608 172.151 602 156.5Z" stroke="#000000" stroke-width="2" stroke-miterlimit="8" fill="none" fill-rule="evenodd"/><path d="M517 156.5C515.56 139.757 526.143 127.416 544 129 557.434 126.028 568.798 140.906 571 156.5 573.076 174.258 558.513 183.53 544 184 531.695 185.7 517.152 171.081 517 156.5Z" fill="#71AAE0" fill-rule="evenodd"/><path d="M517 156.5C516.75 141.683 529.805 128.699 544 129 560.105 129.848 571.856 142.962 571 156.5 570.773 174.309 557.919 180.818 544 184 528.979 185.579 520.595 172.151 517 156.5Z" stroke="#000000" stroke-width="2" stroke-miterlimit="8" fill="none" fill-rule="evenodd"/><path d="M689 156.5C688.397 140.66 699.163 127.964 716 129 729.435 126.028 740.8 140.906 743 156.5 744.744 173.849 728.834 181.551 716 184 703.693 185.7 689.152 171.081 689 156.5Z" fill="#71AAE0" fill-rule="evenodd"/><path d="M689 156.5C688.715 141.735 701.896 128.661 716 129 732.105 129.848 743.855 142.962 743 156.5 742.898 172.867 730.784 183.59 716 184 700.979 185.579 692.592 172.151 689 156.5Z" stroke="#000000" stroke-width="2" stroke-miterlimit="8" fill="none" fill-rule="evenodd"/><path d="M347 274.5C345.131 257.267 356.983 245.243 376.5 247 391.334 244.028 403.827 258.906 406 274.5 406.282 290.042 391.416 300.357 376.5 302 362.78 303.7 347.15 289.081 347 274.5Z" fill="#D9F2D0" fill-rule="evenodd"/><path d="M347 274.5C345.375 261.755 361.156 246.597 376.5 247 393.971 247.848 406.844 260.962 406 274.5 405.862 291.307 392.574 301.29 376.5 302 360.1 303.579 350.548 290.151 347 274.5Z" stroke="#595959" stroke-width="2" stroke-miterlimit="8" stroke-dasharray="8 6" fill="none" fill-rule="evenodd"/><path d="M429 274.5C426.946 257.08 438.426 245.438 456.5 247 470.22 244.028 481.813 258.906 484 274.5 485.935 292.1 471.021 301.209 456.5 302 443.901 303.7 429.151 289.081 429 274.5Z" fill="#D9F2D0" fill-rule="evenodd"/><path d="M429 274.5C428.739 259.702 442.878 246.338 456.5 247 472.874 247.848 484.85 260.962 484 274.5 483.796 292.06 470.581 298.427 456.5 302 441.204 303.579 432.571 290.151 429 274.5Z" stroke="#595959" stroke-width="2" stroke-miterlimit="8" stroke-dasharray="8 6" fill="none" fill-rule="evenodd"/><path d="M603 276.5C601.099 259.267 613.152 247.243 633 249 648.086 246.028 660.79 260.906 663 276.5 663.287 292.042 648.169 302.357 633 304 619.047 305.7 603.152 291.081 603 276.5Z" fill="#D9F2D0" fill-rule="evenodd"/><path d="M603 276.5C601.347 263.755 617.396 248.597 633 249 650.767 249.848 663.859 262.962 663 276.5 662.859 293.307 649.346 303.29 633 304 616.322 305.579 606.608 292.151 603 276.5Z" stroke="#595959" stroke-width="2" stroke-miterlimit="8" stroke-dasharray="8 6" fill="none" fill-rule="evenodd"/><path d="M517 276.5C515.56 259.757 526.143 247.416 544 249 557.434 246.028 568.798 260.906 571 276.5 573.076 294.258 558.513 303.53 544 304 531.695 305.7 517.152 291.081 517 276.5Z" fill="#B8D4F0" fill-rule="evenodd"/><path d="M517 276.5C516.75 261.683 529.805 248.699 544 249 560.105 249.848 571.856 262.962 571 276.5 570.773 294.309 557.919 300.818 544 304 528.979 305.579 520.595 292.151 517 276.5Z" stroke="#595959" stroke-width="2" stroke-miterlimit="8" stroke-dasharray="8 6" fill="none" fill-rule="evenodd"/><path d="M694 276.5C693.397 260.66 704.163 247.964 721 249 734.435 246.028 745.8 260.906 748 276.5 749.744 293.849 733.834 301.551 721 304 708.693 305.7 694.152 291.081 694 276.5Z" fill="#B8D4F0" fill-rule="evenodd"/><path d="M694 276.5C693.715 261.735 706.896 248.661 721 249 737.105 249.848 748.855 262.962 748 276.5 747.898 292.867 735.784 303.59 721 304 705.979 305.579 697.592 292.151 694 276.5Z" stroke="#595959" stroke-width="2" stroke-miterlimit="8" stroke-dasharray="8 6" fill="none" fill-rule="evenodd"/><text fill="#275317" font-family="Aptos,Aptos_MSFontService,sans-serif" font-weight="400" font-size="21" transform="translate(370.752 280)">1</text><text fill="#275317" font-family="Aptos,Aptos_MSFontService,sans-serif" font-weight="400" font-size="21" transform="translate(451.981 283)">2</text><text fill="#275317" font-family="Aptos,Aptos_MSFontService,sans-serif" font-weight="400" font-size="21" transform="translate(626.22 283)">3</text><text fill="#071420" font-family="Aptos,Aptos_MSFontService,sans-serif" font-weight="400" font-size="21" transform="translate(539.648 283)">1</text><text fill="#071420" font-family="Aptos,Aptos_MSFontService,sans-serif" font-weight="400" font-size="21" transform="translate(715.092 286)">2</text><path d="M347 346.5C345.131 329.267 356.983 317.243 376.5 319 391.334 316.028 403.827 330.906 406 346.5 406.282 362.042 391.416 372.357 376.5 374 362.78 375.7 347.15 361.081 347 346.5Z" fill="#D9F2D0" fill-rule="evenodd"/><path d="M347 346.5C345.375 333.755 361.156 318.597 376.5 319 393.971 319.848 406.844 332.962 406 346.5 405.862 363.307 392.574 373.29 376.5 374 360.1 375.579 350.548 362.151 347 346.5Z" stroke="#595959" stroke-width="2" stroke-miterlimit="8" stroke-dasharray="8 6" fill="none" fill-rule="evenodd"/><path d="M429 346.5C426.946 329.08 438.426 317.438 456.5 319 470.22 316.028 481.813 330.906 484 346.5 485.935 364.1 471.021 373.209 456.5 374 443.901 375.7 429.151 361.081 429 346.5Z" fill="#D9F2D0" fill-rule="evenodd"/><path d="M429 346.5C428.739 331.702 442.878 318.338 456.5 319 472.874 319.848 484.85 332.962 484 346.5 483.796 364.06 470.581 370.427 456.5 374 441.204 375.579 432.571 362.151 429 346.5Z" stroke="#595959" stroke-width="2" stroke-miterlimit="8" stroke-dasharray="8 6" fill="none" fill-rule="evenodd"/><path d="M603 348.5C601.099 331.267 613.152 319.243 633 321 648.086 318.028 660.79 332.906 663 348.5 663.287 364.042 648.169 374.357 633 376 619.047 377.7 603.152 363.081 603 348.5Z" fill="#D9F2D0" fill-rule="evenodd"/><path d="M603 348.5C601.347 335.755 617.396 320.597 633 321 650.767 321.848 663.859 334.962 663 348.5 662.859 365.307 649.346 375.29 633 376 616.322 377.579 606.608 364.151 603 348.5Z" stroke="#595959" stroke-width="2" stroke-miterlimit="8" stroke-dasharray="8 6" fill="none" fill-rule="evenodd"/><path d="M868 278.5C866.56 261.757 877.143 249.416 895 251 908.434 248.028 919.798 262.906 922 278.5 924.076 296.258 909.513 305.53 895 306 882.695 307.7 868.152 293.081 868 278.5Z" fill="#B8D4F0" fill-rule="evenodd"/><path d="M868 278.5C867.75 263.683 880.805 250.699 895 251 911.105 251.848 922.856 264.962 922 278.5 921.773 296.309 908.919 302.818 895 306 879.979 307.579 871.595 294.151 868 278.5Z" stroke="#595959" stroke-width="2" stroke-miterlimit="8" stroke-dasharray="8 6" fill="none" fill-rule="evenodd"/><path d="M944 279.5C943.397 263.66 954.163 250.964 971 252 984.435 249.028 995.8 263.906 998 279.5 999.744 296.849 983.834 304.551 971 307 958.693 308.7 944.152 294.081 944 279.5Z" fill="#B8D4F0" fill-rule="evenodd"/><path d="M944 279.5C943.715 264.735 956.896 251.661 971 252 987.105 252.848 998.855 265.962 998 279.5 997.898 295.867 985.784 306.59 971 307 955.979 308.579 947.592 295.151 944 279.5Z" stroke="#595959" stroke-width="2" stroke-miterlimit="8" stroke-dasharray="8 6" fill="none" fill-rule="evenodd"/><text fill="#275317" font-family="Aptos,Aptos_MSFontService,sans-serif" font-weight="400" font-size="21" transform="translate(370.752 352)">1</text><text fill="#275317" font-family="Aptos,Aptos_MSFontService,sans-serif" font-weight="400" font-size="21" transform="translate(451.981 356)">3</text><text fill="#275317" font-family="Aptos,Aptos_MSFontService,sans-serif" font-weight="400" font-size="21" transform="translate(626.22 356)">2</text><text fill="#071420" font-family="Aptos,Aptos_MSFontService,sans-serif" font-weight="400" font-size="21" transform="translate(890.535 286)">2</text><text fill="#071420" font-family="Aptos,Aptos_MSFontService,sans-serif" font-weight="400" font-size="21" transform="translate(965.514 289)">1</text><path d="M349 415.5C347.099 398.267 359.152 386.243 379 388 394.086 385.028 406.79 399.906 409 415.5 409.287 431.042 394.169 441.357 379 443 365.048 444.7 349.152 430.081 349 415.5Z" fill="#D9F2D0" fill-rule="evenodd"/><path d="M349 415.5C347.347 402.755 363.396 387.597 379 388 396.767 388.848 409.859 401.962 409 415.5 408.859 432.307 395.346 442.29 379 443 362.322 444.579 352.608 431.151 349 415.5Z" stroke="#595959" stroke-width="2" stroke-miterlimit="8" stroke-dasharray="8 6" fill="none" fill-rule="evenodd"/><path d="M431 415.5C428.909 398.08 440.598 386.438 459 388 472.97 385.028 484.773 399.906 487 415.5 488.97 433.1 473.785 442.209 459 443 446.172 444.7 431.154 430.081 431 415.5Z" fill="#D9F2D0" fill-rule="evenodd"/><path d="M431 415.5C430.734 400.702 445.131 387.338 459 388 475.671 388.848 487.865 401.962 487 415.5 486.793 433.06 473.337 439.427 459 443 443.425 444.579 434.636 431.151 431 415.5Z" stroke="#595959" stroke-width="2" stroke-miterlimit="8" stroke-dasharray="8 6" fill="none" fill-rule="evenodd"/><path d="M605 417.5C603.099 400.267 615.152 388.243 635 390 650.086 387.028 662.79 401.906 665 417.5 665.287 433.042 650.169 443.357 635 445 621.047 446.7 605.152 432.081 605 417.5Z" fill="#D9F2D0" fill-rule="evenodd"/><path d="M605 417.5C603.347 404.755 619.396 389.597 635 390 652.767 390.848 665.859 403.962 665 417.5 664.859 434.307 651.346 444.29 635 445 618.322 446.579 608.608 433.151 605 417.5Z" stroke="#595959" stroke-width="2" stroke-miterlimit="8" stroke-dasharray="8 6" fill="none" fill-rule="evenodd"/><text fill="#275317" font-family="Aptos,Aptos_MSFontService,sans-serif" font-weight="400" font-size="21" transform="translate(373.112 421)">2</text><text fill="#275317" font-family="Aptos,Aptos_MSFontService,sans-serif" font-weight="400" font-size="21" transform="translate(454.341 425)">1</text><text fill="#275317" font-family="Aptos,Aptos_MSFontService,sans-serif" font-weight="400" font-size="21" transform="translate(628.579 425)">3</text><path d="M349 487.5C347.099 470.267 359.152 458.243 379 460 394.086 457.028 406.79 471.906 409 487.5 409.287 503.042 394.169 513.357 379 515 365.048 516.7 349.152 502.081 349 487.5Z" fill="#D9F2D0" fill-rule="evenodd"/><path d="M349 487.5C347.347 474.755 363.396 459.597 379 460 396.767 460.848 409.859 473.962 409 487.5 408.859 504.307 395.346 514.29 379 515 362.322 516.579 352.608 503.151 349 487.5Z" stroke="#595959" stroke-width="2" stroke-miterlimit="8" stroke-dasharray="8 6" fill="none" fill-rule="evenodd"/><path d="M431 487.5C428.909 470.08 440.598 458.438 459 460 472.97 457.028 484.773 471.906 487 487.5 488.97 505.1 473.785 514.209 459 515 446.172 516.7 431.154 502.081 431 487.5Z" fill="#D9F2D0" fill-rule="evenodd"/><path d="M431 487.5C430.734 472.702 445.131 459.338 459 460 475.671 460.848 487.865 473.962 487 487.5 486.793 505.06 473.337 511.427 459 515 443.425 516.579 434.636 503.151 431 487.5Z" stroke="#595959" stroke-width="2" stroke-miterlimit="8" stroke-dasharray="8 6" fill="none" fill-rule="evenodd"/><path d="M605 490.5C603.099 473.267 615.152 461.243 635 463 650.086 460.028 662.79 474.906 665 490.5 665.287 506.042 650.169 516.357 635 518 621.047 519.7 605.152 505.081 605 490.5Z" fill="#D9F2D0" fill-rule="evenodd"/><path d="M605 490.5C603.347 477.755 619.396 462.597 635 463 652.767 463.848 665.859 476.962 665 490.5 664.859 507.307 651.346 517.29 635 518 618.322 519.579 608.608 506.151 605 490.5Z" stroke="#595959" stroke-width="2" stroke-miterlimit="8" stroke-dasharray="8 6" fill="none" fill-rule="evenodd"/><text fill="#275317" font-family="Aptos,Aptos_MSFontService,sans-serif" font-weight="400" font-size="21" transform="translate(373.112 493)">2</text><text fill="#275317" font-family="Aptos,Aptos_MSFontService,sans-serif" font-weight="400" font-size="21" transform="translate(454.341 497)">3</text><text fill="#275317" font-family="Aptos,Aptos_MSFontService,sans-serif" font-weight="400" font-size="21" transform="translate(628.579 497)">1</text><path d="M351 556.5C349.099 539.267 361.152 527.243 381 529 396.086 526.028 408.79 540.906 411 556.5 411.287 572.042 396.169 582.357 381 584 367.048 585.7 351.152 571.081 351 556.5Z" fill="#D9F2D0" fill-rule="evenodd"/><path d="M351 556.5C349.347 543.755 365.396 528.597 381 529 398.767 529.848 411.859 542.962 411 556.5 410.859 573.307 397.346 583.29 381 584 364.322 585.579 354.608 572.151 351 556.5Z" stroke="#595959" stroke-width="2" stroke-miterlimit="8" stroke-dasharray="8 6" fill="none" fill-rule="evenodd"/><path d="M434 556.5C431.946 539.08 443.426 527.438 461.5 529 475.22 526.028 486.813 540.906 489 556.5 490.935 574.1 476.021 583.209 461.5 584 448.901 585.7 434.151 571.081 434 556.5Z" fill="#D9F2D0" fill-rule="evenodd"/><path d="M434 556.5C433.739 541.702 447.878 528.338 461.5 529 477.874 529.848 489.85 542.962 489 556.5 488.796 574.06 475.581 580.427 461.5 584 446.204 585.579 437.571 572.151 434 556.5Z" stroke="#595959" stroke-width="2" stroke-miterlimit="8" stroke-dasharray="8 6" fill="none" fill-rule="evenodd"/><path d="M608 559.5C606.099 542.267 618.152 530.243 638 532 653.086 529.028 665.79 543.906 668 559.5 668.287 575.042 653.169 585.357 638 587 624.047 588.7 608.152 574.081 608 559.5Z" fill="#D9F2D0" fill-rule="evenodd"/><path d="M608 559.5C606.347 546.755 622.396 531.597 638 532 655.767 532.848 668.859 545.962 668 559.5 667.859 576.307 654.346 586.29 638 587 621.322 588.579 611.608 575.151 608 559.5Z" stroke="#595959" stroke-width="2" stroke-miterlimit="8" stroke-dasharray="8 6" fill="none" fill-rule="evenodd"/><text fill="#275317" font-family="Aptos,Aptos_MSFontService,sans-serif" font-weight="400" font-size="21" transform="translate(375.331 562)">3</text><text fill="#275317" font-family="Aptos,Aptos_MSFontService,sans-serif" font-weight="400" font-size="21" transform="translate(456.56 566)">1</text><text fill="#275317" font-family="Aptos,Aptos_MSFontService,sans-serif" font-weight="400" font-size="21" transform="translate(630.798 566)">2</text><path d="M351 629.5C349.099 612.267 361.152 600.243 381 602 396.086 599.028 408.79 613.906 411 629.5 411.287 645.042 396.169 655.357 381 657 367.048 658.7 351.152 644.081 351 629.5Z" fill="#D9F2D0" fill-rule="evenodd"/><path d="M351 629.5C349.347 616.755 365.396 601.597 381 602 398.767 602.848 411.859 615.962 411 629.5 410.859 646.307 397.346 656.29 381 657 364.322 658.579 354.608 645.151 351 629.5Z" stroke="#595959" stroke-width="2" stroke-miterlimit="8" stroke-dasharray="8 6" fill="none" fill-rule="evenodd"/><path d="M434 629.5C431.946 612.08 443.426 600.438 461.5 602 475.22 599.028 486.813 613.906 489 629.5 490.935 647.1 476.021 656.209 461.5 657 448.901 658.7 434.151 644.081 434 629.5Z" fill="#D9F2D0" fill-rule="evenodd"/><path d="M434 629.5C433.739 614.702 447.878 601.338 461.5 602 477.874 602.848 489.85 615.962 489 629.5 488.796 647.06 475.581 653.427 461.5 657 446.204 658.579 437.571 645.151 434 629.5Z" stroke="#595959" stroke-width="2" stroke-miterlimit="8" stroke-dasharray="8 6" fill="none" fill-rule="evenodd"/><path d="M608 631.5C606.099 614.267 618.152 602.243 638 604 653.086 601.028 665.79 615.906 668 631.5 668.287 647.042 653.169 657.357 638 659 624.047 660.7 608.152 646.081 608 631.5Z" fill="#D9F2D0" fill-rule="evenodd"/><path d="M608 631.5C606.347 618.755 622.396 603.597 638 604 655.767 604.848 668.859 617.962 668 631.5 667.859 648.307 654.346 658.29 638 659 621.322 660.579 611.608 647.151 608 631.5Z" stroke="#595959" stroke-width="2" stroke-miterlimit="8" stroke-dasharray="8 6" fill="none" fill-rule="evenodd"/><text fill="#275317" font-family="Aptos,Aptos_MSFontService,sans-serif" font-weight="400" font-size="21" transform="translate(375.331 635)">3</text><text fill="#275317" font-family="Aptos,Aptos_MSFontService,sans-serif" font-weight="400" font-size="21" transform="translate(456.56 639)">2</text><text fill="#275317" font-family="Aptos,Aptos_MSFontService,sans-serif" font-weight="400" font-size="21" transform="translate(630.798 639)">1</text><text font-family="Aptos,Aptos_MSFontService,sans-serif" font-weight="400" font-size="24" transform="translate(789.817 288)">og</text><text font-family="Aptos,Aptos_MSFontService,sans-serif" font-weight="400" font-size="24" transform="translate(789.817 351)">og</text><text font-family="Aptos,Aptos_MSFontService,sans-serif" font-weight="400" font-size="24" transform="translate(789.817 420)">og</text><text font-family="Aptos,Aptos_MSFontService,sans-serif" font-weight="400" font-size="24" transform="translate(789.654 495)">og</text><text font-family="Aptos,Aptos_MSFontService,sans-serif" font-weight="400" font-size="24" transform="translate(789.654 557)">og</text><text font-family="Aptos,Aptos_MSFontService,sans-serif" font-weight="400" font-size="24" transform="translate(789.654 626)">og</text><path d="M515 350.5C513.56 333.757 524.143 321.416 542 323 555.434 320.028 566.798 334.906 569 350.5 571.076 368.258 556.513 377.53 542 378 529.695 379.7 515.152 365.081 515 350.5Z" fill="#B8D4F0" fill-rule="evenodd"/><path d="M515 350.5C514.75 335.683 527.805 322.699 542 323 558.105 323.848 569.856 336.962 569 350.5 568.773 368.309 555.919 374.818 542 378 526.979 379.579 518.595 366.151 515 350.5Z" stroke="#595959" stroke-width="2" stroke-miterlimit="8" stroke-dasharray="8 6" fill="none" fill-rule="evenodd"/><path d="M692 350.5C691.397 334.66 702.163 321.964 719 323 732.435 320.028 743.8 334.906 746 350.5 747.744 367.849 731.834 375.551 719 378 706.693 379.7 692.152 365.081 692 350.5Z" fill="#B8D4F0" fill-rule="evenodd"/><path d="M692 350.5C691.715 335.735 704.896 322.661 719 323 735.105 323.848 746.855 336.962 746 350.5 745.898 366.867 733.784 377.59 719 378 703.979 379.579 695.592 366.151 692 350.5Z" stroke="#595959" stroke-width="2" stroke-miterlimit="8" stroke-dasharray="8 6" fill="none" fill-rule="evenodd"/><text fill="#071420" font-family="Aptos,Aptos_MSFontService,sans-serif" font-weight="400" font-size="21" transform="translate(537.943 358)">1</text><text fill="#071420" font-family="Aptos,Aptos_MSFontService,sans-serif" font-weight="400" font-size="21" transform="translate(713.386 360)">2</text><path d="M866 353.5C864.56 336.757 875.143 324.416 893 326 906.434 323.028 917.798 337.906 920 353.5 922.076 371.258 907.513 380.53 893 381 880.695 382.7 866.152 368.081 866 353.5Z" fill="#B8D4F0" fill-rule="evenodd"/><path d="M866 353.5C865.75 338.683 878.805 325.699 893 326 909.105 326.848 920.856 339.962 920 353.5 919.773 371.309 906.919 377.818 893 381 877.979 382.579 869.595 369.151 866 353.5Z" stroke="#595959" stroke-width="2" stroke-miterlimit="8" stroke-dasharray="8 6" fill="none" fill-rule="evenodd"/><path d="M942 354.5C941.385 338.66 952.351 325.964 969.5 327 983.184 324.028 994.759 338.906 997 354.5 998.776 371.849 982.572 379.551 969.5 382 956.965 383.7 942.155 369.081 942 354.5Z" fill="#B8D4F0" fill-rule="evenodd"/><path d="M942 354.5C941.71 339.735 955.135 326.661 969.5 327 985.903 327.848 997.871 340.962 997 354.5 996.896 370.867 984.558 381.59 969.5 382 954.201 383.579 945.659 370.151 942 354.5Z" stroke="#595959" stroke-width="2" stroke-miterlimit="8" stroke-dasharray="8 6" fill="none" fill-rule="evenodd"/><text fill="#071420" font-family="Aptos,Aptos_MSFontService,sans-serif" font-weight="400" font-size="21" transform="translate(888.83 360)">2</text><text fill="#071420" font-family="Aptos,Aptos_MSFontService,sans-serif" font-weight="400" font-size="21" transform="translate(963.808 363)">1</text><path d="M518 420.5C516.56 403.757 527.143 391.416 545 393 558.434 390.028 569.798 404.906 572 420.5 574.076 438.258 559.513 447.53 545 448 532.695 449.7 518.152 435.081 518 420.5Z" fill="#B8D4F0" fill-rule="evenodd"/><path d="M518 420.5C517.75 405.683 530.805 392.699 545 393 561.105 393.848 572.856 406.962 572 420.5 571.773 438.309 558.919 444.818 545 448 529.979 449.579 521.595 436.151 518 420.5Z" stroke="#595959" stroke-width="2" stroke-miterlimit="8" stroke-dasharray="8 6" fill="none" fill-rule="evenodd"/><path d="M695 420.5C694.397 404.66 705.163 391.964 722 393 735.435 390.028 746.8 404.906 749 420.5 750.744 437.849 734.834 445.551 722 448 709.693 449.7 695.152 435.081 695 420.5Z" fill="#B8D4F0" fill-rule="evenodd"/><path d="M695 420.5C694.715 405.735 707.896 392.661 722 393 738.105 393.848 749.855 406.962 749 420.5 748.898 436.867 736.784 447.59 722 448 706.979 449.579 698.592 436.151 695 420.5Z" stroke="#595959" stroke-width="2" stroke-miterlimit="8" stroke-dasharray="8 6" fill="none" fill-rule="evenodd"/><text fill="#071420" font-family="Aptos,Aptos_MSFontService,sans-serif" font-weight="400" font-size="21" transform="translate(541.307 427)">1</text><text fill="#071420" font-family="Aptos,Aptos_MSFontService,sans-serif" font-weight="400" font-size="21" transform="translate(716.751 430)">2</text><path d="M869 422.5C867.56 405.757 878.143 393.416 896 395 909.434 392.028 920.798 406.906 923 422.5 925.076 440.258 910.513 449.53 896 450 883.695 451.7 869.152 437.081 869 422.5Z" fill="#B8D4F0" fill-rule="evenodd"/><path d="M869 422.5C868.75 407.683 881.805 394.699 896 395 912.105 395.848 923.856 408.962 923 422.5 922.773 440.309 909.919 446.818 896 450 880.979 451.579 872.595 438.151 869 422.5Z" stroke="#595959" stroke-width="2" stroke-miterlimit="8" stroke-dasharray="8 6" fill="none" fill-rule="evenodd"/><path d="M946 423.5C945.397 407.66 956.163 394.964 973 396 986.435 393.028 997.8 407.906 1000 423.5 1001.74 440.849 985.834 448.551 973 451 960.693 452.7 946.152 438.081 946 423.5Z" fill="#B8D4F0" fill-rule="evenodd"/><path d="M946 423.5C945.715 408.735 958.896 395.661 973 396 989.105 396.848 1000.85 409.962 1000 423.5 999.898 439.867 987.784 450.59 973 451 957.979 452.579 949.592 439.151 946 423.5Z" stroke="#595959" stroke-width="2" stroke-miterlimit="8" stroke-dasharray="8 6" fill="none" fill-rule="evenodd"/><text fill="#071420" font-family="Aptos,Aptos_MSFontService,sans-serif" font-weight="400" font-size="21" transform="translate(892.195 430)">2</text><text fill="#071420" font-family="Aptos,Aptos_MSFontService,sans-serif" font-weight="400" font-size="21" transform="translate(967.173 433)">1</text><path d="M518 490.5C516.56 473.757 527.143 461.416 545 463 558.434 460.028 569.798 474.906 572 490.5 574.076 508.258 559.513 517.53 545 518 532.695 519.7 518.152 505.081 518 490.5Z" fill="#B8D4F0" fill-rule="evenodd"/><path d="M518 490.5C517.75 475.683 530.805 462.699 545 463 561.105 463.848 572.856 476.962 572 490.5 571.773 508.309 558.919 514.818 545 518 529.979 519.579 521.595 506.151 518 490.5Z" stroke="#595959" stroke-width="2" stroke-miterlimit="8" stroke-dasharray="8 6" fill="none" fill-rule="evenodd"/><path d="M695 491.5C694.397 475.66 705.163 462.964 722 464 735.435 461.028 746.8 475.906 749 491.5 750.744 508.849 734.834 516.551 722 519 709.693 520.7 695.152 506.081 695 491.5Z" fill="#B8D4F0" fill-rule="evenodd"/><path d="M695 491.5C694.715 476.735 707.896 463.661 722 464 738.105 464.848 749.855 477.962 749 491.5 748.898 507.867 736.784 518.59 722 519 706.979 520.579 698.592 507.151 695 491.5Z" stroke="#595959" stroke-width="2" stroke-miterlimit="8" stroke-dasharray="8 6" fill="none" fill-rule="evenodd"/><text fill="#071420" font-family="Aptos,Aptos_MSFontService,sans-serif" font-weight="400" font-size="21" transform="translate(541.307 498)">1</text><text fill="#071420" font-family="Aptos,Aptos_MSFontService,sans-serif" font-weight="400" font-size="21" transform="translate(716.751 500)">2</text><path d="M869 493.5C867.56 476.757 878.143 464.416 896 466 909.434 463.028 920.798 477.906 923 493.5 925.076 511.258 910.513 520.53 896 521 883.695 522.7 869.152 508.081 869 493.5Z" fill="#B8D4F0" fill-rule="evenodd"/><path d="M869 493.5C868.75 478.683 881.805 465.699 896 466 912.105 466.848 923.856 479.962 923 493.5 922.773 511.309 909.919 517.818 896 521 880.979 522.579 872.595 509.151 869 493.5Z" stroke="#595959" stroke-width="2" stroke-miterlimit="8" stroke-dasharray="8 6" fill="none" fill-rule="evenodd"/><path d="M946 494.5C945.397 478.66 956.163 465.964 973 467 986.435 464.028 997.8 478.906 1000 494.5 1001.74 511.849 985.834 519.551 973 522 960.693 523.7 946.152 509.081 946 494.5Z" fill="#B8D4F0" fill-rule="evenodd"/><path d="M946 494.5C945.715 479.735 958.896 466.661 973 467 989.105 467.848 1000.85 480.962 1000 494.5 999.898 510.867 987.784 521.59 973 522 957.979 523.579 949.592 510.151 946 494.5Z" stroke="#595959" stroke-width="2" stroke-miterlimit="8" stroke-dasharray="8 6" fill="none" fill-rule="evenodd"/><text fill="#071420" font-family="Aptos,Aptos_MSFontService,sans-serif" font-weight="400" font-size="21" transform="translate(892.195 500)">2</text><text fill="#071420" font-family="Aptos,Aptos_MSFontService,sans-serif" font-weight="400" font-size="21" transform="translate(967.173 504)">1</text><path d="M518 556.5C516.56 539.757 527.143 527.416 545 529 558.434 526.028 569.798 540.906 572 556.5 574.076 574.258 559.513 583.53 545 584 532.695 585.7 518.152 571.081 518 556.5Z" fill="#B8D4F0" fill-rule="evenodd"/><path d="M518 556.5C517.75 541.683 530.805 528.699 545 529 561.105 529.848 572.856 542.962 572 556.5 571.773 574.309 558.919 580.818 545 584 529.979 585.579 521.595 572.151 518 556.5Z" stroke="#595959" stroke-width="2" stroke-miterlimit="8" stroke-dasharray="8 6" fill="none" fill-rule="evenodd"/><path d="M695 556.5C694.397 540.66 705.163 527.964 722 529 735.435 526.028 746.8 540.906 749 556.5 750.744 573.849 734.834 581.551 722 584 709.693 585.7 695.152 571.081 695 556.5Z" fill="#B8D4F0" fill-rule="evenodd"/><path d="M695 556.5C694.715 541.735 707.896 528.661 722 529 738.105 529.848 749.855 542.962 749 556.5 748.898 572.867 736.784 583.59 722 584 706.979 585.579 698.592 572.151 695 556.5Z" stroke="#595959" stroke-width="2" stroke-miterlimit="8" stroke-dasharray="8 6" fill="none" fill-rule="evenodd"/><text fill="#071420" font-family="Aptos,Aptos_MSFontService,sans-serif" font-weight="400" font-size="21" transform="translate(541.307 564)">1</text><text fill="#071420" font-family="Aptos,Aptos_MSFontService,sans-serif" font-weight="400" font-size="21" transform="translate(716.751 566)">2</text><path d="M869 558.5C867.56 541.757 878.143 529.416 896 531 909.434 528.028 920.798 542.906 923 558.5 925.076 576.258 910.513 585.53 896 586 883.695 587.7 869.152 573.081 869 558.5Z" fill="#B8D4F0" fill-rule="evenodd"/><path d="M869 558.5C868.75 543.683 881.805 530.699 896 531 912.105 531.848 923.856 544.962 923 558.5 922.773 576.309 909.919 582.818 896 586 880.979 587.579 872.595 574.151 869 558.5Z" stroke="#595959" stroke-width="2" stroke-miterlimit="8" stroke-dasharray="8 6" fill="none" fill-rule="evenodd"/><path d="M946 560.5C945.397 544.66 956.163 531.964 973 533 986.435 530.028 997.8 544.906 1000 560.5 1001.74 577.849 985.834 585.551 973 588 960.693 589.7 946.152 575.081 946 560.5Z" fill="#B8D4F0" fill-rule="evenodd"/><path d="M946 560.5C945.715 545.735 958.896 532.661 973 533 989.105 533.848 1000.85 546.962 1000 560.5 999.898 576.867 987.784 587.59 973 588 957.979 589.579 949.592 576.151 946 560.5Z" stroke="#595959" stroke-width="2" stroke-miterlimit="8" stroke-dasharray="8 6" fill="none" fill-rule="evenodd"/><text fill="#071420" font-family="Aptos,Aptos_MSFontService,sans-serif" font-weight="400" font-size="21" transform="translate(892.195 566)">2</text><text fill="#071420" font-family="Aptos,Aptos_MSFontService,sans-serif" font-weight="400" font-size="21" transform="translate(967.173 569)">1</text><path d="M518 624.5C516.56 607.757 527.143 595.416 545 597 558.434 594.028 569.798 608.906 572 624.5 574.076 642.258 559.513 651.53 545 652 532.695 653.7 518.152 639.081 518 624.5Z" fill="#B8D4F0" fill-rule="evenodd"/><path d="M518 624.5C517.75 609.683 530.805 596.699 545 597 561.105 597.848 572.856 610.962 572 624.5 571.773 642.309 558.919 648.818 545 652 529.979 653.579 521.595 640.151 518 624.5Z" stroke="#595959" stroke-width="2" stroke-miterlimit="8" stroke-dasharray="8 6" fill="none" fill-rule="evenodd"/><path d="M695 624.5C694.397 608.66 705.163 595.964 722 597 735.435 594.028 746.8 608.906 749 624.5 750.744 641.849 734.834 649.551 722 652 709.693 653.7 695.152 639.081 695 624.5Z" fill="#B8D4F0" fill-rule="evenodd"/><path d="M695 624.5C694.715 609.735 707.896 596.661 722 597 738.105 597.848 749.855 610.962 749 624.5 748.898 640.867 736.784 651.59 722 652 706.979 653.579 698.592 640.151 695 624.5Z" stroke="#595959" stroke-width="2" stroke-miterlimit="8" stroke-dasharray="8 6" fill="none" fill-rule="evenodd"/><text fill="#071420" font-family="Aptos,Aptos_MSFontService,sans-serif" font-weight="400" font-size="21" transform="translate(541.307 632)">1</text><text fill="#071420" font-family="Aptos,Aptos_MSFontService,sans-serif" font-weight="400" font-size="21" transform="translate(716.751 634)">2</text><path d="M869 626.5C867.56 609.757 878.143 597.416 896 599 909.434 596.028 920.798 610.906 923 626.5 925.076 644.258 910.513 653.53 896 654 883.695 655.7 869.152 641.081 869 626.5Z" fill="#B8D4F0" fill-rule="evenodd"/><path d="M869 626.5C868.75 611.683 881.805 598.699 896 599 912.105 599.848 923.856 612.962 923 626.5 922.773 644.309 909.919 650.818 896 654 880.979 655.579 872.595 642.151 869 626.5Z" stroke="#595959" stroke-width="2" stroke-miterlimit="8" stroke-dasharray="8 6" fill="none" fill-rule="evenodd"/><path d="M946 628.5C945.397 612.66 956.163 599.964 973 601 986.435 598.028 997.8 612.906 1000 628.5 1001.74 645.849 985.834 653.551 973 656 960.693 657.7 946.152 643.081 946 628.5Z" fill="#B8D4F0" fill-rule="evenodd"/><path d="M946 628.5C945.715 613.735 958.896 600.661 973 601 989.105 601.848 1000.85 614.962 1000 628.5 999.898 644.867 987.784 655.59 973 656 957.979 657.579 949.592 644.151 946 628.5Z" stroke="#595959" stroke-width="2" stroke-miterlimit="8" stroke-dasharray="8 6" fill="none" fill-rule="evenodd"/><text fill="#071420" font-family="Aptos,Aptos_MSFontService,sans-serif" font-weight="400" font-size="21" transform="translate(892.195 634)">2</text><text fill="#071420" font-family="Aptos,Aptos_MSFontService,sans-serif" font-weight="400" font-size="21" transform="translate(967.173 637)">1</text></g></svg>