<svg width="1280" height="720" xmlns="http://www.w3.org/2000/svg" xmlns:xlink="http://www.w3.org/1999/xlink" overflow="hidden"><g><rect x="0" y="0" width="1280" height="720" fill="#FFFFFF"/><path d="M33 568C48.9174 568.45 70.3213 570.826 102.824 568 135.326 565.174 176.517 570.843 196.387 568 216.257 565.157 233.604 567.512 254.341 568 275.077 568.488 300.13 565.966 324.164 568 348.199 570.034 358.284 568.972 382.118 568 405.951 567.028 417.074 569.676 451.941 568 486.808 566.324 481.285 569.545 498.025 568 514.764 566.455 541.259 568.284 567.848 568 594.438 567.716 624.681 565.733 661.412 568 698.143 570.267 686.765 568.084 695.625 568 704.486 567.916 731.783 566.683 753.579 568 775.375 569.317 810.877 568.428 835.272 568 859.667 567.572 864.862 569.553 893.226 568 921.59 566.447 948.802 567.137 974.919 568 1001.04 568.863 992.612 569.187 1009.13 568 1025.65 566.813 1040.83 566.953 1067.09 568 1093.35 569.047 1187.13 564.318 1220 568 1220.77 573.892 1219.29 582.197 1220 587 1198.71 588.875 1195.85 589.27 1173.92 587 1151.98 584.73 1150.6 588.372 1139.7 587 1128.81 585.628 1089.03 588.767 1069.88 587 1050.73 585.233 1046.42 587.616 1035.67 587 1024.92 586.384 1009.79 588.096 989.582 587 969.378 585.904 954.104 587.292 943.499 587 932.894 586.708 886.68 585.133 849.935 587 813.19 588.867 814.321 588.479 803.852 587 793.382 585.521 745.175 589.279 710.288 587 675.401 584.721 666.558 587.491 652.335 587 638.112 586.509 593.74 591.199 558.771 587 523.802 582.801 502.131 588.05 477.078 587 452.025 585.95 439.468 584.797 407.254 587 375.041 589.203 361.855 587.291 325.561 587 289.267 586.709 273.364 587.982 243.867 587 214.37 586.018 208.07 587.035 197.784 587 187.497 586.965 147.823 584.441 116.09 587 84.3572 589.559 64.5494 590.136 33 587 32.1045 581.895 33.1414 575.066 33 568Z" stroke="#000000" stroke-width="2" stroke-miterlimit="8" fill="none" fill-rule="evenodd"/><path d="M33 549C52.1136 549.58 77.2679 546.177 104.2 549 131.132 551.823 170.545 548.344 196.76 549 222.975 549.656 228.24 549.592 257.28 549 286.32 548.408 307.066 547.024 328.48 549 349.894 550.976 373.104 550.023 389 549 404.896 547.977 439.706 549.885 460.2 549 480.694 548.115 485.7 550.66 510.04 549 534.38 547.34 563.982 545.474 581.24 549 598.497 552.526 637.751 548.302 673.8 549 709.849 549.698 701.633 548.936 712.96 549 724.287 549.064 758.547 550.38 773.48 549 788.413 547.62 824.292 547.428 855.36 549 886.428 550.572 898.018 548.059 915.88 549 933.742 549.941 960.543 548.016 997.76 549 1034.98 549.984 1020.77 549.985 1036.92 549 1053.07 548.015 1079.61 546.901 1101 549 1100.1 554.516 1101.52 561.244 1101 568 1086.85 569.334 1063.96 571.02 1040.48 568 1017 564.98 996.69 569.518 969.28 568 941.87 566.482 940.542 569.857 930.12 568 919.698 566.143 876.196 568.794 858.92 568 841.644 567.206 837.85 568.679 819.76 568 801.67 567.321 786.098 566.891 769.92 568 753.742 569.109 739.444 568.998 720.08 568 700.716 567.002 650.977 570.524 627.52 568 604.063 565.476 592.092 568.191 577.68 568 563.268 567.809 508.261 571.173 485.12 568 461.979 564.827 436.78 565.767 424.6 568 412.42 570.233 377.165 572.458 332.04 568 286.915 563.542 284.868 567.777 250.16 568 215.452 568.223 202.701 566.637 178.96 568 155.219 569.363 121.485 564.944 97.08 568 72.6753 571.056 49.5623 564.908 33 568 33.1811 563.37 32.6614 555.11 33 549Z" stroke="#000000" stroke-width="2" stroke-miterlimit="8" fill="none" fill-rule="evenodd"/><path d="M33 528C67.2776 525.084 69.9621 525.138 106.077 528 142.192 530.862 156.344 527.21 198.154 528 239.964 528.79 248.803 530.612 261.731 528 274.658 525.388 316.802 531.608 334.808 528 352.813 524.392 373.301 527.943 398.385 528 423.468 528.057 436.865 527.852 471.462 528 506.058 528.148 499.232 528.066 525.538 528 551.845 527.934 577.108 530.511 598.615 528 620.123 525.489 659.943 526.273 690.692 528 721.441 529.727 715.776 529.277 735.269 528 754.763 526.723 774.987 530.918 798.846 528 822.705 525.082 844.92 524.071 881.423 528 917.926 531.929 945.877 532.532 983 528 983.738 532.007 982.39 541.382 983 547 968.147 546.389 930.907 545.856 909.923 547 888.939 548.144 857.169 544.107 817.846 547 778.523 549.893 748.366 543.739 725.769 547 703.172 550.261 678.53 547.877 633.692 547 588.855 546.123 578.618 550.52 560.615 547 542.612 543.48 529.502 546.338 516.038 547 502.575 547.662 463.471 546.547 442.962 547 422.452 547.453 416.965 548.471 398.385 547 379.804 545.529 356.733 546.522 344.308 547 331.882 547.478 301.989 546.048 290.231 547 278.473 547.952 226.861 545.733 198.154 547 169.447 548.267 168.285 548.539 144.077 547 119.869 545.461 57.9475 548.978 33 547 33.4545 538.13 32.2858 533.461 33 528Z" stroke="#000000" stroke-width="2" stroke-miterlimit="8" fill="none" fill-rule="evenodd"/><path d="M33 506C58.0295 504.795 69.1592 504.513 102.25 506 135.341 507.487 151.571 502.474 188.12 506 224.669 509.526 225.873 506.292 249.06 506 272.247 505.708 303.966 508.439 318.31 506 332.654 503.561 361.059 503.279 379.25 506 397.441 508.721 430.537 508.218 448.5 506 466.463 503.782 476.58 506.251 501.13 506 525.68 505.749 540.995 502.815 570.38 506 599.765 509.185 625.977 506.208 656.25 506 686.523 505.792 690.509 504.395 700.57 506 710.631 507.605 732.903 507.986 761.51 506 790.117 504.014 829.675 500.951 864 506 863.082 510.872 864.297 516.859 864 525 851.688 525.937 815.7 527.683 803.06 525 790.42 522.317 769.227 522.967 750.43 525 731.633 527.033 700.298 523.867 664.56 525 628.822 526.133 618.346 527.521 578.69 525 539.034 522.479 519.116 528.658 492.82 525 466.524 521.342 455.479 527.389 423.57 525 391.661 522.611 389.52 524.729 379.25 525 368.98 525.271 343.696 526.335 310 525 276.304 523.665 277.94 526.768 265.68 525 253.42 523.232 231.335 523.401 213.05 525 194.765 526.599 173.293 525.807 160.42 525 147.547 524.193 91.7129 518.997 33 525 32.4356 519.437 32.6554 511.742 33 506Z" stroke="#000000" stroke-width="2" stroke-miterlimit="8" fill="none" fill-rule="evenodd"/><path d="M33 485C52.1136 485.55 77.2679 482.325 104.2 485 131.132 487.675 166.912 483.361 189.64 485 212.368 486.639 236.845 485.392 253.72 485 270.595 484.608 303.506 483.128 324.92 485 346.334 486.872 374.597 482.408 389 485 403.403 487.592 439.706 485.838 460.2 485 480.694 484.162 493.833 487.59 517.16 485 540.487 482.41 571.102 481.66 588.36 485 605.617 488.34 656.213 488.747 673.8 485 691.387 481.253 727.144 484.092 745 485 744.698 490.071 744.997 495.597 745 503 729.463 499.744 691.783 500.27 673.8 503 655.817 505.73 625.745 501.003 609.72 503 593.695 504.997 572.621 500.941 552.76 503 532.899 505.059 508.741 505.513 495.8 503 482.859 500.487 432.579 503.645 410.36 503 388.141 502.355 344.54 506.841 324.92 503 305.3 499.159 275.09 504.674 239.48 503 203.87 501.326 195.69 504.438 168.28 503 140.87 501.562 136.562 504.25 118.44 503 100.318 501.75 52.8361 505.787 33 503 33.0849 495.457 33.6513 489.391 33 485Z" stroke="#000000" stroke-width="2" stroke-miterlimit="8" fill="none" fill-rule="evenodd"/><path d="M33 464C59.7217 463.785 70.5993 462.237 98.8889 464 127.179 465.763 142.55 465.412 176.638 464 210.726 462.588 207.51 462.193 236.597 464 265.683 465.807 270.978 461.759 302.486 464 333.993 466.241 332.498 465.633 362.444 464 392.391 462.367 412.819 461.173 428.333 464 443.847 466.827 456.589 465.633 482.362 464 508.135 462.367 515.385 461.27 548.251 464 581.117 466.73 601.822 467.518 626 464 626.394 468.287 625.273 479.17 626 483 604.223 485.769 573.361 485.901 554.181 483 535.001 480.099 504.574 485.422 488.292 483 472.011 480.578 451.402 485.645 428.333 483 405.264 480.355 389.935 484.764 374.304 483 358.674 481.236 340.916 485.692 320.276 483 299.635 480.308 275.073 483.376 242.527 483 209.981 482.624 183.997 480.174 164.778 483 145.558 485.826 84.227 479.039 33 483 33.3497 477.109 33.0635 469.373 33 464Z" stroke="#000000" stroke-width="2" stroke-miterlimit="8" fill="none" fill-rule="evenodd"/><path d="M33 444C64.6517 444.002 70.4481 440.92 100.857 444 131.266 447.08 158.176 445.505 178.214 444 198.252 442.495 212.972 444.593 241.321 444 269.671 443.407 281.553 445.322 309.179 444 336.804 442.678 344.875 444.32 372.286 444 399.696 443.68 425.356 446.744 440.143 444 454.93 441.256 485.189 444.261 508 444 508.196 451.147 508.441 453.581 508 463 490.889 459.829 470.781 461.867 435.393 463 400.005 464.133 378.08 463.424 362.786 463 347.491 462.576 327.145 461.302 304.429 463 281.712 464.698 250.413 465.918 236.571 463 222.73 460.082 199.106 465.249 173.464 463 147.823 460.751 129.173 463.299 115.107 463 101.042 462.701 62.4495 465.944 33 463 33.3917 453.63 32.2281 451.408 33 444Z" stroke="#000000" stroke-width="2" stroke-miterlimit="8" fill="none" fill-rule="evenodd"/><path d="M33 423C52.1136 423.58 77.2679 420.177 104.2 423 131.132 425.823 158.994 425.207 182.52 423 206.046 420.793 230.491 423.592 250.16 423 269.829 422.408 299.946 421.024 321.36 423 342.774 424.976 355.792 424.023 389 423 389.586 428.953 388.554 434.883 389 442 373.801 439.344 344.41 440.565 321.36 442 298.31 443.435 287.518 442.489 260.84 442 234.162 441.511 212.144 442.998 193.2 442 174.256 441.002 148.96 442.789 118.44 442 87.9203 441.211 74.8797 443.065 33 442 33.8249 435.991 32.262 432.293 33 423Z" stroke="#000000" stroke-width="2" stroke-miterlimit="8" fill="none" fill-rule="evenodd"/><path d="M33 402C60.3211 400.791 71.1437 404.546 92.25 402 113.356 399.454 137.496 401.344 156.24 402 174.984 402.656 184.763 402.771 213.12 402 241.477 401.229 255.444 402.172 270 402 269.154 411.233 270.737 415.071 270 421 255.778 419.547 241.266 420.303 215.49 421 189.714 421.697 180.847 422.13 153.87 421 126.893 419.87 118.405 422.98 101.73 421 85.0552 419.02 57.8272 418.12 33 421 32.3645 413.198 33.2249 406.562 33 402Z" stroke="#000000" stroke-width="2" stroke-miterlimit="8" fill="none" fill-rule="evenodd"/><path d="M33 384C60.4364 382.854 71.3046 386.412 92.5 384 113.695 381.588 128.315 383.831 152 384 152.023 391.298 151.289 398.394 152 402 135.641 403.568 109.88 403.983 96.07 402 82.2595 400.017 51.5549 400.905 33 402 32.2676 394.335 32.8035 389.829 33 384Z" stroke="#000000" stroke-width="2" stroke-miterlimit="8" fill="none" fill-rule="evenodd"/><path d="M33 363C38.7196 362.665 40.4782 362.696 45 363 44.4661 368.245 44.1949 374.266 45 382 42.0372 381.876 37.7754 382.064 33 382 33.7119 377.573 32.3995 370.347 33 363Z" stroke="#000000" stroke-width="2" stroke-miterlimit="8" fill="none" fill-rule="evenodd"/></g></svg>