<svg width="1280" height="720" xmlns="http://www.w3.org/2000/svg" xmlns:xlink="http://www.w3.org/1999/xlink" overflow="hidden"><g><rect x="0" y="0" width="1280" height="720" fill="#FFFFFF"/><path d="M291 146.5C291.114 135.982 299.966 129.726 309 129 316.998 128.269 327.4 135.44 327 146.5 328.635 155.09 318.72 164.562 309 164 298.931 164.419 292.374 154.963 291 146.5Z" stroke="#000000" stroke-width="2" stroke-miterlimit="8" fill="none" fill-rule="evenodd"/><path d="M1080 390.5C1080.12 378.873 1089.21 371.73 1098.5 371 1107.94 370.713 1117.54 377.895 1117 390.5 1118.68 400.19 1108.49 410.564 1098.5 410 1087.53 412.388 1082.05 399.517 1080 390.5Z" fill="#F6C6AD" fill-rule="evenodd"/><path d="M1080 390.5C1080.19 379.904 1087.69 370.69 1098.5 371 1109.78 372.866 1116.16 378.588 1117 390.5 1115.05 399.994 1106.39 409.87 1098.5 410 1088.24 410.801 1080.56 400.593 1080 390.5Z" stroke="#000000" stroke-width="2" stroke-miterlimit="8" fill="none" fill-rule="evenodd"/><path d="M132 523.5C132.114 512.982 140.966 506.726 150 506 157.998 505.269 168.4 512.44 168 523.5 169.635 532.09 159.72 541.562 150 541 139.931 541.419 133.374 531.963 132 523.5Z" stroke="#000000" stroke-width="2" stroke-miterlimit="8" fill="none" fill-rule="evenodd"/><path d="M79.2583 68.626C89.0258 64.4672 98.3785 70.0852 102.7 78.1105 106.627 85.5414 104.632 97.6042 93.8 101.781 86.5248 106.767 73.764 101.475 70.3579 92.296 64.1192 83.4037 71.8816 73.2675 79.2583 68.626Z" stroke="#000000" stroke-width="2" stroke-miterlimit="8" fill="none" fill-rule="evenodd"/><path d="M343 104.5C343.114 93.9817 351.966 87.7264 361 87 368.998 86.2693 379.4 93.4396 379 104.5 380.635 113.09 370.72 122.562 361 122 350.931 122.419 344.374 112.963 343 104.5Z" stroke="#000000" stroke-width="2" stroke-miterlimit="8" fill="none" fill-rule="evenodd"/><path d="M400 114.5C400.114 102.873 408.966 95.7297 418 95 427.183 94.7134 436.524 101.895 436 114.5 437.635 124.19 427.72 134.564 418 134 407.331 136.388 401.994 123.517 400 114.5Z" stroke="#000000" stroke-width="2" stroke-miterlimit="8" fill="none" fill-rule="evenodd"/><path d="M195.841 586.36C185.239 587.207 178.135 578.914 176.583 569.932 175.12 561.988 181.395 550.915 192.569 550.305 201.071 547.882 211.51 556.947 211.828 566.733 213.165 576.78 204.239 584.211 195.841 586.36Z" stroke="#000000" stroke-width="2" stroke-miterlimit="8" fill="none" fill-rule="evenodd"/><path d="M282.255 91.4503C292.814 92.7264 298.129 102.266 297.866 111.377 297.722 119.453 289.372 129.059 278.299 127.437 269.486 128.122 261.056 117.164 262.688 107.51 263.373 97.3982 273.598 91.8886 282.255 91.4503Z" stroke="#000000" stroke-width="2" stroke-miterlimit="8" fill="none" fill-rule="evenodd"/><path d="M481 154.5C481.117 143.982 490.215 137.726 499.5 137 507.721 136.269 518.411 143.44 518 154.5 519.681 163.09 509.49 172.562 499.5 172 489.151 172.419 482.412 162.963 481 154.5Z" stroke="#000000" stroke-width="2" stroke-miterlimit="8" fill="none" fill-rule="evenodd"/><path d="M541.238 153.487C547.032 143.485 557.48 143.393 565.605 146.729 572.986 149.96 578.624 161.355 572.866 170.951 569.35 179.41 556.029 183.53 548.499 177.71 539.447 173.196 538.311 161.647 541.238 153.487Z" stroke="#000000" stroke-width="2" stroke-miterlimit="8" fill="none" fill-rule="evenodd"/><path d="M424 396.5C424.114 385.982 432.966 379.726 442 379 449.998 378.269 460.4 385.44 460 396.5 461.635 405.09 451.72 414.562 442 414 431.931 414.419 425.374 404.963 424 396.5Z" stroke="#000000" stroke-width="2" stroke-miterlimit="8" fill="none" fill-rule="evenodd"/><path d="M291 55.0001C291.081 44.9856 301.95 39.645 311 38 320.182 37.2787 331.209 44.8622 331 55.0001 332.569 63.3278 321.69 72.9265 311 72.0001 299.372 73.958 291.424 64.0075 291 55.0001Z" stroke="#000000" stroke-width="2" stroke-miterlimit="8" fill="none" fill-rule="evenodd"/><path d="M533 112.5C533.114 101.982 541.966 95.7264 551 95 558.998 94.2693 569.4 101.44 569 112.5 570.635 121.09 560.72 130.562 551 130 540.931 130.419 534.374 120.963 533 112.5Z" stroke="#000000" stroke-width="2" stroke-miterlimit="8" fill="none" fill-rule="evenodd"/><path d="M590 122.5C590.236 109.958 599.305 104.001 608 103 617.181 102.713 626.525 109.895 626 122.5 627.007 132.606 617.372 143.446 608 142 597.33 144.388 591.999 131.517 590 122.5Z" stroke="#000000" stroke-width="2" stroke-miterlimit="8" fill="none" fill-rule="evenodd"/><path d="M373.412 558.602C378.654 549.347 389.503 548.113 397.812 551.862 405.21 555.103 410.863 566.506 405.105 576.102 402.346 584.501 388.988 588.064 380.705 582.843 371.636 578.319 370.485 566.762 373.412 558.602Z" fill="#A6CAEC" fill-rule="evenodd"/><path d="M373.412 558.602C378.213 550.289 388.701 546.474 397.812 551.862 406.565 557.188 409.672 566.19 405.105 576.102 399.33 582.61 387.528 586.46 380.705 582.843 371.661 578.48 370.874 566.264 373.412 558.602Z" stroke="#000000" stroke-width="2" stroke-miterlimit="8" fill="none" fill-rule="evenodd"/><path d="M423 570C423.114 559.181 431.966 552.747 441 552 448.998 551.248 459.4 558.624 459 570 460.635 578.835 450.72 588.578 441 588 430.931 588.431 424.374 578.705 423 570Z" fill="#A6CAEC" fill-rule="evenodd"/><path d="M423 570C423.183 560.237 430.479 551.682 441 552 451.18 552.439 458.211 558.927 459 570 457.1 578.635 448.677 587.867 441 588 431.03 588.562 424.473 578.071 423 570Z" stroke="#000000" stroke-width="2" stroke-miterlimit="8" fill="none" fill-rule="evenodd"/><path d="M1043 571.5C1043.11 560.982 1051.97 554.726 1061 554 1069 553.269 1079.4 560.44 1079 571.5 1080.64 580.09 1070.72 589.562 1061 589 1050.93 589.419 1044.37 579.963 1043 571.5Z" fill="#A6CAEC" fill-rule="evenodd"/><path d="M1043 571.5C1043.18 562.008 1050.48 553.691 1061 554 1071.18 554.427 1078.21 560.735 1079 571.5 1077.1 579.895 1068.68 588.871 1061 589 1051.03 589.546 1044.47 579.347 1043 571.5Z" stroke="#000000" stroke-width="2" stroke-miterlimit="8" fill="none" fill-rule="evenodd"/><path d="M1009.68 587.893C999.7 584.211 996.735 573.701 999.097 564.897 1001.11 557.073 1011.45 549.658 1021.85 553.797 1030.58 555.167 1036.25 567.778 1032.43 576.793 1029.42 586.472 1018.2 589.469 1009.68 587.893Z" fill="#A6CAEC" fill-rule="evenodd"/><path d="M1009.68 587.893C1000.7 584.494 995.247 574.757 999.097 564.897 1002.94 555.401 1011.33 550.886 1021.85 553.797 1029.2 558.449 1034.9 569.477 1032.43 576.793 1029.58 586.421 1017.65 589.165 1009.68 587.893Z" stroke="#000000" stroke-width="2" stroke-miterlimit="8" fill="none" fill-rule="evenodd"/><path d="M185.746 539.614C176.214 534.896 174.378 524.131 177.659 515.627 180.484 508.06 191.556 501.782 201.457 506.997 209.996 509.285 214.297 522.425 209.543 530.985 205.531 540.292 194.055 542.083 185.746 539.614Z" stroke="#000000" stroke-width="2" stroke-miterlimit="8" fill="none" fill-rule="evenodd"/><path d="M157 481.5C157.114 470.982 165.966 464.726 175 464 182.998 463.269 193.4 470.44 193 481.5 194.635 490.09 184.72 499.562 175 499 164.931 499.419 158.374 489.963 157 481.5Z" stroke="#000000" stroke-width="2" stroke-miterlimit="8" fill="none" fill-rule="evenodd"/><path d="M461 479.5C461.081 469.78 471.95 464.597 481 463 490.182 462.3 501.209 469.66 501 479.5 502.569 487.583 491.69 496.899 481 496 469.372 497.9 461.424 488.243 461 479.5Z" fill="#F6C6AD" fill-rule="evenodd"/><path d="M461 479.5C462.382 471.689 469.485 462.75 481 463 492.182 463.243 500.292 469.402 501 479.5 500.637 488.371 489.766 495.87 481 496 469.856 497.87 462.154 487.19 461 479.5Z" stroke="#000000" stroke-width="2" stroke-miterlimit="8" fill="none" fill-rule="evenodd"/><path d="M460.335 420.934C472.63 418.843 480.205 426.219 482.708 434.022 484.898 440.699 477.791 452.402 466.63 454.353 457.417 457.8 445.373 450.375 444.258 441.265 441.568 431.932 450.043 423.188 460.335 420.934Z" stroke="#000000" stroke-width="2" stroke-miterlimit="8" fill="none" fill-rule="evenodd"/><path d="M213.138 497.932C203.606 493.213 201.77 482.449 205.051 473.945 207.876 466.378 218.947 460.099 228.849 465.315 237.387 467.603 241.688 480.743 236.935 489.302 232.922 498.609 221.447 500.401 213.138 497.932Z" stroke="#000000" stroke-width="2" stroke-miterlimit="8" fill="none" fill-rule="evenodd"/><path d="M219 523.5C219.081 513.78 229.95 508.597 239 507 248.182 506.3 259.209 513.66 259 523.5 260.569 531.583 249.69 540.899 239 540 227.372 541.9 219.424 532.243 219 523.5Z" stroke="#000000" stroke-width="2" stroke-miterlimit="8" fill="none" fill-rule="evenodd"/><path d="M718.621 145.164C708.9 140.847 706.617 130.169 709.541 121.535 712.048 113.857 722.848 107.122 732.958 111.92 741.584 113.85 746.43 126.799 742.038 135.55 738.417 145.016 727.026 147.284 718.621 145.164Z" stroke="#000000" stroke-width="2" stroke-miterlimit="8" fill="none" fill-rule="evenodd"/><path d="M896 82.5C896.236 69.9575 905.305 64.0011 914 63 923.181 62.7134 932.525 69.8949 932 82.5 933.007 92.6059 923.372 103.446 914 102 903.33 104.388 897.999 91.5169 896 82.5Z" stroke="#000000" stroke-width="2" stroke-miterlimit="8" fill="none" fill-rule="evenodd"/><path d="M381.906 540.557C370.767 534.946 369.045 524.514 371.659 516.749 373.857 510.074 386.521 504.868 396.663 509.919 406.125 512.609 411.416 525.732 406.909 533.728 403.538 542.836 391.529 544.848 381.906 540.557Z" stroke="#000000" stroke-width="2" stroke-miterlimit="8" fill="none" fill-rule="evenodd"/><path d="M714 480C714.114 469.181 722.966 462.747 732 462 739.998 461.248 750.4 468.624 750 480 751.635 488.835 741.72 498.578 732 498 721.931 498.431 715.374 488.705 714 480Z" fill="#E59EDD" fill-rule="evenodd"/><path d="M714 480C714.183 470.237 721.479 461.682 732 462 742.18 462.439 749.211 468.927 750 480 748.1 488.635 739.677 497.867 732 498 722.03 498.562 715.473 488.071 714 480Z" stroke="#000000" stroke-width="2" stroke-miterlimit="8" fill="none" fill-rule="evenodd"/><path d="M764.153 130.942C769.395 121.687 780.245 120.453 788.553 124.202 795.952 127.443 801.605 138.846 795.846 148.442 793.088 156.84 779.729 160.404 771.447 155.182 762.377 150.659 761.226 139.101 764.153 130.942Z" stroke="#000000" stroke-width="2" stroke-miterlimit="8" fill="none" fill-rule="evenodd"/><path d="M667 569C667.117 558.181 676.215 551.747 685.5 551 693.721 550.248 704.411 557.624 704 569 705.681 577.835 695.49 587.578 685.5 587 675.151 587.431 668.412 577.705 667 569Z" fill="#A6CAEC" fill-rule="evenodd"/><path d="M667 569C667.188 559.237 674.687 550.682 685.5 551 695.963 551.439 703.189 557.927 704 569 702.048 577.635 693.391 586.867 685.5 587 675.253 587.562 668.514 577.071 667 569Z" stroke="#000000" stroke-width="2" stroke-miterlimit="8" fill="none" fill-rule="evenodd"/><path d="M379 397C379.114 386.181 387.966 379.747 397 379 404.998 378.248 415.4 385.624 415 397 416.635 405.835 406.72 415.578 397 415 386.931 415.431 380.374 405.705 379 397Z" stroke="#000000" stroke-width="2" stroke-miterlimit="8" fill="none" fill-rule="evenodd"/><path d="M421 525.5C421.114 513.873 429.966 506.73 439 506 448.183 505.713 457.524 512.895 457 525.5 458.635 535.19 448.72 545.564 439 545 428.331 547.388 422.994 534.517 421 525.5Z" fill="#E59EDD" fill-rule="evenodd"/><path d="M421 525.5C421.183 514.904 428.479 505.69 439 506 449.98 507.866 456.184 513.588 457 525.5 455.1 534.994 446.677 544.87 439 545 429.017 545.801 421.546 535.593 421 525.5Z" stroke="#000000" stroke-width="2" stroke-miterlimit="8" fill="none" fill-rule="evenodd"/><path d="M328 479.5C328.114 468.982 336.966 462.726 346 462 353.998 461.269 364.4 468.44 364 479.5 365.635 488.09 355.72 497.562 346 497 335.931 497.419 329.374 487.963 328 479.5Z" fill="#B4E5A2" fill-rule="evenodd"/><path d="M328 479.5C328.183 470.008 335.479 461.691 346 462 356.18 462.427 363.211 468.735 364 479.5 362.1 487.895 353.677 496.871 346 497 336.03 497.546 329.473 487.347 328 479.5Z" stroke="#000000" stroke-width="2" stroke-miterlimit="8" fill="none" fill-rule="evenodd"/><path d="M381.886 496.003C372.354 491.284 370.518 480.52 373.799 472.016 376.624 464.448 387.695 458.17 397.596 463.386 406.135 465.674 410.436 478.814 405.683 487.373 401.67 496.68 390.195 498.472 381.886 496.003Z" fill="#B4E5A2" fill-rule="evenodd"/><path d="M381.886 496.003C373.319 491.672 368.926 481.412 373.799 472.016 378.631 462.98 387.445 459.378 397.596 463.386 404.415 468.791 408.916 480.361 405.683 487.373 401.83 496.646 389.677 498.111 381.886 496.003Z" stroke="#000000" stroke-width="2" stroke-miterlimit="8" fill="none" fill-rule="evenodd"/><path d="M353 438C353.114 427.181 361.966 420.747 371 420 378.998 419.248 389.4 426.624 389 438 390.635 446.835 380.72 456.578 371 456 360.931 456.431 354.374 446.705 353 438Z" stroke="#000000" stroke-width="2" stroke-miterlimit="8" fill="none" fill-rule="evenodd"/><path d="M409.278 454.321C399.745 449.602 397.91 438.837 401.191 430.333 404.016 422.766 415.087 416.488 424.988 421.704 433.527 423.991 437.828 437.131 433.075 445.691 429.062 454.998 417.587 456.789 409.278 454.321Z" stroke="#000000" stroke-width="2" stroke-miterlimit="8" fill="none" fill-rule="evenodd"/><path d="M415 479.5C415.081 469.78 425.95 464.597 435 463 444.182 462.3 455.209 469.66 455 479.5 456.569 487.583 445.69 496.899 435 496 423.372 497.9 415.424 488.243 415 479.5Z" fill="#E59EDD" fill-rule="evenodd"/><path d="M415 479.5C416.382 471.689 423.485 462.75 435 463 446.182 463.243 454.292 469.402 455 479.5 454.637 488.371 443.766 495.87 435 496 423.856 497.87 416.154 487.19 415 479.5Z" stroke="#000000" stroke-width="2" stroke-miterlimit="8" fill="none" fill-rule="evenodd"/><path d="M723.627 368.599C712.489 362.988 710.766 352.557 713.381 344.791 715.578 338.117 728.243 332.911 738.384 337.962 747.847 340.652 753.137 353.775 748.631 361.77 745.26 370.879 733.25 372.89 723.627 368.599Z" stroke="#000000" stroke-width="2" stroke-miterlimit="8" fill="none" fill-rule="evenodd"/><path d="M643 313.5C643.114 302.982 651.966 296.726 661 296 668.998 295.269 679.4 302.44 679 313.5 680.635 322.09 670.72 331.562 661 331 650.931 331.419 644.374 321.963 643 313.5Z" stroke="#000000" stroke-width="2" stroke-miterlimit="8" fill="none" fill-rule="evenodd"/><path d="M717 525.5C717.114 513.873 725.966 506.73 735 506 744.182 505.713 753.524 512.895 753 525.5 754.635 535.19 744.72 545.564 735 545 724.331 547.388 718.994 534.517 717 525.5Z" fill="#E59EDD" fill-rule="evenodd"/><path d="M717 525.5C717.183 514.904 724.479 505.69 735 506 745.98 507.866 752.184 513.588 753 525.5 751.1 534.994 742.677 544.87 735 545 725.017 545.801 717.546 535.593 717 525.5Z" stroke="#000000" stroke-width="2" stroke-miterlimit="8" fill="none" fill-rule="evenodd"/><path d="M753 436.5C753.114 425.982 761.966 419.726 771 419 778.998 418.269 789.4 425.44 789 436.5 790.635 445.09 780.72 454.562 771 454 760.931 454.419 754.374 444.963 753 436.5Z" fill="#F6C6AD" fill-rule="evenodd"/><path d="M753 436.5C753.183 427.008 760.479 418.691 771 419 781.18 419.427 788.211 425.735 789 436.5 787.1 444.895 778.677 453.871 771 454 761.03 454.546 754.473 444.347 753 436.5Z" stroke="#000000" stroke-width="2" stroke-miterlimit="8" fill="none" fill-rule="evenodd"/><path d="M624.84 586.077C615.308 581.358 613.472 570.594 616.753 562.09 619.578 554.523 630.65 548.244 640.551 553.46 649.089 555.748 653.391 568.888 648.637 577.447 644.625 586.754 633.149 588.546 624.84 586.077Z" fill="#A6CAEC" fill-rule="evenodd"/><path d="M624.84 586.077C616.273 581.746 611.881 571.487 616.753 562.09 621.585 553.054 630.4 549.452 640.551 553.46 647.37 558.865 651.87 570.435 648.637 577.447 644.784 586.72 632.631 588.185 624.84 586.077Z" stroke="#000000" stroke-width="2" stroke-miterlimit="8" fill="none" fill-rule="evenodd"/><path d="M734 394.5C734.114 383.982 742.966 377.726 752 377 759.998 376.269 770.4 383.44 770 394.5 771.635 403.09 761.72 412.562 752 412 741.931 412.419 735.374 402.963 734 394.5Z" stroke="#000000" stroke-width="2" stroke-miterlimit="8" fill="none" fill-rule="evenodd"/><path d="M701.49 329.116C691.958 324.398 690.123 313.633 693.404 305.129 696.228 297.562 707.3 291.284 717.201 296.499 725.74 298.787 730.041 311.927 725.287 320.487 721.275 329.794 709.799 331.585 701.49 329.116Z" stroke="#000000" stroke-width="2" stroke-miterlimit="8" fill="none" fill-rule="evenodd"/><path d="M715 569.5C715.081 559.78 725.95 554.597 735 553 744.182 552.3 755.209 559.66 755 569.5 756.569 577.583 745.69 586.899 735 586 723.372 587.9 715.424 578.243 715 569.5Z" fill="#A6CAEC" fill-rule="evenodd"/><path d="M715 569.5C716.382 561.689 723.485 552.75 735 553 746.182 553.243 754.292 559.402 755 569.5 754.637 578.37 743.766 585.87 735 586 723.856 587.87 716.154 577.19 715 569.5Z" stroke="#000000" stroke-width="2" stroke-miterlimit="8" fill="none" fill-rule="evenodd"/><path d="M1061 350C1061.24 337.136 1070.31 331.027 1079 330 1088.18 329.706 1097.53 337.072 1097 350 1098.01 360.365 1088.37 371.483 1079 370 1068.33 372.449 1063 359.248 1061 350Z" stroke="#000000" stroke-width="2" stroke-miterlimit="8" fill="none" fill-rule="evenodd"/><path d="M1041 530.5C1041.11 519.982 1049.97 513.726 1059 513 1067 512.269 1077.4 519.44 1077 530.5 1078.64 539.09 1068.72 548.562 1059 548 1048.93 548.419 1042.37 538.963 1041 530.5Z" fill="#E59EDD" fill-rule="evenodd"/><path d="M1041 530.5C1041.18 521.008 1048.48 512.691 1059 513 1069.18 513.427 1076.21 519.735 1077 530.5 1075.1 538.895 1066.68 547.871 1059 548 1049.03 548.546 1042.47 538.347 1041 530.5Z" stroke="#000000" stroke-width="2" stroke-miterlimit="8" fill="none" fill-rule="evenodd"/><path d="M1043 303C1043.12 292.181 1052.21 285.747 1061.5 285 1069.72 284.248 1080.41 291.624 1080 303 1081.68 311.835 1071.49 321.578 1061.5 321 1051.15 321.431 1044.41 311.705 1043 303Z" stroke="#000000" stroke-width="2" stroke-miterlimit="8" fill="none" fill-rule="evenodd"/><path d="M981.243 73.8442C970.105 68.2335 968.383 57.8018 970.997 50.036 973.195 43.3618 985.859 38.1558 996.001 43.2068 1005.46 45.8969 1010.75 59.0199 1006.25 67.015 1002.88 76.1239 990.866 78.1354 981.243 73.8442Z" stroke="#000000" stroke-width="2" stroke-miterlimit="8" fill="none" fill-rule="evenodd"/><path d="M999 227.5C999.114 216.982 1007.97 210.726 1017 210 1025 209.269 1035.4 216.44 1035 227.5 1036.64 236.09 1026.72 245.562 1017 245 1006.93 245.419 1000.37 235.963 999 227.5Z" stroke="#000000" stroke-width="2" stroke-miterlimit="8" fill="none" fill-rule="evenodd"/><path d="M1041 484.5C1041.11 472.873 1049.97 465.73 1059 465 1068.18 464.713 1077.52 471.895 1077 484.5 1078.64 494.19 1068.72 504.564 1059 504 1048.33 506.388 1042.99 493.517 1041 484.5Z" fill="#E59EDD" fill-rule="evenodd"/><path d="M1041 484.5C1041.18 473.904 1048.48 464.69 1059 465 1069.98 466.866 1076.18 472.588 1077 484.5 1075.1 493.994 1066.68 503.87 1059 504 1049.02 504.801 1041.55 494.593 1041 484.5Z" stroke="#000000" stroke-width="2" stroke-miterlimit="8" fill="none" fill-rule="evenodd"/><path d="M1041 438C1041.11 427.181 1049.97 420.747 1059 420 1067 419.248 1077.4 426.624 1077 438 1078.64 446.835 1068.72 456.578 1059 456 1048.93 456.431 1042.37 446.705 1041 438Z" fill="#E59EDD" fill-rule="evenodd"/><path d="M1041 438C1041.18 428.237 1048.48 419.682 1059 420 1069.18 420.439 1076.21 426.927 1077 438 1075.1 446.635 1066.68 455.867 1059 456 1049.03 456.562 1042.47 446.071 1041 438Z" stroke="#000000" stroke-width="2" stroke-miterlimit="8" fill="none" fill-rule="evenodd"/><path d="M909.504 587.154C899.972 582.435 898.137 571.671 901.417 563.166 904.242 555.599 915.314 549.321 925.215 554.537 933.754 556.824 938.055 569.964 933.301 578.524 929.289 587.831 917.813 589.622 909.504 587.154Z" fill="#A6CAEC" fill-rule="evenodd"/><path d="M909.504 587.154C900.937 582.823 896.545 572.563 901.417 563.166 906.249 554.131 915.064 550.529 925.215 554.537 932.034 559.942 936.534 571.511 933.301 578.524 929.448 587.797 917.295 589.262 909.504 587.154Z" stroke="#000000" stroke-width="2" stroke-miterlimit="8" fill="none" fill-rule="evenodd"/><path d="M1020 263.5C1020.12 252.982 1029.21 246.726 1038.5 246 1046.72 245.269 1057.41 252.44 1057 263.5 1058.68 272.09 1048.49 281.562 1038.5 281 1028.15 281.419 1021.41 271.963 1020 263.5Z" stroke="#000000" stroke-width="2" stroke-miterlimit="8" fill="none" fill-rule="evenodd"/><path d="M962.294 249.86C952.762 245.142 950.927 234.377 954.208 225.873 957.033 218.306 968.104 212.028 978.005 217.243 986.544 219.531 990.845 232.671 986.092 241.231 982.079 250.538 970.604 252.329 962.294 249.86Z" stroke="#000000" stroke-width="2" stroke-miterlimit="8" fill="none" fill-rule="evenodd"/><path d="M946 570.5C946.081 560.78 956.95 555.597 966 554 975.182 553.3 986.209 560.66 986 570.5 987.569 578.583 976.69 587.899 966 587 954.372 588.9 946.424 579.243 946 570.5Z" fill="#A6CAEC" fill-rule="evenodd"/><path d="M946 570.5C947.382 562.689 954.485 553.75 966 554 977.182 554.243 985.292 560.402 986 570.5 985.637 579.37 974.766 586.87 966 587 954.856 588.87 947.154 578.19 946 570.5Z" stroke="#000000" stroke-width="2" stroke-miterlimit="8" fill="none" fill-rule="evenodd"/><path d="M666 353.5C666.114 342.982 674.966 336.726 684 336 691.998 335.269 702.4 342.44 702 353.5 703.635 362.09 693.72 371.562 684 371 673.931 371.419 667.374 361.963 666 353.5Z" stroke="#000000" stroke-width="2" stroke-miterlimit="8" fill="none" fill-rule="evenodd"/><path d="M615.932 515.153C621.173 505.898 632.023 504.664 640.331 508.413 647.73 511.654 653.383 523.057 647.625 532.653 644.866 541.052 631.507 544.615 623.225 539.394 614.155 534.87 613.005 523.312 615.932 515.153Z" stroke="#000000" stroke-width="2" stroke-miterlimit="8" fill="none" fill-rule="evenodd"/><path d="M666 526.5C666.114 515.982 674.966 509.726 684 509 691.998 508.269 702.4 515.44 702 526.5 703.635 535.09 693.72 544.562 684 544 673.931 544.419 667.374 534.963 666 526.5Z" stroke="#000000" stroke-width="2" stroke-miterlimit="8" fill="none" fill-rule="evenodd"/><path d="M704 436.5C704.081 426.78 714.95 421.597 724 420 733.182 419.3 744.209 426.66 744 436.5 745.569 444.583 734.69 453.899 724 453 712.372 454.9 704.424 445.243 704 436.5Z" fill="#E59EDD" fill-rule="evenodd"/><path d="M704 436.5C705.382 428.689 712.485 419.75 724 420 735.182 420.243 743.292 426.402 744 436.5 743.637 445.371 732.766 452.87 724 453 712.856 454.87 705.154 444.19 704 436.5Z" stroke="#000000" stroke-width="2" stroke-miterlimit="8" fill="none" fill-rule="evenodd"/><path d="M702.854 377.485C715.15 375.394 722.725 382.77 725.227 390.573 727.417 397.249 720.31 408.953 709.15 410.903 699.936 414.351 687.892 406.925 686.777 397.816 684.087 388.483 692.562 379.739 702.854 377.485Z" stroke="#000000" stroke-width="2" stroke-miterlimit="8" fill="none" fill-rule="evenodd"/><path d="M624.425 497.108C613.287 491.497 611.564 481.065 614.179 473.299 616.376 466.625 629.041 461.419 639.182 466.47 648.644 469.16 653.935 482.283 649.429 490.278 646.057 499.387 634.048 501.399 624.425 497.108Z" stroke="#000000" stroke-width="2" stroke-miterlimit="8" fill="none" fill-rule="evenodd"/><path d="M621 353.5C621.114 342.982 629.966 336.726 639 336 646.998 335.269 657.4 342.44 657 353.5 658.635 362.09 648.72 371.562 639 371 628.931 371.419 622.374 361.963 621 353.5Z" stroke="#000000" stroke-width="2" stroke-miterlimit="8" fill="none" fill-rule="evenodd"/><path d="M664 481.5C664.114 469.873 672.966 462.73 682 462 691.182 461.713 700.524 468.895 700 481.5 701.635 491.19 691.72 501.564 682 501 671.331 503.388 665.994 490.517 664 481.5Z" stroke="#000000" stroke-width="2" stroke-miterlimit="8" fill="none" fill-rule="evenodd"/><path d="M571 436.5C571.114 425.982 579.966 419.726 589 419 596.998 418.269 607.4 425.44 607 436.5 608.635 445.09 598.72 454.562 589 454 578.931 454.419 572.374 444.963 571 436.5Z" fill="#B4E5A2" fill-rule="evenodd"/><path d="M571 436.5C571.183 427.008 578.479 418.691 589 419 599.18 419.427 606.211 425.735 607 436.5 605.1 444.895 596.677 453.871 589 454 579.03 454.546 572.473 444.347 571 436.5Z" stroke="#000000" stroke-width="2" stroke-miterlimit="8" fill="none" fill-rule="evenodd"/><path d="M624.405 452.554C614.873 447.835 613.038 437.071 616.318 428.566 619.143 420.999 630.215 414.721 640.116 419.937 648.655 422.225 652.956 435.364 648.202 443.924 644.19 453.231 632.714 455.023 624.405 452.554Z" fill="#B4E5A2" fill-rule="evenodd"/><path d="M624.405 452.554C615.838 448.223 611.446 437.963 616.318 428.566 621.15 419.531 629.965 415.929 640.116 419.937 646.935 425.342 651.435 436.911 648.202 443.924 644.349 453.197 632.196 454.662 624.405 452.554Z" stroke="#000000" stroke-width="2" stroke-miterlimit="8" fill="none" fill-rule="evenodd"/><path d="M596 394.5C596.114 383.982 604.966 377.726 614 377 621.998 376.269 632.4 383.44 632 394.5 633.635 403.09 623.72 412.562 614 412 603.931 412.419 597.374 402.963 596 394.5Z" stroke="#000000" stroke-width="2" stroke-miterlimit="8" fill="none" fill-rule="evenodd"/><path d="M651.797 410.871C642.265 406.153 640.429 395.388 643.71 386.884 646.535 379.317 657.607 373.039 667.508 378.255 676.046 380.542 680.347 393.682 675.594 402.242 671.582 411.549 660.106 413.34 651.797 410.871Z" stroke="#000000" stroke-width="2" stroke-miterlimit="8" fill="none" fill-rule="evenodd"/><path d="M658 436.5C658.081 426.78 668.95 421.597 678 420 687.182 419.3 698.209 426.66 698 436.5 699.569 444.583 688.69 453.899 678 453 666.372 454.9 658.424 445.243 658 436.5Z" fill="#B4E5A2" fill-rule="evenodd"/><path d="M658 436.5C659.382 428.689 666.485 419.75 678 420 689.182 420.243 697.292 426.402 698 436.5 697.637 445.371 686.766 452.87 678 453 666.856 454.87 659.154 444.19 658 436.5Z" stroke="#000000" stroke-width="2" stroke-miterlimit="8" fill="none" fill-rule="evenodd"/><path d="M996 436.5C996.114 425.982 1004.97 419.726 1014 419 1022 418.269 1032.4 425.44 1032 436.5 1033.64 445.09 1023.72 454.562 1014 454 1003.93 454.419 997.374 444.963 996 436.5Z" stroke="#000000" stroke-width="2" stroke-miterlimit="8" fill="none" fill-rule="evenodd"/><path d="M950 525.5C950.114 514.982 958.966 508.726 968 508 975.998 507.269 986.4 514.44 986 525.5 987.635 534.09 977.72 543.562 968 543 957.931 543.419 951.374 533.963 950 525.5Z" stroke="#000000" stroke-width="2" stroke-miterlimit="8" fill="none" fill-rule="evenodd"/><path d="M1006.25 325.285C995.109 319.674 993.386 309.243 996.001 301.477 998.198 294.803 1010.86 289.597 1021 294.648 1030.47 297.338 1035.76 310.461 1031.25 318.456 1027.88 327.565 1015.87 329.576 1006.25 325.285Z" stroke="#000000" stroke-width="2" stroke-miterlimit="8" fill="none" fill-rule="evenodd"/><path d="M926 270C926.114 259.181 934.966 252.747 944 252 951.998 251.248 962.4 258.624 962 270 963.635 278.835 953.72 288.578 944 288 933.931 288.431 927.374 278.705 926 270Z" stroke="#000000" stroke-width="2" stroke-miterlimit="8" fill="none" fill-rule="evenodd"/><path d="M999 482C999.117 470.075 1008.21 462.748 1017.5 462 1026.94 461.706 1036.54 469.072 1036 482 1037.68 491.938 1027.49 502.579 1017.5 502 1006.53 504.449 1001.05 491.248 999 482Z" stroke="#000000" stroke-width="2" stroke-miterlimit="8" fill="none" fill-rule="evenodd"/><path d="M1035 393C1035.12 382.181 1044.21 375.747 1053.5 375 1061.72 374.248 1072.41 381.624 1072 393 1073.68 401.835 1063.49 411.578 1053.5 411 1043.15 411.431 1036.41 401.705 1035 393Z" fill="#E59EDD" fill-rule="evenodd"/><path d="M1035 393C1035.19 383.237 1042.69 374.682 1053.5 375 1063.96 375.439 1071.19 381.927 1072 393 1070.05 401.635 1061.39 410.867 1053.5 411 1043.25 411.562 1036.51 401.071 1035 393Z" stroke="#000000" stroke-width="2" stroke-miterlimit="8" fill="none" fill-rule="evenodd"/><path d="M907.46 542.763C897.928 538.044 896.092 527.28 899.373 518.776 902.198 511.208 913.27 504.93 923.171 510.146 931.709 512.434 936.01 525.574 931.257 534.133 927.245 543.44 915.769 545.232 907.46 542.763Z" stroke="#000000" stroke-width="2" stroke-miterlimit="8" fill="none" fill-rule="evenodd"/><path d="M1016 351C1016.12 340.181 1025.21 333.747 1034.5 333 1042.72 332.248 1053.41 339.624 1053 351 1054.68 359.835 1044.49 369.578 1034.5 369 1024.15 369.431 1017.41 359.705 1016 351Z" stroke="#000000" stroke-width="2" stroke-miterlimit="8" fill="none" fill-rule="evenodd"/><path d="M984.11 285.802C974.578 281.084 972.743 270.319 976.023 261.815 978.848 254.248 989.92 247.97 999.821 253.185 1008.36 255.473 1012.66 268.613 1007.91 277.173 1003.89 286.48 992.419 288.271 984.11 285.802Z" stroke="#000000" stroke-width="2" stroke-miterlimit="8" fill="none" fill-rule="evenodd"/><path d="M998 526.5C998.081 516.78 1008.95 511.597 1018 510 1027.18 509.3 1038.21 516.66 1038 526.5 1039.57 534.583 1028.69 543.899 1018 543 1006.37 544.9 998.424 535.243 998 526.5Z" stroke="#000000" stroke-width="2" stroke-miterlimit="8" fill="none" fill-rule="evenodd"/><path d="M949 310C949.114 299.181 957.966 292.747 967 292 974.998 291.248 985.4 298.624 985 310 986.635 318.835 976.72 328.578 967 328 956.931 328.431 950.374 318.705 949 310Z" stroke="#000000" stroke-width="2" stroke-miterlimit="8" fill="none" fill-rule="evenodd"/><path d="M898.552 471.839C903.793 462.584 914.643 461.35 922.951 465.099 930.35 468.34 936.003 479.743 930.245 489.339 927.486 497.738 914.127 501.301 905.845 496.08 896.775 491.556 895.625 479.998 898.552 471.839Z" stroke="#000000" stroke-width="2" stroke-miterlimit="8" fill="none" fill-rule="evenodd"/><path d="M948 483C948.114 472.181 956.966 465.747 966 465 973.998 464.248 984.4 471.624 984 483 985.635 491.835 975.72 501.578 966 501 955.931 501.431 949.374 491.705 948 483Z" stroke="#000000" stroke-width="2" stroke-miterlimit="8" fill="none" fill-rule="evenodd"/><path d="M987 393C987.081 382.986 997.95 377.645 1007 376 1016.18 375.279 1027.21 382.862 1027 393 1028.57 401.328 1017.69 410.926 1007 410 995.372 411.958 987.424 402.007 987 393Z" fill="#B4E5A2" fill-rule="evenodd"/><path d="M987 393C988.382 384.952 995.485 375.743 1007 376 1018.18 376.25 1026.29 382.596 1027 393 1026.64 402.139 1015.77 409.866 1007 410 995.856 411.926 988.154 400.923 987 393Z" stroke="#000000" stroke-width="2" stroke-miterlimit="8" fill="none" fill-rule="evenodd"/><path d="M985.474 334.171C997.77 332.08 1005.34 339.456 1007.85 347.259 1010.04 353.935 1002.93 365.639 991.77 367.589 982.556 371.037 970.512 363.611 969.397 354.502 966.707 345.169 975.182 336.425 985.474 334.171Z" stroke="#000000" stroke-width="2" stroke-miterlimit="8" fill="none" fill-rule="evenodd"/><path d="M907.045 453.794C895.907 448.183 894.184 437.751 896.799 429.985 898.996 423.311 911.661 418.105 921.802 423.156 931.264 425.846 936.555 438.969 932.049 446.964 928.677 456.073 916.668 458.085 907.045 453.794Z" stroke="#000000" stroke-width="2" stroke-miterlimit="8" fill="none" fill-rule="evenodd"/><path d="M904 310.5C904.114 299.982 912.966 293.726 922 293 929.998 292.269 940.4 299.44 940 310.5 941.635 319.09 931.72 328.562 922 328 911.931 328.419 905.374 318.963 904 310.5Z" stroke="#000000" stroke-width="2" stroke-miterlimit="8" fill="none" fill-rule="evenodd"/><path d="M946 438.5C946.117 426.873 955.215 419.73 964.5 419 973.938 418.713 983.539 425.895 983 438.5 984.681 448.19 974.49 458.564 964.5 458 953.535 460.388 948.05 447.517 946 438.5Z" stroke="#000000" stroke-width="2" stroke-miterlimit="8" fill="none" fill-rule="evenodd"/><path d="M853 393C853.117 382.181 862.215 375.747 871.5 375 879.721 374.248 890.411 381.624 890 393 891.681 401.835 881.49 411.578 871.5 411 861.151 411.431 854.412 401.705 853 393Z" fill="#B4E5A2" fill-rule="evenodd"/><path d="M853 393C853.188 383.237 860.687 374.682 871.5 375 881.963 375.439 889.189 381.927 890 393 888.048 401.635 879.391 410.867 871.5 411 861.253 411.562 854.514 401.071 853 393Z" stroke="#000000" stroke-width="2" stroke-miterlimit="8" fill="none" fill-rule="evenodd"/><path d="M907.025 409.24C897.493 404.521 895.657 393.757 898.938 385.252 901.763 377.685 912.835 371.407 922.736 376.623 931.275 378.911 935.576 392.05 930.822 400.61 926.81 409.917 915.334 411.709 907.025 409.24Z" fill="#B4E5A2" fill-rule="evenodd"/><path d="M907.025 409.24C898.458 404.909 894.066 394.649 898.938 385.252 903.77 376.217 912.585 372.615 922.736 376.623 929.555 382.028 934.055 393.597 930.822 400.61 926.969 409.883 914.816 411.348 907.025 409.24Z" stroke="#000000" stroke-width="2" stroke-miterlimit="8" fill="none" fill-rule="evenodd"/><path d="M878 351.5C878.114 340.982 886.966 334.726 896 334 903.998 333.269 914.4 340.44 914 351.5 915.635 360.09 905.72 369.562 896 369 885.931 369.419 879.374 359.963 878 351.5Z" stroke="#000000" stroke-width="2" stroke-miterlimit="8" fill="none" fill-rule="evenodd"/><path d="M934.417 367.557C924.885 362.839 923.049 352.074 926.33 343.57 929.155 336.003 940.227 329.725 950.128 334.941 958.666 337.228 962.967 350.368 958.214 358.928 954.202 368.235 942.726 370.026 934.417 367.557Z" stroke="#000000" stroke-width="2" stroke-miterlimit="8" fill="none" fill-rule="evenodd"/><path d="M940 393C940.081 382.986 950.95 377.645 960 376 969.182 375.279 980.209 382.862 980 393 981.569 401.328 970.69 410.926 960 410 948.372 411.958 940.424 402.007 940 393Z" fill="#B4E5A2" fill-rule="evenodd"/><path d="M940 393C941.382 384.952 948.485 375.743 960 376 971.182 376.25 979.292 382.596 980 393 979.637 402.139 968.766 409.866 960 410 948.856 411.926 941.154 400.923 940 393Z" stroke="#000000" stroke-width="2" stroke-miterlimit="8" fill="none" fill-rule="evenodd"/><text font-family="Calibri,Calibri_MSFontService,sans-serif" font-weight="400" font-size="37" transform="translate(176.261 646)">G</text><text font-family="Calibri,Calibri_MSFontService,sans-serif" font-weight="400" font-size="25" transform="translate(199.761 654)">1</text><text font-family="Calibri,Calibri_MSFontService,sans-serif" font-weight="400" font-size="37" transform="translate(399.065 646)">G</text><text font-family="Calibri,Calibri_MSFontService,sans-serif" font-weight="400" font-size="25" transform="translate(422.565 654)">2</text><text font-family="Calibri,Calibri_MSFontService,sans-serif" font-weight="400" font-size="37" transform="translate(667.739 646)">G</text><text font-family="Calibri,Calibri_MSFontService,sans-serif" font-weight="400" font-size="25" transform="translate(691.239 654)">3</text><text font-family="Calibri,Calibri_MSFontService,sans-serif" font-weight="400" font-size="37" transform="translate(975.966 646)">G</text><text font-family="Calibri,Calibri_MSFontService,sans-serif" font-weight="400" font-size="25" transform="translate(999.466 654)">4</text></g></svg>