<svg width="1280" height="720" xmlns="http://www.w3.org/2000/svg" xmlns:xlink="http://www.w3.org/1999/xlink" overflow="hidden"><g><rect x="0" y="0" width="1280" height="720" fill="#FFFFFF"/><path d="M367 179C367.114 168.181 375.966 161.747 385 161 392.998 160.248 403.4 167.624 403 179 404.635 187.835 394.72 197.578 385 197 374.931 197.431 368.374 187.705 367 179Z" stroke="#000000" stroke-width="2" stroke-miterlimit="8" fill="none" fill-rule="evenodd"/><path d="M119.856 194.083C109.253 194.93 102.15 186.636 100.597 177.654 99.1344 169.711 105.409 158.638 116.584 158.028 125.085 155.605 135.524 164.67 135.842 174.456 137.179 184.502 128.253 191.933 119.856 194.083Z" stroke="#000000" stroke-width="2" stroke-miterlimit="8" fill="none" fill-rule="evenodd"/><path d="M711 91C711.114 80.1811 719.966 73.7472 729 73 736.998 72.2485 747.4 79.6236 747 91 748.635 99.8354 738.72 109.578 729 109 718.931 109.431 712.374 99.7049 711 91Z" stroke="#000000" stroke-width="2" stroke-miterlimit="8" fill="none" fill-rule="evenodd"/><path d="M463.028 80.9886C468.269 71.7336 479.119 70.4994 487.428 74.2481 494.826 77.4894 500.479 88.8926 494.721 98.4884 491.962 106.887 478.603 110.451 470.321 105.229 461.252 100.705 460.101 89.1477 463.028 80.9886Z" stroke="#000000" stroke-width="2" stroke-miterlimit="8" fill="none" fill-rule="evenodd"/><path d="M244.359 485.183C234.381 481.5 231.416 470.991 233.778 462.187 235.786 454.363 246.131 446.948 256.528 451.086 265.261 452.457 270.929 465.067 267.109 474.082 264.105 483.762 252.883 486.758 244.359 485.183Z" stroke="#000000" stroke-width="2" stroke-miterlimit="8" fill="none" fill-rule="evenodd"/><path d="M420.849 195.156C411.317 190.438 409.481 179.673 412.762 171.169 415.587 163.602 426.658 157.324 436.559 162.539 445.098 164.827 449.399 177.967 444.646 186.527 440.633 195.834 429.158 197.625 420.849 195.156Z" stroke="#000000" stroke-width="2" stroke-miterlimit="8" fill="none" fill-rule="evenodd"/><path d="M412 133.5C412.114 122.982 420.966 116.726 430 116 437.998 115.269 448.4 122.44 448 133.5 449.635 142.09 439.72 151.562 430 151 419.931 151.419 413.374 141.963 412 133.5Z" stroke="#000000" stroke-width="2" stroke-miterlimit="8" fill="none" fill-rule="evenodd"/><path d="M707 179.5C707.081 169.78 717.95 164.597 727 163 736.182 162.3 747.209 169.66 747 179.5 748.569 187.583 737.69 196.899 727 196 715.372 197.9 707.424 188.243 707 179.5Z" stroke="#000000" stroke-width="2" stroke-miterlimit="8" fill="none" fill-rule="evenodd"/><path d="M725.156 120.027C737.451 117.936 745.026 125.312 747.529 133.115 749.719 139.792 742.612 151.496 731.451 153.446 722.238 156.893 710.194 149.468 709.079 140.358 706.389 131.025 714.864 122.281 725.156 120.027Z" stroke="#000000" stroke-width="2" stroke-miterlimit="8" fill="none" fill-rule="evenodd"/><path d="M468.443 150.076C458.911 145.357 457.076 134.593 460.357 126.089 463.182 118.522 474.253 112.243 484.154 117.459 492.693 119.747 496.994 132.887 492.241 141.446 488.228 150.753 476.752 152.545 468.443 150.076Z" stroke="#000000" stroke-width="2" stroke-miterlimit="8" fill="none" fill-rule="evenodd"/><path d="M454 178.5C454.081 168.78 464.95 163.597 474 162 483.182 161.3 494.209 168.66 494 178.5 495.569 186.583 484.69 195.899 474 195 462.372 196.9 454.424 187.243 454 178.5Z" stroke="#000000" stroke-width="2" stroke-miterlimit="8" fill="none" fill-rule="evenodd"/><path d="M719.97 64.3929C708.832 58.7821 707.109 48.3505 709.724 40.5847 711.922 33.9104 724.586 28.7045 734.728 33.7555 744.19 36.4455 749.481 49.5686 744.974 57.5637 741.603 66.6726 729.593 68.684 719.97 64.3929Z" stroke="#000000" stroke-width="2" stroke-miterlimit="8" fill="none" fill-rule="evenodd"/><path d="M804 403C804.114 392.181 812.966 385.747 822 385 829.998 384.248 840.4 391.624 840 403 841.635 411.835 831.72 421.578 822 421 811.931 421.431 805.374 411.705 804 403Z" stroke="#000000" stroke-width="2" stroke-miterlimit="8" fill="none" fill-rule="evenodd"/><path d="M666 91.5C666.114 80.9817 674.966 74.7264 684 74 691.998 73.2693 702.4 80.4396 702 91.5 703.635 100.09 693.72 109.562 684 109 673.931 109.419 667.374 99.9631 666 91.5Z" stroke="#000000" stroke-width="2" stroke-miterlimit="8" fill="none" fill-rule="evenodd"/><path d="M574 179.5C574.114 168.982 582.966 162.726 592 162 599.998 161.269 610.4 168.44 610 179.5 611.635 188.09 601.72 197.562 592 197 581.931 197.419 575.374 187.963 574 179.5Z" stroke="#000000" stroke-width="2" stroke-miterlimit="8" fill="none" fill-rule="evenodd"/><path d="M627.842 196.042C618.31 191.323 616.474 180.559 619.755 172.055 622.58 164.488 633.652 158.209 643.553 163.425 652.092 165.713 656.393 178.853 651.639 187.413 647.627 196.72 636.151 198.511 627.842 196.042Z" stroke="#000000" stroke-width="2" stroke-miterlimit="8" fill="none" fill-rule="evenodd"/><path d="M618 137C618.114 126.181 626.966 119.747 636 119 643.998 118.248 654.4 125.624 654 137 655.635 145.835 645.72 155.578 636 155 625.931 155.431 619.374 145.705 618 137Z" stroke="#000000" stroke-width="2" stroke-miterlimit="8" fill="none" fill-rule="evenodd"/><path d="M674.099 153.414C664.567 148.695 662.731 137.931 666.012 129.426 668.837 121.859 679.908 115.581 689.809 120.797 698.348 123.084 702.649 136.224 697.896 144.784 693.883 154.091 682.408 155.882 674.099 153.414Z" stroke="#000000" stroke-width="2" stroke-miterlimit="8" fill="none" fill-rule="evenodd"/><path d="M661 179.5C661.081 169.78 671.95 164.597 681 163 690.182 162.3 701.209 169.66 701 179.5 702.569 187.583 691.69 196.899 681 196 669.372 197.9 661.424 188.243 661 179.5Z" stroke="#000000" stroke-width="2" stroke-miterlimit="8" fill="none" fill-rule="evenodd"/><path d="M525.113 508.611C515.581 503.892 513.745 493.127 517.026 484.623 519.851 477.056 530.922 470.778 540.824 475.994 549.362 478.281 553.663 491.421 548.91 499.981 544.897 509.288 533.422 511.079 525.113 508.611Z" stroke="#000000" stroke-width="2" stroke-miterlimit="8" fill="none" fill-rule="evenodd"/><path d="M316 466.5C316.114 455.982 324.966 449.726 334 449 341.998 448.269 352.4 455.44 352 466.5 353.635 475.09 343.72 484.562 334 484 323.931 484.419 317.374 474.963 316 466.5Z" stroke="#000000" stroke-width="2" stroke-miterlimit="8" fill="none" fill-rule="evenodd"/><path d="M212 177.5C212.114 166.982 220.966 160.726 230 160 237.998 159.269 248.4 166.44 248 177.5 249.635 186.09 239.72 195.562 230 195 219.931 195.419 213.374 185.963 212 177.5Z" stroke="#000000" stroke-width="2" stroke-miterlimit="8" fill="none" fill-rule="evenodd"/><path d="M265.604 193.967C256.072 189.248 254.237 178.484 257.518 169.98 260.343 162.412 271.414 156.134 281.315 161.35 289.854 163.638 294.155 176.778 289.402 185.337 285.389 194.644 273.913 196.436 265.604 193.967Z" stroke="#000000" stroke-width="2" stroke-miterlimit="8" fill="none" fill-rule="evenodd"/><path d="M255 134C255.117 123.181 264.215 116.747 273.5 116 281.721 115.248 292.411 122.624 292 134 293.681 142.835 283.49 152.578 273.5 152 263.151 152.431 256.412 142.705 255 134Z" stroke="#000000" stroke-width="2" stroke-miterlimit="8" fill="none" fill-rule="evenodd"/><path d="M232 421.5C232.117 410.982 241.215 404.726 250.5 404 258.721 403.269 269.411 410.44 269 421.5 270.681 430.09 260.49 439.562 250.5 439 240.151 439.419 233.412 429.963 232 421.5Z" stroke="#000000" stroke-width="2" stroke-miterlimit="8" fill="none" fill-rule="evenodd"/><path d="M282.614 461.325C273.082 456.606 271.247 445.842 274.528 437.337 277.353 429.77 288.424 423.492 298.325 428.708 306.864 430.996 311.165 444.135 306.412 452.695 302.399 462.002 290.923 463.794 282.614 461.325Z" stroke="#000000" stroke-width="2" stroke-miterlimit="8" fill="none" fill-rule="evenodd"/><text font-family="Calibri,Calibri_MSFontService,sans-serif" font-weight="400" font-size="37" transform="translate(103.881 247)">T</text><text font-family="Calibri,Calibri_MSFontService,sans-serif" font-weight="400" font-size="25" transform="translate(122.047 255)">1</text><text font-family="Calibri,Calibri_MSFontService,sans-serif" font-weight="400" font-size="37" transform="translate(238.262 252)">T</text><text font-family="Calibri,Calibri_MSFontService,sans-serif" font-weight="400" font-size="25" transform="translate(256.429 260)">2</text><text font-family="Calibri,Calibri_MSFontService,sans-serif" font-weight="400" font-size="37" transform="translate(415.919 252)">T</text><text font-family="Calibri,Calibri_MSFontService,sans-serif" font-weight="400" font-size="25" transform="translate(434.086 260)">3</text><text font-family="Calibri,Calibri_MSFontService,sans-serif" font-weight="400" font-size="37" transform="translate(661.409 252)">T</text><text font-family="Calibri,Calibri_MSFontService,sans-serif" font-weight="400" font-size="25" transform="translate(679.576 260)">4</text><text font-family="Calibri,Calibri_MSFontService,sans-serif" font-weight="400" font-size="37" transform="translate(100.586 566)">F</text><text font-family="Calibri,Calibri_MSFontService,sans-serif" font-weight="400" font-size="25" transform="translate(117.753 574)">1</text><text font-family="Calibri,Calibri_MSFontService,sans-serif" font-weight="400" font-size="37" transform="translate(279.558 569)">F</text><text font-family="Calibri,Calibri_MSFontService,sans-serif" font-weight="400" font-size="25" transform="translate(296.725 577)">2</text><text font-family="Calibri,Calibri_MSFontService,sans-serif" font-weight="400" font-size="37" transform="translate(495.156 577)">F</text><text font-family="Calibri,Calibri_MSFontService,sans-serif" font-weight="400" font-size="25" transform="translate(512.323 585)">3</text><text font-family="Calibri,Calibri_MSFontService,sans-serif" font-weight="400" font-size="37" transform="translate(767.666 575)">F</text><text font-family="Calibri,Calibri_MSFontService,sans-serif" font-weight="400" font-size="25" transform="translate(784.833 583)">4</text><path d="M285.433 505.81C275.455 502.127 272.49 491.617 274.852 482.813 276.86 474.99 287.204 467.575 297.602 471.713 306.335 473.083 312.003 485.694 308.182 494.709 305.178 504.388 293.957 507.385 285.433 505.81Z" stroke="#000000" stroke-width="2" stroke-miterlimit="8" fill="none" fill-rule="evenodd"/><path d="M281.339 417.169C271.807 412.451 269.971 401.686 273.252 393.182 276.077 385.615 287.149 379.337 297.05 384.552 305.589 386.84 309.889 399.98 305.136 408.54 301.124 417.847 289.648 419.638 281.339 417.169Z" stroke="#000000" stroke-width="2" stroke-miterlimit="8" fill="none" fill-rule="evenodd"/><path d="M133.613 443.97C124.081 439.252 122.246 428.487 125.527 419.983 128.352 412.416 139.423 406.138 149.324 411.353 157.863 413.641 162.164 426.781 157.41 435.341 153.398 444.648 141.922 446.439 133.613 443.97Z" stroke="#000000" stroke-width="2" stroke-miterlimit="8" fill="none" fill-rule="evenodd"/><path d="M122 470C122.081 459.986 132.95 454.645 142 453 151.182 452.279 162.209 459.862 162 470 163.569 478.328 152.69 487.926 142 487 130.372 488.958 122.424 479.007 122 470Z" stroke="#000000" stroke-width="2" stroke-miterlimit="8" fill="none" fill-rule="evenodd"/><path d="M90.183 486.78C80.2049 483.097 77.24 472.587 79.6021 463.784 81.6099 455.96 91.9543 448.545 102.352 452.683 111.085 454.054 116.753 466.664 112.933 475.679 109.928 485.359 98.7069 488.355 90.183 486.78Z" stroke="#000000" stroke-width="2" stroke-miterlimit="8" fill="none" fill-rule="evenodd"/><path d="M78 428C78.1141 417.181 86.9656 410.747 96.0001 410 103.998 409.248 114.4 416.624 114 428 115.635 436.835 105.72 446.578 96.0001 446 85.9306 446.431 79.3739 436.705 78 428Z" stroke="#000000" stroke-width="2" stroke-miterlimit="8" fill="none" fill-rule="evenodd"/><path d="M325.823 441.157C316.291 436.438 314.456 425.673 317.737 417.169 320.562 409.602 331.633 403.324 341.534 408.54 350.073 410.827 354.374 423.967 349.621 432.527 345.608 441.834 334.133 443.625 325.823 441.157Z" stroke="#000000" stroke-width="2" stroke-miterlimit="8" fill="none" fill-rule="evenodd"/><path d="M815.419 510.972C805.887 506.253 804.052 495.489 807.332 486.984 810.157 479.417 821.229 473.139 831.13 478.355 839.669 480.643 843.97 493.782 839.216 502.342 835.204 511.649 823.728 513.44 815.419 510.972Z" stroke="#000000" stroke-width="2" stroke-miterlimit="8" fill="none" fill-rule="evenodd"/><path d="M808.751 438.583C813.992 429.328 824.842 428.094 833.151 431.843 840.549 435.084 846.202 446.487 840.444 456.083 837.685 464.482 824.326 468.045 816.044 462.824 806.975 458.3 805.824 446.743 808.751 438.583Z" stroke="#000000" stroke-width="2" stroke-miterlimit="8" fill="none" fill-rule="evenodd"/><path d="M571.609 447.649C561.631 443.966 558.666 433.457 561.028 424.653 563.036 416.829 573.38 409.414 583.778 413.552 592.511 414.923 598.179 427.533 594.359 436.548 591.354 446.228 580.133 449.224 571.609 447.649Z" stroke="#000000" stroke-width="2" stroke-miterlimit="8" fill="none" fill-rule="evenodd"/><path d="M562 475C562.114 464.181 570.966 457.747 580 457 587.998 456.248 598.4 463.624 598 475 599.635 483.835 589.72 493.578 580 493 569.931 493.431 563.374 483.705 562 475Z" stroke="#000000" stroke-width="2" stroke-miterlimit="8" fill="none" fill-rule="evenodd"/><path d="M525.285 420.769C515.753 416.05 513.918 405.286 517.199 396.782 520.023 389.214 531.095 382.936 540.996 388.152 549.535 390.44 553.836 403.579 549.082 412.139 545.07 421.446 533.594 423.238 525.285 420.769Z" stroke="#000000" stroke-width="2" stroke-miterlimit="8" fill="none" fill-rule="evenodd"/><path d="M439.566 489.2C429.587 485.517 426.623 475.007 428.985 466.204 430.992 458.38 441.337 450.965 451.734 455.103 460.468 456.474 466.136 469.084 462.315 478.099 459.311 487.779 448.089 490.775 439.566 489.2Z" stroke="#000000" stroke-width="2" stroke-miterlimit="8" fill="none" fill-rule="evenodd"/><path d="M428 425.5C428.114 414.982 436.966 408.726 446 408 453.998 407.269 464.4 414.44 464 425.5 465.635 434.09 455.72 443.562 446 443 435.931 443.419 429.374 433.963 428 425.5Z" stroke="#000000" stroke-width="2" stroke-miterlimit="8" fill="none" fill-rule="evenodd"/><path d="M477.821 465.342C468.288 460.623 466.453 449.859 469.734 441.354 472.559 433.787 483.63 427.509 493.531 432.725 502.07 435.012 506.371 448.152 501.618 456.712 497.605 466.019 486.13 467.81 477.821 465.342Z" stroke="#000000" stroke-width="2" stroke-miterlimit="8" fill="none" fill-rule="evenodd"/><path d="M480.639 509.827C470.661 506.144 467.696 495.634 470.058 486.83 472.066 479.007 482.41 471.591 492.808 475.73 501.541 477.1 507.209 489.711 503.389 498.726 500.384 508.405 489.163 511.402 480.639 509.827Z" stroke="#000000" stroke-width="2" stroke-miterlimit="8" fill="none" fill-rule="evenodd"/><path d="M476.545 421.186C467.013 416.467 465.178 405.703 468.459 397.199 471.283 389.632 482.355 383.354 492.256 388.569 500.795 390.857 505.096 403.997 500.342 412.557 496.33 421.864 484.854 423.655 476.545 421.186Z" stroke="#000000" stroke-width="2" stroke-miterlimit="8" fill="none" fill-rule="evenodd"/><path d="M524.242 465.871C514.71 461.152 512.874 450.388 516.155 441.884 518.98 434.317 530.052 428.038 539.953 433.254 548.491 435.542 552.792 448.682 548.039 457.242 544.027 466.548 532.551 468.34 524.242 465.871Z" stroke="#000000" stroke-width="2" stroke-miterlimit="8" fill="none" fill-rule="evenodd"/><path d="M769.416 509.505C759.884 504.786 758.048 494.021 761.329 485.517 764.154 477.95 775.226 471.672 785.127 476.888 793.666 479.175 797.967 492.315 793.213 500.875 789.201 510.182 777.725 511.973 769.416 509.505Z" stroke="#000000" stroke-width="2" stroke-miterlimit="8" fill="none" fill-rule="evenodd"/><path d="M860.2 445.637C850.222 441.954 847.257 431.444 849.619 422.641 851.627 414.817 861.971 407.402 872.369 411.54 881.102 412.911 886.77 425.521 882.95 434.536 879.945 444.216 868.724 447.212 860.2 445.637Z" stroke="#000000" stroke-width="2" stroke-miterlimit="8" fill="none" fill-rule="evenodd"/><path d="M850 473C850.114 462.181 858.966 455.747 868 455 875.998 454.248 886.4 461.624 886 473 887.635 481.835 877.72 491.578 868 491 857.931 491.431 851.374 481.705 850 473Z" stroke="#000000" stroke-width="2" stroke-miterlimit="8" fill="none" fill-rule="evenodd"/><path d="M769.588 421.663C760.056 416.944 758.221 406.18 761.502 397.676 764.327 390.108 775.398 383.83 785.299 389.046 793.838 391.334 798.139 404.474 793.386 413.033 789.373 422.34 777.898 424.132 769.588 421.663Z" stroke="#000000" stroke-width="2" stroke-miterlimit="8" fill="none" fill-rule="evenodd"/><path d="M683.869 490.094C673.891 486.411 670.926 475.901 673.288 467.098 675.296 459.274 685.64 451.859 696.038 455.997 704.771 457.368 710.439 469.978 706.619 478.993 703.614 488.673 692.393 491.669 683.869 490.094Z" stroke="#000000" stroke-width="2" stroke-miterlimit="8" fill="none" fill-rule="evenodd"/><path d="M672 426C672.114 415.181 680.966 408.747 690 408 697.998 407.248 708.4 414.624 708 426 709.635 434.835 699.72 444.578 690 444 679.931 444.431 673.374 434.705 672 426Z" stroke="#000000" stroke-width="2" stroke-miterlimit="8" fill="none" fill-rule="evenodd"/><path d="M722.124 466.236C712.592 461.517 710.756 450.753 714.037 442.248 716.862 434.681 727.933 428.403 737.834 433.619 746.373 435.907 750.674 449.046 745.921 457.606 741.908 466.913 730.433 468.705 722.124 466.236Z" stroke="#000000" stroke-width="2" stroke-miterlimit="8" fill="none" fill-rule="evenodd"/><path d="M724.942 510.721C714.964 507.038 711.999 496.528 714.361 487.724 716.369 479.901 726.713 472.486 737.111 476.624 745.844 477.994 751.512 490.605 747.692 499.62 744.687 509.299 733.466 512.296 724.942 510.721Z" stroke="#000000" stroke-width="2" stroke-miterlimit="8" fill="none" fill-rule="evenodd"/><path d="M720.848 422.08C711.316 417.362 709.481 406.597 712.762 398.093 715.587 390.526 726.658 384.248 736.559 389.463 745.098 391.751 749.399 404.891 744.646 413.451 740.633 422.758 729.158 424.549 720.848 422.08Z" stroke="#000000" stroke-width="2" stroke-miterlimit="8" fill="none" fill-rule="evenodd"/><path d="M768.545 466.765C759.013 462.047 757.178 451.282 760.459 442.778 763.284 435.211 774.355 428.933 784.256 434.148 792.795 436.436 797.096 449.576 792.342 458.136 788.33 467.443 776.854 469.234 768.545 466.765Z" stroke="#000000" stroke-width="2" stroke-miterlimit="8" fill="none" fill-rule="evenodd"/></g></svg>