<svg width="1280" height="720" xmlns="http://www.w3.org/2000/svg" xmlns:xlink="http://www.w3.org/1999/xlink" overflow="hidden"><g><rect x="0" y="0" width="1280" height="720" fill="#FFFFFF"/><text font-family="Calibri,Calibri_MSFontService,sans-serif" font-weight="700" font-size="48" transform="translate(134.669 453)">A</text><text font-family="Calibri,Calibri_MSFontService,sans-serif" font-weight="700" font-size="48" transform="translate(655.534 256)">B</text><text font-family="Calibri,Calibri_MSFontService,sans-serif" font-weight="700" font-size="48" transform="translate(1055.33 424)">C</text><path d="M0 0C29.9002 1.4421 48.5365-1.55591 75.0298 0 101.523 1.55591 122.658-1.80651 154.307 0 185.955 1.80651 187.742 1.84367 212.348 0 236.955-1.84367 241.4 0.0491339 270.39 0 299.381-0.0491339 317.301-2.80514 336.926 0 356.551 2.80514 386.012 1.92567 424.697 0 424.581 1.80829 424.552 3.46299 424.697 4.7999 392.495 2.68325 385.639 2.62709 358.161 4.7999 330.683 6.9727 316.582 5.88178 291.625 4.7999 266.668 3.71801 258.3 5.34551 229.336 4.7999 200.373 4.25428 193.918 6.43055 167.047 4.7999 140.177 3.16924 112.617 6.59045 87.7707 4.7999 62.9248 3.00934 33.7027 9.17984 0 4.7999 0.124829 2.77575 0.230446 2.06194 0 0Z" fill="#D1D1D1" fill-rule="evenodd" transform="matrix(0.955644 -0.294526 -0.294526 -0.955644 238.58 423.333)"/><path d="M0 0C26.1006 0.119895 37.0288-1.44798 58.0419 0 79.055 1.44798 108.957-0.272231 128.825 0 148.692 0.272231 170.645-3.27034 199.608 0 228.57 3.27034 248.289-1.87045 266.143 0 283.998 1.87045 310.477-0.701942 336.926 0 363.376 0.701942 382.776 3.73018 424.697 0 424.867 2.29858 424.606 2.6274 424.697 4.7999 392.241 5.68819 381.853 1.91412 349.667 4.7999 317.481 7.68567 313.764 3.76042 283.131 4.7999 252.498 5.83937 234.077 4.99192 216.595 4.7999 199.114 4.60787 177.516 6.07486 145.813 4.7999 114.11 3.52493 102.969 8.40063 70.7828 4.7999 38.5967 1.19916 15.4568 2.66814 0 4.7999-0.16378 3.25501 0.125039 2.33207 0 0Z" stroke="#000000" stroke-width="2" stroke-miterlimit="8" fill="none" fill-rule="evenodd" transform="matrix(0.955644 -0.294526 -0.294526 -0.955644 238.58 423.333)"/><path d="M229.561 406.498C241.351 396.198 261.675 376.825 275.772 357.578 289.869 338.331 312.656 315.541 323.76 306.777 334.865 298.012 350.571 276.985 362.862 265.383 375.153 253.781 392.335 238.462 407.296 218.345 408.566 219.295 409.095 220.324 410.785 221.641 392.69 238.468 386.015 249.441 371.683 263.034 357.351 276.628 348.971 285.117 329.027 308.191 309.083 331.265 290.318 344.809 281.039 358.992 271.76 373.175 249.99 393.496 233.05 409.794 231.798 408.934 231.112 407.859 229.561 406.498Z" fill="#D1D1D1" fill-rule="evenodd"/><path d="M229.561 406.498C242.191 393.599 265.428 372.004 273.995 359.459 282.561 346.915 296.648 335.259 314.874 316.184 333.1 297.11 343.105 288.796 361.085 267.264 379.065 245.733 396.204 229.572 407.296 218.345 408.479 219.465 409.459 220.456 410.785 221.641 395.136 237.43 388.041 249.242 368.129 266.798 348.217 284.353 337.224 295.519 325.472 311.954 313.721 328.39 289.509 348.281 281.039 358.992 272.568 369.704 256.16 389.362 233.05 409.794 231.467 408.495 230.848 408.005 229.561 406.498Z" stroke="#000000" stroke-width="2" stroke-miterlimit="8" fill="none" fill-rule="evenodd"/><path d="M0 0C35.0328-0.171339 53.9805 1.62856 71.9398 0 89.8992-1.62856 124.303 0.382887 145.975 0 167.647-0.382887 192.35-2.55223 209.533 0 209.607 2.38373 209.586 3.07202 209.533 4.79989 187.312 7.43265 164.762 7.31601 141.784 4.79989 118.806 2.28378 100.693 7.68976 71.9398 4.79989 43.1866 1.91003 20.6277 6.79118 0 4.79989 0.109711 3.49638 0.171339 1.17942 0 0Z" fill="#D1D1D1" fill-rule="evenodd" transform="matrix(0.823864 -0.566788 -0.566788 -0.823864 235.901 415.98)"/><path d="M0 0C25.8927 3.33123 40.3765 2.55759 71.9398 0 103.503-2.55759 118.294 2.76735 145.975 0 173.656-2.76735 181.861-1.1747 209.533 0 209.42 1.14677 209.409 3.46404 209.533 4.79989 177.247 3.79223 155.702 3.17186 135.498 4.79989 115.295 6.42793 82.2419 5.22467 61.4631 4.79989 40.6843 4.37512 30.6539 4.26236 0 4.79989 0.155591 3.6315-0.19874 0.99916 0 0Z" stroke="#000000" stroke-width="2" stroke-miterlimit="8" fill="none" fill-rule="evenodd" transform="matrix(0.823864 -0.566788 -0.566788 -0.823864 235.901 415.98)"/><path d="M0 0C15.2225-1.13995 55.9052-1.7579 70.0954 0 84.2857 1.7579 122.924-3.11318 137.442 0 137.643 1.54478 137.525 3.17239 137.442 4.7999 121.983 4.83244 94.5215 6.35864 67.3467 4.7999 40.1719 3.24115 22.6117 7.60619 0 4.7999-0.0389501 3.1599 0.134383 1.20094 0 0Z" fill="#D1D1D1" fill-rule="evenodd" transform="matrix(0.994645 -0.103348 -0.103348 -0.994645 237.662 429.747)"/><path d="M0 0C29.1524 0.530289 36.3141-0.32336 64.5978 0 92.8815 0.32336 121.416-1.34205 137.442 0 137.313 1.14037 137.366 3.5537 137.442 4.7999 103.274 7.94037 87.2353 6.44661 65.9722 4.7999 44.7091 3.15318 30.2776 2.31076 0 4.7999 0.230446 3.50184 0.024042 2.13165 0 0Z" stroke="#000000" stroke-width="2" stroke-miterlimit="8" fill="none" fill-rule="evenodd" transform="matrix(0.994645 -0.103348 -0.103348 -0.994645 237.662 429.747)"/><path d="M0 0C18.9391-1.74919 45.2114 0.154436 60.6018 0 75.9921-0.154436 109.646 0.0205774 122.969 0 136.291-0.0205774 151.997 0.44294 176.51 0 176.288 1.62593 176.756 3.70257 176.51 5.03402 160.411 5.1768 143.552 5.01837 119.438 5.03402 95.3244 5.04966 84.9069 7.95937 60.6018 5.03402 36.2967 2.10866 23.5713 5.54373 0 5.03402 0.167244 3.42215 0.0369554 1.35748 0 0Z" fill="#D1D1D1" fill-rule="evenodd" transform="matrix(0.992502 0.122224 0.122224 -0.992502 235.599 434.744)"/><path d="M0 0C27.7967-1.17701 34.3922-2.08063 60.6018 0 86.8113 2.08063 103.767-1.36294 122.969 0 142.17 1.36294 162.534 0.218793 176.51 0 176.444 1.92567 176.665 3.38856 176.51 5.03402 151.526 7.22961 127.948 3.34457 114.143 5.03402 100.338 6.72346 69.0694 5.69543 51.7763 5.03402 34.4832 4.3726 21.3141 2.73732 0 5.03402-0.233701 3.83423-0.127664 1.84095 0 0Z" stroke="#000000" stroke-width="2" stroke-miterlimit="8" fill="none" fill-rule="evenodd" transform="matrix(0.992502 0.122224 0.122224 -0.992502 235.599 434.744)"/><path d="M0 0C21.3479 1.78971 29.7164 1.55034 57.2239 0 84.7314-1.55034 89.5243 1.50604 116.115 0 142.705-1.50604 145.897-0.747716 166.672 0 166.745 2.38373 166.724 3.07202 166.672 4.79989 146.388 2.6063 135.956 3.59475 112.781 4.79989 89.6065 6.00504 75.6261 4.91076 57.2239 4.79989 38.8217 4.68903 12.2297 4.34436 0 4.79989 0.109711 3.49638 0.171339 1.17942 0 0Z" fill="#D1D1D1" fill-rule="evenodd" transform="matrix(0.997915 -0.0645419 -0.0645419 -0.997915 819.353 399.329)"/><path d="M0 0C23.3131 2.11139 44.4782 1.39297 57.2239 0 69.9697-1.39297 91.492 1.55643 116.115 0 140.737-1.55643 146.19 1.19433 166.672 0 166.558 1.14677 166.547 3.46404 166.672 4.79989 146.878 4.46509 125.851 3.30362 107.781 4.79989 89.7113 6.29617 64.7125 2.54037 48.8904 4.79989 33.0682 7.05942 18.8363 6.27013 0 4.79989 0.155591 3.6315-0.19874 0.99916 0 0Z" stroke="#000000" stroke-width="2" stroke-miterlimit="8" fill="none" fill-rule="evenodd" transform="matrix(0.997915 -0.0645419 -0.0645419 -0.997915 819.353 399.329)"/><path d="M696 291C731.106 292.275 751.99 293.765 768.443 291 784.896 288.235 820.702 290.761 842.997 291 865.292 291.239 888.638 294.105 907 291 907.073 293.483 907.052 294.2 907 296 884.682 292.446 867.684 295.231 838.777 296 809.869 296.769 793.415 292.613 768.443 296 743.472 299.387 712.151 295.577 696 296 696.11 294.642 696.171 292.229 696 291Z" fill="#D1D1D1" fill-rule="evenodd"/><path d="M696 291C721.537 291.46 752.344 293.043 768.443 291 784.542 288.957 817.754 290.384 842.997 291 868.239 291.616 888.489 291.361 907 291 906.887 292.195 906.875 294.608 907 296 884.519 293.738 857.897 292.116 832.447 296 806.996 299.884 794.872 294.297 757.893 296 720.915 297.703 721.657 297.474 696 296 696.155 294.783 695.802 292.041 696 291Z" stroke="#000000" stroke-width="2" stroke-miterlimit="8" fill="none" fill-rule="evenodd"/><path d="M0 0C14.4039 2.3137 46.9393-1.87433 62.9976 0 79.0559 1.87433 108.219 2.80924 128.995 0 149.771-2.80924 168.523-2.15906 179.993 0 191.463 2.15906 219.969-0.250499 230.991 0 242.013 0.250499 270.272 1.49438 299.988 0 299.924 2.36787 299.844 2.43076 299.988 4.7999 286.533 2.95339 264.094 7.69417 239.991 4.7999 215.887 1.90562 191.441 3.13659 173.993 4.7999 156.545 6.4632 131.984 4.06982 116.995 4.7999 102.007 5.52997 81.8189 4.39192 62.9976 4.7999 44.1763 5.20798 30.5156 2.5053 0 4.7999-0.101207 2.40493 0.0108136 1.39633 0 0Z" fill="#D1D1D1" fill-rule="evenodd" transform="matrix(0.965582 0.260099 0.260099 -0.965582 692.647 301.79)"/><path d="M0 0C29.1529 2.12126 41.3306-2.97029 59.9977 0 78.6648 2.97029 98.2781 2.79675 125.995 0 153.712-2.79675 176.603-1.4252 191.993 0 207.382 1.4252 276.587 5.28808 299.988 0 299.891 1.34562 299.793 2.70047 299.988 4.7999 280.082 3.3389 265.362 6.43108 236.991 4.7999 208.62 3.16871 207.655 6.33606 179.993 4.7999 152.331 3.26373 146.956 7.28462 122.995 4.7999 99.0343 2.31517 81.7176 5.45669 56.9978 4.7999 32.278 4.1431 24.4811 6.76766 0 4.7999-0.106037 2.63034 0.128714 2.17795 0 0Z" stroke="#000000" stroke-width="2" stroke-miterlimit="8" fill="none" fill-rule="evenodd" transform="matrix(0.965582 0.260099 0.260099 -0.965582 692.647 301.79)"/><path d="M0 0C18.7541 0.418688 26.7936 2.18856 51.3278 0 75.8619-2.18856 90.7866-1.09606 104.15 0 117.514 1.09606 129.659-2.18562 149.498 0 149.571 2.38373 149.55 3.07202 149.498 4.79989 135.928 5.15706 125.234 6.86499 101.161 4.79989 77.0867 2.7348 73.1961 7.26194 51.3278 4.79989 29.4594 2.33785 17.3648 5.98184 0 4.79989 0.109711 3.49638 0.171339 1.17942 0 0Z" fill="#D1D1D1" fill-rule="evenodd" transform="matrix(0.741864 0.670551 0.670551 -0.741864 528.73 180.977)"/><path d="M0 0C17.0059 2.15675 32.9742 0.67706 51.3278 0 69.6814-0.67706 88.4186-1.221 104.15 0 119.882 1.221 129.176-2.04094 149.498 0 149.385 1.14677 149.373 3.46404 149.498 4.79989 124.984 4.74656 117.151 4.70194 96.6756 4.79989 76.2004 4.89785 58.7511 2.9621 43.8528 4.79989 28.9545 6.63769 9.0801 4.35769 0 4.79989 0.155591 3.6315-0.19874 0.99916 0 0Z" stroke="#000000" stroke-width="2" stroke-miterlimit="8" fill="none" fill-rule="evenodd" transform="matrix(0.741864 0.670551 0.670551 -0.741864 528.73 180.977)"/><path d="M406.07 216.01C430.515 212.039 449.404 201.976 469.434 197.632 489.464 193.287 503.217 186.023 530.314 179.975 530.937 181.402 531.276 182.998 531.651 184.585 505.659 194.009 490.723 198.168 468.287 202.962 445.85 207.757 420.503 219.134 407.407 220.62 406.913 219.055 406.534 217.126 406.07 216.01Z" fill="#D1D1D1" fill-rule="evenodd"/><path d="M406.07 216.01C428.465 207.907 447.244 202.888 464.465 199.073 481.685 195.259 504.627 190.133 530.314 179.975 530.507 181.106 531.23 183.409 531.651 184.585 499.84 190.588 486.777 199.009 467.044 203.323 447.311 207.637 420.297 218.704 407.407 220.62 407.267 219.309 406.687 218.05 406.07 216.01Z" stroke="#000000" stroke-width="2" stroke-miterlimit="8" fill="none" fill-rule="evenodd"/><path d="M0 0C12.4143 2.661 45.2706 0.278845 60.7182 0 76.1659-0.278845 98.4807 0.525669 123.772 0 149.063-0.525669 158.671-1.85228 175.149 0 191.626 1.85228 210.046-0.683885 233.531 0 233.713 1.57585 233.328 2.66719 233.531 4.7999 219.459 6.38677 202.923 3.33512 182.155 4.7999 161.386 6.26467 150.345 4.26614 126.107 4.7999 101.869 5.33365 83.2114 4.69144 63.0534 4.7999 42.8954 4.90835 19.9754 2.06467 0 4.7999-0.235066 3.29921 0.0760105 2.06236 0 0Z" fill="#D1D1D1" fill-rule="evenodd" transform="matrix(0.999012 -0.0444404 -0.0444404 -0.999012 406.784 298.204)"/><path d="M0 0C15.2517 0.258268 46.3692 2.79549 58.3829 0 70.3965-2.79549 91.0729 2.39433 112.095 0 133.117-2.39433 156.174-2.779 172.813 0 189.452 2.779 217.483-0.146037 233.531 0 233.529 1.62919 233.481 3.02236 233.531 4.7999 217.418 5.54488 194.326 5.18887 177.484 4.7999 160.642 4.41092 145.68 3.44483 121.436 4.7999 97.1929 6.15496 88.6395 4.74215 63.0534 4.7999 37.4674 4.85764 29.6951 7.71118 0 4.7999-0.143097 2.75717-0.212178 1.9705 0 0Z" stroke="#000000" stroke-width="2" stroke-miterlimit="8" fill="none" fill-rule="evenodd" transform="matrix(0.999012 -0.0444404 -0.0444404 -0.999012 406.784 298.204)"/><path d="M372.183 410.528C400.487 400.001 410.144 395.054 429.94 388.673 449.736 382.292 472.454 373.639 490.447 365.777 508.44 357.915 525.366 351.713 537.203 348.085 549.041 344.456 561.476 338.207 583.959 330.392 606.442 322.577 617.833 319.96 647.217 306.456 647.994 308.693 647.942 308.78 648.916 310.945 624.26 321.271 609.986 328.413 593.909 331.759 577.831 335.106 560.703 342.968 533.401 354.655 506.099 366.343 497.449 366.419 481.145 374.429 464.841 382.439 442.401 390.391 431.639 393.162 420.877 395.934 391.67 407.661 373.882 415.018 372.939 412.813 372.687 411.831 372.183 410.528Z" fill="#D1D1D1" fill-rule="evenodd"/><path d="M372.183 410.528C392.645 404.412 413.447 393.903 427.19 389.714 440.933 385.524 467.333 371.238 487.697 366.818 508.061 362.397 533.189 352.062 548.205 343.922 563.22 335.782 608.683 324.025 647.217 306.456 647.602 307.749 647.99 309.051 648.916 310.945 624.369 322.536 607.963 327.546 591.158 332.8 574.354 338.055 564.726 342.876 538.902 352.574 513.078 362.272 501.596 369.602 486.645 372.348 471.694 375.093 443.685 391.585 426.138 395.244 408.591 398.903 400.086 405.605 373.882 415.018 373.014 413.026 373.074 412.52 372.183 410.528Z" stroke="#000000" stroke-width="2" stroke-miterlimit="8" fill="none" fill-rule="evenodd"/><path d="M0 0C16.2634 2.92525 38.9091 2.02341 58.7077 0 78.5064-2.02341 91.6272 1.21449 115.113 0 114.977 1.52283 115.062 3.55055 115.113 4.85428 92.5552 7.44577 70.7033 5.4989 56.4054 4.85428 42.1074 4.20966 15.3355 6.36798 0 4.85428-0.16147 3.05365 0.155276 1.40074 0 0Z" fill="#D1D1D1" fill-rule="evenodd" transform="matrix(0.646704 -0.762741 -0.762741 -0.646704 580.165 401.856)"/><path d="M0 0C26.1378 1.08903 43.0862 1.49365 54.1031 0 65.12-1.49365 87.6112-0.746772 115.113 0 114.981 1.34971 114.904 3.79937 115.113 4.85428 94.1719 4.96074 69.3716 7.68892 55.2543 4.85428 41.137 2.01963 20.0101 5.47549 0 4.85428-0.225617 2.86782 0.0687664 1.49522 0 0Z" stroke="#000000" stroke-width="2" stroke-miterlimit="8" fill="none" fill-rule="evenodd" transform="matrix(0.646704 -0.762741 -0.762741 -0.646704 580.165 401.856)"/><path d="M0 0C18.9391-1.74919 45.2114 0.154436 60.6018 0 75.9921-0.154436 109.646 0.0205774 122.969 0 136.291-0.0205774 151.997 0.44294 176.51 0 176.288 1.62593 176.756 3.70257 176.51 5.03402 160.411 5.1768 143.552 5.01837 119.438 5.03402 95.3244 5.04966 84.9069 7.95937 60.6018 5.03402 36.2967 2.10866 23.5713 5.54373 0 5.03402 0.167244 3.42215 0.0369554 1.35748 0 0Z" fill="#D1D1D1" fill-rule="evenodd" transform="matrix(0.953928 -0.300037 -0.300037 -0.953928 412.296 455.095)"/><path d="M0 0C27.7967-1.17701 34.3922-2.08063 60.6018 0 86.8113 2.08063 103.767-1.36294 122.969 0 142.17 1.36294 162.534 0.218793 176.51 0 176.444 1.92567 176.665 3.38856 176.51 5.03402 151.526 7.22961 127.948 3.34457 114.143 5.03402 100.338 6.72346 69.0694 5.69543 51.7763 5.03402 34.4831 4.3726 21.3141 2.73732 0 5.03402-0.233701 3.83423-0.127664 1.84094 0 0Z" stroke="#000000" stroke-width="2" stroke-miterlimit="8" fill="none" fill-rule="evenodd" transform="matrix(0.953928 -0.300037 -0.300037 -0.953928 412.296 455.095)"/><path d="M181 423C180.525 407.769 194.845 396.321 208.5 397 224.691 399.113 234.562 409.307 236 423 235.555 436.975 224.766 448.602 208.5 449 191.474 447.096 181.745 437.921 181 423Z" fill="#D1D1D1" fill-rule="evenodd"/><path d="M181 423C181.62 409.156 192.929 396.522 208.5 397 222.377 397.082 235.733 409.712 236 423 236.009 434.637 222.747 449.32 208.5 449 192.65 448.148 182.944 436.275 181 423Z" stroke="#000000" stroke-width="2" stroke-miterlimit="8" fill="none" fill-rule="evenodd"/><path d="M640 289C639.525 273.769 653.845 262.321 667.5 263 683.691 265.113 693.562 275.307 695 289 694.555 302.975 683.766 314.602 667.5 315 650.474 313.096 640.745 303.921 640 289Z" fill="#D1D1D1" fill-rule="evenodd"/><path d="M640 289C640.62 275.156 651.929 262.522 667.5 263 681.377 263.082 694.733 275.712 695 289 695.009 300.637 681.747 315.32 667.5 315 651.649 314.148 641.944 302.275 640 289Z" stroke="#000000" stroke-width="2" stroke-miterlimit="8" fill="none" fill-rule="evenodd"/><path d="M903.476 289.921C924.28 308.025 930.815 309.959 949.699 329.546 968.583 349.134 979.241 355.771 994.109 367.617 993.256 368.921 992.107 370.079 990.985 371.261 974.123 359.835 959.609 345.255 944.762 331.637 929.915 318.018 921.056 311.488 900.352 293.566 901.389 292.295 902.796 290.921 903.476 289.921Z" fill="#D1D1D1" fill-rule="evenodd"/><path d="M903.476 289.921C925.101 305.968 936.84 319.778 946.073 326.438 955.307 333.099 976.422 354.593 994.109 367.617 993.269 368.399 991.739 370.266 990.985 371.261 973.899 353.149 960.847 348.559 943.856 330.86 926.865 313.161 912.503 306.708 900.352 293.566 901.371 292.73 902.106 291.556 903.476 289.921Z" stroke="#000000" stroke-width="2" stroke-miterlimit="8" fill="none" fill-rule="evenodd"/><path d="M0 0C11.5248 1.20745 28.388-2.29354 55.7273 0 83.0667 2.29354 88.2296 1.42163 113.078 0 137.926-1.42163 150.792-2.09522 162.313 0 162.386 2.38373 162.365 3.07202 162.313 4.79989 142.619 4.63486 133.403 6.80546 109.832 4.79989 86.2598 2.79433 80.0064 2.75129 55.7273 4.79989 31.4483 6.8485 13.4699 4.79108 0 4.79989 0.109711 3.49638 0.171339 1.17942 0 0Z" fill="#D1D1D1" fill-rule="evenodd" transform="matrix(0.825621 0.564225 0.564225 -0.825621 685.332 307.134)"/><path d="M0 0C16.3501-0.838635 40.4164 1.73984 55.7273 0 71.0383-1.73984 85.0669-0.305092 113.078 0 141.089 0.305092 143.734-1.91947 162.313 0 162.199 1.14677 162.188 3.46404 162.313 4.79989 150.389 6.29449 123.236 2.75706 104.962 4.79989 86.6881 6.84273 74.5374 5.43465 47.6118 4.79989 20.6861 4.16514 15.7775 2.42247 0 4.79989 0.155591 3.6315-0.19874 0.99916 0 0Z" stroke="#000000" stroke-width="2" stroke-miterlimit="8" fill="none" fill-rule="evenodd" transform="matrix(0.825621 0.564225 0.564225 -0.825621 685.332 307.134)"/><path d="M983 386C982.533 370.769 996.593 359.321 1010 360 1025.9 362.113 1035.59 372.307 1037 386 1036.56 399.975 1025.97 411.602 1010 412 993.284 410.096 983.732 400.921 983 386Z" fill="#D1D1D1" fill-rule="evenodd"/><path d="M983 386C983.609 372.156 994.712 359.522 1010 360 1023.62 360.082 1036.74 372.712 1037 386 1037.01 397.637 1023.99 412.32 1010 412 994.438 411.148 984.909 399.275 983 386Z" stroke="#000000" stroke-width="2" stroke-miterlimit="8" fill="none" fill-rule="evenodd"/><path d="M96 179.668C90.7578 140.189 124.707 117.609 161.642 114 173.86 113.024 185.57 117.258 194.412 114 203.253 110.742 237.431 119.947 271.867 114 306.303 108.053 328.98 122.378 349.322 114 369.664 105.622 382.517 120.892 408.903 114 435.29 107.108 462.971 114.197 486.359 114 509.746 113.803 532.435 114.062 545.94 114 559.445 113.938 582.5 116.413 596.584 114 610.667 111.587 629.09 116.899 647.228 114 665.366 111.101 677.062 115.009 706.809 114 736.556 112.991 727.995 116.481 739.578 114 751.162 111.519 761.314 116.218 772.348 114 783.382 111.782 803.812 114.283 814.055 114 824.297 113.717 846.25 117.484 855.761 114 865.273 110.516 900.657 116.377 915.342 114 930.028 111.623 976.661 120.06 992.798 114 1008.94 107.94 1029.46 117.761 1055.36 114 1100.49 118.404 1121.92 143.335 1121 179.668 1121.47 195.11 1118.75 211.376 1121 224.321 1123.25 237.266 1117.99 259.723 1121 268.974 1124.01 278.225 1114.71 310.592 1121 326.76 1127.29 342.928 1119.37 356.41 1121 379.293 1122.63 402.175 1116.1 415.857 1121 442.332 1118.29 483.153 1085.45 512.999 1055.36 508 1048.72 508.278 1036.49 505.393 1022.59 508 1008.69 510.607 990.961 504.578 980.882 508 970.802 511.422 948.593 504.555 921.301 508 894.008 511.445 870.09 505.585 843.845 508 817.6 510.415 822.633 502.998 802.138 508 781.644 513.002 750.147 507.13 733.62 508 717.093 508.87 693.189 507.044 665.102 508 637.015 508.956 638.379 504.156 623.395 508 608.411 511.844 577.721 505.484 554.877 508 532.034 510.516 510.212 503.304 495.296 508 480.38 512.696 461.154 506.871 444.652 508 428.15 509.128 412.376 503.279 402.945 508 393.515 512.721 372.808 505.949 361.239 508 349.669 510.051 342.273 504.945 328.469 508 314.665 511.055 272.483 506.19 251.014 508 229.544 509.81 199.911 507.617 161.642 508 115.537 506.421 104.009 478.181 96 442.332 95.5456 426.188 100.913 409.505 96 384.546 91.0872 359.587 99.8403 341.587 96 326.76 92.1597 311.933 102.039 295.935 96 271.6 89.9614 247.266 99.235 211.454 96 179.668Z" stroke="#000000" stroke-width="2" stroke-miterlimit="8" fill="none" fill-rule="evenodd"/><path d="M84 127.5C83.4055 109.453 100.843 100.101 113 98 128.118 93.2789 140.84 111.156 142 127.5 140.634 146.059 128.063 158.334 113 157 97.0231 156.585 84.7048 146.905 84 127.5Z" fill="#FFFFFF" fill-rule="evenodd"/><path d="M84 127.5C84.0467 106.664 97.5993 100.666 113 98 126.412 98.8255 141 108.057 142 127.5 140.292 143.656 130.814 157.476 113 157 96.2369 158.731 85.284 147.475 84 127.5Z" stroke="#000000" stroke-width="2" stroke-miterlimit="8" fill="none" fill-rule="evenodd"/><text font-family="Calibri,Calibri_MSFontService,sans-serif" font-weight="400" font-size="32" transform="translate(105.027 138)">1</text></g></svg>