<svg width="1280" height="720" xmlns="http://www.w3.org/2000/svg" xmlns:xlink="http://www.w3.org/1999/xlink" overflow="hidden"><g><rect x="0" y="0" width="1280" height="720" fill="#FFFFFF"/><path d="M393 424C386.406 321.872 454.132 241.637 572.5 252 663.775 236.164 741.253 327.022 752 424 764.66 534.701 660.849 583.27 572.5 596 477.015 598.385 393.954 515.177 393 424Z" stroke="#000000" stroke-width="2" stroke-miterlimit="8" fill="none" fill-rule="evenodd"/><path d="M869.227 541.233C811.721 626.227 705.626 627.845 632.069 567.287 557.369 518.602 552.856 408.488 606.316 330.096 664.624 234.218 771.41 265.199 843.474 304.042 913.303 353.887 910.624 481.412 869.227 541.233Z" stroke="#000000" stroke-width="2" stroke-miterlimit="8" fill="none" fill-rule="evenodd"/><path d="M281 175C312.427 172.097 327.493 177.265 352.8 175 378.107 172.735 383.581 177.432 403.06 175 422.539 172.568 437.734 175.542 453.32 175 468.906 174.458 487.179 176.165 503.58 175 519.981 173.835 560.807 175.041 589.74 175 618.673 174.959 628.126 176.022 654.36 175 680.594 173.978 707.194 178.186 733.34 175 759.486 171.814 773.163 173.522 783.6 175 794.037 176.478 826.265 171.197 862.58 175 898.895 178.803 911.205 174.263 934.38 175 957.555 175.737 975.106 172.139 999 175 997.436 203.585 998.605 232.322 999 253.986 999.394 275.649 1001.09 293.526 999 313.571 996.915 333.617 999.755 354.968 999 392.557 998.245 430.146 996.896 450.699 999 466.693 1001.1 482.686 999.066 525.109 999 540.829 998.934 556.548 997.575 586.386 999 600.414 1000.42 614.443 997.691 642.219 999 660 969.472 661.832 951.72 663.49 912.84 660 873.96 656.51 874.956 662.74 855.4 660 835.844 657.26 829.256 660.944 805.14 660 781.023 659.056 779.783 660.774 754.88 660 729.977 659.226 718.296 659.594 683.08 660 647.864 660.406 630.958 658.486 596.92 660 562.882 661.514 559.458 660.261 532.3 660 505.141 659.739 483.096 661.828 453.32 660 423.544 658.172 413.013 658.98 395.88 660 378.747 661.02 309.262 661.929 281 660 278.033 626.509 279.525 616.894 281 590.714 282.475 564.535 283.33 543.679 281 531.129 278.67 518.578 278.634 490.365 281 471.543 283.366 452.721 281.101 435.35 281 411.957 280.899 388.565 279.832 377.589 281 352.371 282.168 327.154 279.595 312.071 281 283.086 282.405 254.1 284.6 198.606 281 175Z" stroke="#000000" stroke-width="2" stroke-miterlimit="8" fill="none" fill-rule="evenodd"/><text font-family="Calibri,Calibri_MSFontService,sans-serif" font-weight="400" font-size="27" transform="translate(429.266 411)">126</text><text font-family="Calibri,Calibri_MSFontService,sans-serif" font-weight="400" font-size="27" transform="matrix(0.996173 -0.0874035 0.0874035 0.996173 428.952 465)">134</text><text font-family="Calibri,Calibri_MSFontService,sans-serif" font-weight="400" font-size="27" transform="translate(456.699 320)">124</text><text font-family="Calibri,Calibri_MSFontService,sans-serif" font-weight="400" font-size="27" transform="matrix(0.996173 -0.0874035 0.0874035 0.996173 510.034 293)">123</text><text font-family="Calibri,Calibri_MSFontService,sans-serif" font-weight="400" font-size="24" transform="matrix(0.996705 -0.0811172 0.0811172 0.996705 416.432 245)">Trekninger med 1</text><text font-family="Calibri,Calibri_MSFontService,sans-serif" font-weight="400" font-size="24" transform="matrix(0.996705 -0.0811172 0.0811172 0.996705 586.204 231)">-</text><text font-family="Calibri,Calibri_MSFontService,sans-serif" font-weight="400" font-size="24" transform="matrix(0.996705 -0.0811172 0.0811172 0.996705 593.513 231)">er</text><text font-family="Calibri,Calibri_MSFontService,sans-serif" font-weight="400" font-size="24" transform="matrix(0.976708 0.214573 -0.214573 0.976708 712.795 229)">Trekninger med 7</text><text font-family="Calibri,Calibri_MSFontService,sans-serif" font-weight="400" font-size="24" transform="matrix(0.976708 0.214573 -0.214573 0.976708 879.161 265)">-</text><text font-family="Calibri,Calibri_MSFontService,sans-serif" font-weight="400" font-size="24" transform="matrix(0.976708 0.214573 -0.214573 0.976708 886.324 267)">er</text><text font-family="Calibri,Calibri_MSFontService,sans-serif" font-weight="400" font-size="24" transform="translate(435.309 152)">Mengden uordna trekninger av tre kort fra syv</text><text font-family="Calibri,Calibri_MSFontService,sans-serif" font-weight="400" font-size="27" transform="matrix(0.989661 0.14343 -0.14343 0.989661 645.622 338)">172</text><text font-family="Calibri,Calibri_MSFontService,sans-serif" font-weight="400" font-size="27" transform="translate(682.789 432)">174</text><text font-family="Calibri,Calibri_MSFontService,sans-serif" font-weight="400" font-size="27" transform="translate(600.931 398)">173</text><text font-family="Calibri,Calibri_MSFontService,sans-serif" font-weight="400" font-size="27" transform="matrix(0.982142 -0.188143 0.188143 0.982142 604.112 481)">175</text><text font-family="Calibri,Calibri_MSFontService,sans-serif" font-weight="400" font-size="27" transform="matrix(0.996173 -0.0874035 0.0874035 0.996173 666.997 515)">176</text><text font-family="Calibri,Calibri_MSFontService,sans-serif" font-weight="400" font-size="27" transform="matrix(0.990063 -0.140628 0.140628 0.990063 422.273 367)">125</text><text font-family="Calibri,Calibri_MSFontService,sans-serif" font-weight="400" font-size="27" transform="matrix(0.996173 -0.0874035 0.0874035 0.996173 317.584 454)">235</text><text font-family="Calibri,Calibri_MSFontService,sans-serif" font-weight="400" font-size="24" transform="matrix(0.996705 -0.0811172 0.0811172 0.996705 88.8867 496)">Trekninger uten</text><text font-family="Calibri,Calibri_MSFontService,sans-serif" font-weight="400" font-size="24" transform="matrix(0.996705 -0.0811172 0.0811172 0.996705 128.735 522)">1 eller 7</text><path d="M0.025892-0.666164 54.3078 1.44363 54.256 2.77596-0.025892 0.666164ZM53.1049-1.93897 60.9435 2.36871 52.7942 6.05499Z" transform="matrix(1 0 0 -1 249.5 483.869)"/><text font-family="Calibri,Calibri_MSFontService,sans-serif" font-weight="400" font-size="27" transform="matrix(0.996173 -0.0874035 0.0874035 0.996173 457.752 527)">135</text><text font-family="Calibri,Calibri_MSFontService,sans-serif" font-weight="400" font-size="27" transform="matrix(0.996173 -0.0874035 0.0874035 0.996173 526.5 563)">136</text><text font-family="Calibri,Calibri_MSFontService,sans-serif" font-weight="400" font-size="27" transform="matrix(0.996173 -0.0874035 0.0874035 0.996173 495.342 360)">145</text><text font-family="Calibri,Calibri_MSFontService,sans-serif" font-weight="400" font-size="27" transform="matrix(0.996173 -0.0874035 0.0874035 0.996173 497.954 425)">146</text><text font-family="Calibri,Calibri_MSFontService,sans-serif" font-weight="400" font-size="27" transform="matrix(0.996173 -0.0874035 0.0874035 0.996173 511.104 489)">156</text><text font-family="Calibri,Calibri_MSFontService,sans-serif" font-weight="400" font-size="27" transform="translate(833.273 420)">726</text><text font-family="Calibri,Calibri_MSFontService,sans-serif" font-weight="400" font-size="27" transform="matrix(0.996173 -0.0874035 0.0874035 0.996173 748.322 378)">734</text><text font-family="Calibri,Calibri_MSFontService,sans-serif" font-weight="400" font-size="27" transform="translate(774.153 318)">724</text><text font-family="Calibri,Calibri_MSFontService,sans-serif" font-weight="400" font-size="27" transform="matrix(0.996173 -0.0874035 0.0874035 0.996173 724.089 297)">723</text><text font-family="Calibri,Calibri_MSFontService,sans-serif" font-weight="400" font-size="27" transform="matrix(0.985332 0.170646 -0.170646 0.985332 818.112 360)">725</text><text font-family="Calibri,Calibri_MSFontService,sans-serif" font-weight="400" font-size="27" transform="matrix(0.996173 -0.0874035 0.0874035 0.996173 761.94 435)">735</text><text font-family="Calibri,Calibri_MSFontService,sans-serif" font-weight="400" font-size="27" transform="matrix(0.995112 0.0987536 -0.0987536 0.995112 754.613 508)">736</text><text font-family="Calibri,Calibri_MSFontService,sans-serif" font-weight="400" font-size="27" transform="matrix(0.996173 -0.0874035 0.0874035 0.996173 827.446 488)">745</text><text font-family="Calibri,Calibri_MSFontService,sans-serif" font-weight="400" font-size="27" transform="matrix(0.996173 -0.0874035 0.0874035 0.996173 806.579 543)">746</text><text font-family="Calibri,Calibri_MSFontService,sans-serif" font-weight="400" font-size="27" transform="matrix(0.996173 -0.0874035 0.0874035 0.996173 731.807 573)">756</text><text font-family="Calibri,Calibri_MSFontService,sans-serif" font-weight="400" font-size="27" transform="matrix(0.996173 -0.0874035 0.0874035 0.996173 324.619 536)">236</text><text font-family="Calibri,Calibri_MSFontService,sans-serif" font-weight="400" font-size="27" transform="matrix(0.996173 -0.0874035 0.0874035 0.996173 379.578 598)">245</text><text font-family="Calibri,Calibri_MSFontService,sans-serif" font-weight="400" font-size="27" transform="matrix(0.996173 -0.0874035 0.0874035 0.996173 567.345 641)">256</text><text font-family="Calibri,Calibri_MSFontService,sans-serif" font-weight="400" font-size="27" transform="matrix(0.996173 -0.0874035 0.0874035 0.996173 446.038 636)">246</text><text font-family="Calibri,Calibri_MSFontService,sans-serif" font-weight="400" font-size="27" transform="matrix(0.996173 -0.0874035 0.0874035 0.996173 900.725 571)">345</text><text font-family="Calibri,Calibri_MSFontService,sans-serif" font-weight="400" font-size="27" transform="matrix(0.996173 -0.0874035 0.0874035 0.996173 926.029 510)">346</text><text font-family="Calibri,Calibri_MSFontService,sans-serif" font-weight="400" font-size="27" transform="matrix(0.996173 -0.0874035 0.0874035 0.996173 840.841 629)">356</text><text font-family="Calibri,Calibri_MSFontService,sans-serif" font-weight="400" font-size="27" transform="matrix(0.996173 -0.0874035 0.0874035 0.996173 694.685 644)">456</text><text font-family="Calibri,Calibri_MSFontService,sans-serif" font-weight="400" font-size="27" transform="matrix(0.996173 -0.0874035 0.0874035 0.996173 310.782 385)">234</text></g></svg>