<svg width="1280" height="720" xmlns="http://www.w3.org/2000/svg" xmlns:xlink="http://www.w3.org/1999/xlink" overflow="hidden"><g><rect x="0" y="0" width="1280" height="720" fill="#FFFFFF"/><path d="M305 297.205C332.37 299.908 342.292 299.029 362.896 297.205 383.501 295.381 398.77 296.182 414.698 297.205 430.626 298.228 460.364 299.677 481.736 297.205 503.108 294.734 527.331 294.807 539.632 297.205 551.933 299.604 582.582 294.467 609.717 297.205 608.896 314.649 612.014 324.52 609.717 349.137 607.42 373.754 609.013 383.376 609.717 401.068 610.422 418.761 611.714 436.048 609.717 453 587.314 453.066 569.54 454.983 551.821 453 534.102 451.017 522.9 452.578 496.972 453 471.044 453.422 460.194 449.666 429.934 453 399.674 456.334 396.963 453.441 372.038 453 347.113 452.559 332.519 453.167 305 453 306.982 434.28 302.969 421.766 305 401.068 307.031 380.371 305.819 370.372 305 352.253 304.181 334.133 306.733 311.605 305 297.205Z" fill="#FFFFFF" fill-rule="evenodd"/><path d="M609.717 297.205C621.754 284.637 648.602 259.281 658 249 660.288 271.575 658.631 279.324 658 297.816 657.369 316.307 657.082 324.899 658 349.747 658.918 374.596 656.276 384.538 658 404.795 637.22 427.66 627.229 438.656 609.717 453 607.991 428.477 609.449 412.791 609.717 399.51 609.985 386.229 611.829 368.711 609.717 344.463 607.605 320.215 611.242 312.003 609.717 297.205Z" fill="#CDCDCD" fill-rule="evenodd"/><path d="M305 297.205C313.979 286.756 340.899 260.76 353.283 249 372.421 246.092 389.35 249.99 414.226 249 439.103 248.01 462.103 246.499 478.217 249 494.331 251.501 514.336 250.068 539.16 249 563.985 247.932 589.208 250.035 603.151 249 617.094 247.965 641.831 246.585 658 249 638.165 268.49 627.649 280.592 609.717 297.205 581.742 299.681 572.108 295.205 551.821 297.205 531.533 299.205 518.239 298.681 500.019 297.205 481.799 295.73 463.185 299.252 432.981 297.205 402.778 295.159 398.593 299.272 372.038 297.205 345.482 295.139 327.912 295.484 305 297.205Z" fill="#FFFFFF" fill-rule="evenodd"/><path d="M305 297.205C325.596 277.844 328.913 270.131 353.283 249 368.132 247.465 383.393 251.152 408.132 249 432.871 246.848 446.454 249.417 475.17 249 503.885 248.583 506.368 250.554 536.113 249 565.859 247.446 571.284 248.728 600.104 249 628.924 249.272 634.379 249.274 658 249 659.814 263.27 656.108 278.744 658 300.932 659.892 323.119 657.657 337.403 658 354.421 658.343 371.439 656.887 389.932 658 404.795 639.137 426.504 627.368 435.299 609.717 453 584.745 453.386 560.812 450.502 542.679 453 524.547 455.498 506.728 454.807 475.642 453 444.555 451.193 430.428 456.004 414.698 453 398.969 449.996 373.696 455.724 359.849 453 346.002 450.276 321.723 451.855 305 453 306.02 431.007 305.136 420.702 305 397.953 304.864 375.203 304.617 368.624 305 350.695 305.383 332.766 304.223 317.546 305 297.205ZM305 297.205C330.488 295.432 332.925 297.668 356.802 297.205 380.678 296.743 393.339 299.955 423.84 297.205 454.34 294.455 471.982 295.405 487.83 297.205 503.678 299.006 520.029 297.17 539.632 297.205 559.235 297.241 581.79 298.046 609.717 297.205 623.872 282.208 641.327 267.854 658 249M609.717 297.205C610.078 311.804 608.134 332.222 609.717 344.463 611.3 356.704 610.393 372.42 609.717 397.953 609.041 423.485 608.068 430.248 609.717 453" stroke="#000000" stroke-width="2" stroke-miterlimit="8" fill="none" fill-rule="evenodd"/><path d="M609 297.771C622.933 297.982 643.897 297.577 656.593 297.771 669.29 297.966 688.189 296.503 701.243 297.771 714.297 299.04 729.198 296.418 756.196 297.771 757.724 320.387 754.258 328.304 756.196 347.962 758.134 367.62 753.631 379.457 756.196 399.705 758.761 419.953 756.674 440.525 756.196 453 737.121 453.001 724.879 453.98 707.131 453 689.383 452.02 672.425 453.544 659.537 453 646.65 452.456 619.379 452.202 609 453 607.087 429.606 610.358 427.231 609 404.362 607.642 381.492 609.083 374.728 609 355.723 608.917 336.719 608.028 316.149 609 297.771Z" fill="#FFFFFF" fill-rule="evenodd"/><path d="M756.196 297.771C776.679 277.755 795.354 260.883 805 249 806.571 261.366 805.648 277.925 805 297.638 804.352 317.352 806.381 327.167 805 349.381 803.619 371.595 805.017 385.052 805 404.229 790.536 417.854 768.379 443.901 756.196 453 753.996 427.365 755.564 422.764 756.196 399.705 756.828 376.646 758.062 362.329 756.196 344.857 754.331 327.386 757.842 319.047 756.196 297.771Z" fill="#CDCDCD" fill-rule="evenodd"/><path d="M609 297.771C632.871 275.993 637.427 270.708 657.804 249 672.755 250.688 686.246 250.138 708.341 249 730.436 247.862 739.85 247.641 758.879 249 777.907 250.359 782.203 247.775 805 249 790.596 266.647 775.767 279.917 756.196 297.771 742.047 296.428 721.457 295.955 705.659 297.771 689.86 299.587 673.636 297.114 658.065 297.771 642.495 298.429 622.417 295.414 609 297.771Z" fill="#FFFFFF" fill-rule="evenodd"/><path d="M609 297.771C618.858 284.036 639.232 266.503 657.804 249 673.742 251.164 691.561 250.369 703.925 249 716.29 247.631 731.588 247.328 751.519 249 771.45 250.672 792.935 248.9 805 249 805.637 267.458 806.984 282.886 805 299.191 803.016 315.495 803.972 342.076 805 354.038 806.028 366 805.458 386.81 805 404.229 783.333 429.269 777.017 432.91 756.196 453 744.818 452.952 724.842 454.934 708.603 453 692.363 451.066 676.765 454.152 656.593 453 636.422 451.848 620.235 455.022 609 453 610.068 429.406 608.787 412.479 609 398.153 609.213 383.826 606.578 367.362 609 349.514 611.422 331.667 610.81 316.948 609 297.771ZM609 297.771C632.808 296.342 648.205 297.493 658.065 297.771 667.926 298.05 684.084 295.617 704.187 297.771 724.289 299.926 739.564 297.901 756.196 297.771 767.294 284.216 783.39 266.487 805 249M756.196 297.771C754.287 308.419 755.493 331.788 756.196 347.962 756.899 364.136 754.886 381.432 756.196 401.257 757.506 421.082 756.887 442.5 756.196 453" stroke="#000000" stroke-width="2" stroke-miterlimit="8" stroke-dasharray="8 6" fill="none" fill-rule="evenodd"/></g></svg>