<svg width="1280" height="720" xmlns="http://www.w3.org/2000/svg" xmlns:xlink="http://www.w3.org/1999/xlink" overflow="hidden"><g><rect x="0" y="0" width="1280" height="720" fill="#FFFFFF"/><path d="M799 402.5C799.114 391.982 807.966 385.726 817 385 824.998 384.269 835.4 391.44 835 402.5 836.635 411.09 826.72 420.562 817 420 806.931 420.419 800.374 410.963 799 402.5Z" fill="#FBE3D6" fill-rule="evenodd"/><path d="M799 402.5C799.183 393.008 806.479 384.691 817 385 827.18 385.427 834.211 391.735 835 402.5 833.1 410.895 824.677 419.871 817 420 807.03 420.546 800.473 410.347 799 402.5Z" stroke="#000000" stroke-width="2" stroke-miterlimit="8" fill="none" fill-rule="evenodd"/><path d="M799 356C799.114 344.075 807.966 336.748 817 336 826.182 335.706 835.524 343.072 835 356 836.635 365.938 826.72 376.579 817 376 806.331 378.449 800.994 365.248 799 356Z" fill="#FBE3D6" fill-rule="evenodd"/><path d="M799 356C799.183 345.132 806.479 335.682 817 336 827.98 337.914 834.184 343.782 835 356 833.1 365.738 824.677 375.867 817 376 807.017 376.822 799.546 366.352 799 356Z" stroke="#000000" stroke-width="2" stroke-miterlimit="8" fill="none" fill-rule="evenodd"/><path d="M799 310C799.114 299.181 807.966 292.747 817 292 824.998 291.248 835.4 298.624 835 310 836.635 318.835 826.72 328.578 817 328 806.931 328.431 800.374 318.705 799 310Z" fill="#FBE3D6" fill-rule="evenodd"/><path d="M799 310C799.183 300.237 806.479 291.682 817 292 827.18 292.439 834.211 298.927 835 310 833.1 318.635 824.677 327.867 817 328 807.03 328.562 800.473 318.071 799 310Z" stroke="#000000" stroke-width="2" stroke-miterlimit="8" fill="none" fill-rule="evenodd"/><path d="M754 308.5C754.114 297.982 762.966 291.726 772 291 779.998 290.269 790.4 297.44 790 308.5 791.635 317.09 781.72 326.562 772 326 761.931 326.419 755.374 316.963 754 308.5Z" stroke="#000000" stroke-width="2" stroke-miterlimit="8" fill="none" fill-rule="evenodd"/><path d="M757 354C757.117 342.075 766.215 334.748 775.5 334 784.938 333.706 794.539 341.072 794 354 795.681 363.938 785.49 374.579 775.5 374 764.535 376.449 759.05 363.248 757 354Z" stroke="#000000" stroke-width="2" stroke-miterlimit="8" fill="none" fill-rule="evenodd"/><path d="M793 265C793.117 254.181 802.215 247.747 811.5 247 819.721 246.248 830.411 253.624 830 265 831.681 273.835 821.49 283.578 811.5 283 801.151 283.431 794.412 273.705 793 265Z" fill="#FBE3D6" fill-rule="evenodd"/><path d="M793 265C793.188 255.237 800.687 246.682 811.5 247 821.963 247.439 829.189 253.927 830 265 828.048 273.635 819.391 282.867 811.5 283 801.253 283.562 794.514 273.071 793 265Z" stroke="#000000" stroke-width="2" stroke-miterlimit="8" fill="none" fill-rule="evenodd"/><path d="M753 400.5C753.081 390.78 763.95 385.597 773 384 782.182 383.3 793.209 390.66 793 400.5 794.569 408.583 783.69 417.899 773 417 761.372 418.9 753.424 409.243 753 400.5Z" stroke="#000000" stroke-width="2" stroke-miterlimit="8" fill="none" fill-rule="evenodd"/><path d="M656.475 343.781C661.716 334.526 672.566 333.292 680.875 337.04 688.273 340.281 693.926 351.685 688.168 361.281 685.409 369.679 672.051 373.243 663.768 368.021 654.699 363.497 653.548 351.94 656.475 343.781Z" fill="#FBE3D6" fill-rule="evenodd"/><path d="M656.475 343.781C661.276 335.468 671.764 331.653 680.875 337.04 689.628 342.367 692.734 351.368 688.168 361.281 682.393 367.788 670.591 371.638 663.768 368.021 654.724 363.658 653.937 351.442 656.475 343.781Z" stroke="#000000" stroke-width="2" stroke-miterlimit="8" fill="none" fill-rule="evenodd"/><path d="M706 355C706.114 344.181 714.966 337.747 724 337 731.998 336.248 742.4 343.624 742 355 743.635 363.835 733.72 373.578 724 373 713.931 373.431 707.374 363.705 706 355Z" fill="#FBE3D6" fill-rule="evenodd"/><path d="M706 355C706.183 345.237 713.479 336.682 724 337 734.18 337.439 741.211 343.927 742 355 740.1 363.635 731.677 372.867 724 373 714.03 373.562 707.473 363.071 706 355Z" stroke="#000000" stroke-width="2" stroke-miterlimit="8" fill="none" fill-rule="evenodd"/><path d="M744 265C744.081 254.986 754.95 249.645 764 248 773.182 247.279 784.209 254.862 784 265 785.569 273.328 774.69 282.926 764 282 752.372 283.958 744.424 274.007 744 265Z" fill="#FBE3D6" fill-rule="evenodd"/><path d="M744 265C745.382 256.952 752.485 247.743 764 248 775.182 248.25 783.292 254.596 784 265 783.637 274.139 772.766 281.866 764 282 752.856 283.926 745.154 272.923 744 265Z" stroke="#000000" stroke-width="2" stroke-miterlimit="8" fill="none" fill-rule="evenodd"/><path d="M664.969 325.735C653.83 320.124 652.108 309.693 654.722 301.927 656.92 295.253 669.584 290.047 679.726 295.098 689.188 297.788 694.479 310.911 689.972 318.906 686.601 328.015 674.592 330.026 664.969 325.735Z" stroke="#000000" stroke-width="2" stroke-miterlimit="8" fill="none" fill-rule="evenodd"/><path d="M704 310.5C704.114 298.873 712.966 291.73 722 291 731.182 290.713 740.524 297.895 740 310.5 741.635 320.19 731.72 330.564 722 330 711.331 332.388 705.994 319.517 704 310.5Z" stroke="#000000" stroke-width="2" stroke-miterlimit="8" fill="none" fill-rule="evenodd"/><path d="M664.949 281.181C655.417 276.462 653.581 265.698 656.862 257.194 659.687 249.627 670.758 243.348 680.659 248.564 689.198 250.852 693.499 263.992 688.746 272.552 684.733 281.859 673.258 283.65 664.949 281.181Z" fill="#FBE3D6" fill-rule="evenodd"/><path d="M664.949 281.181C656.382 276.85 651.99 266.591 656.862 257.194 661.694 248.158 670.508 244.556 680.659 248.564 687.478 253.969 691.979 265.539 688.746 272.552 684.893 281.824 672.74 283.289 664.949 281.181Z" stroke="#000000" stroke-width="2" stroke-miterlimit="8" fill="none" fill-rule="evenodd"/><path d="M654 401C654.114 390.181 662.966 383.747 672 383 679.998 382.248 690.4 389.624 690 401 691.635 409.835 681.72 419.578 672 419 661.931 419.431 655.374 409.705 654 401Z" stroke="#000000" stroke-width="2" stroke-miterlimit="8" fill="none" fill-rule="evenodd"/><path d="M710.112 417.273C700.58 412.554 698.745 401.79 702.026 393.286 704.851 385.719 715.922 379.44 725.823 384.656 734.362 386.944 738.663 400.084 733.91 408.644 729.897 417.951 718.422 419.742 710.112 417.273Z" fill="#FBE3D6" fill-rule="evenodd"/><path d="M710.112 417.273C701.545 412.942 697.153 402.683 702.026 393.286 706.857 384.25 715.672 380.648 725.823 384.656 732.642 390.061 737.142 401.631 733.91 408.644 730.057 417.916 717.903 419.381 710.112 417.273Z" stroke="#000000" stroke-width="2" stroke-miterlimit="8" fill="none" fill-rule="evenodd"/><path d="M698 264.5C698.081 254.78 708.95 249.597 718 248 727.182 247.3 738.209 254.66 738 264.5 739.569 272.583 728.69 281.899 718 281 706.372 282.9 698.424 273.243 698 264.5Z" fill="#FBE3D6" fill-rule="evenodd"/><path d="M698 264.5C699.382 256.689 706.485 247.75 718 248 729.182 248.243 737.292 254.402 738 264.5 737.637 273.371 726.766 280.87 718 281 706.856 282.87 699.154 272.19 698 264.5Z" stroke="#000000" stroke-width="2" stroke-miterlimit="8" fill="none" fill-rule="evenodd"/><text font-family="Calibri,Calibri_MSFontService,sans-serif" font-weight="400" font-size="37" transform="translate(681.629 465)">K</text><text font-family="Calibri,Calibri_MSFontService,sans-serif" font-weight="400" font-size="25" transform="translate(700.963 473)">5</text><text font-family="Calibri,Calibri_MSFontService,sans-serif" font-weight="400" font-size="37" transform="translate(713.629 465)">=</text><text font-family="Calibri,Calibri_MSFontService,sans-serif" font-weight="400" font-size="37" transform="translate(740.796 465)">K</text><text font-family="Calibri,Calibri_MSFontService,sans-serif" font-weight="400" font-size="25" transform="translate(760.129 473)">4</text><text font-family="Calibri,Calibri_MSFontService,sans-serif" font-weight="400" font-size="37" transform="translate(772.796 465)">+</text><text font-family="Calibri,Calibri_MSFontService,sans-serif" font-weight="400" font-size="37" transform="translate(791.463 465)">2</text><text font-family="Cambria Math,Cambria Math_MSFontService,sans-serif" font-weight="400" font-size="37" transform="translate(810.463 465)">⋅</text><text font-family="Calibri,Calibri_MSFontService,sans-serif" font-weight="400" font-size="37" transform="translate(820.963 465)">5</text><text font-family="Calibri,Calibri_MSFontService,sans-serif" font-weight="400" font-size="37" transform="translate(839.963 465)">-</text><text font-family="Calibri,Calibri_MSFontService,sans-serif" font-weight="400" font-size="37" transform="translate(851.463 465)">1</text><text font-family="Calibri,Calibri_MSFontService,sans-serif" font-weight="400" font-size="37" transform="translate(681.629 510)">K</text><text font-family="Calibri,Calibri_MSFontService,sans-serif" font-weight="400" font-size="25" transform="translate(700.963 518)">4</text><text font-family="Calibri,Calibri_MSFontService,sans-serif" font-weight="400" font-size="37" transform="translate(713.629 510)">=</text><text font-family="Calibri,Calibri_MSFontService,sans-serif" font-weight="400" font-size="37" transform="translate(740.796 510)">K</text><text font-family="Calibri,Calibri_MSFontService,sans-serif" font-weight="400" font-size="25" transform="translate(760.129 518)">3</text><text font-family="Calibri,Calibri_MSFontService,sans-serif" font-weight="400" font-size="37" transform="translate(772.796 510)">+</text><text fill="#C04F15" font-family="Calibri,Calibri_MSFontService,sans-serif" font-weight="400" font-size="37" transform="translate(791.463 510)">2</text><text fill="#C04F15" font-family="Cambria Math,Cambria Math_MSFontService,sans-serif" font-weight="400" font-size="37" transform="translate(810.463 510)">⋅</text><text fill="#C04F15" font-family="Calibri,Calibri_MSFontService,sans-serif" font-weight="400" font-size="37" transform="translate(820.963 510)">4</text><text fill="#C04F15" font-family="Calibri,Calibri_MSFontService,sans-serif" font-weight="400" font-size="37" transform="translate(839.963 510)">-</text><text fill="#C04F15" font-family="Calibri,Calibri_MSFontService,sans-serif" font-weight="400" font-size="37" transform="translate(851.463 510)">1</text><text font-family="Calibri,Calibri_MSFontService,sans-serif" font-weight="400" font-size="37" transform="translate(681.629 555)">K</text><text font-family="Calibri,Calibri_MSFontService,sans-serif" font-weight="400" font-size="25" transform="translate(700.963 563)">3</text><text font-family="Calibri,Calibri_MSFontService,sans-serif" font-weight="400" font-size="37" transform="translate(713.629 555)">=</text><text font-family="Calibri,Calibri_MSFontService,sans-serif" font-weight="400" font-size="37" transform="translate(740.796 555)">K</text><text font-family="Calibri,Calibri_MSFontService,sans-serif" font-weight="400" font-size="25" transform="translate(760.129 563)">2</text><text font-family="Calibri,Calibri_MSFontService,sans-serif" font-weight="400" font-size="37" transform="translate(772.796 555)">+</text><text font-family="Calibri,Calibri_MSFontService,sans-serif" font-weight="400" font-size="37" transform="translate(791.463 555)">2</text><text font-family="Cambria Math,Cambria Math_MSFontService,sans-serif" font-weight="400" font-size="37" transform="translate(810.463 555)">⋅</text><text font-family="Calibri,Calibri_MSFontService,sans-serif" font-weight="400" font-size="37" transform="translate(820.963 555)">3</text><text font-family="Calibri,Calibri_MSFontService,sans-serif" font-weight="400" font-size="37" transform="translate(839.963 555)">-</text><text font-family="Calibri,Calibri_MSFontService,sans-serif" font-weight="400" font-size="37" transform="translate(851.463 555)">1</text><text font-family="Calibri,Calibri_MSFontService,sans-serif" font-weight="400" font-size="37" transform="translate(681.629 599)">K</text><text font-family="Calibri,Calibri_MSFontService,sans-serif" font-weight="400" font-size="25" transform="translate(700.963 607)">2</text><text font-family="Calibri,Calibri_MSFontService,sans-serif" font-weight="400" font-size="37" transform="translate(713.629 599)">=</text><text font-family="Calibri,Calibri_MSFontService,sans-serif" font-weight="400" font-size="37" transform="translate(740.796 599)">K</text><text font-family="Calibri,Calibri_MSFontService,sans-serif" font-weight="400" font-size="25" transform="translate(760.129 607)">1</text><text font-family="Calibri,Calibri_MSFontService,sans-serif" font-weight="400" font-size="37" transform="translate(772.796 599)">+</text><text fill="#C04F15" font-family="Calibri,Calibri_MSFontService,sans-serif" font-weight="400" font-size="37" transform="translate(791.463 599)">2</text><text fill="#C04F15" font-family="Cambria Math,Cambria Math_MSFontService,sans-serif" font-weight="400" font-size="37" transform="translate(810.463 599)">⋅</text><text fill="#C04F15" font-family="Calibri,Calibri_MSFontService,sans-serif" font-weight="400" font-size="37" transform="translate(820.963 599)">2</text><text fill="#C04F15" font-family="Calibri,Calibri_MSFontService,sans-serif" font-weight="400" font-size="37" transform="translate(839.963 599)">-</text><text fill="#C04F15" font-family="Calibri,Calibri_MSFontService,sans-serif" font-weight="400" font-size="37" transform="translate(851.463 599)">1</text><path d="M174 305.5C174.114 294.982 182.966 288.726 192 288 199.998 287.269 210.4 294.44 210 305.5 211.635 314.09 201.72 323.562 192 323 181.931 323.419 175.374 313.963 174 305.5Z" fill="#D9F2D0" fill-rule="evenodd"/><path d="M174 305.5C174.183 296.008 181.479 287.691 192 288 202.18 288.427 209.211 294.735 210 305.5 208.1 313.895 199.677 322.871 192 323 182.03 323.546 175.473 313.347 174 305.5Z" stroke="#000000" stroke-width="2" stroke-miterlimit="8" fill="none" fill-rule="evenodd"/><path d="M171 394.5C171.081 384.78 181.95 379.597 191 378 200.182 377.3 211.209 384.66 211 394.5 212.569 402.583 201.69 411.899 191 411 179.372 412.9 171.424 403.243 171 394.5Z" fill="#D9F2D0" fill-rule="evenodd"/><path d="M171 394.5C172.382 386.689 179.485 377.75 191 378 202.182 378.243 210.292 384.402 211 394.5 210.637 403.371 199.766 410.87 191 411 179.856 412.87 172.154 402.19 171 394.5Z" stroke="#000000" stroke-width="2" stroke-miterlimit="8" fill="none" fill-rule="evenodd"/><path d="M188.451 334.387C200.747 332.296 208.322 339.672 210.824 347.475 213.014 354.151 205.907 365.855 194.747 367.805 185.533 371.253 173.489 363.827 172.374 354.718 169.684 345.385 178.159 336.641 188.451 334.387Z" fill="#D9F2D0" fill-rule="evenodd"/><path d="M188.451 334.387C198.868 332.698 209.566 336.722 210.824 347.475 210.879 358.103 206.229 364.904 194.747 367.805 184.656 368.577 173.99 363 172.374 354.718 168.477 345.78 180.113 337.609 188.451 334.387Z" stroke="#000000" stroke-width="2" stroke-miterlimit="8" fill="none" fill-rule="evenodd"/><path d="M183.266 278.753C172.127 273.142 170.405 262.71 173.019 254.944 175.217 248.27 187.881 243.064 198.023 248.115 207.485 250.805 212.776 263.928 208.269 271.923 204.898 281.032 192.888 283.044 183.266 278.753Z" fill="#D9F2D0" fill-rule="evenodd"/><path d="M183.266 278.753C173.878 273.933 167.653 264.347 173.019 254.944 179.28 246.356 187.058 243.639 198.023 248.115 206.604 253.48 211.882 264.298 208.269 271.923 206.104 281.43 191.889 281.105 183.266 278.753Z" stroke="#000000" stroke-width="2" stroke-miterlimit="8" fill="none" fill-rule="evenodd"/><path d="M129 305.5C129.114 294.982 137.966 288.726 147 288 154.998 287.269 165.4 294.44 165 305.5 166.635 314.09 156.72 323.562 147 323 136.931 323.419 130.374 313.963 129 305.5Z" stroke="#000000" stroke-width="2" stroke-miterlimit="8" fill="none" fill-rule="evenodd"/><path d="M37 394C37.1173 383.181 46.2147 376.747 55.5001 376 63.7205 375.248 74.4114 382.624 74.0001 394 75.6807 402.835 65.4896 412.578 55.5001 412 45.1509 412.431 38.412 402.705 37 394Z" stroke="#000000" stroke-width="2" stroke-miterlimit="8" fill="none" fill-rule="evenodd"/><path d="M91.1373 410.402C81.6052 405.683 79.7697 394.919 83.0507 386.415 85.8756 378.847 96.9469 372.569 106.848 377.785 115.387 380.073 119.688 393.213 114.935 401.772 110.922 411.079 99.4464 412.871 91.1373 410.402Z" fill="#D9F2D0" fill-rule="evenodd"/><path d="M91.1373 410.402C82.5703 406.071 78.1781 395.811 83.0507 386.415 87.8823 377.379 96.6969 373.777 106.848 377.785 113.667 383.19 118.167 394.76 114.935 401.772 111.081 411.045 98.9281 412.51 91.1373 410.402Z" stroke="#000000" stroke-width="2" stroke-miterlimit="8" fill="none" fill-rule="evenodd"/><path d="M81 351.5C81.1141 340.982 89.9656 334.726 99.0001 334 106.998 333.269 117.4 340.44 117 351.5 118.635 360.09 108.72 369.562 99.0001 369 88.9306 369.419 82.3739 359.963 81 351.5Z" fill="#D9F2D0" fill-rule="evenodd"/><path d="M81 351.5C81.1833 342.008 88.4791 333.691 99.0001 334 109.18 334.427 116.211 340.735 117 351.5 115.1 359.895 106.677 368.871 99.0001 369 89.0302 369.546 82.4731 359.347 81 351.5Z" stroke="#000000" stroke-width="2" stroke-miterlimit="8" fill="none" fill-rule="evenodd"/><path d="M137.394 367.774C127.862 363.055 126.026 352.29 129.307 343.786 132.132 336.219 143.204 329.941 153.105 335.157 161.643 337.444 165.944 350.584 161.191 359.144 157.179 368.451 145.703 370.242 137.394 367.774Z" stroke="#000000" stroke-width="2" stroke-miterlimit="8" fill="none" fill-rule="evenodd"/><path d="M124 394C124.081 383.986 134.95 378.645 144 377 153.182 376.279 164.209 383.862 164 394 165.569 402.328 154.69 411.926 144 411 132.372 412.958 124.424 403.007 124 394Z" stroke="#000000" stroke-width="2" stroke-miterlimit="8" fill="none" fill-rule="evenodd"/><path d="M480 217.5C480.114 206.982 488.966 200.726 498 200 505.998 199.269 516.4 206.44 516 217.5 517.635 226.09 507.72 235.562 498 235 487.931 235.419 481.374 225.963 480 217.5Z" fill="#B8D4F0" fill-rule="evenodd"/><path d="M480 217.5C480.183 208.008 487.479 199.691 498 200 508.18 200.427 515.211 206.735 516 217.5 514.1 225.895 505.677 234.871 498 235 488.03 235.546 481.473 225.347 480 217.5Z" stroke="#000000" stroke-width="2" stroke-miterlimit="8" fill="none" fill-rule="evenodd"/><path d="M442.791 231.313C431.653 225.702 429.93 215.271 432.545 207.505 434.743 200.831 447.407 195.625 457.549 200.676 467.011 203.366 472.302 216.489 467.795 224.484 464.424 233.593 452.414 235.604 442.791 231.313Z" fill="#B8D4F0" fill-rule="evenodd"/><path d="M442.791 231.313C433.403 226.493 427.179 216.907 432.545 207.505 438.805 198.916 446.584 196.2 457.549 200.676 466.13 206.04 471.407 216.858 467.795 224.484 465.63 233.991 451.415 233.666 442.791 231.313Z" stroke="#000000" stroke-width="2" stroke-miterlimit="8" fill="none" fill-rule="evenodd"/><path d="M385 216C385.114 205.181 393.966 198.747 403 198 410.998 197.248 421.4 204.624 421 216 422.635 224.835 412.72 234.578 403 234 392.931 234.431 386.374 224.705 385 216Z" fill="#B8D4F0" fill-rule="evenodd"/><path d="M385 216C385.183 206.237 392.479 197.682 403 198 413.18 198.439 420.211 204.927 421 216 419.1 224.635 410.677 233.867 403 234 393.03 234.562 386.473 224.071 385 216Z" stroke="#000000" stroke-width="2" stroke-miterlimit="8" fill="none" fill-rule="evenodd"/><path d="M340 216.5C340.114 205.982 348.966 199.726 358 199 365.998 198.269 376.4 205.44 376 216.5 377.635 225.09 367.72 234.562 358 234 347.931 234.419 341.374 224.963 340 216.5Z" fill="#B8D4F0" fill-rule="evenodd"/><path d="M340 216.5C340.183 207.008 347.479 198.691 358 199 368.18 199.427 375.211 205.735 376 216.5 374.1 224.895 365.677 233.871 358 234 348.03 234.546 341.473 224.347 340 216.5Z" stroke="#000000" stroke-width="2" stroke-miterlimit="8" fill="none" fill-rule="evenodd"/><path d="M486 399.5C486.114 388.982 494.966 382.726 504 382 511.998 381.269 522.4 388.44 522 399.5 523.635 408.09 513.72 417.562 504 417 493.931 417.419 487.374 407.963 486 399.5Z" fill="#B8D4F0" fill-rule="evenodd"/><path d="M486 399.5C486.183 390.008 493.479 381.691 504 382 514.18 382.427 521.211 388.735 522 399.5 520.1 407.895 511.677 416.871 504 417 494.03 417.546 487.473 407.347 486 399.5Z" stroke="#000000" stroke-width="2" stroke-miterlimit="8" fill="none" fill-rule="evenodd"/><path d="M486 353C486.114 341.075 494.966 333.748 504 333 513.182 332.706 522.524 340.072 522 353 523.635 362.938 513.72 373.579 504 373 493.331 375.449 487.994 362.248 486 353Z" fill="#B8D4F0" fill-rule="evenodd"/><path d="M486 353C486.183 342.132 493.479 332.682 504 333 514.98 334.914 521.184 340.782 522 353 520.1 362.738 511.677 372.867 504 373 494.017 373.822 486.546 363.352 486 353Z" stroke="#000000" stroke-width="2" stroke-miterlimit="8" fill="none" fill-rule="evenodd"/><path d="M486 307C486.114 296.181 494.966 289.747 504 289 511.998 288.248 522.4 295.624 522 307 523.635 315.835 513.72 325.578 504 325 493.931 325.431 487.374 315.705 486 307Z" fill="#B8D4F0" fill-rule="evenodd"/><path d="M486 307C486.183 297.237 493.479 288.682 504 289 514.18 289.439 521.211 295.927 522 307 520.1 315.635 511.677 324.867 504 325 494.03 325.562 487.473 315.071 486 307Z" stroke="#000000" stroke-width="2" stroke-miterlimit="8" fill="none" fill-rule="evenodd"/><path d="M441 305.5C441.114 294.982 449.966 288.726 459 288 466.998 287.269 477.4 294.44 477 305.5 478.635 314.09 468.72 323.562 459 323 448.931 323.419 442.374 313.963 441 305.5Z" stroke="#000000" stroke-width="2" stroke-miterlimit="8" fill="none" fill-rule="evenodd"/><path d="M444 351C444.114 339.075 452.966 331.748 462 331 471.183 330.706 480.524 338.072 480 351 481.635 360.938 471.72 371.579 462 371 451.331 373.449 445.994 360.248 444 351Z" stroke="#000000" stroke-width="2" stroke-miterlimit="8" fill="none" fill-rule="evenodd"/><path d="M480 262C480.114 251.181 488.966 244.747 498 244 505.998 243.248 516.4 250.624 516 262 517.635 270.835 507.72 280.578 498 280 487.931 280.431 481.374 270.705 480 262Z" fill="#B8D4F0" fill-rule="evenodd"/><path d="M480 262C480.183 252.237 487.479 243.682 498 244 508.18 244.439 515.211 250.927 516 262 514.1 270.635 505.677 279.867 498 280 488.03 280.562 481.473 270.071 480 262Z" stroke="#000000" stroke-width="2" stroke-miterlimit="8" fill="none" fill-rule="evenodd"/><path d="M439 397.5C439.081 387.78 449.95 382.597 459 381 468.182 380.3 479.209 387.66 479 397.5 480.569 405.583 469.69 414.899 459 414 447.372 415.9 439.424 406.243 439 397.5Z" stroke="#000000" stroke-width="2" stroke-miterlimit="8" fill="none" fill-rule="evenodd"/><path d="M342.934 340.732C348.175 331.477 359.025 330.242 367.334 333.991 374.732 337.232 380.385 348.635 374.627 358.231 371.868 366.63 358.51 370.194 350.227 364.972 341.158 360.448 340.007 348.891 342.934 340.732Z" stroke="#000000" stroke-width="2" stroke-miterlimit="8" fill="none" fill-rule="evenodd"/><path d="M393 352C393.114 341.181 401.966 334.747 411 334 418.998 333.248 429.4 340.624 429 352 430.635 360.835 420.72 370.578 411 370 400.931 370.431 394.374 360.705 393 352Z" fill="#B8D4F0" fill-rule="evenodd"/><path d="M393 352C393.183 342.237 400.479 333.682 411 334 421.18 334.439 428.211 340.927 429 352 427.1 360.635 418.677 369.867 411 370 401.03 370.562 394.473 360.071 393 352Z" stroke="#000000" stroke-width="2" stroke-miterlimit="8" fill="none" fill-rule="evenodd"/><path d="M431 261.5C431.081 251.78 441.95 246.597 451 245 460.182 244.3 471.209 251.66 471 261.5 472.569 269.583 461.69 278.899 451 278 439.372 279.9 431.424 270.243 431 261.5Z" stroke="#000000" stroke-width="2" stroke-miterlimit="8" fill="none" fill-rule="evenodd"/><path d="M351.427 322.686C340.289 317.075 338.567 306.643 341.181 298.878 343.379 292.203 356.043 286.997 366.185 292.048 375.647 294.738 380.938 307.862 376.431 315.857 373.06 324.965 361.05 326.977 351.427 322.686Z" fill="#B8D4F0" fill-rule="evenodd"/><path d="M351.427 322.686C342.039 317.866 335.815 308.28 341.181 298.878 347.441 290.289 355.22 287.572 366.185 292.048 374.766 297.413 380.043 308.231 376.431 315.857 374.266 325.363 360.051 325.038 351.427 322.686Z" stroke="#000000" stroke-width="2" stroke-miterlimit="8" fill="none" fill-rule="evenodd"/><path d="M391 307.5C391.114 295.873 399.966 288.73 409 288 418.183 287.713 427.524 294.895 427 307.5 428.635 317.19 418.72 327.564 409 327 398.331 329.388 392.994 316.517 391 307.5Z" fill="#B8D4F0" fill-rule="evenodd"/><path d="M391 307.5C391.183 296.904 398.479 287.69 409 288 419.98 289.866 426.184 295.588 427 307.5 425.1 316.994 416.677 326.87 409 327 399.017 327.801 391.546 317.593 391 307.5Z" stroke="#000000" stroke-width="2" stroke-miterlimit="8" fill="none" fill-rule="evenodd"/><path d="M351.408 278.132C341.875 273.413 340.04 262.649 343.321 254.145 346.146 246.577 357.217 240.299 367.118 245.515 375.657 247.803 379.958 260.943 375.205 269.502 371.192 278.809 359.717 280.601 351.408 278.132Z" stroke="#000000" stroke-width="2" stroke-miterlimit="8" fill="none" fill-rule="evenodd"/><path d="M340 398C340.117 387.181 349.215 380.747 358.5 380 366.721 379.248 377.411 386.624 377 398 378.681 406.835 368.49 416.578 358.5 416 348.151 416.431 341.412 406.705 340 398Z" stroke="#000000" stroke-width="2" stroke-miterlimit="8" fill="none" fill-rule="evenodd"/><path d="M402.266 414.224C392.734 409.505 390.898 398.741 394.179 390.237 397.004 382.669 408.076 376.391 417.977 381.607 426.515 383.895 430.816 397.034 426.063 405.594 422.051 414.901 410.575 416.693 402.266 414.224Z" fill="#B8D4F0" fill-rule="evenodd"/><path d="M402.266 414.224C393.699 409.893 389.307 399.633 394.179 390.237 399.011 381.201 407.826 377.599 417.977 381.607 424.795 387.012 429.296 398.582 426.063 405.594 422.21 414.867 410.057 416.332 402.266 414.224Z" stroke="#000000" stroke-width="2" stroke-miterlimit="8" fill="none" fill-rule="evenodd"/><path d="M385 261.5C385.081 251.78 395.95 246.597 405 245 414.182 244.3 425.209 251.66 425 261.5 426.569 269.583 415.69 278.899 405 278 393.372 279.9 385.424 270.243 385 261.5Z" stroke="#000000" stroke-width="2" stroke-miterlimit="8" fill="none" fill-rule="evenodd"/><path d="M223 212.5C223.114 201.982 231.966 195.726 241 195 248.998 194.269 259.4 201.44 259 212.5 260.635 221.09 250.72 230.562 241 230 230.931 230.419 224.374 220.963 223 212.5Z" stroke="#000000" stroke-width="2" stroke-miterlimit="8" fill="none" fill-rule="evenodd"/><path d="M223 394C223.114 383.181 231.966 376.747 241 376 248.998 375.248 259.4 382.624 259 394 260.635 402.835 250.72 412.578 241 412 230.931 412.431 224.374 402.705 223 394Z" stroke="#000000" stroke-width="2" stroke-miterlimit="8" fill="none" fill-rule="evenodd"/><path d="M223 348C223.114 336.075 231.966 328.748 241 328 250.183 327.706 259.524 335.072 259 348 260.635 357.938 250.72 368.579 241 368 230.331 370.449 224.994 357.248 223 348Z" stroke="#000000" stroke-width="2" stroke-miterlimit="8" fill="none" fill-rule="evenodd"/><path d="M223 301.5C223.114 290.982 231.966 284.726 241 284 248.998 283.269 259.4 290.44 259 301.5 260.635 310.09 250.72 319.562 241 319 230.931 319.419 224.374 309.963 223 301.5Z" stroke="#000000" stroke-width="2" stroke-miterlimit="8" fill="none" fill-rule="evenodd"/><path d="M223 256.5C223.114 245.982 231.966 239.726 241 239 248.998 238.269 259.4 245.44 259 256.5 260.635 265.09 250.72 274.562 241 274 230.931 274.419 224.374 264.963 223 256.5Z" stroke="#000000" stroke-width="2" stroke-miterlimit="8" fill="none" fill-rule="evenodd"/><path d="M847 311C847.114 300.181 855.966 293.747 865 293 872.998 292.248 883.4 299.624 883 311 884.635 319.835 874.72 329.578 865 329 854.931 329.431 848.374 319.705 847 311Z" stroke="#000000" stroke-width="2" stroke-miterlimit="8" fill="none" fill-rule="evenodd"/><path d="M847 356.5C847.117 344.873 856.215 337.73 865.5 337 874.938 336.713 884.539 343.895 884 356.5 885.681 366.19 875.49 376.564 865.5 376 854.535 378.388 849.05 365.517 847 356.5Z" stroke="#000000" stroke-width="2" stroke-miterlimit="8" fill="none" fill-rule="evenodd"/><path d="M843 403.5C843.081 393.78 853.95 388.597 863 387 872.182 386.3 883.209 393.66 883 403.5 884.569 411.583 873.69 420.899 863 420 851.372 421.9 843.424 412.243 843 403.5Z" stroke="#000000" stroke-width="2" stroke-miterlimit="8" fill="none" fill-rule="evenodd"/><path d="M847 219.5C847.117 207.873 856.215 200.73 865.5 200 874.938 199.713 884.539 206.895 884 219.5 885.681 229.19 875.49 239.564 865.5 239 854.535 241.388 849.05 228.517 847 219.5Z" stroke="#000000" stroke-width="2" stroke-miterlimit="8" fill="none" fill-rule="evenodd"/><path d="M843 266.5C843.081 256.78 853.95 251.597 863 250 872.182 249.3 883.209 256.66 883 266.5 884.569 274.583 873.69 283.899 863 283 851.372 284.9 843.424 275.243 843 266.5Z" stroke="#000000" stroke-width="2" stroke-miterlimit="8" fill="none" fill-rule="evenodd"/><path d="M796 217.5C796.114 206.982 804.966 200.726 814 200 821.998 199.269 832.4 206.44 832 217.5 833.635 226.09 823.72 235.562 814 235 803.931 235.419 797.374 225.963 796 217.5Z" stroke="#000000" stroke-width="2" stroke-miterlimit="8" fill="none" fill-rule="evenodd"/><path d="M706.536 235.026C695.398 229.415 693.675 218.983 696.29 211.217 698.487 204.543 711.152 199.337 721.293 204.388 730.756 207.078 736.046 220.201 731.54 228.196 728.169 237.305 716.159 239.317 706.536 235.026Z" stroke="#000000" stroke-width="2" stroke-miterlimit="8" fill="none" fill-rule="evenodd"/><path d="M746 219.5C746.114 207.873 754.966 200.73 764 200 773.182 199.713 782.524 206.895 782 219.5 783.635 229.19 773.72 239.564 764 239 753.331 241.388 747.994 228.517 746 219.5Z" stroke="#000000" stroke-width="2" stroke-miterlimit="8" fill="none" fill-rule="evenodd"/><path d="M649 218.5C649.081 208.78 659.95 203.597 669 202 678.182 201.3 689.209 208.66 689 218.5 690.569 226.583 679.69 235.899 669 235 657.372 236.9 649.424 227.243 649 218.5Z" stroke="#000000" stroke-width="2" stroke-miterlimit="8" fill="none" fill-rule="evenodd"/><path d="M524 170.5C524.081 160.78 534.95 155.597 544 154 553.182 153.3 564.209 160.66 564 170.5 565.569 178.583 554.69 187.899 544 187 532.372 188.9 524.424 179.243 524 170.5Z" stroke="#000000" stroke-width="2" stroke-miterlimit="8" fill="none" fill-rule="evenodd"/><path d="M444.361 186.829C434.829 182.111 432.994 171.346 436.275 162.842 439.1 155.275 450.171 148.997 460.072 154.213 468.611 156.5 472.912 169.64 468.159 178.2 464.146 187.507 452.67 189.298 444.361 186.829Z" stroke="#000000" stroke-width="2" stroke-miterlimit="8" fill="none" fill-rule="evenodd"/><path d="M478 170.5C478.081 160.78 488.95 155.597 498 154 507.182 153.3 518.209 160.66 518 170.5 519.569 178.583 508.69 187.899 498 187 486.372 188.9 478.424 179.243 478 170.5Z" stroke="#000000" stroke-width="2" stroke-miterlimit="8" fill="none" fill-rule="evenodd"/><path d="M528 221C528.114 210.181 536.966 203.747 546 203 553.998 202.248 564.4 209.624 564 221 565.635 229.835 555.72 239.578 546 239 535.931 239.431 529.374 229.705 528 221Z" stroke="#000000" stroke-width="2" stroke-miterlimit="8" fill="none" fill-rule="evenodd"/><path d="M531 400.5C531.114 388.873 539.966 381.73 549 381 558.182 380.713 567.524 387.895 567 400.5 568.635 410.19 558.72 420.564 549 420 538.331 422.388 532.994 409.517 531 400.5Z" stroke="#000000" stroke-width="2" stroke-miterlimit="8" fill="none" fill-rule="evenodd"/><path d="M529 353.5C529.081 343.78 539.95 338.597 549 337 558.182 336.3 569.209 343.66 569 353.5 570.569 361.583 559.69 370.899 549 370 537.372 371.9 529.424 362.243 529 353.5Z" stroke="#000000" stroke-width="2" stroke-miterlimit="8" fill="none" fill-rule="evenodd"/><path d="M531.959 252.447C537.2 243.192 548.05 241.958 556.359 245.707 563.757 248.948 569.41 260.351 563.652 269.947 560.893 278.345 547.534 281.909 539.252 276.687 530.183 272.164 529.032 260.606 531.959 252.447Z" stroke="#000000" stroke-width="2" stroke-miterlimit="8" fill="none" fill-rule="evenodd"/><path d="M529 309.5C529.117 298.982 538.215 292.726 547.5 292 555.721 291.269 566.411 298.44 566 309.5 567.681 318.09 557.49 327.562 547.5 327 537.151 327.419 530.412 317.963 529 309.5Z" stroke="#000000" stroke-width="2" stroke-miterlimit="8" fill="none" fill-rule="evenodd"/><path d="M391.04 163.429C396.281 154.174 407.131 152.94 415.44 156.688 422.838 159.929 428.491 171.333 422.733 180.929 419.974 189.327 406.616 192.891 398.333 187.669 389.264 183.145 388.113 171.588 391.04 163.429Z" stroke="#000000" stroke-width="2" stroke-miterlimit="8" fill="none" fill-rule="evenodd"/><path d="M340 172.5C340.114 161.982 348.966 155.726 358 155 365.998 154.269 376.4 161.44 376 172.5 377.635 181.09 367.72 190.562 358 190 347.931 190.419 341.374 180.963 340 172.5Z" stroke="#000000" stroke-width="2" stroke-miterlimit="8" fill="none" fill-rule="evenodd"/><text font-family="Calibri,Calibri_MSFontService,sans-serif" font-weight="400" font-size="37" transform="translate(382.909 466)">R</text><text font-family="Calibri,Calibri_MSFontService,sans-serif" font-weight="400" font-size="25" transform="translate(403.242 474)">5</text><text font-family="Calibri,Calibri_MSFontService,sans-serif" font-weight="400" font-size="37" transform="translate(415.909 466)">= R</text><text font-family="Calibri,Calibri_MSFontService,sans-serif" font-weight="400" font-size="25" transform="translate(463.409 474)">4</text><text font-family="Calibri,Calibri_MSFontService,sans-serif" font-weight="400" font-size="37" transform="translate(476.076 466)">+2</text><text font-family="Cambria Math,Cambria Math_MSFontService,sans-serif" font-weight="400" font-size="37" transform="translate(513.742 466)">⋅</text><text font-family="Calibri,Calibri_MSFontService,sans-serif" font-weight="400" font-size="37" transform="translate(524.242 466)">5</text><text font-family="Calibri,Calibri_MSFontService,sans-serif" font-weight="400" font-size="37" transform="translate(382.909 511)">R</text><text font-family="Calibri,Calibri_MSFontService,sans-serif" font-weight="400" font-size="25" transform="translate(403.242 519)">4</text><text font-family="Calibri,Calibri_MSFontService,sans-serif" font-weight="400" font-size="37" transform="translate(415.909 511)">= R</text><text font-family="Calibri,Calibri_MSFontService,sans-serif" font-weight="400" font-size="25" transform="translate(463.409 519)">3</text><text font-family="Calibri,Calibri_MSFontService,sans-serif" font-weight="400" font-size="37" transform="translate(476.076 511)">+</text><text fill="#2D7FCF" font-family="Calibri,Calibri_MSFontService,sans-serif" font-weight="400" font-size="37" transform="translate(494.742 511)">2</text><text fill="#2D7FCF" font-family="Cambria Math,Cambria Math_MSFontService,sans-serif" font-weight="400" font-size="37" transform="translate(513.742 511)">⋅</text><text fill="#2D7FCF" font-family="Calibri,Calibri_MSFontService,sans-serif" font-weight="400" font-size="37" transform="translate(524.242 511)">4</text><text font-family="Calibri,Calibri_MSFontService,sans-serif" font-weight="400" font-size="37" transform="translate(382.909 556)">R</text><text font-family="Calibri,Calibri_MSFontService,sans-serif" font-weight="400" font-size="25" transform="translate(403.242 564)">3</text><text font-family="Calibri,Calibri_MSFontService,sans-serif" font-weight="400" font-size="37" transform="translate(415.909 556)">= R</text><text font-family="Calibri,Calibri_MSFontService,sans-serif" font-weight="400" font-size="25" transform="translate(463.409 564)">2</text><text font-family="Calibri,Calibri_MSFontService,sans-serif" font-weight="400" font-size="37" transform="translate(476.076 556)">+2</text><text font-family="Cambria Math,Cambria Math_MSFontService,sans-serif" font-weight="400" font-size="37" transform="translate(513.742 556)">⋅</text><text font-family="Calibri,Calibri_MSFontService,sans-serif" font-weight="400" font-size="37" transform="translate(524.242 556)">3</text><text font-family="Calibri,Calibri_MSFontService,sans-serif" font-weight="400" font-size="37" transform="translate(382.909 600)">R</text><text font-family="Calibri,Calibri_MSFontService,sans-serif" font-weight="400" font-size="25" transform="translate(403.242 608)">2</text><text font-family="Calibri,Calibri_MSFontService,sans-serif" font-weight="400" font-size="37" transform="translate(415.909 600)">= R</text><text font-family="Calibri,Calibri_MSFontService,sans-serif" font-weight="400" font-size="25" transform="translate(463.409 608)">1</text><text font-family="Calibri,Calibri_MSFontService,sans-serif" font-weight="400" font-size="37" transform="translate(476.076 600)">+</text><text fill="#2D7FCF" font-family="Calibri,Calibri_MSFontService,sans-serif" font-weight="400" font-size="37" transform="translate(494.742 600)">2</text><text fill="#2D7FCF" font-family="Cambria Math,Cambria Math_MSFontService,sans-serif" font-weight="400" font-size="37" transform="translate(513.742 600)">⋅</text><text fill="#2D7FCF" font-family="Calibri,Calibri_MSFontService,sans-serif" font-weight="400" font-size="37" transform="translate(524.242 600)">2</text><text font-family="Calibri,Calibri_MSFontService,sans-serif" font-weight="400" font-size="37" transform="translate(91.9367 461)">T</text><text font-family="Calibri,Calibri_MSFontService,sans-serif" font-weight="400" font-size="25" transform="translate(110.103 469)">5</text><text font-family="Calibri,Calibri_MSFontService,sans-serif" font-weight="400" font-size="37" transform="translate(122.77 461)">= T</text><text font-family="Calibri,Calibri_MSFontService,sans-serif" font-weight="400" font-size="25" transform="translate(168.103 469)">4</text><text font-family="Calibri,Calibri_MSFontService,sans-serif" font-weight="400" font-size="37" transform="translate(180.77 461)">+5</text><text font-family="Calibri,Calibri_MSFontService,sans-serif" font-weight="400" font-size="37" transform="translate(91.9367 506)">T</text><text font-family="Calibri,Calibri_MSFontService,sans-serif" font-weight="400" font-size="25" transform="translate(110.103 514)">4</text><text font-family="Calibri,Calibri_MSFontService,sans-serif" font-weight="400" font-size="37" transform="translate(122.77 506)">= T</text><text font-family="Calibri,Calibri_MSFontService,sans-serif" font-weight="400" font-size="25" transform="translate(168.103 514)">3</text><text font-family="Calibri,Calibri_MSFontService,sans-serif" font-weight="400" font-size="37" transform="translate(180.77 506)">+</text><text fill="#3B7D23" font-family="Calibri,Calibri_MSFontService,sans-serif" font-weight="400" font-size="37" transform="translate(199.437 506)">4</text><text font-family="Calibri,Calibri_MSFontService,sans-serif" font-weight="400" font-size="37" transform="translate(91.9367 551)">T</text><text font-family="Calibri,Calibri_MSFontService,sans-serif" font-weight="400" font-size="25" transform="translate(110.103 559)">3</text><text font-family="Calibri,Calibri_MSFontService,sans-serif" font-weight="400" font-size="37" transform="translate(122.77 551)">= T</text><text font-family="Calibri,Calibri_MSFontService,sans-serif" font-weight="400" font-size="25" transform="translate(168.103 559)">2</text><text font-family="Calibri,Calibri_MSFontService,sans-serif" font-weight="400" font-size="37" transform="translate(180.77 551)">+3</text><text font-family="Calibri,Calibri_MSFontService,sans-serif" font-weight="400" font-size="37" transform="translate(91.9367 595)">T</text><text font-family="Calibri,Calibri_MSFontService,sans-serif" font-weight="400" font-size="25" transform="translate(110.103 603)">2</text><text font-family="Calibri,Calibri_MSFontService,sans-serif" font-weight="400" font-size="37" transform="translate(122.77 595)">= T</text><text font-family="Calibri,Calibri_MSFontService,sans-serif" font-weight="400" font-size="25" transform="translate(168.103 603)">1</text><text font-family="Calibri,Calibri_MSFontService,sans-serif" font-weight="400" font-size="37" transform="translate(180.77 595)">+</text><text fill="#3B7D23" font-family="Calibri,Calibri_MSFontService,sans-serif" font-weight="400" font-size="37" transform="translate(199.437 595)">2</text></g></svg>