<svg width="1280" height="720" xmlns="http://www.w3.org/2000/svg" xmlns:xlink="http://www.w3.org/1999/xlink" overflow="hidden"><g><rect x="0" y="0" width="1280" height="720" fill="#FFFFFF"/><path d="M155 312C175.101 312.596 180.239 311.597 200.76 312 221.281 312.403 226.108 310.784 243 312 244.919 327.919 243.979 349.278 243 382.667 242.021 416.055 245.389 428.05 243 445.333 240.611 462.617 244.465 490.005 243 512 233.413 513.99 218.373 510.991 199 512 179.627 513.009 170.458 513.457 155 512 153.108 493.763 151.982 465.74 155 449.333 158.018 432.927 153.976 405.512 155 386.667 156.024 367.822 158.307 344.321 155 312Z" stroke="#000000" stroke-width="2" stroke-miterlimit="8" stroke-dasharray="8 6" fill="none" fill-rule="evenodd"/><path d="M897 312C926.216 311.123 945.49 310.389 959.92 312 974.35 313.611 1002.25 309.183 1018 312 1019.91 327.919 1018.98 349.278 1018 382.667 1017.02 416.055 1020.38 428.05 1018 445.333 1015.62 462.617 1019.46 490.005 1018 512 1004.28 514.074 978.298 509.593 957.5 512 936.702 514.407 917.46 512.725 897 512 895.112 493.763 893.989 465.74 897 449.333 900.011 432.927 895.979 405.512 897 386.667 898.021 367.822 900.3 344.321 897 312Z" stroke="#000000" stroke-width="2" stroke-miterlimit="8" stroke-dasharray="8 6" fill="none" fill-rule="evenodd"/><rect x="893" y="301" width="121" height="224" stroke="#FFFFFF" stroke-width="2" stroke-miterlimit="8" fill="#FFFFFF"/><rect x="159" y="301" width="98" height="224" stroke="#FFFFFF" stroke-width="2" stroke-miterlimit="8" fill="#FFFFFF"/><path d="M519 512C552.172 499.507 553.112 495.206 586.264 485 619.415 474.794 628.306 469.932 638.58 464 648.854 458.068 674.682 449.232 700.861 439 727.041 428.768 732.272 425.506 753.178 418 774.084 410.494 801.13 394.767 825.424 389 849.718 383.233 860.951 370.872 897.671 360 934.39 349.128 931.881 345.773 959.952 335 988.023 324.227 999.284 317.901 1017.25 312 1043.21 314.53 1052.02 313.767 1070.71 312 1089.4 310.233 1106.37 310 1124.17 312 1141.97 314 1157.44 310.799 1177.63 312 1197.82 313.201 1214.94 310.272 1240 312 1208.32 320.601 1184.81 333.207 1167.75 341 1150.7 348.793 1126.88 360.577 1105.47 366 1084.06 371.423 1057.15 387.498 1043.19 391 1029.23 394.502 998.167 411.894 975.927 418 953.687 424.106 936.176 435.694 908.663 445 881.151 454.306 866.229 461.208 836.417 474 806.604 486.792 787.955 497.415 741.749 512 731.256 514.199 702.226 513.542 690.517 512 678.807 510.458 646.513 510.368 632.602 512 618.691 513.632 601.52 509.692 583.597 512 565.674 514.308 534.162 511.002 519 512Z" stroke="#000000" stroke-width="2" stroke-miterlimit="8" fill="none" fill-rule="evenodd"/><path d="M83 512C92.8415 485.426 93.8834 477.001 107.985 443.333 122.086 409.666 117.974 406.199 130.786 380.667 143.599 355.134 146.661 328.707 155.771 312 174.64 312.877 208.071 310.107 221.153 312 234.235 313.893 261.486 312.433 282.901 312 304.317 311.567 318.525 312.073 348.283 312 378.04 311.927 393.489 314.283 420.928 312 448.368 309.717 481.986 313.473 519 312 513.71 326.157 499.654 365.601 493.287 382.667 486.921 399.732 479.43 415.753 471.213 443.333 462.996 470.913 458.424 480.123 446.229 512 416.585 512.016 414.138 513.383 384.48 512 354.821 510.617 337.41 508.712 315.466 512 293.522 515.288 258.263 513.875 239.188 512 220.113 510.125 195.873 512.956 162.91 512 129.947 511.044 104.118 508.265 83 512Z" stroke="#000000" stroke-width="2" stroke-miterlimit="8" fill="none" fill-rule="evenodd"/><rect x="993" y="508" width="36" height="10" stroke="#FFFFFF" stroke-width="2" stroke-miterlimit="8" fill="#FFFFFF"/></g></svg>