<svg width="1280" height="720" xmlns="http://www.w3.org/2000/svg" xmlns:xlink="http://www.w3.org/1999/xlink" overflow="hidden"><g><rect x="0" y="0" width="1280" height="720" fill="#FFFFFF"/><path d="M114 210C140.719 209.511 156.366 210.054 175.02 210 193.674 209.946 220.707 212.057 236.04 210 251.373 207.943 295.798 206.1 340 210 341.876 233.295 340.031 252.939 340 264.48 339.969 276.021 337.922 300.225 340 318.96 342.078 337.695 342.567 358.196 340 375.71 337.433 393.224 339.015 416.229 340 437 318.998 437.163 302.351 438.689 290.28 437 278.209 435.311 259.255 434.224 231.52 437 203.785 439.776 191.166 435.775 179.54 437 167.914 438.225 129.753 437.641 114 437 116.186 418.914 113.229 401.846 114 387.06 114.771 372.274 116.538 350.143 114 330.31 111.462 310.477 112.009 289.104 114 271.29 115.991 253.476 115.99 231.122 114 210Z" stroke="#000000" stroke-width="2" stroke-miterlimit="8" fill="none" fill-rule="evenodd"/><path d="M414 209C440.837 208.513 456.554 209.054 475.29 209 494.026 208.946 521.179 211.048 536.58 209 551.981 206.952 596.602 205.117 641 209 642.884 232.193 641.031 251.75 641 263.24 640.969 274.73 638.913 298.827 641 317.48 643.087 336.133 643.578 356.543 641 373.98 638.422 391.417 640.011 414.321 641 435 619.905 435.162 603.184 436.681 591.06 435 578.936 433.319 559.898 432.236 532.04 435 504.182 437.764 491.508 433.781 479.83 435 468.152 436.219 429.823 435.639 414 435 416.196 416.993 413.226 400.001 414 385.28 414.774 370.559 416.549 348.526 414 328.78 411.451 309.034 412 287.755 414 270.02 416 252.285 415.998 230.029 414 209Z" stroke="#000000" stroke-width="2" stroke-miterlimit="8" fill="none" fill-rule="evenodd"/><path d="M105 205C124.743 205.102 154.016 205.764 170.88 205 187.744 204.236 214.198 206.551 236.76 205 259.322 203.449 296.36 203.946 349 205 350.882 228.295 349.031 247.939 349 259.48 348.969 271.021 346.915 295.225 349 313.96 351.085 332.695 351.576 353.196 349 370.71 346.424 388.224 348.012 411.229 349 432 336.314 429.686 320.346 433.583 295.32 432 270.294 430.417 263.084 430.186 231.88 432 200.676 433.814 195.267 430.058 175.76 432 156.253 433.942 138.992 432.49 105 432 107.194 413.914 104.226 396.846 105 382.06 105.774 367.274 107.547 345.143 105 325.31 102.453 305.477 103.002 284.104 105 266.29 106.998 248.476 106.996 226.122 105 205Z" fill="#FFFFFF" fill-rule="evenodd"/><path d="M105 205C124.426 203.072 138.397 205.715 158.68 205 178.963 204.285 197.627 205.211 217.24 205 236.853 204.789 249.899 203.439 278.24 205 306.581 206.561 329.902 201.811 349 205 347.659 233.232 350.929 249.805 349 261.75 347.071 273.695 348.179 291.04 349 311.69 349.821 332.34 348.281 358.256 349 372.98 349.719 387.704 351.374 410.298 349 432 333.983 434.736 300.661 429.996 283.12 432 265.579 434.004 237.014 430.514 217.24 432 197.466 433.486 173.935 433.061 158.68 432 143.425 430.939 120.544 434.604 105 432 107.096 417.067 103.493 407.017 105 382.06 106.507 357.103 104.296 355.443 105 332.12 105.704 308.797 103.827 294.62 105 275.37 106.173 256.12 106.666 228.983 105 205Z" stroke="#FFFFFF" stroke-width="2" stroke-miterlimit="8" fill="none" fill-rule="evenodd"/><rect x="81" y="408" width="40" height="27" stroke="#FFFFFF" stroke-width="2" stroke-miterlimit="8" fill="#FFFFFF"/><rect x="327" y="408" width="44" height="27" stroke="#FFFFFF" stroke-width="2" stroke-miterlimit="8" fill="#FFFFFF"/><text font-family="Calibri,Calibri_MSFontService,sans-serif" font-weight="400" font-size="37" transform="translate(121.863 494)">1 lengdeenhet</text><text font-family="Calibri,Calibri_MSFontService,sans-serif" font-weight="400" font-size="37" transform="translate(432.142 494)">1 arealenhet</text><path d="M717 214.5C725.628 203.617 742.303 189.574 754.443 177.015 766.584 164.456 779.997 153.677 790.418 141 809.087 141.232 827.835 138.468 842.532 141 857.229 143.532 876.522 141.405 896.912 141 917.302 140.595 935.17 142.644 958.089 141 981.007 139.356 989.455 138.103 1017 141 1013.92 164.131 1019.28 187.066 1017 212.295 1014.72 237.524 1020.18 268.396 1017 285.795 1013.82 303.194 1016.62 342.195 1017 361.5 999.911 379.329 996.206 381.805 981.025 397.515 965.844 413.225 955.722 420.786 943.582 435 932.772 434.352 916.985 437.468 891.468 435 865.95 432.532 860.334 434.749 834.822 435 809.311 435.251 799.328 434.593 782.709 435 766.09 435.407 742.346 436.888 717 435 715.374 403.005 717.697 396.28 717 368.115 716.303 339.95 718.174 317.87 717 296.82 715.826 275.77 715.335 244.219 717 214.5ZM717 214.5C732.485 217.151 758.621 215.158 778.177 214.5 797.733 213.842 810.644 214.878 830.291 214.5 849.937 214.122 860.06 213.916 880.139 214.5 900.218 215.084 915.834 212.352 943.582 214.5 958.778 198.465 972.686 186.134 980.291 177.75 987.896 169.366 998.944 158.058 1017 141M943.582 214.5C945.071 236.324 943.84 254.265 943.582 281.385 943.323 308.505 945.54 328.029 943.582 352.68 941.623 377.331 941.155 415.788 943.582 435" stroke="#000000" stroke-width="2" stroke-miterlimit="8" fill="none" fill-rule="evenodd"/><text font-family="Calibri,Calibri_MSFontService,sans-serif" font-weight="400" font-size="37" transform="translate(734.652 494)">1 volumenhet</text></g></svg>