<svg width="1280" height="720" xmlns="http://www.w3.org/2000/svg" xmlns:xlink="http://www.w3.org/1999/xlink" overflow="hidden"><g><rect x="0" y="0" width="1280" height="720" fill="#FFFFFF"/><text font-family="Calibri,Calibri_MSFontService,sans-serif" font-weight="400" font-size="37" transform="translate(96.0305 584)">F</text><text font-family="Calibri,Calibri_MSFontService,sans-serif" font-weight="400" font-size="25" transform="translate(113.197 592)">1</text><path d="M956 387.5C956.114 376.982 964.966 370.726 974 370 981.998 369.269 992.4 376.44 992 387.5 993.635 396.09 983.72 405.562 974 405 963.931 405.419 957.374 395.963 956 387.5Z" stroke="#000000" stroke-width="2" stroke-miterlimit="8" fill="none" fill-rule="evenodd"/><path d="M527 380.5C527.081 370.78 537.95 365.597 547 364 556.182 363.3 567.209 370.66 567 380.5 568.569 388.583 557.69 397.899 547 397 535.372 398.9 527.424 389.243 527 380.5Z" stroke="#000000" stroke-width="2" stroke-miterlimit="8" fill="none" fill-rule="evenodd"/><path d="M544.593 320.535C556.888 318.444 564.463 325.82 566.965 333.623 569.156 340.299 562.049 352.003 550.888 353.953 541.675 357.401 529.63 349.975 528.515 340.866 525.826 331.533 534.3 322.789 544.593 320.535Z" stroke="#000000" stroke-width="2" stroke-miterlimit="8" fill="none" fill-rule="evenodd"/><path d="M965.313 361.161C954.174 355.55 952.452 345.118 955.066 337.353 957.264 330.678 969.928 325.472 980.07 330.523 989.532 333.213 994.823 346.336 990.316 354.332 986.945 363.44 974.935 365.452 965.313 361.161Z" stroke="#000000" stroke-width="2" stroke-miterlimit="8" fill="none" fill-rule="evenodd"/><path d="M911 388C911.114 377.181 919.966 370.747 929 370 936.998 369.248 947.4 376.624 947 388 948.635 396.835 938.72 406.578 929 406 918.931 406.431 912.374 396.705 911 388Z" stroke="#000000" stroke-width="2" stroke-miterlimit="8" fill="none" fill-rule="evenodd"/><path d="M237 378C237.114 367.181 245.966 360.747 255 360 262.998 359.248 273.4 366.624 273 378 274.635 386.835 264.72 396.578 255 396 244.931 396.431 238.374 386.705 237 378Z" stroke="#000000" stroke-width="2" stroke-miterlimit="8" fill="none" fill-rule="evenodd"/><path d="M290.779 394.177C281.247 389.459 279.411 378.694 282.692 370.19 285.517 362.623 296.588 356.345 306.489 361.56 315.028 363.848 319.329 376.988 314.576 385.548 310.563 394.855 299.088 396.646 290.779 394.177Z" stroke="#000000" stroke-width="2" stroke-miterlimit="8" fill="none" fill-rule="evenodd"/><path d="M281 335.5C281.114 324.982 289.966 318.726 299 318 306.998 317.269 317.4 324.44 317 335.5 318.635 344.09 308.72 353.562 299 353 288.931 353.419 282.374 343.963 281 335.5Z" stroke="#000000" stroke-width="2" stroke-miterlimit="8" fill="none" fill-rule="evenodd"/><path d="M493.535 353.921C484.003 349.203 482.168 338.438 485.449 329.934 488.273 322.367 499.345 316.089 509.246 321.305 517.785 323.592 522.086 336.732 517.332 345.292 513.32 354.599 501.844 356.39 493.535 353.921Z" stroke="#000000" stroke-width="2" stroke-miterlimit="8" fill="none" fill-rule="evenodd"/><path d="M480 380.5C480.081 370.78 490.95 365.597 500 364 509.182 363.3 520.209 370.66 520 380.5 521.569 388.583 510.69 397.899 500 397 488.372 398.9 480.424 389.243 480 380.5Z" stroke="#000000" stroke-width="2" stroke-miterlimit="8" fill="none" fill-rule="evenodd"/><text font-family="Calibri,Calibri_MSFontService,sans-serif" font-weight="400" font-size="37" transform="translate(328.146 65)">T</text><text font-family="Calibri,Calibri_MSFontService,sans-serif" font-weight="400" font-size="25" transform="translate(346.313 73)">5</text><text font-family="Calibri,Calibri_MSFontService,sans-serif" font-weight="400" font-size="37" transform="translate(358.979 65)">=(5</text><text font-family="Cambria Math,Cambria Math_MSFontService,sans-serif" font-weight="400" font-size="37" transform="translate(407.979 65)">⋅</text><text font-family="Calibri,Calibri_MSFontService,sans-serif" font-weight="400" font-size="37" transform="translate(418.479 65)">6)/2</text><path d="M529 290.5C529.114 279.982 537.966 273.726 547 273 554.998 272.269 565.4 279.44 565 290.5 566.635 299.09 556.72 308.562 547 308 536.931 308.419 530.374 298.963 529 290.5Z" stroke="#000000" stroke-width="2" stroke-miterlimit="8" fill="none" fill-rule="evenodd"/><path d="M107.8 363.621C120.095 361.531 127.67 368.907 130.172 376.709 132.362 383.386 125.255 395.09 114.095 397.04 104.882 400.488 92.8372 393.062 91.7222 383.952 89.0324 374.619 97.5072 365.876 107.8 363.621Z" stroke="#000000" stroke-width="2" stroke-miterlimit="8" fill="none" fill-rule="evenodd"/><path d="M575 289.5C575.117 278.982 584.215 272.726 593.5 272 601.721 271.269 612.411 278.44 612 289.5 613.681 298.09 603.49 307.562 593.5 307 583.151 307.419 576.412 297.963 575 289.5Z" stroke="#000000" stroke-width="2" stroke-miterlimit="8" fill="none" fill-rule="evenodd"/><path d="M573 381.5C573.117 370.982 582.215 364.726 591.5 364 599.721 363.269 610.411 370.44 610 381.5 611.681 390.09 601.49 399.562 591.5 399 581.151 399.419 574.412 389.963 573 381.5Z" stroke="#000000" stroke-width="2" stroke-miterlimit="8" fill="none" fill-rule="evenodd"/><path d="M587.386 353.921C577.854 349.203 576.019 338.438 579.3 329.934 582.125 322.367 593.196 316.089 603.097 321.304 611.636 323.592 615.937 336.732 611.184 345.292 607.171 354.599 595.695 356.39 587.386 353.921Z" stroke="#000000" stroke-width="2" stroke-miterlimit="8" fill="none" fill-rule="evenodd"/><path d="M863 298.5C863.117 287.982 872.215 281.726 881.5 281 889.721 280.269 900.411 287.44 900 298.5 901.681 307.09 891.49 316.562 881.5 316 871.151 316.419 864.412 306.963 863 298.5Z" stroke="#000000" stroke-width="2" stroke-miterlimit="8" fill="none" fill-rule="evenodd"/><path d="M860 387C860.081 376.986 870.95 371.645 880 370 889.182 369.279 900.209 376.862 900 387 901.569 395.328 890.69 404.926 880 404 868.372 405.958 860.424 396.007 860 387Z" stroke="#000000" stroke-width="2" stroke-miterlimit="8" fill="none" fill-rule="evenodd"/><path d="M877.838 327.364C890.133 325.273 897.708 332.649 900.21 340.452 902.401 347.128 895.294 358.832 884.133 360.782 874.92 364.23 862.875 356.804 861.76 347.694 859.071 338.362 867.546 329.618 877.838 327.364Z" stroke="#000000" stroke-width="2" stroke-miterlimit="8" fill="none" fill-rule="evenodd"/><path d="M873.649 272.21C863.369 267.066 861.452 256.518 864.801 248.048 867.904 240.263 878.426 234.06 889.209 239.905 898.12 242.322 903.229 256.089 898.057 264.067 895.199 274.313 882.555 275.641 873.649 272.21Z" stroke="#000000" stroke-width="2" stroke-miterlimit="8" fill="none" fill-rule="evenodd"/><path d="M908 255C908.117 244.181 917.215 237.747 926.5 237 934.721 236.248 945.411 243.624 945 255 946.681 263.835 936.49 273.578 926.5 273 916.151 273.431 909.412 263.705 908 255Z" stroke="#000000" stroke-width="2" stroke-miterlimit="8" fill="none" fill-rule="evenodd"/><path d="M484 291C484.114 280.181 492.966 273.747 502 273 509.998 272.248 520.4 279.624 520 291 521.635 299.835 511.72 309.578 502 309 491.931 309.431 485.374 299.705 484 291Z" stroke="#000000" stroke-width="2" stroke-miterlimit="8" fill="none" fill-rule="evenodd"/><path d="M965.502 315.206C955.97 310.487 954.134 299.723 957.415 291.218 960.24 283.651 971.312 277.373 981.213 282.589 989.751 284.877 994.052 298.016 989.299 306.576 985.287 315.883 973.811 317.674 965.502 315.206Z" stroke="#000000" stroke-width="2" stroke-miterlimit="8" fill="none" fill-rule="evenodd"/><path d="M956 256.5C956.114 245.982 964.966 239.726 974 239 981.998 238.269 992.4 245.44 992 256.5 993.635 265.09 983.72 274.562 974 274 963.931 274.419 957.374 264.963 956 256.5Z" stroke="#000000" stroke-width="2" stroke-miterlimit="8" fill="none" fill-rule="evenodd"/><path d="M916.749 317.114C907.217 312.395 905.381 301.631 908.662 293.126 911.487 285.559 922.558 279.281 932.46 284.497 940.998 286.785 945.299 299.924 940.546 308.484 936.534 317.791 925.058 319.583 916.749 317.114Z" stroke="#000000" stroke-width="2" stroke-miterlimit="8" fill="none" fill-rule="evenodd"/><path d="M904 343.5C904.081 333.78 914.95 328.597 924 327 933.182 326.3 944.209 333.66 944 343.5 945.569 351.583 934.69 360.899 924 360 912.372 361.9 904.424 352.243 904 343.5Z" stroke="#000000" stroke-width="2" stroke-miterlimit="8" fill="none" fill-rule="evenodd"/><path d="M817 299.5C817.114 288.982 825.966 282.726 835 282 842.998 281.269 853.4 288.44 853 299.5 854.635 308.09 844.72 317.562 835 317 824.931 317.419 818.374 307.963 817 299.5Z" stroke="#000000" stroke-width="2" stroke-miterlimit="8" fill="none" fill-rule="evenodd"/><path d="M836.13 237.881C848.425 235.79 856 243.166 858.503 250.969 860.693 257.645 853.586 269.349 842.425 271.299 833.212 274.747 821.168 267.321 820.053 258.212 817.363 248.879 825.838 240.135 836.13 237.881Z" stroke="#000000" stroke-width="2" stroke-miterlimit="8" fill="none" fill-rule="evenodd"/><path d="M818 339C818.114 328.181 826.966 321.747 836 321 843.998 320.248 854.4 327.624 854 339 855.635 347.835 845.72 357.578 836 357 825.931 357.431 819.374 347.705 818 339Z" stroke="#000000" stroke-width="2" stroke-miterlimit="8" fill="none" fill-rule="evenodd"/><path d="M237 335.5C237.114 324.982 245.966 318.726 255 318 262.998 317.269 273.4 324.44 273 335.5 274.635 344.09 264.72 353.562 255 353 244.931 353.419 238.374 343.963 237 335.5Z" stroke="#000000" stroke-width="2" stroke-miterlimit="8" fill="none" fill-rule="evenodd"/><path d="M826.675 401.303C817.143 396.585 815.307 385.82 818.588 377.316 821.413 369.749 832.485 363.471 842.386 368.686 850.924 370.974 855.225 384.114 850.472 392.674 846.46 401.981 834.984 403.772 826.675 401.303Z" stroke="#000000" stroke-width="2" stroke-miterlimit="8" fill="none" fill-rule="evenodd"/><path d="M392 380C392.114 369.181 400.966 362.747 410 362 417.998 361.248 428.4 368.624 428 380 429.635 388.835 419.72 398.578 410 398 399.931 398.431 393.374 388.705 392 380Z" stroke="#000000" stroke-width="2" stroke-miterlimit="8" fill="none" fill-rule="evenodd"/><path d="M445.523 396.397C435.991 391.678 434.155 380.913 437.436 372.409 440.261 364.842 451.333 358.564 461.234 363.78 469.773 366.067 474.073 379.207 469.32 387.767 465.308 397.074 453.832 398.865 445.523 396.397Z" stroke="#000000" stroke-width="2" stroke-miterlimit="8" fill="none" fill-rule="evenodd"/><path d="M436 337.5C436.114 326.982 444.966 320.726 454 320 461.998 319.269 472.4 326.44 472 337.5 473.635 346.09 463.72 355.562 454 355 443.931 355.419 437.374 345.963 436 337.5Z" stroke="#000000" stroke-width="2" stroke-miterlimit="8" fill="none" fill-rule="evenodd"/><path d="M484 467C484.114 456.181 492.966 449.747 502 449 509.998 448.248 520.4 455.624 520 467 521.635 475.835 511.72 485.578 502 485 491.931 485.431 485.374 475.705 484 467Z" stroke="#000000" stroke-width="2" stroke-miterlimit="8" fill="none" fill-rule="evenodd"/><path d="M492.806 440.557C481.667 434.947 479.945 424.515 482.559 416.749 484.757 410.075 497.421 404.869 507.563 409.92 517.025 412.61 522.316 425.733 517.809 433.728 514.438 442.837 502.428 444.849 492.806 440.557Z" stroke="#000000" stroke-width="2" stroke-miterlimit="8" fill="none" fill-rule="evenodd"/><path d="M528 425.5C528.114 414.982 536.966 408.726 546 408 553.998 407.269 564.4 414.44 564 425.5 565.635 434.09 555.72 443.562 546 443 535.931 443.419 529.374 433.963 528 425.5Z" stroke="#000000" stroke-width="2" stroke-miterlimit="8" fill="none" fill-rule="evenodd"/><path d="M233 421.5C233.117 410.982 242.215 404.726 251.5 404 259.721 403.269 270.411 410.44 270 421.5 271.681 430.09 261.49 439.562 251.5 439 241.151 439.419 234.412 429.963 233 421.5Z" stroke="#000000" stroke-width="2" stroke-miterlimit="8" fill="none" fill-rule="evenodd"/><path d="M200.347 392.172C189.209 386.561 187.486 376.129 190.101 368.364 192.299 361.689 204.963 356.483 215.105 361.534 224.567 364.225 229.858 377.348 225.351 385.343 221.98 394.452 209.97 396.463 200.347 392.172Z" stroke="#000000" stroke-width="2" stroke-miterlimit="8" fill="none" fill-rule="evenodd"/><path d="M772 296.5C772.114 285.982 780.966 279.726 790 279 797.998 278.269 808.4 285.44 808 296.5 809.635 305.09 799.72 314.562 790 314 779.931 314.419 773.374 304.963 772 296.5Z" stroke="#000000" stroke-width="2" stroke-miterlimit="8" fill="none" fill-rule="evenodd"/><path d="M680 385C680.114 374.181 688.966 367.747 698 367 705.998 366.248 716.4 373.624 716 385 717.635 393.835 707.72 403.578 698 403 687.931 403.431 681.374 393.705 680 385Z" stroke="#000000" stroke-width="2" stroke-miterlimit="8" fill="none" fill-rule="evenodd"/><path d="M733.685 401.303C724.153 396.585 722.317 385.82 725.598 377.316 728.423 369.749 739.495 363.471 749.396 368.686 757.934 370.974 762.235 384.114 757.482 392.674 753.47 401.981 741.994 403.772 733.685 401.303Z" stroke="#000000" stroke-width="2" stroke-miterlimit="8" fill="none" fill-rule="evenodd"/><path d="M724 342.5C724.114 331.982 732.966 325.726 742 325 749.998 324.269 760.4 331.44 760 342.5 761.635 351.09 751.72 360.562 742 360 731.931 360.419 725.374 350.963 724 342.5Z" stroke="#000000" stroke-width="2" stroke-miterlimit="8" fill="none" fill-rule="evenodd"/><path d="M779.941 358.675C770.409 353.956 768.574 343.192 771.855 334.688 774.68 327.12 785.751 320.842 795.652 326.058 804.191 328.346 808.492 341.486 803.739 350.045 799.726 359.352 788.251 361.144 779.941 358.675Z" stroke="#000000" stroke-width="2" stroke-miterlimit="8" fill="none" fill-rule="evenodd"/><path d="M767 385C767.081 374.986 777.95 369.645 787 368 796.182 367.279 807.209 374.862 807 385 808.569 393.328 797.69 402.926 787 402 775.372 403.958 767.424 394.007 767 385Z" stroke="#000000" stroke-width="2" stroke-miterlimit="8" fill="none" fill-rule="evenodd"/><path d="M863 431.5C863.114 420.982 871.966 414.726 881 414 888.998 413.269 899.4 420.44 899 431.5 900.635 440.09 890.72 449.562 881 449 870.931 449.419 864.374 439.963 863 431.5Z" stroke="#000000" stroke-width="2" stroke-miterlimit="8" fill="none" fill-rule="evenodd"/><path d="M877.246 460.25C889.542 458.159 897.117 465.535 899.619 473.338 901.809 480.015 894.702 491.719 883.542 493.669 874.328 497.117 862.284 489.691 861.169 480.581 858.479 471.248 866.954 462.504 877.246 460.25Z" stroke="#000000" stroke-width="2" stroke-miterlimit="8" fill="none" fill-rule="evenodd"/><path d="M818 431.5C818.114 420.982 826.966 414.726 836 414 843.998 413.269 854.4 420.44 854 431.5 855.635 440.09 845.72 449.562 836 449 825.931 449.419 819.374 439.963 818 431.5Z" stroke="#000000" stroke-width="2" stroke-miterlimit="8" fill="none" fill-rule="evenodd"/><path d="M826.189 493.637C816.657 488.918 814.821 478.154 818.102 469.65 820.927 462.082 831.998 455.804 841.9 461.02 850.438 463.308 854.739 476.447 849.986 485.007 845.974 494.314 834.498 496.106 826.189 493.637Z" stroke="#000000" stroke-width="2" stroke-miterlimit="8" fill="none" fill-rule="evenodd"/><path d="M813 520C813.081 509.986 823.95 504.645 833 503 842.182 502.279 853.209 509.862 853 520 854.569 528.328 843.69 537.926 833 537 821.372 538.958 813.424 529.007 813 520Z" stroke="#000000" stroke-width="2" stroke-miterlimit="8" fill="none" fill-rule="evenodd"/><path d="M908 429.5C908.114 418.982 916.966 412.726 926 412 933.998 411.269 944.4 418.44 944 429.5 945.635 438.09 935.72 447.562 926 447 915.931 447.419 909.374 437.963 908 429.5Z" stroke="#000000" stroke-width="2" stroke-miterlimit="8" fill="none" fill-rule="evenodd"/><text font-family="Calibri,Calibri_MSFontService,sans-serif" font-weight="400" font-size="37" transform="translate(233.588 584)">F</text><text font-family="Calibri,Calibri_MSFontService,sans-serif" font-weight="400" font-size="25" transform="translate(250.755 592)">2</text><text font-family="Calibri,Calibri_MSFontService,sans-serif" font-weight="400" font-size="37" transform="translate(482.601 584)">F</text><text font-family="Calibri,Calibri_MSFontService,sans-serif" font-weight="400" font-size="25" transform="translate(499.768 592)">3</text><text font-family="Calibri,Calibri_MSFontService,sans-serif" font-weight="400" font-size="37" transform="translate(821.41 584)">F</text><text font-family="Calibri,Calibri_MSFontService,sans-serif" font-weight="400" font-size="25" transform="translate(838.577 592)">4</text></g></svg>