<svg width="1280" height="720" xmlns="http://www.w3.org/2000/svg" xmlns:xlink="http://www.w3.org/1999/xlink" overflow="hidden"><g><rect x="0" y="0" width="1280" height="720" fill="#FFFFFF"/><path d="M0 0C15.7498 2.39378 32.246-0.339444 50.32 0 68.394 0.339444 89.8811 2.89422 109.52 0 129.159-2.89422 147.048 0.236889 162.8 0 178.552-0.236889 204.723 1.87622 222 0 239.278-1.87622 272.507 0.0262222 296 0 295.965 0.434778 296.056 1.306 296 2 265.562 0.0463333 257.151 3.83656 230.88 2 204.609 0.163444 202.803 3.20222 177.6 2 152.397 0.797778 148.565 2.799 124.32 2 100.075 1.201 88.1728 2.07233 68.08 2 47.9871 1.92767 31.8102 3.73522 0 2-0.0572842 1.51178-0.0489654 0.553889 0 0Z" stroke="#000000" stroke-miterlimit="8" stroke-dasharray="4 3" fill="none" fill-rule="evenodd" transform="matrix(6.12323e-17 1 1 -6.12323e-17 993.5 212.5)"/><path d="M639.387 588.378C632.526 574.77 624.924 559.324 613.955 541.355 602.986 523.386 601.684 514.008 587.464 492.373 573.244 470.738 571.116 463.12 562.033 445.35 552.95 427.581 542.505 403.777 533.422 392.45 546.127 398.115 568.888 412.499 583.568 417.376 598.247 422.254 617.648 431.376 637.725 444.297 657.801 457.218 662.525 455.514 685.864 468.226 709.203 480.939 710.139 481.723 734.004 492.156 721.538 505.623 703.081 520.611 687.641 539.304 672.202 557.998 657.404 566.759 639.387 588.378Z" fill="#F2F2F2" fill-rule="evenodd"/><path d="M639.387 588.378C629.312 569.721 620.131 556.315 610.776 535.477 601.422 514.639 591.19 500.547 586.405 490.414 581.619 480.281 561.932 449.24 557.794 437.513 553.656 425.786 544.736 414.777 533.422 392.45 549.066 396.975 570.071 410.357 587.579 419.37 605.087 428.383 612.442 433.944 631.707 441.306 650.972 448.667 660.666 453.556 679.847 465.235 699.027 476.915 711.809 478.496 734.004 492.156 718.158 510.739 698.162 526.962 689.534 537.38 680.906 547.798 662.571 567.718 639.387 588.378Z" stroke="#000000" stroke-width="2" stroke-miterlimit="8" fill="none" fill-rule="evenodd"/><path d="M338 286.866C355.271 267.317 364.214 256.542 384.454 240.433 404.693 224.324 419.121 206.655 430.907 194 446.207 192.472 468.78 196.205 494.137 194 519.494 191.795 524.144 191.393 548.333 194 572.523 196.607 588.758 194.311 599.519 194 610.28 193.689 629.581 194.265 653.716 194 677.851 193.735 715.772 190.549 732 194 731.438 220.895 734.974 232.942 732 254.027 729.026 275.111 732.447 295.39 732 311.052 731.553 326.714 731.984 343.584 732 374.08 732.016 404.577 732.17 411.641 732 440.11 731.829 468.579 733.749 482.62 732 494.134 714.61 516.171 698.95 523.197 683.688 542.424 668.427 561.652 652.429 574.327 639.093 587 618.819 588.696 596.012 584.41 575.863 587 555.714 589.59 529.13 586.057 512.634 587 496.138 587.943 472.717 585.128 446.393 587 420.07 588.872 362.626 590.639 338 587 340.059 560.218 336.93 537.33 338 520.97 339.07 504.611 337.428 493.132 338 466.946 338.572 440.761 337.972 429.029 338 406.92 338.028 384.81 336.794 373.832 338 346.893 339.206 319.953 337.504 315.769 338 286.866ZM338 286.866C352.312 287.67 375.658 285.871 392.197 286.866 408.735 287.861 426.145 288.409 443.382 286.866 460.62 285.323 476.077 289.233 506.612 286.866 537.146 284.499 539.105 287.895 560.809 286.866 582.512 285.837 619.049 284.742 639.093 286.866 651.745 272.83 675.61 252.779 683.688 242.29 691.766 231.801 716.191 206.652 732 194M639.093 286.866C636.212 304.139 640.762 321.493 639.093 352.895 637.423 384.298 638.251 394.241 639.093 418.925 639.934 443.608 638.68 449.656 639.093 475.95 639.505 502.245 641.588 501.556 639.093 526.973 636.597 552.39 639.414 573.01 639.093 587" stroke="#000000" stroke-width="2" stroke-miterlimit="8" fill="none" fill-rule="evenodd"/><path d="M336 433C359.441 411.026 373.419 399.968 382.303 387 391.187 374.032 416.562 351.628 428.606 341 447.202 339.974 465.191 338.427 495.353 341 525.514 343.573 526.101 342.333 546.93 341 567.759 339.667 587.265 342.019 607.608 341 627.952 339.981 644.86 340.584 665.253 341 685.647 341.416 701.527 339.376 732 341 718.849 357.174 695.454 373.808 687.549 385.16 679.644 396.512 660.817 408.816 639.394 433 618.353 431.507 602.59 432.557 578.715 433 554.841 433.443 533.019 431.615 518.036 433 503.053 434.385 471.959 432.348 454.324 433 436.689 433.652 424.768 433.251 396.679 433 368.59 432.749 359.411 434.355 336 433Z" stroke="#000000" stroke-width="2" stroke-miterlimit="8" stroke-dasharray="8 6" fill="none" fill-rule="evenodd"/><path d="M338 587C349.858 576.798 361.872 561.712 385.04 540.44 408.208 519.168 415.859 511.809 434.04 491.94 452.222 472.071 469.662 460.641 481.081 445.38 492.5 430.119 519.606 403.873 534.001 393 539.475 406.957 548.794 421 560.501 441.5 572.208 462 576.964 472.008 589.12 493.88 601.277 515.752 605.666 525.793 614.56 540.44 623.455 555.087 625.774 565.875 640 587 628.419 588.35 603.61 588.107 582.62 587 561.63 585.893 544.731 587.494 519.2 587 493.669 586.506 476.233 587.871 452.76 587 429.287 586.129 417.877 587.327 395.38 587 372.883 586.673 362.322 586.066 338 587Z" stroke="#000000" stroke-width="2" stroke-miterlimit="8" fill="none" fill-rule="evenodd"/></g></svg>