<svg width="1280" height="720" xmlns="http://www.w3.org/2000/svg" xmlns:xlink="http://www.w3.org/1999/xlink" overflow="hidden"><g><rect x="0" y="0" width="1280" height="720" fill="#FFFFFF"/><path d="M956 387.5C956.114 376.982 964.966 370.726 974 370 981.998 369.269 992.4 376.44 992 387.5 993.635 396.09 983.72 405.562 974 405 963.931 405.419 957.374 395.963 956 387.5Z" fill="#D9F2D0" fill-rule="evenodd"/><path d="M956 387.5C956.183 378.008 963.479 369.691 974 370 984.18 370.427 991.211 376.735 992 387.5 990.1 395.895 981.677 404.871 974 405 964.03 405.546 957.473 395.347 956 387.5Z" stroke="#000000" stroke-width="2" stroke-miterlimit="8" fill="none" fill-rule="evenodd"/><path d="M965.313 361.161C954.174 355.55 952.452 345.118 955.066 337.353 957.264 330.678 969.928 325.472 980.07 330.523 989.532 333.213 994.823 346.336 990.316 354.332 986.945 363.44 974.935 365.452 965.313 361.161Z" fill="#D9F2D0" fill-rule="evenodd"/><path d="M965.313 361.161C955.925 356.341 949.7 346.755 955.066 337.353 961.327 328.764 969.105 326.047 980.07 330.523 988.651 335.888 993.929 346.706 990.316 354.332 988.152 363.838 973.936 363.513 965.313 361.161Z" stroke="#000000" stroke-width="2" stroke-miterlimit="8" fill="none" fill-rule="evenodd"/><path d="M911 388C911.114 377.181 919.966 370.747 929 370 936.998 369.248 947.4 376.624 947 388 948.635 396.835 938.72 406.578 929 406 918.931 406.431 912.374 396.705 911 388Z" fill="#D9F2D0" fill-rule="evenodd"/><path d="M911 388C911.183 378.237 918.479 369.682 929 370 939.18 370.439 946.211 376.927 947 388 945.1 396.635 936.677 405.867 929 406 919.03 406.562 912.473 396.071 911 388Z" stroke="#000000" stroke-width="2" stroke-miterlimit="8" fill="none" fill-rule="evenodd"/><path d="M863 298.5C863.117 287.982 872.215 281.726 881.5 281 889.721 280.269 900.411 287.44 900 298.5 901.681 307.09 891.49 316.562 881.5 316 871.151 316.419 864.412 306.963 863 298.5Z" fill="#D9F2D0" fill-rule="evenodd"/><path d="M863 298.5C863.188 289.008 870.687 280.691 881.5 281 891.963 281.427 899.189 287.735 900 298.5 898.048 306.895 889.391 315.871 881.5 316 871.253 316.546 864.514 306.347 863 298.5Z" stroke="#000000" stroke-width="2" stroke-miterlimit="8" fill="none" fill-rule="evenodd"/><path d="M860 387C860.081 376.986 870.95 371.645 880 370 889.182 369.279 900.209 376.862 900 387 901.569 395.328 890.69 404.926 880 404 868.372 405.958 860.424 396.007 860 387Z" fill="#D9F2D0" fill-rule="evenodd"/><path d="M860 387C861.382 378.952 868.485 369.743 880 370 891.182 370.25 899.292 376.596 900 387 899.637 396.139 888.766 403.866 880 404 868.856 405.926 861.154 394.923 860 387Z" stroke="#000000" stroke-width="2" stroke-miterlimit="8" fill="none" fill-rule="evenodd"/><path d="M877.838 327.364C890.133 325.273 897.708 332.649 900.21 340.452 902.401 347.128 895.294 358.832 884.133 360.782 874.92 364.23 862.875 356.804 861.76 347.694 859.071 338.362 867.546 329.618 877.838 327.364Z" fill="#D9F2D0" fill-rule="evenodd"/><path d="M877.838 327.364C888.255 325.675 898.952 329.699 900.21 340.452 900.266 351.08 895.615 357.881 884.133 360.782 874.043 361.554 863.376 355.977 861.76 347.694 857.863 338.757 869.5 330.586 877.838 327.364Z" stroke="#000000" stroke-width="2" stroke-miterlimit="8" fill="none" fill-rule="evenodd"/><path d="M873.649 272.21C863.369 267.066 861.452 256.518 864.801 248.048 867.904 240.263 878.426 234.06 889.209 239.905 898.12 242.322 903.229 256.089 898.057 264.067 895.199 274.313 882.555 275.641 873.649 272.21Z" fill="#D9F2D0" fill-rule="evenodd"/><path d="M873.649 272.21C864.716 267.691 860.275 257.136 864.801 248.048 871.12 239.009 879.356 235.597 889.209 239.905 897.561 244.816 901.63 256.452 898.057 264.067 894.884 273.603 882.023 274.93 873.649 272.21Z" stroke="#000000" stroke-width="2" stroke-miterlimit="8" fill="none" fill-rule="evenodd"/><path d="M908 255C908.117 244.181 917.215 237.747 926.5 237 934.721 236.248 945.411 243.624 945 255 946.681 263.835 936.49 273.578 926.5 273 916.151 273.431 909.412 263.705 908 255Z" fill="#D9F2D0" fill-rule="evenodd"/><path d="M908 255C908.188 245.237 915.687 236.682 926.5 237 936.963 237.439 944.189 243.927 945 255 943.048 263.635 934.391 272.867 926.5 273 916.253 273.562 909.514 263.071 908 255Z" stroke="#000000" stroke-width="2" stroke-miterlimit="8" fill="none" fill-rule="evenodd"/><path d="M965.502 315.206C955.97 310.487 954.134 299.723 957.415 291.218 960.24 283.651 971.312 277.373 981.213 282.589 989.751 284.877 994.052 298.016 989.299 306.576 985.287 315.883 973.811 317.674 965.502 315.206Z" fill="#D9F2D0" fill-rule="evenodd"/><path d="M965.502 315.206C956.935 310.875 952.543 300.615 957.415 291.218 962.247 282.183 971.062 278.581 981.213 282.589 988.031 287.994 992.532 299.563 989.299 306.576 985.446 315.849 973.293 317.314 965.502 315.206Z" stroke="#000000" stroke-width="2" stroke-miterlimit="8" fill="none" fill-rule="evenodd"/><path d="M956 256.5C956.114 245.982 964.966 239.726 974 239 981.998 238.269 992.4 245.44 992 256.5 993.635 265.09 983.72 274.562 974 274 963.931 274.419 957.374 264.963 956 256.5Z" fill="#D9F2D0" fill-rule="evenodd"/><path d="M956 256.5C956.183 247.008 963.479 238.691 974 239 984.18 239.427 991.211 245.735 992 256.5 990.1 264.895 981.677 273.871 974 274 964.03 274.546 957.473 264.347 956 256.5Z" stroke="#000000" stroke-width="2" stroke-miterlimit="8" fill="none" fill-rule="evenodd"/><path d="M916.749 317.114C907.217 312.395 905.381 301.631 908.662 293.126 911.487 285.559 922.558 279.281 932.46 284.497 940.998 286.785 945.299 299.924 940.546 308.484 936.534 317.791 925.058 319.583 916.749 317.114Z" fill="#D9F2D0" fill-rule="evenodd"/><path d="M916.749 317.114C908.182 312.783 903.79 302.523 908.662 293.126 913.494 284.091 922.308 280.489 932.46 284.497 939.278 289.902 943.779 301.471 940.546 308.484 936.693 317.757 924.54 319.222 916.749 317.114Z" stroke="#000000" stroke-width="2" stroke-miterlimit="8" fill="none" fill-rule="evenodd"/><path d="M904 343.5C904.081 333.78 914.95 328.597 924 327 933.182 326.3 944.209 333.66 944 343.5 945.569 351.583 934.69 360.899 924 360 912.372 361.9 904.424 352.243 904 343.5Z" fill="#D9F2D0" fill-rule="evenodd"/><path d="M904 343.5C905.382 335.689 912.485 326.75 924 327 935.182 327.243 943.292 333.402 944 343.5 943.637 352.371 932.766 359.87 924 360 912.856 361.87 905.154 351.19 904 343.5Z" stroke="#000000" stroke-width="2" stroke-miterlimit="8" fill="none" fill-rule="evenodd"/><path d="M817 299.5C817.114 288.982 825.966 282.726 835 282 842.998 281.269 853.4 288.44 853 299.5 854.635 308.09 844.72 317.562 835 317 824.931 317.419 818.374 307.963 817 299.5Z" fill="#D9F2D0" fill-rule="evenodd"/><path d="M817 299.5C817.183 290.008 824.479 281.691 835 282 845.18 282.427 852.211 288.735 853 299.5 851.1 307.895 842.677 316.871 835 317 825.03 317.546 818.473 307.347 817 299.5Z" stroke="#000000" stroke-width="2" stroke-miterlimit="8" fill="none" fill-rule="evenodd"/><path d="M836.13 237.881C848.425 235.79 856 243.166 858.503 250.969 860.693 257.645 853.586 269.349 842.425 271.299 833.212 274.747 821.168 267.321 820.053 258.212 817.363 248.879 825.838 240.135 836.13 237.881Z" fill="#D9F2D0" fill-rule="evenodd"/><path d="M836.13 237.881C846.547 236.192 857.245 240.216 858.503 250.969 858.558 261.597 853.907 268.398 842.425 271.299 832.335 272.071 821.669 266.494 820.053 258.212 816.156 249.274 827.792 241.103 836.13 237.881Z" stroke="#000000" stroke-width="2" stroke-miterlimit="8" fill="none" fill-rule="evenodd"/><path d="M818 339C818.114 328.181 826.966 321.747 836 321 843.998 320.248 854.4 327.624 854 339 855.635 347.835 845.72 357.578 836 357 825.931 357.431 819.374 347.705 818 339Z" fill="#D9F2D0" fill-rule="evenodd"/><path d="M818 339C818.183 329.237 825.479 320.682 836 321 846.18 321.439 853.211 327.927 854 339 852.1 347.635 843.677 356.867 836 357 826.03 357.562 819.473 347.071 818 339Z" stroke="#000000" stroke-width="2" stroke-miterlimit="8" fill="none" fill-rule="evenodd"/><path d="M826.675 401.303C817.143 396.585 815.307 385.82 818.588 377.316 821.413 369.749 832.485 363.471 842.386 368.686 850.924 370.974 855.225 384.114 850.472 392.674 846.46 401.981 834.984 403.772 826.675 401.303Z" fill="#D9F2D0" fill-rule="evenodd"/><path d="M826.675 401.303C818.108 396.972 813.716 386.713 818.588 377.316 823.42 368.28 832.235 364.678 842.386 368.686 849.205 374.091 853.705 385.661 850.472 392.674 846.619 401.946 834.466 403.412 826.675 401.303Z" stroke="#000000" stroke-width="2" stroke-miterlimit="8" fill="none" fill-rule="evenodd"/><path d="M772 296.5C772.114 285.982 780.966 279.726 790 279 797.998 278.269 808.4 285.44 808 296.5 809.635 305.09 799.72 314.562 790 314 779.931 314.419 773.374 304.963 772 296.5Z" stroke="#000000" stroke-width="2" stroke-miterlimit="8" fill="none" fill-rule="evenodd"/><path d="M680 385C680.114 374.181 688.966 367.747 698 367 705.998 366.248 716.4 373.624 716 385 717.635 393.835 707.72 403.578 698 403 687.931 403.431 681.374 393.705 680 385Z" stroke="#000000" stroke-width="2" stroke-miterlimit="8" fill="none" fill-rule="evenodd"/><path d="M733.685 401.303C724.153 396.585 722.317 385.82 725.598 377.316 728.423 369.749 739.495 363.471 749.396 368.686 757.934 370.974 762.235 384.114 757.482 392.674 753.47 401.981 741.994 403.772 733.685 401.303Z" stroke="#000000" stroke-width="2" stroke-miterlimit="8" fill="none" fill-rule="evenodd"/><path d="M724 342.5C724.114 331.982 732.966 325.726 742 325 749.998 324.269 760.4 331.44 760 342.5 761.635 351.09 751.72 360.562 742 360 731.931 360.419 725.374 350.963 724 342.5Z" stroke="#000000" stroke-width="2" stroke-miterlimit="8" fill="none" fill-rule="evenodd"/><path d="M779.941 358.675C770.409 353.956 768.574 343.192 771.855 334.688 774.68 327.12 785.751 320.842 795.652 326.058 804.191 328.346 808.492 341.486 803.739 350.045 799.726 359.352 788.251 361.144 779.941 358.675Z" stroke="#000000" stroke-width="2" stroke-miterlimit="8" fill="none" fill-rule="evenodd"/><path d="M767 385C767.081 374.986 777.95 369.645 787 368 796.182 367.279 807.209 374.862 807 385 808.569 393.328 797.69 402.926 787 402 775.372 403.958 767.424 394.007 767 385Z" stroke="#000000" stroke-width="2" stroke-miterlimit="8" fill="none" fill-rule="evenodd"/><path d="M681 296.5C681.114 285.982 689.966 279.726 699 279 706.998 278.269 717.4 285.44 717 296.5 718.635 305.09 708.72 314.562 699 314 688.931 314.419 682.374 304.963 681 296.5Z" fill="#B8D4F0" fill-rule="evenodd"/><path d="M681 296.5C681.183 287.008 688.479 278.691 699 279 709.18 279.427 716.211 285.735 717 296.5 715.1 304.895 706.677 313.871 699 314 689.03 314.546 682.473 304.347 681 296.5Z" stroke="#000000" stroke-width="2" stroke-miterlimit="8" fill="none" fill-rule="evenodd"/><path d="M695.614 325.288C707.909 323.198 715.484 330.574 717.987 338.376 720.177 345.053 713.07 356.757 701.909 358.707 692.696 362.155 680.652 354.729 679.537 345.619 676.847 336.286 685.322 327.543 695.614 325.288Z" fill="#B8D4F0" fill-rule="evenodd"/><path d="M695.614 325.288C706.031 323.599 716.728 327.624 717.987 338.376 718.042 349.004 713.391 355.806 701.909 358.707 691.819 359.479 681.153 353.901 679.537 345.619 675.64 336.682 687.276 328.51 695.614 325.288Z" stroke="#000000" stroke-width="2" stroke-miterlimit="8" fill="none" fill-rule="evenodd"/><path d="M636 296.5C636.114 285.982 644.966 279.726 654 279 661.998 278.269 672.4 285.44 672 296.5 673.635 305.09 663.72 314.562 654 314 643.931 314.419 637.374 304.963 636 296.5Z" fill="#B8D4F0" fill-rule="evenodd"/><path d="M636 296.5C636.183 287.008 643.479 278.691 654 279 664.18 279.427 671.211 285.735 672 296.5 670.1 304.895 661.677 313.871 654 314 644.03 314.546 637.473 304.347 636 296.5Z" stroke="#000000" stroke-width="2" stroke-miterlimit="8" fill="none" fill-rule="evenodd"/><path d="M644.556 358.675C635.024 353.956 633.189 343.192 636.47 334.688 639.295 327.12 650.366 320.842 660.267 326.058 668.806 328.346 673.107 341.486 668.354 350.045 664.341 359.352 652.866 361.144 644.556 358.675Z" fill="#B8D4F0" fill-rule="evenodd"/><path d="M644.556 358.675C635.989 354.344 631.597 344.084 636.47 334.688 641.301 325.652 650.116 322.05 660.267 326.058 667.086 331.463 671.586 343.033 668.354 350.045 664.501 359.318 652.347 360.783 644.556 358.675Z" stroke="#000000" stroke-width="2" stroke-miterlimit="8" fill="none" fill-rule="evenodd"/><path d="M631 385C631.081 374.986 641.95 369.645 651 368 660.182 367.279 671.209 374.862 671 385 672.569 393.328 661.69 402.926 651 402 639.372 403.958 631.424 394.007 631 385Z" fill="#B8D4F0" fill-rule="evenodd"/><path d="M631 385C632.382 376.952 639.485 367.743 651 368 662.182 368.25 670.292 374.596 671 385 670.637 394.139 659.766 401.866 651 402 639.856 403.926 632.154 392.923 631 385Z" stroke="#000000" stroke-width="2" stroke-miterlimit="8" fill="none" fill-rule="evenodd"/><path d="M726 294.5C726.117 283.982 735.215 277.726 744.5 277 752.721 276.269 763.411 283.44 763 294.5 764.681 303.09 754.49 312.562 744.5 312 734.151 312.419 727.412 302.963 726 294.5Z" fill="#B8D4F0" fill-rule="evenodd"/><path d="M726 294.5C726.188 285.008 733.687 276.691 744.5 277 754.963 277.427 762.189 283.735 763 294.5 761.048 302.895 752.391 311.871 744.5 312 734.253 312.546 727.514 302.347 726 294.5Z" stroke="#000000" stroke-width="2" stroke-miterlimit="8" fill="none" fill-rule="evenodd"/><path d="M411 390C411.114 379.181 419.966 372.747 429 372 436.998 371.248 447.4 378.624 447 390 448.635 398.835 438.72 408.578 429 408 418.931 408.431 412.374 398.705 411 390Z" fill="#D9F2D0" fill-rule="evenodd"/><path d="M411 390C411.183 380.237 418.479 371.682 429 372 439.18 372.439 446.211 378.927 447 390 445.1 398.635 436.677 407.867 429 408 419.03 408.562 412.473 398.071 411 390Z" stroke="#000000" stroke-width="2" stroke-miterlimit="8" fill="none" fill-rule="evenodd"/><path d="M419.887 363.524C408.749 357.913 407.027 347.482 409.641 339.716 411.839 333.042 424.503 327.836 434.645 332.887 444.107 335.577 449.398 348.7 444.891 356.695 441.52 365.804 429.51 367.815 419.887 363.524Z" fill="#D9F2D0" fill-rule="evenodd"/><path d="M419.887 363.524C410.499 358.704 404.275 349.118 409.641 339.716 415.901 331.127 423.68 328.411 434.645 332.887 443.226 338.251 448.503 349.069 444.891 356.695 442.726 366.202 428.511 365.877 419.887 363.524Z" stroke="#000000" stroke-width="2" stroke-miterlimit="8" fill="none" fill-rule="evenodd"/><path d="M366 390.5C366.114 379.982 374.966 373.726 384 373 391.998 372.269 402.4 379.44 402 390.5 403.635 399.09 393.72 408.562 384 408 373.931 408.419 367.374 398.963 366 390.5Z" fill="#D9F2D0" fill-rule="evenodd"/><path d="M366 390.5C366.183 381.008 373.479 372.691 384 373 394.18 373.427 401.211 379.735 402 390.5 400.1 398.895 391.677 407.871 384 408 374.03 408.546 367.473 398.347 366 390.5Z" stroke="#000000" stroke-width="2" stroke-miterlimit="8" fill="none" fill-rule="evenodd"/><path d="M318 300.5C318.114 289.982 326.966 283.726 336 283 343.998 282.269 354.4 289.44 354 300.5 355.635 309.09 345.72 318.562 336 318 325.931 318.419 319.374 308.963 318 300.5Z" fill="#D9F2D0" fill-rule="evenodd"/><path d="M318 300.5C318.183 291.008 325.479 282.691 336 283 346.18 283.427 353.211 289.735 354 300.5 352.1 308.895 343.677 317.871 336 318 326.03 318.546 319.473 308.347 318 300.5Z" stroke="#000000" stroke-width="2" stroke-miterlimit="8" fill="none" fill-rule="evenodd"/><path d="M315 389.5C315.081 379.78 325.95 374.597 335 373 344.182 372.3 355.209 379.66 355 389.5 356.569 397.583 345.69 406.899 335 406 323.372 407.9 315.424 398.243 315 389.5Z" fill="#D9F2D0" fill-rule="evenodd"/><path d="M315 389.5C316.382 381.689 323.485 372.75 335 373 346.182 373.243 354.292 379.402 355 389.5 354.637 398.371 343.766 405.87 335 406 323.856 407.87 316.154 397.19 315 389.5Z" stroke="#000000" stroke-width="2" stroke-miterlimit="8" fill="none" fill-rule="evenodd"/><path d="M332.413 329.727C344.708 327.636 352.283 335.012 354.785 342.815 356.975 349.492 349.869 361.196 338.708 363.146 329.495 366.593 317.45 359.168 316.335 350.058 313.646 340.725 322.12 331.981 332.413 329.727Z" fill="#D9F2D0" fill-rule="evenodd"/><path d="M332.413 329.727C342.83 328.038 353.527 332.062 354.785 342.815 354.84 353.443 350.19 360.245 338.708 363.146 328.617 363.918 317.951 358.34 316.335 350.058 312.438 341.12 324.075 332.949 332.413 329.727Z" stroke="#000000" stroke-width="2" stroke-miterlimit="8" fill="none" fill-rule="evenodd"/><path d="M328.224 274.573C317.944 269.43 316.027 258.881 319.376 250.412 322.479 242.626 333.001 236.423 343.784 242.269 352.694 244.685 357.804 258.452 352.632 266.43 349.773 276.676 337.13 278.004 328.224 274.573Z" fill="#D9F2D0" fill-rule="evenodd"/><path d="M328.224 274.573C319.291 270.055 314.85 259.499 319.376 250.412 325.695 241.372 333.931 237.961 343.784 242.269 352.136 247.18 356.204 258.816 352.632 266.43 349.458 275.966 336.598 277.293 328.224 274.573Z" stroke="#000000" stroke-width="2" stroke-miterlimit="8" fill="none" fill-rule="evenodd"/><path d="M363 257.5C363.114 246.982 371.966 240.726 381 240 388.998 239.269 399.4 246.44 399 257.5 400.635 266.09 390.72 275.562 381 275 370.931 275.419 364.374 265.963 363 257.5Z" fill="#D9F2D0" fill-rule="evenodd"/><path d="M363 257.5C363.183 248.008 370.479 239.691 381 240 391.18 240.427 398.211 246.735 399 257.5 397.1 265.895 388.677 274.871 381 275 371.03 275.546 364.473 265.347 363 257.5Z" stroke="#000000" stroke-width="2" stroke-miterlimit="8" fill="none" fill-rule="evenodd"/><path d="M420.077 317.569C410.545 312.85 408.709 302.086 411.99 293.582 414.815 286.015 425.886 279.736 435.787 284.952 444.326 287.24 448.627 300.38 443.874 308.939 439.861 318.246 428.386 320.038 420.077 317.569Z" fill="#D9F2D0" fill-rule="evenodd"/><path d="M420.077 317.569C411.51 313.238 407.117 302.979 411.99 293.582 416.822 284.546 425.636 280.944 435.787 284.952 442.606 290.357 447.107 301.927 443.874 308.939 440.021 318.212 427.868 319.677 420.077 317.569Z" stroke="#000000" stroke-width="2" stroke-miterlimit="8" fill="none" fill-rule="evenodd"/><path d="M410 258.5C410.114 247.982 418.966 241.726 428 241 435.998 240.269 446.4 247.44 446 258.5 447.635 267.09 437.72 276.562 428 276 417.931 276.419 411.374 266.963 410 258.5Z" fill="#D9F2D0" fill-rule="evenodd"/><path d="M410 258.5C410.183 249.008 417.479 240.691 428 241 438.18 241.427 445.211 247.735 446 258.5 444.1 266.895 435.677 275.871 428 276 418.03 276.546 411.473 266.347 410 258.5Z" stroke="#000000" stroke-width="2" stroke-miterlimit="8" fill="none" fill-rule="evenodd"/><path d="M371.324 319.477C361.792 314.758 359.956 303.994 363.237 295.49 366.062 287.923 377.133 281.644 387.034 286.86 395.573 289.148 399.874 302.288 395.121 310.848 391.108 320.154 379.633 321.946 371.324 319.477Z" fill="#D9F2D0" fill-rule="evenodd"/><path d="M371.324 319.477C362.757 315.146 358.364 304.887 363.237 295.49 368.069 286.454 376.883 282.852 387.034 286.86 393.853 292.265 398.353 303.835 395.121 310.848 391.268 320.12 379.114 321.585 371.324 319.477Z" stroke="#000000" stroke-width="2" stroke-miterlimit="8" fill="none" fill-rule="evenodd"/><path d="M358 345.5C358.081 335.78 368.95 330.597 378 329 387.182 328.3 398.209 335.66 398 345.5 399.569 353.583 388.69 362.899 378 362 366.372 363.9 358.424 354.243 358 345.5Z" fill="#D9F2D0" fill-rule="evenodd"/><path d="M358 345.5C359.382 337.689 366.485 328.75 378 329 389.182 329.243 397.292 335.402 398 345.5 397.637 354.371 386.766 361.87 378 362 366.856 363.87 359.154 353.19 358 345.5Z" stroke="#000000" stroke-width="2" stroke-miterlimit="8" fill="none" fill-rule="evenodd"/><path d="M271 302C271.117 291.181 280.215 284.747 289.5 284 297.721 283.248 308.411 290.624 308 302 309.681 310.835 299.49 320.578 289.5 320 279.151 320.431 272.412 310.705 271 302Z" fill="#D9F2D0" fill-rule="evenodd"/><path d="M271 302C271.188 292.237 278.687 283.682 289.5 284 299.963 284.439 307.189 290.927 308 302 306.048 310.635 297.391 319.867 289.5 320 279.253 320.562 272.514 310.071 271 302Z" stroke="#000000" stroke-width="2" stroke-miterlimit="8" fill="none" fill-rule="evenodd"/><path d="M290.705 240.244C303 238.153 310.575 245.529 313.077 253.332 315.268 260.009 308.161 271.713 297 273.663 287.787 277.11 275.743 269.685 274.628 260.575 271.938 251.242 280.413 242.498 290.705 240.244Z" fill="#D9F2D0" fill-rule="evenodd"/><path d="M290.705 240.244C301.122 238.555 311.819 242.579 313.077 253.332 313.133 263.96 308.482 270.762 297 273.663 286.91 274.435 276.243 268.857 274.628 260.575 270.73 251.637 282.367 243.466 290.705 240.244Z" stroke="#000000" stroke-width="2" stroke-miterlimit="8" fill="none" fill-rule="evenodd"/><path d="M272 341.5C272.114 330.982 280.966 324.726 290 324 297.998 323.269 308.4 330.44 308 341.5 309.635 350.09 299.72 359.562 290 359 279.931 359.419 273.374 349.963 272 341.5Z" fill="#D9F2D0" fill-rule="evenodd"/><path d="M272 341.5C272.183 332.008 279.479 323.691 290 324 300.18 324.427 307.211 330.735 308 341.5 306.1 349.895 297.677 358.871 290 359 280.03 359.546 273.473 349.347 272 341.5Z" stroke="#000000" stroke-width="2" stroke-miterlimit="8" fill="none" fill-rule="evenodd"/><path d="M281.25 403.667C271.718 398.948 269.882 388.184 273.163 379.679 275.988 372.112 287.059 365.834 296.96 371.05 305.499 373.337 309.8 386.477 305.047 395.037 301.034 404.344 289.559 406.135 281.25 403.667Z" fill="#D9F2D0" fill-rule="evenodd"/><path d="M281.25 403.667C272.683 399.336 268.29 389.076 273.163 379.679 277.995 370.644 286.809 367.042 296.96 371.05 303.779 376.455 308.28 388.024 305.047 395.037 301.194 404.31 289.041 405.775 281.25 403.667Z" stroke="#000000" stroke-width="2" stroke-miterlimit="8" fill="none" fill-rule="evenodd"/><path d="M226 299C226.114 288.181 234.966 281.747 244 281 251.998 280.248 262.4 287.624 262 299 263.635 307.835 253.72 317.578 244 317 233.931 317.431 227.374 307.705 226 299Z" stroke="#000000" stroke-width="2" stroke-miterlimit="8" fill="none" fill-rule="evenodd"/><path d="M135 387.5C135.114 376.982 143.966 370.726 153 370 160.998 369.269 171.4 376.44 171 387.5 172.635 396.09 162.72 405.562 153 405 142.931 405.419 136.374 395.963 135 387.5Z" stroke="#000000" stroke-width="2" stroke-miterlimit="8" fill="none" fill-rule="evenodd"/><path d="M188.26 403.667C178.728 398.948 176.892 388.184 180.173 379.679 182.998 372.112 194.069 365.834 203.97 371.05 212.509 373.338 216.81 386.477 212.057 395.037 208.044 404.344 196.569 406.135 188.26 403.667Z" stroke="#000000" stroke-width="2" stroke-miterlimit="8" fill="none" fill-rule="evenodd"/><path d="M178 344.5C178.117 333.982 187.215 327.726 196.5 327 204.721 326.269 215.411 333.44 215 344.5 216.681 353.09 206.49 362.562 196.5 362 186.151 362.419 179.412 352.963 178 344.5Z" stroke="#000000" stroke-width="2" stroke-miterlimit="8" fill="none" fill-rule="evenodd"/><path d="M234.516 361.038C224.984 356.32 223.149 345.555 226.43 337.051 229.255 329.484 240.326 323.206 250.227 328.421 258.766 330.709 263.067 343.849 258.314 352.409 254.301 361.716 242.825 363.507 234.516 361.038Z" stroke="#000000" stroke-width="2" stroke-miterlimit="8" fill="none" fill-rule="evenodd"/><path d="M221 387.5C221.081 377.78 231.95 372.597 241 371 250.182 370.3 261.209 377.66 261 387.5 262.569 395.583 251.69 404.899 241 404 229.372 405.9 221.424 396.243 221 387.5Z" stroke="#000000" stroke-width="2" stroke-miterlimit="8" fill="none" fill-rule="evenodd"/><path d="M317 433.5C317.117 422.982 326.215 416.726 335.5 416 343.721 415.269 354.411 422.44 354 433.5 355.681 442.09 345.49 451.562 335.5 451 325.151 451.419 318.412 441.963 317 433.5Z" fill="#B8D4F0" fill-rule="evenodd"/><path d="M317 433.5C317.188 424.008 324.687 415.691 335.5 416 345.963 416.427 353.189 422.735 354 433.5 352.048 441.895 343.391 450.871 335.5 451 325.253 451.546 318.514 441.347 317 433.5Z" stroke="#000000" stroke-width="2" stroke-miterlimit="8" fill="none" fill-rule="evenodd"/><path d="M331.821 462.614C344.116 460.523 351.691 467.899 354.194 475.701 356.384 482.378 349.277 494.082 338.116 496.032 328.903 499.48 316.859 492.054 315.744 482.944 313.054 473.612 321.529 464.868 331.821 462.614Z" fill="#B8D4F0" fill-rule="evenodd"/><path d="M331.821 462.614C342.238 460.925 352.936 464.949 354.194 475.701 354.249 486.33 349.598 493.131 338.116 496.032 328.026 496.804 317.36 491.226 315.744 482.944 311.847 474.007 323.483 465.836 331.821 462.614Z" stroke="#000000" stroke-width="2" stroke-miterlimit="8" fill="none" fill-rule="evenodd"/><path d="M272 434C272.117 423.181 281.215 416.747 290.5 416 298.721 415.248 309.411 422.624 309 434 310.681 442.835 300.49 452.578 290.5 452 280.151 452.431 273.412 442.705 272 434Z" fill="#B8D4F0" fill-rule="evenodd"/><path d="M272 434C272.188 424.237 279.687 415.682 290.5 416 300.963 416.439 308.189 422.927 309 434 307.048 442.635 298.391 451.867 290.5 452 280.253 452.562 273.514 442.071 272 434Z" stroke="#000000" stroke-width="2" stroke-miterlimit="8" fill="none" fill-rule="evenodd"/><path d="M280.764 496C271.232 491.281 269.396 480.517 272.677 472.013 275.502 464.446 286.573 458.167 296.474 463.383 305.013 465.671 309.314 478.811 304.561 487.371 300.548 496.678 289.073 498.469 280.764 496Z" fill="#B8D4F0" fill-rule="evenodd"/><path d="M280.764 496C272.197 491.669 267.804 481.41 272.677 472.013 277.509 462.977 286.323 459.375 296.474 463.383 303.293 468.788 307.793 480.358 304.561 487.371 300.708 496.643 288.554 498.108 280.764 496Z" stroke="#000000" stroke-width="2" stroke-miterlimit="8" fill="none" fill-rule="evenodd"/><path d="M268 522.5C268.081 512.78 278.95 507.597 288 506 297.182 505.3 308.209 512.66 308 522.5 309.569 530.583 298.69 539.899 288 539 276.372 540.9 268.424 531.243 268 522.5Z" fill="#B8D4F0" fill-rule="evenodd"/><path d="M268 522.5C269.382 514.689 276.485 505.75 288 506 299.182 506.243 307.292 512.402 308 522.5 307.637 531.37 296.766 538.87 288 539 276.856 540.87 269.154 530.19 268 522.5Z" stroke="#000000" stroke-width="2" stroke-miterlimit="8" fill="none" fill-rule="evenodd"/><path d="M363 431.5C363.114 420.982 371.966 414.726 381 414 388.998 413.269 399.4 420.44 399 431.5 400.635 440.09 390.72 449.562 381 449 370.931 449.419 364.374 439.963 363 431.5Z" fill="#B8D4F0" fill-rule="evenodd"/><path d="M363 431.5C363.183 422.008 370.479 413.691 381 414 391.18 414.427 398.211 420.735 399 431.5 397.1 439.895 388.677 448.871 381 449 371.03 449.546 364.473 439.347 363 431.5Z" stroke="#000000" stroke-width="2" stroke-miterlimit="8" fill="none" fill-rule="evenodd"/><path d="M491 337.686C512.749 339.947 516.053 338.282 535.642 337.686 555.231 337.089 556.786 339.328 576.851 337.686 577.149 333.181 576.128 324.546 576.851 320 584.228 326.146 591.785 336.102 602 345.5 593.363 356.049 589.12 358.29 576.851 371 577.708 367.087 576.416 358.75 576.851 353.314 557.807 352.12 550.031 355.226 535.642 353.314 521.253 351.403 512.749 354.012 491 353.314 490.278 346.102 491.515 345.159 491 337.686Z" fill="#FFFFFF" fill-rule="evenodd"/><path d="M491 337.686C509.954 339.103 520.989 338.628 532.208 337.686 543.427 336.743 556.465 335.99 576.851 337.686 577.61 332.177 576.815 327.528 576.851 320 581.91 326.501 592.575 334.237 602 345.5 593.22 353.412 585.459 360.406 576.851 371 576.914 365.436 577.444 358.395 576.851 353.314 563.379 352.048 552.675 353.161 536.501 353.314 520.326 353.468 500.977 354.292 491 353.314 490.487 348.737 490.709 344.595 491 337.686Z" stroke="#000000" stroke-width="2" stroke-miterlimit="8" fill="none" fill-rule="evenodd"/></g></svg>