<svg width="1280" height="720" xmlns="http://www.w3.org/2000/svg" xmlns:xlink="http://www.w3.org/1999/xlink" overflow="hidden"><g><rect x="0" y="0" width="1280" height="720" fill="#FFFFFF"/><path d="M281 175C312.427 172.097 327.493 177.265 352.8 175 378.107 172.735 383.581 177.432 403.06 175 422.539 172.568 437.734 175.542 453.32 175 468.906 174.458 487.179 176.165 503.58 175 519.981 173.835 560.807 175.041 589.74 175 618.673 174.959 628.126 176.022 654.36 175 680.594 173.978 707.194 178.186 733.34 175 759.486 171.814 773.163 173.522 783.6 175 794.037 176.478 826.265 171.197 862.58 175 898.895 178.803 911.205 174.263 934.38 175 957.555 175.737 975.106 172.139 999 175 997.436 203.585 998.605 232.322 999 253.986 999.394 275.649 1001.09 293.526 999 313.571 996.915 333.617 999.755 354.968 999 392.557 998.245 430.146 996.896 450.699 999 466.693 1001.1 482.686 999.066 525.109 999 540.829 998.934 556.548 997.575 586.386 999 600.414 1000.42 614.443 997.691 642.219 999 660 969.472 661.832 951.72 663.49 912.84 660 873.96 656.51 874.956 662.74 855.4 660 835.844 657.26 829.256 660.944 805.14 660 781.023 659.056 779.783 660.774 754.88 660 729.977 659.226 718.296 659.594 683.08 660 647.864 660.406 630.958 658.486 596.92 660 562.882 661.514 559.458 660.261 532.3 660 505.141 659.739 483.096 661.828 453.32 660 423.544 658.172 413.013 658.98 395.88 660 378.747 661.02 309.262 661.929 281 660 278.033 626.509 279.525 616.894 281 590.714 282.475 564.535 283.33 543.679 281 531.129 278.67 518.578 278.634 490.365 281 471.543 283.366 452.721 281.101 435.35 281 411.957 280.899 388.565 279.832 377.589 281 352.371 282.168 327.154 279.595 312.071 281 283.086 282.405 254.1 284.6 198.606 281 175Z" fill="#D9D9D9" fill-rule="evenodd"/><path d="M281 175C315.56 175.286 323.144 173.879 352.8 175 382.456 176.121 395.657 172.951 410.24 175 424.823 177.049 437.622 174.198 460.5 175 483.378 175.802 514.355 172.719 539.48 175 564.605 177.281 580.893 172.775 596.92 175 612.947 177.225 627.06 174.267 647.18 175 667.3 175.733 687.636 173.241 718.98 175 750.324 176.759 781.524 178.911 805.14 175 828.756 171.089 832.887 174.798 855.4 175 877.913 175.202 888.065 173.384 905.66 175 923.255 176.616 970.879 170.43 999 175 995.938 203.201 996.927 218.881 999 239.436 1001.07 259.991 998.642 276.824 999 299.021 999.358 321.219 1000.86 351.853 999 368.307 997.136 384.761 996.65 402.225 999 423.043 1001.35 443.861 996.354 471.468 999 502.029 1001.65 532.589 996.913 548.526 999 576.164 1001.09 603.802 998.036 630.463 999 660 976.262 658.253 939.746 658.464 912.84 660 885.934 661.536 875.33 659.834 855.4 660 835.47 660.166 823.446 659.712 805.14 660 786.834 660.288 741.909 660.657 718.98 660 696.051 659.343 666.583 662.768 640 660 613.417 657.232 590.768 661.509 561.02 660 531.272 658.491 509.959 658.345 496.4 660 482.841 661.655 464.55 659.881 446.14 660 427.729 660.119 416.203 661.732 388.7 660 361.198 658.267 311.288 661.462 281 660 281.017 640.978 282.948 606.571 281 581.014 279.052 555.458 283.873 550.87 281 521.429 278.127 491.987 283.544 479.667 281 456.993 278.456 434.318 282.414 419.721 281 397.407 279.586 375.093 281.139 361.537 281 328.121 280.861 294.706 283.84 281.912 281 249.136 278.16 216.36 280.244 207.789 281 175Z" stroke="#000000" stroke-width="2" stroke-miterlimit="8" fill="none" fill-rule="evenodd"/><path d="M875.701 533.985C822.339 622.544 726.831 626.689 652.654 558.109 582.364 511.929 583.477 415.192 628.063 335.113 682.818 251.365 783.149 271.36 851.11 310.988 917.185 358.858 917.759 475.405 875.701 533.985Z" fill="#D9D9D9" fill-rule="evenodd"/><path d="M875.701 533.985C841.652 595.793 717.626 612.048 652.654 558.109 578.912 484.315 577.56 381.911 628.063 335.113 688.37 261.115 780.123 262.705 851.11 310.988 927.892 356.814 923.325 458.285 875.701 533.985Z" stroke="#000000" stroke-width="2" stroke-miterlimit="8" fill="none" fill-rule="evenodd"/><text font-family="Calibri,Calibri_MSFontService,sans-serif" font-weight="400" font-size="37" transform="matrix(0.999044 -0.0437089 0.0437089 0.999044 897.325 624)">11</text><text font-family="Calibri,Calibri_MSFontService,sans-serif" font-weight="400" font-size="37" transform="matrix(0.998016 0.0629635 -0.0629635 0.998016 342.542 342)">7</text><text font-family="Calibri,Calibri_MSFontService,sans-serif" font-weight="400" font-size="37" transform="matrix(0.992361 0.123367 -0.123367 0.992361 804.772 504)">3</text><text font-family="Calibri,Calibri_MSFontService,sans-serif" font-weight="400" font-size="37" transform="matrix(0.995236 -0.0974908 0.0974908 0.995236 359.603 615)">1</text><text font-family="Calibri,Calibri_MSFontService,sans-serif" font-weight="400" font-size="37" transform="matrix(0.998761 0.0497699 -0.0497699 0.998761 817.834 395)">9</text><text font-family="Calibri,Calibri_MSFontService,sans-serif" font-weight="400" font-size="37" transform="matrix(0.999044 -0.0437089 0.0437089 0.999044 691.812 247)">5</text><text font-family="Calibri,Calibri_MSFontService,sans-serif" font-weight="400" font-size="24" transform="matrix(0.981707 -0.190396 0.190396 0.981707 447.051 268)">Tall i 2</text><text font-family="Calibri,Calibri_MSFontService,sans-serif" font-weight="400" font-size="24" transform="matrix(0.981707 -0.190396 0.190396 0.981707 506.896 257)">-</text><text font-family="Calibri,Calibri_MSFontService,sans-serif" font-weight="400" font-size="24" transform="matrix(0.981707 -0.190396 0.190396 0.981707 514.095 255)">gangen</text><text font-family="Calibri,Calibri_MSFontService,sans-serif" font-weight="400" font-size="24" transform="matrix(0.892672 0.450706 -0.450706 0.892672 793.244 266)">Tall i 3</text><text font-family="Calibri,Calibri_MSFontService,sans-serif" font-weight="400" font-size="24" transform="matrix(0.892672 0.450706 -0.450706 0.892672 847.661 294)">-</text><text font-family="Calibri,Calibri_MSFontService,sans-serif" font-weight="400" font-size="24" transform="matrix(0.892672 0.450706 -0.450706 0.892672 854.207 297)">gangen</text><text font-family="Calibri,Calibri_MSFontService,sans-serif" font-weight="400" font-size="24" transform="translate(547.729 165)">Tallene fra 1 til 12</text><path d="M393 434.5C386.406 332.669 454.132 252.667 572.5 263 663.775 247.21 741.253 337.804 752 434.5 764.66 544.88 660.849 593.307 572.5 606 477.015 608.378 393.954 525.411 393 434.5Z" fill="#FFFFFF" fill-rule="evenodd"/><path d="M393 434.5C391.408 342.141 487.891 256.908 572.5 263 678.5 267.875 760.466 356.091 752 434.5 751.026 540.457 667.43 592.535 572.5 606 472.395 619.998 398.22 529.888 393 434.5Z" stroke="#000000" stroke-width="2" stroke-miterlimit="8" fill="none" fill-rule="evenodd"/><text font-family="Calibri,Calibri_MSFontService,sans-serif" font-weight="400" font-size="37" transform="matrix(0.998761 0.0497699 -0.0497699 0.998761 653.249 469)">6</text><text font-family="Calibri,Calibri_MSFontService,sans-serif" font-weight="400" font-size="37" transform="translate(451.783 482)">4</text><text font-family="Calibri,Calibri_MSFontService,sans-serif" font-weight="400" font-size="37" transform="matrix(0.996173 -0.0874035 0.0874035 0.996173 525.015 549)">2</text><text font-family="Calibri,Calibri_MSFontService,sans-serif" font-weight="400" font-size="37" transform="translate(499.883 399)">8</text><text font-family="Calibri,Calibri_MSFontService,sans-serif" font-weight="400" font-size="37" transform="matrix(0.996173 -0.0874035 0.0874035 0.996173 522.586 324)">10</text><text font-family="Calibri,Calibri_MSFontService,sans-serif" font-weight="400" font-size="37" transform="matrix(0.999044 -0.0437089 0.0437089 0.999044 661.482 393)">12</text><path d="M875.43 533.714C822.068 622.273 726.56 626.418 652.383 557.838 582.093 511.658 583.206 414.921 627.792 334.841 682.547 251.094 782.877 271.089 850.839 310.717 916.914 358.587 917.488 475.134 875.43 533.714Z" stroke="#000000" stroke-width="2" stroke-miterlimit="8" fill="none" fill-rule="evenodd"/></g></svg>