<svg width="1280" height="720" xmlns="http://www.w3.org/2000/svg" xmlns:xlink="http://www.w3.org/1999/xlink" overflow="hidden"><g><rect x="0" y="0" width="1280" height="720" fill="#FFFFFF"/><path d="M187 126C187.02 125.2 186.998 124.804 187 124 210.289 125.705 226.224 123.889 246.34 124 266.456 124.111 303.602 127.143 321.16 124 338.718 120.857 374.708 122.743 390.82 124 406.933 125.257 422.065 122.497 450.16 124 478.255 125.503 481.099 122.354 509.5 124 537.901 125.646 539.882 124.389 558.52 124 577.158 123.611 593.33 120.931 623.02 124 652.71 127.069 680.686 126.486 703 124 703.051 124.944 703.014 125.569 703 126 681.342 128.628 661.369 126.356 648.82 126 636.271 125.644 611.14 126.106 589.48 126 567.82 125.894 558.156 124.755 530.14 126 502.124 127.245 493.181 124.275 470.8 126 448.419 127.725 426.362 128.667 411.46 126 396.558 123.333 365.131 124.294 341.8 126 318.469 127.706 311.945 128.802 287.62 126 263.295 123.198 230.492 126.14 187 126Z" fill="#FFFFFF" fill-rule="evenodd"/><path d="M187 126C186.974 125.207 187.046 124.75 187 124 203.643 124.291 214.111 121.836 241.18 124 268.249 126.164 287.628 125.715 305.68 124 323.732 122.285 343.344 122.521 359.86 124 376.376 125.479 419.057 120.311 434.68 124 450.303 127.689 468.084 126.966 499.18 124 530.276 121.034 530.782 124.256 548.2 124 565.617 123.744 598.143 122.518 617.86 124 637.577 125.482 683.698 126.764 703 124 702.938 124.967 703.005 125.055 703 126 679.276 124.294 665.183 123.693 643.66 126 622.137 128.307 605.673 124.931 579.16 126 552.647 127.069 537.839 128.775 514.66 126 491.481 123.225 466.636 122.734 439.84 126 413.044 129.266 397.178 125.086 385.66 126 374.142 126.914 336.302 128.724 321.16 126 306.018 123.276 286.048 126.364 256.66 126 227.272 125.636 209.354 126.57 187 126Z" stroke="#000000" stroke-width="2" stroke-miterlimit="8" fill="none" fill-rule="evenodd"/><text font-family="Calibri,Calibri_MSFontService,sans-serif" font-weight="400" font-size="37" transform="translate(195.6 113)">A B C D E F G</text><path d="M258 81C260.497 81.0495 261.758 81.2135 263 81 262.958 96.3801 263.673 109.143 263 135.96 262.327 162.778 261.774 175.499 263 197.79 264.226 220.081 261.036 228.561 263 257.33 264.964 286.099 264.324 286.113 263 310 261.634 310.12 260.037 309.83 258 310 255.811 296.844 255.353 265.258 258 252.75 260.647 240.242 257.646 209.313 258 193.21 258.354 177.107 255.507 163.618 258 138.25 260.493 112.882 256.781 99.6155 258 81Z" fill="#FFFFFF" fill-rule="evenodd"/><path d="M258 81C259.315 80.9998 261.324 80.9881 263 81 260.733 104.569 264.909 125.333 263 142.83 261.091 160.327 261.735 169.244 263 193.21 264.265 217.176 265.859 229.332 263 252.75 260.141 276.168 262.974 287.223 263 310 260.872 309.762 260.081 310.058 258 310 260.55 285.724 255.769 272.086 258 257.33 260.231 242.574 256.533 226.979 258 204.66 259.467 182.341 257.203 168.923 258 149.7 258.797 130.477 258.665 101.451 258 81Z" stroke="#000000" stroke-width="2" stroke-miterlimit="8" fill="none" fill-rule="evenodd"/><path d="M340 86C342.497 86.0495 343.758 86.2135 345 86 346.737 112.9 342.31 134.187 345 155.517 347.69 176.846 346.118 213.668 345 231.483 343.882 249.298 343.557 268.7 345 301 342.989 300.94 341.817 301.181 340 301 337.594 281.706 336.497 251.28 340 227.183 343.503 203.087 337.338 189.809 340 155.517 342.662 121.224 342.854 114.94 340 86Z" fill="#FFFFFF" fill-rule="evenodd"/><path d="M340 86C341.465 85.8696 342.781 86.1238 345 86 347.28 101.696 343.821 128.246 345 151.217 346.179 174.188 343.96 197.122 345 225.033 346.04 252.945 346.531 267.979 345 301 342.904 301.164 341.443 300.975 340 301 342.235 274.602 340.253 243.865 340 227.183 339.747 210.501 342.095 184.26 340 155.517 337.905 126.773 339.249 108.815 340 86Z" stroke="#000000" stroke-width="2" stroke-miterlimit="8" fill="none" fill-rule="evenodd"/><path d="M418 79C420.497 79.0495 421.758 79.2135 423 79 422.869 94.429 423.396 107.447 423 133.96 422.604 160.473 421.973 172.742 423 195.79 424.027 218.838 420.341 227.022 423 255.33 425.659 283.638 424.324 284.113 423 308 421.634 308.12 420.037 307.83 418 308 415.811 294.844 415.353 263.258 418 250.75 420.647 238.242 417.646 207.313 418 191.21 418.354 175.107 416.332 161.476 418 136.25 419.668 111.024 416.781 97.6155 418 79Z" fill="#FFFFFF" fill-rule="evenodd"/><path d="M418 79C419.315 78.9998 421.324 78.9881 423 79 420.298 102.583 424.204 123.44 423 140.83 421.796 158.22 421.735 167.244 423 191.21 424.265 215.176 425.859 227.332 423 250.75 420.141 274.168 422.974 285.223 423 308 420.872 307.762 420.081 308.058 418 308 420.55 283.724 415.769 270.086 418 255.33 420.231 240.574 416.752 224.973 418 202.66 419.248 180.347 416.782 167.564 418 147.7 419.218 127.836 418.858 98.8354 418 79Z" stroke="#000000" stroke-width="2" stroke-miterlimit="8" fill="none" fill-rule="evenodd"/><path d="M501 79C503.497 79.0495 504.758 79.2135 506 79 505.869 94.429 506.396 107.447 506 133.96 505.604 160.473 504.973 172.742 506 195.79 507.027 218.838 503.341 227.022 506 255.33 508.659 283.638 507.324 284.113 506 308 504.634 308.12 503.037 307.83 501 308 498.811 294.844 498.353 263.258 501 250.75 503.647 238.242 500.646 207.313 501 191.21 501.354 175.107 499.332 161.476 501 136.25 502.668 111.024 499.781 97.6155 501 79Z" fill="#FFFFFF" fill-rule="evenodd"/><path d="M501 79C502.315 78.9998 504.324 78.9881 506 79 503.298 102.583 507.204 123.44 506 140.83 504.796 158.22 504.735 167.244 506 191.21 507.265 215.176 508.859 227.332 506 250.75 503.141 274.168 505.974 285.223 506 308 503.872 307.762 503.081 308.058 501 308 503.55 283.724 498.769 270.086 501 255.33 503.231 240.574 499.752 224.973 501 202.66 502.248 180.347 499.782 167.564 501 147.7 502.218 127.836 501.858 98.8354 501 79Z" stroke="#000000" stroke-width="2" stroke-miterlimit="8" fill="none" fill-rule="evenodd"/><path d="M576 81C578.497 81.0495 579.758 81.2135 581 81 582.737 107.9 578.31 129.187 581 150.517 583.69 171.846 581.957 209.285 581 226.483 580.044 243.682 579.557 263.7 581 296 578.989 295.94 577.817 296.181 576 296 573.951 276.555 573.084 246.032 576 222.183 578.916 198.334 573.338 184.809 576 150.517 578.662 116.224 578.854 109.94 576 81Z" fill="#FFFFFF" fill-rule="evenodd"/><path d="M576 81C577.465 80.8696 578.781 81.1238 581 81 583.152 96.6994 579.24 123.913 581 146.217 582.76 168.521 579.972 191.679 581 220.033 582.028 248.387 581.957 263.066 581 296 578.904 296.164 577.443 295.975 576 296 578.292 268.971 576.464 238.851 576 222.183 575.536 205.516 578.095 179.26 576 150.517 573.905 121.773 575.249 103.815 576 81Z" stroke="#000000" stroke-width="2" stroke-miterlimit="8" fill="none" fill-rule="evenodd"/><path d="M650 81C652.497 81.0495 653.758 81.2135 655 81 654.869 96.429 655.396 109.447 655 135.96 654.604 162.473 653.774 175.499 655 197.79 656.226 220.081 653.036 228.561 655 257.33 656.964 286.099 656.124 286.471 655 310 653.634 310.12 652.037 309.83 650 310 647.811 296.844 647.353 265.258 650 252.75 652.647 240.242 650.235 208.584 650 193.21 649.765 177.836 648.332 163.476 650 138.25 651.668 113.024 648.781 99.6155 650 81Z" fill="#FFFFFF" fill-rule="evenodd"/><path d="M650 81C651.315 80.9998 653.324 80.9881 655 81 652.298 104.583 656.204 125.44 655 142.83 653.796 160.22 653.735 169.244 655 193.21 656.265 217.176 657.799 229.944 655 252.75 652.201 275.556 654.974 287.223 655 310 652.872 309.762 652.081 310.058 650 310 647.955 285.235 648.667 272.023 650 257.33 651.333 242.637 648.533 226.979 650 204.66 651.467 182.341 649.203 168.923 650 149.7 650.797 130.477 650.858 100.835 650 81Z" stroke="#000000" stroke-width="2" stroke-miterlimit="8" fill="none" fill-rule="evenodd"/><path d="M273 154C272.66 150.307 275.823 147.703 280.5 148 284.358 147.41 287.514 150.594 288 154 288.502 157.956 284.273 159.551 280.5 160 276.676 160.214 273.155 156.674 273 154Z" stroke="#000000" stroke-width="2" stroke-miterlimit="8" fill="none" fill-rule="evenodd"/><path d="M304 154C303.637 150.307 307.011 147.703 312 148 316.115 147.41 319.482 150.594 320 154 320.536 157.956 316.024 159.551 312 160 307.921 160.214 304.166 156.674 304 154Z" stroke="#000000" stroke-width="2" stroke-miterlimit="8" fill="none" fill-rule="evenodd"/><path d="M438 154C437.508 150.157 441.269 147.833 446 148 450.124 147.41 453.497 150.594 454 154 454.306 157.691 450.044 159.561 446 160 441.911 160.214 438.161 156.674 438 154Z" stroke="#000000" stroke-width="2" stroke-miterlimit="8" fill="none" fill-rule="evenodd"/><path d="M666 214C665.66 210.307 668.823 207.703 673.5 208 677.358 207.41 680.514 210.594 681 214 681.502 217.956 677.273 219.551 673.5 220 669.676 220.214 666.155 216.674 666 214Z" stroke="#000000" stroke-width="2" stroke-miterlimit="8" fill="none" fill-rule="evenodd"/><path d="M688 215C687.66 211.307 690.823 208.703 695.5 209 699.358 208.41 702.514 211.594 703 215 703.502 218.956 699.273 220.551 695.5 221 691.676 221.214 688.155 217.674 688 215Z" stroke="#000000" stroke-width="2" stroke-miterlimit="8" fill="none" fill-rule="evenodd"/><path d="M710 215C709.508 211.157 713.269 208.833 718 209 722.124 208.41 725.497 211.594 726 215 726.306 218.691 722.044 220.561 718 221 713.911 221.214 710.161 217.674 710 215Z" stroke="#000000" stroke-width="2" stroke-miterlimit="8" fill="none" fill-rule="evenodd"/><path d="M218 284C217.637 280.307 221.011 277.703 226 278 230.115 277.41 233.482 280.594 234 284 234.536 287.956 230.024 289.551 226 290 221.921 290.214 218.166 286.674 218 284Z" stroke="#000000" stroke-width="2" stroke-miterlimit="8" fill="none" fill-rule="evenodd"/><path d="M304 284C303.637 280.307 307.011 277.703 312 278 316.115 277.41 319.482 280.594 320 284 320.536 287.956 316.024 289.551 312 290 307.921 290.214 304.166 286.674 304 284Z" stroke="#000000" stroke-width="2" stroke-miterlimit="8" fill="none" fill-rule="evenodd"/><path d="M521 282C520.508 278.157 524.269 275.833 529 276 533.124 275.41 536.497 278.594 537 282 537.306 285.691 533.044 287.561 529 288 524.911 288.214 521.161 284.674 521 282Z" stroke="#000000" stroke-width="2" stroke-miterlimit="8" fill="none" fill-rule="evenodd"/><path d="M615 443C617.497 443.05 618.758 443.214 620 443 622.001 463.176 622.25 473.718 620 488 618.668 487.993 616.17 487.865 615 488 615.917 468.935 615.834 454.284 615 443Z" fill="#FFFFFF" fill-rule="evenodd"/><path d="M615 443C616.103 442.785 617.633 442.906 620 443 618.12 460.141 619.698 478.521 620 488 618.113 488.051 617.035 488.131 615 488 613.789 474.559 614.545 465.455 615 443Z" stroke="#000000" stroke-width="2" stroke-miterlimit="8" fill="none" fill-rule="evenodd"/><path d="M697 444C699.497 444.05 700.758 444.218 702 444 702.718 461.711 703.656 471.612 702 487 700.668 486.993 698.17 486.862 697 487 698.847 472.751 696.962 463.501 697 444Z" fill="#FFFFFF" fill-rule="evenodd"/><path d="M697 444C698.103 443.782 699.633 443.904 702 444 700.568 458.906 701.697 469.577 702 487 700.113 487.052 699.035 487.133 697 487 695.295 467.648 697.094 465.053 697 444Z" stroke="#000000" stroke-width="2" stroke-miterlimit="8" fill="none" fill-rule="evenodd"/><path d="M775 441C777.497 441.048 778.758 441.209 780 441 782.001 460.727 782.25 471.035 780 485 778.668 484.993 776.17 484.868 775 485 775.917 466.359 775.834 452.033 775 441Z" fill="#FFFFFF" fill-rule="evenodd"/><path d="M775 441C776.103 440.79 777.633 440.908 780 441 778.12 457.76 779.698 475.731 780 485 778.113 485.05 777.035 485.128 775 485 773.789 471.858 774.545 462.956 775 441Z" stroke="#000000" stroke-width="2" stroke-miterlimit="8" fill="none" fill-rule="evenodd"/><path d="M858 441C860.497 441.048 861.758 441.209 863 441 865.001 460.727 865.25 471.035 863 485 861.668 484.993 859.17 484.868 858 485 858.917 466.359 858.834 452.033 858 441Z" fill="#FFFFFF" fill-rule="evenodd"/><path d="M858 441C859.103 440.79 860.633 440.908 863 441 861.12 457.76 862.698 475.731 863 485 861.113 485.05 860.035 485.128 858 485 856.789 471.858 857.545 462.956 858 441Z" stroke="#000000" stroke-width="2" stroke-miterlimit="8" fill="none" fill-rule="evenodd"/><path d="M933 440C935.497 440.049 936.758 440.213 938 440 938.718 457.299 939.656 466.97 938 482 936.668 481.993 934.17 481.865 933 482 934.847 468.082 932.962 459.047 933 440Z" fill="#FFFFFF" fill-rule="evenodd"/><path d="M933 440C934.103 439.787 935.633 439.906 938 440 936.568 454.559 937.697 464.982 938 482 936.113 482.051 935.035 482.13 933 482 931.295 463.098 933.094 460.564 933 440Z" stroke="#000000" stroke-width="2" stroke-miterlimit="8" fill="none" fill-rule="evenodd"/><path d="M1007 443C1009.5 443.05 1010.76 443.214 1012 443 1013.89 463.236 1013.91 474.091 1012 488 1010.67 487.993 1008.17 487.865 1007 488 1008.35 468.381 1008.11 454.059 1007 443Z" fill="#FFFFFF" fill-rule="evenodd"/><path d="M1007 443C1008.1 442.785 1009.63 442.906 1012 443 1009.75 461.193 1010.72 465.993 1012 488 1010.11 488.051 1009.04 488.131 1007 488 1006.02 474.103 1006.73 465.45 1007 443Z" stroke="#000000" stroke-width="2" stroke-miterlimit="8" fill="none" fill-rule="evenodd"/><path d="M630 463C629.66 459.307 632.823 456.703 637.5 457 641.358 456.41 644.514 459.594 645 463 645.502 466.956 641.273 468.551 637.5 469 633.676 469.214 630.155 465.674 630 463Z" stroke="#000000" stroke-width="2" stroke-miterlimit="8" fill="none" fill-rule="evenodd"/><path d="M661 463C660.637 459.307 664.011 456.703 669 457 673.115 456.41 676.482 459.594 677 463 677.536 466.956 673.024 468.551 669 469 664.921 469.214 661.166 465.674 661 463Z" stroke="#000000" stroke-width="2" stroke-miterlimit="8" fill="none" fill-rule="evenodd"/><path d="M795 463C794.508 459.157 798.269 456.833 803 457 807.124 456.41 810.497 459.594 811 463 811.306 466.691 807.044 468.561 803 469 798.911 469.214 795.161 465.674 795 463Z" stroke="#000000" stroke-width="2" stroke-miterlimit="8" fill="none" fill-rule="evenodd"/></g></svg>