<svg width="1280" height="720" xmlns="http://www.w3.org/2000/svg" xmlns:xlink="http://www.w3.org/1999/xlink" overflow="hidden"><defs><clipPath id="clip0"><rect x="0" y="0" width="1280" height="720"/></clipPath></defs><g clip-path="url(#clip0)"><rect x="0" y="0" width="1280" height="720" fill="#FFFFFF"/><path d="M0 0C19.6611 3.07454 51.571 0.84105 66.5338 0 81.4965-0.84105 105.959 2.90982 136.236 0 166.513-2.90982 176.505 2.03024 190.096 0 203.688-2.03024 230.123-2.12661 243.957 0 257.791 2.12661 297.336-2.24031 316.827 0 316.763 2.36787 316.683 2.43076 316.827 4.79989 293.61 5.85186 285.054 1.93963 253.462 4.79989 221.87 7.66016 205.332 2.26163 183.76 4.79989 162.188 7.33816 136.335 3.39024 123.563 4.79989 110.791 6.20955 89.3515 4.14005 66.5338 4.79989 43.716 5.45974 21.6165 1.87601 0 4.79989-0.101207 2.40493 0.0108136 1.39633 0 0Z" fill="#BFBFBF" fill-rule="evenodd" transform="matrix(0.584664 -0.811275 -0.811275 -0.584664 228.028 360.539)"/><path d="M0 0C15.304-2.70457 35.4427-0.200105 63.3655 0 91.2882 0.200105 110.185 3.20136 133.068 0 155.95-3.20136 174.517-1.42793 202.77 0 231.022 1.42793 293.227 4.64934 316.827 0 316.73 1.34562 316.632 2.70047 316.827 4.79989 286.454 5.39937 278.211 1.76808 250.294 4.79989 222.377 7.83171 219.434 6.89039 190.096 4.79989 160.759 2.7094 159.793 7.60871 129.899 4.79989 100.005 1.99108 82.6803 8.26982 60.1973 4.79989 37.7142 1.32997 24.9785 5.67244 0 4.79989-0.106037 2.63034 0.128714 2.17795 0 0Z" stroke="#000000" stroke-width="2" stroke-miterlimit="8" fill="none" fill-rule="evenodd" transform="matrix(0.584664 -0.811275 -0.811275 -0.584664 228.028 360.539)"/><path d="M228.937 358.431C251.206 349.607 276.566 338.421 289.383 329.219 302.201 320.018 332.359 308.576 351.59 299.157 370.821 289.737 391.292 279.489 404.993 273.348 406.096 275.463 406.377 276.092 407.082 277.67 391.407 284.197 365.644 299.062 350.157 305.18 334.67 311.298 321.337 320.474 291.472 333.541 261.607 346.608 249.26 351.699 231.026 362.753 230.557 361.531 229.605 359.418 228.937 358.431Z" fill="#BFBFBF" fill-rule="evenodd"/><path d="M228.937 358.431C248.345 347.69 262.36 338.972 289.383 329.219 316.406 319.466 327.513 307.066 351.59 299.157 375.667 291.248 392.366 278.884 404.993 273.348 405.39 274.43 406.388 276.522 407.082 277.67 390.509 282.282 372.378 297.552 344.875 307.733 317.373 317.913 312.21 321.248 282.669 337.795 253.128 354.342 253.493 349.954 231.026 362.753 230.658 361.633 229.193 359.417 228.937 358.431Z" stroke="#000000" stroke-width="2" stroke-miterlimit="8" fill="none" fill-rule="evenodd"/><path d="M0 0C22.2146 2.22299 43.1048-2.91538 65.8728 0 88.6407 2.91538 117.967 3.24504 133.664 0 149.362-3.24504 168.423-0.492074 191.862 0 191.936 2.38373 191.915 3.07202 191.862 4.7999 165.854 2.43139 143.607 5.46541 129.827 4.7999 116.047 4.13438 84.9015 6.38352 65.8728 4.7999 46.844 3.21627 20.7759 5.55454 0 4.7999 0.109711 3.49638 0.171339 1.17942 0 0Z" fill="#BFBFBF" fill-rule="evenodd" transform="matrix(0.913804 0.406156 0.406156 -0.913804 229.027 367.386)"/><path d="M0 0C31.6683-3.08084 34.8184 1.5348 65.8728 0 96.9271-1.5348 103.87 0.785407 133.664 0 163.458-0.785407 162.922 2.72913 191.862 0 191.749 1.14677 191.738 3.46404 191.862 4.7999 170.076 3.51654 145.333 6.07213 124.071 4.7999 102.809 3.52766 70.8334 4.94992 56.2797 4.7999 41.726 4.64987 27.5586 7.14026 0 4.7999 0.155591 3.6315-0.19874 0.99916 0 0Z" stroke="#000000" stroke-width="2" stroke-miterlimit="8" fill="none" fill-rule="evenodd" transform="matrix(0.913804 0.406156 0.406156 -0.913804 229.027 367.386)"/><path d="M442.216 75.6723C465.131 71.9427 468.876 70.5893 492.243 63.2032 515.611 55.8172 526.262 54.9611 543.728 50.371 561.193 45.7809 574.429 42.0304 587.927 39.3546 588.574 41.6499 588.721 42.3228 589.088 44.012 579.105 46.2482 561.352 50.4171 541.974 55.7547 522.597 61.0924 506.221 64.0079 493.404 67.8606 480.588 71.7133 455.807 75.4981 443.377 80.3297 443.168 79.0383 442.667 76.7753 442.216 75.6723Z" fill="#BFBFBF" fill-rule="evenodd"/><path d="M442.216 75.6723C457.294 74.5607 471.245 68.8572 492.243 63.2032 513.241 57.5492 526.284 57.2947 543.728 50.371 561.171 43.4473 566.47 45.8054 587.927 39.3546 588.094 40.4948 588.644 42.746 589.088 44.012 564.904 49.2016 556.827 53.8197 537.603 56.8443 518.379 59.8689 510.69 66.2792 486.119 69.6765 461.547 73.0739 452.899 79.8703 443.377 80.3297 443.245 79.1583 442.265 76.6898 442.216 75.6723Z" stroke="#000000" stroke-width="2" stroke-miterlimit="8" fill="none" fill-rule="evenodd"/><path d="M0 0C26.2258-0.095643 35.8998-2.31465 53.4007 0 70.9016 2.31465 82.0891 2.07244 108.357 0 134.625-2.07244 139.838-2.25638 155.536 0 155.609 2.38373 155.588 3.07202 155.536 4.79989 144.336 6.04798 123.442 4.13722 105.246 4.79989 87.0505 5.46257 74.163 3.02037 53.4007 4.79989 32.6384 6.57942 12.5796 2.95402 0 4.79989 0.109711 3.49638 0.171339 1.17942 0 0Z" fill="#BFBFBF" fill-rule="evenodd" transform="matrix(0.954979 0.296673 0.296673 -0.954979 443.528 84.6253)"/><path d="M0 0C23.8159 0.903622 32.6538-0.252388 53.4007 0 74.1477 0.252388 83.6647 1.79129 108.357 0 133.049-1.79129 140.861-1.3201 155.536 0 155.423 1.14677 155.411 3.46404 155.536 4.79989 134.071 2.99139 127.203 4.43717 100.58 4.79989 73.9566 5.16262 63.4396 7.27412 45.6239 4.79989 27.8083 2.32567 22.5886 2.63517 0 4.79989 0.155591 3.6315-0.19874 0.99916 0 0Z" stroke="#000000" stroke-width="2" stroke-miterlimit="8" fill="none" fill-rule="evenodd" transform="matrix(0.954979 0.296673 0.296673 -0.954979 443.528 84.6253)"/><text fill="#104862" font-family="Calibri,Calibri_MSFontService,sans-serif" font-style="italic" font-weight="400" font-size="27" transform="translate(412.169 89)">b</text><text fill="#104862" font-family="Calibri,Calibri_MSFontService,sans-serif" font-weight="400" font-size="18" transform="translate(425.835 95)">1</text><text fill="#104862" font-family="Calibri,Calibri_MSFontService,sans-serif" font-style="italic" font-weight="400" font-size="27" transform="translate(412.169 280)">b</text><text fill="#104862" font-family="Calibri,Calibri_MSFontService,sans-serif" font-weight="400" font-size="18" transform="translate(425.835 286)">2</text><text fill="#104862" font-family="Calibri,Calibri_MSFontService,sans-serif" font-style="italic" font-weight="400" font-size="27" transform="translate(412.169 464)">b</text><text fill="#104862" font-family="Calibri,Calibri_MSFontService,sans-serif" font-weight="400" font-size="18" transform="translate(425.835 470)">3</text><text fill="#104862" font-family="Calibri,Calibri_MSFontService,sans-serif" font-style="italic" font-weight="400" font-size="27" transform="translate(411.54 642)">b</text><text fill="#104862" font-family="Calibri,Calibri_MSFontService,sans-serif" font-weight="400" font-size="18" transform="translate(425.207 648)">4</text><text fill="#3B7D23" font-family="Calibri,Calibri_MSFontService,sans-serif" font-style="italic" font-weight="400" font-size="27" transform="translate(598.511 232)">m</text><text fill="#3B7D23" font-family="Calibri,Calibri_MSFontService,sans-serif" font-weight="400" font-size="18" transform="translate(619.678 238)">1</text><text fill="#3B7D23" font-family="Calibri,Calibri_MSFontService,sans-serif" font-style="italic" font-weight="400" font-size="27" transform="translate(598.511 324)">m</text><text fill="#3B7D23" font-family="Calibri,Calibri_MSFontService,sans-serif" font-weight="400" font-size="18" transform="translate(619.678 330)">2</text><text fill="#C04F15" font-family="Calibri,Calibri_MSFontService,sans-serif" font-style="italic" font-weight="400" font-size="27" transform="translate(780.925 24)">t</text><text fill="#C04F15" font-family="Calibri,Calibri_MSFontService,sans-serif" font-weight="400" font-size="18" transform="translate(789.925 30)">1</text><text fill="#C04F15" font-family="Calibri,Calibri_MSFontService,sans-serif" font-style="italic" font-weight="400" font-size="27" transform="translate(802.925 47)">t</text><text fill="#C04F15" font-family="Calibri,Calibri_MSFontService,sans-serif" font-weight="400" font-size="18" transform="translate(811.925 53)">2</text><text fill="#C04F15" font-family="Calibri,Calibri_MSFontService,sans-serif" font-style="italic" font-weight="400" font-size="27" transform="translate(780.925 66)">t</text><text fill="#C04F15" font-family="Calibri,Calibri_MSFontService,sans-serif" font-weight="400" font-size="18" transform="translate(789.925 72)">3</text><text fill="#C04F15" font-family="Calibri,Calibri_MSFontService,sans-serif" font-style="italic" font-weight="400" font-size="27" transform="translate(780.925 116)">t</text><text fill="#C04F15" font-family="Calibri,Calibri_MSFontService,sans-serif" font-weight="400" font-size="18" transform="translate(789.925 122)">1</text><text fill="#C04F15" font-family="Calibri,Calibri_MSFontService,sans-serif" font-style="italic" font-weight="400" font-size="27" transform="translate(802.925 138)">t</text><text fill="#C04F15" font-family="Calibri,Calibri_MSFontService,sans-serif" font-weight="400" font-size="18" transform="translate(811.925 144)">2</text><text fill="#C04F15" font-family="Calibri,Calibri_MSFontService,sans-serif" font-style="italic" font-weight="400" font-size="27" transform="translate(780.925 158)">t</text><text fill="#C04F15" font-family="Calibri,Calibri_MSFontService,sans-serif" font-weight="400" font-size="18" transform="translate(789.925 164)">3</text><text fill="#C04F15" font-family="Calibri,Calibri_MSFontService,sans-serif" font-style="italic" font-weight="400" font-size="27" transform="translate(780.925 210)">t</text><text fill="#C04F15" font-family="Calibri,Calibri_MSFontService,sans-serif" font-weight="400" font-size="18" transform="translate(789.925 216)">1</text><text fill="#C04F15" font-family="Calibri,Calibri_MSFontService,sans-serif" font-style="italic" font-weight="400" font-size="27" transform="translate(802.925 232)">t</text><text fill="#C04F15" font-family="Calibri,Calibri_MSFontService,sans-serif" font-weight="400" font-size="18" transform="translate(811.925 238)">2</text><text fill="#C04F15" font-family="Calibri,Calibri_MSFontService,sans-serif" font-style="italic" font-weight="400" font-size="27" transform="translate(780.925 252)">t</text><text fill="#C04F15" font-family="Calibri,Calibri_MSFontService,sans-serif" font-weight="400" font-size="18" transform="translate(789.925 258)">3</text><text fill="#C04F15" font-family="Calibri,Calibri_MSFontService,sans-serif" font-style="italic" font-weight="400" font-size="27" transform="translate(780.925 302)">t</text><text fill="#C04F15" font-family="Calibri,Calibri_MSFontService,sans-serif" font-weight="400" font-size="18" transform="translate(789.925 308)">1</text><text fill="#C04F15" font-family="Calibri,Calibri_MSFontService,sans-serif" font-style="italic" font-weight="400" font-size="27" transform="translate(802.925 324)">t</text><text fill="#C04F15" font-family="Calibri,Calibri_MSFontService,sans-serif" font-weight="400" font-size="18" transform="translate(811.925 330)">2</text><text fill="#C04F15" font-family="Calibri,Calibri_MSFontService,sans-serif" font-style="italic" font-weight="400" font-size="27" transform="translate(780.925 344)">t</text><text fill="#C04F15" font-family="Calibri,Calibri_MSFontService,sans-serif" font-weight="400" font-size="18" transform="translate(789.925 350)">3</text><text fill="#C04F15" font-family="Calibri,Calibri_MSFontService,sans-serif" font-style="italic" font-weight="400" font-size="27" transform="translate(785.645 670)">t</text><text fill="#C04F15" font-family="Calibri,Calibri_MSFontService,sans-serif" font-weight="400" font-size="18" transform="translate(794.645 676)">1</text><text fill="#C04F15" font-family="Calibri,Calibri_MSFontService,sans-serif" font-style="italic" font-weight="400" font-size="27" transform="translate(807.644 693)">t</text><text fill="#C04F15" font-family="Calibri,Calibri_MSFontService,sans-serif" font-weight="400" font-size="18" transform="translate(816.644 699)">2</text><text fill="#C04F15" font-family="Calibri,Calibri_MSFontService,sans-serif" font-style="italic" font-weight="400" font-size="27" transform="translate(785.644 712)">t</text><text fill="#C04F15" font-family="Calibri,Calibri_MSFontService,sans-serif" font-weight="400" font-size="18" transform="translate(794.644 718)">3</text><text fill="#C04F15" font-family="Calibri,Calibri_MSFontService,sans-serif" font-style="italic" font-weight="400" font-size="27" transform="translate(785.645 577)">t</text><text fill="#C04F15" font-family="Calibri,Calibri_MSFontService,sans-serif" font-weight="400" font-size="18" transform="translate(794.645 583)">1</text><text fill="#C04F15" font-family="Calibri,Calibri_MSFontService,sans-serif" font-style="italic" font-weight="400" font-size="27" transform="translate(807.644 599)">t</text><text fill="#C04F15" font-family="Calibri,Calibri_MSFontService,sans-serif" font-weight="400" font-size="18" transform="translate(816.644 605)">2</text><text fill="#C04F15" font-family="Calibri,Calibri_MSFontService,sans-serif" font-style="italic" font-weight="400" font-size="27" transform="translate(785.644 619)">t</text><text fill="#C04F15" font-family="Calibri,Calibri_MSFontService,sans-serif" font-weight="400" font-size="18" transform="translate(794.644 625)">3</text><text fill="#C04F15" font-family="Calibri,Calibri_MSFontService,sans-serif" font-style="italic" font-weight="400" font-size="27" transform="translate(784.82 485)">t</text><text fill="#C04F15" font-family="Calibri,Calibri_MSFontService,sans-serif" font-weight="400" font-size="18" transform="translate(793.82 491)">1</text><text fill="#C04F15" font-family="Calibri,Calibri_MSFontService,sans-serif" font-style="italic" font-weight="400" font-size="27" transform="translate(806.819 508)">t</text><text fill="#C04F15" font-family="Calibri,Calibri_MSFontService,sans-serif" font-weight="400" font-size="18" transform="translate(815.819 514)">2</text><text fill="#C04F15" font-family="Calibri,Calibri_MSFontService,sans-serif" font-style="italic" font-weight="400" font-size="27" transform="translate(784.819 527)">t</text><text fill="#C04F15" font-family="Calibri,Calibri_MSFontService,sans-serif" font-weight="400" font-size="18" transform="translate(793.819 533)">3</text><text fill="#C04F15" font-family="Calibri,Calibri_MSFontService,sans-serif" font-style="italic" font-weight="400" font-size="27" transform="translate(784.82 396)">t</text><text fill="#C04F15" font-family="Calibri,Calibri_MSFontService,sans-serif" font-weight="400" font-size="18" transform="translate(793.82 402)">1</text><text fill="#C04F15" font-family="Calibri,Calibri_MSFontService,sans-serif" font-style="italic" font-weight="400" font-size="27" transform="translate(806.819 418)">t</text><text fill="#C04F15" font-family="Calibri,Calibri_MSFontService,sans-serif" font-weight="400" font-size="18" transform="translate(815.819 424)">2</text><text fill="#C04F15" font-family="Calibri,Calibri_MSFontService,sans-serif" font-style="italic" font-weight="400" font-size="27" transform="translate(784.819 438)">t</text><text fill="#C04F15" font-family="Calibri,Calibri_MSFontService,sans-serif" font-weight="400" font-size="18" transform="translate(793.819 444)">3</text><text fill="#3B7D23" font-family="Calibri,Calibri_MSFontService,sans-serif" font-style="italic" font-weight="400" font-size="27" transform="translate(598.511 418)">m</text><text fill="#3B7D23" font-family="Calibri,Calibri_MSFontService,sans-serif" font-weight="400" font-size="18" transform="translate(619.678 424)">1</text><text fill="#3B7D23" font-family="Calibri,Calibri_MSFontService,sans-serif" font-style="italic" font-weight="400" font-size="27" transform="translate(598.511 508)">m</text><text fill="#3B7D23" font-family="Calibri,Calibri_MSFontService,sans-serif" font-weight="400" font-size="18" transform="translate(619.678 514)">2</text><text fill="#3B7D23" font-family="Calibri,Calibri_MSFontService,sans-serif" font-style="italic" font-weight="400" font-size="27" transform="translate(598.511 599)">m</text><text fill="#3B7D23" font-family="Calibri,Calibri_MSFontService,sans-serif" font-weight="400" font-size="18" transform="translate(619.678 605)">1</text><text fill="#3B7D23" font-family="Calibri,Calibri_MSFontService,sans-serif" font-style="italic" font-weight="400" font-size="27" transform="translate(598.511 693)">m</text><text fill="#3B7D23" font-family="Calibri,Calibri_MSFontService,sans-serif" font-weight="400" font-size="18" transform="translate(619.678 699)">2</text><text fill="#3B7D23" font-family="Calibri,Calibri_MSFontService,sans-serif" font-style="italic" font-weight="400" font-size="27" transform="translate(598.512 45)">m</text><text fill="#3B7D23" font-family="Calibri,Calibri_MSFontService,sans-serif" font-weight="400" font-size="18" transform="translate(619.678 51)">1</text><text fill="#3B7D23" font-family="Calibri,Calibri_MSFontService,sans-serif" font-style="italic" font-weight="400" font-size="27" transform="translate(598.512 138)">m</text><text fill="#3B7D23" font-family="Calibri,Calibri_MSFontService,sans-serif" font-weight="400" font-size="18" transform="translate(619.678 144)">2</text><path d="M638.802 680.709C671.62 677.977 677.658 673.935 706.056 670.692 734.454 667.449 751.451 664.013 770.672 661.067 771.099 662.566 771.221 664.193 771.379 665.815 744.66 667.72 735.031 673.371 704.126 675.832 673.22 678.294 664.723 680.701 639.509 685.457 639.229 683.84 639.112 681.877 638.802 680.709Z" fill="#BFBFBF" fill-rule="evenodd"/><path d="M638.802 680.709C669.435 678.207 685.069 671.235 700.781 671.478 716.493 671.721 754.926 661.073 770.672 661.067 770.712 662.214 771.12 664.594 771.379 665.815 743.908 668.105 717.985 675.363 702.807 676.029 687.629 676.694 671.062 681.826 639.509 685.457 639.546 684.139 639.14 682.814 638.802 680.709Z" stroke="#000000" stroke-width="2" stroke-miterlimit="8" fill="none" fill-rule="evenodd"/><path d="M647.822 315.069C680.639 312.337 686.677 308.294 715.075 305.052 743.473 301.809 760.471 298.374 779.692 295.427 780.118 296.926 780.241 298.553 780.399 300.175 753.679 302.08 744.051 307.731 713.145 310.192 682.24 312.654 673.742 315.061 648.529 319.817 648.249 318.2 648.132 316.237 647.822 315.069Z" fill="#BFBFBF" fill-rule="evenodd"/><path d="M647.822 315.069C678.455 312.567 694.089 305.595 709.801 305.838 725.512 306.081 763.946 295.433 779.692 295.427 779.732 296.574 780.14 298.954 780.399 300.175 752.928 302.465 727.005 309.723 711.826 310.389 696.648 311.054 680.082 316.186 648.529 319.817 648.566 318.499 648.16 317.174 647.822 315.069Z" stroke="#000000" stroke-width="2" stroke-miterlimit="8" fill="none" fill-rule="evenodd"/><path d="M643.91 495.855C676.728 493.123 682.766 489.081 711.164 485.838 739.562 482.596 756.559 479.16 775.78 476.214 776.207 477.712 776.329 479.339 776.487 480.961 749.768 482.866 740.139 488.517 709.234 490.979 678.328 493.44 669.831 495.847 644.617 500.603 644.337 498.987 644.22 497.023 643.91 495.855Z" fill="#BFBFBF" fill-rule="evenodd"/><path d="M643.91 495.855C674.543 493.353 690.177 486.381 705.889 486.624 721.601 486.867 760.034 476.219 775.78 476.214 775.82 477.361 776.229 479.74 776.487 480.961 749.016 483.251 723.093 490.51 707.915 491.175 692.737 491.84 676.17 496.973 644.617 500.603 644.654 499.285 644.248 497.96 643.91 495.855Z" stroke="#000000" stroke-width="2" stroke-miterlimit="8" fill="none" fill-rule="evenodd"/><path d="M0 0C32.8617 2.13228 39.4298-0.976483 67.9956 0 96.5614 0.976483 113.879 0.0822047 133.325 0 133.526 1.54478 133.407 3.17239 133.325 4.7999 106.616 2.74782 96.2602 6.91843 65.3291 4.7999 34.3981 2.68137 25.6387 3.81071 0 4.7999-0.0389501 3.1599 0.134383 1.20094 0 0Z" fill="#BFBFBF" fill-rule="evenodd" transform="matrix(0.989088 -0.147323 -0.147323 -0.989088 640.61 411.091)"/><path d="M0 0C30.6676 2.0378 47.1581-2.55507 62.6626 0 78.167 2.55507 117.75-2.31433 133.325 0 133.195 1.14037 133.249 3.5537 133.325 4.7999 105.816 3.01774 79.1067 6.37795 63.9959 4.7999 48.8851 3.22184 31.7434 5.85764 0 4.7999 0.230446 3.50184 0.024042 2.13165 0 0Z" stroke="#000000" stroke-width="2" stroke-miterlimit="8" fill="none" fill-rule="evenodd" transform="matrix(0.989088 -0.147323 -0.147323 -0.989088 640.61 411.091)"/><path d="M0 0C22.5667 0.721995 55.0752-0.823727 71.564 0 88.0528 0.823727 118.469 1.62824 140.322 0 140.523 1.54478 140.404 3.17239 140.322 4.7999 114.807 4.50541 87.8447 5.28199 68.7576 4.7999 49.6704 4.3178 33.3252 7.35811 0 4.7999-0.0389501 3.1599 0.134383 1.20094 0 0Z" fill="#BFBFBF" fill-rule="evenodd" transform="matrix(0.989088 -0.147323 -0.147323 -0.989088 641.52 592.972)"/><path d="M0 0C19.8974 1.08798 48.7964-0.620787 65.9512 0 83.106 0.620787 107.482 2.77722 140.322 0 140.192 1.14037 140.245 3.5537 140.322 4.7999 114.812 1.98079 89.7211 6.69102 67.3543 4.7999 44.9876 2.90877 16.4346 1.52189 0 4.7999 0.230446 3.50184 0.024042 2.13165 0 0Z" stroke="#000000" stroke-width="2" stroke-miterlimit="8" fill="none" fill-rule="evenodd" transform="matrix(0.989088 -0.147323 -0.147323 -0.989088 641.52 592.972)"/><path d="M0 0C22.5667 0.721995 55.0752-0.823727 71.564 0 88.0528 0.823727 118.469 1.62824 140.322 0 140.523 1.54478 140.404 3.17239 140.322 4.7999 114.807 4.50541 87.8447 5.28199 68.7576 4.7999 49.6704 4.3178 33.3252 7.35811 0 4.7999-0.0389501 3.1599 0.134383 1.20094 0 0Z" fill="#BFBFBF" fill-rule="evenodd" transform="matrix(0.989088 -0.147323 -0.147323 -0.989088 639.515 222.914)"/><path d="M0 0C19.8974 1.08798 48.7964-0.620787 65.9512 0 83.106 0.620787 107.482 2.77722 140.322 0 140.192 1.14037 140.245 3.5537 140.322 4.7999 114.812 1.98079 89.7211 6.69102 67.3543 4.7999 44.9876 2.90877 16.4346 1.52189 0 4.7999 0.230446 3.50184 0.024042 2.13165 0 0Z" stroke="#000000" stroke-width="2" stroke-miterlimit="8" fill="none" fill-rule="evenodd" transform="matrix(0.989088 -0.147323 -0.147323 -0.989088 639.515 222.914)"/><path d="M0 0C32.8617 2.13228 39.4298-0.976483 67.9956 0 96.5614 0.976483 113.879 0.0822047 133.325 0 133.526 1.54478 133.407 3.17239 133.325 4.7999 106.616 2.74782 96.2602 6.91843 65.3291 4.7999 34.3981 2.68137 25.6387 3.81071 0 4.7999-0.0389501 3.1599 0.134383 1.20094 0 0Z" fill="#BFBFBF" fill-rule="evenodd" transform="matrix(0.989088 -0.147323 -0.147323 -0.989088 642.602 128.331)"/><path d="M0 0C30.6676 2.0378 47.1581-2.55507 62.6626 0 78.167 2.55507 117.75-2.31433 133.325 0 133.195 1.14037 133.249 3.5537 133.325 4.7999 105.816 3.01774 79.1067 6.37795 63.9959 4.7999 48.8851 3.22184 31.7434 5.85764 0 4.7999 0.230446 3.50184 0.024042 2.13165 0 0Z" stroke="#000000" stroke-width="2" stroke-miterlimit="8" fill="none" fill-rule="evenodd" transform="matrix(0.989088 -0.147323 -0.147323 -0.989088 642.602 128.331)"/><path d="M0 0C18.3839-0.659738 38.8456-3.45134 69.2372 0 99.6288 3.45134 110.977-1.72042 135.759 0 135.96 1.54478 135.841 3.17239 135.759 4.7999 112.842 2.46194 95.9835 4.47108 66.5219 4.7999 37.0603 5.12871 13.4667 6.53995 0 4.7999-0.0389501 3.1599 0.134383 1.20094 0 0Z" fill="#BFBFBF" fill-rule="evenodd" transform="matrix(0.989088 -0.147323 -0.147323 -0.989088 648.529 38.8707)"/><path d="M0 0C13.8168-1.40052 49.7223 0.636955 63.8067 0 77.8911-0.636955 102.757-2.50268 135.759 0 135.63 1.14037 135.683 3.5537 135.759 4.7999 106.902 2.73764 94.6379 7.57249 65.1643 4.7999 35.6908 2.0273 15.1876 4.26751 0 4.7999 0.230446 3.50184 0.024042 2.13165 0 0Z" stroke="#000000" stroke-width="2" stroke-miterlimit="8" fill="none" fill-rule="evenodd" transform="matrix(0.989088 -0.147323 -0.147323 -0.989088 648.529 38.8707)"/><path d="M0 0C18.3839-0.659738 38.8456-3.45134 69.2372 0 99.6288 3.45134 110.977-1.72042 135.759 0 135.96 1.54478 135.841 3.17239 135.759 4.79989 112.842 2.46194 95.9835 4.47108 66.5219 4.79989 37.0603 5.12871 13.4667 6.53995 0 4.79989-0.0389501 3.15989 0.134383 1.20094 0 0Z" fill="#BFBFBF" fill-rule="evenodd" transform="matrix(0.988044 0.154172 0.154172 -0.988044 647.822 41.3361)"/><path d="M0 0C13.8168-1.40052 49.7223 0.636955 63.8067 0 77.8911-0.636955 102.757-2.50268 135.759 0 135.63 1.14037 135.683 3.5537 135.759 4.79989 106.902 2.73764 94.6379 7.57249 65.1643 4.79989 35.6908 2.0273 15.1876 4.26751 0 4.79989 0.230446 3.50184 0.024042 2.13165 0 0Z" stroke="#000000" stroke-width="2" stroke-miterlimit="8" fill="none" fill-rule="evenodd" transform="matrix(0.988044 0.154172 0.154172 -0.988044 647.822 41.3361)"/><path d="M0 0C30.9187 3.41711 53.6015-2.47769 69.5814 0 85.5614 2.47769 121.952 1.57186 136.434 0 136.635 1.54478 136.517 3.17239 136.434 4.79989 121.223 3.32 95.2093 2.59045 66.8527 4.79989 38.4961 7.00934 17.4271 6.99139 0 4.79989-0.0389501 3.15989 0.134383 1.20094 0 0Z" fill="#BFBFBF" fill-rule="evenodd" transform="matrix(0.988044 0.154172 0.154172 -0.988044 639.774 132.364)"/><path d="M0 0C20.1755 2.75842 49.2572 2.99108 64.124 0 78.9908-2.99108 108.074 3.00546 136.434 0 136.305 1.14037 136.358 3.5537 136.434 4.79989 117.515 4.92451 89.7081 5.32441 65.4884 4.79989 41.2687 4.27538 25.7073 2.64766 0 4.79989 0.230446 3.50184 0.024042 2.13165 0 0Z" stroke="#000000" stroke-width="2" stroke-miterlimit="8" fill="none" fill-rule="evenodd" transform="matrix(0.988044 0.154172 0.154172 -0.988044 639.774 132.364)"/><path d="M0 0C30.9187 3.41711 53.6015-2.47769 69.5814 0 85.5614 2.47769 121.952 1.57186 136.434 0 136.635 1.54478 136.517 3.17239 136.434 4.79989 121.223 3.32 95.2093 2.59045 66.8527 4.79989 38.4961 7.00934 17.4271 6.99139 0 4.79989-0.0389501 3.15989 0.134383 1.20094 0 0Z" fill="#BFBFBF" fill-rule="evenodd" transform="matrix(0.988044 0.154172 0.154172 -0.988044 639.774 416.231)"/><path d="M0 0C20.1755 2.75842 49.2572 2.99108 64.124 0 78.9908-2.99108 108.074 3.00546 136.434 0 136.305 1.14037 136.358 3.5537 136.434 4.79989 117.515 4.92451 89.7081 5.32441 65.4884 4.79989 41.2687 4.27538 25.7073 2.64766 0 4.79989 0.230446 3.50184 0.024042 2.13165 0 0Z" stroke="#000000" stroke-width="2" stroke-miterlimit="8" fill="none" fill-rule="evenodd" transform="matrix(0.988044 0.154172 0.154172 -0.988044 639.774 416.231)"/><path d="M0 0C30.125 2.34236 47.8845 2.2631 64.7361 0 81.5876-2.2631 107.377-0.00608924 126.934 0 126.934 2.1368 126.947 3.87989 126.934 5.78698 113.448 3.02856 86.3083 8.0357 62.1975 5.78698 38.0866 3.53827 15.9443 7.63286 0 5.78698-0.0651968 4.02719-0.0374803 1.32 0 0Z" fill="#BFBFBF" fill-rule="evenodd" transform="matrix(0.988044 0.154172 0.154172 -0.988044 648.911 321.322)"/><path d="M0 0C20.061 1.24273 36.5214 0.166824 59.6588 0 82.7962-0.166824 105.477-1.01858 126.934 0 126.76 2.63843 126.865 4.32609 126.934 5.78698 102.601 2.73564 87.7879 3.31549 60.9281 5.78698 34.0682 8.25848 22.3809 3.00031 0 5.78698 0.248399 3.0274-0.287664 1.43633 0 0Z" stroke="#000000" stroke-width="2" stroke-miterlimit="8" fill="none" fill-rule="evenodd" transform="matrix(0.988044 0.154172 0.154172 -0.988044 648.911 321.322)"/><path d="M0 0C30.125 2.34236 47.8845 2.2631 64.7361 0 81.5876-2.2631 107.377-0.00608924 126.934 0 126.934 2.1368 126.947 3.87989 126.934 5.78698 113.448 3.02856 86.3083 8.0357 62.1975 5.78698 38.0866 3.53827 15.9443 7.63286 0 5.78698-0.0651968 4.02719-0.0374803 1.32 0 0Z" fill="#BFBFBF" fill-rule="evenodd" transform="matrix(0.988044 0.154172 0.154172 -0.988044 639.774 230.356)"/><path d="M0 0C20.061 1.24273 36.5214 0.166824 59.6588 0 82.7962-0.166824 105.477-1.01858 126.934 0 126.76 2.63843 126.865 4.32609 126.934 5.78698 102.601 2.73564 87.7879 3.31549 60.9281 5.78698 34.0682 8.25848 22.3809 3.00031 0 5.78698 0.248399 3.0274-0.287664 1.43633 0 0Z" stroke="#000000" stroke-width="2" stroke-miterlimit="8" fill="none" fill-rule="evenodd" transform="matrix(0.988044 0.154172 0.154172 -0.988044 639.774 230.356)"/><path d="M0 0C19.0899-0.20168 40.3851 0.171759 65.8733 0 91.3615-0.171759 114.454-2.62121 129.163 0 129.11 1.68955 129.32 3.32157 129.163 4.85942 111.157 7.61932 81.592 7.26646 63.29 4.85942 44.9879 2.45239 26.5321 4.94961 0 4.85942-0.0224672 3.62929 0.0409449 1.41911 0 0Z" fill="#BFBFBF" fill-rule="evenodd" transform="matrix(0.988044 0.154172 0.154172 -0.988044 642.957 595.358)"/><path d="M0 0C26.2272-0.717585 36.9777 1.99717 60.7068 0 84.4358-1.99717 114.848 1.25785 129.163 0 129.277 1.82467 128.938 3.08777 129.163 4.85942 107.383 7.54415 91.4926 3.03192 61.9983 4.85942 32.504 6.68693 23.8436 4.45344 0 4.85942-0.0448294 3.53218-0.007979 2.3136 0 0Z" stroke="#000000" stroke-width="2" stroke-miterlimit="8" fill="none" fill-rule="evenodd" transform="matrix(0.988044 0.154172 0.154172 -0.988044 642.957 595.358)"/><path d="M0 0C19.0899-0.20168 40.3851 0.171759 65.8733 0 91.3615-0.171759 114.454-2.62121 129.163 0 129.11 1.68955 129.32 3.32157 129.163 4.85942 111.157 7.61932 81.592 7.26646 63.29 4.85942 44.9879 2.45239 26.5321 4.94961 0 4.85942-0.0224672 3.62929 0.0409449 1.41911 0 0Z" fill="#BFBFBF" fill-rule="evenodd" transform="matrix(0.988044 0.154172 0.154172 -0.988044 642.957 504.34)"/><path d="M0 0C26.2272-0.717585 36.9777 1.99717 60.7068 0 84.4358-1.99717 114.848 1.25785 129.163 0 129.277 1.82467 128.938 3.08777 129.163 4.85942 107.383 7.54415 91.4926 3.03192 61.9983 4.85942 32.504 6.68693 23.8436 4.45344 0 4.85942-0.0448294 3.53218-0.007979 2.3136 0 0Z" stroke="#000000" stroke-width="2" stroke-miterlimit="8" fill="none" fill-rule="evenodd" transform="matrix(0.988044 0.154172 0.154172 -0.988044 642.957 504.34)"/><path d="M0 0C27.2176 1.79906 49.6677-2.95486 64.8908 0 80.1139 2.95486 109.372-0.984042 127.237 0 127.438 1.54478 127.319 3.17239 127.237 4.79989 97.2952 7.86016 81.9257 7.9284 62.3461 4.79989 42.7667 1.67139 18.8254 2.05795 0 4.79989-0.0389501 3.15989 0.134383 1.20094 0 0Z" fill="#BFBFBF" fill-rule="evenodd" transform="matrix(0.988044 0.154172 0.154172 -0.988044 649.938 690.258)"/><path d="M0 0C26.8682 2.98373 42.5165 0.114751 59.8014 0 77.0862-0.114751 96.4632-0.191811 127.237 0 127.108 1.14037 127.161 3.5537 127.237 4.79989 101.784 7.64598 78.8855 4.53585 61.0737 4.79989 43.2619 5.06394 15.2896 6.07454 0 4.79989 0.230446 3.50184 0.024042 2.13165 0 0Z" stroke="#000000" stroke-width="2" stroke-miterlimit="8" fill="none" fill-rule="evenodd" transform="matrix(0.988044 0.154172 0.154172 -0.988044 649.938 690.258)"/><path d="M443.528 265.719C453.531 262.451 479.481 255.727 493.93 253.157 508.38 250.586 533.24 243.925 545.801 240.228 558.362 236.532 571.59 231.601 590.332 229.129 590.979 231.425 591.126 232.098 591.493 233.787 573.938 237.849 558.609 241.897 544.026 245.618 529.443 249.339 515.9 252.317 495.091 257.814 474.283 263.311 462.762 268.271 444.688 270.377 444.48 269.086 443.979 266.822 443.528 265.719Z" fill="#BFBFBF" fill-rule="evenodd"/><path d="M443.528 265.719C466.288 257.837 474.971 260.15 493.93 253.157 512.889 246.164 528.594 246.463 545.801 240.228 563.009 233.993 576.062 232.825 590.332 229.129 590.499 230.269 591.049 232.521 591.493 233.787 568.87 239.702 554.346 241.535 539.622 246.715 524.898 251.896 504.561 257.557 487.751 259.644 470.941 261.731 458.506 265.772 444.688 270.377 444.557 269.206 443.576 266.737 443.528 265.719Z" stroke="#000000" stroke-width="2" stroke-miterlimit="8" fill="none" fill-rule="evenodd"/><path d="M0 0C13.3706-2.18352 36.0178 1.18646 52.6836 0 69.3493-1.18646 84.6795-0.165039 106.902 0 129.124 0.165039 139.098-0.290289 153.447 0 153.52 2.38373 153.5 3.07202 153.447 4.79989 139.227 6.50404 117.615 7.17543 103.833 4.79989 90.0505 2.42436 71.3599 3.00735 52.6836 4.79989 34.0072 6.59244 20.7391 2.92231 0 4.79989 0.109711 3.49638 0.171339 1.17942 0 0Z" fill="#BFBFBF" fill-rule="evenodd" transform="matrix(0.970315 -0.241845 -0.241845 -0.970315 440.015 450.786)"/><path d="M0 0C13.8092 2.11286 33.5891 2.34583 52.6836 0 71.7781-2.34583 89.5675-0.12126 106.902 0 124.236 0.12126 134.474 2.12724 153.447 0 153.334 1.14677 153.323 3.46404 153.447 4.79989 136.035 6.83328 118.562 4.42961 99.2293 4.79989 79.8965 5.17018 59.6775 2.5432 45.0112 4.79989 30.345 7.05659 11.4673 2.8694 0 4.79989 0.155591 3.6315-0.19874 0.99916 0 0Z" stroke="#000000" stroke-width="2" stroke-miterlimit="8" fill="none" fill-rule="evenodd" transform="matrix(0.970315 -0.241845 -0.241845 -0.970315 440.015 450.786)"/><path d="M0 0C13.3706-2.18352 36.0178 1.18646 52.6836 0 69.3493-1.18646 84.6795-0.165039 106.902 0 129.124 0.165039 139.098-0.290289 153.447 0 153.52 2.38373 153.5 3.07202 153.447 4.79989 139.227 6.50404 117.615 7.17543 103.833 4.79989 90.0505 2.42436 71.3599 3.00735 52.6836 4.79989 34.0072 6.59244 20.7391 2.92231 0 4.79989 0.109711 3.49638 0.171339 1.17942 0 0Z" fill="#BFBFBF" fill-rule="evenodd" transform="matrix(0.970315 -0.241845 -0.241845 -0.970315 436.809 640.248)"/><path d="M0 0C13.8092 2.11286 33.5891 2.34583 52.6836 0 71.7781-2.34583 89.5675-0.12126 106.902 0 124.236 0.12126 134.474 2.12724 153.447 0 153.334 1.14677 153.323 3.46404 153.447 4.79989 136.035 6.83328 118.562 4.42961 99.2293 4.79989 79.8965 5.17018 59.6775 2.5432 45.0112 4.79989 30.345 7.05659 11.4673 2.8694 0 4.79989 0.155591 3.6315-0.19874 0.99916 0 0Z" stroke="#000000" stroke-width="2" stroke-miterlimit="8" fill="none" fill-rule="evenodd" transform="matrix(0.970315 -0.241845 -0.241845 -0.970315 436.809 640.248)"/><path d="M0 0C26.2258-0.095643 35.8998-2.31465 53.4007 0 70.9016 2.31465 82.0891 2.07244 108.357 0 134.625-2.07244 139.838-2.25638 155.536 0 155.609 2.38373 155.588 3.07202 155.536 4.79989 144.336 6.04798 123.442 4.13722 105.246 4.79989 87.0505 5.46257 74.163 3.02037 53.4007 4.79989 32.6384 6.57942 12.5796 2.95402 0 4.79989 0.109711 3.49638 0.171339 1.17942 0 0Z" fill="#BFBFBF" fill-rule="evenodd" transform="matrix(0.954979 0.296673 0.296673 -0.954979 443.528 271.614)"/><path d="M0 0C23.8159 0.903622 32.6538-0.252388 53.4007 0 74.1477 0.252388 83.6647 1.79129 108.357 0 133.049-1.79129 140.861-1.3201 155.536 0 155.423 1.14677 155.411 3.46404 155.536 4.79989 134.071 2.99139 127.203 4.43717 100.58 4.79989 73.9566 5.16262 63.4396 7.27412 45.6239 4.79989 27.8083 2.32567 22.5886 2.63517 0 4.79989 0.155591 3.6315-0.19874 0.99916 0 0Z" stroke="#000000" stroke-width="2" stroke-miterlimit="8" fill="none" fill-rule="evenodd" transform="matrix(0.954979 0.296673 0.296673 -0.954979 443.528 271.614)"/><path d="M438.438 448.371C450.315 452.539 472.823 456.549 490.099 464.42 507.376 472.291 527.819 478.507 543.265 480.937 558.711 483.366 568.566 486.418 588.908 495.116 588.27 497.414 588.046 498.065 587.484 499.7 568.905 495.596 554.8 490.261 538.832 484.585 522.864 478.91 512.331 474.018 488.675 469.004 465.02 463.989 452.655 457.876 437.014 452.955 437.506 451.743 438.252 449.548 438.438 448.371Z" fill="#BFBFBF" fill-rule="evenodd"/><path d="M438.438 448.371C453.217 451.891 478.045 459.559 490.099 464.42 502.154 469.281 518.439 470.54 543.265 480.937 568.091 491.333 576.229 492.602 588.908 495.116 588.459 496.177 587.761 498.387 587.484 499.7 566.184 494.718 556.476 492.952 534.318 483.183 512.159 473.414 507.406 475.828 481.152 466.667 454.898 457.505 451.15 456.005 437.014 452.955 437.509 451.885 437.952 449.266 438.438 448.371Z" stroke="#000000" stroke-width="2" stroke-miterlimit="8" fill="none" fill-rule="evenodd"/><path d="M438.438 640.416C453.607 646.843 473.125 652.551 490.748 656.666 508.371 660.782 529.913 667.51 544.582 673.39 559.251 679.27 569.722 681.882 590.798 687.748 590.16 690.046 589.936 690.697 589.374 692.332 569.46 683.655 560.333 684.679 540.111 677.028 519.889 669.376 510.109 666.157 489.324 661.25 468.54 656.344 454.131 650.744 437.014 645 437.506 643.787 438.252 641.593 438.438 640.416Z" fill="#BFBFBF" fill-rule="evenodd"/><path d="M438.438 640.416C462.385 647.037 469.596 649.712 490.748 656.666 511.901 663.621 523.429 666.714 544.582 673.39 565.735 680.067 579.607 683.665 590.798 687.748 590.349 688.809 589.651 691.019 589.374 692.332 574.015 684.658 560.711 685.859 535.54 675.608 510.37 665.356 505.042 666.263 481.706 658.884 458.371 651.504 454.332 651.339 437.014 645 437.51 643.93 437.952 641.311 438.438 640.416Z" stroke="#000000" stroke-width="2" stroke-miterlimit="8" fill="none" fill-rule="evenodd"/><path d="M0 0C27.1054-0.409659 47.6938 2.38163 66.7023 0 85.7108-2.38163 110.234-2.8864 136.581 0 162.927 2.8864 170.566-2.20283 190.578 0 210.589 2.20283 220.422-1.96462 244.575 0 268.728 1.96462 296.045 1.01911 317.63 0 317.529 1.81974 317.895 4.75969 317.63 6.11832 292.553 7.05638 280.82 7.9031 254.104 6.11832 227.388 4.33354 216.129 4.89816 184.225 6.11832 152.322 7.33848 153.217 3.59937 123.876 6.11832 94.5342 8.63738 87.8782 4.9622 66.7023 6.11832 45.5263 7.27444 19.1843 5.29942 0 6.11832-0.0813648 3.62058 0.100997 1.30131 0 0Z" fill="#BFBFBF" fill-rule="evenodd" transform="matrix(0.575278 0.817958 0.817958 -0.575278 219.29 362.137)"/><path d="M0 0C18.7047 1.56441 35.2822 1.97092 63.5259 0 91.7696-1.97092 99.0629 1.25974 133.404 0 167.746-1.25974 174.714-3.32724 203.283 0 231.852 3.32724 286.326 4.59622 317.63 0 317.607 2.85029 317.782 3.07318 317.63 6.11832 291.122 5.59916 269.541 4.13144 250.927 6.11832 232.314 8.1052 206.67 7.30205 190.578 6.11832 174.486 4.9347 155.887 5.82278 130.228 6.11832 104.569 6.41396 90.1891 8.50793 60.3496 6.11832 30.5101 3.72871 15.0387 8.70478 0 6.11832-0.144042 4.27675 0.0364304 2.47916 0 0Z" stroke="#000000" stroke-width="2" stroke-miterlimit="8" fill="none" fill-rule="evenodd" transform="matrix(0.575278 0.817958 0.817958 -0.575278 219.29 362.137)"/><path d="M649 37C681.178 38.3855 687.808 35.6211 716.83 37 745.852 38.3789 762.602 37.0685 782 37 782.201 38.2873 782.082 39.6437 782 41 755.76 39.5026 745.148 42.9126 714.17 41 683.192 39.0874 674.576 40.1757 649 41 648.961 39.6333 649.134 38.0008 649 37Z" fill="#BFBFBF" fill-rule="evenodd"/><path d="M649 37C679.472 38.5769 695.558 34.7309 711.51 37 727.462 39.2691 766.463 35.0714 782 37 781.871 37.9503 781.924 39.9615 782 41 755.059 39.7729 727.983 42.4873 712.84 41 697.697 39.5127 680.666 41.8815 649 41 649.23 39.9183 649.024 38.7764 649 37Z" stroke="#000000" stroke-width="2" stroke-miterlimit="8" fill="none" fill-rule="evenodd"/><path d="M642 124C674.178 125.732 680.808 122.276 709.83 124 738.852 125.724 755.602 124.086 775 124 775.201 125.609 775.082 127.305 775 129 748.76 127.128 738.148 131.391 707.17 129 676.192 126.609 667.576 127.97 642 129 641.961 127.292 642.134 125.251 642 124Z" fill="#BFBFBF" fill-rule="evenodd"/><path d="M642 124C672.472 125.971 688.558 121.164 704.51 124 720.462 126.836 759.463 121.589 775 124 774.871 125.188 774.924 127.702 775 129 748.059 127.466 720.983 130.859 705.84 129 690.697 127.141 673.666 130.102 642 129 642.23 127.648 642.024 126.221 642 124Z" stroke="#000000" stroke-width="2" stroke-miterlimit="8" fill="none" fill-rule="evenodd"/><path d="M638 221C670.42 222.732 677.1 219.276 706.34 221 735.58 222.724 752.456 221.086 772 221 772.202 222.609 772.083 224.305 772 226 745.562 224.128 734.871 228.391 703.66 226 672.449 223.609 663.769 224.97 638 226 637.961 224.292 638.135 222.251 638 221Z" fill="#BFBFBF" fill-rule="evenodd"/><path d="M638 221C668.701 222.971 684.908 218.164 700.98 221 717.052 223.836 756.346 218.589 772 221 771.87 222.188 771.923 224.702 772 226 744.857 224.466 717.577 227.859 702.32 226 687.063 224.141 669.904 227.102 638 226 638.232 224.648 638.024 223.221 638 221Z" stroke="#000000" stroke-width="2" stroke-miterlimit="8" fill="none" fill-rule="evenodd"/><path d="M649 314C681.178 315.732 687.808 312.276 716.83 314 745.852 315.724 762.602 314.086 782 314 782.201 315.609 782.082 317.305 782 319 755.76 317.128 745.148 321.391 714.17 319 683.192 316.609 674.576 317.97 649 319 648.961 317.292 649.134 315.251 649 314Z" fill="#BFBFBF" fill-rule="evenodd"/><path d="M649 314C679.472 315.971 695.558 311.164 711.51 314 727.462 316.836 766.463 311.589 782 314 781.871 315.188 781.924 317.702 782 319 755.059 317.466 727.983 320.859 712.84 319 697.697 317.141 680.666 320.102 649 319 649.23 317.648 649.024 316.221 649 314Z" stroke="#000000" stroke-width="2" stroke-miterlimit="8" fill="none" fill-rule="evenodd"/><path d="M638 408C657.961 409.798 690.931 408.004 707.87 408 724.809 407.996 744.132 406.688 775 408 775.004 409.49 775.152 411.975 775 413 755.968 412.675 738.584 414.833 705.13 413 671.676 411.167 665.314 411.577 638 413 638.198 411.743 638.034 410.255 638 408Z" fill="#BFBFBF" fill-rule="evenodd"/><path d="M638 408C660.197 409.416 686.684 408.64 702.39 408 718.096 407.36 746.598 405.276 775 408 775.084 410.119 774.756 410.557 775 413 759.627 416.158 722.859 409.91 703.76 413 684.661 416.09 660.319 411.834 638 413 638.134 411.57 637.77 410.33 638 408Z" stroke="#000000" stroke-width="2" stroke-miterlimit="8" fill="none" fill-rule="evenodd"/><path d="M642 499C674.782 501.221 681.334 497.983 709.83 499 738.326 500.017 755.602 499.086 775 499 775.201 500.609 775.082 502.305 775 504 748.356 501.862 738.026 506.207 707.17 504 676.314 501.793 667.576 502.97 642 504 641.961 502.292 642.134 500.251 642 499Z" fill="#BFBFBF" fill-rule="evenodd"/><path d="M642 499C672.593 501.123 689.043 496.338 704.51 499 719.977 501.662 759.463 496.589 775 499 774.871 500.188 774.924 502.702 775 504 747.558 502.144 720.914 505.644 705.84 504 690.766 502.356 673.666 505.102 642 504 642.23 502.648 642.024 501.221 642 499Z" stroke="#000000" stroke-width="2" stroke-miterlimit="8" fill="none" fill-rule="evenodd"/><path d="M640 589C672.782 591.221 679.334 587.983 707.83 589 736.326 590.017 753.602 589.086 773 589 773.201 590.609 773.082 592.305 773 594 746.356 591.862 736.026 596.207 705.17 594 674.314 591.793 665.576 592.97 640 594 639.961 592.292 640.134 590.251 640 589Z" fill="#BFBFBF" fill-rule="evenodd"/><path d="M640 589C670.593 591.123 687.043 586.338 702.51 589 717.977 591.662 757.463 586.589 773 589 772.871 590.188 772.924 592.702 773 594 745.558 592.144 718.914 595.644 703.84 594 688.766 592.356 671.666 595.102 640 594 640.23 592.648 640.024 591.221 640 589Z" stroke="#000000" stroke-width="2" stroke-miterlimit="8" fill="none" fill-rule="evenodd"/><path d="M638 682C671.028 684.221 677.63 680.983 706.34 682 735.05 683.017 752.456 682.086 772 682 772.202 683.609 772.083 685.305 772 687 745.156 684.862 734.748 689.207 703.66 687 672.572 684.793 663.769 685.97 638 687 637.961 685.292 638.135 683.251 638 682Z" fill="#BFBFBF" fill-rule="evenodd"/><path d="M638 682C668.823 684.123 685.397 679.338 700.98 682 716.563 684.662 756.346 679.589 772 682 771.87 683.188 771.923 685.702 772 687 744.352 685.144 717.507 688.644 702.32 687 687.133 685.356 669.904 688.102 638 687 638.232 685.648 638.024 684.221 638 682Z" stroke="#000000" stroke-width="2" stroke-miterlimit="8" fill="none" fill-rule="evenodd"/></g></svg>