<svg width="1280" height="720" xmlns="http://www.w3.org/2000/svg" xmlns:xlink="http://www.w3.org/1999/xlink" overflow="hidden"><g><rect x="0" y="0" width="1280" height="720" fill="#FFFFFF"/><path d="M258 360C279.69 358.66 292.576 357.735 311.903 360 331.231 362.265 343.5 360.047 364.237 360 384.973 359.953 404.824 357.596 415 360 413.326 372.172 413.805 389.976 415 414.06 416.195 438.144 417.238 446.63 415 460.47 412.762 474.31 414.854 489.903 415 513 402.427 515.169 379.061 511.122 361.097 513 343.132 514.878 330.5 513.462 310.333 513 290.167 512.538 271.678 512.058 258 513 260.183 500.559 257.278 479.034 258 466.59 258.722 454.146 255.716 428.1 258 414.06 260.284 400.019 256.536 374.528 258 360Z" stroke="#000000" stroke-width="2" stroke-miterlimit="8" fill="none" fill-rule="evenodd"/><path d="M482 360C503.69 358.66 516.576 357.735 535.903 360 555.231 362.265 567.5 360.047 588.237 360 608.973 359.953 628.824 357.596 639 360 637.326 372.172 637.805 389.976 639 414.06 640.195 438.144 641.238 446.63 639 460.47 636.762 474.31 638.854 489.903 639 513 626.427 515.169 603.061 511.122 585.097 513 567.132 514.878 554.5 513.462 534.333 513 514.167 512.538 495.678 512.058 482 513 484.183 500.559 481.278 479.034 482 466.59 482.722 454.146 479.716 428.1 482 414.06 484.284 400.019 480.536 374.528 482 360Z" stroke="#000000" stroke-width="2" stroke-miterlimit="8" fill="none" fill-rule="evenodd"/><path d="M705 360C726.69 358.66 739.576 357.735 758.903 360 778.231 362.265 790.5 360.047 811.237 360 831.973 359.953 851.824 357.596 862 360 860.326 372.172 860.805 389.976 862 414.06 863.195 438.144 864.238 446.63 862 460.47 859.762 474.31 861.854 489.903 862 513 849.427 515.169 826.061 511.122 808.097 513 790.132 514.878 777.5 513.462 757.333 513 737.167 512.538 718.678 512.058 705 513 707.183 500.559 704.278 479.034 705 466.59 705.722 454.146 702.716 428.1 705 414.06 707.284 400.019 703.536 374.528 705 360Z" stroke="#000000" stroke-width="2" stroke-miterlimit="8" fill="none" fill-rule="evenodd"/><text font-family="Aptos Display,Aptos Display_MSFontService,sans-serif" font-weight="400" font-size="117" transform="translate(526.033 473)">A</text><text font-family="Aptos Display,Aptos Display_MSFontService,sans-serif" font-weight="400" font-size="117" transform="translate(302.775 473)">B</text><text font-family="Aptos Display,Aptos Display_MSFontService,sans-serif" font-weight="400" font-size="117" transform="translate(744.624 474)">C</text></g></svg>