<svg width="1280" height="720" xmlns="http://www.w3.org/2000/svg" xmlns:xlink="http://www.w3.org/1999/xlink" overflow="hidden"><g><rect x="0" y="0" width="1280" height="720" fill="#FFFFFF"/><path d="M334 121.5C332.099 104.267 344.152 92.2427 364 94 379.086 91.0283 391.79 105.906 394 121.5 394.287 137.042 379.169 147.357 364 149 350.048 150.7 334.152 136.081 334 121.5Z" fill="#B4E5A2" fill-rule="evenodd"/><path d="M334 121.5C332.347 108.755 348.396 93.5966 364 94 381.767 94.8484 394.859 107.962 394 121.5 393.859 138.307 380.346 148.29 364 149 347.322 150.579 337.608 137.151 334 121.5Z" stroke="#000000" stroke-width="2" stroke-miterlimit="8" fill="none" fill-rule="evenodd"/><path d="M414 121.5C411.909 104.08 423.598 92.4376 442 94 455.97 91.0283 467.773 105.906 470 121.5 471.97 139.1 456.785 148.209 442 149 429.172 150.7 414.154 136.081 414 121.5Z" fill="#B4E5A2" fill-rule="evenodd"/><path d="M414 121.5C413.734 106.702 428.131 93.338 442 94 458.671 94.8484 470.865 107.962 470 121.5 469.793 139.06 456.337 145.428 442 149 426.425 150.579 417.636 137.151 414 121.5Z" stroke="#000000" stroke-width="2" stroke-miterlimit="8" fill="none" fill-rule="evenodd"/><path d="M504 123.5C502.099 106.267 514.152 94.2427 534 96 549.086 93.0283 561.79 107.906 564 123.5 564.287 139.042 549.169 149.357 534 151 520.047 152.7 504.152 138.081 504 123.5Z" fill="#B4E5A2" fill-rule="evenodd"/><path d="M504 123.5C502.347 110.755 518.396 95.5966 534 96 551.767 96.8484 564.859 109.962 564 123.5 563.859 140.307 550.346 150.29 534 151 517.322 152.579 507.608 139.151 504 123.5Z" stroke="#000000" stroke-width="2" stroke-miterlimit="8" fill="none" fill-rule="evenodd"/><path d="M602 123.5C600.56 106.757 611.143 94.4164 629 96 642.434 93.0283 653.798 107.906 656 123.5 658.076 141.258 643.513 150.53 629 151 616.695 152.7 602.152 138.081 602 123.5Z" fill="#71AAE0" fill-rule="evenodd"/><path d="M602 123.5C601.75 108.683 614.805 95.6992 629 96 645.105 96.8484 656.856 109.962 656 123.5 655.773 141.309 642.919 147.818 629 151 613.979 152.579 605.595 139.151 602 123.5Z" stroke="#000000" stroke-width="2" stroke-miterlimit="8" fill="none" fill-rule="evenodd"/><path d="M676 121.5C675.397 105.66 686.163 92.9638 703 94 716.435 91.0283 727.8 105.906 730 121.5 731.744 138.849 715.834 146.551 703 149 690.693 150.7 676.152 136.081 676 121.5Z" fill="#71AAE0" fill-rule="evenodd"/><path d="M676 121.5C675.715 106.735 688.896 93.6606 703 94 719.105 94.8484 730.855 107.962 730 121.5 729.898 137.867 717.784 148.59 703 149 687.979 150.579 679.592 137.151 676 121.5Z" stroke="#000000" stroke-width="2" stroke-miterlimit="8" fill="none" fill-rule="evenodd"/><path d="M334 292.5C332.099 275.267 344.152 263.243 364 265 379.086 262.028 391.79 276.906 394 292.5 394.287 308.042 379.169 318.357 364 320 350.048 321.7 334.152 307.081 334 292.5Z" fill="#B4E5A2" fill-rule="evenodd"/><path d="M334 292.5C332.347 279.755 348.396 264.597 364 265 381.767 265.848 394.859 278.962 394 292.5 393.859 309.307 380.346 319.29 364 320 347.322 321.579 337.608 308.151 334 292.5Z" stroke="#000000" stroke-width="2" stroke-miterlimit="8" fill="none" fill-rule="evenodd"/><path d="M416 292.5C413.909 275.08 425.598 263.438 444 265 457.97 262.028 469.773 276.906 472 292.5 473.97 310.1 458.785 319.209 444 320 431.172 321.7 416.154 307.081 416 292.5Z" fill="#B4E5A2" fill-rule="evenodd"/><path d="M416 292.5C415.734 277.702 430.131 264.338 444 265 460.671 265.848 472.865 278.962 472 292.5 471.793 310.06 458.337 316.427 444 320 428.425 321.579 419.636 308.151 416 292.5Z" stroke="#000000" stroke-width="2" stroke-miterlimit="8" fill="none" fill-rule="evenodd"/><path d="M504 294.5C502.099 277.267 514.152 265.243 534 267 549.086 264.028 561.79 278.906 564 294.5 564.287 310.042 549.169 320.357 534 322 520.047 323.7 504.152 309.081 504 294.5Z" fill="#B4E5A2" fill-rule="evenodd"/><path d="M504 294.5C502.347 281.755 518.396 266.597 534 267 551.767 267.848 564.859 280.962 564 294.5 563.859 311.307 550.346 321.29 534 322 517.322 323.579 507.608 310.151 504 294.5Z" stroke="#000000" stroke-width="2" stroke-miterlimit="8" fill="none" fill-rule="evenodd"/><path d="M599 294.5C597.533 277.757 608.313 265.416 626.5 267 640.183 264.028 651.757 278.906 654 294.5 656.114 312.258 641.281 321.53 626.5 322 613.967 323.7 599.155 309.081 599 294.5Z" fill="#71AAE0" fill-rule="evenodd"/><path d="M599 294.5C598.745 279.683 612.042 266.699 626.5 267 642.904 267.848 654.871 280.962 654 294.5 653.769 312.309 640.677 318.818 626.5 322 611.201 323.579 602.662 310.151 599 294.5Z" stroke="#000000" stroke-width="2" stroke-miterlimit="8" fill="none" fill-rule="evenodd"/><path d="M676 292.5C675.397 276.66 686.163 263.964 703 265 716.435 262.028 727.8 276.906 730 292.5 731.744 309.849 715.834 317.551 703 320 690.693 321.7 676.152 307.081 676 292.5Z" fill="#71AAE0" fill-rule="evenodd"/><path d="M676 292.5C675.715 277.735 688.896 264.661 703 265 719.105 265.848 730.855 278.962 730 292.5 729.898 308.867 717.784 319.59 703 320 687.979 321.579 679.592 308.151 676 292.5Z" stroke="#000000" stroke-width="2" stroke-miterlimit="8" fill="none" fill-rule="evenodd"/><path d="M334 396.5C332.099 379.267 344.152 367.243 364 369 379.086 366.028 391.79 380.906 394 396.5 394.287 412.042 379.169 422.357 364 424 350.048 425.7 334.152 411.081 334 396.5Z" fill="#B4E5A2" fill-rule="evenodd"/><path d="M334 396.5C332.347 383.755 348.396 368.597 364 369 381.767 369.848 394.859 382.962 394 396.5 393.859 413.307 380.346 423.29 364 424 347.322 425.579 337.608 412.151 334 396.5Z" stroke="#000000" stroke-width="2" stroke-miterlimit="8" fill="none" fill-rule="evenodd"/><path d="M594 398.5C591.909 381.08 603.598 369.438 622 371 635.97 368.028 647.773 382.906 650 398.5 651.97 416.1 636.785 425.209 622 426 609.172 427.7 594.154 413.081 594 398.5Z" fill="#B4E5A2" fill-rule="evenodd"/><path d="M594 398.5C593.734 383.702 608.131 370.338 622 371 638.671 371.848 650.865 384.962 650 398.5 649.793 416.06 636.337 422.427 622 426 606.425 427.579 597.636 414.151 594 398.5Z" stroke="#000000" stroke-width="2" stroke-miterlimit="8" fill="none" fill-rule="evenodd"/><path d="M504 398.5C502.099 381.267 514.152 369.243 534 371 549.086 368.028 561.79 382.906 564 398.5 564.287 414.042 549.169 424.357 534 426 520.047 427.7 504.152 413.081 504 398.5Z" fill="#B4E5A2" fill-rule="evenodd"/><path d="M504 398.5C502.347 385.755 518.396 370.597 534 371 551.767 371.848 564.859 384.962 564 398.5 563.859 415.307 550.346 425.29 534 426 517.322 427.579 507.608 414.151 504 398.5Z" stroke="#000000" stroke-width="2" stroke-miterlimit="8" fill="none" fill-rule="evenodd"/><path d="M420 398.5C418.56 381.757 429.143 369.416 447 371 460.434 368.028 471.798 382.906 474 398.5 476.076 416.258 461.513 425.53 447 426 434.695 427.7 420.152 413.081 420 398.5Z" fill="#71AAE0" fill-rule="evenodd"/><path d="M420 398.5C419.75 383.683 432.805 370.699 447 371 463.105 371.848 474.856 384.962 474 398.5 473.773 416.309 460.919 422.818 447 426 431.979 427.579 423.595 414.151 420 398.5Z" stroke="#000000" stroke-width="2" stroke-miterlimit="8" fill="none" fill-rule="evenodd"/><path d="M676 396.5C675.397 380.66 686.163 367.964 703 369 716.435 366.028 727.8 380.906 730 396.5 731.744 413.849 715.834 421.551 703 424 690.693 425.7 676.152 411.081 676 396.5Z" fill="#71AAE0" fill-rule="evenodd"/><path d="M676 396.5C675.715 381.735 688.896 368.661 703 369 719.105 369.848 730.855 382.962 730 396.5 729.898 412.867 717.784 423.59 703 424 687.979 425.579 679.592 412.151 676 396.5Z" stroke="#000000" stroke-width="2" stroke-miterlimit="8" fill="none" fill-rule="evenodd"/><path d="M334 512.5C332.099 495.267 344.152 483.243 364 485 379.086 482.028 391.79 496.906 394 512.5 394.287 528.042 379.169 538.357 364 540 350.048 541.7 334.152 527.081 334 512.5Z" fill="#B4E5A2" fill-rule="evenodd"/><path d="M334 512.5C332.347 499.755 348.396 484.597 364 485 381.767 485.848 394.859 498.962 394 512.5 393.859 529.307 380.346 539.29 364 540 347.322 541.579 337.608 528.151 334 512.5Z" stroke="#000000" stroke-width="2" stroke-miterlimit="8" fill="none" fill-rule="evenodd"/><path d="M414 512.5C411.909 495.08 423.598 483.438 442 485 455.97 482.028 467.773 496.906 470 512.5 471.97 530.1 456.785 539.209 442 540 429.172 541.7 414.154 527.081 414 512.5Z" fill="#B4E5A2" fill-rule="evenodd"/><path d="M414 512.5C413.734 497.702 428.131 484.338 442 485 458.671 485.848 470.865 498.962 470 512.5 469.793 530.06 456.337 536.427 442 540 426.425 541.579 417.636 528.151 414 512.5Z" stroke="#000000" stroke-width="2" stroke-miterlimit="8" fill="none" fill-rule="evenodd"/><path d="M676 514.5C674.099 497.267 686.152 485.243 706 487 721.086 484.028 733.79 498.906 736 514.5 736.287 530.042 721.169 540.357 706 542 692.047 543.7 676.152 529.081 676 514.5Z" fill="#B4E5A2" fill-rule="evenodd"/><path d="M676 514.5C674.347 501.755 690.396 486.597 706 487 723.767 487.848 736.859 500.962 736 514.5 735.859 531.307 722.346 541.29 706 542 689.322 543.579 679.608 530.151 676 514.5Z" stroke="#000000" stroke-width="2" stroke-miterlimit="8" fill="none" fill-rule="evenodd"/><path d="M507 514.5C505.56 497.757 516.143 485.416 534 487 547.434 484.028 558.798 498.906 561 514.5 563.076 532.258 548.513 541.53 534 542 521.695 543.7 507.152 529.081 507 514.5Z" fill="#71AAE0" fill-rule="evenodd"/><path d="M507 514.5C506.75 499.683 519.805 486.699 534 487 550.105 487.848 561.856 500.962 561 514.5 560.773 532.309 547.919 538.818 534 542 518.979 543.579 510.595 530.151 507 514.5Z" stroke="#000000" stroke-width="2" stroke-miterlimit="8" fill="none" fill-rule="evenodd"/><path d="M592 514.5C591.397 498.66 602.163 485.964 619 487 632.435 484.028 643.8 498.906 646 514.5 647.744 531.849 631.834 539.551 619 542 606.693 543.7 592.152 529.081 592 514.5Z" fill="#71AAE0" fill-rule="evenodd"/><path d="M592 514.5C591.715 499.735 604.896 486.661 619 487 635.105 487.848 646.855 500.962 646 514.5 645.898 530.867 633.784 541.59 619 542 603.979 543.579 595.592 530.151 592 514.5Z" stroke="#000000" stroke-width="2" stroke-miterlimit="8" fill="none" fill-rule="evenodd"/></g></svg>