<svg width="1280" height="720" xmlns="http://www.w3.org/2000/svg" xmlns:xlink="http://www.w3.org/1999/xlink" overflow="hidden"><g><rect x="0" y="0" width="1280" height="720" fill="#FFFFFF"/><path d="M111.867 313.785C137.996 299.164 145.063 295.95 166.062 280.62 187.062 265.289 212.933 252.665 224.336 244.958 235.74 237.251 258.54 224.294 278.531 211.793 298.522 199.292 301.2 195.684 324.567 183.62 347.935 171.556 359.69 163.525 382.841 147.958 405.993 132.391 431.573 118.716 449.274 107.304 466.974 95.892 499.464 81.183 519.785 64.1533 511.185 83.3857 498.992 110.072 486.88 132.259 474.767 154.446 468.933 169.803 458.849 190.275 448.764 210.747 440.921 229.309 428.38 253.335 415.839 277.362 407.469 301.119 395.475 321.441 383.481 341.762 380.739 355.8 369.881 374.412 359.023 393.023 339.649 427.925 334.538 447.562 329.427 467.199 318.26 480.873 308.945 500.533 299.629 520.193 286.9 551.218 276.039 568.639 262.041 542.962 260.099 539.184 239.921 512.571 219.743 485.958 219.527 482.529 207.087 461.6 194.646 440.672 186.203 426.706 172.611 408.081 159.019 389.456 155.076 379.468 144.702 364.756 134.328 350.043 124.927 329.151 111.867 313.785Z" stroke="#000000" stroke-width="2" stroke-miterlimit="8" fill="none" fill-rule="evenodd"/><path d="M277.577 568.699C296.084 558.383 317.902 542.015 333.252 534.459 348.602 526.903 361.915 515.803 390.65 499.16 419.384 482.517 434.23 469.273 449.769 462.802 444.812 479.524 435.03 495.469 429.734 513.452 424.438 531.435 411.132 557.598 405.146 575.613 399.16 593.627 390.197 611.982 380.557 637.773 370.918 663.564 366.099 678.262 358.701 693.027 351.656 680.182 342.967 669.902 333.282 654.071 323.598 638.24 315.671 631.539 304.618 610.142 293.566 588.745 285.514 579.915 277.577 568.699Z" fill="#F2F2F2" fill-rule="evenodd"/><path d="M277.577 568.699C302.001 555.814 320.865 537.905 338.418 531.282 355.971 524.659 364.419 512.305 392.371 498.101 420.324 483.898 422.76 477.262 449.769 462.802 445.119 478.755 438.064 497.62 427.002 520.359 415.94 543.097 411.576 561.253 405.146 575.613 398.715 589.973 396.397 603.824 385.111 626.262 373.825 648.7 366.05 674.049 358.701 693.027 350.724 684.864 339.136 663.064 334.094 655.314 329.051 647.564 319.684 631.235 305.43 611.385 291.175 591.535 285.357 580.691 277.577 568.699Z" stroke="#000000" stroke-width="2" stroke-miterlimit="8" fill="none" fill-rule="evenodd"/><path d="M359.446 693.333C365.78 678.74 373.54 661.928 381.044 637.523 388.548 613.117 393.465 603.087 403.542 579.387 413.62 555.687 416.824 541.53 425.14 523.576 433.456 505.623 439.363 478.853 449.438 460.79 468.495 482.682 483.29 497.361 496.149 513.623 509.008 529.885 519.986 545.94 545.662 569.626 571.338 593.312 579.973 605.612 589.57 619.289 563.668 627.334 562.116 627.66 536.641 636.319 511.167 644.979 503.277 648.99 474.508 656.311 445.738 663.632 441.902 665.826 414.676 675.563 387.449 685.3 372.402 687.353 359.446 693.333Z" fill="#D9D9D9" fill-rule="evenodd"/><path d="M359.446 693.333C366.524 673.307 374.503 659.666 381.044 637.523 387.585 615.38 393.515 598.764 405.342 574.736 417.169 550.708 423.741 529.991 427.84 516.6 431.939 503.21 440.73 487.067 449.438 460.79 469.371 488.335 485.102 499.094 496.149 513.623 507.195 528.152 519.545 543.302 541.458 564.871 563.371 586.44 566.881 591.193 589.57 619.289 578.726 622.064 562.721 626.039 538.943 635.579 515.164 645.119 510.077 642.922 486.014 652.609 461.951 662.296 459.773 663.205 433.086 669.639 406.398 676.074 388.192 682.585 359.446 693.333Z" stroke="#000000" stroke-width="2" stroke-miterlimit="8" fill="none" fill-rule="evenodd"/><path d="M362.874 693.333C366.942 675.819 373.471 660.733 377.937 631.688 382.403 602.643 389.462 586.357 394.489 563.946 399.516 541.535 404.151 526.251 409.552 502.3 414.953 478.35 418.099 468.098 421.635 452.849 425.172 437.6 432.909 409.3 438.188 385.106 443.466 360.913 447.737 337.028 457.719 305.171 467.702 273.314 467.093 276.839 471.292 249.622 475.492 222.406 485.893 203.143 489.334 175.783 492.776 148.424 500.89 123.651 511.846 83.6538 526.729 96.1186 555.443 115.513 570.28 132.886 585.117 150.259 607.262 167.568 628.715 182.118 650.167 196.668 662.2 210.28 672.674 219.155 683.149 228.029 712.323 253.365 735.934 272.452 759.545 291.539 759.975 290.048 779.894 309.489 799.812 328.93 816.369 340.374 828.678 350.591 840.988 360.807 861.708 375.772 891.938 403.888 922.167 432.004 931.63 434.991 940.723 444.99 949.815 454.989 972.121 468.102 994.332 490.157 970.417 499.027 958.768 500.054 937.501 508.443 916.234 516.832 899.608 520.582 886.984 524.697 874.361 528.812 829.768 543.439 811.209 549.078 792.651 554.717 785.129 558.767 760.693 565.332 736.257 571.897 721.246 579.947 710.176 581.586 699.106 583.225 680.292 592.425 659.659 597.84 639.027 603.256 609.628 610.412 590.199 620.19 570.771 629.968 550.51 635.218 520.739 642.539 490.967 649.86 476.279 655.256 451.278 664.889 426.277 674.521 391.361 684.883 362.874 693.333Z" stroke="#000000" stroke-width="2" stroke-miterlimit="8" fill="none" fill-rule="evenodd"/><rect x="417" y="28" width="210" height="53" stroke="#FFFFFF" stroke-width="2" stroke-miterlimit="8" fill="#FFFFFF"/><path d="M72.0437 302.904 477.285 44.556 505.546 88.8854 100.304 347.233Z" stroke="#FFFFFF" stroke-width="2" stroke-miterlimit="8" fill="#FFFFFF" fill-rule="evenodd"/><path d="M132.34 324.902 276.474 553.303 255.939 575.649 111.805 347.249Z" stroke="#FFFFFF" stroke-width="2" stroke-miterlimit="8" fill="#FFFFFF" fill-rule="evenodd"/><path d="M224.064 588.634 251.732 518.387 291.461 526.252 263.793 596.499Z" stroke="#FFFFFF" stroke-width="2" stroke-miterlimit="8" fill="#FFFFFF" fill-rule="evenodd"/></g></svg>