<svg width="1280" height="720" xmlns="http://www.w3.org/2000/svg" xmlns:xlink="http://www.w3.org/1999/xlink" overflow="hidden"><g><rect x="0" y="0" width="1280" height="720" fill="#FFFFFF"/><path d="M347 156.5C345.131 139.267 356.983 127.243 376.5 129 391.334 126.028 403.827 140.906 406 156.5 406.282 172.042 391.416 182.357 376.5 184 362.78 185.7 347.15 171.081 347 156.5Z" fill="#B4E5A2" fill-rule="evenodd"/><path d="M347 156.5C345.375 143.755 361.156 128.597 376.5 129 393.971 129.848 406.844 142.962 406 156.5 405.862 173.307 392.574 183.29 376.5 184 360.1 185.579 350.548 172.151 347 156.5Z" stroke="#000000" stroke-width="2" stroke-miterlimit="8" fill="none" fill-rule="evenodd"/><path d="M429 156.5C426.946 139.08 438.426 127.438 456.5 129 470.22 126.028 481.813 140.906 484 156.5 485.935 174.1 471.021 183.209 456.5 184 443.901 185.7 429.151 171.081 429 156.5Z" fill="#B4E5A2" fill-rule="evenodd"/><path d="M429 156.5C428.739 141.702 442.878 128.338 456.5 129 472.874 129.848 484.85 142.962 484 156.5 483.796 174.06 470.581 180.428 456.5 184 441.204 185.579 432.571 172.151 429 156.5Z" stroke="#000000" stroke-width="2" stroke-miterlimit="8" fill="none" fill-rule="evenodd"/><path d="M517 158.5C515.131 141.267 526.983 129.243 546.5 131 561.334 128.028 573.827 142.906 576 158.5 576.282 174.042 561.416 184.357 546.5 186 532.78 187.7 517.15 173.081 517 158.5Z" fill="#B4E5A2" fill-rule="evenodd"/><path d="M517 158.5C515.375 145.755 531.156 130.597 546.5 131 563.971 131.848 576.844 144.962 576 158.5 575.862 175.307 562.574 185.29 546.5 186 530.1 187.579 520.548 174.151 517 158.5Z" stroke="#000000" stroke-width="2" stroke-miterlimit="8" fill="none" fill-rule="evenodd"/><path d="M612 158.5C610.56 141.757 621.143 129.416 639 131 652.434 128.028 663.798 142.906 666 158.5 668.076 176.258 653.513 185.53 639 186 626.695 187.7 612.152 173.081 612 158.5Z" fill="#71AAE0" fill-rule="evenodd"/><path d="M612 158.5C611.75 143.683 624.805 130.699 639 131 655.105 131.848 666.856 144.962 666 158.5 665.773 176.309 652.919 182.818 639 186 623.979 187.579 615.595 174.151 612 158.5Z" stroke="#000000" stroke-width="2" stroke-miterlimit="8" fill="none" fill-rule="evenodd"/><path d="M689 156.5C688.397 140.66 699.163 127.964 716 129 729.435 126.028 740.8 140.906 743 156.5 744.744 173.849 728.834 181.551 716 184 703.693 185.7 689.152 171.081 689 156.5Z" fill="#71AAE0" fill-rule="evenodd"/><path d="M689 156.5C688.715 141.735 701.896 128.661 716 129 732.105 129.848 743.855 142.962 743 156.5 742.898 172.867 730.784 183.59 716 184 700.979 185.579 692.592 172.151 689 156.5Z" stroke="#000000" stroke-width="2" stroke-miterlimit="8" fill="none" fill-rule="evenodd"/><path d="M347 274.5C345.131 257.267 356.983 245.243 376.5 247 391.334 244.028 403.827 258.906 406 274.5 406.282 290.042 391.416 300.357 376.5 302 362.78 303.7 347.15 289.081 347 274.5Z" fill="#D9F2D0" fill-rule="evenodd"/><path d="M347 274.5C345.375 261.755 361.156 246.597 376.5 247 393.971 247.848 406.844 260.962 406 274.5 405.862 291.307 392.574 301.29 376.5 302 360.1 303.579 350.548 290.151 347 274.5Z" stroke="#595959" stroke-width="2" stroke-miterlimit="8" stroke-dasharray="8 6" fill="none" fill-rule="evenodd"/><path d="M429 274.5C426.946 257.08 438.426 245.438 456.5 247 470.22 244.028 481.813 258.906 484 274.5 485.935 292.1 471.021 301.209 456.5 302 443.901 303.7 429.151 289.081 429 274.5Z" fill="#D9F2D0" fill-rule="evenodd"/><path d="M429 274.5C428.739 259.702 442.878 246.338 456.5 247 472.874 247.848 484.85 260.962 484 274.5 483.796 292.06 470.581 298.427 456.5 302 441.204 303.579 432.571 290.151 429 274.5Z" stroke="#595959" stroke-width="2" stroke-miterlimit="8" stroke-dasharray="8 6" fill="none" fill-rule="evenodd"/><path d="M517 276.5C515.131 259.267 526.983 247.243 546.5 249 561.334 246.028 573.827 260.906 576 276.5 576.282 292.042 561.416 302.357 546.5 304 532.78 305.7 517.15 291.081 517 276.5Z" fill="#D9F2D0" fill-rule="evenodd"/><path d="M517 276.5C515.375 263.755 531.156 248.597 546.5 249 563.971 249.848 576.844 262.962 576 276.5 575.862 293.307 562.574 303.29 546.5 304 530.1 305.579 520.548 292.151 517 276.5Z" stroke="#595959" stroke-width="2" stroke-miterlimit="8" stroke-dasharray="8 6" fill="none" fill-rule="evenodd"/><path d="M715 419.5C713.56 402.757 724.143 390.416 742 392 755.434 389.028 766.798 403.906 769 419.5 771.076 437.258 756.513 446.53 742 447 729.695 448.7 715.152 434.081 715 419.5Z" fill="#B8D4F0" fill-rule="evenodd"/><path d="M715 419.5C714.75 404.683 727.805 391.699 742 392 758.105 392.848 769.856 405.962 769 419.5 768.773 437.309 755.919 443.818 742 447 726.979 448.579 718.595 435.151 715 419.5Z" stroke="#595959" stroke-width="2" stroke-miterlimit="8" stroke-dasharray="8 6" fill="none" fill-rule="evenodd"/><path d="M792 417.5C791.397 401.66 802.163 388.964 819 390 832.435 387.028 843.8 401.906 846 417.5 847.744 434.849 831.834 442.551 819 445 806.693 446.7 792.152 432.081 792 417.5Z" fill="#B8D4F0" fill-rule="evenodd"/><path d="M792 417.5C791.715 402.735 804.896 389.661 819 390 835.105 390.848 846.855 403.962 846 417.5 845.898 433.867 833.784 444.59 819 445 803.979 446.579 795.592 433.151 792 417.5Z" stroke="#595959" stroke-width="2" stroke-miterlimit="8" stroke-dasharray="8 6" fill="none" fill-rule="evenodd"/><text fill="#275317" font-family="Aptos,Aptos_MSFontService,sans-serif" font-weight="400" font-size="21" transform="translate(370.752 280)">1</text><text fill="#275317" font-family="Aptos,Aptos_MSFontService,sans-serif" font-weight="400" font-size="21" transform="translate(451.981 283)">2</text><text fill="#275317" font-family="Aptos,Aptos_MSFontService,sans-serif" font-weight="400" font-size="21" transform="translate(539.712 283)">3</text><text fill="#071420" font-family="Aptos,Aptos_MSFontService,sans-serif" font-weight="400" font-size="21" transform="translate(737.972 427)">1</text><text fill="#071420" font-family="Aptos,Aptos_MSFontService,sans-serif" font-weight="400" font-size="21" transform="translate(812.878 427)">2</text><path d="M347 346.5C345.131 329.267 356.983 317.243 376.5 319 391.334 316.028 403.827 330.906 406 346.5 406.282 362.042 391.416 372.357 376.5 374 362.78 375.7 347.15 361.081 347 346.5Z" fill="#D9F2D0" fill-rule="evenodd"/><path d="M347 346.5C345.375 333.755 361.156 318.597 376.5 319 393.971 319.848 406.844 332.962 406 346.5 405.862 363.307 392.574 373.29 376.5 374 360.1 375.579 350.548 362.151 347 346.5Z" stroke="#595959" stroke-width="2" stroke-miterlimit="8" stroke-dasharray="8 6" fill="none" fill-rule="evenodd"/><path d="M429 346.5C426.946 329.08 438.426 317.438 456.5 319 470.22 316.028 481.813 330.906 484 346.5 485.935 364.1 471.021 373.209 456.5 374 443.901 375.7 429.151 361.081 429 346.5Z" fill="#D9F2D0" fill-rule="evenodd"/><path d="M429 346.5C428.739 331.702 442.878 318.338 456.5 319 472.874 319.848 484.85 332.962 484 346.5 483.796 364.06 470.581 370.427 456.5 374 441.204 375.579 432.571 362.151 429 346.5Z" stroke="#595959" stroke-width="2" stroke-miterlimit="8" stroke-dasharray="8 6" fill="none" fill-rule="evenodd"/><path d="M517 348.5C515.131 331.267 526.983 319.243 546.5 321 561.334 318.028 573.827 332.906 576 348.5 576.282 364.042 561.416 374.357 546.5 376 532.78 377.7 517.15 363.081 517 348.5Z" fill="#D9F2D0" fill-rule="evenodd"/><path d="M517 348.5C515.375 335.755 531.156 320.597 546.5 321 563.971 321.848 576.844 334.962 576 348.5 575.862 365.307 562.574 375.29 546.5 376 530.1 377.579 520.548 364.151 517 348.5Z" stroke="#595959" stroke-width="2" stroke-miterlimit="8" stroke-dasharray="8 6" fill="none" fill-rule="evenodd"/><path d="M715 492.5C713.56 475.757 724.143 463.416 742 465 755.434 462.028 766.798 476.906 769 492.5 771.076 510.258 756.513 519.53 742 520 729.695 521.7 715.152 507.081 715 492.5Z" fill="#B8D4F0" fill-rule="evenodd"/><path d="M715 492.5C714.75 477.683 727.805 464.699 742 465 758.105 465.848 769.856 478.962 769 492.5 768.773 510.309 755.919 516.818 742 520 726.979 521.579 718.595 508.151 715 492.5Z" stroke="#595959" stroke-width="2" stroke-miterlimit="8" stroke-dasharray="8 6" fill="none" fill-rule="evenodd"/><path d="M792 490.5C791.397 474.66 802.163 461.964 819 463 832.435 460.028 843.8 474.906 846 490.5 847.744 507.849 831.834 515.551 819 518 806.693 519.7 792.152 505.081 792 490.5Z" fill="#B8D4F0" fill-rule="evenodd"/><path d="M792 490.5C791.715 475.735 804.896 462.661 819 463 835.105 463.848 846.855 476.962 846 490.5 845.898 506.867 833.784 517.59 819 518 803.979 519.579 795.592 506.151 792 490.5Z" stroke="#595959" stroke-width="2" stroke-miterlimit="8" stroke-dasharray="8 6" fill="none" fill-rule="evenodd"/><text fill="#275317" font-family="Aptos,Aptos_MSFontService,sans-serif" font-weight="400" font-size="21" transform="translate(370.752 352)">1</text><text fill="#275317" font-family="Aptos,Aptos_MSFontService,sans-serif" font-weight="400" font-size="21" transform="translate(451.981 356)">3</text><text fill="#275317" font-family="Aptos,Aptos_MSFontService,sans-serif" font-weight="400" font-size="21" transform="translate(539.712 356)">2</text><text fill="#071420" font-family="Aptos,Aptos_MSFontService,sans-serif" font-weight="400" font-size="21" transform="translate(737.972 499)">2</text><text fill="#071420" font-family="Aptos,Aptos_MSFontService,sans-serif" font-weight="400" font-size="21" transform="translate(812.878 499)">1</text><path d="M349 415.5C347.099 398.267 359.152 386.243 379 388 394.086 385.028 406.79 399.906 409 415.5 409.287 431.042 394.169 441.357 379 443 365.048 444.7 349.152 430.081 349 415.5Z" fill="#D9F2D0" fill-rule="evenodd"/><path d="M349 415.5C347.347 402.755 363.396 387.597 379 388 396.767 388.848 409.859 401.962 409 415.5 408.859 432.307 395.346 442.29 379 443 362.322 444.579 352.608 431.151 349 415.5Z" stroke="#595959" stroke-width="2" stroke-miterlimit="8" stroke-dasharray="8 6" fill="none" fill-rule="evenodd"/><path d="M431 415.5C428.909 398.08 440.598 386.438 459 388 472.97 385.028 484.773 399.906 487 415.5 488.97 433.1 473.785 442.209 459 443 446.172 444.7 431.154 430.081 431 415.5Z" fill="#D9F2D0" fill-rule="evenodd"/><path d="M431 415.5C430.734 400.702 445.131 387.338 459 388 475.671 388.848 487.865 401.962 487 415.5 486.793 433.06 473.337 439.427 459 443 443.425 444.579 434.636 431.151 431 415.5Z" stroke="#595959" stroke-width="2" stroke-miterlimit="8" stroke-dasharray="8 6" fill="none" fill-rule="evenodd"/><path d="M519 417.5C517.099 400.267 529.152 388.243 549 390 564.086 387.028 576.79 401.906 579 417.5 579.287 433.042 564.169 443.357 549 445 535.047 446.7 519.152 432.081 519 417.5Z" fill="#D9F2D0" fill-rule="evenodd"/><path d="M519 417.5C517.347 404.755 533.396 389.597 549 390 566.767 390.848 579.859 403.962 579 417.5 578.859 434.307 565.346 444.29 549 445 532.322 446.579 522.608 433.151 519 417.5Z" stroke="#595959" stroke-width="2" stroke-miterlimit="8" stroke-dasharray="8 6" fill="none" fill-rule="evenodd"/><text fill="#275317" font-family="Aptos,Aptos_MSFontService,sans-serif" font-weight="400" font-size="21" transform="translate(373.112 421)">2</text><text fill="#275317" font-family="Aptos,Aptos_MSFontService,sans-serif" font-weight="400" font-size="21" transform="translate(454.341 425)">1</text><text fill="#275317" font-family="Aptos,Aptos_MSFontService,sans-serif" font-weight="400" font-size="21" transform="translate(542.071 425)">3</text><path d="M349 487.5C347.099 470.267 359.152 458.243 379 460 394.086 457.028 406.79 471.906 409 487.5 409.287 503.042 394.169 513.357 379 515 365.048 516.7 349.152 502.081 349 487.5Z" fill="#D9F2D0" fill-rule="evenodd"/><path d="M349 487.5C347.347 474.755 363.396 459.597 379 460 396.767 460.848 409.859 473.962 409 487.5 408.859 504.307 395.346 514.29 379 515 362.322 516.579 352.608 503.151 349 487.5Z" stroke="#595959" stroke-width="2" stroke-miterlimit="8" stroke-dasharray="8 6" fill="none" fill-rule="evenodd"/><path d="M431 487.5C428.909 470.08 440.598 458.438 459 460 472.97 457.028 484.773 471.906 487 487.5 488.97 505.1 473.785 514.209 459 515 446.172 516.7 431.154 502.081 431 487.5Z" fill="#D9F2D0" fill-rule="evenodd"/><path d="M431 487.5C430.734 472.702 445.131 459.338 459 460 475.671 460.848 487.865 473.962 487 487.5 486.793 505.06 473.337 511.427 459 515 443.425 516.579 434.636 503.151 431 487.5Z" stroke="#595959" stroke-width="2" stroke-miterlimit="8" stroke-dasharray="8 6" fill="none" fill-rule="evenodd"/><path d="M519 490.5C517.099 473.267 529.152 461.243 549 463 564.086 460.028 576.79 474.906 579 490.5 579.287 506.042 564.169 516.357 549 518 535.047 519.7 519.152 505.081 519 490.5Z" fill="#D9F2D0" fill-rule="evenodd"/><path d="M519 490.5C517.347 477.755 533.396 462.597 549 463 566.767 463.848 579.859 476.962 579 490.5 578.859 507.307 565.346 517.29 549 518 532.322 519.579 522.608 506.151 519 490.5Z" stroke="#595959" stroke-width="2" stroke-miterlimit="8" stroke-dasharray="8 6" fill="none" fill-rule="evenodd"/><text fill="#275317" font-family="Aptos,Aptos_MSFontService,sans-serif" font-weight="400" font-size="21" transform="translate(373.112 493)">2</text><text fill="#275317" font-family="Aptos,Aptos_MSFontService,sans-serif" font-weight="400" font-size="21" transform="translate(454.341 497)">3</text><text fill="#275317" font-family="Aptos,Aptos_MSFontService,sans-serif" font-weight="400" font-size="21" transform="translate(542.071 497)">1</text><path d="M351 556.5C349.099 539.267 361.152 527.243 381 529 396.086 526.028 408.79 540.906 411 556.5 411.287 572.042 396.169 582.357 381 584 367.048 585.7 351.152 571.081 351 556.5Z" fill="#D9F2D0" fill-rule="evenodd"/><path d="M351 556.5C349.347 543.755 365.396 528.597 381 529 398.767 529.848 411.859 542.962 411 556.5 410.859 573.307 397.346 583.29 381 584 364.322 585.579 354.608 572.151 351 556.5Z" stroke="#595959" stroke-width="2" stroke-miterlimit="8" stroke-dasharray="8 6" fill="none" fill-rule="evenodd"/><path d="M434 556.5C431.946 539.08 443.426 527.438 461.5 529 475.22 526.028 486.813 540.906 489 556.5 490.935 574.1 476.021 583.209 461.5 584 448.901 585.7 434.151 571.081 434 556.5Z" fill="#D9F2D0" fill-rule="evenodd"/><path d="M434 556.5C433.739 541.702 447.878 528.338 461.5 529 477.874 529.848 489.85 542.962 489 556.5 488.796 574.06 475.581 580.427 461.5 584 446.204 585.579 437.571 572.151 434 556.5Z" stroke="#595959" stroke-width="2" stroke-miterlimit="8" stroke-dasharray="8 6" fill="none" fill-rule="evenodd"/><path d="M521 559.5C519.099 542.267 531.152 530.243 551 532 566.086 529.028 578.79 543.906 581 559.5 581.287 575.042 566.169 585.357 551 587 537.047 588.7 521.152 574.081 521 559.5Z" fill="#D9F2D0" fill-rule="evenodd"/><path d="M521 559.5C519.347 546.755 535.396 531.597 551 532 568.767 532.848 581.859 545.962 581 559.5 580.859 576.307 567.346 586.29 551 587 534.322 588.579 524.608 575.151 521 559.5Z" stroke="#595959" stroke-width="2" stroke-miterlimit="8" stroke-dasharray="8 6" fill="none" fill-rule="evenodd"/><text fill="#275317" font-family="Aptos,Aptos_MSFontService,sans-serif" font-weight="400" font-size="21" transform="translate(375.331 562)">3</text><text fill="#275317" font-family="Aptos,Aptos_MSFontService,sans-serif" font-weight="400" font-size="21" transform="translate(456.56 566)">1</text><text fill="#275317" font-family="Aptos,Aptos_MSFontService,sans-serif" font-weight="400" font-size="21" transform="translate(544.29 566)">2</text><path d="M351 629.5C349.099 612.267 361.152 600.243 381 602 396.086 599.028 408.79 613.906 411 629.5 411.287 645.042 396.169 655.357 381 657 367.048 658.7 351.152 644.081 351 629.5Z" fill="#D9F2D0" fill-rule="evenodd"/><path d="M351 629.5C349.347 616.755 365.396 601.597 381 602 398.767 602.848 411.859 615.962 411 629.5 410.859 646.307 397.346 656.29 381 657 364.322 658.579 354.608 645.151 351 629.5Z" stroke="#595959" stroke-width="2" stroke-miterlimit="8" stroke-dasharray="8 6" fill="none" fill-rule="evenodd"/><path d="M434 629.5C431.946 612.08 443.426 600.438 461.5 602 475.22 599.028 486.813 613.906 489 629.5 490.935 647.1 476.021 656.209 461.5 657 448.901 658.7 434.151 644.081 434 629.5Z" fill="#D9F2D0" fill-rule="evenodd"/><path d="M434 629.5C433.739 614.702 447.878 601.338 461.5 602 477.874 602.848 489.85 615.962 489 629.5 488.796 647.06 475.581 653.427 461.5 657 446.204 658.579 437.571 645.151 434 629.5Z" stroke="#595959" stroke-width="2" stroke-miterlimit="8" stroke-dasharray="8 6" fill="none" fill-rule="evenodd"/><path d="M521 631.5C519.099 614.267 531.152 602.243 551 604 566.086 601.028 578.79 615.906 581 631.5 581.287 647.042 566.169 657.357 551 659 537.047 660.7 521.152 646.081 521 631.5Z" fill="#D9F2D0" fill-rule="evenodd"/><path d="M521 631.5C519.347 618.755 535.396 603.597 551 604 568.767 604.848 581.859 617.962 581 631.5 580.859 648.307 567.346 658.29 551 659 534.322 660.579 524.608 647.151 521 631.5Z" stroke="#595959" stroke-width="2" stroke-miterlimit="8" stroke-dasharray="8 6" fill="none" fill-rule="evenodd"/><text fill="#275317" font-family="Aptos,Aptos_MSFontService,sans-serif" font-weight="400" font-size="21" transform="translate(375.331 635)">3</text><text fill="#275317" font-family="Aptos,Aptos_MSFontService,sans-serif" font-weight="400" font-size="21" transform="translate(456.56 639)">2</text><text fill="#275317" font-family="Aptos,Aptos_MSFontService,sans-serif" font-weight="400" font-size="21" transform="translate(544.29 639)">1</text><path d="M576.5 276.5 715.001 420.073" stroke="#595959" stroke-width="1.33333" stroke-miterlimit="8" fill="none" fill-rule="evenodd"/><path d="M576.5 276.5 715.001 492.515" stroke="#595959" stroke-width="1.33333" stroke-miterlimit="8" fill="none" fill-rule="evenodd"/><path d="M576.5 349.5 715.001 420.63" stroke="#595959" stroke-width="1.33333" stroke-miterlimit="8" fill="none" fill-rule="evenodd"/><path d="M579.5 418.5 715.641 420.643" stroke="#595959" stroke-width="1.33333" stroke-miterlimit="8" fill="none" fill-rule="evenodd"/><path d="M0 0 136.141 70.2998" stroke="#595959" stroke-width="1.33333" stroke-miterlimit="8" fill="none" fill-rule="evenodd" transform="matrix(1 0 0 -1 579.5 490.8)"/><path d="M0 0 133.922 139.287" stroke="#595959" stroke-width="1.33333" stroke-miterlimit="8" fill="none" fill-rule="evenodd" transform="matrix(1 0 0 -1 581.5 559.787)"/><path d="M0 0 133.922 211.73" stroke="#595959" stroke-width="1.33333" stroke-miterlimit="8" fill="none" fill-rule="evenodd" transform="matrix(1 0 0 -1 581.5 632.23)"/><path d="M576.5 349.5 715.001 493.073" stroke="#595959" stroke-width="1.33333" stroke-miterlimit="8" fill="none" fill-rule="evenodd"/><path d="M579.5 418.5 715.641 493.085" stroke="#595959" stroke-width="1.33333" stroke-miterlimit="8" fill="none" fill-rule="evenodd"/><path d="M579.5 490.5 715.641 492.643" stroke="#595959" stroke-width="1.33333" stroke-miterlimit="8" fill="none" fill-rule="evenodd"/><path d="M0 0 133.922 66.8449" stroke="#595959" stroke-width="1.33333" stroke-miterlimit="8" fill="none" fill-rule="evenodd" transform="matrix(1 0 0 -1 581.5 559.345)"/><path d="M0 0 133.922 139.287" stroke="#595959" stroke-width="1.33333" stroke-miterlimit="8" fill="none" fill-rule="evenodd" transform="matrix(1 0 0 -1 581.5 631.787)"/></g></svg>