<svg width="1280" height="720" xmlns="http://www.w3.org/2000/svg" xmlns:xlink="http://www.w3.org/1999/xlink" overflow="hidden"><g><rect x="0" y="0" width="1280" height="720" fill="#FFFFFF"/><path d="M112.977 396.066C124.223 384.189 149.714 357.759 162.041 345.361 174.367 332.963 201.614 309.038 212.534 293.179 223.454 277.32 243.413 261.764 255.882 248.382 257.645 249.987 258.126 250.48 259.331 251.719 240.028 271.868 234.267 277.21 213.125 299.471 191.983 321.731 178.248 335.552 165.49 348.699 152.732 361.845 124.753 387.714 116.426 399.404 115.566 398.418 113.944 396.763 112.977 396.066Z" fill="#BFBFBF" fill-rule="evenodd"/><path d="M112.977 396.066C138.628 372.648 146.543 356.712 162.041 345.361 177.539 334.01 193.251 316.947 212.534 293.179 231.817 269.411 238.484 263.59 255.882 248.382 256.627 249.26 258.284 250.88 259.331 251.719 246.089 267.52 218.306 291.092 208.838 303.901 199.37 316.71 179.918 338.924 158.345 356.083 136.772 373.241 136.189 378.686 116.426 399.404 115.695 398.479 113.557 396.903 112.977 396.066Z" stroke="#000000" stroke-width="2" stroke-miterlimit="8" fill="none" fill-rule="evenodd"/><path d="M112 396C137.907 398.617 150.623 398.692 167.963 396 185.303 393.308 206.744 394.086 225.557 396 244.369 397.914 254.7 393.582 275 396 275.073 398.483 275.052 399.2 275 401 249.011 401.693 246.063 403.379 222.297 401 198.531 398.621 187.391 402.365 167.963 401 148.535 399.635 134.546 399.886 112 401 112.109 399.642 112.171 397.229 112 396Z" fill="#BFBFBF" fill-rule="evenodd"/><path d="M112 396C130.774 395.752 147.854 393.235 167.963 396 188.073 398.765 206.116 397.094 225.557 396 244.997 394.906 263.266 395.02 275 396 274.887 397.195 274.875 399.608 275 401 258.882 403.181 233.994 402.074 217.407 401 200.819 399.926 171.756 400.273 159.813 401 147.87 401.727 124.656 400.014 112 401 112.155 399.783 111.802 397.041 112 396Z" stroke="#000000" stroke-width="2" stroke-miterlimit="8" fill="none" fill-rule="evenodd"/><path d="M0 0C22.502 1.00241 33.5933-0.48252 67.1658 0 100.738 0.48252 117.471-1.00882 136.288 0 155.105 1.00882 175.634-1.44094 195.629 0 195.734 1.77197 195.664 3.31496 195.629 5.51171 175.109 6.70688 149.66 6.36409 132.375 5.51171 115.09 4.65932 89.2444 3.77596 67.1658 5.51171 45.0871 7.24745 23.021 8.7558 0 5.51171 0.184462 3.4821-0.0828346 1.10803 0 0Z" fill="#BFBFBF" fill-rule="evenodd" transform="matrix(0.736575 0.676355 0.676355 -0.736575 111.508 401.936)"/><path d="M0 0C16.1317-1.91601 43.1809 0.957165 67.1658 0 91.1507-0.957165 109.019-2.23811 136.288 0 163.557 2.23811 175.292 1.72735 195.629 0 195.442 2.17333 195.354 4.38163 195.629 5.51171 175.052 4.14205 160.127 8.43916 126.506 5.51171 92.8863 2.58425 85.8234 2.79843 57.3844 5.51171 28.9453 8.22499 20.2139 5.23612 0 5.51171-0.137428 3.82142-0.147192 1.53207 0 0Z" stroke="#000000" stroke-width="2" stroke-miterlimit="8" fill="none" fill-rule="evenodd" transform="matrix(0.736575 0.676355 0.676355 -0.736575 111.508 401.936)"/><path d="M0 0C25.2852 2.76021 33.9474 1.43948 59.0805 0 84.2137-1.43948 90.1383 2.41081 119.882 0 149.625-2.41081 156.181-0.993701 172.079 0 172.152 2.38373 172.131 3.07202 172.079 4.7999 156.217 2.23927 143.977 6.92409 116.44 4.7999 88.903 2.6757 82.63 7.31244 59.0805 4.7999 35.531 2.28735 20.6002 7.07213 0 4.7999 0.109711 3.49638 0.171339 1.17942 0 0Z" fill="#BFBFBF" fill-rule="evenodd" transform="matrix(0.673392 -0.739285 -0.739285 -0.673392 300.46 217.436)"/><path d="M0 0C21.548-0.154751 42.1315 1.37512 59.0805 0 76.0295-1.37512 102.679-2.55118 119.882 0 137.084 2.55118 155.829 1.52714 172.079 0 171.966 1.14677 171.954 3.46404 172.079 4.7999 142.206 3.73953 135.545 6.76619 111.278 4.7999 87.0106 2.8336 67.4567 2.2443 50.4765 4.7999 33.4964 7.35549 10.2581 4.12063 0 4.7999 0.155591 3.6315-0.19874 0.99916 0 0Z" stroke="#000000" stroke-width="2" stroke-miterlimit="8" fill="none" fill-rule="evenodd" transform="matrix(0.673392 -0.739285 -0.739285 -0.673392 300.46 217.436)"/><path d="M0 0C14.2923 1.84315 31.2253 1.02362 54.9145 0 78.6038-1.02362 83.2786-1.31801 107.675 0 107.877 1.54478 107.758 3.17239 107.675 4.79989 86.0724 7.25533 68.4773 6.88682 52.7609 4.79989 37.0446 2.71297 15.9416 5.76178 0 4.79989-0.0389501 3.15989 0.134383 1.20094 0 0Z" fill="#BFBFBF" fill-rule="evenodd" transform="matrix(0.97532 -0.220796 -0.220796 -0.97532 318.741 215.739)"/><path d="M0 0C15.9612 0.452913 31.8374 2.37365 50.6075 0 69.3775-2.37365 87.8001-2.01459 107.675 0 107.546 1.14037 107.599 3.5537 107.675 4.79989 92.4124 5.70709 65.6183 4.28619 51.6842 4.79989 37.7501 5.3136 20.3896 2.89942 0 4.79989 0.230446 3.50184 0.024042 2.13165 0 0Z" stroke="#000000" stroke-width="2" stroke-miterlimit="8" fill="none" fill-rule="evenodd" transform="matrix(0.97532 -0.220796 -0.220796 -0.97532 318.741 215.739)"/><path d="M305.084 564.653C333.996 567.639 354.331 570.575 375.643 575.156 396.954 579.737 417.022 578.214 443.434 585.248 443.406 586.805 443.049 588.398 442.728 589.995 418.689 588.014 394.684 583.196 372.169 579.492 349.654 575.788 333.014 576.27 304.377 569.401 304.58 567.773 305.04 565.861 305.084 564.653Z" fill="#BFBFBF" fill-rule="evenodd"/><path d="M305.084 564.653C317.889 568.076 350.16 573.963 370.108 574.332 390.057 574.702 409.997 576.583 443.434 585.248 443.139 586.357 442.836 588.751 442.728 589.995 409.324 585.967 399.613 580.004 370.785 579.286 341.957 578.568 319.031 573.333 304.377 569.401 304.796 568.151 304.794 566.765 305.084 564.653Z" stroke="#000000" stroke-width="2" stroke-miterlimit="8" fill="none" fill-rule="evenodd"/><path d="M301.668 567.53C317.094 583.435 323.873 586.039 340.458 602.287 357.043 618.535 370.511 629.705 380.378 638.057 390.246 646.408 405.272 662.116 414.649 668.764 413.113 670.588 412.638 671.087 411.446 672.339 394.599 660.43 390.546 652.318 374.915 639.607 359.285 626.895 355.056 623.803 337.255 605.862 319.453 587.92 312.544 580.278 298.465 571.104 299.416 570.207 301.008 568.522 301.668 567.53Z" fill="#BFBFBF" fill-rule="evenodd"/><path d="M301.668 567.53C316.014 578.709 323.158 588.182 340.458 602.287 357.758 616.391 366.396 628.821 380.378 638.057 394.36 647.292 405.857 662.273 414.649 668.764 413.8 669.543 412.245 671.261 411.446 672.339 397.704 657.197 382.845 644.991 371.526 636.57 360.207 628.148 347.868 612.154 331.606 600.8 315.343 589.446 310.482 583.781 298.465 571.104 299.36 570.338 300.853 568.141 301.668 567.53Z" stroke="#000000" stroke-width="2" stroke-miterlimit="8" fill="none" fill-rule="evenodd"/><path d="M333.514 397.63C363.648 386.678 372.52 384.853 393.759 374.789 414.999 364.725 427.549 361.976 451.641 352.844 452.377 354.217 452.843 355.781 453.343 357.332 437.607 363.503 407.286 376.528 393.098 380.173 378.91 383.818 347.002 396.875 335.216 402.118 334.598 400.598 334.066 398.705 333.514 397.63Z" fill="#BFBFBF" fill-rule="evenodd"/><path d="M333.514 397.63C354.866 386.564 371.294 382.901 389.034 376.58 406.774 370.26 427.277 361.781 451.641 352.844 451.925 353.956 452.83 356.194 453.343 357.332 435.518 364.309 416.121 372.444 391.917 380.621 367.713 388.797 352.18 393.477 335.216 402.118 334.971 400.823 334.292 399.615 333.514 397.63Z" stroke="#000000" stroke-width="2" stroke-miterlimit="8" fill="none" fill-rule="evenodd"/><path d="M0 0C26.2258-0.0956431 35.8998-2.31465 53.4007 0 70.9016 2.31465 82.0891 2.07244 108.357 0 134.625-2.07244 139.838-2.25638 155.536 0 155.609 2.38373 155.588 3.07202 155.536 4.7999 144.336 6.04798 123.442 4.13722 105.246 4.7999 87.0505 5.46257 74.163 3.02037 53.4007 4.7999 32.6384 6.57942 12.5796 2.95402 0 4.7999 0.109711 3.49638 0.171339 1.17942 0 0Z" fill="#BFBFBF" fill-rule="evenodd" transform="matrix(0.880761 0.473561 0.473561 -0.880761 335.787 400.229)"/><path d="M0 0C23.8159 0.903622 32.6538-0.252388 53.4007 0 74.1477 0.252388 83.6647 1.79129 108.357 0 133.049-1.79129 140.861-1.32011 155.536 0 155.423 1.14677 155.411 3.46404 155.536 4.7999 134.071 2.99139 127.203 4.43717 100.58 4.7999 73.9566 5.16262 63.4396 7.27412 45.6239 4.7999 27.8083 2.32567 22.5886 2.63517 0 4.7999 0.155591 3.6315-0.19874 0.99916 0 0Z" stroke="#000000" stroke-width="2" stroke-miterlimit="8" fill="none" fill-rule="evenodd" transform="matrix(0.880761 0.473561 0.473561 -0.880761 335.787 400.229)"/><path d="M467 79C483.798 75.5689 506.45 79.442 535.323 79 564.197 78.558 587.187 79.3749 605.637 79 624.086 78.6251 649.08 80.295 666 79 666.073 81.4831 666.052 82.2001 666 84 636.5 81.6979 626.58 84.5015 601.657 84 576.734 83.4985 561.022 81.3087 535.323 84 509.624 86.6913 489.758 82.9264 467 84 467.11 82.6421 467.172 80.2286 467 79Z" fill="#BFBFBF" fill-rule="evenodd"/><path d="M467 79C489.743 79.3653 518.41 76.3922 535.323 79 552.237 81.6078 586.335 81.6935 605.637 79 624.939 76.3065 641.593 76.9396 666 79 665.886 80.1946 665.875 82.6085 666 84 642.142 81.6169 612.503 83.6542 595.687 84 578.87 84.3458 542.852 86.0783 525.373 84 507.895 81.9217 479.008 84.652 467 84 467.156 82.7829 466.801 80.0408 467 79Z" stroke="#000000" stroke-width="2" stroke-miterlimit="8" fill="none" fill-rule="evenodd"/><path d="M476 186C501.907 188.617 514.623 188.692 531.963 186 549.303 183.308 570.744 184.086 589.557 186 608.369 187.914 618.7 183.582 639 186 639.073 188.483 639.052 189.2 639 191 613.011 191.693 610.063 193.379 586.297 191 562.531 188.621 551.391 192.365 531.963 191 512.535 189.635 498.546 189.886 476 191 476.109 189.642 476.171 187.229 476 186Z" fill="#BFBFBF" fill-rule="evenodd"/><path d="M476 186C494.774 185.752 511.854 183.235 531.963 186 552.073 188.765 570.116 187.094 589.557 186 608.997 184.906 627.266 185.02 639 186 638.887 187.195 638.875 189.608 639 191 622.882 193.181 597.994 192.074 581.407 191 564.819 189.926 535.756 190.273 523.813 191 511.87 191.727 488.656 190.014 476 191 476.155 189.783 475.802 187.041 476 186Z" stroke="#000000" stroke-width="2" stroke-miterlimit="8" fill="none" fill-rule="evenodd"/><path d="M476 343C501.005 342.467 520.075 344.753 531.62 343 543.166 341.247 560.966 341.746 588.86 343 616.754 344.254 616.198 342.112 638 343 638.073 345.483 638.052 346.2 638 348 626.06 349.023 604.891 345.432 585.62 348 566.349 350.568 550.86 345.326 531.62 348 512.38 350.674 493.417 348.526 476 348 476.109 346.642 476.171 344.229 476 343Z" fill="#BFBFBF" fill-rule="evenodd"/><path d="M476 343C501.15 344.3 504.236 340.252 531.62 343 559.004 345.748 569.762 342.453 588.86 343 607.958 343.547 615.41 342.879 638 343 637.887 344.195 637.876 346.608 638 348 617.866 347.372 597.021 349.924 580.76 348 564.499 346.076 542.838 347.661 523.52 348 504.202 348.339 488.353 349.844 476 348 476.155 346.783 475.802 344.041 476 343Z" stroke="#000000" stroke-width="2" stroke-miterlimit="8" fill="none" fill-rule="evenodd"/><path d="M474 446C499.907 448.617 512.623 448.692 529.963 446 547.303 443.308 568.744 444.086 587.557 446 606.369 447.914 616.7 443.582 637 446 637.073 448.483 637.052 449.2 637 451 611.011 451.693 608.063 453.379 584.297 451 560.531 448.621 549.391 452.365 529.963 451 510.535 449.635 496.546 449.886 474 451 474.109 449.642 474.171 447.229 474 446Z" fill="#BFBFBF" fill-rule="evenodd"/><path d="M474 446C492.774 445.752 509.854 443.235 529.963 446 550.073 448.765 568.116 447.094 587.557 446 606.997 444.906 625.266 445.02 637 446 636.887 447.195 636.875 449.608 637 451 620.882 453.181 595.994 452.074 579.407 451 562.819 449.926 533.756 450.273 521.813 451 509.87 451.727 486.656 450.014 474 451 474.155 449.783 473.802 447.041 474 446Z" stroke="#000000" stroke-width="2" stroke-miterlimit="8" fill="none" fill-rule="evenodd"/><path d="M0 0C12.4883-2.28833 37.5298 2.2717 56.9934 0 76.457-2.2717 97.4918 1.55498 115.647 0 133.801-1.55498 146.808 1.16862 166 0 166.073 1.98648 166.052 2.56007 166 4 139.29 5.13362 129.025 4.49616 112.327 4 95.6281 3.50384 69.0071 6.23986 56.9934 4 44.9797 1.76014 15.0713 1.74728 0 4 0.109492 2.91371 0.170996 0.982874 0 0Z" fill="#BFBFBF" fill-rule="evenodd" transform="matrix(1 0 0 -1 473 589)"/><path d="M0 0C19.6251-2.18815 28.5764 0.623286 56.9934 0 85.4104-0.623286 98.5076-0.551368 115.647 0 132.786 0.551368 152.233-1.03161 166 0 165.887 0.955664 165.875 2.88676 166 4 149.047 1.92296 123.927 5.47746 107.347 4 90.7664 2.52254 73.2764 2.76953 48.6933 4 24.1102 5.23047 21.2253 4.99958 0 4 0.155279 3.02631-0.198342 0.832652 0 0Z" stroke="#000000" stroke-width="2" stroke-miterlimit="8" fill="none" fill-rule="evenodd" transform="matrix(1 0 0 -1 473 589)"/><path d="M473.5 675.5C499.407 678.117 512.123 678.192 529.463 675.5 546.803 672.809 568.244 673.586 587.057 675.5 605.869 677.414 616.2 673.082 636.5 675.5 636.573 677.983 636.552 678.7 636.5 680.5 610.511 681.193 607.563 682.879 583.797 680.5 560.031 678.121 548.891 681.865 529.463 680.5 510.035 679.136 496.046 679.386 473.5 680.5 473.609 679.142 473.671 676.729 473.5 675.5Z" fill="#BFBFBF" fill-rule="evenodd"/><path d="M473.5 675.5C492.275 675.252 509.354 672.735 529.463 675.5 549.573 678.265 567.616 676.594 587.057 675.5 606.497 674.407 624.766 674.52 636.5 675.5 636.387 676.695 636.376 679.109 636.5 680.5 620.382 682.681 595.494 681.574 578.907 680.5 562.319 679.426 533.257 679.773 521.313 680.5 509.37 681.227 486.156 679.514 473.5 680.5 473.655 679.283 473.302 676.541 473.5 675.5Z" stroke="#000000" stroke-width="1.33333" stroke-miterlimit="8" fill="none" fill-rule="evenodd"/><path d="M263.5 366.5C291.716 367.718 306.447 364.418 323.5 366.5 321.202 392.512 321.294 413.445 323.5 427.5 310.029 428.08 289.993 425.297 263.5 427.5 262.767 407.319 261.837 388.285 263.5 366.5Z" fill="#FFFFFF" fill-rule="evenodd"/><path d="M263.5 366.5C286.983 366.023 308.857 365.787 323.5 366.5 321.509 391.255 322.254 398.66 323.5 427.5 296.795 429.643 293.371 428.046 263.5 427.5 262.293 411.851 262.984 396.466 263.5 366.5Z" stroke="#000000" stroke-width="1.33333" stroke-miterlimit="8" fill="none" fill-rule="evenodd"/><text font-family="Aptos Display,Aptos Display_MSFontService,sans-serif" font-weight="400" font-size="43" transform="translate(280.581 410)">B</text><path d="M260.5 201.5C288.716 202.718 303.447 199.418 320.5 201.5 318.202 227.512 318.294 248.445 320.5 262.5 307.029 263.08 286.993 260.297 260.5 262.5 259.767 242.319 258.837 223.285 260.5 201.5Z" fill="#FFFFFF" fill-rule="evenodd"/><path d="M260.5 201.5C283.983 201.023 305.857 200.787 320.5 201.5 318.509 226.255 319.254 233.66 320.5 262.5 293.795 264.643 290.371 263.046 260.5 262.5 259.293 246.851 259.984 231.466 260.5 201.5Z" stroke="#000000" stroke-width="1.33333" stroke-miterlimit="8" fill="none" fill-rule="evenodd"/><text font-family="Aptos Display,Aptos Display_MSFontService,sans-serif" font-weight="400" font-size="43" transform="translate(277.906 245)">A</text><path d="M259.5 525.5C287.716 526.718 302.447 523.418 319.5 525.5 317.202 551.512 317.294 572.445 319.5 586.5 306.029 587.08 285.993 584.297 259.5 586.5 258.767 566.319 257.837 547.285 259.5 525.5Z" fill="#FFFFFF" fill-rule="evenodd"/><path d="M259.5 525.5C282.983 525.023 304.857 524.787 319.5 525.5 317.509 550.255 318.254 557.66 319.5 586.5 292.795 588.643 289.371 587.046 259.5 586.5 258.293 570.851 258.984 555.466 259.5 525.5Z" stroke="#000000" stroke-width="1.33333" stroke-miterlimit="8" fill="none" fill-rule="evenodd"/><text font-family="Aptos Display,Aptos Display_MSFontService,sans-serif" font-weight="400" font-size="43" transform="translate(275.028 569)">C</text><path d="M415.5 316.5C443.245 317.718 457.731 314.418 474.5 316.5 472.24 342.512 472.331 363.445 474.5 377.5 461.253 378.08 441.551 375.297 415.5 377.5 414.779 357.319 413.865 338.285 415.5 316.5Z" fill="#FFFFFF" fill-rule="evenodd"/><path d="M415.5 316.5C438.591 316.023 460.101 315.787 474.5 316.5 472.542 341.255 473.274 348.66 474.5 377.5 448.24 379.643 444.873 378.046 415.5 377.5 414.313 361.851 414.992 346.466 415.5 316.5Z" stroke="#000000" stroke-width="1.33333" stroke-miterlimit="8" fill="none" fill-rule="evenodd"/><text font-family="Aptos Display,Aptos Display_MSFontService,sans-serif" font-weight="400" font-size="43" transform="translate(432.064 360)">A</text><path d="M642.5 417.5C670.716 418.718 685.447 415.418 702.5 417.5 700.202 443.512 700.294 464.445 702.5 478.5 689.029 479.08 668.993 476.297 642.5 478.5 641.767 458.319 640.837 439.285 642.5 417.5Z" fill="#FFFFFF" fill-rule="evenodd"/><path d="M642.5 417.5C665.983 417.023 687.857 416.787 702.5 417.5 700.509 442.255 701.254 449.66 702.5 478.5 675.795 480.643 672.371 479.046 642.5 478.5 641.293 462.851 641.984 447.466 642.5 417.5Z" stroke="#000000" stroke-width="1.33333" stroke-miterlimit="8" fill="none" fill-rule="evenodd"/><text font-family="Aptos Display,Aptos Display_MSFontService,sans-serif" font-weight="400" font-size="43" transform="translate(659.281 461)">A</text><path d="M414.5 561.5C442.716 562.718 457.447 559.418 474.5 561.5 472.202 587.512 472.294 608.445 474.5 622.5 461.029 623.08 440.993 620.297 414.5 622.5 413.767 602.319 412.837 583.285 414.5 561.5Z" fill="#FFFFFF" fill-rule="evenodd"/><path d="M414.5 561.5C437.983 561.023 459.857 560.787 474.5 561.5 472.509 586.255 473.254 593.66 474.5 622.5 447.795 624.643 444.371 623.046 414.5 622.5 413.293 606.851 413.984 591.466 414.5 561.5Z" stroke="#000000" stroke-width="1.33333" stroke-miterlimit="8" fill="none" fill-rule="evenodd"/><text font-family="Aptos Display,Aptos Display_MSFontService,sans-serif" font-weight="400" font-size="43" transform="translate(431.688 605)">A</text><path d="M645.5 646.5C673.245 647.718 687.731 644.418 704.5 646.5 702.24 672.512 702.331 693.445 704.5 707.5 691.253 708.08 671.551 705.297 645.5 707.5 644.779 687.319 643.865 668.285 645.5 646.5Z" fill="#FFFFFF" fill-rule="evenodd"/><path d="M645.5 646.5C668.591 646.023 690.101 645.787 704.5 646.5 702.542 671.255 703.274 678.66 704.5 707.5 678.24 709.643 674.873 708.046 645.5 707.5 644.313 691.851 644.992 676.466 645.5 646.5Z" stroke="#000000" stroke-width="1.33333" stroke-miterlimit="8" fill="none" fill-rule="evenodd"/><text font-family="Aptos Display,Aptos Display_MSFontService,sans-serif" font-weight="400" font-size="43" transform="translate(662.087 690)">A</text><path d="M415.5 57.5001C443.716 58.7178 458.447 55.4183 475.5 57.5001 473.202 83.5121 473.294 104.445 475.5 118.5 462.029 119.08 441.993 116.297 415.5 118.5 414.767 98.3191 413.837 79.2851 415.5 57.5001Z" fill="#FFFFFF" fill-rule="evenodd"/><path d="M415.5 57.5001C438.983 57.0233 460.857 56.7868 475.5 57.5001 473.509 82.2547 474.254 89.66 475.5 118.5 448.795 120.643 445.371 119.046 415.5 118.5 414.293 102.851 414.984 87.4656 415.5 57.5001Z" stroke="#000000" stroke-width="1.33333" stroke-miterlimit="8" fill="none" fill-rule="evenodd"/><text font-family="Aptos Display,Aptos Display_MSFontService,sans-serif" font-weight="400" font-size="43" transform="translate(432.699 101)">B</text><path d="M642.5 161.5C670.716 162.738 685.447 159.384 702.5 161.5 700.202 187.939 700.294 209.214 702.5 223.5 689.029 224.09 668.993 221.261 642.5 223.5 641.767 202.988 640.837 183.642 642.5 161.5Z" fill="#FFFFFF" fill-rule="evenodd"/><path d="M642.5 161.5C665.983 161.016 687.857 160.775 702.5 161.5 700.509 186.66 701.254 194.187 702.5 223.5 675.795 225.678 672.371 224.055 642.5 223.5 641.293 207.594 641.984 191.957 642.5 161.5Z" stroke="#000000" stroke-width="1.33333" stroke-miterlimit="8" fill="none" fill-rule="evenodd"/><text font-family="Aptos Display,Aptos Display_MSFontService,sans-serif" font-weight="400" font-size="43" transform="translate(659.281 205)">B</text><path d="M642.5 562.5C670.716 563.718 685.447 560.418 702.5 562.5 700.202 588.512 700.294 609.445 702.5 623.5 689.029 624.08 668.993 621.297 642.5 623.5 641.767 603.319 640.837 584.285 642.5 562.5Z" fill="#FFFFFF" fill-rule="evenodd"/><path d="M642.5 562.5C665.983 562.023 687.857 561.787 702.5 562.5 700.509 587.255 701.254 594.66 702.5 623.5 675.795 625.643 672.371 624.046 642.5 623.5 641.293 607.851 641.984 592.466 642.5 562.5Z" stroke="#000000" stroke-width="1.33333" stroke-miterlimit="8" fill="none" fill-rule="evenodd"/><text font-family="Aptos Display,Aptos Display_MSFontService,sans-serif" font-weight="400" font-size="43" transform="translate(659.281 606)">B</text><path d="M414.5 650.5C442.716 651.718 457.447 648.418 474.5 650.5 472.202 676.512 472.294 697.445 474.5 711.5 461.029 712.08 440.993 709.297 414.5 711.5 413.767 691.319 412.837 672.285 414.5 650.5Z" fill="#FFFFFF" fill-rule="evenodd"/><path d="M414.5 650.5C437.983 650.023 459.857 649.787 474.5 650.5 472.509 675.255 473.254 682.66 474.5 711.5 447.795 713.643 444.371 712.046 414.5 711.5 413.293 695.851 413.984 680.466 414.5 650.5Z" stroke="#000000" stroke-width="1.33333" stroke-miterlimit="8" fill="none" fill-rule="evenodd"/><text font-family="Aptos Display,Aptos Display_MSFontService,sans-serif" font-weight="400" font-size="43" transform="translate(431.688 694)">B</text><path d="M416.5 162.5C444.716 163.718 459.447 160.418 476.5 162.5 474.202 188.512 474.294 209.445 476.5 223.5 463.029 224.08 442.993 221.297 416.5 223.5 415.767 203.319 414.837 184.285 416.5 162.5Z" fill="#FFFFFF" fill-rule="evenodd"/><path d="M416.5 162.5C439.983 162.023 461.857 161.787 476.5 162.5 474.509 187.255 475.254 194.66 476.5 223.5 449.795 225.643 446.371 224.046 416.5 223.5 415.293 207.851 415.984 192.466 416.5 162.5Z" stroke="#000000" stroke-width="1.33333" stroke-miterlimit="8" fill="none" fill-rule="evenodd"/><text font-family="Aptos Display,Aptos Display_MSFontService,sans-serif" font-weight="400" font-size="43" transform="translate(431.823 206)">C</text><path d="M642.5 58.5001C670.716 59.7178 685.447 56.4183 702.5 58.5001 700.202 84.5121 700.294 105.445 702.5 119.5 689.029 120.08 668.993 117.297 642.5 119.5 641.767 99.3191 640.837 80.2851 642.5 58.5001Z" fill="#FFFFFF" fill-rule="evenodd"/><path d="M642.5 58.5001C665.983 58.0233 687.857 57.7868 702.5 58.5001 700.509 83.2547 701.254 90.66 702.5 119.5 675.795 121.643 672.371 120.046 642.5 119.5 641.293 103.851 641.984 88.4656 642.5 58.5001Z" stroke="#000000" stroke-width="1.33333" stroke-miterlimit="8" fill="none" fill-rule="evenodd"/><text font-family="Aptos Display,Aptos Display_MSFontService,sans-serif" font-weight="400" font-size="43" transform="translate(657.698 102)">C</text><path d="M642.5 312.5C670.716 313.718 685.447 310.418 702.5 312.5 700.202 338.512 700.294 359.445 702.5 373.5 689.029 374.08 668.993 371.297 642.5 373.5 641.767 353.319 640.837 334.285 642.5 312.5Z" fill="#FFFFFF" fill-rule="evenodd"/><path d="M642.5 312.5C665.983 312.023 687.857 311.787 702.5 312.5 700.509 337.255 701.254 344.66 702.5 373.5 675.795 375.643 672.371 374.046 642.5 373.5 641.293 357.851 641.984 342.466 642.5 312.5Z" stroke="#000000" stroke-width="1.33333" stroke-miterlimit="8" fill="none" fill-rule="evenodd"/><text font-family="Aptos Display,Aptos Display_MSFontService,sans-serif" font-weight="400" font-size="43" transform="translate(657.698 356)">C</text><path d="M415.5 420.5C443.245 421.738 457.731 418.384 474.5 420.5 472.24 446.939 472.331 468.214 474.5 482.5 461.253 483.09 441.551 480.261 415.5 482.5 414.779 461.988 413.865 442.642 415.5 420.5Z" fill="#FFFFFF" fill-rule="evenodd"/><path d="M415.5 420.5C438.591 420.016 460.101 419.775 474.5 420.5 472.542 445.661 473.274 453.187 474.5 482.5 448.24 484.678 444.873 483.055 415.5 482.5 414.313 466.594 414.992 450.957 415.5 420.5Z" stroke="#000000" stroke-width="1.33333" stroke-miterlimit="8" fill="none" fill-rule="evenodd"/><text font-family="Aptos Display,Aptos Display_MSFontService,sans-serif" font-weight="400" font-size="43" transform="translate(430.481 464)">C</text></g></svg>