<svg width="1280" height="720" xmlns="http://www.w3.org/2000/svg" xmlns:xlink="http://www.w3.org/1999/xlink" overflow="hidden"><g><rect x="0" y="0" width="1280" height="720" fill="#FFFFFF"/><path d="M200 216C226.814 215.76 249.751 214.442 276.14 216 302.529 217.558 335.142 218.418 352.28 216 369.418 213.582 417.915 220.934 482 216 484.598 233.724 478.885 259.453 482 281.74 485.115 304.027 481.974 324.812 482 347.48 482.026 370.148 478.941 391.152 482 416.68 485.059 442.208 480.482 451.99 482 482.42 483.518 512.85 481.174 543.717 482 562 446.834 564.728 426.995 558.485 408.68 562 390.365 565.515 371.48 563.517 343.82 562 316.16 560.483 294.756 562.854 273.32 562 251.884 561.146 231.388 565.455 200 562 198.608 541.419 197.466 529.875 200 503.18 202.534 476.486 200.345 462.02 200 430.52 199.655 399.021 198.686 378.685 200 364.78 201.314 350.875 201.707 320.258 200 305.96 198.293 291.662 201.722 245.03 200 216Z" stroke="#000000" stroke-width="2" stroke-miterlimit="8" fill="none" fill-rule="evenodd"/><path d="M0 0C15.0734-1.21211 29.8388 0.182111 56.44 0 83.0411-0.182111 103.548 2.80044 122.84 0 142.132-2.80044 163.373 0.723778 182.6 0 201.827-0.723778 223.859 0.00866667 249 0 274.141-0.00866667 303.414-3.08633 332 0 331.965 0.434778 332.056 1.306 332 2 299.104 5.17 276.901 4.41089 258.96 2 241.019-0.410889 220.396-0.402667 199.2 2 178.004 4.40267 157.734 2.29989 139.44 2 121.145 1.70011 101.574 4.10433 76.36 2 51.146-0.104333 21.3762 2.362 0 2-0.0570365 1.51178-0.0487537 0.553889 0 0Z" stroke="#000000" stroke-miterlimit="8" stroke-dasharray="4 3" fill="none" fill-rule="evenodd" transform="matrix(6.12323e-17 1 1 -6.12323e-17 768.5 179.5)"/><path d="M200 562.5C198.514 544.219 270.924 539.279 341 540 419.007 540.245 480.267 552.249 482 562.5 481.765 577.712 429.912 592.706 341 585 264.253 583.805 199.413 575.177 200 562.5Z" fill="#FFFFFF" fill-rule="evenodd"/><path d="M200 562.5C184.267 549.123 264.887 550.421 341 540 418.822 539.607 481.181 551.749 482 562.5 479.551 580.196 420.628 598.44 341 585 263.213 583.016 199.904 575.503 200 562.5Z" stroke="#000000" stroke-width="2" stroke-miterlimit="8" fill="none" fill-rule="evenodd"/><path d="M560 585C578.058 580.111 595.319 572.437 608.144 567.98 620.968 563.523 639.034 555.104 660.474 549.48 681.914 543.856 687.904 541.418 710.711 531.72 733.517 522.022 752.875 519.784 769.32 511 772.735 522.618 781.424 534.535 784.68 545.78 787.935 557.026 794.824 568.555 802 585 779.749 588.257 753.682 584.078 736.66 585 719.638 585.922 694.515 583.885 671.32 585 648.125 586.115 596.421 579.481 560 585Z" stroke="#000000" stroke-width="2" stroke-miterlimit="8" fill="none" fill-rule="evenodd"/><path d="M560 252C581.043 251.769 610.545 253.816 625.34 252 640.135 250.184 664.198 249.514 690.68 252 717.162 254.486 774.595 250.239 802 252 799.777 277.769 800.671 294.091 802 315.27 803.329 336.449 804.145 350.344 802 378.54 799.855 406.736 803.132 422.069 802 445.14 800.868 468.211 803.399 479.179 802 508.41 800.601 537.641 803.572 566.296 802 585 771.241 583.81 758.931 582.027 739.08 585 719.229 587.973 709.225 584.368 683.42 585 657.615 585.632 636.728 583.512 622.92 585 609.112 586.488 580.231 584.924 560 585 561.652 561.834 557.366 541.409 560 528.39 562.634 515.371 563.019 480.592 560 458.46 556.981 436.328 556.901 410.164 560 395.19 563.099 380.216 560.17 355.951 560 338.58 559.83 321.209 563.899 276.168 560 252Z" stroke="#000000" stroke-width="2" stroke-miterlimit="8" fill="none" fill-rule="evenodd"/><path d="M560 252C575.99 248.292 585.978 245.028 608.144 235.21 630.309 225.392 648.122 221.91 664.66 215.5 681.198 209.09 696.811 206.634 716.99 197.25 737.17 187.866 753.055 185.293 769.32 179 775.466 193.101 779.024 202.265 785.987 216.23 792.95 230.195 796.117 238.887 802 252 777.573 253.938 773.917 252.247 748.76 252 723.603 251.753 716.278 250.718 695.52 252 674.762 253.282 658.931 252.436 642.28 252 625.628 251.564 576.834 249.424 560 252Z" stroke="#000000" stroke-width="2" stroke-miterlimit="8" fill="none" fill-rule="evenodd"/><path d="M200 215.5C198.514 197.219 270.924 192.279 341 193 419.007 193.245 480.267 205.249 482 215.5 481.765 230.712 429.912 245.706 341 238 264.253 236.805 199.413 228.177 200 215.5Z" fill="#FFFFFF" fill-rule="evenodd"/><path d="M200 215.5C184.267 202.123 264.887 203.421 341 193 418.822 192.607 481.181 204.749 482 215.5 479.551 233.196 420.628 251.44 341 238 263.213 236.016 199.904 228.503 200 215.5Z" stroke="#000000" stroke-width="2" stroke-miterlimit="8" fill="none" fill-rule="evenodd"/></g></svg>