<svg width="1280" height="720" xmlns="http://www.w3.org/2000/svg" xmlns:xlink="http://www.w3.org/1999/xlink" overflow="hidden"><g><rect x="0" y="0" width="1280" height="720" fill="#FFFFFF"/><path d="M410.716 593.068C403.855 579.46 396.254 564.014 385.285 546.045 374.316 528.076 373.014 518.698 358.794 497.063 344.574 475.428 342.446 467.81 333.362 450.041 324.279 432.271 313.835 408.467 304.752 397.14 317.457 402.805 340.218 417.189 354.897 422.067 369.577 426.944 388.977 436.066 409.054 448.987 429.131 461.908 433.855 460.204 457.194 472.917 480.533 485.629 481.469 486.413 505.333 496.846 492.867 510.314 474.411 525.302 458.971 543.995 443.531 562.688 428.733 571.45 410.716 593.068Z" stroke="#000000" stroke-width="2" stroke-miterlimit="8" fill="none" fill-rule="evenodd"/><path d="M109 591C120.858 580.851 132.872 565.842 156.04 544.68 179.208 523.518 186.859 516.197 205.04 496.43 223.222 476.663 240.662 465.292 252.081 450.11 263.5 434.928 290.606 408.817 305.001 398 310.475 411.886 319.794 425.856 331.501 446.25 343.208 466.644 347.964 476.601 360.12 498.36 372.277 520.119 376.665 530.109 385.56 544.68 394.455 559.252 396.774 569.984 411 591 399.419 592.343 374.61 592.101 353.62 591 332.63 589.899 315.731 591.492 290.2 591 264.669 590.508 247.233 591.866 223.76 591 200.287 590.134 188.877 591.326 166.38 591 143.883 590.674 133.322 590.07 109 591Z" stroke="#000000" stroke-width="2" stroke-miterlimit="8" fill="none" fill-rule="evenodd"/><path d="M111 437.692C129.266 421.649 136.797 415.751 157.839 390.846 178.881 365.941 187.69 357.455 204.678 344 222.226 343.903 232.713 342.69 255.733 344 278.752 345.31 298.085 342.8 318.8 344 339.516 345.2 361.224 345.937 381.868 344 402.512 342.063 411.902 346.866 441.932 344 471.962 341.134 489.601 345.643 505 344 506.885 360.377 504.003 369.677 505 394.77 505.997 419.862 502.924 427.828 505 445.539 507.076 463.25 507.506 475.714 505 496.308 495.017 507.082 480.22 520.374 457.224 544.091 434.228 567.808 435.948 569.092 411.322 590 393.709 591.269 379.584 591.49 348.254 590 316.924 588.51 318.12 589.792 288.19 590 258.26 590.208 259.422 592.339 237.135 590 214.848 587.661 201.874 590.192 180.074 590 158.274 589.807 134.318 593.238 111 590 111.098 566.229 112.298 553.99 111 540.754 109.702 527.518 110.787 513.377 111 486.938 111.213 460.498 111.378 449.954 111 437.692ZM111 437.692C131.304 434.418 156.961 439.775 177.071 437.692 197.181 435.608 219.942 440.006 234.132 437.692 248.321 435.377 268.737 437.231 300.203 437.692 331.669 438.152 338.098 435.885 357.264 437.692 376.43 439.498 393.522 435.047 411.322 437.692 427.128 420.576 439.441 405.694 458.161 390.846 476.881 375.998 487.107 361.53 505 344M411.322 437.692C413.159 464.028 409.984 473.085 411.322 491.507 412.66 509.929 413.298 530.254 411.322 542.277 409.346 554.299 409.227 575.8 411.322 590" stroke="#000000" stroke-width="2" stroke-miterlimit="8" fill="none" fill-rule="evenodd"/><path d="M1020.76 587.244C1003.6 565.522 997.725 561.942 982.54 541.521 967.355 521.101 955.126 506.455 942.732 493.893 930.339 481.332 923.939 470.058 904.517 448.171 885.095 426.283 873.463 415.419 861.525 396.732 876.535 404.631 902.589 416.229 924.2 421.105 945.811 425.98 975.913 440.885 991.889 447.427 1007.87 453.97 1029.13 462.405 1052.06 470.825 1074.99 479.244 1099.08 490.809 1112.23 494.222 1100.48 503.613 1079.66 526.713 1067.41 539.803 1055.15 552.893 1033.71 578.723 1020.76 587.244Z" stroke="#000000" stroke-width="2" stroke-miterlimit="8" fill="none" fill-rule="evenodd"/><path d="M561 588C572.609 579.256 605.24 557.815 617.723 551.9 630.206 545.985 654.399 526.252 677.432 513.9 700.465 501.548 713.882 494.391 734.156 477.8 754.429 461.209 762.722 456.201 784.908 445.5 807.094 434.799 834.277 414.044 859.545 398 875.214 411.621 890.073 433.822 903.138 449.3 916.202 464.778 936.244 483.904 941.887 494.9 947.529 505.896 967.469 527.21 979.022 538.6 990.574 549.99 1012.24 572.8 1021 588 998.558 588.23 970.508 590.012 955.286 588 940.063 585.988 908.255 587.105 880.371 588 852.488 588.895 838.55 587.147 819.257 588 799.965 588.853 781.726 589.498 748.943 588 716.159 586.502 705.17 586.177 687.829 588 670.487 589.823 649.363 586.564 635.914 588 622.465 589.436 588.242 588.845 561 588Z" stroke="#000000" stroke-width="2" stroke-miterlimit="8" fill="none" fill-rule="evenodd"/><path d="M563 439.026C577.493 426.917 592.331 407.769 608.526 393.513 624.721 379.257 640.319 363.233 654.053 348 672.938 349.211 706.633 350.934 723.747 348 740.862 345.066 758.444 349.86 779.764 348 801.084 346.14 814.568 346.481 831.221 348 847.873 349.519 870.48 348.524 887.237 348 903.994 347.476 924.354 349.585 947.813 348 971.273 346.415 999.347 348.784 1012.95 348 1026.55 347.216 1079.65 349.483 1110 348 1112.13 365.354 1107.68 375.789 1110 395.845 1112.32 415.901 1109.75 432.909 1110 448.129 1110.25 463.35 1107.78 473.852 1110 495.974 1096.55 511.891 1083.33 522.583 1062.65 543.308 1041.97 564.032 1037.73 568.885 1018.95 587 989.458 586.565 984.039 589.321 949.252 587 914.466 584.679 894.523 583.56 879.558 587 864.592 590.44 837.746 585.779 805.303 587 772.861 588.221 759.468 587.76 740.168 587 720.868 586.24 697.945 589.245 665.914 587 633.882 584.755 599.541 582.292 563 587 564.236 566.351 560.936 546.346 563 534.716 565.064 523.086 561.78 501.933 563 485.391 564.22 468.849 563.57 461.213 563 439.026ZM563 439.026C584.99 438.842 596.664 438.399 619.016 439.026 641.369 439.652 647.814 440.045 670.473 439.026 693.132 438.006 717.273 437.559 740.168 439.026 763.063 440.492 775.661 438.493 796.185 439.026 816.708 439.558 834.008 436.611 847.641 439.026 861.275 441.44 887.807 439.365 903.658 439.026 919.509 438.686 974.751 435.449 1018.95 439.026 1028.64 425.337 1050.19 410.757 1063.56 394.423 1076.94 378.089 1089.88 368.251 1110 348M1018.95 439.026C1020.05 458.467 1018.12 470.024 1018.95 485.391 1019.77 500.757 1019.04 521.046 1018.95 530.276 1018.85 539.507 1018.42 573.994 1018.95 587" stroke="#000000" stroke-width="2" stroke-miterlimit="8" fill="none" fill-rule="evenodd"/></g></svg>