<svg width="1280" height="720" xmlns="http://www.w3.org/2000/svg" xmlns:xlink="http://www.w3.org/1999/xlink" overflow="hidden"><g><rect x="0" y="0" width="1280" height="720" fill="#FFFFFF"/><path d="M224 88C224.114 77.1811 232.966 70.7472 242 70 249.998 69.2485 260.4 76.6236 260 88 261.635 96.8354 251.72 106.578 242 106 231.931 106.431 225.374 96.7049 224 88Z" stroke="#000000" stroke-width="2" stroke-miterlimit="8" fill="none" fill-rule="evenodd"/><path d="M763 197.5C763.117 185.873 772.215 178.73 781.5 178 790.938 177.713 800.539 184.895 800 197.5 801.681 207.19 791.49 217.564 781.5 217 770.535 219.388 765.05 206.517 763 197.5Z" stroke="#000000" stroke-width="2" stroke-miterlimit="8" fill="none" fill-rule="evenodd"/><path d="M143 495C143.114 484.181 151.966 477.747 161 477 168.998 476.248 179.4 483.624 179 495 180.635 503.835 170.72 513.578 161 513 150.931 513.431 144.374 503.705 143 495Z" stroke="#000000" stroke-width="2" stroke-miterlimit="8" fill="none" fill-rule="evenodd"/><path d="M275 46.5C275.114 35.9817 283.966 29.7264 293 29 300.998 28.2693 311.4 35.4396 311 46.5 312.635 55.09 302.72 64.5615 293 64 282.931 64.4191 276.374 54.9631 275 46.5Z" stroke="#000000" stroke-width="2" stroke-miterlimit="8" fill="none" fill-rule="evenodd"/><path d="M333 56.5C333.114 44.8731 341.966 37.7297 351 37 360.183 36.7134 369.524 43.8949 369 56.5 370.635 66.1897 360.72 76.5641 351 76 340.331 78.3879 334.994 65.5169 333 56.5Z" stroke="#000000" stroke-width="2" stroke-miterlimit="8" fill="none" fill-rule="evenodd"/><path d="M414 96C414.114 85.1811 422.966 78.7472 432 78 439.998 77.2485 450.4 84.6236 450 96 451.635 104.835 441.72 114.578 432 114 421.931 114.431 415.374 104.705 414 96Z" stroke="#000000" stroke-width="2" stroke-miterlimit="8" fill="none" fill-rule="evenodd"/><path d="M473.974 95.3558C479.768 85.3532 490.216 85.2616 498.341 88.5972 505.722 91.8284 511.36 103.224 505.602 112.819 502.086 121.278 488.765 125.398 481.235 119.578 472.183 115.064 471.047 103.515 473.974 95.3558Z" stroke="#000000" stroke-width="2" stroke-miterlimit="8" fill="none" fill-rule="evenodd"/><path d="M362 117C362.081 106.986 372.95 101.645 382 100 391.182 99.2787 402.209 106.862 402 117 403.569 125.328 392.69 134.926 382 134 370.372 135.958 362.424 126.007 362 117Z" stroke="#000000" stroke-width="2" stroke-miterlimit="8" fill="none" fill-rule="evenodd"/><path d="M465 54.5C465.117 43.9817 474.215 37.7264 483.5 37 491.721 36.2693 502.411 43.4396 502 54.5 503.681 63.09 493.49 72.5615 483.5 72 473.151 72.4191 466.412 62.9631 465 54.5Z" stroke="#000000" stroke-width="2" stroke-miterlimit="8" fill="none" fill-rule="evenodd"/><path d="M523 64.5C523.236 51.9575 532.305 46.0011 541 45 550.181 44.7134 559.525 51.8949 559 64.5 560.007 74.6059 550.372 85.446 541 84 530.33 86.3879 524.999 73.5169 523 64.5Z" stroke="#000000" stroke-width="2" stroke-miterlimit="8" fill="none" fill-rule="evenodd"/><path d="M718 497C718.114 486.181 726.966 479.747 736 479 743.998 478.248 754.4 485.624 754 497 755.635 505.835 745.72 515.578 736 515 725.931 515.431 719.374 505.705 718 497Z" stroke="#000000" stroke-width="2" stroke-miterlimit="8" fill="none" fill-rule="evenodd"/><path d="M826.08 515.948C816.102 512.265 813.137 501.756 815.5 492.952 817.507 485.128 827.852 477.713 838.249 481.851 846.982 483.222 852.65 495.833 848.83 504.848 845.826 514.527 834.604 517.523 826.08 515.948Z" stroke="#000000" stroke-width="2" stroke-miterlimit="8" fill="none" fill-rule="evenodd"/><path d="M196.659 511.469C187.127 506.751 185.292 495.986 188.573 487.482 191.397 479.915 202.469 473.637 212.37 478.852 220.909 481.14 225.21 494.28 220.456 502.84 216.444 512.147 204.968 513.938 196.659 511.469Z" stroke="#000000" stroke-width="2" stroke-miterlimit="8" fill="none" fill-rule="evenodd"/><path d="M168 453.5C168.114 442.982 176.966 436.726 186 436 193.998 435.269 204.4 442.44 204 453.5 205.635 462.09 195.72 471.562 186 471 175.931 471.419 169.374 461.963 168 453.5Z" stroke="#000000" stroke-width="2" stroke-miterlimit="8" fill="none" fill-rule="evenodd"/><path d="M224.051 469.787C214.519 465.068 212.683 454.304 215.964 445.8 218.789 438.232 229.861 431.954 239.762 437.17 248.301 439.458 252.601 452.598 247.848 461.157 243.836 470.464 232.36 472.256 224.051 469.787Z" stroke="#000000" stroke-width="2" stroke-miterlimit="8" fill="none" fill-rule="evenodd"/><path d="M230 495.5C230.081 485.78 240.95 480.597 250 479 259.182 478.3 270.209 485.66 270 495.5 271.569 503.583 260.69 512.899 250 512 238.372 513.9 230.424 504.243 230 495.5Z" stroke="#000000" stroke-width="2" stroke-miterlimit="8" fill="none" fill-rule="evenodd"/><path d="M604 495.5C604.236 482.958 613.305 477.001 622 476 631.181 475.713 640.525 482.895 640 495.5 641.007 505.606 631.372 516.446 622 515 611.33 517.388 605.999 504.517 604 495.5Z" stroke="#000000" stroke-width="2" stroke-miterlimit="8" fill="none" fill-rule="evenodd"/><path d="M329.231 508.683C318.093 503.072 316.37 492.64 318.985 484.875 321.183 478.2 333.847 472.994 343.989 478.045 353.451 480.735 358.742 493.858 354.235 501.854 350.864 510.962 338.854 512.974 329.231 508.683Z" stroke="#000000" stroke-width="2" stroke-miterlimit="8" fill="none" fill-rule="evenodd"/><path d="M509 495.5C509.114 484.982 517.966 478.726 527 478 534.998 477.269 545.4 484.44 545 495.5 546.635 504.09 536.72 513.562 527 513 516.931 513.419 510.374 503.963 509 495.5Z" stroke="#000000" stroke-width="2" stroke-miterlimit="8" fill="none" fill-rule="evenodd"/><path d="M601 449.5C601.114 438.982 609.966 432.726 619 432 626.998 431.269 637.4 438.44 637 449.5 638.635 458.09 628.72 467.562 619 467 608.931 467.419 602.374 457.963 601 449.5Z" stroke="#000000" stroke-width="2" stroke-miterlimit="8" fill="none" fill-rule="evenodd"/><path d="M369 364C369.114 353.181 377.966 346.747 387 346 394.998 345.248 405.4 352.624 405 364 406.635 372.835 396.72 382.578 387 382 376.931 382.431 370.374 372.705 369 364Z" stroke="#000000" stroke-width="2" stroke-miterlimit="8" fill="none" fill-rule="evenodd"/><path d="M412 492.5C412.114 480.873 420.966 473.73 430 473 439.183 472.713 448.524 479.895 448 492.5 449.635 502.19 439.72 512.564 430 512 419.331 514.388 413.994 501.517 412 492.5Z" stroke="#000000" stroke-width="2" stroke-miterlimit="8" fill="none" fill-rule="evenodd"/><path d="M319 446.5C319.114 435.982 327.966 429.726 337 429 344.998 428.269 355.4 435.44 355 446.5 356.635 455.09 346.72 464.562 337 464 326.931 464.419 320.374 454.963 319 446.5Z" stroke="#000000" stroke-width="2" stroke-miterlimit="8" fill="none" fill-rule="evenodd"/><path d="M372.305 462.951C362.773 458.232 360.937 447.468 364.218 438.964 367.043 431.396 378.114 425.118 388.015 430.334 396.554 432.622 400.855 445.762 396.102 454.321 392.089 463.628 380.614 465.42 372.305 462.951Z" stroke="#000000" stroke-width="2" stroke-miterlimit="8" fill="none" fill-rule="evenodd"/><path d="M344 405C344.114 394.181 352.966 387.747 362 387 369.998 386.248 380.4 393.624 380 405 381.635 413.835 371.72 423.578 362 423 351.931 423.431 345.374 413.705 344 405Z" stroke="#000000" stroke-width="2" stroke-miterlimit="8" fill="none" fill-rule="evenodd"/><path d="M399.696 421.269C390.164 416.55 388.329 405.785 391.61 397.281 394.435 389.714 405.506 383.436 415.407 388.652 423.946 390.939 428.247 404.079 423.494 412.639 419.481 421.946 408.006 423.737 399.696 421.269Z" stroke="#000000" stroke-width="2" stroke-miterlimit="8" fill="none" fill-rule="evenodd"/><path d="M405 446.5C405.081 436.78 415.95 431.597 425 430 434.182 429.3 445.209 436.66 445 446.5 446.569 454.583 435.69 463.899 425 463 413.372 464.9 405.424 455.243 405 446.5Z" stroke="#000000" stroke-width="2" stroke-miterlimit="8" fill="none" fill-rule="evenodd"/><path d="M569.825 339.975C558.687 334.365 556.964 323.933 559.579 316.167 561.776 309.493 574.441 304.287 584.582 309.338 594.044 312.028 599.335 325.151 594.829 333.146 591.457 342.255 579.448 344.266 569.825 339.975Z" stroke="#000000" stroke-width="2" stroke-miterlimit="8" fill="none" fill-rule="evenodd"/><path d="M559 281.5C559.114 270.982 567.966 264.726 577 264 584.998 263.269 595.4 270.44 595 281.5 596.635 290.09 586.72 299.562 577 299 566.931 299.419 560.374 289.963 559 281.5Z" stroke="#000000" stroke-width="2" stroke-miterlimit="8" fill="none" fill-rule="evenodd"/><path d="M509 449.5C509.114 437.873 517.966 430.73 527 430 536.182 429.713 545.524 436.895 545 449.5 546.635 459.19 536.72 469.564 527 469 516.331 471.388 510.994 458.517 509 449.5Z" stroke="#000000" stroke-width="2" stroke-miterlimit="8" fill="none" fill-rule="evenodd"/><path d="M509 403C509.114 392.181 517.966 385.747 527 385 534.998 384.248 545.4 391.624 545 403 546.635 411.835 536.72 421.578 527 421 516.931 421.431 510.374 411.705 509 403Z" stroke="#000000" stroke-width="2" stroke-miterlimit="8" fill="none" fill-rule="evenodd"/><path d="M562.891 419.43C553.359 414.712 551.524 403.947 554.805 395.443 557.63 387.876 568.701 381.598 578.602 386.813 587.141 389.101 591.442 402.241 586.689 410.801 582.676 420.108 571.201 421.899 562.891 419.43Z" stroke="#000000" stroke-width="2" stroke-miterlimit="8" fill="none" fill-rule="evenodd"/><path d="M534 361.5C534.114 350.982 542.966 344.726 552 344 559.998 343.269 570.4 350.44 570 361.5 571.635 370.09 561.72 379.562 552 379 541.931 379.419 535.374 369.963 534 361.5Z" stroke="#000000" stroke-width="2" stroke-miterlimit="8" fill="none" fill-rule="evenodd"/><path d="M590.283 377.748C580.751 373.029 578.916 362.265 582.196 353.761 585.021 346.193 596.093 339.915 605.994 345.131 614.533 347.419 618.834 360.559 614.08 369.118 610.068 378.425 598.592 380.217 590.283 377.748Z" stroke="#000000" stroke-width="2" stroke-miterlimit="8" fill="none" fill-rule="evenodd"/><path d="M596 403.5C596.081 393.78 606.95 388.597 616 387 625.182 386.3 636.209 393.66 636 403.5 637.569 411.583 626.69 420.899 616 420 604.372 421.9 596.424 412.243 596 403.5Z" stroke="#000000" stroke-width="2" stroke-miterlimit="8" fill="none" fill-rule="evenodd"/><path d="M811 456.5C811.236 443.958 820.305 438.001 829 437 838.181 436.713 847.525 443.895 847 456.5 848.007 466.606 838.372 477.446 829 476 818.33 478.388 812.999 465.517 811 456.5Z" stroke="#000000" stroke-width="2" stroke-miterlimit="8" fill="none" fill-rule="evenodd"/><path d="M716 456C716.117 445.181 725.215 438.747 734.5 438 742.721 437.248 753.411 444.624 753 456 754.681 464.835 744.49 474.578 734.5 474 724.151 474.431 717.412 464.705 716 456Z" stroke="#000000" stroke-width="2" stroke-miterlimit="8" fill="none" fill-rule="evenodd"/><path d="M808 410C808.114 399.181 816.966 392.747 826 392 833.998 391.248 844.4 398.624 844 410 845.635 418.835 835.72 428.578 826 428 815.931 428.431 809.374 418.705 808 410Z" stroke="#000000" stroke-width="2" stroke-miterlimit="8" fill="none" fill-rule="evenodd"/><path d="M777.033 300.62C765.894 295.009 764.172 284.577 766.786 276.811 768.984 270.137 781.648 264.931 791.79 269.982 801.252 272.672 806.543 285.795 802.036 293.79 798.665 302.899 786.656 304.911 777.033 300.62Z" stroke="#000000" stroke-width="2" stroke-miterlimit="8" fill="none" fill-rule="evenodd"/><path d="M766 242C766.117 231.181 775.215 224.747 784.5 224 792.721 223.248 803.411 230.624 803 242 804.681 250.835 794.49 260.578 784.5 260 774.151 260.431 767.412 250.705 766 242Z" stroke="#000000" stroke-width="2" stroke-miterlimit="8" fill="none" fill-rule="evenodd"/><path d="M716 410C716.117 398.075 725.215 390.748 734.5 390 743.938 389.706 753.539 397.072 753 410 754.681 419.938 744.49 430.579 734.5 430 723.535 432.449 718.05 419.248 716 410Z" stroke="#000000" stroke-width="2" stroke-miterlimit="8" fill="none" fill-rule="evenodd"/><path d="M716 363.5C716.117 352.982 725.215 346.726 734.5 346 742.721 345.269 753.411 352.44 753 363.5 754.681 372.09 744.49 381.562 734.5 381 724.151 381.419 717.412 371.963 716 363.5Z" stroke="#000000" stroke-width="2" stroke-miterlimit="8" fill="none" fill-rule="evenodd"/><path d="M770.099 380.075C760.567 375.356 758.732 364.591 762.012 356.087 764.837 348.52 775.909 342.242 785.81 347.458 794.349 349.745 798.65 362.885 793.896 371.445 789.884 380.752 778.408 382.543 770.099 380.075Z" stroke="#000000" stroke-width="2" stroke-miterlimit="8" fill="none" fill-rule="evenodd"/><path d="M741 322C741.117 311.181 750.215 304.747 759.5 304 767.721 303.248 778.411 310.624 778 322 779.681 330.835 769.49 340.578 759.5 340 749.151 340.431 742.412 330.705 741 322Z" stroke="#000000" stroke-width="2" stroke-miterlimit="8" fill="none" fill-rule="evenodd"/><path d="M797.491 338.392C787.959 333.673 786.123 322.909 789.404 314.405 792.229 306.838 803.3 300.56 813.202 305.775 821.74 308.063 826.041 321.203 821.288 329.763 817.276 339.07 805.8 340.861 797.491 338.392Z" stroke="#000000" stroke-width="2" stroke-miterlimit="8" fill="none" fill-rule="evenodd"/><path d="M803 363.5C803.081 353.78 813.95 348.597 823 347 832.182 346.3 843.209 353.66 843 363.5 844.569 371.583 833.69 380.899 823 380 811.372 381.9 803.424 372.243 803 363.5Z" stroke="#000000" stroke-width="2" stroke-miterlimit="8" fill="none" fill-rule="evenodd"/><text font-family="Calibri,Calibri_MSFontService,sans-serif" font-weight="400" font-size="37" transform="translate(189.153 565)">F</text><text font-family="Calibri,Calibri_MSFontService,sans-serif" font-weight="400" font-size="25" transform="translate(206.32 573)">1</text><text font-family="Calibri,Calibri_MSFontService,sans-serif" font-weight="400" font-size="37" transform="translate(368.838 565)">F</text><text font-family="Calibri,Calibri_MSFontService,sans-serif" font-weight="400" font-size="25" transform="translate(386.004 573)">2</text><text font-family="Calibri,Calibri_MSFontService,sans-serif" font-weight="400" font-size="37" transform="translate(560.224 566)">F</text><text font-family="Calibri,Calibri_MSFontService,sans-serif" font-weight="400" font-size="25" transform="translate(577.391 574)">3</text><text font-family="Calibri,Calibri_MSFontService,sans-serif" font-weight="400" font-size="37" transform="translate(769.197 566)">F</text><text font-family="Calibri,Calibri_MSFontService,sans-serif" font-weight="400" font-size="25" transform="translate(786.364 574)">4</text></g></svg>