<svg width="1280" height="720" xmlns="http://www.w3.org/2000/svg" xmlns:xlink="http://www.w3.org/1999/xlink" overflow="hidden"><g><rect x="0" y="0" width="1280" height="720" fill="#FFFFFF"/><path d="M578.291 175.941C588.677 197.924 599.113 210.597 607.967 232.074 616.82 253.551 627.67 273.22 635.914 284.937 644.158 296.653 658.386 324.433 664.725 339.435 648.462 349.228 646.83 350.861 633.675 362.437 622.73 342.041 609.035 318.131 603.999 306.304 598.963 294.478 589.454 274.753 576.916 255.076 564.379 235.399 558.188 223.095 547.24 198.943 560.981 189.764 566.665 183.441 578.291 175.941Z" fill="#084F6A" fill-rule="evenodd"/><path d="M578.291 175.941C587.141 187.486 596.509 215.768 606.238 228.804 615.967 241.839 630.945 269.843 635.914 284.937 640.882 300.03 652.47 317.56 664.725 339.435 653.393 346.182 642.045 357.877 633.675 362.437 624.835 348.759 617.626 334.46 606.592 311.209 595.558 287.958 592.587 285.338 579.509 259.981 566.432 234.625 554.333 218.84 547.24 198.943 561.614 190.21 569.685 183.363 578.291 175.941Z" stroke="#000000" stroke-width="2" stroke-miterlimit="8" fill="none" fill-rule="evenodd"/><path d="M458 362C466.17 349.194 473.931 335.974 485.417 310.613 496.902 285.253 501.605 283.743 514.583 255.947 527.562 228.15 535 223.267 545.5 198 554.675 213.186 571.061 239.735 576.417 255.947 581.772 272.158 593.301 282.681 605.583 310.613 617.866 338.546 623.948 346.442 633 362 614.044 359.09 596.054 359.902 574.667 362 553.279 364.098 543.167 360.961 516.333 362 489.5 363.039 484.909 362.653 458 362Z" fill="#0B76A0" fill-rule="evenodd"/><path d="M458 362C470.479 332.322 482.415 318.045 488.917 304.053 495.419 290.061 510.537 265.088 518.958 247.747 527.379 230.406 538.618 210.308 545.5 198 555.824 221.358 558.864 228.41 572.042 247.747 585.219 267.083 588.024 275.191 601.208 302.413 614.392 329.636 624.469 346.767 633 362 607.186 361.793 601.69 364.809 574.667 362 547.643 359.191 545.323 362.082 519.833 362 494.344 361.918 471.547 360.862 458 362Z" stroke="#000000" stroke-width="2" stroke-miterlimit="8" fill="none" fill-rule="evenodd"/><path d="M632.584 235.87C646.081 258.467 653.956 272.638 665.288 287.263 676.621 301.887 681.559 315.442 696.087 335.661 710.615 355.88 716.877 367.823 727.839 385.557 712.644 400.013 710.85 401.968 696.519 414.154 682.569 393.342 674.787 380.687 663.815 362.761 652.844 344.835 649.258 336.909 633.969 315.86 618.68 294.81 616.817 284.656 601.265 264.467 610.17 256.83 621.439 244.862 632.584 235.87Z" fill="#F2AA84" fill-rule="evenodd"/><path d="M632.584 235.87C643.994 255.514 648.858 263.409 663.383 284.269 677.909 305.129 684.912 316.224 696.087 335.661 707.262 355.098 722.383 374.799 727.839 385.557 720.101 390.207 712.329 401.839 696.519 414.154 683.37 393.391 677.08 385.058 666.673 367.252 656.266 349.446 650.228 338.747 636.826 320.35 623.425 301.953 619.986 290.193 601.265 264.467 607.841 256.324 618.595 246.257 632.584 235.87Z" stroke="#000000" stroke-width="2" stroke-miterlimit="8" fill="none" fill-rule="evenodd"/><path d="M236 347.836C232.612 342.212 280.563 337.286 336.5 334 392.007 332.896 437.029 341.951 437 347.836 438.315 374.804 435.203 385.067 437 403.164 435.149 413.435 399.602 417.538 336.5 417 281.725 417.368 234.989 411.403 236 403.164 233.568 377.828 238.331 361.951 236 347.836Z" fill="#8ED973" fill-rule="evenodd"/><path d="M437 347.836C438.377 355.872 386.766 357.839 336.5 361.672 280.601 361.537 237.235 355.837 236 347.836" stroke="#000000" stroke-width="2" stroke-miterlimit="8" fill="none" fill-rule="evenodd"/><path d="M236 347.836C232.061 339.623 285.626 329.538 336.5 334 393.158 335.285 436.021 339.438 437 347.836 435.537 371.156 436.845 387.288 437 403.164 438.244 410.196 394.29 415.387 336.5 417 281.464 417.945 234.954 410.483 236 403.164 238.712 391.568 238.031 372.91 236 347.836Z" stroke="#000000" stroke-width="2" stroke-miterlimit="8" fill="none" fill-rule="evenodd"/><path d="M167 502.724C190.993 502.798 218.773 505.349 232.342 502.724 245.912 500.099 276.947 505.566 299.77 502.724 322.593 499.882 345.309 501.036 375.539 502.724 373.003 517.605 374.613 534.227 375.539 558 347.717 558.354 335.281 555.795 310.197 558 285.113 560.205 266.544 555.644 236.513 558 206.483 560.356 181.539 560.509 167 558 169.685 546.05 166.568 522.8 167 502.724Z" fill="#0B1E31" fill-rule="evenodd"/><path d="M375.539 502.724C384.402 494.807 399.506 480.344 408.77 469.362 418.034 458.381 429.447 451.384 442 436 441.718 450.072 440.249 474.038 442 491.276 434.457 501.283 426.721 508.911 410.763 522.636 394.806 536.362 383.171 547.346 375.539 558 374.957 544.87 376.869 520.797 375.539 502.724Z" fill="#091827" fill-rule="evenodd"/><path d="M167 502.724C176.478 495.343 190.663 475.898 200.895 468.695 211.127 461.492 218.927 449.616 233.461 436 265.495 433.959 267.361 436.433 298.803 436 330.245 435.567 342.014 432.755 364.145 436 386.277 439.245 412.366 435.09 442 436 427.478 447.318 426.172 455.238 407.44 470.697 388.708 486.155 380.819 494.714 375.539 502.724 351.565 502.192 328.728 505.09 303.941 502.724 279.153 500.358 257.155 502.905 234.428 502.724 211.7 502.543 189.414 505.352 167 502.724Z" fill="#3B4A59" fill-rule="evenodd"/><path d="M167 502.724C177.671 490.641 191.612 478.482 200.895 468.695 210.178 458.908 223.168 449.601 233.461 436 254.134 439.139 270.415 436.272 300.888 436 331.362 435.728 343.707 437.85 374.572 436 405.437 434.15 415.13 433.968 442 436 444.277 456.922 443.068 475.035 442 491.276 430.479 504.562 417.341 516.405 410.099 523.303 402.857 530.202 391.167 540.795 375.539 558 361.197 559.548 335.42 556.872 310.197 558 284.974 559.128 269.139 560.662 240.684 558 212.229 555.338 182.877 558.278 167 558 168.603 542.51 169.557 522.527 167 502.724ZM167 502.724C189.247 499.848 207.288 499.221 238.598 502.724 269.909 506.228 275.262 501.914 310.197 502.724 345.132 503.534 346.584 501.271 375.539 502.724 382.272 493.254 397.177 481.207 406.776 471.364 416.375 461.521 432.475 443.652 442 436M375.539 502.724C374.656 525.303 376.493 544.41 375.539 558" stroke="#000000" stroke-width="2" stroke-miterlimit="8" fill="none" fill-rule="evenodd"/><path d="M774 501.255C791.265 499.699 814.135 502.912 842.457 501.255 870.779 499.598 890.555 502.68 913.099 501.255 935.643 499.83 973 504.874 992.48 501.255 989.863 514.638 990.112 531.409 992.48 556 973.112 557.062 954.717 554.612 924.023 556 893.329 557.388 881.41 557.202 846.827 556 812.243 554.798 806.367 556.903 774 556 776.315 543.218 775.018 527.133 774 501.255Z" fill="#104862" fill-rule="evenodd"/><path d="M992.48 501.255C998.825 494.678 1015.01 480.56 1021.74 472.127 1028.47 463.695 1046.42 450.426 1051 443 1053.03 464.565 1053.23 486.171 1051 497.745 1038.2 508.524 1037.86 513.159 1023.5 525.125 1009.14 537.091 1002.54 545.936 992.48 556 990.226 533.146 994.503 526.439 992.48 501.255Z" fill="#0D3A4F" fill-rule="evenodd"/><path d="M774 501.255C788.387 486.949 788.228 484.321 803.845 471.545 819.463 458.768 821.855 451.449 832.52 443 861.024 445.483 872.003 444.49 900.977 443 929.951 441.51 950.432 440.085 969.434 443 988.436 445.915 1024.75 445.782 1051 443 1036.03 455.967 1031.75 461.351 1020.57 473.292 1009.39 485.234 1005.48 489.293 992.48 501.255 955.2 504.954 943.569 499.394 917.469 501.255 891.368 503.115 866.506 501.244 844.642 501.255 822.777 501.266 791.717 500.523 774 501.255Z" fill="#3F6C81" fill-rule="evenodd"/><path d="M774 501.255C783.542 491.865 796.861 481.03 803.845 471.545 810.829 462.06 821.306 455.354 832.52 443 858.819 445.056 876.308 443.419 903.162 443 930.016 442.581 963.951 445.802 980.358 443 996.765 440.198 1016.16 441.052 1051 443 1051.35 462.459 1048.67 478.896 1051 497.745 1045.28 504.166 1033.72 517.452 1022.91 525.708 1012.1 533.963 1007.34 540.996 992.48 556 977.662 556.93 940.555 558.168 924.023 556 907.491 553.831 874.537 553.445 851.196 556 827.856 558.555 795.888 554.873 774 556 773.994 543.323 775.045 523.808 774 501.255ZM774 501.255C790.379 497.598 830.831 497.906 849.011 501.255 867.192 504.603 898.344 498.381 924.023 501.255 949.702 504.128 962.843 501.943 992.48 501.255 1004.3 491.566 1012.37 483.432 1019.98 473.875 1027.6 464.318 1042.32 450.109 1051 443M992.48 501.255C992.252 513.499 989.845 536.285 992.48 556" stroke="#000000" stroke-width="2" stroke-miterlimit="8" fill="none" fill-rule="evenodd"/><path d="M394 480.91C417.849 478.774 433.401 480.957 454.206 480.91 475.011 480.863 502.781 478.257 516.333 480.91 529.886 483.562 566.397 477.848 586.147 480.91 587.51 495.404 584.258 519.356 586.147 534 562.46 531.891 540.955 533.935 525.941 534 510.927 534.065 484.537 532.033 458.049 534 431.561 535.967 419.861 533.998 394 534 392.52 519.318 395.123 499.611 394 480.91Z" fill="#83CBEB" fill-rule="evenodd"/><path d="M586.147 480.91C599.094 467.985 606.046 461.238 613.073 453.955 620.101 446.672 628.882 437.485 640 427 637.581 443.763 642.252 464.523 640 480.09 631.513 487.179 624.786 497.205 614.689 505.428 604.592 513.65 594.706 523.469 586.147 534 586.719 511.83 586.646 505.186 586.147 480.91Z" fill="#69A3BD" fill-rule="evenodd"/><path d="M394 480.91C398.842 473.538 408.762 464.429 421.465 453.416 434.168 442.403 442.463 432.31 447.853 427 468.535 427.969 479.914 424.671 508.059 427 536.204 429.329 543.817 426.878 568.265 427 592.713 427.122 621.194 424.836 640 427 629.781 435.474 618.966 449.612 611.996 455.033 605.027 460.454 597.97 471.474 586.147 480.91 563.874 478.101 535.888 480.24 520.177 480.91 504.465 481.58 469.659 479.117 456.127 480.91 442.596 482.703 424.129 482.735 394 480.91Z" fill="#9BD5EF" fill-rule="evenodd"/><path d="M394 480.91C407.674 469.648 414.791 458.705 421.465 453.416 428.139 448.127 439.249 437.777 447.853 427 475.711 424.665 487.502 429.178 509.981 427 532.459 424.822 546.059 430.161 577.872 427 609.686 423.839 611.15 429.813 640 427 638.275 440.744 637.588 468.986 640 480.09 628.119 492.005 626.61 492.787 614.151 505.967 601.692 519.147 597.042 525.675 586.147 534 574.025 532.156 538.562 533.337 525.941 534 513.32 534.663 478.793 531.177 461.892 534 444.991 536.823 419.998 533.541 394 534 393.19 512.943 392.092 492.713 394 480.91ZM394 480.91C414.188 481.861 443.288 480.151 459.97 480.91 476.653 481.669 512.019 479.88 525.941 480.91 539.862 481.939 571.656 478.874 586.147 480.91 594.168 471.16 601.95 466.698 611.458 455.572 620.965 444.447 627.937 440.519 640 427M586.147 480.91C585.604 505.113 588.018 509.251 586.147 534" stroke="#000000" stroke-width="2" stroke-miterlimit="8" fill="none" fill-rule="evenodd"/><path d="M536 412C538.926 399.541 547.923 382.092 556.964 364.687 566.004 347.281 573.756 325.501 579.265 314.353 584.775 303.206 595.458 273.593 602.905 261 610.481 278.565 627.086 298.981 636.859 314.353 646.631 329.726 656.354 340.611 668.89 364.687 681.426 388.762 690.522 398.32 699 412 681.027 409.674 658.446 411.026 644.667 412 630.887 412.974 610.191 412.544 590.333 412 570.475 411.456 561.658 410.324 536 412Z" fill="#F6C6AD" fill-rule="evenodd"/><path d="M536 412C545.977 394.323 550.866 382.835 559.64 358.647 568.414 334.459 570.749 328.772 582.61 306.803 594.472 284.835 597.962 270.786 602.905 261 611.094 270.871 617.755 284.49 632.054 306.803 646.353 329.117 654.435 340.66 664.086 357.137 673.736 373.614 688.125 390.441 699 412 681.962 414.09 668.628 409.351 644.667 412 620.705 414.649 609.097 412.699 593.593 412 578.09 411.301 561.367 414.391 536 412Z" stroke="#000000" stroke-width="2" stroke-miterlimit="8" fill="none" fill-rule="evenodd"/><path d="M277 449.315C295.136 450.921 320.878 450.497 335.276 449.315 349.674 448.134 371.71 448.278 395.412 449.315 419.115 450.353 440.992 451.78 462.988 449.315 461.949 460.659 462.975 481.089 462.988 497 446.059 496.468 431.173 497.954 404.712 497 378.25 496.046 359.51 498.011 338.996 497 318.482 495.989 304.762 496.78 277 497 277.009 479.875 276.333 466.588 277 449.315Z" fill="#2D7FCF" fill-rule="evenodd"/><path d="M462.988 449.315C472.478 439.058 482.349 431.563 492.494 419.658 502.639 407.752 512.28 402.623 522 390 521.247 411.284 520.212 426.465 522 437.685 513.125 446.182 499.567 459.073 494.264 465.563 488.962 472.053 475.509 483.406 462.988 497 461.186 480.024 465.168 464.249 462.988 449.315Z" fill="#2466A6" fill-rule="evenodd"/><path d="M277 449.315C291.226 434.755 292.687 434.812 307.096 419.065 321.505 403.318 324.624 399.302 336.012 390 356.795 390.183 371.079 387.759 394.288 390 417.497 392.241 427.251 391.563 452.565 390 477.878 388.437 500.425 391.799 522 390 513.567 395.849 504.152 405.008 491.314 420.844 478.475 436.68 473.211 437.798 462.988 449.315 439.775 450.722 416.906 446.149 399.132 449.315 381.358 452.482 356.158 448.662 337.136 449.315 318.114 449.969 295.452 447.578 277 449.315Z" fill="#5698D8" fill-rule="evenodd"/><path d="M277 449.315C290.141 434.501 297.159 429.507 307.096 419.065 317.033 408.622 321.346 402.914 336.012 390 349.08 387.57 377.34 390.134 396.148 390 414.956 389.866 440.706 386.739 461.864 390 483.022 393.261 494.959 389.375 522 390 520.968 409.099 523.503 419.349 522 437.685 509.682 452.614 500.96 456.204 493.674 466.156 486.389 476.108 471.055 488.401 462.988 497 443.177 498.423 425.56 497.825 404.712 497 383.864 496.175 369.392 497.35 342.716 497 316.039 496.65 304.401 499.979 277 497 274.789 479.358 279.298 460.102 277 449.315ZM277 449.315C297.589 450.285 317.674 447.218 340.856 449.315 364.038 451.412 387.043 446.373 404.712 449.315 422.38 452.258 445.324 450.765 462.988 449.315 475.837 437.728 478.957 434.206 490.724 421.437 502.49 408.668 511.071 398.971 522 390M462.988 449.315C463.478 466.574 462.973 484.909 462.988 497" stroke="#000000" stroke-width="2" stroke-miterlimit="8" fill="none" fill-rule="evenodd"/><path d="M128 223.335C124.942 180.961 159.852 155.311 201.388 150 208.383 148.728 224.51 152.39 236.114 150 247.719 147.61 288.646 156.102 312.752 150 336.858 143.898 361.943 155.396 389.39 150 416.836 144.604 434.949 151.907 449.263 150 463.577 148.093 494.11 158.497 525.9 150 557.691 141.503 558.781 153.97 585.774 150 612.766 146.03 616.052 152.587 637.265 150 658.477 147.413 671.968 150.669 688.755 150 705.542 149.331 727.899 157.145 748.629 150 769.358 142.855 766.97 151.605 783.355 150 799.74 148.395 805.602 153.301 818.081 150 830.561 146.699 849.466 150.649 861.19 150 872.915 149.351 894.534 150.587 904.299 150 914.064 149.413 946.938 152.697 964.172 150 981.405 147.303 1015.06 156.435 1039.61 150 1079.54 140.798 1118.43 186.584 1113 223.335 1119.73 247.173 1105.31 260.895 1113 287.867 1120.69 314.84 1110.39 331.316 1113 346.534 1115.61 361.751 1109.19 376.724 1113 396.4 1116.81 416.076 1109.21 431.379 1113 460.932 1116.79 490.486 1112.8 495.363 1113 516.665 1106.04 555.119 1088.37 590.432 1039.61 590 1010.46 590.499 990.108 588.186 971.357 590 952.606 591.814 924.493 587.932 903.101 590 881.71 592.068 869.925 586.459 859.993 590 850.06 593.541 814.672 587.905 800.119 590 785.566 592.095 751.395 586.809 723.482 590 695.569 593.191 692.289 587.329 680.373 590 668.457 592.671 626.809 588.929 612.118 590 597.427 591.071 571.648 589.18 543.862 590 516.077 590.82 511.596 585.757 500.754 590 489.911 594.243 464.982 583.7 432.498 590 400.015 596.3 393.134 587.933 372.625 590 352.116 592.067 337.285 589.22 321.134 590 304.983 590.78 296.094 585.651 278.025 590 259.956 594.349 228.855 585.707 201.388 590 167.89 597.088 129.946 554.509 128 516.665 121.628 498.745 134.06 472.496 128 455.066 121.94 437.635 131.963 417.729 128 393.466 124.037 369.204 128.301 358.111 128 343.6 127.699 329.089 128.587 311.414 128 284.934 127.413 258.454 134.434 253.509 128 223.335Z" stroke="#000000" stroke-width="2" stroke-miterlimit="8" fill="none" fill-rule="evenodd"/><path d="M128 162C127.416 143.647 144.553 134.136 156.5 132 171.358 127.199 183.86 145.379 185 162 183.658 180.874 171.303 193.356 156.5 192 140.799 191.578 128.693 181.733 128 162Z" fill="#FFFFFF" fill-rule="evenodd"/><path d="M128 162C128.046 140.811 141.365 134.711 156.5 132 169.681 132.839 184.018 142.227 185 162 183.321 178.43 174.007 192.484 156.5 192 140.026 193.76 129.262 182.313 128 162Z" stroke="#000000" stroke-width="2" stroke-miterlimit="8" fill="none" fill-rule="evenodd"/><text font-family="Calibri,Calibri_MSFontService,sans-serif" font-weight="400" font-size="32" transform="translate(148.305 173)">2</text><path d="M817 427.836C809.607 424.604 858.341 424.637 912.5 414 965.246 412.896 1008.03 421.951 1008 427.836 1009.31 454.804 1006.2 465.067 1008 483.164 1002.94 498 968.881 497.258 912.5 497 860.485 497.368 815.99 491.403 817 483.164 814.57 457.828 819.329 441.951 817 427.836Z" fill="#3B7D23" fill-rule="evenodd"/><path d="M1008 427.836C1011.32 436.426 962.052 439.337 912.5 441.672 859.362 441.537 818.234 435.837 817 427.836" stroke="#000000" stroke-width="2" stroke-miterlimit="8" fill="none" fill-rule="evenodd"/><path d="M817 427.836C815.206 419.933 865.347 408.607 912.5 414 966.396 415.285 1007.02 419.438 1008 427.836 1006.54 451.156 1007.84 467.288 1008 483.164 1009.8 489.924 973.362 491.28 912.5 497 860.225 497.945 815.955 490.483 817 483.164 819.709 471.568 819.029 452.91 817 427.836Z" stroke="#000000" stroke-width="2" stroke-miterlimit="8" fill="none" fill-rule="evenodd"/><path d="M930.885 256.291C937.215 271.517 946.16 284.191 960.721 312.36 975.281 340.529 976.553 342.184 988.818 365.162 1001.08 388.141 1007.25 398.523 1017.78 419.598 1005.77 427.085 999.814 431.121 986.447 443.038 977.793 422.894 969.013 404.884 956.611 386.969 944.209 369.053 942.723 354.832 929.383 335.799 916.042 316.766 914.687 303.647 899.547 279.73 909.255 271.23 924.793 262.172 930.885 256.291Z" fill="#80350E" fill-rule="evenodd"/><path d="M930.885 256.291C935.477 269.608 952.373 291.078 958.982 309.094 965.592 327.109 980.562 343.999 988.818 365.162 997.075 386.326 1003.25 398.332 1017.78 419.598 1005.52 429.427 1000.34 430.812 986.447 443.038 976.228 420.052 968.213 407.986 959.218 391.868 950.224 375.75 939.445 355.624 931.99 340.698 924.534 325.773 911.053 299.939 899.547 279.73 910.492 269.754 916.014 267.613 930.885 256.291Z" stroke="#000000" stroke-width="2" stroke-miterlimit="8" fill="none" fill-rule="evenodd"/><path d="M811 443C819.17 430.194 826.931 416.974 838.417 391.613 849.902 366.253 854.605 364.743 867.583 336.947 880.562 309.15 888 304.267 898.5 279 907.675 294.186 924.061 320.735 929.417 336.947 934.772 353.158 946.301 363.681 958.583 391.613 970.866 419.546 976.948 427.442 986 443 967.044 440.09 949.054 440.902 927.667 443 906.279 445.098 896.167 441.961 869.333 443 842.5 444.039 837.909 443.653 811 443Z" fill="#C04F15" fill-rule="evenodd"/><path d="M811 443C823.479 413.322 835.415 399.045 841.917 385.053 848.419 371.061 863.537 346.088 871.958 328.747 880.379 311.406 891.618 291.308 898.5 279 908.824 302.358 911.864 309.41 925.042 328.747 938.219 348.083 941.024 356.191 954.208 383.413 967.392 410.636 977.469 427.767 986 443 960.186 442.793 954.69 445.809 927.667 443 900.643 440.191 898.323 443.082 872.833 443 847.344 442.918 824.547 441.862 811 443Z" stroke="#000000" stroke-width="2" stroke-miterlimit="8" fill="none" fill-rule="evenodd"/></g></svg>