<svg width="1280" height="720" xmlns="http://www.w3.org/2000/svg" xmlns:xlink="http://www.w3.org/1999/xlink" overflow="hidden"><g><rect x="0" y="0" width="1280" height="720" fill="#FFFFFF"/><path d="M1094.86 404.513 1094.87 407.505 1094.48 410.543 1092.62 416.15 1092.17 416.895 1089.61 415.327 1089.98 414.729 1089.83 415.042 1091.59 409.737 1091.53 410.019 1091.88 407.223 1091.87 407.421 1091.86 404.529ZM1086.71 424.354 1085.14 426.096 1079.88 430.428 1077.18 432.192 1075.54 429.68 1078.17 427.962 1078.04 428.061 1083.14 423.852 1082.98 424.001 1084.49 422.34ZM1069.31 436.8 1067.16 437.954 1059.91 441.22 1058.05 441.744 1057.23 438.856 1058.99 438.363 1058.78 438.439 1065.88 435.24 1065.78 435.286 1067.89 434.156ZM1049.23 443.921 1048.32 444.12 1042.41 444.975 1037.08 445.262 1036.91 442.266 1042.18 441.983 1042.05 441.996 1047.84 441.159 1047.73 441.179 1048.59 440.991ZM1027.77 444.39 1025.02 443.854 1019.62 441.859 1016.22 439.83 1017.76 437.253 1021.04 439.211 1020.79 439.092 1025.95 440.998 1025.72 440.933 1028.35 441.446ZM1008.26 436.025 1007.76 435.798 1001.45 431.839 998.09 428.952 1000.05 426.678 1003.32 429.491 1003.14 429.358 1009.27 433.202 1009.09 433.106 1009.5 433.291ZM991.862 422.147 991.754 422.017 988.535 416.269 986.737 410.741 989.59 409.813 991.343 415.201 991.225 414.932 994.304 420.431 994.149 420.205 994.169 420.229ZM985.96 401.223 986.096 399.65 989.085 399.908 988.949 401.482ZM980.359 407.429 987.847 396.813 993.402 408.556C993.756 409.305 993.437 410.199 992.688 410.553 991.939 410.908 991.044 410.588 990.69 409.839L986.235 400.42 988.817 400.643 982.811 409.158C982.333 409.835 981.398 409.996 980.721 409.519 980.044 409.041 979.882 408.106 980.359 407.429Z" fill="#156082"/><path d="M113 360C134.734 359.363 154.594 360.535 185.857 360 217.12 359.465 245.218 355.287 279.114 360 313.011 364.713 351.714 357.517 372.371 360 393.029 362.483 406.018 358.3 414.629 360 423.239 361.7 461.151 360.77 487.486 360 513.821 359.23 519.041 358.123 529.743 360 540.444 361.877 551.562 360.119 572 360 592.438 359.881 620.806 361.668 634.657 360 648.509 358.332 685.506 357.627 707.514 360 729.522 362.373 733.723 360.402 749.771 360 765.819 359.598 785.67 361.118 802.229 360 818.787 358.882 849.129 356.825 864.886 360 880.643 363.175 894.659 361.937 907.143 360 919.627 358.063 937.46 359.092 949.4 360 961.34 360.908 994.08 361.026 1022.26 360 1050.43 358.974 1081.15 363.666 1133 360 1133.23 361.349 1133.03 363.29 1133 365 1104.71 365.556 1096.38 367.057 1060.14 365 1023.91 362.943 1013.25 361.854 997.486 365 981.72 368.146 957.833 366.173 934.829 365 911.824 363.827 864.43 367.764 841.571 365 818.713 362.236 810.238 365.268 799.314 365 788.39 364.732 739.39 366.454 716.257 365 693.124 363.546 676.89 363.368 653.6 365 630.31 366.632 619.582 364.262 601.143 365 582.704 365.738 543.21 363.02 528.286 365 513.362 366.98 479.705 369.217 445.229 365 410.752 360.783 413.69 367.014 382.571 365 351.452 362.986 341.436 367.404 330.114 365 318.792 362.596 286.94 368.047 257.257 365 227.574 361.953 203.667 367.87 184.4 365 165.133 362.13 142.369 367.589 113 365 112.969 362.69 112.826 361.589 113 360Z" fill-rule="evenodd"/><path d="M113 360C152.502 363.033 177.194 361.76 206.257 360 235.321 358.24 242.742 358.51 258.714 360 274.687 361.49 286.557 362.309 311.171 360 335.785 357.691 343.207 357.389 363.629 360 384.05 362.611 392.222 361.199 405.886 360 419.55 358.801 430.472 359.182 448.143 360 465.814 360.818 476.704 359.065 490.4 360 504.096 360.935 518.672 360.481 532.657 360 546.642 359.519 587.343 363.339 605.514 360 623.685 356.661 655.885 356.155 698.771 360 741.658 363.845 731.596 358.445 741.029 360 750.461 361.555 788.622 363.107 803.686 360 818.749 356.893 830.964 359.085 845.943 360 860.922 360.915 883.051 360.13 908.6 360 934.149 359.87 940.428 361.14 950.857 360 961.286 358.86 1003.99 356.597 1023.71 360 1043.44 363.403 1095.11 359.104 1133 360 1133.08 361.225 1133 362.507 1133 365 1109.9 368.79 1092.77 364.544 1060.14 365 1027.51 365.456 1017.31 368.293 977.086 365 936.864 361.707 952.656 364.016 934.829 365 917.001 365.984 877.322 367.835 861.971 365 846.621 362.165 804.914 363.798 789.114 365 773.315 366.202 742.445 368.181 726.457 365 710.47 361.819 671.315 368.622 653.6 365 635.885 361.378 580.962 360.664 560.343 365 539.724 369.336 524.926 368.032 497.686 365 470.446 361.968 470.367 363.347 455.429 365 440.49 366.653 417.18 361.433 382.571 365 347.963 368.567 318.863 363.925 299.514 365 280.166 366.075 252.087 362.094 226.657 365 201.227 367.906 144.607 370.35 113 365 112.936 363.273 112.809 362.314 113 360Z" stroke="#000000" stroke-width="2" stroke-miterlimit="8" fill="none" fill-rule="evenodd"/><path d="M639 343C640.609 343.027 642.066 343.1 643 343 641.176 351.049 641.798 367.821 643 380 641.452 379.905 640.889 379.895 639 380 639.029 364.881 637.074 354.445 639 343Z" fill-rule="evenodd"/><path d="M639 343C640.238 343.041 641.399 343.127 643 343 643.663 355.092 643.755 365.309 643 380 641.828 380.128 640.538 380.166 639 380 638.11 367.603 639.076 359.572 639 343Z" stroke="#000000" stroke-width="2" stroke-miterlimit="8" fill="none" fill-rule="evenodd"/><path d="M789 340C790.609 340.028 792.066 340.103 793 340 791.176 348.266 791.798 365.492 793 378 791.452 377.902 790.889 377.892 789 378 789.029 362.472 787.074 351.754 789 340Z" fill-rule="evenodd"/><path d="M789 340C790.238 340.042 791.399 340.131 793 340 793.663 352.419 793.755 362.912 793 378 791.828 378.132 790.538 378.171 789 378 788.11 365.268 789.076 357.02 789 340Z" stroke="#000000" stroke-width="2" stroke-miterlimit="8" fill="none" fill-rule="evenodd"/><path d="M942 341C943.609 341.028 945.066 341.103 946 341 944.176 349.266 944.798 366.492 946 379 944.452 378.902 943.889 378.892 942 379 942.029 363.472 940.074 352.754 942 341Z" fill-rule="evenodd"/><path d="M942 341C943.238 341.042 944.399 341.131 946 341 946.663 353.419 946.755 363.912 946 379 944.828 379.132 943.538 379.171 942 379 941.11 366.268 942.076 358.02 942 341Z" stroke="#000000" stroke-width="2" stroke-miterlimit="8" fill="none" fill-rule="evenodd"/><path d="M488 341C489.609 341.028 491.066 341.103 492 341 490.176 349.266 490.798 366.492 492 379 490.452 378.902 489.889 378.892 488 379 488.029 363.472 486.074 352.754 488 341Z" fill-rule="evenodd"/><path d="M488 341C489.238 341.042 490.399 341.131 492 341 492.663 353.419 492.755 363.912 492 379 490.828 379.132 489.538 379.171 488 379 487.11 366.268 488.076 358.02 488 341Z" stroke="#000000" stroke-width="2" stroke-miterlimit="8" fill="none" fill-rule="evenodd"/><path d="M336 342C337.609 342.028 339.066 342.103 340 342 338.176 350.266 338.798 367.492 340 380 338.452 379.902 337.889 379.892 336 380 336.029 364.472 334.074 353.754 336 342Z" fill-rule="evenodd"/><path d="M336 342C337.238 342.042 338.399 342.131 340 342 340.663 354.419 340.755 364.912 340 380 338.828 380.132 337.538 380.171 336 380 335.11 367.268 336.076 359.02 336 342Z" stroke="#000000" stroke-width="2" stroke-miterlimit="8" fill="none" fill-rule="evenodd"/><path d="M185 340C186.609 340.028 188.066 340.103 189 340 187.176 348.266 187.798 365.492 189 378 187.452 377.902 186.889 377.892 185 378 185.029 362.472 183.074 351.754 185 340Z" fill-rule="evenodd"/><path d="M185 340C186.238 340.042 187.399 340.131 189 340 189.663 352.419 189.755 362.912 189 378 187.828 378.132 186.538 378.171 185 378 184.11 365.268 185.076 357.02 185 340Z" stroke="#000000" stroke-width="2" stroke-miterlimit="8" fill="none" fill-rule="evenodd"/><text font-family="Calibri,Calibri_MSFontService,sans-serif" font-weight="400" font-size="43" transform="translate(172.864 317)">0</text><rect x="1002" y="245" width="106" height="35" stroke="#FFFFFF" stroke-width="2" stroke-miterlimit="8" fill="#FFFFFF"/><text font-family="Calibri,Calibri_MSFontService,sans-serif" font-weight="400" font-size="43" transform="translate(325.359 317)">4</text><text font-family="Calibri,Calibri_MSFontService,sans-serif" font-weight="400" font-size="43" transform="translate(477.307 317)">8</text><text font-family="Calibri,Calibri_MSFontService,sans-serif" font-weight="400" font-size="43" transform="translate(622.481 317)">12</text><text font-family="Calibri,Calibri_MSFontService,sans-serif" font-weight="400" font-size="43" transform="translate(769.286 317)">16</text><text font-family="Calibri,Calibri_MSFontService,sans-serif" font-weight="400" font-size="43" transform="translate(921.782 317)">20</text><path d="M186.032 266.528 188.354 260.237 190.915 254.28 193.725 248.693 196.804 243.478 200.175 238.641 203.857 234.189 207.87 230.127 212.232 226.462 216.959 223.202 222.068 220.351 227.572 217.915 233.488 215.894 239.832 214.292 246.621 213.109 253.873 212.346 261.703 212 275.41 213.862 288.577 216.942 300.943 221.311 312.142 227.021 317.247 230.429 321.914 234.188 326.123 238.323 329.827 242.84 332.976 247.747 335.524 253.047 337.422 258.739 338.031 261.819 335.088 262.402 334.497 259.415 334.546 259.598 332.708 254.085 332.779 254.261 330.312 249.13 330.402 249.29 327.349 244.534 327.451 244.675 323.854 240.287 323.963 240.406 319.865 236.38 319.975 236.478 315.417 232.807 315.525 232.887 310.55 229.565 310.701 229.653 299.669 224.029 299.85 224.107 287.656 219.798 287.814 219.844 274.796 216.799 274.936 216.825 261.433 214.99 261.701 215.003 254.051 215.341 254.142 215.334 246.985 216.087 247.086 216.073 240.402 217.238 240.512 217.215 234.282 218.788 234.4 218.753 228.604 220.732 228.726 220.684 223.345 223.067 223.469 223.005 218.483 225.787 218.604 225.712 213.994 228.891 214.107 228.805 209.853 232.379 209.955 232.285 206.038 236.25 206.127 236.152 202.526 240.505 202.601 240.407 199.298 245.147 199.359 245.052 196.334 250.174 196.382 250.086 193.616 255.588 193.654 255.507 191.126 261.386 191.155 261.313 188.847 267.567ZM341.381 252.753 337.138 265.031 328.539 255.293C327.99 254.672 328.049 253.724 328.67 253.176 329.291 252.628 330.239 252.687 330.787 253.308L337.684 261.117 335.142 261.62 338.546 251.773C338.816 250.99 339.67 250.574 340.453 250.845 341.236 251.115 341.652 251.97 341.381 252.753Z" fill="#4EA72E"/><path d="M342.97 269.167 347.582 256.981 353.561 246.127 357.076 241.207 360.907 236.685 365.066 232.547 369.551 228.803 374.357 225.462 379.48 222.531 384.915 220.021 390.658 217.937 396.703 216.288 403.048 215.078 409.688 214.315 416.733 213.999 430.089 216.308 442.889 219.65 454.918 224.141 465.822 229.873 470.796 233.266 475.348 237 479.456 241.102 483.075 245.586 486.157 250.461 488.655 255.736 490.524 261.415 491.131 264.498 488.187 265.077 487.599 262.085 487.646 262.264 485.835 256.763 485.904 256.936 483.485 251.828 483.572 251.987 480.585 247.262 480.686 247.403 477.172 243.049 477.28 243.168 473.28 239.174 473.389 239.273 468.945 235.628 469.051 235.707 464.203 232.4 464.35 232.488 453.606 226.841 453.779 226.919 441.911 222.487 442.057 222.533 429.392 219.227 429.516 219.253 416.382 216.982 416.705 217.003 409.874 217.309 409.978 217.301 403.446 218.052 403.555 218.035 397.323 219.223 397.437 219.197 391.507 220.815 391.623 220.778 385.998 222.819 386.115 222.771 380.797 225.228 380.912 225.168 375.903 228.033 376.015 227.962 371.317 231.229 371.422 231.148 367.039 234.808 367.135 234.72 363.068 238.767 363.155 238.673 359.406 243.099 359.481 243.002 356.053 247.8 356.147 247.651 350.262 258.336 350.351 258.143 345.776 270.229ZM494.491 255.435 490.233 267.709 481.646 257.961C481.098 257.339 481.158 256.392 481.78 255.844 482.401 255.296 483.349 255.356 483.897 255.978L490.784 263.796 488.242 264.296 491.657 254.452C491.928 253.67 492.783 253.255 493.566 253.527 494.348 253.798 494.763 254.653 494.491 255.435Z" fill="#4EA72E"/><path d="M491.965 265.872 494.008 260.218 496.493 254.816 499.38 249.724 502.668 244.921 510.261 236.33 519.181 228.974 529.255 222.872 540.335 218.018 552.278 214.402 565.023 212.001 571.791 212.147 578.45 212.721 585.052 213.72 591.541 215.142 597.862 216.984 603.958 219.243 609.773 221.917 615.251 225.006 620.334 228.508 624.963 232.422 629.078 236.748 632.617 241.484 635.515 246.625 637.708 252.164 639.134 258.089 639.441 261.325 636.454 261.609 636.157 258.478 636.192 258.687 634.816 252.969 634.88 253.17 632.763 247.825 632.851 248.009 630.051 243.041 630.156 243.202 626.728 238.615 626.843 238.751 622.845 234.549 622.964 234.66 618.453 230.846 618.571 230.936 613.605 227.515 613.719 227.586 608.354 224.561 608.463 224.617 602.756 221.993 602.862 222.036 596.869 219.816 596.971 219.849 590.75 218.037 590.849 218.062 584.457 216.661 584.554 216.679 578.048 215.694 578.144 215.706 571.582 215.14 571.678 215.146 565.115 215.004 565.425 214.978 552.912 217.335 553.069 217.297 541.289 220.863 541.457 220.802 530.549 225.58 530.724 225.489 520.829 231.483 521.006 231.358 512.261 238.569 512.431 238.406 504.977 246.838 505.091 246.692 501.892 251.366 501.959 251.259 499.134 256.24 499.192 256.127 496.76 261.414 496.808 261.298 494.786 266.892ZM643.685 252.641 638.229 264.431 630.652 253.878C630.169 253.206 630.323 252.268 630.995 251.785 631.668 251.302 632.606 251.456 633.089 252.129L639.166 260.592 636.586 260.837 640.962 251.381C641.31 250.629 642.202 250.302 642.953 250.65 643.705 250.998 644.033 251.889 643.685 252.641Z" fill="#4EA72E"/><path d="M640.97 269.167 645.582 256.981 651.561 246.127 655.076 241.207 658.907 236.685 663.066 232.547 667.551 228.803 672.357 225.462 677.48 222.531 682.915 220.021 688.658 217.937 694.703 216.288 701.048 215.078 707.688 214.315 714.733 213.999 728.089 216.308 740.889 219.65 752.918 224.141 763.822 229.873 768.796 233.266 773.348 237 777.456 241.102 781.075 245.586 784.157 250.461 786.655 255.736 788.524 261.415 789.131 264.498 786.187 265.077 785.599 262.085 785.646 262.264 783.835 256.763 783.904 256.936 781.485 251.828 781.572 251.987 778.585 247.262 778.686 247.403 775.172 243.049 775.28 243.168 771.28 239.174 771.389 239.273 766.945 235.628 767.051 235.707 762.203 232.4 762.35 232.488 751.606 226.841 751.779 226.919 739.911 222.487 740.057 222.533 727.392 219.227 727.516 219.253 714.382 216.982 714.705 217.003 707.874 217.309 707.978 217.301 701.446 218.052 701.555 218.035 695.323 219.223 695.437 219.197 689.506 220.815 689.623 220.778 683.998 222.819 684.115 222.771 678.797 225.228 678.912 225.168 673.903 228.033 674.015 227.962 669.317 231.229 669.422 231.148 665.039 234.808 665.135 234.72 661.068 238.767 661.155 238.673 657.406 243.099 657.481 243.002 654.053 247.8 654.147 247.651 648.262 258.336 648.351 258.143 643.776 270.229ZM792.491 255.435 788.233 267.709 779.646 257.961C779.098 257.339 779.158 256.392 779.78 255.844 780.401 255.296 781.349 255.356 781.897 255.978L788.784 263.796 786.242 264.296 789.657 254.452C789.928 253.67 790.783 253.255 791.566 253.527 792.348 253.798 792.763 254.653 792.491 255.435Z" fill="#4EA72E"/><path d="M1092 343C1093.21 343.027 1094.3 343.1 1095 343 1093.63 351.049 1094.1 367.821 1095 380 1093.84 379.905 1093.42 379.895 1092 380 1092.02 364.881 1090.56 354.445 1092 343Z" fill-rule="evenodd"/><path d="M1092 343C1092.93 343.041 1093.8 343.127 1095 343 1095.5 355.092 1095.57 365.309 1095 380 1094.12 380.128 1093.15 380.166 1092 380 1091.33 367.603 1092.06 359.572 1092 343Z" stroke="#000000" stroke-width="2" stroke-miterlimit="8" fill="none" fill-rule="evenodd"/><text font-family="Calibri,Calibri_MSFontService,sans-serif" font-weight="400" font-size="43" transform="translate(1071.19 318)">24</text><path d="M793.031 268.953 795.353 262.614 797.913 256.611 800.723 250.98 803.802 245.725 807.172 240.851 810.853 236.364 814.866 232.27 819.228 228.577 823.955 225.291 829.064 222.418 834.568 219.962 840.485 217.925 846.829 216.311 853.619 215.118 860.873 214.349 868.704 214 882.412 215.877 895.581 218.981 907.947 223.385 919.147 229.14 924.251 232.575 928.919 236.364 933.127 240.53 936.83 245.083 939.979 250.027 942.525 255.366 944.423 261.101 945.036 264.226 942.092 264.804 941.497 261.772 941.545 261.954 939.707 256.398 939.777 256.573 937.31 251.401 937.399 251.561 934.346 246.768 934.448 246.908 930.851 242.486 930.959 242.605 926.861 238.548 926.971 238.646 922.412 234.947 922.52 235.026 917.545 231.678 917.697 231.768 906.664 226.099 906.847 226.178 894.652 221.835 894.811 221.882 881.794 218.813 881.934 218.839 868.432 216.99 868.702 217.003 861.052 217.344 861.143 217.337 853.986 218.096 854.088 218.082 847.404 219.256 847.515 219.232 841.285 220.817 841.403 220.782 835.607 222.777 835.73 222.728 830.349 225.129 830.474 225.067 825.488 227.871 825.609 227.795 820.999 231 821.112 230.913 816.858 234.515 816.96 234.42 813.042 238.417 813.13 238.318 809.53 242.706 809.604 242.608 806.301 247.385 806.362 247.29 803.336 252.453 803.385 252.364 800.618 257.91 800.655 257.829 798.128 263.755 798.156 263.682 795.848 269.985ZM948.399 255.165 944.138 267.436 935.553 257.686C935.006 257.064 935.066 256.117 935.688 255.569 936.31 255.022 937.257 255.082 937.805 255.704L944.69 263.524 942.147 264.023 945.565 254.18C945.837 253.398 946.692 252.984 947.474 253.256 948.257 253.527 948.671 254.382 948.399 255.165Z" fill="#4EA72E"/><path d="M946.708 264.22 948.34 259.851 950.369 255.976 952.737 252.699 955.417 250.048 958.375 248.064 961.566 246.792 964.929 246.278 968.538 246.563 970.969 247.878 973.365 249.675 975.765 251.991 978.04 254.789 980.052 258.03 981.653 261.675 982.685 265.68 982.77 266.878 979.777 267.09 979.702 266.028 979.746 266.297 978.778 262.542 978.857 262.77 977.348 259.333 977.447 259.522 975.542 256.452 975.653 256.607 973.495 253.954 973.617 254.087 971.349 251.899 971.491 252.019 969.258 250.345 969.444 250.464 967.39 249.353 967.985 249.529 964.866 249.283 965.211 249.27 962.189 249.732 962.518 249.643 959.633 250.792 959.914 250.644 957.206 252.46 957.425 252.281 954.935 254.744 955.096 254.557 952.863 257.646 952.976 257.464 951.041 261.159 951.117 260.988 949.519 265.269ZM987.222 258.299 981.484 269.953 974.163 259.222C973.696 258.537 973.873 257.604 974.557 257.137 975.241 256.67 976.175 256.847 976.641 257.531L982.513 266.139 979.928 266.321 984.53 256.974C984.896 256.23 985.796 255.925 986.539 256.29 987.282 256.656 987.588 257.556 987.222 258.299Z" fill="#4EA72E"/><path d="M1017 349C1017.49 348.932 1018.28 349.008 1019 349 1019.58 357.178 1019.4 363.642 1019 372 1018.25 371.997 1017.82 371.987 1017 372 1017.03 364.391 1015.87 354.555 1017 349Z" fill-rule="evenodd"/><path d="M1017 349C1017.53 348.947 1018.43 349.036 1019 349 1018.06 358.375 1018.95 361.712 1019 372 1018.42 372.037 1017.85 372.077 1017 372 1017.71 364.082 1017.88 354.1 1017 349Z" stroke="#000000" stroke-width="2" stroke-miterlimit="8" fill="none" fill-rule="evenodd"/><path d="M1053 349C1053.49 348.932 1054.28 349.008 1055 349 1055.58 357.178 1055.4 363.642 1055 372 1054.25 371.997 1053.82 371.987 1053 372 1053.03 364.391 1051.87 354.555 1053 349Z" fill-rule="evenodd"/><path d="M1053 349C1053.53 348.947 1054.43 349.036 1055 349 1054.06 358.375 1054.95 361.712 1055 372 1054.42 372.037 1053.85 372.077 1053 372 1053.71 364.082 1053.88 354.1 1053 349Z" stroke="#000000" stroke-width="2" stroke-miterlimit="8" fill="none" fill-rule="evenodd"/><path d="M983 350C983.495 349.935 984.283 350.008 985 350 985.576 357.822 985.398 364.005 985 372 984.245 371.998 983.824 371.987 983 372 983.029 364.722 981.874 355.313 983 350Z" fill-rule="evenodd"/><path d="M983 350C983.528 349.949 984.431 350.035 985 350 984.063 358.968 984.955 362.159 985 372 984.423 372.035 983.848 372.073 983 372 983.71 364.426 983.876 354.879 983 350Z" stroke="#000000" stroke-width="2" stroke-miterlimit="8" fill="none" fill-rule="evenodd"/><path d="M978 362.5C977.913 359.362 981.215 356.987 984 357 987.718 357.115 990.247 359.247 990 362.5 989.663 365.96 987.143 368.571 984 368 981.14 367.936 978.324 365.708 978 362.5Z" fill="#7F7F7F" fill-rule="evenodd"/><path d="M978 362.5C977.619 359.53 980.951 357.597 984 357 987.396 356.906 990.057 359.326 990 362.5 989.783 365.963 987.289 368.109 984 368 980.721 368.097 977.833 365.127 978 362.5Z" stroke="#000000" stroke-width="2" stroke-miterlimit="8" fill="none" fill-rule="evenodd"/><path d="M-0.467916 53.0282 1.85419 46.7375 4.41527 40.7804 7.22488 35.1925 10.3044 29.9778 13.675 25.1412 17.3571 20.6886 21.3701 16.6266 25.732 12.9622 30.4594 9.70188 35.5677 6.85128 41.0721 4.4145 46.988 2.39426 53.3317 0.792186 60.1207-0.390775 67.3734-1.15386 75.2033-1.5004 88.9102 0.361678 102.077 3.44195 114.443 7.8111 125.642 13.5207 130.746 16.9289 135.414 20.6881 139.623 24.8225 143.326 29.3402 146.476 34.2471 149.024 39.5465 150.922 45.239 151.531 48.3192 148.588 48.9015 147.997 45.9145 148.046 46.0979 146.208 40.5854 146.279 40.7608 143.812 35.6298 143.902 35.7902 140.849 31.034 140.951 31.1747 137.354 26.7869 137.463 26.9061 133.365 22.8801 133.475 22.9782 128.917 19.3074 129.025 19.3866 124.05 16.0645 124.201 16.1534 113.168 10.5288 113.35 10.6067 101.156 6.29804 101.314 6.3443 88.2961 3.29902 88.4359 3.3248 74.933 1.49044 75.2012 1.50262 67.5514 1.84119 67.6421 1.83442 60.4851 2.58744 60.5857 2.57341 53.9021 3.73801 54.0118 3.71462 47.782 5.28793 47.8995 5.2531 42.1039 7.23225 42.2263 7.18435 36.8454 9.56647 36.9691 9.50472 31.9834 12.2869 32.104 12.2119 27.4939 15.3913 27.6072 15.305 23.3531 18.8788 23.4554 18.7845 19.5379 22.7498 19.6267 22.6515 16.0263 27.0054 16.101 26.9071 12.798 31.6468 12.8589 31.5519 9.83384 36.6744 9.88238 36.5855 7.11571 42.088 7.15361 42.0066 4.6258 47.8862 4.65495 47.8132 2.34647 54.0671ZM154.881 39.2525 150.638 51.5307 142.039 41.7933C141.49 41.1723 141.549 40.2244 142.17 39.676 142.791 39.1277 143.739 39.1865 144.287 39.8075L151.184 47.6174 148.642 48.1204 152.046 38.2726C152.316 37.4896 153.17 37.0742 153.953 37.3448 154.736 37.6154 155.152 38.4695 154.881 39.2525Z" fill="#156082" transform="matrix(1 0 0 -1 185.5 454.5)"/><path d="M-0.528413 53.2399 4.08422 41.1482 10.0639 30.3771 13.5799 25.4946 17.4106 21.0074 21.5702 16.9015 26.055 13.1864 30.861 9.87098 35.9838 6.9639 41.4186 4.47314 47.1608 2.40602 53.2058 0.769316 59.5495-0.430649 66.1884-1.18784 73.232-1.50139 86.5866 0.789617 99.3856 4.10491 111.414 8.56131 122.318 14.2477 127.291 17.6145 131.844 21.319 135.952 25.3899 139.572 29.8395 142.654 34.6782 145.154 39.9134 147.024 45.55 147.626 48.589 144.683 49.1721 144.099 46.225 144.147 46.4058 142.336 40.9472 142.406 41.1211 139.987 36.0532 140.075 36.213 137.088 31.5247 137.19 31.6652 133.676 27.3453 133.784 27.4644 129.784 23.5017 129.893 23.5996 125.449 19.9831 125.555 20.0618 120.707 16.7802 120.854 16.868 110.11 11.265 110.283 11.3416 98.4146 6.94447 98.5596 6.98999 85.895 3.70949 86.0175 3.73582 72.8838 1.4827 73.2041 1.50282 66.3736 1.80688 66.4769 1.7987 59.9442 2.54379 60.053 2.52731 53.8205 3.70624 53.9337 3.68025 48.0036 5.28584 48.1196 5.24931 42.4942 7.27441 42.6111 7.22669 37.2926 9.66411 37.408 9.60507 32.3989 12.4476 32.5103 12.3778 27.8128 15.6183 27.9179 15.5388 23.5343 19.1701 23.6311 19.0825 19.5637 23.0975 19.6507 23.0039 15.9017 27.3953 15.9781 27.298 12.5499 32.0587 12.6441 31.9102 6.75904 42.5109 6.84907 42.3174 2.27456 54.3091ZM150.973 39.5213 146.733 51.8007 138.131 42.066C137.583 41.4452 137.641 40.4973 138.262 39.9487 138.883 39.4002 139.831 39.4587 140.379 40.0795L147.279 47.8873 144.737 48.391 148.137 38.5422C148.407 37.7591 149.261 37.3435 150.044 37.6138 150.827 37.8842 151.243 38.7382 150.973 39.5213Z" fill="#156082" transform="matrix(1 0 0 -1 342.5 456.5)"/><path d="M-0.533861 51.9453 1.50993 46.336 3.99543 40.9753 6.88295 35.9236 10.1712 31.1574 17.7655 22.6347 26.6856 15.337 36.759 9.2843 47.8383 4.46905 59.7802 0.882439 72.5244-1.49881 79.2902-1.35395 85.9483-0.785127 92.5495 0.206208 99.038 1.61674 105.358 3.44359 111.454 5.68437 117.269 8.33722 122.746 11.4009 127.829 14.8745 132.459 18.7577 136.574 23.0498 140.113 27.749 143.013 32.8509 145.207 38.3478 146.633 44.228 146.938 47.4169 143.952 47.7027 143.657 44.6204 143.693 44.8311 142.317 39.1585 142.381 39.3611 140.265 34.0587 140.354 34.2436 137.553 29.3152 137.659 29.4766 134.231 24.926 134.347 25.0617 130.35 20.8928 130.468 21.0038 125.958 17.2204 126.075 17.3096 121.109 13.9156 121.223 13.9863 115.858 10.9855 115.968 11.0411 110.26 8.43735 110.365 8.48054 104.373 6.27772 104.474 6.31084 98.2534 4.51278 98.3513 4.53754 91.9598 3.1481 92.0557 3.1657 85.5501 2.18872 85.6452 2.19991 79.0825 1.63924 79.1781 1.64434 72.6153 1.50383 72.9229 1.47865 60.4102 3.81664 60.5661 3.77877 48.7862 7.31673 48.9527 7.25581 38.0451 11.9964 38.2197 11.9065 28.3239 17.8525 28.5012 17.7277 19.7566 24.8818 19.9267 24.7188 12.4729 33.0837 12.5877 32.9376 9.38838 37.5749 9.45597 37.4675 6.63167 42.4086 6.69024 42.2951 4.25837 47.5403 4.30688 47.4228 2.28486 52.9723ZM151.176 38.7295 145.729 50.5232 138.144 39.9768C137.66 39.3042 137.813 38.3669 138.486 37.8832 139.158 37.3995 140.096 37.5526 140.579 38.2251L146.663 46.684 144.083 46.9309 148.452 37.4716C148.799 36.7195 149.691 36.3914 150.443 36.7388 151.195 37.0861 151.523 37.9774 151.176 38.7295Z" fill="#156082" transform="matrix(1 0 0 -1 491.5 451.5)"/><path d="M-0.528413 53.2399 4.08422 41.1482 10.0639 30.3771 13.5799 25.4946 17.4106 21.0074 21.5702 16.9015 26.055 13.1864 30.861 9.87098 35.9838 6.9639 41.4186 4.47314 47.1608 2.40602 53.2058 0.769316 59.5495-0.430649 66.1884-1.18784 73.232-1.50139 86.5866 0.789617 99.3856 4.10491 111.414 8.56131 122.318 14.2477 127.291 17.6145 131.844 21.319 135.952 25.3899 139.572 29.8395 142.654 34.6782 145.154 39.9134 147.024 45.55 147.626 48.589 144.683 49.1721 144.099 46.225 144.147 46.4058 142.336 40.9472 142.406 41.1211 139.987 36.0532 140.075 36.213 137.088 31.5247 137.19 31.6652 133.676 27.3453 133.784 27.4644 129.784 23.5017 129.893 23.5996 125.449 19.9831 125.555 20.0618 120.707 16.7802 120.854 16.868 110.11 11.265 110.283 11.3416 98.4146 6.94447 98.5596 6.98999 85.895 3.70949 86.0175 3.73582 72.8838 1.4827 73.2041 1.50282 66.3736 1.80688 66.4769 1.7987 59.9442 2.54379 60.053 2.52731 53.8205 3.70624 53.9337 3.68025 48.0036 5.28584 48.1196 5.24931 42.4942 7.27441 42.6111 7.22669 37.2926 9.66411 37.408 9.60507 32.3989 12.4476 32.5103 12.3778 27.8128 15.6183 27.9179 15.5388 23.5343 19.1701 23.6311 19.0825 19.5637 23.0975 19.6507 23.0039 15.9017 27.3953 15.9781 27.298 12.5499 32.0587 12.6441 31.9102 6.75904 42.5109 6.84907 42.3174 2.27456 54.3091ZM150.973 39.5213 146.733 51.8007 138.131 42.066C137.583 41.4452 137.641 40.4973 138.262 39.9487 138.883 39.4002 139.831 39.4587 140.379 40.0795L147.279 47.8873 144.737 48.391 148.137 38.5422C148.407 37.7591 149.261 37.3435 150.044 37.6138 150.827 37.8842 151.243 38.7382 150.973 39.5213Z" fill="#156082" transform="matrix(1 0 0 -1 640.5 456.5)"/><path d="M-0.467916 53.0282 1.85419 46.7375 4.41527 40.7804 7.22488 35.1925 10.3044 29.9778 13.675 25.1412 17.3571 20.6886 21.3701 16.6266 25.732 12.9622 30.4594 9.70188 35.5677 6.85128 41.0721 4.4145 46.988 2.39426 53.3317 0.792186 60.1207-0.390775 67.3734-1.15386 75.2033-1.5004 88.9102 0.361678 102.077 3.44195 114.443 7.8111 125.642 13.5207 130.746 16.9289 135.414 20.6881 139.623 24.8225 143.326 29.3402 146.476 34.2471 149.024 39.5465 150.922 45.239 151.531 48.3192 148.588 48.9015 147.997 45.9145 148.046 46.0979 146.208 40.5854 146.279 40.7608 143.812 35.6298 143.902 35.7902 140.849 31.034 140.951 31.1747 137.354 26.7869 137.463 26.9061 133.365 22.8801 133.475 22.9782 128.917 19.3074 129.025 19.3866 124.05 16.0645 124.201 16.1534 113.168 10.5288 113.35 10.6067 101.156 6.29804 101.314 6.3443 88.2961 3.29902 88.4359 3.3248 74.933 1.49044 75.2012 1.50262 67.5514 1.84119 67.6421 1.83442 60.4851 2.58744 60.5857 2.57341 53.9021 3.73801 54.0118 3.71462 47.782 5.28793 47.8995 5.2531 42.1039 7.23225 42.2263 7.18435 36.8454 9.56647 36.9691 9.50472 31.9834 12.2869 32.104 12.2119 27.4939 15.3913 27.6072 15.305 23.3531 18.8788 23.4554 18.7845 19.5379 22.7498 19.6267 22.6515 16.0263 27.0054 16.101 26.9071 12.798 31.6468 12.8589 31.5519 9.83384 36.6744 9.88238 36.5855 7.11571 42.088 7.15361 42.0066 4.6258 47.8862 4.65495 47.8132 2.34647 54.0671ZM154.881 39.2525 150.638 51.5307 142.039 41.7933C141.49 41.1723 141.549 40.2244 142.17 39.676 142.791 39.1277 143.739 39.1865 144.287 39.8075L151.184 47.6174 148.642 48.1204 152.046 38.2726C152.316 37.4896 153.17 37.0742 153.953 37.3448 154.736 37.6154 155.152 38.4695 154.881 39.2525Z" fill="#156082" transform="matrix(1 0 0 -1 792.5 456.5)"/><path d="M-0.529224 52.3558 1.63519 46.5763 4.29575 41.1393 7.39947 36.0973 10.9173 31.4355 14.8197 27.1378 19.0971 23.1683 28.5358 16.2522 39.0802 10.4769 50.4893 5.70543 62.5538 1.78349 75.2652-1.49119 81.5919-1.08611 87.8158-0.154217 94.0475 1.29185 100.228 3.2294 106.297 5.63645 112.195 8.49159 117.862 11.7739 123.237 15.463 128.261 19.5389 132.87 23.9822 137.003 28.7734 140.596 33.8934 143.583 39.3221 145.9 45.0381 147.477 51.0174 147.869 54.1819 144.892 54.5512 144.512 51.487 144.55 51.6849 143.023 45.8956 143.083 46.0763 140.836 40.531 140.912 40.6909 138.007 35.4114 138.093 35.5498 134.59 30.558 134.682 30.6762 130.643 25.9939 130.738 26.0941 126.225 21.7433 126.321 21.8281 121.394 17.8305 121.49 17.9025 116.212 14.2799 116.308 14.3412 110.739 11.1155 110.837 11.1676 105.039 8.36066 105.139 8.40486 99.1731 6.03848 99.2774 6.07545 93.2043 4.17147 93.314 4.20134 87.1957 2.7816 87.3127 2.80389 81.2105 1.89023 81.3368 1.9037 75.312 1.51795 75.7821 1.47359 63.3474 4.677 63.4369 4.65094 51.4752 8.53949 51.5902 8.49682 40.3104 13.2142 40.4522 13.146 30.0634 18.836 30.2294 18.7304 20.9404 25.5368 21.0741 25.4264 16.9074 29.2931 16.9975 29.202 13.1841 33.4018 13.271 33.2969 9.83696 37.8477 9.91699 37.7305 6.88856 42.6502 6.95852 42.5231 4.36177 47.8297 4.41916 47.6965 2.28023 53.4079ZM151.862 45.3792 146.747 57.3208 138.87 46.9909C138.368 46.3322 138.494 45.3909 139.153 44.8886 139.812 44.3863 140.753 44.513 141.255 45.1718L147.574 53.457 145.002 53.776 149.104 44.1981C149.43 43.4366 150.312 43.0836 151.073 43.4098 151.835 43.7359 152.188 44.6176 151.862 45.3792Z" fill="#156082" transform="matrix(1 0 0 -1 946.5 462.5)"/><text fill="#4EA72E" font-family="Calibri,Calibri_MSFontService,sans-serif" font-weight="400" font-size="27" transform="translate(951.848 240)">+1</text><text fill="#156082" font-family="Calibri,Calibri_MSFontService,sans-serif" font-weight="400" font-size="27" transform="translate(1026.46 433)">-</text><text fill="#156082" font-family="Calibri,Calibri_MSFontService,sans-serif" font-weight="400" font-size="27" transform="translate(1034.62 433)">3</text></g></svg>