<svg width="1280" height="720" xmlns="http://www.w3.org/2000/svg" xmlns:xlink="http://www.w3.org/1999/xlink" overflow="hidden"><g><rect x="0" y="0" width="1280" height="720" fill="#FFFFFF"/><path d="M393 434.5C386.406 332.669 454.132 252.667 572.5 263 663.775 247.21 741.253 337.804 752 434.5 764.66 544.88 660.849 593.307 572.5 606 477.015 608.378 393.954 525.411 393 434.5Z" stroke="#000000" stroke-width="2" stroke-miterlimit="8" fill="none" fill-rule="evenodd"/><path d="M916.068 576.007C853.907 679.578 741.072 680.147 656.622 604.511 574.786 551.785 566.094 426.301 628.451 345.029 692.279 253.345 808.916 268.772 887.897 316.525 964.731 372.407 965.604 507.343 916.068 576.007Z" stroke="#000000" stroke-width="2" stroke-miterlimit="8" fill="none" fill-rule="evenodd"/><path d="M433.847 440.268C443.218 442.797 457.292 441.681 477.896 442.463 498.5 443.246 503.082 442.845 521.945 444.658 521.069 469.947 518.065 475.95 519.271 498.307 499.665 498.735 488.278 498.486 474.341 496.068 460.404 493.649 450.398 496.359 431.173 493.916 431.959 470.908 434.613 459.545 433.847 440.268Z" fill="#FFFFFF" fill-rule="evenodd"/><path d="M433.847 440.268C445.171 440.881 458.451 442.315 477.015 442.419 495.578 442.524 499.761 443.193 521.945 444.658 518.806 459.646 517.946 481.368 519.271 498.307 500.253 495.381 486.65 494.581 476.103 496.155 465.556 497.729 446.991 493.578 431.173 493.916 434.444 479.041 431.23 455.452 433.847 440.268Z" stroke="#000000" stroke-width="2" stroke-miterlimit="8" fill="none" fill-rule="evenodd"/><text font-family="Calibri,Calibri_MSFontService,sans-serif" font-weight="400" font-size="37" transform="matrix(0.998761 0.0497699 -0.0497699 0.998761 466.444 481)">6</text><path d="M774.238 344.226C790.825 341.888 799.041 344.218 818.912 342.271 838.782 340.325 849.82 342.018 863.585 340.317 862.234 352.143 866.018 367.098 865.913 393.529 849.662 395.078 831.649 395.816 820.346 395.522 809.044 395.228 787.296 396.896 776.566 397.438 775.493 379.21 775.994 358.829 774.238 344.226Z" fill="#FFFFFF" fill-rule="evenodd"/><path d="M774.238 344.226C793.091 345.36 798.542 342.877 818.018 342.31 837.494 341.744 854.329 339.618 863.585 340.317 866.787 353.346 866.205 368.326 865.913 393.529 856.249 395.407 832.536 396.913 822.133 395.444 811.73 393.975 795.991 397.752 776.566 397.438 776.976 372.383 775.427 357.984 774.238 344.226Z" stroke="#000000" stroke-width="2" stroke-miterlimit="8" fill="none" fill-rule="evenodd"/><text font-family="Calibri,Calibri_MSFontService,sans-serif" font-weight="400" font-size="37" transform="matrix(0.999044 -0.0437089 0.0437089 0.999044 811.135 382)">5</text><path d="M837.409 439.937C849.121 441.029 857.793 442.229 877.379 442.459 896.965 442.689 904.084 445.059 917.35 444.98 918.884 464.717 915.722 476.703 913.464 506.572 904.727 505.232 882.826 506.441 872.694 504 862.562 501.559 850.739 503.247 833.523 501.529 832.787 486.586 835.933 469.09 837.409 439.937Z" fill="#FFFFFF" fill-rule="evenodd"/><path d="M837.409 439.937C848.243 439.87 864.391 440.232 876.58 442.408 888.769 444.584 904.272 442.19 917.35 444.98 918.672 472.555 917.589 484.662 913.464 506.572 894.823 505.85 892.934 506.402 874.293 504.101 855.651 501.8 847.771 503.481 833.523 501.529 835.166 484.038 838.085 461.293 837.409 439.937Z" stroke="#000000" stroke-width="2" stroke-miterlimit="8" fill="none" fill-rule="evenodd"/><text font-family="Calibri,Calibri_MSFontService,sans-serif" font-weight="400" font-size="37" transform="matrix(0.998016 0.0629635 -0.0629635 0.998016 865.162 485)">7</text><path d="M458 311C473.284 310.357 483.878 312.915 502.5 311 521.122 309.085 533.154 308.895 547 311 545.729 328.93 548.06 335.633 547 360 529.405 359.342 515.912 359.335 501.61 360 487.308 360.665 474.774 359.575 458 360 459.59 348.92 459.847 323.702 458 311Z" fill="#FFFFFF" fill-rule="evenodd"/><path d="M458 311C469.979 311.89 486.069 312.814 501.61 311 517.151 309.186 534.31 311.602 547 311 547.465 325.101 547.107 343.573 547 360 528.881 361.313 525.023 362.137 503.39 360 481.757 357.863 476.109 358.386 458 360 458.117 349.314 458.512 327.168 458 311Z" stroke="#000000" stroke-width="2" stroke-miterlimit="8" fill="none" fill-rule="evenodd"/><text font-family="Calibri,Calibri_MSFontService,sans-serif" font-weight="400" font-size="37" transform="translate(493.107 348)">4</text><path d="M605.532 414.582C619.839 414.603 637.594 413.544 656.004 410.154 674.413 406.764 685.672 407.174 706.475 405.725 709.701 425.674 708.709 432.895 710.551 452.181 685.743 455.5 676.085 457.792 659.07 456.698 642.055 455.604 619.757 460.09 609.608 461.038 608.444 443.151 607.574 426.067 605.532 414.582Z" fill="#FFFFFF" fill-rule="evenodd"/><path d="M605.532 414.582C621.814 415.168 643.477 412.948 654.994 410.242 666.511 407.537 693.348 406.047 706.475 405.725 707.758 426.174 708.462 433.501 710.551 452.181 697.947 453.685 679.69 452.759 661.089 456.521 642.488 460.283 621.536 459.019 609.608 461.038 609.824 442.739 607.389 427.867 605.532 414.582Z" stroke="#000000" stroke-width="2" stroke-miterlimit="8" fill="none" fill-rule="evenodd"/><text font-family="Calibri,Calibri_MSFontService,sans-serif" font-weight="400" font-size="37" transform="matrix(0.996173 -0.0874035 0.0874035 0.996173 649.679 447)">2</text><path d="M762.035 531.668C777.388 533.222 791.979 534.158 805.88 537.119 819.782 540.08 838.535 543.077 849.726 542.57 850.06 562.363 846.177 574.136 842.112 603.813 820.521 600.934 816.455 599.273 797.39 598.253 778.325 597.233 769.612 596.382 754.421 592.911 754.593 577.952 758.794 560.678 762.035 531.668Z" fill="#FFFFFF" fill-rule="evenodd"/><path d="M762.035 531.668C772.198 534.652 785.839 535.354 805.003 537.01 824.168 538.667 839.567 543.337 849.726 542.57 849.373 570.174 847.559 582.193 842.112 603.813 827.963 601.5 808.483 597.635 799.143 598.471 789.804 599.307 768.701 594.436 754.421 592.911 757.122 575.553 761.415 553.026 762.035 531.668Z" stroke="#000000" stroke-width="2" stroke-miterlimit="8" fill="none" fill-rule="evenodd"/><text font-family="Calibri,Calibri_MSFontService,sans-serif" font-weight="400" font-size="37" transform="matrix(0.992361 0.123367 -0.123367 0.992361 791.091 579)">3</text></g></svg>