<svg width="1280" height="720" xmlns="http://www.w3.org/2000/svg" xmlns:xlink="http://www.w3.org/1999/xlink" overflow="hidden"><g><rect x="0" y="0" width="1280" height="720" fill="#FFFFFF"/><path d="M158 494C162.536 475.048 166.502 464.785 172.2 439.52 177.898 414.255 179.821 407.263 188.174 378.23 196.528 349.197 196.234 350.423 202.374 323.75 208.514 297.077 211.345 281.196 217.165 267 248.749 266.559 253.834 263.535 289.055 267 324.276 270.465 335.403 268.627 358.788 267 382.174 265.373 396.732 270.155 432.835 267 434.81 285.686 439.855 302.103 448.218 326.02 456.58 349.937 457.526 354.724 461.826 378.23 466.126 401.736 472.887 411.033 477.209 437.25 481.53 463.466 488.464 472.932 492 494 471.28 491.527 454.467 491.595 418.52 494 382.573 496.405 376.33 494.395 358.4 494 340.47 493.605 311.481 490.577 284.92 494 258.359 497.423 243.837 493.703 224.8 494 205.763 494.297 176.166 494.503 158 494Z" stroke="#000000" stroke-width="2" stroke-miterlimit="8" fill="none" fill-rule="evenodd"/><path d="M158 494C174.31 484.399 193.382 464.405 204.693 455.41 216.004 446.415 247.452 420.134 265.12 405.47 282.788 390.806 298.996 373.086 317.306 362.34 335.617 351.595 357.018 333.934 377.733 312.4 398.448 290.866 413.396 284.325 432.666 267 437.004 280.143 448.909 309.645 458.5 323.75 468.09 337.855 476.49 366.157 486.4 385.04 496.309 403.923 499.433 412.453 511.2 439.52 522.966 466.587 532.113 482.388 536 494 510.447 492.253 494.755 492.497 476.78 494 458.805 495.503 438.059 493.927 425.12 494 412.181 494.073 385.746 494.688 358.34 494 330.934 493.312 307.027 490.844 291.56 494 276.093 497.156 249.628 495.134 228.56 494 207.492 492.866 177.66 492.298 158 494Z" fill="#FFFFFF" fill-rule="evenodd"/><path d="M158 494C175.153 482.859 189.451 471.091 212.933 448.6 236.415 426.109 246.412 423.784 265.12 405.47 283.828 387.156 292.947 381.361 311.813 366.88 330.679 352.399 355.596 335.324 369.493 319.21 383.389 303.096 400.673 291.146 432.666 267 440.539 285.169 444.906 298.045 455.4 316.94 465.893 335.835 470 352.511 480.2 371.42 490.399 390.329 492.048 402.154 506.033 428.17 520.019 454.186 522.173 464.721 536 494 516.131 494.45 488.749 495.299 476.78 494 464.811 492.701 443.342 494.989 417.56 494 391.778 493.011 376.976 493.251 347 494 317.024 494.749 314.49 495.329 291.56 494 268.63 492.671 246.96 494.111 228.56 494 210.16 493.889 183.05 491.148 158 494Z" stroke="#000000" stroke-width="2" stroke-miterlimit="8" fill="none" fill-rule="evenodd"/><path d="M811 267C806.464 285.952 802.498 296.215 796.8 321.48 791.102 346.745 789.179 353.737 780.826 382.77 772.472 411.803 772.766 410.577 766.626 437.25 760.487 463.923 757.655 479.804 751.835 494 720.251 494.441 715.166 497.465 679.945 494 644.724 490.535 633.597 492.373 610.212 494 586.826 495.627 572.268 490.845 536.165 494 534.19 475.314 529.145 458.897 520.782 434.98 512.42 411.063 511.474 406.276 507.174 382.77 502.874 359.264 496.113 349.967 491.791 323.75 487.47 297.534 480.536 288.068 477 267 497.72 269.473 514.533 269.405 550.48 267 586.427 264.595 592.67 266.605 610.6 267 628.53 267.395 657.519 270.423 684.08 267 710.641 263.577 725.163 267.297 744.2 267 763.237 266.703 792.834 266.497 811 267Z" stroke="#000000" stroke-width="2" stroke-miterlimit="8" stroke-dasharray="8 6" fill="none" fill-rule="evenodd"/><path d="M811 267C794.69 276.601 775.618 296.595 764.307 305.59 752.996 314.585 721.548 340.866 703.88 355.53 686.212 370.194 670.004 387.914 651.694 398.66 633.383 409.405 611.982 427.066 591.267 448.6 570.552 470.134 555.604 476.675 536.334 494 531.996 480.857 520.091 451.355 510.5 437.25 500.91 423.145 492.51 394.843 482.6 375.96 472.691 357.077 469.567 348.547 457.8 321.48 446.034 294.413 436.887 278.612 433 267 458.553 268.747 474.245 268.503 492.22 267 510.195 265.497 530.941 267.073 543.88 267 556.819 266.927 583.254 266.312 610.66 267 638.066 267.688 661.973 270.156 677.44 267 692.907 263.844 719.372 265.866 740.44 267 761.508 268.134 791.34 268.702 811 267Z" fill="#FFFFFF" fill-rule="evenodd"/><path d="M811 267C793.847 278.141 779.549 289.909 756.067 312.4 732.585 334.891 722.588 337.216 703.88 355.53 685.172 373.844 676.053 379.639 657.187 394.12 638.321 408.601 613.404 425.676 599.507 441.79 585.61 457.904 568.327 469.854 536.334 494 528.461 475.831 524.094 462.955 513.6 444.06 503.107 425.165 499 408.489 488.8 389.58 478.601 370.671 476.952 358.846 462.967 332.83 448.981 306.814 446.827 296.279 433 267 452.869 266.55 480.251 265.701 492.22 267 504.189 268.299 525.658 266.011 551.44 267 577.222 267.989 592.024 267.749 622 267 651.976 266.251 654.51 265.671 677.44 267 700.37 268.329 722.04 266.889 740.44 267 758.84 267.111 785.95 269.852 811 267Z" stroke="#000000" stroke-width="2" stroke-miterlimit="8" stroke-dasharray="8 6" fill="none" fill-rule="evenodd"/><path d="M164.753 484.105 415.499 271.878 429.186 274.624 178.441 486.851Z" stroke="#FFFFFF" stroke-width="2" stroke-miterlimit="8" fill="#FFFFFF" fill-rule="evenodd"/><path d="M537.346 485.074 788.092 272.847 801.78 275.593 551.034 487.82Z" stroke="#FFFFFF" stroke-width="2" stroke-miterlimit="8" fill="#FFFFFF" fill-rule="evenodd"/><path d="M404.017 300.577 418.052 269.495 430.267 268.95 416.232 300.032Z" stroke="#FFFFFF" stroke-width="2" stroke-miterlimit="8" fill="#FFFFFF" fill-rule="evenodd"/><path d="M160.164 491.811 172.672 452.327 184.866 451.42 172.357 490.904Z" stroke="#FFFFFF" stroke-width="2" stroke-miterlimit="8" fill="#FFFFFF" fill-rule="evenodd"/><path d="M781 307 796.61 269 809 269 793.39 307Z" stroke="#FFFFFF" stroke-width="2" stroke-miterlimit="8" fill="#FFFFFF" fill-rule="evenodd"/><path d="M537.042 491.976 549.914 452.61 562.116 451.815 549.243 491.182Z" stroke="#FFFFFF" stroke-width="2" stroke-miterlimit="8" fill="#FFFFFF" fill-rule="evenodd"/><path d="M481 379.5C480.966 377.62 483.001 375.817 485 376 487.401 376.272 489.305 377.343 489 379.5 489.091 380.98 487.485 383.236 485 383 482.746 383.293 480.685 381.125 481 379.5Z" fill="#D9D9D9" fill-rule="evenodd"/><path d="M481 379.5C480.616 377.208 482.687 375.795 485 376 487.435 376.276 489.231 377.726 489 379.5 489.034 381.178 486.789 382.652 485 383 482.512 383.157 481.093 381.689 481 379.5Z" stroke="#000000" stroke-width="2" stroke-miterlimit="8" fill="none" fill-rule="evenodd"/></g></svg>