<svg width="1280" height="720" xmlns="http://www.w3.org/2000/svg" xmlns:xlink="http://www.w3.org/1999/xlink" overflow="hidden"><g><rect x="0" y="0" width="1280" height="720" fill="#FFFFFF"/><path d="M188 360C213.803 356.932 242.554 363.486 256.231 360 269.908 356.514 314.67 359.874 342.202 360 369.733 360.126 385.513 362.276 428.172 360 470.831 357.724 449.165 358.922 469.793 360 490.421 361.078 505.656 359.38 538.024 360 570.391 360.62 564.651 360.043 579.645 360 594.638 359.957 601.637 358.49 621.265 360 640.893 361.51 655.387 360.999 680.626 360 705.866 359.001 733.274 357.331 748.857 360 764.44 362.669 777.786 360.616 790.478 360 803.17 359.384 816.302 362.461 840.969 360 865.635 357.539 874.939 358.851 900.329 360 925.72 361.149 929.121 359.256 941.95 360 954.779 360.744 970.475 358.409 983.571 360 996.666 361.591 1035.22 355.94 1075 360 1074.98 361.075 1075.04 363.322 1075 365 1056.47 362.386 1029.85 361.067 989.029 365 948.206 368.933 941.683 364.546 903.058 365 864.434 365.454 872.357 364.42 843.698 365 815.038 365.58 797.082 366.592 784.337 365 771.591 363.408 718.559 364.264 698.366 365 678.174 365.736 665.948 363.481 656.745 365 647.543 366.519 596.221 366.279 579.645 365 563.068 363.721 532.964 363.849 520.284 365 507.604 366.151 480.71 367.086 469.793 365 458.876 362.914 415.987 368.293 401.562 365 387.138 361.707 343.815 368.984 324.462 365 305.108 361.016 280.323 367.245 265.101 365 249.878 362.755 215.369 366.78 188 365 187.946 363.62 188.118 362.423 188 360Z" fill-rule="evenodd"/><path d="M188 360C206.533 358.257 220.327 358.265 229.621 360 238.915 361.735 257.031 358.457 280.112 360 303.192 361.543 323.494 359.951 339.472 360 355.45 360.049 372.961 359.993 398.833 360 424.705 360.007 436.563 362.386 449.324 360 462.085 357.614 488.972 361.557 499.815 360 510.658 358.443 537.271 360.271 550.305 360 563.34 359.729 580.319 361.301 591.926 360 603.533 358.699 618.028 360.619 633.547 360 649.066 359.381 658.583 358.587 675.168 360 691.753 361.413 704.93 360.264 716.789 360 728.647 359.736 756.576 358.526 785.019 360 813.463 361.474 852.658 357.8 870.99 360 889.322 362.2 901.788 359.375 912.611 360 923.434 360.625 948.476 357.892 971.971 360 995.467 362.108 999.94 361.063 1013.59 360 1027.24 358.937 1056.96 362.134 1075 360 1075.09 361.576 1074.91 363.147 1075 365 1034.66 361.167 1019.03 360.529 989.029 365 959.026 369.471 948.338 362.727 920.798 365 893.259 367.273 896.342 367.034 879.178 365 862.013 362.966 851.497 362.797 828.687 365 805.877 367.203 767.363 368.388 751.586 365 735.809 361.612 723.796 365.751 709.965 365 696.135 364.249 657.991 361.465 641.735 365 625.478 368.535 590.599 367.694 573.504 365 556.409 362.306 535.067 365.497 514.143 365 493.219 364.503 464.71 362.135 445.912 365 427.114 367.865 390.139 361.299 359.941 365 329.744 368.701 325.393 365.64 300.581 365 275.769 364.36 273.578 364.565 258.96 365 244.342 365.435 210.675 367.079 188 365 188.07 362.826 188.023 361.54 188 360Z" stroke="#000000" stroke-width="2" stroke-miterlimit="8" fill="none" fill-rule="evenodd"/><path d="M638 341C639.207 341.028 640.299 341.103 641 341 639.632 349.266 640.098 366.492 641 379 639.839 378.902 639.417 378.892 638 379 638.021 363.472 636.556 352.754 638 341Z" fill-rule="evenodd"/><path d="M638 341C638.928 341.042 639.799 341.131 641 341 641.497 353.419 641.566 363.912 641 379 640.121 379.132 639.154 379.171 638 379 637.333 366.268 638.057 358.02 638 341Z" stroke="#000000" stroke-width="2" stroke-miterlimit="8" fill="none" fill-rule="evenodd"/><path d="M715 343C716.609 343.027 718.066 343.1 719 343 717.176 351.049 717.798 367.821 719 380 717.452 379.905 716.889 379.895 715 380 715.029 364.881 713.074 354.445 715 343Z" fill-rule="evenodd"/><path d="M715 343C716.238 343.041 717.399 343.127 719 343 719.663 355.092 719.755 365.309 719 380 717.828 380.128 716.538 380.166 715 380 714.11 367.603 715.076 359.572 715 343Z" stroke="#000000" stroke-width="2" stroke-miterlimit="8" fill="none" fill-rule="evenodd"/><path d="M789 340C790.609 340.028 792.066 340.103 793 340 791.176 348.266 791.798 365.492 793 378 791.452 377.902 790.889 377.892 789 378 789.029 362.472 787.074 351.754 789 340Z" fill-rule="evenodd"/><path d="M789 340C790.238 340.042 791.399 340.131 793 340 793.663 352.419 793.755 362.912 793 378 791.828 378.132 790.538 378.171 789 378 788.11 365.268 789.076 357.02 789 340Z" stroke="#000000" stroke-width="2" stroke-miterlimit="8" fill="none" fill-rule="evenodd"/><path d="M864 340C865.609 340.028 867.066 340.103 868 340 866.176 348.266 866.798 365.492 868 378 866.452 377.902 865.889 377.892 864 378 864.029 362.472 862.074 351.754 864 340Z" fill-rule="evenodd"/><path d="M864 340C865.238 340.042 866.399 340.131 868 340 868.663 352.419 868.755 362.912 868 378 866.828 378.132 865.538 378.171 864 378 863.11 365.268 864.076 357.02 864 340Z" stroke="#000000" stroke-width="2" stroke-miterlimit="8" fill="none" fill-rule="evenodd"/><path d="M941 340C942.207 340.027 943.299 340.1 944 340 942.632 348.049 943.098 364.821 944 377 942.839 376.905 942.417 376.895 941 377 941.021 361.881 939.556 351.445 941 340Z" fill-rule="evenodd"/><path d="M941 340C941.928 340.041 942.799 340.127 944 340 944.497 352.092 944.566 362.309 944 377 943.121 377.128 942.154 377.166 941 377 940.333 364.603 941.057 356.572 941 340Z" stroke="#000000" stroke-width="2" stroke-miterlimit="8" fill="none" fill-rule="evenodd"/><path d="M1018 341C1019.61 341.028 1021.07 341.103 1022 341 1020.18 349.266 1020.8 366.492 1022 379 1020.45 378.902 1019.89 378.892 1018 379 1018.03 363.472 1016.07 352.754 1018 341Z" fill-rule="evenodd"/><path d="M1018 341C1019.24 341.042 1020.4 341.131 1022 341 1022.66 353.419 1022.75 363.912 1022 379 1020.83 379.132 1019.54 379.171 1018 379 1017.11 366.268 1018.08 358.02 1018 341Z" stroke="#000000" stroke-width="2" stroke-miterlimit="8" fill="none" fill-rule="evenodd"/><path d="M489 341C490.609 341.028 492.066 341.103 493 341 491.176 349.266 491.798 366.492 493 379 491.452 378.902 490.889 378.892 489 379 489.029 363.472 487.074 352.754 489 341Z" fill-rule="evenodd"/><path d="M489 341C490.238 341.042 491.399 341.131 493 341 493.663 353.419 493.755 363.912 493 379 491.828 379.132 490.538 379.171 489 379 488.11 366.268 489.076 358.02 489 341Z" stroke="#000000" stroke-width="2" stroke-miterlimit="8" fill="none" fill-rule="evenodd"/><path d="M564 341C565.609 341.028 567.066 341.103 568 341 566.176 349.266 566.798 366.492 568 379 566.452 378.902 565.889 378.892 564 379 564.029 363.472 562.074 352.754 564 341Z" fill-rule="evenodd"/><path d="M564 341C565.238 341.042 566.399 341.131 568 341 568.663 353.419 568.755 363.912 568 379 566.828 379.132 565.538 379.171 564 379 563.11 366.268 564.076 358.02 564 341Z" stroke="#000000" stroke-width="2" stroke-miterlimit="8" fill="none" fill-rule="evenodd"/><path d="M334 340C335.609 340.028 337.066 340.103 338 340 336.176 348.266 336.798 365.492 338 378 336.452 377.902 335.889 377.892 334 378 334.029 362.472 332.074 351.754 334 340Z" fill-rule="evenodd"/><path d="M334 340C335.238 340.042 336.399 340.131 338 340 338.663 352.419 338.755 362.912 338 378 336.828 378.132 335.538 378.171 334 378 333.11 365.268 334.076 357.02 334 340Z" stroke="#000000" stroke-width="2" stroke-miterlimit="8" fill="none" fill-rule="evenodd"/><path d="M412 342C413.207 342.028 414.299 342.103 415 342 413.632 350.266 414.098 367.492 415 380 413.839 379.902 413.417 379.892 412 380 412.022 364.472 410.556 353.754 412 342Z" fill-rule="evenodd"/><path d="M412 342C412.928 342.042 413.799 342.131 415 342 415.497 354.419 415.566 364.912 415 380 414.121 380.132 413.154 380.171 412 380 411.333 367.268 412.057 359.02 412 342Z" stroke="#000000" stroke-width="2" stroke-miterlimit="8" fill="none" fill-rule="evenodd"/><path d="M261 340C262.609 340.028 264.066 340.103 265 340 263.176 348.266 263.798 365.492 265 378 263.452 377.902 262.889 377.892 261 378 261.029 362.472 259.074 351.754 261 340Z" fill-rule="evenodd"/><path d="M261 340C262.238 340.042 263.399 340.131 265 340 265.663 352.419 265.755 362.912 265 378 263.828 378.132 262.538 378.171 261 378 260.11 365.268 261.076 357.02 261 340Z" stroke="#000000" stroke-width="2" stroke-miterlimit="8" fill="none" fill-rule="evenodd"/><text font-family="Calibri,Calibri_MSFontService,sans-serif" font-weight="400" font-size="43" transform="translate(177.745 317)">…</text><text font-family="Calibri,Calibri_MSFontService,sans-serif" font-weight="400" font-size="43" transform="translate(236.245 317)">-</text><text font-family="Calibri,Calibri_MSFontService,sans-serif" font-weight="400" font-size="43" transform="translate(249.245 317)">5</text><text font-family="Calibri,Calibri_MSFontService,sans-serif" font-weight="400" font-size="43" transform="translate(299.912 317)">-</text><text font-family="Calibri,Calibri_MSFontService,sans-serif" font-weight="400" font-size="43" transform="translate(312.912 317)">4</text><text font-family="Calibri,Calibri_MSFontService,sans-serif" font-weight="400" font-size="43" transform="translate(363.578 317)">-</text><text font-family="Calibri,Calibri_MSFontService,sans-serif" font-weight="400" font-size="43" transform="translate(376.578 317)">3</text><text font-family="Calibri,Calibri_MSFontService,sans-serif" font-weight="400" font-size="43" transform="translate(427.245 317)">-</text><text font-family="Calibri,Calibri_MSFontService,sans-serif" font-weight="400" font-size="43" transform="translate(440.245 317)">2</text><text font-family="Calibri,Calibri_MSFontService,sans-serif" font-weight="400" font-size="43" transform="translate(490.912 317)">-</text><text font-family="Calibri,Calibri_MSFontService,sans-serif" font-weight="400" font-size="43" transform="translate(503.912 317)">1 0 1 2 3 4 5 …</text><path d="M1126.5 405.5C1126.96 422.014 1124.02 436.235 1121.46 436 1093.79 435.804 1075.89 438.581 1053.51 436 1031.14 433.419 1006.34 433.116 976.054 436 945.764 438.884 937.224 437.633 912.863 436 888.502 434.367 866.192 433.505 854.429 436 842.666 438.495 812.75 435.583 776.969 436 741.187 436.417 732.713 433.435 709.021 436 685.33 438.565 672.471 436.982 645.831 436 643.361 439.211 641.224 450.726 640.792 466.5 640.655 449.157 638.135 436.439 635.753 436 618.385 434.069 603.546 438.587 583.025 436 562.503 433.413 550.353 435.301 525.624 436 500.895 436.699 480.504 438.508 468.223 436 455.943 433.492 420.412 433.846 401.478 436 382.545 438.154 349.642 437.908 334.734 436 319.826 434.092 296.608 435.994 267.989 436 239.369 436.006 203.307 432.549 168.539 436 168.352 436.798 163.482 421.865 163.5 405.5" stroke="#000000" stroke-width="3" stroke-miterlimit="8" fill="none" fill-rule="evenodd"/><path d="M696.5 272.5C696.542 255.742 698.588 242.751 701.535 242.5 723.841 241.395 748.908 244.289 767.301 242.5 785.694 240.711 816.687 244.901 829.344 242.5 842.001 240.099 867.783 240.426 887.665 242.5 888.417 241.252 892.542 227.849 892.7 212.5 892.43 228.564 894.985 242.603 897.735 242.5 915.45 244.527 932.79 244.438 956.818 242.5 980.845 240.562 998.464 241.884 1017.73 242.5 1036.99 243.116 1064.84 244.43 1080.46 242.5 1082.28 242.586 1082.62 256.28 1085.5 272.5" stroke="#000000" stroke-width="3" stroke-miterlimit="8" fill="none" fill-rule="evenodd"/><rect x="1078" y="245" width="105" height="35" stroke="#FFFFFF" stroke-width="2" stroke-miterlimit="8" fill="#FFFFFF"/><rect x="1103" y="398" width="105" height="35" stroke="#FFFFFF" stroke-width="2" stroke-miterlimit="8" fill="#FFFFFF"/><rect x="63" y="398" width="106" height="36" stroke="#FFFFFF" stroke-width="2" stroke-miterlimit="8" fill="#FFFFFF"/><text font-family="Calibri,Calibri_MSFontService,sans-serif" font-weight="400" font-size="43" transform="translate(131.967 441)">…</text><text font-family="Calibri,Calibri_MSFontService,sans-serif" font-weight="400" font-size="43" transform="translate(1129.81 441)">…</text><text font-family="Calibri,Calibri_MSFontService,sans-serif" font-weight="400" font-size="43" transform="translate(1087.16 247)">…</text><text font-family="Calibri,Calibri_MSFontService,sans-serif" font-weight="400" font-size="27" transform="translate(754.699 192)">Mengden naturlige tall,</text><text font-family="Calibri,Calibri_MSFontService,sans-serif" font-weight="700" font-size="27" transform="translate(1013.83 192)">N</text><text font-family="Calibri,Calibri_MSFontService,sans-serif" font-weight="400" font-size="27" transform="translate(529.405 504)">Mengden hele tall,</text><text font-family="Calibri,Calibri_MSFontService,sans-serif" font-weight="700" font-size="27" transform="translate(738.499 504)">Z</text></g></svg>