<svg width="1280" height="720" xmlns="http://www.w3.org/2000/svg" xmlns:xlink="http://www.w3.org/1999/xlink" overflow="hidden"><g><rect x="0" y="0" width="1280" height="720" fill="#FFFFFF"/><path d="M0 0C15.7027 2.26184 32.1495-0.320735 50.1694 0 68.1894 0.320735 89.6123 2.7347 109.192 0 128.772-2.7347 146.608 0.223832 162.313 0 178.018-0.223832 204.11 1.77281 221.336 0 238.562-1.77281 271.691 0.0247769 295.115 0 295.079 0.410814 295.171 1.23402 295.115 1.88976 264.767 0.0437795 256.381 3.62509 230.189 1.88976 203.997 0.154436 202.197 3.02572 177.069 1.88976 151.941 0.753806 148.121 2.64472 123.948 1.88976 99.7754 1.1348 87.9091 1.95811 67.8763 1.88976 47.8436 1.82142 31.7151 3.52934 0 1.88976-0.0571129 1.42845-0.0488189 0.52336 0 0Z" stroke="#000000" stroke-miterlimit="8" stroke-dasharray="4 3" fill="none" fill-rule="evenodd" transform="matrix(-0.229419 0.973328 0.973328 0.229419 751.814 248.004)"/><path d="M0 0C15.6966 2.39378 32.137-0.339444 50.15 0 68.1629 0.339444 89.5775 2.89422 109.15 0 128.722-2.89422 146.551 0.236889 162.25 0 177.949-0.236889 204.031 1.87622 221.25 0 238.469-1.87622 271.586 0.0262222 295 0 294.965 0.434778 295.056 1.306 295 2 264.664 0.0463333 256.282 3.83656 230.1 2 203.918 0.163444 202.118 3.20222 177 2 151.882 0.797778 148.063 2.799 123.9 2 99.7367 1.201 87.875 2.07233 67.85 2 47.825 1.92767 31.7028 3.73522 0 2-0.0570907 1.51178-0.0487999 0.553889 0 0Z" stroke="#000000" stroke-miterlimit="8" stroke-dasharray="4 3" fill="none" fill-rule="evenodd" transform="matrix(6.12323e-17 1 1 -6.12323e-17 303.5 246.5)"/><path d="M258 587C269.541 576.674 290.584 554.604 301.283 541 323.521 539.511 343.576 540.304 357.462 541 371.348 541.696 402.16 538.836 418.136 541 434.112 543.164 451.703 538.653 467.573 541 483.444 543.347 503.124 542.541 526 541 514.017 558.051 493.616 572.114 482.717 587 454.537 585.926 436.645 588.104 422.044 587 407.443 585.896 391.457 589.32 363.617 587 335.777 584.68 293.826 591.871 258 587Z" fill="#F2F2F2" fill-rule="evenodd"/><path d="M258 587C277.226 564.82 289.184 550.638 301.283 541 314.67 542.193 334.992 539.406 361.956 541 388.921 542.594 388.322 540.424 413.641 541 438.961 541.576 456.593 538.904 472.068 541 487.542 543.096 503.188 541.077 526 541 508.047 558.048 494.57 569.892 482.717 587 466.995 585.563 447.564 586.677 424.291 587 401.017 587.323 397.772 586.69 374.853 587 351.934 587.31 343.061 584.381 323.168 587 303.275 589.619 283.484 589.699 258 587Z" stroke="#000000" stroke-width="2" stroke-miterlimit="8" fill="none" fill-rule="evenodd"/><path d="M640 587C651.576 576.674 672.682 554.604 683.414 541 704.182 537.936 737.425 543.34 756.609 541 775.793 538.66 814.891 539.043 834.196 541 853.502 542.957 873.092 540.174 903 541 882.632 564.18 877.198 567.037 859.586 587 836.658 583.633 812.187 590.372 784.195 587 756.203 583.628 737.746 587.838 717.587 587 697.428 586.162 670.287 589.781 640 587Z" fill="#F2F2F2" fill-rule="evenodd"/><path d="M640 587C651.392 572.993 662.731 564.411 683.414 541 714.901 544.082 726.817 542.819 761.001 541 795.184 539.181 804.125 540.343 829.805 541 855.484 541.657 885.786 542.988 903 541 885.091 559.442 869.814 572.217 859.586 587 826.945 585.115 806.849 587.449 786.391 587 765.933 586.551 732.108 589.386 713.195 587 694.283 584.614 661.765 585.874 640 587Z" stroke="#000000" stroke-width="2" stroke-miterlimit="8" fill="none" fill-rule="evenodd"/><path d="M261 512C272.532 501.898 293.558 480.308 304.248 467 324.938 464.002 358.055 469.289 377.166 467 396.276 464.711 435.226 465.086 454.458 467 473.69 468.914 493.205 466.192 523 467 502.71 489.676 497.296 492.471 479.752 512 456.911 508.707 432.532 515.299 404.647 512 376.761 508.701 358.375 512.82 338.292 512 318.21 511.18 291.172 514.721 261 512Z" fill="#F2F2F2" fill-rule="evenodd"/><path d="M261 512C272.349 498.298 283.644 489.902 304.248 467 335.616 470.015 347.487 468.78 381.541 467 415.594 465.22 424.501 466.357 450.083 467 475.664 467.643 505.852 468.945 523 467 505.16 485.041 489.94 497.538 479.752 512 447.234 510.156 427.215 512.439 406.834 512 386.454 511.561 352.758 514.334 333.917 512 315.077 509.666 282.683 510.898 261 512Z" stroke="#000000" stroke-width="2" stroke-miterlimit="8" fill="none" fill-rule="evenodd"/><path d="M656 512C667.576 501.898 688.682 480.308 699.414 467 720.182 464.002 753.425 469.289 772.609 467 791.793 464.711 830.891 465.086 850.196 467 869.502 468.914 889.092 466.192 919 467 898.632 489.676 893.198 492.471 875.586 512 852.658 508.707 828.187 515.299 800.195 512 772.203 508.701 753.746 512.82 733.587 512 713.428 511.18 686.287 514.721 656 512Z" fill="#F2F2F2" fill-rule="evenodd"/><path d="M656 512C667.392 498.298 678.731 489.902 699.414 467 730.901 470.015 742.817 468.78 777.001 467 811.184 465.22 820.125 466.357 845.805 467 871.484 467.643 901.786 468.945 919 467 901.091 485.041 885.814 497.538 875.586 512 842.945 510.156 822.849 512.439 802.391 512 781.933 511.561 748.108 514.334 729.195 512 710.283 509.666 677.765 510.898 656 512Z" stroke="#000000" stroke-width="2" stroke-miterlimit="8" fill="none" fill-rule="evenodd"/><path d="M261 436C272.536 425.898 293.571 404.308 304.266 391 323.078 389.942 344.691 390.449 359.699 391 374.708 391.551 398.126 390.538 419.568 391 441.009 391.462 445.985 393.016 468.349 391 490.713 388.984 511.118 393.167 526 391 514.021 407.681 493.629 421.438 482.734 436 455.986 437.407 446.949 437.819 422.866 436 398.782 434.181 387.905 435.102 365.215 436 342.525 436.898 296.163 431.345 261 436Z" fill="#F2F2F2" fill-rule="evenodd"/><path d="M261 436C280.218 414.302 292.172 400.428 304.266 391 331.857 389.806 334.539 388.207 364.134 391 393.729 393.793 392.208 390.182 415.133 391 438.058 391.818 457.505 392.967 472.784 391 488.063 389.033 512.504 390.491 526 391 508.054 407.677 494.582 419.264 482.734 436 459.03 437.345 444.167 438.23 425.083 436 406 433.77 391.823 433.711 376.302 436 360.78 438.289 336.857 438.011 325.303 436 313.749 433.989 280.271 438.037 261 436Z" stroke="#000000" stroke-width="2" stroke-miterlimit="8" fill="none" fill-rule="evenodd"/><path d="M676 437C687.576 426.898 708.682 405.308 719.414 392 740.182 389.002 773.425 394.289 792.609 392 811.793 389.711 850.891 390.086 870.196 392 889.502 393.914 909.092 391.192 939 392 918.632 414.676 913.198 417.471 895.586 437 872.658 433.707 848.187 440.299 820.195 437 792.203 433.701 773.746 437.82 753.587 437 733.428 436.18 706.287 439.721 676 437Z" fill="#F2F2F2" fill-rule="evenodd"/><path d="M676 437C687.392 423.298 698.731 414.902 719.414 392 750.901 395.015 762.817 393.78 797.001 392 831.184 390.22 840.125 391.357 865.805 392 891.484 392.643 921.786 393.945 939 392 921.091 410.041 905.814 422.538 895.586 437 862.945 435.156 842.849 437.439 822.391 437 801.933 436.561 768.108 439.334 749.195 437 730.283 434.666 697.765 435.898 676 437Z" stroke="#000000" stroke-width="2" stroke-miterlimit="8" fill="none" fill-rule="evenodd"/><path d="M258 293.598C279.643 272.336 281.298 266.595 303.56 248 317.214 245.632 350.282 245.227 363.619 248 376.956 250.773 389.651 248.498 412.556 248 435.461 247.502 457.218 248.87 470.39 248 483.562 247.13 500.786 245.575 526 248 526.964 276.304 526.316 278.639 526 306.88 525.684 335.121 526.009 341.125 526 365.761 525.991 390.397 528.008 392.28 526 415.809 523.992 439.338 523.261 450.383 526 474.69 528.739 498.997 526.496 512.292 526 542.402 515.659 553.076 501.39 568.138 480.44 588 459.946 589.887 442.247 585.559 431.503 588 420.759 590.441 401.062 588.372 378.118 588 355.173 587.628 342.933 587.724 322.508 588 302.083 588.276 286.124 584.86 258 588 257.031 573.573 257.55 557.933 258 532.064 258.45 506.194 260.097 494.625 258 467.295 255.903 439.965 257.583 440.765 258 414.303 258.417 387.84 260.778 364.077 258 349.534 255.222 334.991 256.047 316.771 258 293.598ZM258 293.598C271.307 293.041 303.192 293.217 318.059 293.598 332.926 293.978 348.833 294.835 371.444 293.598 394.055 292.361 419.212 293.979 431.503 293.598 443.794 293.217 461.082 293.193 480.44 293.598 501.613 270.581 507.769 269.651 526 248M480.44 293.598C481.129 309.364 479.223 330.665 480.44 343.646 481.657 356.628 479.027 384.447 480.44 402.527 481.853 420.606 479.631 447.474 480.44 461.407 481.249 475.34 479.772 500.579 480.44 520.288 481.108 539.996 482.185 569.005 480.44 588" stroke="#000000" stroke-width="2" stroke-miterlimit="8" fill="none" fill-rule="evenodd"/><path d="M713 293C724.532 282.898 745.558 261.308 756.248 248 776.938 245.002 810.055 250.289 829.166 248 848.276 245.711 887.226 246.086 906.458 248 925.69 249.914 945.205 247.192 975 248 954.71 270.676 949.296 273.471 931.752 293 908.911 289.707 884.532 296.299 856.647 293 828.761 289.701 810.375 293.82 790.292 293 770.21 292.18 743.172 295.721 713 293Z" stroke="#000000" stroke-width="2" stroke-miterlimit="8" fill="none" fill-rule="evenodd"/><path d="M640 588C644.87 564.309 649.774 549.343 654.65 529 659.526 508.657 661.941 487.032 669.3 470 676.659 452.968 675.744 430.973 685.415 405.1 695.086 379.227 697.083 340.716 713.25 293 735.52 293.131 760.761 294.443 779.907 293 799.054 291.557 832.096 290.611 850.96 293 869.824 295.389 916.508 289.765 933 293 932.711 305.326 922.407 334.142 919.815 346.1 917.223 358.057 912.49 386.69 905.898 402.15 899.306 417.609 892.913 447.13 891.248 461.15 889.582 475.17 883.273 503.584 878.063 514.25 872.852 524.916 869.63 561.529 859.75 588 843.276 585.953 813.993 587.663 790.895 588 767.797 588.337 741.849 585.969 722.04 588 702.231 590.031 677.219 584.574 640 588Z" stroke="#000000" stroke-width="2" stroke-miterlimit="8" fill="none" fill-rule="evenodd"/><path d="M0 30.0513C23.91 16.048 33.0863 9.63559 52.0492 0 69.9219 0.665302 98.1046-2.06373 112.119 0 126.134 2.06373 145.394 1.85291 178.196 0 210.998-1.85291 217.018 2.181 229.255 0 241.493-2.181 272.325-2.24987 289.325 0 306.325 2.24987 335.355-1.45249 352.398 0 329.133 10.8692 321.574 15.3877 300.349 30.0513 288.973 32.4168 270.24 30.924 246.286 30.0513 222.332 29.1787 202.484 28.1268 183.213 30.0513 163.942 31.9759 147.465 29.613 126.147 30.0513 104.828 30.4897 87.1332 29.9264 66.0768 30.0513 45.0204 30.1763 23.2124 31.4949 0 30.0513Z" stroke="#000000" stroke-width="2" stroke-miterlimit="8" fill="none" fill-rule="evenodd" transform="matrix(-0.236388 0.971659 0.971659 0.236388 946 242.074)"/></g></svg>