<svg width="1280" height="720" xmlns="http://www.w3.org/2000/svg" xmlns:xlink="http://www.w3.org/1999/xlink" overflow="hidden"><g><rect x="0" y="0" width="1280" height="720" fill="#FFFFFF"/><path d="M650 542C666.325 542.608 682.344 543.463 691 542 691.704 552.343 691.717 566.727 691 585 675.538 586.437 659.703 584.286 650 585 650.926 574.817 648.557 554.492 650 542Z" stroke="#000000" stroke-width="2" stroke-miterlimit="8" fill="none" fill-rule="evenodd"/><path d="M598 540C614.325 540.608 630.344 541.463 639 540 639.704 550.343 639.717 564.727 639 583 623.538 584.437 607.703 582.286 598 583 598.926 572.817 596.557 552.492 598 540Z" stroke="#000000" stroke-width="2" stroke-miterlimit="8" fill="none" fill-rule="evenodd"/><path d="M818 539C834.723 539.608 851.132 540.463 860 539 860.721 549.343 860.734 563.727 860 582 844.161 583.437 827.94 581.286 818 582 818.948 571.817 816.522 551.492 818 539Z" stroke="#000000" stroke-width="2" stroke-miterlimit="8" fill="none" fill-rule="evenodd"/><path d="M821 480C837.325 480.608 853.344 481.463 862 480 862.704 490.343 862.717 504.727 862 523 846.538 524.437 830.703 522.286 821 523 821.926 512.817 819.557 492.492 821 480Z" stroke="#000000" stroke-width="2" stroke-miterlimit="8" fill="none" fill-rule="evenodd"/><path d="M596 484C612.325 484.608 628.344 485.463 637 484 637.704 494.343 637.717 508.727 637 527 621.538 528.437 605.703 526.286 596 527 596.926 516.817 594.557 496.492 596 484Z" stroke="#000000" stroke-width="2" stroke-miterlimit="8" fill="none" fill-rule="evenodd"/><path d="M650 480C666.325 480.608 682.344 481.463 691 480 691.704 490.343 691.717 504.727 691 523 675.538 524.437 659.703 522.286 650 523 650.926 512.817 648.557 492.492 650 480Z" stroke="#000000" stroke-width="2" stroke-miterlimit="8" fill="none" fill-rule="evenodd"/><path d="M818 422C834.723 422.608 851.132 423.463 860 422 860.721 432.343 860.734 446.727 860 465 844.161 466.437 827.94 464.286 818 465 818.948 454.817 816.522 434.492 818 422Z" stroke="#000000" stroke-width="2" stroke-miterlimit="8" fill="none" fill-rule="evenodd"/><path d="M650 422C666.325 422.608 682.344 423.463 691 422 691.704 432.343 691.717 446.727 691 465 675.538 466.437 659.703 464.286 650 465 650.926 454.817 648.557 434.492 650 422Z" stroke="#000000" stroke-width="2" stroke-miterlimit="8" fill="none" fill-rule="evenodd"/><path d="M596 422C612.325 422.608 628.344 423.463 637 422 637.704 432.343 637.717 446.727 637 465 621.538 466.437 605.703 464.286 596 465 596.926 454.817 594.557 434.492 596 422Z" stroke="#000000" stroke-width="2" stroke-miterlimit="8" fill="none" fill-rule="evenodd"/><path d="M883 540C899.723 540.608 916.132 541.463 925 540 925.721 550.343 925.734 564.727 925 583 909.161 584.437 892.94 582.286 883 583 883.948 572.817 881.522 552.492 883 540Z" stroke="#000000" stroke-width="2" stroke-miterlimit="8" fill="none" fill-rule="evenodd"/><path d="M538 542C554.723 542.608 571.132 543.463 580 542 580.721 552.343 580.734 566.727 580 585 564.161 586.437 547.94 584.286 538 585 538.948 574.817 536.522 554.492 538 542Z" stroke="#000000" stroke-width="2" stroke-miterlimit="8" fill="none" fill-rule="evenodd"/><path d="M536 486C552.723 486.608 569.132 487.463 578 486 578.721 496.343 578.734 510.727 578 529 562.161 530.437 545.94 528.286 536 529 536.948 518.817 534.522 498.492 536 486Z" stroke="#000000" stroke-width="2" stroke-miterlimit="8" fill="none" fill-rule="evenodd"/><path d="M701 360C717.723 360.594 734.132 361.429 743 360 743.721 370.102 743.734 384.152 743 402 727.161 403.404 710.94 401.302 701 402 701.948 392.054 699.522 372.201 701 360Z" stroke="#000000" stroke-width="2" stroke-miterlimit="8" fill="none" fill-rule="evenodd"/><path d="M650 360C666.325 360.594 682.344 361.429 691 360 691.704 370.102 691.717 384.152 691 402 675.538 403.404 659.703 401.302 650 402 650.926 392.054 648.557 372.201 650 360Z" stroke="#000000" stroke-width="2" stroke-miterlimit="8" fill="none" fill-rule="evenodd"/><path d="M596 360C612.325 360.594 628.344 361.429 637 360 637.704 370.102 637.717 384.152 637 402 621.538 403.404 605.703 401.302 596 402 596.926 392.054 594.557 372.201 596 360Z" stroke="#000000" stroke-width="2" stroke-miterlimit="8" fill="none" fill-rule="evenodd"/><path d="M882 480C898.325 480.608 914.344 481.463 923 480 923.704 490.343 923.717 504.727 923 523 907.538 524.437 891.703 522.286 882 523 882.926 512.817 880.557 492.492 882 480Z" stroke="#000000" stroke-width="2" stroke-miterlimit="8" fill="none" fill-rule="evenodd"/><path d="M476 542C492.723 542.608 509.132 543.463 518 542 518.721 552.343 518.734 566.727 518 585 502.161 586.437 485.94 584.286 476 585 476.948 574.817 474.522 554.492 476 542Z" stroke="#000000" stroke-width="2" stroke-miterlimit="8" fill="none" fill-rule="evenodd"/><path d="M474 486C490.723 486.608 507.132 487.463 516 486 516.721 496.343 516.734 510.727 516 529 500.161 530.437 483.94 528.286 474 529 474.948 518.817 472.522 498.492 474 486Z" stroke="#000000" stroke-width="2" stroke-miterlimit="8" fill="none" fill-rule="evenodd"/><path d="M701 295C717.723 295.608 734.132 296.463 743 295 743.721 305.343 743.734 319.727 743 338 727.161 339.437 710.94 337.286 701 338 701.948 327.817 699.522 307.492 701 295Z" stroke="#000000" stroke-width="2" stroke-miterlimit="8" fill="none" fill-rule="evenodd"/><path d="M650 295C666.325 295.608 682.344 296.463 691 295 691.704 305.343 691.717 319.727 691 338 675.538 339.437 659.703 337.286 650 338 650.926 327.817 648.557 307.492 650 295Z" stroke="#000000" stroke-width="2" stroke-miterlimit="8" fill="none" fill-rule="evenodd"/><path d="M596 295C612.325 295.608 628.344 296.463 637 295 637.704 305.343 637.717 319.727 637 338 621.538 339.437 605.703 337.286 596 338 596.926 327.817 594.557 307.492 596 295Z" stroke="#000000" stroke-width="2" stroke-miterlimit="8" fill="none" fill-rule="evenodd"/><path d="M701 539C717.723 539.608 734.132 540.463 743 539 743.721 549.343 743.734 563.727 743 582 727.161 583.437 710.94 581.286 701 582 701.948 571.817 699.522 551.492 701 539Z" stroke="#000000" stroke-width="2" stroke-miterlimit="8" fill="none" fill-rule="evenodd"/><path d="M704 480C720.723 480.608 737.132 481.463 746 480 746.721 490.343 746.734 504.727 746 523 730.161 524.437 713.94 522.286 704 523 704.948 512.817 702.522 492.492 704 480Z" stroke="#000000" stroke-width="2" stroke-miterlimit="8" fill="none" fill-rule="evenodd"/><path d="M701 422C717.723 422.608 734.132 423.463 743 422 743.721 432.343 743.734 446.727 743 465 727.161 466.437 710.94 464.286 701 465 701.948 454.817 699.522 434.492 701 422Z" stroke="#000000" stroke-width="2" stroke-miterlimit="8" fill="none" fill-rule="evenodd"/><path d="M763 361C779.325 361.608 795.344 362.463 804 361 804.704 371.343 804.717 385.727 804 404 788.538 405.437 772.703 403.286 763 404 763.926 393.817 761.557 373.492 763 361Z" stroke="#000000" stroke-width="2" stroke-miterlimit="8" fill="none" fill-rule="evenodd"/><path d="M763 540C779.325 540.608 795.344 541.463 804 540 804.704 550.343 804.717 564.727 804 583 788.538 584.437 772.703 582.286 763 583 763.926 572.817 761.557 552.492 763 540Z" stroke="#000000" stroke-width="2" stroke-miterlimit="8" fill="none" fill-rule="evenodd"/><path d="M765 482C781.723 482.594 798.132 483.429 807 482 807.721 492.102 807.734 506.152 807 524 791.161 525.404 774.94 523.302 765 524 765.948 514.054 763.522 494.201 765 482Z" stroke="#000000" stroke-width="2" stroke-miterlimit="8" fill="none" fill-rule="evenodd"/><path d="M763 424C779.325 424.594 795.344 425.429 804 424 804.704 434.102 804.717 448.152 804 466 788.538 467.404 772.703 465.302 763 466 763.926 456.054 761.557 436.201 763 424Z" stroke="#000000" stroke-width="2" stroke-miterlimit="8" fill="none" fill-rule="evenodd"/><path d="M701 237C717.723 237.608 734.132 238.463 743 237 743.721 247.343 743.734 261.727 743 280 727.161 281.437 710.94 279.286 701 280 701.948 269.817 699.522 249.492 701 237Z" stroke="#000000" stroke-width="2" stroke-miterlimit="8" fill="none" fill-rule="evenodd"/><path d="M649 237C665.723 237.608 682.132 238.463 691 237 691.721 247.343 691.734 261.727 691 280 675.161 281.437 658.94 279.286 649 280 649.948 269.817 647.522 249.492 649 237Z" stroke="#000000" stroke-width="2" stroke-miterlimit="8" fill="none" fill-rule="evenodd"/><path d="M595 237C611.723 237.608 628.132 238.463 637 237 637.721 247.343 637.734 261.727 637 280 621.161 281.437 604.94 279.286 595 280 595.948 269.817 593.522 249.492 595 237Z" stroke="#000000" stroke-width="2" stroke-miterlimit="8" fill="none" fill-rule="evenodd"/><path d="M534 424C550.723 424.594 567.132 425.429 576 424 576.721 434.102 576.734 448.152 576 466 560.161 467.404 543.94 465.302 534 466 534.948 456.054 532.522 436.201 534 424Z" stroke="#000000" stroke-width="2" stroke-miterlimit="8" fill="none" fill-rule="evenodd"/><path d="M534 361C550.723 361.608 567.132 362.463 576 361 576.721 371.343 576.734 385.727 576 404 560.161 405.437 543.94 403.286 534 404 534.948 393.817 532.522 373.492 534 361Z" stroke="#000000" stroke-width="2" stroke-miterlimit="8" fill="none" fill-rule="evenodd"/><path d="M534 297C550.723 297.608 567.132 298.463 576 297 576.721 307.343 576.734 321.727 576 340 560.161 341.437 543.94 339.286 534 340 534.948 329.817 532.522 309.492 534 297Z" stroke="#000000" stroke-width="2" stroke-miterlimit="8" fill="none" fill-rule="evenodd"/><path d="M534 239C550.325 239.594 566.344 240.429 575 239 575.704 249.102 575.717 263.152 575 281 559.538 282.404 543.703 280.302 534 281 534.926 271.054 532.557 251.201 534 239Z" stroke="#000000" stroke-width="2" stroke-miterlimit="8" fill="none" fill-rule="evenodd"/><path d="M413 544C429.723 544.608 446.132 545.463 455 544 455.721 554.343 455.734 568.727 455 587 439.161 588.437 422.94 586.286 413 587 413.948 576.817 411.522 556.492 413 544Z" stroke="#000000" stroke-width="2" stroke-miterlimit="8" fill="none" fill-rule="evenodd"/><path d="M411 488C427.723 488.608 444.132 489.463 453 488 453.721 498.343 453.734 512.727 453 531 437.161 532.437 420.94 530.286 411 531 411.948 520.817 409.522 500.492 411 488Z" stroke="#000000" stroke-width="2" stroke-miterlimit="8" fill="none" fill-rule="evenodd"/></g></svg>