<svg width="1280" height="720" xmlns="http://www.w3.org/2000/svg" xmlns:xlink="http://www.w3.org/1999/xlink" overflow="hidden"><g><rect x="0" y="0" width="1280" height="720" fill="#FFFFFF"/><path d="M771.064 374.833C794.155 370.953 817.448 371.355 841.909 373.797 841.289 390.346 833.656 411.724 830.679 437.7 827.702 463.675 826.71 469.161 820.757 494.157 814.805 519.153 815.419 534.037 809.2 559.921 807.415 538.73 801.263 529.825 797.632 503.778 794.002 477.73 788.07 465.744 786.064 447.634 784.058 429.525 777.25 399.737 771.064 374.833Z" stroke="#000000" stroke-width="2" stroke-miterlimit="8" fill="none" fill-rule="evenodd"/><path d="M700.121 372.651C723.212 368.771 746.505 369.173 770.966 371.616 770.346 388.165 762.713 409.543 759.736 435.518 756.759 461.493 755.767 466.98 749.814 491.976 743.862 516.972 744.476 531.855 738.257 557.74 736.472 536.549 730.32 527.643 726.689 501.596 723.059 475.549 717.128 463.562 715.121 445.453 713.115 427.343 706.307 397.556 700.121 372.651Z" stroke="#000000" stroke-width="2" stroke-miterlimit="8" fill="none" fill-rule="evenodd"/><path d="M628.121 371.652C651.212 367.772 674.505 368.174 698.966 370.616 698.346 387.166 690.713 408.544 687.736 434.519 684.759 460.494 683.767 465.981 677.814 490.977 671.862 515.973 672.476 530.856 666.257 556.74 664.472 535.55 658.32 526.644 654.689 500.597 651.059 474.55 645.127 462.563 643.121 444.454 641.115 426.344 634.307 396.557 628.121 371.652Z" stroke="#000000" stroke-width="2" stroke-miterlimit="8" fill="none" fill-rule="evenodd"/><path d="M482.961 376.623C506.052 372.743 529.345 373.145 553.806 375.587 553.186 392.136 545.553 413.514 542.576 439.49 539.599 465.465 538.607 470.951 532.655 495.947 526.702 520.943 527.316 535.827 521.097 561.711 519.313 540.52 513.16 531.615 509.53 505.568 505.899 479.52 499.968 467.534 497.962 449.424 495.955 431.315 489.147 401.527 482.961 376.623Z" stroke="#000000" stroke-width="2" stroke-miterlimit="8" fill="none" fill-rule="evenodd"/><path d="M556.105 372.755C579.195 368.875 602.489 369.277 626.95 371.719 626.329 388.268 618.697 409.646 615.72 435.622 612.742 461.597 611.75 467.083 605.798 492.079 599.846 517.075 600.459 531.959 594.241 557.843 592.456 536.652 586.303 527.747 582.673 501.7 579.043 475.652 573.111 463.666 571.105 445.556 569.099 427.447 562.291 397.659 556.105 372.755Z" stroke="#000000" stroke-width="2" stroke-miterlimit="8" fill="none" fill-rule="evenodd"/><path d="M409.818 378.098C432.909 374.218 456.202 374.62 480.663 377.062 480.043 393.611 472.41 414.989 469.433 440.965 466.456 466.94 465.464 472.426 459.511 497.422 453.559 522.418 454.173 537.302 447.954 563.186 446.169 541.995 440.017 533.09 436.386 507.043 432.756 480.995 426.825 469.009 424.818 450.899 422.812 432.79 416.004 403.002 409.818 378.098Z" stroke="#000000" stroke-width="2" stroke-miterlimit="8" fill="none" fill-rule="evenodd"/><path d="M264.128 380.191C287.219 376.311 310.512 376.713 334.973 379.156 334.353 395.705 326.721 417.083 323.743 443.058 320.766 469.034 319.774 474.52 313.822 499.516 307.869 524.512 308.483 539.396 302.264 565.28 300.48 544.089 294.327 535.184 290.697 509.136 287.066 483.089 281.135 471.102 279.129 452.993 277.122 434.883 270.314 405.096 264.128 380.191Z" stroke="#000000" stroke-width="2" stroke-miterlimit="8" fill="none" fill-rule="evenodd"/><path d="M336.129 381.191C359.219 377.311 382.512 377.713 406.974 380.155 406.353 396.704 398.721 418.082 395.743 444.057 392.766 470.033 391.774 475.519 385.822 500.515 379.869 525.511 380.483 540.395 374.265 566.279 372.48 545.088 366.327 536.183 362.697 510.135 359.066 484.088 353.135 472.102 351.129 453.992 349.123 435.883 342.314 406.095 336.129 381.191Z" stroke="#000000" stroke-width="2" stroke-miterlimit="8" fill="none" fill-rule="evenodd"/><path d="M302.647 565.587C279.557 569.475 256.264 569.081 231.802 566.647 232.417 550.097 240.042 528.717 243.011 502.74 245.979 476.764 246.969 471.277 252.913 446.279 258.857 421.281 258.238 406.398 264.448 380.511 266.24 401.702 272.396 410.605 276.035 436.651 279.674 462.697 285.61 474.682 287.622 492.791 289.634 510.899 296.452 540.684 302.647 565.587Z" fill="#FFFFFF" fill-rule="evenodd"/><path d="M302.647 565.587C275.999 573.936 252.506 570.343 231.802 566.647 232.822 551.709 238.067 529.463 241.705 510.186 245.342 490.908 249.375 465.806 252.587 448.141 255.798 430.475 262.289 411.316 264.448 380.511 267.748 405.843 273.026 424.473 276.417 438.502 279.809 452.53 283.389 472.521 288.386 496.492 293.382 520.464 297.61 538.852 302.647 565.587Z" stroke="#000000" stroke-width="2" stroke-miterlimit="8" fill="none" fill-rule="evenodd"/><path d="M374.647 564.588C351.558 568.476 328.264 568.082 303.802 565.647 304.417 549.098 312.042 527.717 315.011 501.741 317.979 475.765 318.97 470.278 324.913 445.28 330.857 420.282 330.238 405.399 336.448 379.512 338.24 400.703 344.396 409.606 348.035 435.652 351.674 461.698 357.61 473.683 359.622 491.791 361.634 509.9 368.453 539.685 374.647 564.588Z" fill="#FFFFFF" fill-rule="evenodd"/><path d="M374.647 564.588C348 572.937 324.506 569.344 303.802 565.647 304.822 550.709 310.067 528.464 313.705 509.186 317.343 489.909 321.376 464.807 324.587 447.141 327.798 429.476 334.289 410.317 336.448 379.512 339.748 404.844 345.026 423.474 348.417 437.503 351.809 451.531 355.39 471.522 360.386 495.493 365.383 519.464 369.61 537.853 374.647 564.588Z" stroke="#000000" stroke-width="2" stroke-miterlimit="8" fill="none" fill-rule="evenodd"/><path d="M448.141 564.157C425.052 568.045 401.759 567.651 377.297 565.217 377.911 548.667 385.537 527.287 388.505 501.311 391.473 475.334 392.464 469.848 398.408 444.85 404.352 419.852 403.733 404.968 409.943 379.082 411.735 400.272 417.89 409.175 421.53 435.221 425.169 461.267 431.104 473.252 433.116 491.361 435.129 509.47 441.947 539.255 448.141 564.157Z" fill="#FFFFFF" fill-rule="evenodd"/><path d="M448.141 564.157C421.494 572.507 398 568.914 377.297 565.217 378.316 550.279 383.562 528.033 387.199 508.756 390.837 489.479 394.87 464.376 398.081 446.711 401.293 429.046 407.783 409.887 409.943 379.082 413.242 404.413 418.52 423.044 421.912 437.072 425.303 451.101 428.884 471.091 433.88 495.062 438.877 519.034 443.105 537.423 448.141 564.157Z" stroke="#000000" stroke-width="2" stroke-miterlimit="8" fill="none" fill-rule="evenodd"/><path d="M521.428 564.157C498.339 568.045 475.045 567.651 450.583 565.217 451.198 548.667 458.823 527.287 461.792 501.31 464.76 475.334 465.751 469.847 471.694 444.849 477.638 419.851 477.019 404.968 483.229 379.082 485.021 400.272 491.177 409.175 494.816 435.221 498.455 461.267 504.391 473.252 506.403 491.361 508.415 509.47 515.234 539.255 521.428 564.157Z" fill="#FFFFFF" fill-rule="evenodd"/><path d="M521.428 564.157C494.781 572.507 471.287 568.914 450.583 565.217 451.603 550.279 456.848 528.033 460.486 508.756 464.124 489.479 468.157 464.376 471.368 446.711 474.579 429.045 481.07 409.887 483.229 379.082 486.529 404.413 491.807 423.044 495.198 437.072 498.59 451.1 502.171 471.091 507.167 495.062 512.164 519.034 516.391 537.423 521.428 564.157Z" stroke="#000000" stroke-width="2" stroke-miterlimit="8" fill="none" fill-rule="evenodd"/><path d="M594.715 562.491C571.625 566.379 548.332 565.984 523.87 563.55 524.485 547.001 532.11 525.62 535.079 499.644 538.047 473.668 539.037 468.181 544.981 443.183 550.925 418.185 550.306 403.302 556.516 377.415 558.308 398.606 564.464 407.509 568.103 433.555 571.742 459.601 577.678 471.586 579.69 489.694 581.702 507.803 588.52 537.588 594.715 562.491Z" fill="#FFFFFF" fill-rule="evenodd"/><path d="M594.715 562.491C568.068 570.84 544.574 567.247 523.87 563.55 524.89 548.612 530.135 526.367 533.773 507.089 537.41 487.812 541.443 462.71 544.655 445.044 547.866 427.379 554.357 408.22 556.516 377.415 559.816 402.747 565.094 421.377 568.485 435.406 571.877 449.434 575.457 469.424 580.454 493.396 585.451 517.367 589.678 535.756 594.715 562.491Z" stroke="#000000" stroke-width="2" stroke-miterlimit="8" fill="none" fill-rule="evenodd"/><path d="M738.715 562.158C715.626 566.046 692.332 565.652 667.87 563.218 668.485 546.668 676.11 525.288 679.079 499.311 682.047 473.335 683.038 467.848 688.981 442.85 694.925 417.852 694.307 402.969 700.516 377.083 702.308 398.273 708.464 407.176 712.103 433.222 715.742 459.268 721.678 471.253 723.69 489.362 725.702 507.47 732.521 537.255 738.715 562.158Z" fill="#FFFFFF" fill-rule="evenodd"/><path d="M738.715 562.158C712.068 570.507 688.574 566.914 667.87 563.218 668.89 548.28 674.135 526.034 677.773 506.757 681.411 487.479 685.444 462.377 688.655 444.712 691.866 427.046 698.357 407.887 700.516 377.083 703.816 402.414 709.094 421.044 712.485 435.073 715.877 449.101 719.458 469.092 724.454 493.063 729.451 517.035 733.678 535.423 738.715 562.158Z" stroke="#000000" stroke-width="2" stroke-miterlimit="8" fill="none" fill-rule="evenodd"/><path d="M666.715 561.823C643.626 565.71 620.332 565.316 595.87 562.882 596.485 546.333 604.11 524.952 607.079 498.976 610.047 473 611.037 467.513 616.981 442.515 622.925 417.517 622.306 402.633 628.516 376.747 630.308 397.938 636.464 406.841 640.103 432.887 643.742 458.933 649.678 470.918 651.69 489.026 653.702 507.135 660.521 536.92 666.715 561.823Z" fill="#FFFFFF" fill-rule="evenodd"/><path d="M666.715 561.823C640.068 570.172 616.574 566.579 595.87 562.882 596.89 547.944 602.135 525.699 605.773 506.421 609.41 487.144 613.444 462.042 616.655 444.376 619.866 426.711 626.357 407.552 628.516 376.747 631.816 402.079 637.094 420.709 640.485 434.738 643.877 448.766 647.457 468.756 652.454 492.728 657.451 516.699 661.678 535.088 666.715 561.823Z" stroke="#000000" stroke-width="2" stroke-miterlimit="8" fill="none" fill-rule="evenodd"/><path d="M809.658 561.823C786.569 565.71 763.275 565.316 738.813 562.882 739.428 546.333 747.053 524.952 750.022 498.976 752.99 473 753.98 467.513 759.924 442.515 765.868 417.517 765.249 402.633 771.459 376.747 773.251 397.937 779.407 406.841 783.046 432.887 786.685 458.933 792.621 470.917 794.633 489.026 796.645 507.135 803.464 536.92 809.658 561.823Z" fill="#FFFFFF" fill-rule="evenodd"/><path d="M809.658 561.823C783.011 570.172 759.517 566.579 738.813 562.882 739.833 547.944 745.078 525.699 748.716 506.421 752.353 487.144 756.387 462.042 759.598 444.376 762.809 426.711 769.3 407.552 771.459 376.747 774.759 402.078 780.037 420.709 783.428 434.737 786.82 448.766 790.401 468.756 795.397 492.728 800.394 516.699 804.621 535.088 809.658 561.823Z" stroke="#000000" stroke-width="2" stroke-miterlimit="8" fill="none" fill-rule="evenodd"/></g></svg>