<svg width="1280" height="720" xmlns="http://www.w3.org/2000/svg" xmlns:xlink="http://www.w3.org/1999/xlink" overflow="hidden"><g><rect x="0" y="0" width="1280" height="720" fill="#FFFFFF"/><path d="M244.359 485.183C234.381 481.5 231.416 470.991 233.778 462.187 235.786 454.363 246.131 446.948 256.528 451.086 265.261 452.457 270.929 465.067 267.109 474.082 264.105 483.762 252.883 486.758 244.359 485.183Z" fill="#E59EDD" fill-rule="evenodd"/><path d="M244.359 485.183C235.382 481.783 229.928 472.047 233.778 462.187 237.626 452.69 246.01 448.175 256.528 451.086 263.881 455.739 269.581 466.767 267.109 474.082 264.26 483.711 252.33 486.455 244.359 485.183Z" stroke="#000000" stroke-width="2" stroke-miterlimit="8" fill="none" fill-rule="evenodd"/><path d="M804 403C804.114 392.181 812.966 385.747 822 385 829.998 384.248 840.4 391.624 840 403 841.635 411.835 831.72 421.578 822 421 811.931 421.431 805.374 411.705 804 403Z" fill="#B4E5A2" fill-rule="evenodd"/><path d="M804 403C804.183 393.237 811.479 384.682 822 385 832.18 385.439 839.211 391.927 840 403 838.1 411.635 829.677 420.867 822 421 812.03 421.562 805.473 411.071 804 403Z" stroke="#000000" stroke-width="2" stroke-miterlimit="8" fill="none" fill-rule="evenodd"/><path d="M525.113 508.611C515.581 503.892 513.745 493.127 517.026 484.623 519.851 477.056 530.922 470.778 540.824 475.994 549.362 478.281 553.663 491.421 548.91 499.981 544.897 509.288 533.422 511.079 525.113 508.611Z" fill="#B4E5A2" fill-rule="evenodd"/><path d="M525.113 508.611C516.546 504.279 512.154 494.02 517.026 484.623 521.858 475.587 530.672 471.985 540.824 475.994 547.642 481.398 552.143 492.968 548.91 499.981 545.057 509.254 532.904 510.719 525.113 508.611Z" stroke="#000000" stroke-width="2" stroke-miterlimit="8" fill="none" fill-rule="evenodd"/><path d="M316 466.5C316.114 455.982 324.966 449.726 334 449 341.998 448.269 352.4 455.44 352 466.5 353.635 475.09 343.72 484.562 334 484 323.931 484.419 317.374 474.963 316 466.5Z" fill="#E59EDD" fill-rule="evenodd"/><path d="M316 466.5C316.183 457.008 323.479 448.691 334 449 344.18 449.427 351.211 455.735 352 466.5 350.1 474.895 341.677 483.871 334 484 324.03 484.546 317.473 474.347 316 466.5Z" stroke="#000000" stroke-width="2" stroke-miterlimit="8" fill="none" fill-rule="evenodd"/><path d="M232 421.5C232.117 410.982 241.215 404.726 250.5 404 258.721 403.269 269.411 410.44 269 421.5 270.681 430.09 260.49 439.562 250.5 439 240.151 439.419 233.412 429.963 232 421.5Z" fill="#E59EDD" fill-rule="evenodd"/><path d="M232 421.5C232.188 412.008 239.687 403.691 250.5 404 260.963 404.427 268.189 410.735 269 421.5 267.048 429.895 258.391 438.871 250.5 439 240.253 439.546 233.514 429.347 232 421.5Z" stroke="#000000" stroke-width="2" stroke-miterlimit="8" fill="none" fill-rule="evenodd"/><path d="M282.614 461.325C273.082 456.606 271.247 445.842 274.528 437.337 277.353 429.77 288.424 423.492 298.325 428.708 306.864 430.996 311.165 444.135 306.412 452.695 302.399 462.002 290.923 463.794 282.614 461.325Z" fill="#B4E5A2" fill-rule="evenodd"/><path d="M282.614 461.325C274.047 456.994 269.655 446.734 274.528 437.337 279.359 428.302 288.174 424.7 298.325 428.708 305.144 434.113 309.644 445.682 306.412 452.695 302.559 461.968 290.405 463.433 282.614 461.325Z" stroke="#000000" stroke-width="2" stroke-miterlimit="8" fill="none" fill-rule="evenodd"/><text font-family="Calibri,Calibri_MSFontService,sans-serif" font-weight="400" font-size="37" transform="translate(100.586 566)">F</text><text font-family="Calibri,Calibri_MSFontService,sans-serif" font-weight="400" font-size="25" transform="translate(117.753 574)">1</text><text font-family="Calibri,Calibri_MSFontService,sans-serif" font-weight="400" font-size="37" transform="translate(279.558 569)">F</text><text font-family="Calibri,Calibri_MSFontService,sans-serif" font-weight="400" font-size="25" transform="translate(296.725 577)">2</text><text font-family="Calibri,Calibri_MSFontService,sans-serif" font-weight="400" font-size="37" transform="translate(495.156 577)">F</text><text font-family="Calibri,Calibri_MSFontService,sans-serif" font-weight="400" font-size="25" transform="translate(512.323 585)">3</text><text font-family="Calibri,Calibri_MSFontService,sans-serif" font-weight="400" font-size="37" transform="translate(767.666 575)">F</text><text font-family="Calibri,Calibri_MSFontService,sans-serif" font-weight="400" font-size="25" transform="translate(784.833 583)">4</text><path d="M285.433 505.81C275.455 502.127 272.49 491.617 274.852 482.813 276.86 474.99 287.204 467.575 297.602 471.713 306.335 473.083 312.003 485.694 308.182 494.709 305.178 504.388 293.957 507.385 285.433 505.81Z" fill="#B4E5A2" fill-rule="evenodd"/><path d="M285.433 505.81C276.455 502.41 271.001 492.673 274.852 482.813 278.699 473.317 287.083 468.802 297.602 471.713 304.954 476.365 310.654 487.393 308.182 494.709 305.333 504.337 293.403 507.081 285.433 505.81Z" stroke="#000000" stroke-width="2" stroke-miterlimit="8" fill="none" fill-rule="evenodd"/><path d="M281.339 417.169C271.807 412.451 269.971 401.686 273.252 393.182 276.077 385.615 287.149 379.337 297.05 384.552 305.589 386.84 309.889 399.98 305.136 408.54 301.124 417.847 289.648 419.638 281.339 417.169Z" fill="#B4E5A2" fill-rule="evenodd"/><path d="M281.339 417.169C272.772 412.838 268.38 402.579 273.252 393.182 278.084 384.146 286.899 380.544 297.05 384.552 303.869 389.957 308.369 401.527 305.136 408.54 301.283 417.812 289.13 419.278 281.339 417.169Z" stroke="#000000" stroke-width="2" stroke-miterlimit="8" fill="none" fill-rule="evenodd"/><path d="M133.613 443.97C124.081 439.252 122.246 428.487 125.527 419.983 128.352 412.416 139.423 406.138 149.324 411.353 157.863 413.641 162.164 426.781 157.41 435.341 153.398 444.648 141.922 446.439 133.613 443.97Z" fill="#E59EDD" fill-rule="evenodd"/><path d="M133.613 443.97C125.046 439.639 120.654 429.38 125.527 419.983 130.358 410.947 139.173 407.345 149.324 411.353 156.143 416.758 160.643 428.328 157.41 435.341 153.557 444.613 141.404 446.079 133.613 443.97Z" stroke="#000000" stroke-width="2" stroke-miterlimit="8" fill="none" fill-rule="evenodd"/><path d="M122 470C122.081 459.986 132.95 454.645 142 453 151.182 452.279 162.209 459.862 162 470 163.569 478.328 152.69 487.926 142 487 130.372 488.958 122.424 479.007 122 470Z" fill="#E59EDD" fill-rule="evenodd"/><path d="M122 470C123.382 461.952 130.485 452.743 142 453 153.182 453.25 161.292 459.596 162 470 161.637 479.139 150.766 486.866 142 487 130.856 488.926 123.154 477.923 122 470Z" stroke="#000000" stroke-width="2" stroke-miterlimit="8" fill="none" fill-rule="evenodd"/><path d="M90.183 486.78C80.2049 483.097 77.24 472.587 79.6021 463.784 81.6099 455.96 91.9543 448.545 102.352 452.683 111.085 454.054 116.753 466.664 112.933 475.679 109.928 485.359 98.7069 488.355 90.183 486.78Z" fill="#E59EDD" fill-rule="evenodd"/><path d="M90.183 486.78C81.2056 483.38 75.7518 473.643 79.6021 463.784 83.4498 454.287 91.8335 449.772 102.352 452.683 109.705 457.335 115.405 468.363 112.933 475.679 110.083 485.308 98.1533 488.051 90.183 486.78Z" stroke="#000000" stroke-width="2" stroke-miterlimit="8" fill="none" fill-rule="evenodd"/><path d="M78 428C78.1141 417.181 86.9656 410.747 96.0001 410 103.998 409.248 114.4 416.624 114 428 115.635 436.835 105.72 446.578 96.0001 446 85.9306 446.431 79.3739 436.705 78 428Z" fill="#E59EDD" fill-rule="evenodd"/><path d="M78 428C78.1833 418.237 85.4791 409.682 96.0001 410 106.18 410.439 113.211 416.927 114 428 112.1 436.635 103.677 445.867 96.0001 446 86.0302 446.562 79.4731 436.071 78 428Z" stroke="#000000" stroke-width="2" stroke-miterlimit="8" fill="none" fill-rule="evenodd"/><path d="M325.823 441.157C316.291 436.438 314.456 425.673 317.737 417.169 320.562 409.602 331.633 403.324 341.534 408.54 350.073 410.827 354.374 423.967 349.621 432.527 345.608 441.834 334.133 443.625 325.823 441.157Z" fill="#E59EDD" fill-rule="evenodd"/><path d="M325.823 441.157C317.256 436.825 312.864 426.566 317.737 417.169 322.568 408.134 331.383 404.531 341.534 408.54 348.353 413.945 352.853 425.514 349.621 432.527 345.768 441.8 333.614 443.265 325.823 441.157Z" stroke="#000000" stroke-width="2" stroke-miterlimit="8" fill="none" fill-rule="evenodd"/><path d="M815.419 510.972C805.887 506.253 804.052 495.489 807.332 486.984 810.157 479.417 821.229 473.139 831.13 478.355 839.669 480.643 843.97 493.782 839.216 502.342 835.204 511.649 823.728 513.44 815.419 510.972Z" fill="#B4E5A2" fill-rule="evenodd"/><path d="M815.419 510.972C806.852 506.641 802.46 496.381 807.332 486.984 812.164 477.949 820.979 474.347 831.13 478.355 837.949 483.76 842.449 495.329 839.216 502.342 835.363 511.615 823.21 513.08 815.419 510.972Z" stroke="#000000" stroke-width="2" stroke-miterlimit="8" fill="none" fill-rule="evenodd"/><path d="M808.751 438.583C813.992 429.328 824.842 428.094 833.151 431.843 840.549 435.084 846.202 446.487 840.444 456.083 837.685 464.482 824.326 468.045 816.044 462.824 806.975 458.3 805.824 446.743 808.751 438.583Z" fill="#B4E5A2" fill-rule="evenodd"/><path d="M808.751 438.583C813.552 430.271 824.039 426.455 833.151 431.843 841.904 437.169 845.01 446.171 840.444 456.083 834.668 462.591 822.866 466.441 816.044 462.824 807 458.461 806.213 446.245 808.751 438.583Z" stroke="#000000" stroke-width="2" stroke-miterlimit="8" fill="none" fill-rule="evenodd"/><path d="M571.609 447.649C561.631 443.966 558.666 433.457 561.028 424.653 563.036 416.829 573.38 409.414 583.778 413.552 592.511 414.923 598.179 427.533 594.359 436.548 591.354 446.228 580.133 449.224 571.609 447.649Z" fill="#E59EDD" fill-rule="evenodd"/><path d="M571.609 447.649C562.631 444.249 557.178 434.513 561.028 424.653 564.876 415.156 573.259 410.641 583.778 413.552 591.13 418.205 596.83 429.233 594.359 436.548 591.509 446.177 579.579 448.921 571.609 447.649Z" stroke="#000000" stroke-width="2" stroke-miterlimit="8" fill="none" fill-rule="evenodd"/><path d="M562 475C562.114 464.181 570.966 457.747 580 457 587.998 456.248 598.4 463.624 598 475 599.635 483.835 589.72 493.578 580 493 569.931 493.431 563.374 483.705 562 475Z" fill="#E59EDD" fill-rule="evenodd"/><path d="M562 475C562.183 465.237 569.479 456.682 580 457 590.18 457.439 597.211 463.927 598 475 596.1 483.635 587.677 492.867 580 493 570.03 493.562 563.473 483.071 562 475Z" stroke="#000000" stroke-width="2" stroke-miterlimit="8" fill="none" fill-rule="evenodd"/><path d="M525.285 420.769C515.753 416.05 513.918 405.286 517.199 396.782 520.023 389.214 531.095 382.936 540.996 388.152 549.535 390.44 553.836 403.579 549.082 412.139 545.07 421.446 533.594 423.238 525.285 420.769Z" fill="#B4E5A2" fill-rule="evenodd"/><path d="M525.285 420.769C516.718 416.438 512.326 406.178 517.199 396.782 522.03 387.746 530.845 384.144 540.996 388.152 547.815 393.557 552.315 405.127 549.082 412.139 545.229 421.412 533.076 422.877 525.285 420.769Z" stroke="#000000" stroke-width="2" stroke-miterlimit="8" fill="none" fill-rule="evenodd"/><path d="M439.566 489.2C429.587 485.517 426.623 475.007 428.985 466.204 430.992 458.38 441.337 450.965 451.734 455.103 460.468 456.474 466.136 469.084 462.315 478.099 459.311 487.779 448.089 490.775 439.566 489.2Z" fill="#E59EDD" fill-rule="evenodd"/><path d="M439.566 489.2C430.588 485.8 425.134 476.064 428.985 466.204 432.832 456.707 441.216 452.192 451.734 455.103 459.087 459.755 464.787 470.784 462.315 478.099 459.466 487.728 447.536 490.472 439.566 489.2Z" stroke="#000000" stroke-width="2" stroke-miterlimit="8" fill="none" fill-rule="evenodd"/><path d="M428 425.5C428.114 414.982 436.966 408.726 446 408 453.998 407.269 464.4 414.44 464 425.5 465.635 434.09 455.72 443.562 446 443 435.931 443.419 429.374 433.963 428 425.5Z" fill="#E59EDD" fill-rule="evenodd"/><path d="M428 425.5C428.183 416.008 435.479 407.691 446 408 456.18 408.427 463.211 414.735 464 425.5 462.1 433.895 453.677 442.871 446 443 436.03 443.546 429.473 433.347 428 425.5Z" stroke="#000000" stroke-width="2" stroke-miterlimit="8" fill="none" fill-rule="evenodd"/><path d="M477.821 465.342C468.288 460.623 466.453 449.859 469.734 441.354 472.559 433.787 483.63 427.509 493.531 432.725 502.07 435.012 506.371 448.152 501.618 456.712 497.605 466.019 486.13 467.81 477.821 465.342Z" fill="#B4E5A2" fill-rule="evenodd"/><path d="M477.821 465.342C469.254 461.011 464.861 450.751 469.734 441.354 474.566 432.319 483.38 428.717 493.531 432.725 500.35 438.13 504.85 449.699 501.618 456.712 497.765 465.985 485.611 467.45 477.821 465.342Z" stroke="#000000" stroke-width="2" stroke-miterlimit="8" fill="none" fill-rule="evenodd"/><path d="M480.639 509.827C470.661 506.144 467.696 495.634 470.058 486.83 472.066 479.007 482.41 471.591 492.808 475.73 501.541 477.1 507.209 489.711 503.389 498.726 500.384 508.405 489.163 511.402 480.639 509.827Z" fill="#B4E5A2" fill-rule="evenodd"/><path d="M480.639 509.827C471.661 506.427 466.208 496.69 470.058 486.83 473.906 477.334 482.289 472.819 492.808 475.73 500.161 480.382 505.861 491.41 503.389 498.726 500.539 508.354 488.609 511.098 480.639 509.827Z" stroke="#000000" stroke-width="2" stroke-miterlimit="8" fill="none" fill-rule="evenodd"/><path d="M476.545 421.186C467.013 416.467 465.178 405.703 468.459 397.199 471.283 389.632 482.355 383.354 492.256 388.569 500.795 390.857 505.096 403.997 500.342 412.557 496.33 421.864 484.854 423.655 476.545 421.186Z" fill="#B4E5A2" fill-rule="evenodd"/><path d="M476.545 421.186C467.978 416.855 463.586 406.596 468.459 397.199 473.29 388.163 482.105 384.561 492.256 388.569 499.075 393.974 503.575 405.544 500.342 412.557 496.489 421.829 484.336 423.294 476.545 421.186Z" stroke="#000000" stroke-width="2" stroke-miterlimit="8" fill="none" fill-rule="evenodd"/><path d="M524.242 465.871C514.71 461.152 512.874 450.388 516.155 441.884 518.98 434.317 530.052 428.038 539.953 433.254 548.491 435.542 552.792 448.682 548.039 457.242 544.027 466.548 532.551 468.34 524.242 465.871Z" fill="#B4E5A2" fill-rule="evenodd"/><path d="M524.242 465.871C515.675 461.54 511.283 451.281 516.155 441.884 520.987 432.848 529.802 429.246 539.953 433.254 546.772 438.659 551.272 450.229 548.039 457.242 544.186 466.514 532.033 467.979 524.242 465.871Z" stroke="#000000" stroke-width="2" stroke-miterlimit="8" fill="none" fill-rule="evenodd"/><path d="M769.416 509.505C759.884 504.786 758.048 494.021 761.329 485.517 764.154 477.95 775.226 471.672 785.127 476.888 793.666 479.175 797.967 492.315 793.213 500.875 789.201 510.182 777.725 511.973 769.416 509.505Z" fill="#B4E5A2" fill-rule="evenodd"/><path d="M769.416 509.505C760.849 505.173 756.457 494.914 761.329 485.517 766.161 476.482 774.976 472.88 785.127 476.888 791.946 482.293 796.446 493.862 793.213 500.875 789.36 510.148 777.207 511.613 769.416 509.505Z" stroke="#000000" stroke-width="2" stroke-miterlimit="8" fill="none" fill-rule="evenodd"/><path d="M860.2 445.637C850.222 441.954 847.257 431.444 849.619 422.641 851.627 414.817 861.971 407.402 872.369 411.54 881.102 412.911 886.77 425.521 882.95 434.536 879.945 444.216 868.724 447.212 860.2 445.637Z" fill="#E59EDD" fill-rule="evenodd"/><path d="M860.2 445.637C851.223 442.237 845.769 432.501 849.619 422.641 853.467 413.144 861.851 408.629 872.369 411.54 879.722 416.192 885.422 427.221 882.95 434.536 880.1 444.165 868.171 446.909 860.2 445.637Z" stroke="#000000" stroke-width="2" stroke-miterlimit="8" fill="none" fill-rule="evenodd"/><path d="M850 473C850.114 462.181 858.966 455.747 868 455 875.998 454.248 886.4 461.624 886 473 887.635 481.835 877.72 491.578 868 491 857.931 491.431 851.374 481.705 850 473Z" fill="#E59EDD" fill-rule="evenodd"/><path d="M850 473C850.183 463.237 857.479 454.682 868 455 878.18 455.439 885.211 461.927 886 473 884.1 481.635 875.677 490.867 868 491 858.03 491.562 851.473 481.071 850 473Z" stroke="#000000" stroke-width="2" stroke-miterlimit="8" fill="none" fill-rule="evenodd"/><path d="M769.588 421.663C760.056 416.944 758.221 406.18 761.502 397.676 764.327 390.108 775.398 383.83 785.299 389.046 793.838 391.334 798.139 404.474 793.386 413.033 789.373 422.34 777.898 424.132 769.588 421.663Z" fill="#B4E5A2" fill-rule="evenodd"/><path d="M769.588 421.663C761.021 417.332 756.629 407.072 761.502 397.676 766.333 388.64 775.148 385.038 785.299 389.046 792.118 394.451 796.618 406.021 793.386 413.033 789.533 422.306 777.379 423.771 769.588 421.663Z" stroke="#000000" stroke-width="2" stroke-miterlimit="8" fill="none" fill-rule="evenodd"/><path d="M683.869 490.094C673.891 486.411 670.926 475.901 673.288 467.098 675.296 459.274 685.64 451.859 696.038 455.997 704.771 457.368 710.439 469.978 706.619 478.993 703.614 488.673 692.393 491.669 683.869 490.094Z" fill="#E59EDD" fill-rule="evenodd"/><path d="M683.869 490.094C674.891 486.694 669.438 476.958 673.288 467.098 677.136 457.601 685.519 453.086 696.038 455.997 703.391 460.649 709.09 471.678 706.619 478.993 703.769 488.622 691.839 491.366 683.869 490.094Z" stroke="#000000" stroke-width="2" stroke-miterlimit="8" fill="none" fill-rule="evenodd"/><path d="M672 426C672.114 415.181 680.966 408.747 690 408 697.998 407.248 708.4 414.624 708 426 709.635 434.835 699.72 444.578 690 444 679.931 444.431 673.374 434.705 672 426Z" fill="#E59EDD" fill-rule="evenodd"/><path d="M672 426C672.183 416.237 679.479 407.682 690 408 700.18 408.439 707.211 414.927 708 426 706.1 434.635 697.677 443.867 690 444 680.03 444.562 673.473 434.071 672 426Z" stroke="#000000" stroke-width="2" stroke-miterlimit="8" fill="none" fill-rule="evenodd"/><path d="M722.124 466.236C712.592 461.517 710.756 450.753 714.037 442.248 716.862 434.681 727.933 428.403 737.834 433.619 746.373 435.907 750.674 449.046 745.921 457.606 741.908 466.913 730.433 468.705 722.124 466.236Z" fill="#B4E5A2" fill-rule="evenodd"/><path d="M722.124 466.236C713.557 461.905 709.164 451.645 714.037 442.248 718.869 433.213 727.683 429.611 737.834 433.619 744.653 439.024 749.154 450.593 745.921 457.606 742.068 466.879 729.915 468.344 722.124 466.236Z" stroke="#000000" stroke-width="2" stroke-miterlimit="8" fill="none" fill-rule="evenodd"/><path d="M724.942 510.721C714.964 507.038 711.999 496.528 714.361 487.724 716.369 479.901 726.713 472.486 737.111 476.624 745.844 477.994 751.512 490.605 747.692 499.62 744.687 509.299 733.466 512.296 724.942 510.721Z" fill="#B4E5A2" fill-rule="evenodd"/><path d="M724.942 510.721C715.965 507.321 710.511 497.584 714.361 487.724 718.209 478.228 726.593 473.713 737.111 476.624 744.464 481.276 750.164 492.304 747.692 499.62 744.842 509.248 732.912 511.992 724.942 510.721Z" stroke="#000000" stroke-width="2" stroke-miterlimit="8" fill="none" fill-rule="evenodd"/><path d="M720.848 422.08C711.316 417.362 709.481 406.597 712.762 398.093 715.587 390.526 726.658 384.248 736.559 389.463 745.098 391.751 749.399 404.891 744.646 413.451 740.633 422.758 729.158 424.549 720.848 422.08Z" fill="#B4E5A2" fill-rule="evenodd"/><path d="M720.848 422.08C712.281 417.749 707.889 407.49 712.762 398.093 717.593 389.057 726.408 385.455 736.559 389.463 743.378 394.868 747.878 406.438 744.646 413.451 740.793 422.723 728.639 424.189 720.848 422.08Z" stroke="#000000" stroke-width="2" stroke-miterlimit="8" fill="none" fill-rule="evenodd"/><path d="M768.545 466.765C759.013 462.047 757.178 451.282 760.459 442.778 763.284 435.211 774.355 428.933 784.256 434.148 792.795 436.436 797.096 449.576 792.342 458.136 788.33 467.443 776.854 469.234 768.545 466.765Z" fill="#B4E5A2" fill-rule="evenodd"/><path d="M768.545 466.765C759.978 462.434 755.586 452.175 760.459 442.778 765.29 433.742 774.105 430.14 784.256 434.148 791.075 439.553 795.575 451.123 792.342 458.136 788.489 467.408 776.336 468.874 768.545 466.765Z" stroke="#000000" stroke-width="2" stroke-miterlimit="8" fill="none" fill-rule="evenodd"/><path d="M259.766 218.346C249.788 214.663 246.823 204.153 249.185 195.35 251.193 187.526 261.537 180.111 271.935 184.249 280.668 185.62 286.336 198.23 282.516 207.245 279.511 216.925 268.29 219.921 259.766 218.346Z" fill="#A6CAEC" fill-rule="evenodd"/><path d="M259.766 218.346C250.788 214.946 245.334 205.21 249.185 195.35 253.033 185.853 261.416 181.338 271.935 184.249 279.287 188.901 284.987 199.93 282.516 207.245 279.666 216.874 267.736 219.617 259.766 218.346Z" stroke="#000000" stroke-width="2" stroke-miterlimit="8" fill="none" fill-rule="evenodd"/><path d="M820 136.5C820.114 125.982 828.966 119.726 838 119 845.998 118.269 856.4 125.44 856 136.5 857.635 145.09 847.72 154.562 838 154 827.931 154.419 821.374 144.963 820 136.5Z" stroke="#000000" stroke-width="2" stroke-miterlimit="8" fill="none" fill-rule="evenodd"/><path d="M540.519 241.773C530.987 237.055 529.152 226.29 532.432 217.786 535.257 210.219 546.329 203.941 556.23 209.156 564.769 211.444 569.07 224.584 564.316 233.144 560.304 242.451 548.828 244.242 540.519 241.773Z" stroke="#000000" stroke-width="2" stroke-miterlimit="8" fill="none" fill-rule="evenodd"/><path d="M332 199.5C332.114 188.982 340.966 182.726 350 182 357.998 181.269 368.4 188.44 368 199.5 369.635 208.09 359.72 217.562 350 217 339.931 217.419 333.374 207.963 332 199.5Z" fill="#A6CAEC" fill-rule="evenodd"/><path d="M332 199.5C332.183 190.008 339.479 181.691 350 182 360.18 182.427 367.211 188.735 368 199.5 366.1 207.895 357.677 216.871 350 217 340.03 217.546 333.473 207.347 332 199.5Z" stroke="#000000" stroke-width="2" stroke-miterlimit="8" fill="none" fill-rule="evenodd"/><path d="M248 154.5C248.114 143.982 256.966 137.726 266 137 273.998 136.269 284.4 143.44 284 154.5 285.635 163.09 275.72 172.562 266 172 255.931 172.419 249.374 162.963 248 154.5Z" fill="#A6CAEC" fill-rule="evenodd"/><path d="M248 154.5C248.183 145.008 255.479 136.691 266 137 276.18 137.427 283.211 143.735 284 154.5 282.1 162.895 273.677 171.871 266 172 256.03 172.546 249.473 162.347 248 154.5Z" stroke="#000000" stroke-width="2" stroke-miterlimit="8" fill="none" fill-rule="evenodd"/><path d="M298.021 194.488C288.489 189.769 286.653 179.004 289.934 170.5 292.759 162.933 303.83 156.655 313.731 161.871 322.27 164.158 326.571 177.298 321.818 185.858 317.805 195.165 306.33 196.956 298.021 194.488Z" stroke="#000000" stroke-width="2" stroke-miterlimit="8" fill="none" fill-rule="evenodd"/><text font-family="Calibri,Calibri_MSFontService,sans-serif" font-weight="400" font-size="37" transform="translate(115.993 299)">F</text><text font-family="Calibri,Calibri_MSFontService,sans-serif" font-weight="400" font-size="25" transform="translate(133.159 307)">1</text><text font-family="Calibri,Calibri_MSFontService,sans-serif" font-weight="400" font-size="37" transform="translate(294.965 302)">F</text><text font-family="Calibri,Calibri_MSFontService,sans-serif" font-weight="400" font-size="25" transform="translate(312.131 310)">2</text><text font-family="Calibri,Calibri_MSFontService,sans-serif" font-weight="400" font-size="37" transform="translate(510.563 310)">F</text><text font-family="Calibri,Calibri_MSFontService,sans-serif" font-weight="400" font-size="25" transform="translate(527.729 318)">3</text><text font-family="Calibri,Calibri_MSFontService,sans-serif" font-weight="400" font-size="37" transform="translate(783.072 308)">F</text><text font-family="Calibri,Calibri_MSFontService,sans-serif" font-weight="400" font-size="25" transform="translate(800.239 316)">4</text><path d="M300.839 238.973C290.861 235.29 287.896 224.78 290.258 215.976 292.266 208.153 302.61 200.737 313.008 204.876 321.741 206.246 327.409 218.857 323.589 227.872 320.584 237.551 309.363 240.548 300.839 238.973Z" stroke="#000000" stroke-width="2" stroke-miterlimit="8" fill="none" fill-rule="evenodd"/><path d="M296.745 150.332C287.213 145.613 285.378 134.849 288.659 126.345 291.484 118.778 302.555 112.499 312.456 117.715 320.995 120.003 325.296 133.143 320.543 141.702 316.53 151.01 305.054 152.801 296.745 150.332Z" stroke="#000000" stroke-width="2" stroke-miterlimit="8" fill="none" fill-rule="evenodd"/><path d="M149.019 177.133C139.487 172.414 137.652 161.65 140.933 153.146 143.758 145.579 154.829 139.3 164.73 144.516 173.269 146.804 177.57 159.944 172.817 168.503 168.804 177.81 157.329 179.602 149.019 177.133Z" fill="#A6CAEC" fill-rule="evenodd"/><path d="M149.019 177.133C140.452 172.802 136.06 162.543 140.933 153.146 145.764 144.11 154.579 140.508 164.73 144.516 171.549 149.921 176.049 161.491 172.817 168.503 168.964 177.776 156.81 179.241 149.019 177.133Z" stroke="#000000" stroke-width="2" stroke-miterlimit="8" fill="none" fill-rule="evenodd"/><path d="M138 203.5C138.081 193.78 148.95 188.597 158 187 167.182 186.3 178.209 193.66 178 203.5 179.569 211.583 168.69 220.899 158 220 146.372 221.9 138.424 212.243 138 203.5Z" fill="#A6CAEC" fill-rule="evenodd"/><path d="M138 203.5C139.382 195.689 146.485 186.75 158 187 169.182 187.243 177.292 193.402 178 203.5 177.637 212.371 166.766 219.87 158 220 146.856 221.87 139.154 211.19 138 203.5Z" stroke="#000000" stroke-width="2" stroke-miterlimit="8" fill="none" fill-rule="evenodd"/><path d="M105.589 219.943C95.6112 216.26 92.6463 205.75 95.0084 196.946 97.0162 189.123 107.361 181.707 117.758 185.846 126.491 187.216 132.159 199.827 128.339 208.842 125.335 218.521 114.113 221.518 105.589 219.943Z" fill="#A6CAEC" fill-rule="evenodd"/><path d="M105.589 219.943C96.6119 216.543 91.1581 206.806 95.0084 196.946 98.8561 187.45 107.24 182.935 117.758 185.846 125.111 190.498 130.811 201.526 128.339 208.842 125.489 218.47 113.56 221.214 105.589 219.943Z" stroke="#000000" stroke-width="2" stroke-miterlimit="8" fill="none" fill-rule="evenodd"/><path d="M94 161.5C94.1141 150.982 102.966 144.726 112 144 119.998 143.269 130.4 150.44 130 161.5 131.635 170.09 121.72 179.562 112 179 101.931 179.419 95.3739 169.963 94 161.5Z" fill="#A6CAEC" fill-rule="evenodd"/><path d="M94 161.5C94.1833 152.008 101.479 143.691 112 144 122.18 144.427 129.211 150.735 130 161.5 128.1 169.895 119.677 178.871 112 179 102.03 179.546 95.4731 169.347 94 161.5Z" stroke="#000000" stroke-width="2" stroke-miterlimit="8" fill="none" fill-rule="evenodd"/><path d="M341.23 174.319C331.698 169.601 329.862 158.836 333.143 150.332 335.968 142.765 347.039 136.487 356.94 141.703 365.479 143.99 369.78 157.13 365.027 165.69 361.014 174.997 349.539 176.788 341.23 174.319Z" fill="#A6CAEC" fill-rule="evenodd"/><path d="M341.23 174.319C332.663 169.988 328.27 159.729 333.143 150.332 337.975 141.296 346.789 137.694 356.94 141.703 363.759 147.107 368.259 158.677 365.027 165.69 361.174 174.962 349.021 176.428 341.23 174.319Z" stroke="#000000" stroke-width="2" stroke-miterlimit="8" fill="none" fill-rule="evenodd"/><path d="M830.825 244.135C821.293 239.416 819.458 228.651 822.739 220.147 825.564 212.58 836.635 206.302 846.536 211.518 855.075 213.805 859.376 226.945 854.623 235.505 850.61 244.812 839.135 246.603 830.825 244.135Z" stroke="#000000" stroke-width="2" stroke-miterlimit="8" fill="none" fill-rule="evenodd"/><path d="M824.157 171.746C829.399 162.491 840.248 161.257 848.557 165.006 855.956 168.247 861.608 179.65 855.85 189.246 853.091 197.645 839.733 201.208 831.451 195.987 822.381 191.463 821.23 179.905 824.157 171.746Z" stroke="#000000" stroke-width="2" stroke-miterlimit="8" fill="none" fill-rule="evenodd"/><path d="M587.015 180.812C577.037 177.129 574.072 166.619 576.434 157.816 578.442 149.992 588.786 142.577 599.184 146.715 607.917 148.086 613.585 160.696 609.765 169.711 606.76 179.391 595.539 182.387 587.015 180.812Z" fill="#A6CAEC" fill-rule="evenodd"/><path d="M587.015 180.812C578.038 177.412 572.584 167.676 576.434 157.816 580.282 148.319 588.666 143.804 599.184 146.715 606.537 151.367 612.237 162.396 609.765 169.711 606.915 179.34 594.985 182.083 587.015 180.812Z" stroke="#000000" stroke-width="2" stroke-miterlimit="8" fill="none" fill-rule="evenodd"/><path d="M577 208.5C577.114 197.982 585.966 191.726 595 191 602.998 190.269 613.4 197.44 613 208.5 614.635 217.09 604.72 226.562 595 226 584.931 226.419 578.374 216.963 577 208.5Z" fill="#A6CAEC" fill-rule="evenodd"/><path d="M577 208.5C577.183 199.008 584.479 190.691 595 191 605.18 191.427 612.211 197.735 613 208.5 611.1 216.895 602.677 225.871 595 226 585.03 226.546 578.473 216.347 577 208.5Z" stroke="#000000" stroke-width="2" stroke-miterlimit="8" fill="none" fill-rule="evenodd"/><path d="M540.691 153.932C531.159 149.213 529.324 138.449 532.605 129.944 535.43 122.377 546.501 116.099 556.402 121.315 564.941 123.602 569.242 136.742 564.489 145.302 560.476 154.609 549.001 156.4 540.691 153.932Z" stroke="#000000" stroke-width="2" stroke-miterlimit="8" fill="none" fill-rule="evenodd"/><path d="M454.972 222.363C444.994 218.68 442.029 208.17 444.391 199.367 446.399 191.543 456.743 184.128 467.141 188.266 475.874 189.637 481.542 202.247 477.722 211.262 474.717 220.942 463.496 223.938 454.972 222.363Z" fill="#A6CAEC" fill-rule="evenodd"/><path d="M454.972 222.363C445.994 218.963 440.541 209.226 444.391 199.367 448.239 189.87 456.622 185.355 467.141 188.266 474.494 192.918 480.194 203.946 477.722 211.262 474.872 220.891 462.942 223.634 454.972 222.363Z" stroke="#000000" stroke-width="2" stroke-miterlimit="8" fill="none" fill-rule="evenodd"/><path d="M443 158.5C443.114 147.982 451.966 141.726 461 141 468.998 140.269 479.4 147.44 479 158.5 480.635 167.09 470.72 176.562 461 176 450.931 176.419 444.374 166.963 443 158.5Z" fill="#A6CAEC" fill-rule="evenodd"/><path d="M443 158.5C443.183 149.008 450.479 140.691 461 141 471.18 141.427 478.211 147.735 479 158.5 477.1 166.895 468.677 175.871 461 176 451.03 176.546 444.473 166.347 443 158.5Z" stroke="#000000" stroke-width="2" stroke-miterlimit="8" fill="none" fill-rule="evenodd"/><path d="M493.227 198.505C483.695 193.786 481.859 183.021 485.14 174.517 487.965 166.95 499.036 160.672 508.938 165.888 517.476 168.175 521.777 181.315 517.024 189.875 513.011 199.182 501.536 200.973 493.227 198.505Z" fill="#A6CAEC" fill-rule="evenodd"/><path d="M493.227 198.505C484.66 194.173 480.268 183.914 485.14 174.517 489.972 165.481 498.786 161.879 508.938 165.888 515.756 171.292 520.257 182.862 517.024 189.875 513.171 199.148 501.018 200.613 493.227 198.505Z" stroke="#000000" stroke-width="2" stroke-miterlimit="8" fill="none" fill-rule="evenodd"/><path d="M496.045 242.989C486.067 239.307 483.102 228.797 485.464 219.993 487.472 212.169 497.816 204.754 508.214 208.892 516.947 210.263 522.615 222.874 518.795 231.889 515.79 241.568 504.569 244.565 496.045 242.989Z" fill="#A6CAEC" fill-rule="evenodd"/><path d="M496.045 242.989C487.068 239.59 481.614 229.853 485.464 219.993 489.312 210.497 497.696 205.982 508.214 208.892 515.567 213.545 521.267 224.573 518.795 231.889 515.945 241.517 504.015 244.261 496.045 242.989Z" stroke="#000000" stroke-width="2" stroke-miterlimit="8" fill="none" fill-rule="evenodd"/><path d="M491.951 154.349C482.419 149.63 480.584 138.866 483.865 130.362 486.69 122.795 497.761 116.516 507.662 121.732 516.201 124.02 520.502 137.16 515.749 145.719 511.736 155.026 500.261 156.818 491.951 154.349Z" fill="#A6CAEC" fill-rule="evenodd"/><path d="M491.951 154.349C483.384 150.018 478.992 139.759 483.865 130.362 488.696 121.326 497.511 117.724 507.662 121.732 514.481 127.137 518.981 138.707 515.749 145.719 511.896 154.992 499.742 156.457 491.951 154.349Z" stroke="#000000" stroke-width="2" stroke-miterlimit="8" fill="none" fill-rule="evenodd"/><path d="M539.648 199.034C530.116 194.315 528.281 183.551 531.562 175.047 534.387 167.479 545.458 161.201 555.359 166.417 563.898 168.705 568.199 181.845 563.446 190.404 559.433 199.711 547.957 201.503 539.648 199.034Z" stroke="#000000" stroke-width="2" stroke-miterlimit="8" fill="none" fill-rule="evenodd"/><path d="M784.822 242.667C775.29 237.949 773.455 227.184 776.736 218.68 779.561 211.113 790.632 204.835 800.533 210.051 809.072 212.338 813.373 225.478 808.62 234.038 804.607 243.345 793.132 245.136 784.822 242.667Z" fill="#A6CAEC" fill-rule="evenodd"/><path d="M784.822 242.667C776.255 238.336 771.863 228.077 776.736 218.68 781.567 209.644 790.382 206.042 800.533 210.051 807.352 215.455 811.852 227.025 808.62 234.038 804.767 243.311 792.613 244.776 784.822 242.667Z" stroke="#000000" stroke-width="2" stroke-miterlimit="8" fill="none" fill-rule="evenodd"/><path d="M875.607 178.8C865.628 175.117 862.664 164.607 865.026 155.804 867.033 147.98 877.378 140.565 887.775 144.703 896.508 146.074 902.177 158.684 898.356 167.699 895.352 177.379 884.13 180.375 875.607 178.8Z" fill="#A6CAEC" fill-rule="evenodd"/><path d="M875.607 178.8C866.629 175.4 861.175 165.663 865.026 155.804 868.873 146.307 877.257 141.792 887.775 144.703 895.128 149.355 900.828 160.384 898.356 167.699 895.507 177.328 883.577 180.071 875.607 178.8Z" stroke="#000000" stroke-width="2" stroke-miterlimit="8" fill="none" fill-rule="evenodd"/><path d="M865 206C865.117 195.181 874.215 188.747 883.5 188 891.721 187.248 902.411 194.624 902 206 903.681 214.835 893.49 224.578 883.5 224 873.151 224.431 866.412 214.705 865 206Z" fill="#A6CAEC" fill-rule="evenodd"/><path d="M865 206C865.188 196.237 872.687 187.682 883.5 188 893.963 188.439 901.189 194.927 902 206 900.048 214.635 891.391 223.867 883.5 224 873.253 224.562 866.514 214.071 865 206Z" stroke="#000000" stroke-width="2" stroke-miterlimit="8" fill="none" fill-rule="evenodd"/><path d="M784.995 154.826C775.463 150.107 773.627 139.343 776.908 130.839 779.733 123.271 790.804 116.993 800.705 122.209 809.244 124.497 813.545 137.636 808.792 146.196 804.779 155.503 793.304 157.295 784.995 154.826Z" fill="#A6CAEC" fill-rule="evenodd"/><path d="M784.995 154.826C776.428 150.495 772.035 140.235 776.908 130.839 781.74 121.803 790.554 118.201 800.705 122.209 807.524 127.614 812.024 139.183 808.792 146.196 804.939 155.469 792.786 156.934 784.995 154.826Z" stroke="#000000" stroke-width="2" stroke-miterlimit="8" fill="none" fill-rule="evenodd"/><path d="M699.275 223.257C689.297 219.574 686.332 209.064 688.694 200.261 690.702 192.437 701.046 185.022 711.444 189.16 720.177 190.531 725.845 203.141 722.025 212.156 719.02 221.836 707.799 224.832 699.275 223.257Z" fill="#A6CAEC" fill-rule="evenodd"/><path d="M699.275 223.257C690.298 219.857 684.844 210.12 688.694 200.261 692.542 190.764 700.926 186.249 711.444 189.16 718.797 193.812 724.497 204.841 722.025 212.156 719.175 221.785 707.245 224.528 699.275 223.257Z" stroke="#000000" stroke-width="2" stroke-miterlimit="8" fill="none" fill-rule="evenodd"/><path d="M687 159.5C687.114 148.982 695.966 142.726 705 142 712.998 141.269 723.4 148.44 723 159.5 724.635 168.09 714.72 177.562 705 177 694.931 177.419 688.374 167.963 687 159.5Z" fill="#A6CAEC" fill-rule="evenodd"/><path d="M687 159.5C687.183 150.008 694.479 141.691 705 142 715.18 142.427 722.211 148.735 723 159.5 721.1 167.895 712.677 176.871 705 177 695.03 177.546 688.473 167.347 687 159.5Z" stroke="#000000" stroke-width="2" stroke-miterlimit="8" fill="none" fill-rule="evenodd"/><path d="M737.53 199.399C727.998 194.68 726.162 183.915 729.443 175.411 732.268 167.844 743.34 161.566 753.241 166.782 761.78 169.069 766.081 182.209 761.327 190.769 757.315 200.076 745.839 201.867 737.53 199.399Z" fill="#A6CAEC" fill-rule="evenodd"/><path d="M737.53 199.399C728.963 195.067 724.571 184.808 729.443 175.411 734.275 166.376 743.09 162.773 753.241 166.782 760.06 172.187 764.56 183.756 761.327 190.769 757.474 200.042 745.321 201.507 737.53 199.399Z" stroke="#000000" stroke-width="2" stroke-miterlimit="8" fill="none" fill-rule="evenodd"/><path d="M740.348 243.884C730.37 240.201 727.405 229.691 729.767 220.887 731.775 213.063 742.12 205.648 752.517 209.786 761.25 211.157 766.918 223.768 763.098 232.783 760.094 242.462 748.872 245.459 740.348 243.884Z" fill="#A6CAEC" fill-rule="evenodd"/><path d="M740.348 243.884C731.371 240.484 725.917 230.747 729.767 220.887 733.615 211.391 741.999 206.876 752.517 209.786 759.87 214.439 765.57 225.467 763.098 232.783 760.249 242.411 748.319 245.155 740.348 243.884Z" stroke="#000000" stroke-width="2" stroke-miterlimit="8" fill="none" fill-rule="evenodd"/><path d="M736.255 155.243C726.723 150.524 724.887 139.76 728.168 131.256 730.993 123.689 742.064 117.41 751.965 122.626 760.504 124.914 764.805 138.054 760.052 146.613 756.039 155.92 744.564 157.712 736.255 155.243Z" fill="#A6CAEC" fill-rule="evenodd"/><path d="M736.255 155.243C727.688 150.912 723.295 140.653 728.168 131.256 733 122.22 741.814 118.618 751.965 122.626 758.784 128.031 763.284 139.601 760.052 146.613 756.199 155.886 744.045 157.351 736.255 155.243Z" stroke="#000000" stroke-width="2" stroke-miterlimit="8" fill="none" fill-rule="evenodd"/><path d="M783.951 199.928C774.419 195.209 772.584 184.445 775.865 175.941 778.69 168.374 789.761 162.095 799.662 167.311 808.201 169.599 812.502 182.739 807.749 191.298 803.736 200.605 792.261 202.397 783.951 199.928Z" fill="#A6CAEC" fill-rule="evenodd"/><path d="M783.951 199.928C775.384 195.597 770.992 185.338 775.865 175.941 780.696 166.905 789.511 163.303 799.662 167.311 806.481 172.716 810.981 184.286 807.749 191.298 803.896 200.571 791.742 202.036 783.951 199.928Z" stroke="#000000" stroke-width="2" stroke-miterlimit="8" fill="none" fill-rule="evenodd"/></g></svg>