<svg width="1280" height="720" xmlns="http://www.w3.org/2000/svg" xmlns:xlink="http://www.w3.org/1999/xlink" overflow="hidden"><g><rect x="0" y="0" width="1280" height="720" fill="#FFFFFF"/><path d="M189 550.977C208.04 553.398 238.137 553.11 252.165 550.977 266.193 548.845 288.046 548.458 310.066 550.977 332.087 553.497 360.144 552.34 381.127 550.977 402.11 549.615 421.431 551.772 452.188 550.977 451.428 564.012 452.091 572.086 452.188 587 434.922 585.596 408.109 584.475 386.391 587 364.673 589.525 337.803 584.683 320.594 587 303.385 589.317 287.085 585.043 257.429 587 227.772 588.957 217.441 584.49 189 587 188.908 573.82 190.692 564.176 189 550.977Z" fill="#F2F2F2" fill-rule="evenodd"/><path d="M452.188 550.977C462.976 541.543 474.77 528.584 489 514 488.013 527.115 489.558 542.555 489 550.023 472.37 563.045 462.293 575.924 452.188 587 452.937 575.604 453.43 564.755 452.188 550.977Z" fill="#C3C3C3" fill-rule="evenodd"/><path d="M189 550.977C203.802 535.78 208.393 533.195 225.812 514 242.789 510.801 263.619 511.934 291.609 514 319.599 516.066 343.264 516.075 357.406 514 371.549 511.925 405.943 513.219 420.571 514 435.199 514.781 466.953 511.105 489 514 472.952 533.257 471.585 534.512 452.188 550.977 421.481 552.234 397.153 553.577 381.127 550.977 365.101 548.377 331.99 552.197 317.962 550.977 303.934 549.758 280.431 553.266 254.797 550.977 229.163 548.689 206.98 553.069 189 550.977Z" fill="#F5F5F5" fill-rule="evenodd"/><path d="M189 550.977C208.703 534.398 217.445 522.963 225.812 514 253.199 512.311 280.146 517.41 294.241 514 308.336 510.59 341.048 516.862 354.774 514 368.501 511.138 399.403 516.257 415.307 514 431.212 511.743 453.824 516.397 489 514 490.742 523.762 488.097 539.105 489 550.023 474.551 567.702 470.667 571.17 452.188 587 429.235 587.148 404.572 587.796 383.759 587 362.946 586.204 341.348 583.989 323.226 587 305.103 590.011 291.159 589.128 260.061 587 228.962 584.872 206.584 584.384 189 587 187.675 576.561 187.374 564.564 189 550.977ZM189 550.977C204.999 553.237 242.985 548.406 260.061 550.977 277.137 553.549 308.61 550.986 323.226 550.977 337.841 550.969 360.374 551.576 394.286 550.977 428.198 550.379 435.159 552.562 452.188 550.977 469.312 531.525 471.843 533.429 489 514M452.188 550.977C451.336 562.811 451.454 578.545 452.188 587" stroke="#000000" stroke-width="2" stroke-miterlimit="8" fill="none" fill-rule="evenodd"/><path d="M189 514.471C208.04 516.859 238.137 516.574 252.165 514.471 266.193 512.368 288.046 511.986 310.066 514.471 332.087 516.956 360.144 515.815 381.127 514.471 402.11 513.127 421.431 515.254 452.188 514.471 451.428 527.327 452.091 535.29 452.188 550 434.922 548.615 408.109 547.509 386.391 550 364.673 552.491 337.803 547.715 320.594 550 303.385 552.285 287.085 548.07 257.429 550 227.772 551.93 217.441 547.525 189 550 188.908 537.001 190.692 527.489 189 514.471Z" fill="#F2F2F2" fill-rule="evenodd"/><path d="M452.188 514.471C462.976 505.166 474.77 492.384 489 478 488.013 490.936 489.558 506.164 489 513.529 472.37 526.374 462.293 539.075 452.188 550 452.937 538.76 453.43 528.06 452.188 514.471Z" fill="#C3C3C3" fill-rule="evenodd"/><path d="M189 514.471C203.802 499.481 208.393 496.932 225.812 478 242.789 474.844 263.619 475.962 291.609 478 319.599 480.038 343.264 480.047 357.406 478 371.549 475.953 405.943 477.229 420.571 478 435.199 478.771 466.953 475.145 489 478 472.952 496.994 471.585 498.231 452.188 514.471 421.481 515.71 397.153 517.035 381.127 514.471 365.101 511.907 331.99 515.674 317.962 514.471 303.934 513.268 280.431 516.728 254.797 514.471 229.163 512.214 206.98 516.533 189 514.471Z" fill="#F5F5F5" fill-rule="evenodd"/><path d="M189 514.471C208.703 498.118 217.445 486.841 225.812 478 253.199 476.334 280.146 481.363 294.241 478 308.336 474.637 341.048 480.823 354.774 478 368.501 475.177 399.403 480.226 415.307 478 431.212 475.774 453.824 480.364 489 478 490.742 487.628 488.097 502.761 489 513.529 474.551 530.966 470.667 534.387 452.188 550 429.235 550.146 404.572 550.785 383.759 550 362.946 549.215 341.348 547.03 323.226 550 305.103 552.97 291.159 552.099 260.061 550 228.962 547.901 206.584 547.42 189 550 187.675 539.704 187.374 527.872 189 514.471ZM189 514.471C204.999 516.699 242.985 511.934 260.061 514.471 277.137 517.007 308.61 514.479 323.226 514.471 337.841 514.463 360.374 515.062 394.286 514.471 428.198 513.88 435.159 516.034 452.188 514.471 469.312 495.285 471.843 497.163 489 478M452.188 514.471C451.336 526.142 451.454 541.66 452.188 550" stroke="#000000" stroke-width="2" stroke-miterlimit="8" fill="none" fill-rule="evenodd"/><path d="M189 477.977C208.04 480.398 238.137 480.11 252.165 477.977 266.193 475.845 288.046 475.458 310.066 477.977 332.087 480.497 360.144 479.34 381.127 477.977 402.11 476.615 421.431 478.772 452.188 477.977 451.428 491.012 452.091 499.086 452.188 514 434.922 512.596 408.109 511.475 386.391 514 364.673 516.525 337.803 511.683 320.594 514 303.385 516.317 287.085 512.043 257.429 514 227.772 515.957 217.441 511.49 189 514 188.908 500.82 190.692 491.176 189 477.977Z" fill="#F2F2F2" fill-rule="evenodd"/><path d="M452.188 477.977C462.976 468.543 474.77 455.584 489 441 488.013 454.115 489.558 469.555 489 477.023 472.37 490.045 462.293 502.924 452.188 514 452.937 502.604 453.43 491.755 452.188 477.977Z" fill="#C3C3C3" fill-rule="evenodd"/><path d="M189 477.977C203.802 462.78 208.393 460.195 225.812 441 242.789 437.801 263.619 438.934 291.609 441 319.599 443.066 343.264 443.075 357.406 441 371.549 438.925 405.943 440.219 420.571 441 435.199 441.781 466.953 438.105 489 441 472.952 460.257 471.585 461.512 452.188 477.977 421.481 479.234 397.153 480.577 381.127 477.977 365.101 475.377 331.99 479.197 317.962 477.977 303.934 476.758 280.431 480.266 254.797 477.977 229.163 475.689 206.98 480.069 189 477.977Z" fill="#F5F5F5" fill-rule="evenodd"/><path d="M189 477.977C208.703 461.398 217.445 449.963 225.812 441 253.199 439.311 280.146 444.41 294.241 441 308.336 437.59 341.048 443.862 354.774 441 368.501 438.138 399.403 443.257 415.307 441 431.212 438.743 453.824 443.397 489 441 490.742 450.762 488.097 466.105 489 477.023 474.551 494.702 470.667 498.17 452.188 514 429.235 514.148 404.572 514.796 383.759 514 362.946 513.204 341.348 510.989 323.226 514 305.103 517.011 291.159 516.128 260.061 514 228.962 511.872 206.584 511.384 189 514 187.675 503.561 187.374 491.564 189 477.977ZM189 477.977C204.999 480.237 242.985 475.406 260.061 477.977 277.137 480.549 308.61 477.986 323.226 477.977 337.841 477.969 360.374 478.576 394.286 477.977 428.198 477.379 435.159 479.562 452.188 477.977 469.312 458.525 471.843 460.429 489 441M452.188 477.977C451.336 489.811 451.454 505.545 452.188 514" stroke="#000000" stroke-width="2" stroke-miterlimit="8" fill="none" fill-rule="evenodd"/><path d="M189 441.977C208.04 444.398 238.137 444.11 252.165 441.977 266.193 439.845 288.046 439.458 310.066 441.977 332.087 444.497 360.144 443.34 381.127 441.977 402.11 440.615 421.431 442.772 452.188 441.977 451.428 455.012 452.091 463.086 452.188 478 434.922 476.596 408.109 475.475 386.391 478 364.673 480.525 337.803 475.683 320.594 478 303.385 480.317 287.085 476.043 257.429 478 227.772 479.957 217.441 475.49 189 478 188.908 464.82 190.692 455.176 189 441.977Z" fill="#F2F2F2" fill-rule="evenodd"/><path d="M452.188 441.977C462.976 432.543 474.77 419.584 489 405 488.013 418.115 489.558 433.555 489 441.023 472.37 454.045 462.293 466.924 452.188 478 452.937 466.604 453.43 455.755 452.188 441.977Z" fill="#C3C3C3" fill-rule="evenodd"/><path d="M189 441.977C203.802 426.78 208.393 424.195 225.812 405 242.789 401.801 263.619 402.934 291.609 405 319.599 407.066 343.264 407.075 357.406 405 371.549 402.925 405.943 404.219 420.571 405 435.199 405.781 466.953 402.105 489 405 472.952 424.257 471.585 425.512 452.188 441.977 421.481 443.234 397.153 444.577 381.127 441.977 365.101 439.377 331.99 443.197 317.962 441.977 303.934 440.758 280.431 444.266 254.797 441.977 229.163 439.689 206.98 444.069 189 441.977Z" fill="#F5F5F5" fill-rule="evenodd"/><path d="M189 441.977C208.703 425.398 217.445 413.963 225.812 405 253.199 403.311 280.146 408.41 294.241 405 308.336 401.59 341.048 407.862 354.774 405 368.501 402.138 399.403 407.257 415.307 405 431.212 402.743 453.824 407.397 489 405 490.742 414.762 488.097 430.105 489 441.023 474.551 458.702 470.667 462.17 452.188 478 429.235 478.148 404.572 478.796 383.759 478 362.946 477.204 341.348 474.989 323.226 478 305.103 481.011 291.159 480.128 260.061 478 228.962 475.872 206.584 475.384 189 478 187.675 467.561 187.374 455.564 189 441.977ZM189 441.977C204.999 444.237 242.985 439.406 260.061 441.977 277.137 444.549 308.61 441.986 323.226 441.977 337.841 441.969 360.374 442.576 394.286 441.977 428.198 441.379 435.159 443.562 452.188 441.977 469.312 422.525 471.843 424.429 489 405M452.188 441.977C451.336 453.811 451.454 469.545 452.188 478" stroke="#000000" stroke-width="2" stroke-miterlimit="8" fill="none" fill-rule="evenodd"/><path d="M189 405.471C208.04 407.858 238.137 407.574 252.165 405.471 266.193 403.368 288.046 402.986 310.066 405.471 332.087 407.956 360.144 406.815 381.127 405.471 402.11 404.127 421.431 406.254 452.188 405.471 451.428 418.327 452.091 426.29 452.188 441 434.922 439.615 408.109 438.509 386.391 441 364.673 443.491 337.803 438.715 320.594 441 303.385 443.285 287.085 439.07 257.429 441 227.772 442.93 217.441 438.525 189 441 188.908 428.001 190.692 418.489 189 405.471Z" fill="#F2F2F2" fill-rule="evenodd"/><path d="M452.188 405.471C462.976 396.166 474.77 383.384 489 369 488.013 381.936 489.558 397.164 489 404.529 472.37 417.374 462.293 430.075 452.188 441 452.937 429.76 453.43 419.06 452.188 405.471Z" fill="#C3C3C3" fill-rule="evenodd"/><path d="M189 405.471C203.802 390.481 208.393 387.932 225.812 369 242.789 365.844 263.619 366.962 291.609 369 319.599 371.038 343.264 371.047 357.406 369 371.549 366.953 405.943 368.229 420.571 369 435.199 369.771 466.953 366.145 489 369 472.952 387.994 471.585 389.231 452.188 405.471 421.481 406.71 397.153 408.035 381.127 405.471 365.101 402.907 331.99 406.674 317.962 405.471 303.934 404.268 280.431 407.728 254.797 405.471 229.163 403.214 206.98 407.533 189 405.471Z" fill="#F5F5F5" fill-rule="evenodd"/><path d="M189 405.471C208.703 389.118 217.445 377.841 225.812 369 253.199 367.334 280.146 372.363 294.241 369 308.336 365.637 341.048 371.823 354.774 369 368.501 366.177 399.403 371.226 415.307 369 431.212 366.774 453.824 371.364 489 369 490.742 378.628 488.097 393.761 489 404.529 474.551 421.966 470.667 425.387 452.188 441 429.235 441.146 404.572 441.785 383.759 441 362.946 440.215 341.348 438.03 323.226 441 305.103 443.97 291.159 443.099 260.061 441 228.962 438.901 206.584 438.42 189 441 187.675 430.704 187.374 418.872 189 405.471ZM189 405.471C204.999 407.699 242.985 402.934 260.061 405.471 277.137 408.007 308.61 405.479 323.226 405.471 337.841 405.463 360.374 406.062 394.286 405.471 428.198 404.88 435.159 407.034 452.188 405.471 469.312 386.285 471.843 388.163 489 369M452.188 405.471C451.336 417.142 451.454 432.66 452.188 441" stroke="#000000" stroke-width="2" stroke-miterlimit="8" fill="none" fill-rule="evenodd"/><path d="M189 368.977C208.04 371.398 238.137 371.11 252.165 368.977 266.193 366.845 288.046 366.458 310.066 368.977 332.087 371.497 360.144 370.34 381.127 368.977 402.11 367.615 421.431 369.772 452.188 368.977 451.428 382.012 452.091 390.086 452.188 405 434.922 403.596 408.109 402.475 386.391 405 364.673 407.525 337.803 402.683 320.594 405 303.385 407.317 287.085 403.043 257.429 405 227.772 406.957 217.441 402.49 189 405 188.908 391.82 190.692 382.176 189 368.977Z" fill="#F2F2F2" fill-rule="evenodd"/><path d="M452.188 368.977C462.976 359.543 474.77 346.584 489 332 488.013 345.115 489.558 360.555 489 368.023 472.37 381.045 462.293 393.924 452.188 405 452.937 393.604 453.43 382.755 452.188 368.977Z" fill="#C3C3C3" fill-rule="evenodd"/><path d="M189 368.977C203.802 353.78 208.393 351.195 225.812 332 242.789 328.801 263.619 329.934 291.609 332 319.599 334.066 343.264 334.075 357.406 332 371.549 329.925 405.943 331.219 420.571 332 435.199 332.781 466.953 329.105 489 332 472.952 351.257 471.585 352.512 452.188 368.977 421.481 370.234 397.153 371.577 381.127 368.977 365.101 366.377 331.99 370.197 317.962 368.977 303.934 367.758 280.431 371.266 254.797 368.977 229.163 366.689 206.98 371.069 189 368.977Z" fill="#F5F5F5" fill-rule="evenodd"/><path d="M189 368.977C208.703 352.398 217.445 340.963 225.812 332 253.199 330.311 280.146 335.41 294.241 332 308.336 328.59 341.048 334.862 354.774 332 368.501 329.138 399.403 334.257 415.307 332 431.212 329.743 453.824 334.397 489 332 490.742 341.762 488.097 357.105 489 368.023 474.551 385.702 470.667 389.17 452.188 405 429.235 405.148 404.572 405.796 383.759 405 362.946 404.204 341.348 401.989 323.226 405 305.103 408.011 291.159 407.128 260.061 405 228.962 402.872 206.584 402.384 189 405 187.675 394.561 187.374 382.564 189 368.977ZM189 368.977C204.999 371.237 242.985 366.406 260.061 368.977 277.137 371.549 308.61 368.986 323.226 368.977 337.841 368.969 360.374 369.576 394.286 368.977 428.198 368.379 435.159 370.562 452.188 368.977 469.312 349.525 471.843 351.429 489 332M452.188 368.977C451.336 380.811 451.454 396.545 452.188 405" stroke="#000000" stroke-width="2" stroke-miterlimit="8" fill="none" fill-rule="evenodd"/><path d="M189 332.977C208.04 335.398 238.137 335.11 252.165 332.977 266.193 330.845 288.046 330.458 310.066 332.977 332.087 335.497 360.144 334.34 381.127 332.977 402.11 331.615 421.431 333.772 452.188 332.977 451.428 346.012 452.091 354.086 452.188 369 434.922 367.596 408.109 366.475 386.391 369 364.673 371.525 337.803 366.683 320.594 369 303.385 371.317 287.085 367.043 257.429 369 227.772 370.957 217.441 366.49 189 369 188.908 355.82 190.692 346.176 189 332.977Z" fill="#F2F2F2" fill-rule="evenodd"/><path d="M452.188 332.977C462.976 323.543 474.77 310.584 489 296 488.013 309.115 489.558 324.555 489 332.023 472.37 345.045 462.293 357.924 452.188 369 452.937 357.604 453.43 346.755 452.188 332.977Z" fill="#C3C3C3" fill-rule="evenodd"/><path d="M189 332.977C203.802 317.78 208.393 315.195 225.812 296 242.789 292.801 263.619 293.934 291.609 296 319.599 298.066 343.264 298.075 357.406 296 371.549 293.925 405.943 295.219 420.571 296 435.199 296.781 466.953 293.105 489 296 472.952 315.257 471.585 316.512 452.188 332.977 421.481 334.234 397.153 335.577 381.127 332.977 365.101 330.377 331.99 334.197 317.962 332.977 303.934 331.758 280.431 335.266 254.797 332.977 229.163 330.689 206.98 335.069 189 332.977Z" fill="#F5F5F5" fill-rule="evenodd"/><path d="M189 332.977C208.703 316.398 217.445 304.963 225.812 296 253.199 294.311 280.146 299.41 294.241 296 308.336 292.59 341.048 298.862 354.774 296 368.501 293.138 399.403 298.257 415.307 296 431.212 293.743 453.824 298.397 489 296 490.742 305.762 488.097 321.105 489 332.023 474.551 349.702 470.667 353.17 452.188 369 429.235 369.148 404.572 369.796 383.759 369 362.946 368.204 341.348 365.989 323.226 369 305.103 372.011 291.159 371.128 260.061 369 228.962 366.872 206.584 366.384 189 369 187.675 358.561 187.374 346.564 189 332.977ZM189 332.977C204.999 335.237 242.985 330.406 260.061 332.977 277.137 335.549 308.61 332.986 323.226 332.977 337.841 332.969 360.374 333.576 394.286 332.977 428.198 332.379 435.159 334.562 452.188 332.977 469.312 313.525 471.843 315.429 489 296M452.188 332.977C451.336 344.811 451.454 360.545 452.188 369" stroke="#000000" stroke-width="2" stroke-miterlimit="8" fill="none" fill-rule="evenodd"/><path d="M189 296.471C208.04 298.858 238.137 298.574 252.165 296.471 266.193 294.368 288.046 293.986 310.066 296.471 332.087 298.956 360.144 297.815 381.127 296.471 402.11 295.127 421.431 297.254 452.188 296.471 451.428 309.327 452.091 317.29 452.188 332 434.922 330.615 408.109 329.509 386.391 332 364.673 334.491 337.803 329.715 320.594 332 303.385 334.285 287.085 330.07 257.429 332 227.772 333.93 217.441 329.525 189 332 188.908 319.001 190.692 309.489 189 296.471Z" fill="#F2F2F2" fill-rule="evenodd"/><path d="M452.188 296.471C462.976 287.166 474.77 274.384 489 260 488.013 272.936 489.558 288.164 489 295.529 472.37 308.374 462.293 321.075 452.188 332 452.937 320.76 453.43 310.06 452.188 296.471Z" fill="#C3C3C3" fill-rule="evenodd"/><path d="M189 296.471C203.802 281.481 208.393 278.932 225.812 260 242.789 256.844 263.619 257.962 291.609 260 319.599 262.038 343.264 262.047 357.406 260 371.549 257.953 405.943 259.229 420.571 260 435.199 260.771 466.953 257.145 489 260 472.952 278.994 471.585 280.231 452.188 296.471 421.481 297.71 397.153 299.035 381.127 296.471 365.101 293.907 331.99 297.674 317.962 296.471 303.934 295.268 280.431 298.728 254.797 296.471 229.163 294.214 206.98 298.533 189 296.471Z" fill="#F5F5F5" fill-rule="evenodd"/><path d="M189 296.471C208.703 280.118 217.445 268.841 225.812 260 253.199 258.334 280.146 263.363 294.241 260 308.336 256.637 341.048 262.823 354.774 260 368.501 257.177 399.403 262.226 415.307 260 431.212 257.774 453.824 262.364 489 260 490.742 269.628 488.097 284.761 489 295.529 474.551 312.966 470.667 316.387 452.188 332 429.235 332.146 404.572 332.785 383.759 332 362.946 331.215 341.348 329.03 323.226 332 305.103 334.97 291.159 334.099 260.061 332 228.962 329.901 206.584 329.42 189 332 187.675 321.704 187.374 309.872 189 296.471ZM189 296.471C204.999 298.699 242.985 293.934 260.061 296.471 277.137 299.007 308.61 296.479 323.226 296.471 337.841 296.463 360.374 297.062 394.286 296.471 428.198 295.88 435.159 298.034 452.188 296.471 469.312 277.285 471.843 279.163 489 260M452.188 296.471C451.336 308.142 451.454 323.66 452.188 332" stroke="#000000" stroke-width="2" stroke-miterlimit="8" fill="none" fill-rule="evenodd"/><path d="M666 550.977C685.04 553.398 715.137 553.11 729.165 550.977 743.193 548.845 765.046 548.458 787.066 550.977 809.087 553.497 837.144 552.34 858.127 550.977 879.11 549.615 898.431 551.772 929.188 550.977 928.428 564.012 929.091 572.086 929.188 587 911.922 585.596 885.109 584.475 863.391 587 841.673 589.525 814.802 584.683 797.594 587 780.385 589.317 764.085 585.043 734.429 587 704.772 588.957 694.441 584.49 666 587 665.908 573.82 667.692 564.176 666 550.977Z" fill="#F2F2F2" fill-rule="evenodd"/><path d="M929.188 550.977C939.976 541.543 951.77 528.584 966 514 965.013 527.115 966.558 542.555 966 550.023 949.37 563.045 939.293 575.924 929.188 587 929.937 575.604 930.43 564.755 929.188 550.977Z" fill="#C3C3C3" fill-rule="evenodd"/><path d="M666 550.977C680.802 535.78 685.393 533.195 702.812 514 719.789 510.801 740.619 511.934 768.609 514 796.599 516.066 820.264 516.075 834.406 514 848.549 511.925 882.943 513.219 897.571 514 912.199 514.781 943.953 511.105 966 514 949.952 533.257 948.585 534.512 929.188 550.977 898.481 552.234 874.153 553.577 858.127 550.977 842.101 548.377 808.99 552.197 794.962 550.977 780.934 549.758 757.431 553.266 731.797 550.977 706.163 548.689 683.98 553.069 666 550.977Z" fill="#F5F5F5" fill-rule="evenodd"/><path d="M666 550.977C685.703 534.398 694.445 522.963 702.812 514 730.199 512.311 757.146 517.41 771.241 514 785.336 510.59 818.048 516.862 831.774 514 845.501 511.138 876.403 516.257 892.307 514 908.212 511.743 930.824 516.397 966 514 967.742 523.762 965.097 539.105 966 550.023 951.551 567.702 947.667 571.17 929.188 587 906.235 587.148 881.572 587.796 860.759 587 839.946 586.204 818.348 583.989 800.226 587 782.103 590.011 768.159 589.128 737.061 587 705.962 584.872 683.584 584.384 666 587 664.675 576.561 664.374 564.564 666 550.977ZM666 550.977C681.999 553.237 719.985 548.406 737.061 550.977 754.137 553.549 785.61 550.986 800.226 550.977 814.841 550.969 837.375 551.576 871.286 550.977 905.198 550.379 912.159 552.562 929.188 550.977 946.312 531.525 948.843 533.429 966 514M929.188 550.977C928.336 562.811 928.454 578.545 929.188 587" stroke="#000000" stroke-width="2" stroke-miterlimit="8" fill="none" fill-rule="evenodd"/><path d="M684 514.471C703.04 516.859 733.137 516.574 747.165 514.471 761.193 512.368 783.046 511.986 805.066 514.471 827.087 516.956 855.144 515.815 876.127 514.471 897.11 513.127 916.431 515.254 947.188 514.471 946.428 527.327 947.091 535.29 947.188 550 929.922 548.615 903.109 547.509 881.391 550 859.673 552.491 832.802 547.715 815.594 550 798.385 552.285 782.085 548.07 752.429 550 722.772 551.93 712.441 547.525 684 550 683.908 537.001 685.692 527.489 684 514.471Z" fill="#F2F2F2" fill-rule="evenodd"/><path d="M947.188 514.471C957.976 505.166 969.77 492.384 984 478 983.013 490.936 984.558 506.164 984 513.529 967.37 526.374 957.293 539.075 947.188 550 947.937 538.76 948.43 528.06 947.188 514.471Z" fill="#C3C3C3" fill-rule="evenodd"/><path d="M684 514.471C698.802 499.481 703.393 496.932 720.812 478 737.789 474.844 758.619 475.962 786.609 478 814.599 480.038 838.264 480.047 852.406 478 866.549 475.953 900.943 477.229 915.571 478 930.199 478.771 961.953 475.145 984 478 967.952 496.994 966.585 498.231 947.188 514.471 916.481 515.71 892.153 517.035 876.127 514.471 860.101 511.907 826.99 515.674 812.962 514.471 798.934 513.268 775.431 516.728 749.797 514.471 724.163 512.214 701.98 516.533 684 514.471Z" fill="#F5F5F5" fill-rule="evenodd"/><path d="M684 514.471C703.703 498.118 712.445 486.841 720.812 478 748.199 476.334 775.146 481.363 789.241 478 803.336 474.637 836.048 480.823 849.774 478 863.501 475.177 894.403 480.226 910.307 478 926.212 475.774 948.824 480.364 984 478 985.742 487.628 983.097 502.761 984 513.529 969.551 530.966 965.667 534.387 947.188 550 924.235 550.146 899.572 550.785 878.759 550 857.946 549.215 836.348 547.03 818.226 550 800.103 552.97 786.159 552.099 755.061 550 723.962 547.901 701.584 547.42 684 550 682.675 539.704 682.374 527.872 684 514.471ZM684 514.471C699.999 516.699 737.985 511.934 755.061 514.471 772.137 517.007 803.61 514.479 818.226 514.471 832.841 514.463 855.375 515.062 889.286 514.471 923.198 513.88 930.159 516.034 947.188 514.471 964.312 495.285 966.843 497.163 984 478M947.188 514.471C946.336 526.142 946.454 541.66 947.188 550" stroke="#000000" stroke-width="2" stroke-miterlimit="8" fill="none" fill-rule="evenodd"/><path d="M769 477.977C788.04 480.398 818.137 480.11 832.165 477.977 846.193 475.845 868.046 475.458 890.066 477.977 912.087 480.497 940.144 479.34 961.127 477.977 982.11 476.615 1001.43 478.772 1032.19 477.977 1031.43 491.012 1032.09 499.086 1032.19 514 1014.92 512.596 988.109 511.475 966.391 514 944.673 516.525 917.802 511.683 900.594 514 883.385 516.317 867.085 512.043 837.429 514 807.772 515.957 797.441 511.49 769 514 768.908 500.82 770.692 491.176 769 477.977Z" fill="#F2F2F2" fill-rule="evenodd"/><path d="M1032.19 477.977C1042.98 468.543 1054.77 455.584 1069 441 1068.01 454.115 1069.56 469.555 1069 477.023 1052.37 490.045 1042.29 502.924 1032.19 514 1032.94 502.604 1033.43 491.755 1032.19 477.977Z" fill="#C3C3C3" fill-rule="evenodd"/><path d="M769 477.977C783.802 462.78 788.393 460.195 805.812 441 822.789 437.801 843.619 438.934 871.609 441 899.599 443.066 923.264 443.075 937.406 441 951.549 438.925 985.943 440.219 1000.57 441 1015.2 441.781 1046.95 438.105 1069 441 1052.95 460.257 1051.58 461.512 1032.19 477.977 1001.48 479.234 977.153 480.577 961.127 477.977 945.101 475.377 911.99 479.197 897.962 477.977 883.934 476.758 860.431 480.266 834.797 477.977 809.163 475.689 786.98 480.069 769 477.977Z" fill="#F5F5F5" fill-rule="evenodd"/><path d="M769 477.977C788.703 461.398 797.445 449.963 805.812 441 833.199 439.311 860.146 444.41 874.241 441 888.336 437.59 921.048 443.862 934.774 441 948.501 438.138 979.403 443.257 995.307 441 1011.21 438.743 1033.82 443.397 1069 441 1070.74 450.762 1068.1 466.105 1069 477.023 1054.55 494.702 1050.67 498.17 1032.19 514 1009.23 514.148 984.572 514.796 963.759 514 942.946 513.204 921.348 510.989 903.226 514 885.103 517.011 871.159 516.128 840.061 514 808.962 511.872 786.584 511.384 769 514 767.675 503.561 767.374 491.564 769 477.977ZM769 477.977C784.999 480.237 822.985 475.406 840.061 477.977 857.137 480.549 888.61 477.986 903.226 477.977 917.841 477.969 940.375 478.576 974.286 477.977 1008.2 477.379 1015.16 479.562 1032.19 477.977 1049.31 458.525 1051.84 460.429 1069 441M1032.19 477.977C1031.34 489.811 1031.45 505.545 1032.19 514" stroke="#000000" stroke-width="2" stroke-miterlimit="8" fill="none" fill-rule="evenodd"/><path d="M722 441.977C741.04 444.398 771.137 444.11 785.165 441.977 799.193 439.845 821.046 439.458 843.066 441.977 865.087 444.497 893.144 443.34 914.127 441.977 935.11 440.615 954.431 442.772 985.188 441.977 984.428 455.012 985.091 463.086 985.188 478 967.922 476.596 941.109 475.475 919.391 478 897.673 480.525 870.802 475.683 853.594 478 836.385 480.317 820.085 476.043 790.429 478 760.772 479.957 750.441 475.49 722 478 721.908 464.82 723.692 455.176 722 441.977Z" fill="#F2F2F2" fill-rule="evenodd"/><path d="M985.188 441.977C995.976 432.543 1007.77 419.584 1022 405 1021.01 418.115 1022.56 433.555 1022 441.023 1005.37 454.045 995.293 466.924 985.188 478 985.937 466.604 986.43 455.755 985.188 441.977Z" fill="#C3C3C3" fill-rule="evenodd"/><path d="M722 441.977C736.802 426.78 741.393 424.195 758.812 405 775.789 401.801 796.619 402.934 824.609 405 852.599 407.066 876.264 407.075 890.406 405 904.549 402.925 938.943 404.219 953.571 405 968.199 405.781 999.953 402.105 1022 405 1005.95 424.257 1004.58 425.512 985.188 441.977 954.481 443.234 930.153 444.577 914.127 441.977 898.101 439.377 864.99 443.197 850.962 441.977 836.934 440.758 813.431 444.266 787.797 441.977 762.163 439.689 739.98 444.069 722 441.977Z" fill="#F5F5F5" fill-rule="evenodd"/><path d="M722 441.977C741.703 425.398 750.445 413.963 758.812 405 786.199 403.311 813.146 408.41 827.241 405 841.336 401.59 874.048 407.862 887.774 405 901.501 402.138 932.403 407.257 948.307 405 964.212 402.743 986.824 407.397 1022 405 1023.74 414.762 1021.1 430.105 1022 441.023 1007.55 458.702 1003.67 462.17 985.188 478 962.235 478.148 937.572 478.796 916.759 478 895.946 477.204 874.348 474.989 856.226 478 838.103 481.011 824.159 480.128 793.061 478 761.962 475.872 739.584 475.384 722 478 720.675 467.561 720.374 455.564 722 441.977ZM722 441.977C737.999 444.237 775.985 439.406 793.061 441.977 810.137 444.549 841.61 441.986 856.226 441.977 870.841 441.969 893.375 442.576 927.286 441.977 961.198 441.379 968.159 443.562 985.188 441.977 1002.31 422.525 1004.84 424.429 1022 405M985.188 441.977C984.336 453.811 984.454 469.545 985.188 478" stroke="#000000" stroke-width="2" stroke-miterlimit="8" fill="none" fill-rule="evenodd"/><path d="M647 405.471C666.04 407.858 696.137 407.574 710.165 405.471 724.193 403.368 746.046 402.986 768.066 405.471 790.087 407.956 818.144 406.815 839.127 405.471 860.11 404.127 879.431 406.254 910.188 405.471 909.428 418.327 910.091 426.29 910.188 441 892.922 439.615 866.109 438.509 844.391 441 822.673 443.491 795.802 438.715 778.594 441 761.385 443.285 745.085 439.07 715.429 441 685.772 442.93 675.441 438.525 647 441 646.908 428.001 648.692 418.489 647 405.471Z" fill="#F2F2F2" fill-rule="evenodd"/><path d="M910.188 405.471C920.976 396.166 932.77 383.384 947 369 946.013 381.936 947.558 397.164 947 404.529 930.37 417.374 920.293 430.075 910.188 441 910.937 429.76 911.43 419.06 910.188 405.471Z" fill="#C3C3C3" fill-rule="evenodd"/><path d="M647 405.471C661.802 390.481 666.393 387.932 683.812 369 700.789 365.844 721.619 366.962 749.609 369 777.599 371.038 801.264 371.047 815.406 369 829.549 366.953 863.943 368.229 878.571 369 893.199 369.771 924.953 366.145 947 369 930.952 387.994 929.585 389.231 910.188 405.471 879.481 406.71 855.153 408.035 839.127 405.471 823.101 402.907 789.99 406.674 775.962 405.471 761.934 404.268 738.431 407.728 712.797 405.471 687.163 403.214 664.98 407.533 647 405.471Z" fill="#F5F5F5" fill-rule="evenodd"/><path d="M647 405.471C666.703 389.118 675.445 377.841 683.812 369 711.199 367.334 738.146 372.363 752.241 369 766.336 365.637 799.048 371.823 812.774 369 826.501 366.177 857.403 371.226 873.307 369 889.212 366.774 911.824 371.364 947 369 948.742 378.628 946.097 393.761 947 404.529 932.551 421.966 928.667 425.387 910.188 441 887.235 441.146 862.572 441.785 841.759 441 820.946 440.215 799.348 438.03 781.226 441 763.103 443.97 749.159 443.099 718.061 441 686.962 438.901 664.584 438.42 647 441 645.675 430.704 645.374 418.872 647 405.471ZM647 405.471C662.999 407.699 700.985 402.934 718.061 405.471 735.137 408.007 766.61 405.479 781.226 405.471 795.841 405.463 818.375 406.062 852.286 405.471 886.198 404.88 893.159 407.034 910.188 405.471 927.312 386.285 929.843 388.163 947 369M910.188 405.471C909.336 417.142 909.454 432.66 910.188 441" stroke="#000000" stroke-width="2" stroke-miterlimit="8" fill="none" fill-rule="evenodd"/><path d="M621 368.977C640.04 371.398 670.137 371.11 684.165 368.977 698.193 366.845 720.046 366.458 742.066 368.977 764.087 371.497 792.144 370.34 813.127 368.977 834.11 367.615 853.431 369.772 884.188 368.977 883.428 382.012 884.091 390.086 884.188 405 866.922 403.596 840.109 402.475 818.391 405 796.673 407.525 769.802 402.683 752.594 405 735.385 407.317 719.085 403.043 689.429 405 659.772 406.957 649.441 402.49 621 405 620.908 391.82 622.692 382.176 621 368.977Z" fill="#F2F2F2" fill-rule="evenodd"/><path d="M884.188 368.977C894.976 359.543 906.77 346.584 921 332 920.013 345.115 921.558 360.555 921 368.023 904.37 381.045 894.293 393.924 884.188 405 884.937 393.604 885.43 382.755 884.188 368.977Z" fill="#C3C3C3" fill-rule="evenodd"/><path d="M621 368.977C635.802 353.78 640.393 351.195 657.812 332 674.789 328.801 695.619 329.934 723.609 332 751.599 334.066 775.264 334.075 789.406 332 803.549 329.925 837.943 331.219 852.571 332 867.199 332.781 898.953 329.105 921 332 904.952 351.257 903.585 352.512 884.188 368.977 853.481 370.234 829.153 371.577 813.127 368.977 797.101 366.377 763.99 370.197 749.962 368.977 735.934 367.758 712.431 371.266 686.797 368.977 661.163 366.689 638.98 371.069 621 368.977Z" fill="#F5F5F5" fill-rule="evenodd"/><path d="M621 368.977C640.703 352.398 649.445 340.963 657.812 332 685.199 330.311 712.146 335.41 726.241 332 740.336 328.59 773.048 334.862 786.774 332 800.501 329.138 831.403 334.257 847.307 332 863.212 329.743 885.824 334.397 921 332 922.742 341.762 920.097 357.105 921 368.023 906.551 385.702 902.667 389.17 884.188 405 861.235 405.148 836.572 405.796 815.759 405 794.946 404.204 773.348 401.989 755.226 405 737.103 408.011 723.159 407.128 692.061 405 660.962 402.872 638.584 402.384 621 405 619.675 394.561 619.374 382.564 621 368.977ZM621 368.977C636.999 371.237 674.985 366.406 692.061 368.977 709.137 371.549 740.61 368.986 755.226 368.977 769.841 368.969 792.375 369.576 826.286 368.977 860.198 368.379 867.159 370.562 884.188 368.977 901.312 349.525 903.843 351.429 921 332M884.188 368.977C883.336 380.811 883.454 396.545 884.188 405" stroke="#000000" stroke-width="2" stroke-miterlimit="8" fill="none" fill-rule="evenodd"/><path d="M722 332.977C741.04 335.398 771.137 335.11 785.165 332.977 799.193 330.845 821.046 330.458 843.066 332.977 865.087 335.497 893.144 334.34 914.127 332.977 935.11 331.615 954.431 333.772 985.188 332.977 984.428 346.012 985.091 354.086 985.188 369 967.922 367.596 941.109 366.475 919.391 369 897.673 371.525 870.802 366.683 853.594 369 836.385 371.317 820.085 367.043 790.429 369 760.772 370.957 750.441 366.49 722 369 721.908 355.82 723.692 346.176 722 332.977Z" fill="#F2F2F2" fill-rule="evenodd"/><path d="M985.188 332.977C995.976 323.543 1007.77 310.584 1022 296 1021.01 309.115 1022.56 324.555 1022 332.023 1005.37 345.045 995.293 357.924 985.188 369 985.937 357.604 986.43 346.755 985.188 332.977Z" fill="#C3C3C3" fill-rule="evenodd"/><path d="M722 332.977C736.802 317.78 741.393 315.195 758.812 296 775.789 292.801 796.619 293.934 824.609 296 852.599 298.066 876.264 298.075 890.406 296 904.549 293.925 938.943 295.219 953.571 296 968.199 296.781 999.953 293.105 1022 296 1005.95 315.257 1004.58 316.512 985.188 332.977 954.481 334.234 930.153 335.577 914.127 332.977 898.101 330.377 864.99 334.197 850.962 332.977 836.934 331.758 813.431 335.266 787.797 332.977 762.163 330.689 739.98 335.069 722 332.977Z" fill="#F5F5F5" fill-rule="evenodd"/><path d="M722 332.977C741.703 316.398 750.445 304.963 758.812 296 786.199 294.311 813.146 299.41 827.241 296 841.336 292.59 874.048 298.862 887.774 296 901.501 293.138 932.403 298.257 948.307 296 964.212 293.743 986.824 298.397 1022 296 1023.74 305.762 1021.1 321.105 1022 332.023 1007.55 349.702 1003.67 353.17 985.188 369 962.235 369.148 937.572 369.796 916.759 369 895.946 368.204 874.348 365.989 856.226 369 838.103 372.011 824.159 371.128 793.061 369 761.962 366.872 739.584 366.384 722 369 720.675 358.561 720.374 346.564 722 332.977ZM722 332.977C737.999 335.237 775.985 330.406 793.061 332.977 810.137 335.549 841.61 332.986 856.226 332.977 870.841 332.969 893.375 333.576 927.286 332.977 961.198 332.379 968.159 334.562 985.188 332.977 1002.31 313.525 1004.84 315.429 1022 296M985.188 332.977C984.336 344.811 984.454 360.545 985.188 369" stroke="#000000" stroke-width="2" stroke-miterlimit="8" fill="none" fill-rule="evenodd"/><path d="M673 296.471C692.04 298.858 722.137 298.574 736.165 296.471 750.193 294.368 772.046 293.986 794.066 296.471 816.087 298.956 844.144 297.815 865.127 296.471 886.11 295.127 905.431 297.254 936.188 296.471 935.428 309.327 936.091 317.29 936.188 332 918.922 330.615 892.109 329.509 870.391 332 848.673 334.491 821.802 329.715 804.594 332 787.385 334.285 771.085 330.07 741.429 332 711.772 333.93 701.441 329.525 673 332 672.908 319.001 674.692 309.489 673 296.471Z" fill="#F2F2F2" fill-rule="evenodd"/><path d="M936.188 296.471C946.976 287.166 958.77 274.384 973 260 972.013 272.936 973.558 288.164 973 295.529 956.37 308.374 946.293 321.075 936.188 332 936.937 320.76 937.43 310.06 936.188 296.471Z" fill="#C3C3C3" fill-rule="evenodd"/><path d="M673 296.471C687.802 281.481 692.393 278.932 709.812 260 726.789 256.844 747.619 257.962 775.609 260 803.599 262.038 827.264 262.047 841.406 260 855.549 257.953 889.943 259.229 904.571 260 919.199 260.771 950.953 257.145 973 260 956.952 278.994 955.585 280.231 936.188 296.471 905.481 297.71 881.153 299.035 865.127 296.471 849.101 293.907 815.99 297.674 801.962 296.471 787.934 295.268 764.431 298.728 738.797 296.471 713.163 294.214 690.98 298.533 673 296.471Z" fill="#F5F5F5" fill-rule="evenodd"/><path d="M673 296.471C692.703 280.118 701.445 268.841 709.812 260 737.199 258.334 764.146 263.363 778.241 260 792.336 256.637 825.048 262.823 838.774 260 852.501 257.177 883.403 262.226 899.307 260 915.212 257.774 937.824 262.364 973 260 974.742 269.628 972.097 284.761 973 295.529 958.551 312.966 954.667 316.387 936.188 332 913.235 332.146 888.572 332.785 867.759 332 846.946 331.215 825.348 329.03 807.226 332 789.103 334.97 775.159 334.099 744.061 332 712.962 329.901 690.584 329.42 673 332 671.675 321.704 671.374 309.872 673 296.471ZM673 296.471C688.999 298.699 726.985 293.934 744.061 296.471 761.137 299.007 792.61 296.479 807.226 296.471 821.841 296.463 844.375 297.062 878.286 296.471 912.198 295.88 919.159 298.034 936.188 296.471 953.312 277.285 955.843 279.163 973 260M936.188 296.471C935.336 308.142 935.454 323.66 936.188 332" stroke="#000000" stroke-width="2" stroke-miterlimit="8" fill="none" fill-rule="evenodd"/></g></svg>