<svg width="1280" height="720" xmlns="http://www.w3.org/2000/svg" xmlns:xlink="http://www.w3.org/1999/xlink" overflow="hidden"><g><rect x="0" y="0" width="1280" height="720" fill="#FFFFFF"/><path d="M189 538C221.914 519.808 237.042 513.181 259.527 503.845 282.012 494.509 294.86 483.583 314.381 477.28 333.903 470.977 365.369 450.394 379.684 445.655 393.999 440.916 411.844 433.021 434.539 419.09 457.233 405.159 479.577 394.619 510.29 382.405 541.002 370.191 567.907 358.363 586.041 345.72 604.175 333.077 634.631 320.924 651.344 314.095 668.057 307.266 688.011 294.493 711.422 285 738.727 283.577 741.17 285.952 768.342 285 795.514 284.048 809.705 285.198 825.262 285 840.818 284.802 855.849 286.504 882.182 285 908.514 283.496 913.367 283.426 936.106 285 958.844 286.574 985.631 281.354 1011 285 985.624 299.49 972.541 300.422 940.473 319.155 908.405 337.888 893.908 343.863 875.17 350.78 856.432 357.696 828.114 376.465 804.643 384.935 781.173 393.405 764.613 407.436 734.116 419.09 703.619 430.744 675.238 446.922 658.365 455.775 641.492 464.628 629.664 471.895 603.511 482.34 577.357 492.785 571.84 499.773 548.656 508.905 525.473 518.037 509.579 526.098 488.578 538 471.346 539.282 436.094 535.873 422.671 538 409.248 540.127 390.001 535.948 368.747 538 347.493 540.052 324.573 536.072 302.84 538 281.106 539.928 273.981 536.505 251.911 538 229.842 539.495 208.816 537.411 189 538Z" stroke="#000000" stroke-width="2" stroke-miterlimit="8" fill="none" fill-rule="evenodd"/><text fill="#FFFFFF" font-family="Aptos,Aptos_MSFontService,sans-serif" font-weight="400" font-size="24" transform="translate(591.883 419)">C</text></g></svg>