<svg width="1280" height="720" xmlns="http://www.w3.org/2000/svg" xmlns:xlink="http://www.w3.org/1999/xlink" overflow="hidden"><g><rect x="0" y="0" width="1280" height="720" fill="#FFFFFF"/><path d="M488.621 537.66C502.046 527.845 514.9 504.027 537.839 481.974 560.777 459.921 577.059 438.772 587.056 426.288 597.053 413.804 610.341 398.014 634.036 373.132 657.732 348.251 669.748 324.359 712.337 284.541 706.674 305.465 692.693 335.722 681.747 356.69 670.801 377.659 664.679 400.495 651.156 428.84 637.634 457.185 632.021 473.664 620.566 500.99 609.111 528.316 582.128 581.318 573.291 612.494 563.063 603.972 540.407 586.774 530.109 574.329 519.811 561.884 502.237 548.639 488.621 537.66Z" stroke="#000000" stroke-width="2" stroke-miterlimit="8" stroke-dasharray="8 6" fill="none" fill-rule="evenodd"/><path d="M812.617 342.873 575.589 619.559 490.064 546.293 727.092 269.607Z" stroke="#FFFFFF" stroke-width="2" stroke-miterlimit="8" fill="#FFFFFF" fill-rule="evenodd"/><path d="M504.571 546.499 496.633 555.764 484.832 545.654 492.769 536.388Z" stroke="#FFFFFF" stroke-width="2" stroke-miterlimit="8" fill="#FFFFFF" fill-rule="evenodd"/><path d="M189 538C221.914 519.808 237.042 513.181 259.527 503.845 282.012 494.509 294.86 483.583 314.381 477.28 333.903 470.977 365.369 450.394 379.684 445.655 393.999 440.916 411.844 433.021 434.539 419.09 457.233 405.159 479.577 394.619 510.29 382.405 541.002 370.191 567.907 358.363 586.041 345.72 604.175 333.077 634.631 320.924 651.344 314.095 668.057 307.266 688.011 294.493 711.422 285 738.727 283.577 741.17 285.952 768.342 285 795.514 284.048 809.705 285.198 825.262 285 840.818 284.802 855.849 286.504 882.182 285 908.514 283.496 913.367 283.426 936.106 285 958.844 286.574 985.631 281.354 1011 285 985.624 299.49 972.541 300.422 940.473 319.155 908.405 337.888 893.908 343.863 875.17 350.78 856.432 357.696 828.114 376.465 804.643 384.935 781.173 393.405 764.613 407.436 734.116 419.09 703.619 430.744 675.238 446.922 658.365 455.775 641.492 464.628 629.664 471.895 603.511 482.34 577.357 492.785 571.84 499.773 548.656 508.905 525.473 518.037 509.579 526.098 488.578 538 471.346 539.282 436.094 535.873 422.671 538 409.248 540.127 390.001 535.948 368.747 538 347.493 540.052 324.573 536.072 302.84 538 281.106 539.928 273.981 536.505 251.911 538 229.842 539.495 208.816 537.411 189 538Z" stroke="#000000" stroke-width="2" stroke-miterlimit="8" fill="none" fill-rule="evenodd"/></g></svg>