<svg width="1280" height="720" xmlns="http://www.w3.org/2000/svg" xmlns:xlink="http://www.w3.org/1999/xlink" overflow="hidden"><g><rect x="0" y="0" width="1280" height="720" fill="#FFFFFF"/><path d="M643 289.5C643.117 278.982 652.215 272.726 661.5 272 669.721 271.269 680.411 278.44 680 289.5 681.681 298.09 671.49 307.562 661.5 307 651.151 307.419 644.412 297.963 643 289.5Z" stroke="#000000" stroke-width="2" stroke-miterlimit="8" fill="none" fill-rule="evenodd"/><path d="M606.262 302.859C595.123 297.248 593.401 286.817 596.015 279.051 598.213 272.376 610.877 267.171 621.019 272.222 630.481 274.912 635.772 288.035 631.265 296.03 627.894 305.139 615.885 307.15 606.262 302.859Z" stroke="#000000" stroke-width="2" stroke-miterlimit="8" fill="none" fill-rule="evenodd"/><path d="M549 287.5C549.114 276.982 557.966 270.726 567 270 574.998 269.269 585.4 276.44 585 287.5 586.635 296.09 576.72 305.562 567 305 556.931 305.419 550.374 295.963 549 287.5Z" stroke="#000000" stroke-width="2" stroke-miterlimit="8" fill="none" fill-rule="evenodd"/><path d="M504 288C504.114 277.181 512.966 270.747 522 270 529.998 269.248 540.4 276.624 540 288 541.635 296.835 531.72 306.578 522 306 511.931 306.431 505.374 296.705 504 288Z" stroke="#000000" stroke-width="2" stroke-miterlimit="8" fill="none" fill-rule="evenodd"/><path d="M117.094 476.627C107.562 471.908 105.727 461.144 109.008 452.639 111.833 445.072 122.904 438.794 132.805 444.01 141.344 446.297 145.645 459.437 140.892 467.997 136.879 477.304 125.403 479.095 117.094 476.627Z" stroke="#000000" stroke-width="2" stroke-miterlimit="8" fill="none" fill-rule="evenodd"/><path d="M115.05 432.236C105.518 427.517 103.682 416.753 106.963 408.249 109.788 400.682 120.86 394.403 130.761 399.619 139.3 401.907 143.601 415.047 138.847 423.606 134.835 432.913 123.359 434.705 115.05 432.236Z" stroke="#000000" stroke-width="2" stroke-miterlimit="8" fill="none" fill-rule="evenodd"/><path d="M236 464C236.117 453.181 245.215 446.747 254.5 446 262.721 445.248 273.411 452.624 273 464 274.681 472.835 264.49 482.578 254.5 482 244.151 482.431 237.412 472.705 236 464Z" stroke="#000000" stroke-width="2" stroke-miterlimit="8" fill="none" fill-rule="evenodd"/><path d="M193.847 480.792C184.315 476.073 182.479 465.309 185.76 456.805 188.585 449.238 199.657 442.96 209.558 448.175 218.096 450.463 222.397 463.603 217.644 472.163 213.632 481.47 202.156 483.261 193.847 480.792Z" stroke="#000000" stroke-width="2" stroke-miterlimit="8" fill="none" fill-rule="evenodd"/><path d="M184.938 409.868C190.18 400.613 201.03 399.379 209.338 403.128 216.737 406.369 222.39 417.772 216.631 427.368 213.873 435.767 200.514 439.331 192.232 434.109 183.162 429.585 182.012 418.028 184.938 409.868Z" stroke="#000000" stroke-width="2" stroke-miterlimit="8" fill="none" fill-rule="evenodd"/><path d="M235 421C235.114 410.181 243.966 403.747 253 403 260.998 402.248 271.4 409.624 271 421 272.635 429.835 262.72 439.578 253 439 242.931 439.431 236.374 429.705 235 421Z" stroke="#000000" stroke-width="2" stroke-miterlimit="8" fill="none" fill-rule="evenodd"/><path d="M193.432 391.823C182.294 386.212 180.571 375.78 183.186 368.015 185.383 361.34 198.048 356.134 208.189 361.185 217.651 363.875 222.942 376.999 218.436 384.994 215.064 394.102 203.055 396.114 193.432 391.823Z" stroke="#000000" stroke-width="2" stroke-miterlimit="8" fill="none" fill-rule="evenodd"/><path d="M233 376.5C233.114 364.873 241.966 357.73 251 357 260.183 356.713 269.524 363.895 269 376.5 270.635 386.19 260.72 396.564 251 396 240.331 398.388 234.994 385.517 233 376.5Z" stroke="#000000" stroke-width="2" stroke-miterlimit="8" fill="none" fill-rule="evenodd"/><path d="M417 373.5C417.114 362.982 425.966 356.726 435 356 442.998 355.269 453.4 362.44 453 373.5 454.635 382.09 444.72 391.562 435 391 424.931 391.419 418.374 381.963 417 373.5Z" stroke="#000000" stroke-width="2" stroke-miterlimit="8" fill="none" fill-rule="evenodd"/><path d="M421 419C421.114 407.075 429.966 399.748 439 399 448.183 398.706 457.524 406.072 457 419 458.635 428.938 448.72 439.579 439 439 428.331 441.449 422.994 428.248 421 419Z" stroke="#000000" stroke-width="2" stroke-miterlimit="8" fill="none" fill-rule="evenodd"/><path d="M416 465.5C416.081 455.78 426.95 450.597 436 449 445.182 448.3 456.209 455.66 456 465.5 457.569 473.583 446.69 482.899 436 482 424.372 483.9 416.424 474.243 416 465.5Z" stroke="#000000" stroke-width="2" stroke-miterlimit="8" fill="none" fill-rule="evenodd"/><path d="M319.664 408.744C324.905 399.489 335.755 398.255 344.064 402.003 351.462 405.245 357.115 416.648 351.357 426.244 348.598 434.642 335.24 438.206 326.957 432.984 317.888 428.46 316.737 416.903 319.664 408.744Z" stroke="#000000" stroke-width="2" stroke-miterlimit="8" fill="none" fill-rule="evenodd"/><path d="M369 420C369.117 409.181 378.215 402.747 387.5 402 395.721 401.248 406.411 408.624 406 420 407.681 428.835 397.49 438.578 387.5 438 377.151 438.431 370.412 428.705 369 420Z" stroke="#000000" stroke-width="2" stroke-miterlimit="8" fill="none" fill-rule="evenodd"/><path d="M408 330C408.081 319.986 418.95 314.645 428 313 437.182 312.279 448.209 319.862 448 330 449.569 338.328 438.69 347.926 428 347 416.372 348.958 408.424 339.007 408 330Z" stroke="#000000" stroke-width="2" stroke-miterlimit="8" fill="none" fill-rule="evenodd"/><path d="M328.157 390.698C317.019 385.087 315.297 374.656 317.911 366.89 320.109 360.216 332.773 355.01 342.915 360.061 352.377 362.751 357.668 375.874 353.161 383.869 349.79 392.978 337.78 394.989 328.157 390.698Z" stroke="#000000" stroke-width="2" stroke-miterlimit="8" fill="none" fill-rule="evenodd"/><path d="M367 375.5C367.117 363.873 376.215 356.73 385.5 356 394.938 355.713 404.539 362.895 404 375.5 405.681 385.19 395.49 395.564 385.5 395 374.535 397.388 369.05 384.517 367 375.5Z" stroke="#000000" stroke-width="2" stroke-miterlimit="8" fill="none" fill-rule="evenodd"/><path d="M328.138 346.144C318.605 341.426 316.77 330.661 320.051 322.157 322.876 314.59 333.947 308.312 343.848 313.527 352.387 315.815 356.688 328.955 351.935 337.515 347.922 346.822 336.447 348.613 328.138 346.144Z" stroke="#000000" stroke-width="2" stroke-miterlimit="8" fill="none" fill-rule="evenodd"/><path d="M317 466C317.114 455.181 325.966 448.747 335 448 342.998 447.248 353.4 454.624 353 466 354.635 474.835 344.72 484.578 335 484 324.931 484.431 318.374 474.705 317 466Z" stroke="#000000" stroke-width="2" stroke-miterlimit="8" fill="none" fill-rule="evenodd"/><path d="M373.301 482.236C363.769 477.517 361.934 466.753 365.215 458.249 368.039 450.682 379.111 444.404 389.012 449.619 397.551 451.907 401.852 465.047 397.098 473.607 393.086 482.914 381.61 484.705 373.301 482.236Z" stroke="#000000" stroke-width="2" stroke-miterlimit="8" fill="none" fill-rule="evenodd"/><path d="M361 329.5C361.081 319.78 371.95 314.597 381 313 390.182 312.3 401.209 319.66 401 329.5 402.569 337.583 391.69 346.899 381 346 369.372 347.9 361.424 338.243 361 329.5Z" stroke="#000000" stroke-width="2" stroke-miterlimit="8" fill="none" fill-rule="evenodd"/><path d="M649 470.5C649.114 459.982 657.966 453.726 667 453 674.998 452.269 685.4 459.44 685 470.5 686.635 479.09 676.72 488.562 667 488 656.931 488.419 650.374 478.963 649 470.5Z" stroke="#000000" stroke-width="2" stroke-miterlimit="8" fill="none" fill-rule="evenodd"/><path d="M649 424.5C649.114 412.873 657.966 405.73 667 405 676.182 404.713 685.524 411.895 685 424.5 686.635 434.19 676.72 444.564 667 444 656.331 446.388 650.994 433.517 649 424.5Z" stroke="#000000" stroke-width="2" stroke-miterlimit="8" fill="none" fill-rule="evenodd"/><path d="M649 378.5C649.114 367.982 657.966 361.726 667 361 674.998 360.269 685.4 367.44 685 378.5 686.635 387.09 676.72 396.562 667 396 656.931 396.419 650.374 386.963 649 378.5Z" stroke="#000000" stroke-width="2" stroke-miterlimit="8" fill="none" fill-rule="evenodd"/><path d="M604 377C604.114 366.181 612.966 359.747 622 359 629.998 358.248 640.4 365.624 640 377 641.635 385.835 631.72 395.578 622 395 611.931 395.431 605.374 385.705 604 377Z" stroke="#000000" stroke-width="2" stroke-miterlimit="8" fill="none" fill-rule="evenodd"/><path d="M607 422.5C607.114 410.873 615.966 403.73 625 403 634.182 402.713 643.524 409.895 643 422.5 644.635 432.19 634.72 442.564 625 442 614.331 444.388 608.994 431.517 607 422.5Z" stroke="#000000" stroke-width="2" stroke-miterlimit="8" fill="none" fill-rule="evenodd"/><path d="M643 333.5C643.117 322.982 652.215 316.726 661.5 316 669.721 315.269 680.411 322.44 680 333.5 681.681 342.09 671.49 351.562 661.5 351 651.151 351.419 644.412 341.963 643 333.5Z" stroke="#000000" stroke-width="2" stroke-miterlimit="8" fill="none" fill-rule="evenodd"/><path d="M603 469.5C603.081 459.78 613.95 454.597 623 453 632.182 452.3 643.209 459.66 643 469.5 644.569 477.583 633.69 486.899 623 486 611.372 487.9 603.424 478.243 603 469.5Z" stroke="#000000" stroke-width="2" stroke-miterlimit="8" fill="none" fill-rule="evenodd"/><path d="M506.404 412.277C511.646 403.022 522.496 401.788 530.804 405.537 538.203 408.778 543.856 420.181 538.097 429.777 535.339 438.175 521.98 441.739 513.698 436.517 504.628 431.994 503.477 420.436 506.404 412.277Z" stroke="#000000" stroke-width="2" stroke-miterlimit="8" fill="none" fill-rule="evenodd"/><path d="M556 423.5C556.114 412.982 564.966 406.726 574 406 581.998 405.269 592.4 412.44 592 423.5 593.635 432.09 583.72 441.562 574 441 563.931 441.419 557.374 431.963 556 423.5Z" stroke="#000000" stroke-width="2" stroke-miterlimit="8" fill="none" fill-rule="evenodd"/><path d="M594 333.5C594.081 323.78 604.95 318.597 614 317 623.182 316.3 634.209 323.66 634 333.5 635.569 341.583 624.69 350.899 614 350 602.372 351.9 594.424 342.243 594 333.5Z" stroke="#000000" stroke-width="2" stroke-miterlimit="8" fill="none" fill-rule="evenodd"/><path d="M514.898 394.232C503.76 388.621 502.037 378.189 504.651 370.423 506.849 363.749 519.513 358.543 529.655 363.594 539.117 366.284 544.408 379.407 539.901 387.402 536.53 396.511 524.521 398.523 514.898 394.232Z" stroke="#000000" stroke-width="2" stroke-miterlimit="8" fill="none" fill-rule="evenodd"/><path d="M554 379C554.114 367.075 562.966 359.748 572 359 581.182 358.706 590.524 366.072 590 379 591.635 388.938 581.72 399.579 572 399 561.331 401.449 555.994 388.248 554 379Z" stroke="#000000" stroke-width="2" stroke-miterlimit="8" fill="none" fill-rule="evenodd"/><path d="M514.878 349.678C505.346 344.959 503.51 334.195 506.791 325.69 509.616 318.123 520.688 311.845 530.589 317.061 539.128 319.348 543.428 332.488 538.675 341.048 534.663 350.355 523.187 352.146 514.878 349.678Z" stroke="#000000" stroke-width="2" stroke-miterlimit="8" fill="none" fill-rule="evenodd"/><path d="M504 469.5C504.114 458.982 512.966 452.726 522 452 529.998 451.269 540.4 458.44 540 469.5 541.635 478.09 531.72 487.562 522 487 511.931 487.419 505.374 477.963 504 469.5Z" stroke="#000000" stroke-width="2" stroke-miterlimit="8" fill="none" fill-rule="evenodd"/><path d="M565.736 485.77C556.204 481.051 554.369 470.286 557.65 461.782 560.475 454.215 571.546 447.937 581.447 453.153 589.986 455.44 594.287 468.58 589.534 477.14 585.521 486.447 574.046 488.238 565.736 485.77Z" stroke="#000000" stroke-width="2" stroke-miterlimit="8" fill="none" fill-rule="evenodd"/><path d="M548 333.5C548.081 323.78 558.95 318.597 568 317 577.182 316.3 588.209 323.66 588 333.5 589.569 341.583 578.69 350.899 568 350 556.372 351.9 548.424 342.243 548 333.5Z" stroke="#000000" stroke-width="2" stroke-miterlimit="8" fill="none" fill-rule="evenodd"/><text font-family="Calibri,Calibri_MSFontService,sans-serif" font-weight="400" font-size="37" transform="translate(114.439 528)">R</text><text font-family="Calibri,Calibri_MSFontService,sans-serif" font-weight="400" font-size="25" transform="translate(134.773 536)">1</text><text font-family="Calibri,Calibri_MSFontService,sans-serif" font-weight="400" font-size="37" transform="translate(218.531 531)">R</text><text font-family="Calibri,Calibri_MSFontService,sans-serif" font-weight="400" font-size="25" transform="translate(238.865 539)">2</text><text font-family="Calibri,Calibri_MSFontService,sans-serif" font-weight="400" font-size="37" transform="translate(371.431 532)">R</text><text font-family="Calibri,Calibri_MSFontService,sans-serif" font-weight="400" font-size="25" transform="translate(391.765 540)">3</text><text font-family="Calibri,Calibri_MSFontService,sans-serif" font-weight="400" font-size="37" transform="translate(585.443 532)">R</text><text font-family="Calibri,Calibri_MSFontService,sans-serif" font-weight="400" font-size="25" transform="translate(605.776 540)">4</text><path d="M934 291.5C934.114 280.982 942.966 274.726 952 274 959.998 273.269 970.4 280.44 970 291.5 971.635 300.09 961.72 309.562 952 309 941.931 309.419 935.374 299.963 934 291.5Z" stroke="#000000" stroke-width="2" stroke-miterlimit="8" fill="none" fill-rule="evenodd"/><path d="M896.749 305.273C885.611 299.662 883.888 289.23 886.503 281.464 888.701 274.79 901.365 269.584 911.507 274.635 920.969 277.325 926.26 290.448 921.753 298.443 918.382 307.552 906.372 309.564 896.749 305.273Z" stroke="#000000" stroke-width="2" stroke-miterlimit="8" fill="none" fill-rule="evenodd"/><path d="M839 290C839.114 279.181 847.966 272.747 857 272 864.998 271.248 875.4 278.624 875 290 876.635 298.835 866.72 308.578 857 308 846.931 308.431 840.374 298.705 839 290Z" stroke="#000000" stroke-width="2" stroke-miterlimit="8" fill="none" fill-rule="evenodd"/><path d="M794 290.5C794.114 279.982 802.966 273.726 812 273 819.998 272.269 830.4 279.44 830 290.5 831.635 299.09 821.72 308.562 812 308 801.931 308.419 795.374 298.963 794 290.5Z" stroke="#000000" stroke-width="2" stroke-miterlimit="8" fill="none" fill-rule="evenodd"/><path d="M940 473C940.114 462.181 948.966 455.747 958 455 965.998 454.248 976.4 461.624 976 473 977.635 481.835 967.72 491.578 958 491 947.931 491.431 941.374 481.705 940 473Z" stroke="#000000" stroke-width="2" stroke-miterlimit="8" fill="none" fill-rule="evenodd"/><path d="M940 427C940.114 415.075 948.966 407.748 958 407 967.182 406.706 976.524 414.072 976 427 977.635 436.938 967.72 447.579 958 447 947.331 449.449 941.994 436.248 940 427Z" stroke="#000000" stroke-width="2" stroke-miterlimit="8" fill="none" fill-rule="evenodd"/><path d="M940 380.5C940.114 369.982 948.966 363.726 958 363 965.998 362.269 976.4 369.44 976 380.5 977.635 389.09 967.72 398.562 958 398 947.931 398.419 941.374 388.963 940 380.5Z" stroke="#000000" stroke-width="2" stroke-miterlimit="8" fill="none" fill-rule="evenodd"/><path d="M894 379.5C894.117 368.982 903.215 362.726 912.5 362 920.721 361.269 931.411 368.44 931 379.5 932.681 388.09 922.49 397.562 912.5 397 902.151 397.419 895.412 387.963 894 379.5Z" fill="#D9F2D0" fill-rule="evenodd"/><path d="M894 379.5C894.188 370.008 901.687 361.691 912.5 362 922.963 362.427 930.189 368.735 931 379.5 929.048 387.895 920.391 396.871 912.5 397 902.253 397.546 895.514 387.347 894 379.5Z" stroke="#000000" stroke-width="2" stroke-miterlimit="8" fill="none" fill-rule="evenodd"/><path d="M898 425C898.114 413.075 906.966 405.748 916 405 925.182 404.706 934.524 412.072 934 425 935.635 434.938 925.72 445.579 916 445 905.331 447.449 899.994 434.248 898 425Z" fill="#D9F2D0" fill-rule="evenodd"/><path d="M898 425C898.183 414.132 905.479 404.682 916 405 926.98 406.914 933.184 412.782 934 425 932.1 434.738 923.677 444.867 916 445 906.017 445.822 898.546 435.352 898 425Z" stroke="#000000" stroke-width="2" stroke-miterlimit="8" fill="none" fill-rule="evenodd"/><path d="M934 335.5C934.114 324.982 942.966 318.726 952 318 959.998 317.269 970.4 324.44 970 335.5 971.635 344.09 961.72 353.562 952 353 941.931 353.419 935.374 343.963 934 335.5Z" stroke="#000000" stroke-width="2" stroke-miterlimit="8" fill="none" fill-rule="evenodd"/><path d="M893 471.5C893.081 461.78 903.95 456.597 913 455 922.182 454.3 933.209 461.66 933 471.5 934.569 479.583 923.69 488.899 913 488 901.372 489.9 893.424 480.243 893 471.5Z" fill="#D9F2D0" fill-rule="evenodd"/><path d="M893 471.5C894.382 463.689 901.485 454.75 913 455 924.182 455.243 932.292 461.402 933 471.5 932.637 480.371 921.766 487.87 913 488 901.856 489.87 894.154 479.19 893 471.5Z" stroke="#000000" stroke-width="2" stroke-miterlimit="8" fill="none" fill-rule="evenodd"/><path d="M796.892 414.691C802.133 405.436 812.983 404.202 821.292 407.95 828.69 411.192 834.343 422.595 828.585 432.191 825.826 440.589 812.467 444.153 804.185 438.931 795.116 434.407 793.965 422.85 796.892 414.691Z" fill="#D9F2D0" fill-rule="evenodd"/><path d="M796.892 414.691C801.693 406.378 812.18 402.563 821.292 407.95 830.045 413.277 833.151 422.278 828.585 432.191 822.809 438.698 811.007 442.549 804.185 438.931 795.141 434.568 794.354 422.352 796.892 414.691Z" stroke="#000000" stroke-width="2" stroke-miterlimit="8" fill="none" fill-rule="evenodd"/><path d="M847 426C847.114 415.181 855.966 408.747 865 408 872.998 407.248 883.4 414.624 883 426 884.635 434.835 874.72 444.578 865 444 854.931 444.431 848.374 434.705 847 426Z" stroke="#000000" stroke-width="2" stroke-miterlimit="8" fill="none" fill-rule="evenodd"/><path d="M885 335.5C885.081 325.78 895.95 320.597 905 319 914.182 318.3 925.209 325.66 925 335.5 926.569 343.583 915.69 352.899 905 352 893.372 353.9 885.424 344.243 885 335.5Z" fill="#D9F2D0" fill-rule="evenodd"/><path d="M885 335.5C886.382 327.689 893.485 318.75 905 319 916.182 319.243 924.292 325.402 925 335.5 924.637 344.371 913.766 351.87 905 352 893.856 353.87 886.154 343.19 885 335.5Z" stroke="#000000" stroke-width="2" stroke-miterlimit="8" fill="none" fill-rule="evenodd"/><path d="M805.385 396.645C794.247 391.034 792.525 380.603 795.139 372.837 797.337 366.163 810.001 360.957 820.143 366.008 829.605 368.698 834.896 381.821 830.389 389.816 827.018 398.925 815.008 400.936 805.385 396.645Z" stroke="#000000" stroke-width="2" stroke-miterlimit="8" fill="none" fill-rule="evenodd"/><path d="M845 381.5C845.114 369.873 853.966 362.73 863 362 872.182 361.713 881.524 368.895 881 381.5 882.635 391.19 872.72 401.564 863 401 852.331 403.388 846.994 390.517 845 381.5Z" stroke="#000000" stroke-width="2" stroke-miterlimit="8" fill="none" fill-rule="evenodd"/><path d="M805.366 352.091C795.833 347.373 793.998 336.608 797.279 328.104 800.104 320.537 811.175 314.259 821.076 319.474 829.615 321.762 833.916 334.902 829.163 343.462 825.15 352.769 813.675 354.56 805.366 352.091Z" fill="#D9F2D0" fill-rule="evenodd"/><path d="M805.366 352.091C796.799 347.76 792.406 337.501 797.279 328.104 802.111 319.068 810.925 315.466 821.076 319.474 827.895 324.879 832.395 336.449 829.163 343.462 825.31 352.734 813.156 354.2 805.366 352.091Z" stroke="#000000" stroke-width="2" stroke-miterlimit="8" fill="none" fill-rule="evenodd"/><path d="M794 472C794.117 461.181 803.215 454.747 812.5 454 820.721 453.248 831.411 460.624 831 472 832.681 480.835 822.49 490.578 812.5 490 802.151 490.431 795.412 480.705 794 472Z" fill="#D9F2D0" fill-rule="evenodd"/><path d="M794 472C794.188 462.237 801.687 453.682 812.5 454 822.963 454.439 830.189 460.927 831 472 829.048 480.635 820.391 489.867 812.5 490 802.253 490.562 795.514 480.071 794 472Z" stroke="#000000" stroke-width="2" stroke-miterlimit="8" fill="none" fill-rule="evenodd"/><path d="M856.224 488.183C846.692 483.465 844.856 472.7 848.137 464.196 850.962 456.629 862.034 450.351 871.935 455.566 880.473 457.854 884.774 470.994 880.021 479.554 876.009 488.861 864.533 490.652 856.224 488.183Z" stroke="#000000" stroke-width="2" stroke-miterlimit="8" fill="none" fill-rule="evenodd"/><path d="M839 335.5C839.081 325.78 849.95 320.597 859 319 868.182 318.3 879.209 325.66 879 335.5 880.569 343.583 869.69 352.899 859 352 847.372 353.9 839.424 344.243 839 335.5Z" fill="#D9F2D0" fill-rule="evenodd"/><path d="M839 335.5C840.382 327.689 847.485 318.75 859 319 870.182 319.243 878.292 325.402 879 335.5 878.637 344.371 867.766 351.87 859 352 847.856 353.87 840.154 343.19 839 335.5Z" stroke="#000000" stroke-width="2" stroke-miterlimit="8" fill="none" fill-rule="evenodd"/><text font-family="Calibri,Calibri_MSFontService,sans-serif" font-weight="400" font-size="37" transform="translate(794.344 534)">2+4+6+8=R</text><text font-family="Calibri,Calibri_MSFontService,sans-serif" font-weight="400" font-size="25" transform="translate(965.344 542)">4</text></g></svg>