<svg width="1280" height="720" xmlns="http://www.w3.org/2000/svg" xmlns:xlink="http://www.w3.org/1999/xlink" overflow="hidden"><g><rect x="0" y="0" width="1280" height="720" fill="#FFFFFF"/><path d="M393 434.5C386.406 332.669 454.132 252.667 572.5 263 663.775 247.21 741.253 337.804 752 434.5 764.66 544.88 660.849 593.307 572.5 606 477.015 608.378 393.954 525.411 393 434.5Z" stroke="#000000" stroke-width="2" stroke-miterlimit="8" fill="none" fill-rule="evenodd"/><path d="M875.701 533.171C822.339 621.73 726.831 625.876 652.654 557.296 582.364 511.115 583.477 414.378 628.063 334.299 682.818 250.552 783.149 270.546 851.11 310.175 917.185 358.045 917.759 474.591 875.701 533.171Z" stroke="#000000" stroke-width="2" stroke-miterlimit="8" fill="none" fill-rule="evenodd"/><path d="M281 175C312.427 172.097 327.493 177.265 352.8 175 378.107 172.735 383.581 177.432 403.06 175 422.539 172.568 437.734 175.542 453.32 175 468.906 174.458 487.179 176.165 503.58 175 519.981 173.835 560.807 175.041 589.74 175 618.673 174.959 628.126 176.022 654.36 175 680.594 173.978 707.194 178.186 733.34 175 759.486 171.814 773.163 173.522 783.6 175 794.037 176.478 826.265 171.197 862.58 175 898.895 178.803 911.205 174.263 934.38 175 957.555 175.737 975.106 172.139 999 175 997.436 203.585 998.605 232.322 999 253.986 999.394 275.649 1001.09 293.526 999 313.571 996.915 333.617 999.755 354.968 999 392.557 998.245 430.146 996.896 450.699 999 466.693 1001.1 482.686 999.066 525.109 999 540.829 998.934 556.548 997.575 586.386 999 600.414 1000.42 614.443 997.691 642.219 999 660 969.472 661.832 951.72 663.49 912.84 660 873.96 656.51 874.956 662.74 855.4 660 835.844 657.26 829.256 660.944 805.14 660 781.023 659.056 779.783 660.774 754.88 660 729.977 659.226 718.296 659.594 683.08 660 647.864 660.406 630.958 658.486 596.92 660 562.882 661.514 559.458 660.261 532.3 660 505.141 659.739 483.096 661.828 453.32 660 423.544 658.172 413.013 658.98 395.88 660 378.747 661.02 309.262 661.929 281 660 278.033 626.509 279.525 616.894 281 590.714 282.475 564.535 283.33 543.679 281 531.129 278.67 518.578 278.634 490.365 281 471.543 283.366 452.721 281.101 435.35 281 411.957 280.899 388.565 279.832 377.589 281 352.371 282.168 327.154 279.595 312.071 281 283.086 282.405 254.1 284.6 198.606 281 175Z" stroke="#000000" stroke-width="2" stroke-miterlimit="8" fill="none" fill-rule="evenodd"/><path d="M620.652 427.955 708.75 432.345 706.076 485.993 617.978 481.603Z" fill="#FFFFFF" fill-rule="evenodd"/><text font-family="Calibri,Calibri_MSFontService,sans-serif" font-weight="400" font-size="37" transform="matrix(0.998761 0.0497699 -0.0497699 0.998761 653.249 469)">6</text><path d="M869.918 585.551 959.266 581.642 961.594 634.854 872.246 638.763Z" fill="#FFFFFF" fill-rule="evenodd"/><text font-family="Calibri,Calibri_MSFontService,sans-serif" font-weight="400" font-size="37" transform="matrix(0.999044 -0.0437089 0.0437089 0.999044 897.325 624)">11</text><path d="M314.789 296.737 394.73 301.78 390.845 363.372 310.904 358.329Z" fill="#FFFFFF" fill-rule="evenodd"/><text font-family="Calibri,Calibri_MSFontService,sans-serif" font-weight="400" font-size="37" transform="matrix(0.998016 0.0629635 -0.0629635 0.998016 342.542 342)">7</text><rect x="417" y="445" width="89" height="50" fill="#FFFFFF"/><text font-family="Calibri,Calibri_MSFontService,sans-serif" font-weight="400" font-size="37" transform="translate(451.783 482)">4</text><path d="M494.766 515.679 567.914 509.261 571.99 555.717 498.842 562.135Z" fill="#FFFFFF" fill-rule="evenodd"/><text font-family="Calibri,Calibri_MSFontService,sans-serif" font-weight="400" font-size="37" transform="matrix(0.996173 -0.0874035 0.0874035 0.996173 525.015 549)">2</text><path d="M775.715 456.974 863.406 467.875 855.792 529.118 768.101 518.217Z" fill="#FFFFFF" fill-rule="evenodd"/><text font-family="Calibri,Calibri_MSFontService,sans-serif" font-weight="400" font-size="37" transform="matrix(0.992361 0.123367 -0.123367 0.992361 804.772 504)">3</text><path d="M325.729 579.993 404.883 572.24 409.93 623.765 330.776 631.518Z" fill="#FFFFFF" fill-rule="evenodd"/><text font-family="Calibri,Calibri_MSFontService,sans-serif" font-weight="400" font-size="37" transform="matrix(0.995236 -0.0974908 0.0974908 0.995236 359.603 615)">1</text><path d="M785.238 353.443 873.335 357.833 870.662 411.481 782.564 407.091Z" fill="#FFFFFF" fill-rule="evenodd"/><text font-family="Calibri,Calibri_MSFontService,sans-serif" font-weight="400" font-size="37" transform="matrix(0.998761 0.0497699 -0.0497699 0.998761 817.834 395)">9</text><path d="M654.914 209.814 744.262 205.905 746.59 259.117 657.243 263.026Z" fill="#FFFFFF" fill-rule="evenodd"/><text font-family="Calibri,Calibri_MSFontService,sans-serif" font-weight="400" font-size="37" transform="matrix(0.999044 -0.0437089 0.0437089 0.999044 691.812 247)">5</text><rect x="465" y="362" width="89" height="49" fill="#FFFFFF"/><text font-family="Calibri,Calibri_MSFontService,sans-serif" font-weight="400" font-size="37" transform="translate(499.883 399)">8</text><path d="M494.766 290.779 581.983 283.126 586.059 329.582 498.842 337.234Z" fill="#FFFFFF" fill-rule="evenodd"/><text font-family="Calibri,Calibri_MSFontService,sans-serif" font-weight="400" font-size="37" transform="matrix(0.996173 -0.0874035 0.0874035 0.996173 522.586 324)">10</text><text font-family="Calibri,Calibri_MSFontService,sans-serif" font-weight="400" font-size="24" transform="matrix(0.981707 -0.190396 0.190396 0.981707 447.051 268)">Tall i 2</text><text font-family="Calibri,Calibri_MSFontService,sans-serif" font-weight="400" font-size="24" transform="matrix(0.981707 -0.190396 0.190396 0.981707 506.896 257)">-</text><text font-family="Calibri,Calibri_MSFontService,sans-serif" font-weight="400" font-size="24" transform="matrix(0.981707 -0.190396 0.190396 0.981707 514.095 255)">gangen</text><text font-family="Calibri,Calibri_MSFontService,sans-serif" font-weight="400" font-size="24" transform="matrix(0.892672 0.450706 -0.450706 0.892672 793.244 266)">Tall i 3</text><text font-family="Calibri,Calibri_MSFontService,sans-serif" font-weight="400" font-size="24" transform="matrix(0.892672 0.450706 -0.450706 0.892672 847.661 294)">-</text><text font-family="Calibri,Calibri_MSFontService,sans-serif" font-weight="400" font-size="24" transform="matrix(0.892672 0.450706 -0.450706 0.892672 854.207 297)">gangen</text><text font-family="Calibri,Calibri_MSFontService,sans-serif" font-weight="400" font-size="24" transform="translate(547.729 165)">Tallene fra 1 til 12</text><path d="M642.887 354.059 714.611 350.921 716.939 404.133 645.215 407.271Z" fill="#FFFFFF" fill-rule="evenodd"/><text font-family="Calibri,Calibri_MSFontService,sans-serif" font-weight="400" font-size="37" transform="matrix(0.999044 -0.0437089 0.0437089 0.999044 661.482 393)">12</text></g></svg>