<svg width="1280" height="720" xmlns="http://www.w3.org/2000/svg" xmlns:xlink="http://www.w3.org/1999/xlink" overflow="hidden"><g><rect x="0" y="0" width="1280" height="720" fill="#FFFFFF"/><path d="M347 156.5C345.131 139.267 356.983 127.243 376.5 129 391.334 126.028 403.827 140.906 406 156.5 406.282 172.042 391.416 182.357 376.5 184 362.78 185.7 347.15 171.081 347 156.5Z" fill="#B4E5A2" fill-rule="evenodd"/><path d="M347 156.5C345.375 143.755 361.156 128.597 376.5 129 393.971 129.848 406.844 142.962 406 156.5 405.862 173.307 392.574 183.29 376.5 184 360.1 185.579 350.548 172.151 347 156.5Z" stroke="#000000" stroke-width="2" stroke-miterlimit="8" fill="none" fill-rule="evenodd"/><path d="M429 156.5C426.946 139.08 438.426 127.438 456.5 129 470.22 126.028 481.813 140.906 484 156.5 485.935 174.1 471.021 183.209 456.5 184 443.901 185.7 429.151 171.081 429 156.5Z" fill="#B4E5A2" fill-rule="evenodd"/><path d="M429 156.5C428.739 141.702 442.878 128.338 456.5 129 472.874 129.848 484.85 142.962 484 156.5 483.796 174.06 470.581 180.428 456.5 184 441.204 185.579 432.571 172.151 429 156.5Z" stroke="#000000" stroke-width="2" stroke-miterlimit="8" fill="none" fill-rule="evenodd"/><path d="M517 158.5C515.131 141.267 526.983 129.243 546.5 131 561.334 128.028 573.827 142.906 576 158.5 576.282 174.042 561.416 184.357 546.5 186 532.78 187.7 517.15 173.081 517 158.5Z" fill="#B4E5A2" fill-rule="evenodd"/><path d="M517 158.5C515.375 145.755 531.156 130.597 546.5 131 563.971 131.848 576.844 144.962 576 158.5 575.862 175.307 562.574 185.29 546.5 186 530.1 187.579 520.548 174.151 517 158.5Z" stroke="#000000" stroke-width="2" stroke-miterlimit="8" fill="none" fill-rule="evenodd"/><path d="M612 158.5C610.56 141.757 621.143 129.416 639 131 652.434 128.028 663.798 142.906 666 158.5 668.076 176.258 653.513 185.53 639 186 626.695 187.7 612.152 173.081 612 158.5Z" fill="#71AAE0" fill-rule="evenodd"/><path d="M612 158.5C611.75 143.683 624.805 130.699 639 131 655.105 131.848 666.856 144.962 666 158.5 665.773 176.309 652.919 182.818 639 186 623.979 187.579 615.595 174.151 612 158.5Z" stroke="#000000" stroke-width="2" stroke-miterlimit="8" fill="none" fill-rule="evenodd"/><path d="M689 156.5C688.397 140.66 699.163 127.964 716 129 729.435 126.028 740.8 140.906 743 156.5 744.744 173.849 728.834 181.551 716 184 703.693 185.7 689.152 171.081 689 156.5Z" fill="#71AAE0" fill-rule="evenodd"/><path d="M689 156.5C688.715 141.735 701.896 128.661 716 129 732.105 129.848 743.855 142.962 743 156.5 742.898 172.867 730.784 183.59 716 184 700.979 185.579 692.592 172.151 689 156.5Z" stroke="#000000" stroke-width="2" stroke-miterlimit="8" fill="none" fill-rule="evenodd"/><path d="M347 274.5C345.131 257.267 356.983 245.243 376.5 247 391.334 244.028 403.827 258.906 406 274.5 406.282 290.042 391.416 300.357 376.5 302 362.78 303.7 347.15 289.081 347 274.5Z" fill="#D9F2D0" fill-rule="evenodd"/><path d="M347 274.5C345.375 261.755 361.156 246.597 376.5 247 393.971 247.848 406.844 260.962 406 274.5 405.862 291.307 392.574 301.29 376.5 302 360.1 303.579 350.548 290.151 347 274.5Z" stroke="#595959" stroke-width="2" stroke-miterlimit="8" stroke-dasharray="8 6" fill="none" fill-rule="evenodd"/><path d="M429 274.5C426.946 257.08 438.426 245.438 456.5 247 470.22 244.028 481.813 258.906 484 274.5 485.935 292.1 471.021 301.209 456.5 302 443.901 303.7 429.151 289.081 429 274.5Z" fill="#D9F2D0" fill-rule="evenodd"/><path d="M429 274.5C428.739 259.702 442.878 246.338 456.5 247 472.874 247.848 484.85 260.962 484 274.5 483.796 292.06 470.581 298.427 456.5 302 441.204 303.579 432.571 290.151 429 274.5Z" stroke="#595959" stroke-width="2" stroke-miterlimit="8" stroke-dasharray="8 6" fill="none" fill-rule="evenodd"/><path d="M517 276.5C515.131 259.267 526.983 247.243 546.5 249 561.334 246.028 573.827 260.906 576 276.5 576.282 292.042 561.416 302.357 546.5 304 532.78 305.7 517.15 291.081 517 276.5Z" fill="#D9F2D0" fill-rule="evenodd"/><path d="M517 276.5C515.375 263.755 531.156 248.597 546.5 249 563.971 249.848 576.844 262.962 576 276.5 575.862 293.307 562.574 303.29 546.5 304 530.1 305.579 520.548 292.151 517 276.5Z" stroke="#595959" stroke-width="2" stroke-miterlimit="8" stroke-dasharray="8 6" fill="none" fill-rule="evenodd"/><path d="M615 278.5C613.56 261.757 624.143 249.416 642 251 655.434 248.028 666.798 262.906 669 278.5 671.076 296.258 656.513 305.53 642 306 629.695 307.7 615.152 293.081 615 278.5Z" fill="#B8D4F0" fill-rule="evenodd"/><path d="M615 278.5C614.75 263.683 627.805 250.699 642 251 658.105 251.848 669.856 264.962 669 278.5 668.773 296.309 655.919 302.818 642 306 626.979 307.579 618.595 294.151 615 278.5Z" stroke="#595959" stroke-width="2" stroke-miterlimit="8" stroke-dasharray="8 6" fill="none" fill-rule="evenodd"/><path d="M691 275.5C690.397 259.66 701.163 246.964 718 248 731.435 245.028 742.8 259.906 745 275.5 746.744 292.849 730.834 300.551 718 303 705.693 304.7 691.152 290.081 691 275.5Z" fill="#B8D4F0" fill-rule="evenodd"/><path d="M691 275.5C690.715 260.735 703.896 247.661 718 248 734.105 248.848 745.855 261.962 745 275.5 744.898 291.867 732.784 302.59 718 303 702.979 304.579 694.592 291.151 691 275.5Z" stroke="#595959" stroke-width="2" stroke-miterlimit="8" stroke-dasharray="8 6" fill="none" fill-rule="evenodd"/><text fill="#275317" font-family="Aptos,Aptos_MSFontService,sans-serif" font-weight="400" font-size="21" transform="translate(370.752 280)">1</text><text fill="#275317" font-family="Aptos,Aptos_MSFontService,sans-serif" font-weight="400" font-size="21" transform="translate(451.981 283)">2</text><text fill="#275317" font-family="Aptos,Aptos_MSFontService,sans-serif" font-weight="400" font-size="21" transform="translate(539.712 283)">3</text><text fill="#071420" font-family="Aptos,Aptos_MSFontService,sans-serif" font-weight="400" font-size="21" transform="translate(637.733 285)">1</text><text fill="#071420" font-family="Aptos,Aptos_MSFontService,sans-serif" font-weight="400" font-size="21" transform="translate(712.639 285)">2</text><path d="M347 346.5C345.131 329.267 356.983 317.243 376.5 319 391.334 316.028 403.827 330.906 406 346.5 406.282 362.042 391.416 372.357 376.5 374 362.78 375.7 347.15 361.081 347 346.5Z" fill="#D9F2D0" fill-rule="evenodd"/><path d="M347 346.5C345.375 333.755 361.156 318.597 376.5 319 393.971 319.848 406.844 332.962 406 346.5 405.862 363.307 392.574 373.29 376.5 374 360.1 375.579 350.548 362.151 347 346.5Z" stroke="#595959" stroke-width="2" stroke-miterlimit="8" stroke-dasharray="8 6" fill="none" fill-rule="evenodd"/><path d="M429 346.5C426.946 329.08 438.426 317.438 456.5 319 470.22 316.028 481.813 330.906 484 346.5 485.935 364.1 471.021 373.209 456.5 374 443.901 375.7 429.151 361.081 429 346.5Z" fill="#D9F2D0" fill-rule="evenodd"/><path d="M429 346.5C428.739 331.702 442.878 318.338 456.5 319 472.874 319.848 484.85 332.962 484 346.5 483.796 364.06 470.581 370.427 456.5 374 441.204 375.579 432.571 362.151 429 346.5Z" stroke="#595959" stroke-width="2" stroke-miterlimit="8" stroke-dasharray="8 6" fill="none" fill-rule="evenodd"/><path d="M517 348.5C515.131 331.267 526.983 319.243 546.5 321 561.334 318.028 573.827 332.906 576 348.5 576.282 364.042 561.416 374.357 546.5 376 532.78 377.7 517.15 363.081 517 348.5Z" fill="#D9F2D0" fill-rule="evenodd"/><path d="M517 348.5C515.375 335.755 531.156 320.597 546.5 321 563.971 321.848 576.844 334.962 576 348.5 575.862 365.307 562.574 375.29 546.5 376 530.1 377.579 520.548 364.151 517 348.5Z" stroke="#595959" stroke-width="2" stroke-miterlimit="8" stroke-dasharray="8 6" fill="none" fill-rule="evenodd"/><path d="M860 278.5C858.56 261.757 869.143 249.416 887 251 900.434 248.028 911.798 262.906 914 278.5 916.076 296.258 901.513 305.53 887 306 874.695 307.7 860.152 293.081 860 278.5Z" fill="#B8D4F0" fill-rule="evenodd"/><path d="M860 278.5C859.75 263.683 872.805 250.699 887 251 903.105 251.848 914.856 264.962 914 278.5 913.773 296.309 900.919 302.818 887 306 871.979 307.579 863.595 294.151 860 278.5Z" stroke="#595959" stroke-width="2" stroke-miterlimit="8" stroke-dasharray="8 6" fill="none" fill-rule="evenodd"/><path d="M937 275.5C936.397 259.66 947.163 246.964 964 248 977.435 245.028 988.8 259.906 991 275.5 992.744 292.849 976.834 300.551 964 303 951.693 304.7 937.152 290.081 937 275.5Z" fill="#B8D4F0" fill-rule="evenodd"/><path d="M937 275.5C936.715 260.735 949.896 247.661 964 248 980.105 248.848 991.855 261.962 991 275.5 990.898 291.867 978.784 302.59 964 303 948.979 304.579 940.592 291.151 937 275.5Z" stroke="#595959" stroke-width="2" stroke-miterlimit="8" stroke-dasharray="8 6" fill="none" fill-rule="evenodd"/><text fill="#275317" font-family="Aptos,Aptos_MSFontService,sans-serif" font-weight="400" font-size="21" transform="translate(370.752 352)">1</text><text fill="#275317" font-family="Aptos,Aptos_MSFontService,sans-serif" font-weight="400" font-size="21" transform="translate(451.981 356)">3</text><text fill="#275317" font-family="Aptos,Aptos_MSFontService,sans-serif" font-weight="400" font-size="21" transform="translate(539.712 356)">2</text><text fill="#071420" font-family="Aptos,Aptos_MSFontService,sans-serif" font-weight="400" font-size="21" transform="translate(883.203 285)">2</text><text fill="#071420" font-family="Aptos,Aptos_MSFontService,sans-serif" font-weight="400" font-size="21" transform="translate(958.109 285)">1</text><path d="M349 415.5C347.099 398.267 359.152 386.243 379 388 394.086 385.028 406.79 399.906 409 415.5 409.287 431.042 394.169 441.357 379 443 365.048 444.7 349.152 430.081 349 415.5Z" fill="#D9F2D0" fill-rule="evenodd"/><path d="M349 415.5C347.347 402.755 363.396 387.597 379 388 396.767 388.848 409.859 401.962 409 415.5 408.859 432.307 395.346 442.29 379 443 362.322 444.579 352.608 431.151 349 415.5Z" stroke="#595959" stroke-width="2" stroke-miterlimit="8" stroke-dasharray="8 6" fill="none" fill-rule="evenodd"/><path d="M431 415.5C428.909 398.08 440.598 386.438 459 388 472.97 385.028 484.773 399.906 487 415.5 488.97 433.1 473.785 442.209 459 443 446.172 444.7 431.154 430.081 431 415.5Z" fill="#D9F2D0" fill-rule="evenodd"/><path d="M431 415.5C430.734 400.702 445.131 387.338 459 388 475.671 388.848 487.865 401.962 487 415.5 486.793 433.06 473.337 439.427 459 443 443.425 444.579 434.636 431.151 431 415.5Z" stroke="#595959" stroke-width="2" stroke-miterlimit="8" stroke-dasharray="8 6" fill="none" fill-rule="evenodd"/><path d="M519 417.5C517.099 400.267 529.152 388.243 549 390 564.086 387.028 576.79 401.906 579 417.5 579.287 433.042 564.169 443.357 549 445 535.047 446.7 519.152 432.081 519 417.5Z" fill="#D9F2D0" fill-rule="evenodd"/><path d="M519 417.5C517.347 404.755 533.396 389.597 549 390 566.767 390.848 579.859 403.962 579 417.5 578.859 434.307 565.346 444.29 549 445 532.322 446.579 522.608 433.151 519 417.5Z" stroke="#595959" stroke-width="2" stroke-miterlimit="8" stroke-dasharray="8 6" fill="none" fill-rule="evenodd"/><text fill="#275317" font-family="Aptos,Aptos_MSFontService,sans-serif" font-weight="400" font-size="21" transform="translate(373.112 421)">2</text><text fill="#275317" font-family="Aptos,Aptos_MSFontService,sans-serif" font-weight="400" font-size="21" transform="translate(454.341 425)">1</text><text fill="#275317" font-family="Aptos,Aptos_MSFontService,sans-serif" font-weight="400" font-size="21" transform="translate(542.071 425)">3</text><path d="M349 487.5C347.099 470.267 359.152 458.243 379 460 394.086 457.028 406.79 471.906 409 487.5 409.287 503.042 394.169 513.357 379 515 365.048 516.7 349.152 502.081 349 487.5Z" fill="#D9F2D0" fill-rule="evenodd"/><path d="M349 487.5C347.347 474.755 363.396 459.597 379 460 396.767 460.848 409.859 473.962 409 487.5 408.859 504.307 395.346 514.29 379 515 362.322 516.579 352.608 503.151 349 487.5Z" stroke="#595959" stroke-width="2" stroke-miterlimit="8" stroke-dasharray="8 6" fill="none" fill-rule="evenodd"/><path d="M431 487.5C428.909 470.08 440.598 458.438 459 460 472.97 457.028 484.773 471.906 487 487.5 488.97 505.1 473.785 514.209 459 515 446.172 516.7 431.154 502.081 431 487.5Z" fill="#D9F2D0" fill-rule="evenodd"/><path d="M431 487.5C430.734 472.702 445.131 459.338 459 460 475.671 460.848 487.865 473.962 487 487.5 486.793 505.06 473.337 511.427 459 515 443.425 516.579 434.636 503.151 431 487.5Z" stroke="#595959" stroke-width="2" stroke-miterlimit="8" stroke-dasharray="8 6" fill="none" fill-rule="evenodd"/><path d="M519 490.5C517.099 473.267 529.152 461.243 549 463 564.086 460.028 576.79 474.906 579 490.5 579.287 506.042 564.169 516.357 549 518 535.047 519.7 519.152 505.081 519 490.5Z" fill="#D9F2D0" fill-rule="evenodd"/><path d="M519 490.5C517.347 477.755 533.396 462.597 549 463 566.767 463.848 579.859 476.962 579 490.5 578.859 507.307 565.346 517.29 549 518 532.322 519.579 522.608 506.151 519 490.5Z" stroke="#595959" stroke-width="2" stroke-miterlimit="8" stroke-dasharray="8 6" fill="none" fill-rule="evenodd"/><text fill="#275317" font-family="Aptos,Aptos_MSFontService,sans-serif" font-weight="400" font-size="21" transform="translate(373.112 493)">2</text><text fill="#275317" font-family="Aptos,Aptos_MSFontService,sans-serif" font-weight="400" font-size="21" transform="translate(454.341 497)">3</text><text fill="#275317" font-family="Aptos,Aptos_MSFontService,sans-serif" font-weight="400" font-size="21" transform="translate(542.071 497)">1</text><path d="M351 556.5C349.099 539.267 361.152 527.243 381 529 396.086 526.028 408.79 540.906 411 556.5 411.287 572.042 396.169 582.357 381 584 367.048 585.7 351.152 571.081 351 556.5Z" fill="#D9F2D0" fill-rule="evenodd"/><path d="M351 556.5C349.347 543.755 365.396 528.597 381 529 398.767 529.848 411.859 542.962 411 556.5 410.859 573.307 397.346 583.29 381 584 364.322 585.579 354.608 572.151 351 556.5Z" stroke="#595959" stroke-width="2" stroke-miterlimit="8" stroke-dasharray="8 6" fill="none" fill-rule="evenodd"/><path d="M434 556.5C431.946 539.08 443.426 527.438 461.5 529 475.22 526.028 486.813 540.906 489 556.5 490.935 574.1 476.021 583.209 461.5 584 448.901 585.7 434.151 571.081 434 556.5Z" fill="#D9F2D0" fill-rule="evenodd"/><path d="M434 556.5C433.739 541.702 447.878 528.338 461.5 529 477.874 529.848 489.85 542.962 489 556.5 488.796 574.06 475.581 580.427 461.5 584 446.204 585.579 437.571 572.151 434 556.5Z" stroke="#595959" stroke-width="2" stroke-miterlimit="8" stroke-dasharray="8 6" fill="none" fill-rule="evenodd"/><path d="M521 559.5C519.099 542.267 531.152 530.243 551 532 566.086 529.028 578.79 543.906 581 559.5 581.287 575.042 566.169 585.357 551 587 537.047 588.7 521.152 574.081 521 559.5Z" fill="#D9F2D0" fill-rule="evenodd"/><path d="M521 559.5C519.347 546.755 535.396 531.597 551 532 568.767 532.848 581.859 545.962 581 559.5 580.859 576.307 567.346 586.29 551 587 534.322 588.579 524.608 575.151 521 559.5Z" stroke="#595959" stroke-width="2" stroke-miterlimit="8" stroke-dasharray="8 6" fill="none" fill-rule="evenodd"/><text fill="#275317" font-family="Aptos,Aptos_MSFontService,sans-serif" font-weight="400" font-size="21" transform="translate(375.331 562)">3</text><text fill="#275317" font-family="Aptos,Aptos_MSFontService,sans-serif" font-weight="400" font-size="21" transform="translate(456.56 566)">1</text><text fill="#275317" font-family="Aptos,Aptos_MSFontService,sans-serif" font-weight="400" font-size="21" transform="translate(544.29 566)">2</text><path d="M351 629.5C349.099 612.267 361.152 600.243 381 602 396.086 599.028 408.79 613.906 411 629.5 411.287 645.042 396.169 655.357 381 657 367.048 658.7 351.152 644.081 351 629.5Z" fill="#D9F2D0" fill-rule="evenodd"/><path d="M351 629.5C349.347 616.755 365.396 601.597 381 602 398.767 602.848 411.859 615.962 411 629.5 410.859 646.307 397.346 656.29 381 657 364.322 658.579 354.608 645.151 351 629.5Z" stroke="#595959" stroke-width="2" stroke-miterlimit="8" stroke-dasharray="8 6" fill="none" fill-rule="evenodd"/><path d="M434 629.5C431.946 612.08 443.426 600.438 461.5 602 475.22 599.028 486.813 613.906 489 629.5 490.935 647.1 476.021 656.209 461.5 657 448.901 658.7 434.151 644.081 434 629.5Z" fill="#D9F2D0" fill-rule="evenodd"/><path d="M434 629.5C433.739 614.702 447.878 601.338 461.5 602 477.874 602.848 489.85 615.962 489 629.5 488.796 647.06 475.581 653.427 461.5 657 446.204 658.579 437.571 645.151 434 629.5Z" stroke="#595959" stroke-width="2" stroke-miterlimit="8" stroke-dasharray="8 6" fill="none" fill-rule="evenodd"/><path d="M521 631.5C519.099 614.267 531.152 602.243 551 604 566.086 601.028 578.79 615.906 581 631.5 581.287 647.042 566.169 657.357 551 659 537.047 660.7 521.152 646.081 521 631.5Z" fill="#D9F2D0" fill-rule="evenodd"/><path d="M521 631.5C519.347 618.755 535.396 603.597 551 604 568.767 604.848 581.859 617.962 581 631.5 580.859 648.307 567.346 658.29 551 659 534.322 660.579 524.608 647.151 521 631.5Z" stroke="#595959" stroke-width="2" stroke-miterlimit="8" stroke-dasharray="8 6" fill="none" fill-rule="evenodd"/><text fill="#275317" font-family="Aptos,Aptos_MSFontService,sans-serif" font-weight="400" font-size="21" transform="translate(375.331 635)">3</text><text fill="#275317" font-family="Aptos,Aptos_MSFontService,sans-serif" font-weight="400" font-size="21" transform="translate(456.56 639)">2</text><text fill="#275317" font-family="Aptos,Aptos_MSFontService,sans-serif" font-weight="400" font-size="21" transform="translate(544.29 639)">1</text><path d="M615 348.5C613.56 331.757 624.143 319.416 642 321 655.434 318.028 666.798 332.906 669 348.5 671.076 366.258 656.513 375.53 642 376 629.695 377.7 615.152 363.081 615 348.5Z" fill="#B8D4F0" fill-rule="evenodd"/><path d="M615 348.5C614.75 333.683 627.805 320.699 642 321 658.105 321.848 669.856 334.962 669 348.5 668.773 366.309 655.919 372.818 642 376 626.979 377.579 618.595 364.151 615 348.5Z" stroke="#595959" stroke-width="2" stroke-miterlimit="8" stroke-dasharray="8 6" fill="none" fill-rule="evenodd"/><path d="M691 346.5C690.397 330.66 701.163 317.964 718 319 731.435 316.028 742.8 330.906 745 346.5 746.744 363.849 730.834 371.551 718 374 705.693 375.7 691.152 361.081 691 346.5Z" fill="#B8D4F0" fill-rule="evenodd"/><path d="M691 346.5C690.715 331.735 703.896 318.661 718 319 734.105 319.848 745.855 332.962 745 346.5 744.898 362.867 732.784 373.59 718 374 702.979 375.579 694.592 362.151 691 346.5Z" stroke="#595959" stroke-width="2" stroke-miterlimit="8" stroke-dasharray="8 6" fill="none" fill-rule="evenodd"/><text fill="#071420" font-family="Aptos,Aptos_MSFontService,sans-serif" font-weight="400" font-size="21" transform="translate(637.733 356)">1</text><text fill="#071420" font-family="Aptos,Aptos_MSFontService,sans-serif" font-weight="400" font-size="21" transform="translate(712.639 356)">2</text><path d="M615 417.5C613.56 400.757 624.143 388.416 642 390 655.434 387.028 666.798 401.906 669 417.5 671.076 435.258 656.513 444.53 642 445 629.695 446.7 615.152 432.081 615 417.5Z" fill="#B8D4F0" fill-rule="evenodd"/><path d="M615 417.5C614.75 402.683 627.805 389.699 642 390 658.105 390.848 669.856 403.962 669 417.5 668.773 435.309 655.919 441.818 642 445 626.979 446.579 618.595 433.151 615 417.5Z" stroke="#595959" stroke-width="2" stroke-miterlimit="8" stroke-dasharray="8 6" fill="none" fill-rule="evenodd"/><path d="M691 414.5C690.397 398.66 701.163 385.964 718 387 731.435 384.028 742.8 398.906 745 414.5 746.744 431.849 730.834 439.551 718 442 705.693 443.7 691.152 429.081 691 414.5Z" fill="#B8D4F0" fill-rule="evenodd"/><path d="M691 414.5C690.715 399.735 703.896 386.661 718 387 734.105 387.848 745.855 400.962 745 414.5 744.898 430.867 732.784 441.59 718 442 702.979 443.579 694.592 430.151 691 414.5Z" stroke="#595959" stroke-width="2" stroke-miterlimit="8" stroke-dasharray="8 6" fill="none" fill-rule="evenodd"/><text fill="#071420" font-family="Aptos,Aptos_MSFontService,sans-serif" font-weight="400" font-size="21" transform="translate(637.733 424)">1</text><text fill="#071420" font-family="Aptos,Aptos_MSFontService,sans-serif" font-weight="400" font-size="21" transform="translate(712.639 424)">2</text><path d="M616 492.5C614.56 475.757 625.143 463.416 643 465 656.434 462.028 667.798 476.906 670 492.5 672.076 510.258 657.513 519.53 643 520 630.695 521.7 616.152 507.081 616 492.5Z" fill="#B8D4F0" fill-rule="evenodd"/><path d="M616 492.5C615.75 477.683 628.805 464.699 643 465 659.105 465.848 670.856 478.962 670 492.5 669.773 510.309 656.919 516.818 643 520 627.979 521.579 619.595 508.151 616 492.5Z" stroke="#595959" stroke-width="2" stroke-miterlimit="8" stroke-dasharray="8 6" fill="none" fill-rule="evenodd"/><path d="M693 490.5C692.397 474.66 703.163 461.964 720 463 733.435 460.028 744.8 474.906 747 490.5 748.744 507.849 732.834 515.551 720 518 707.693 519.7 693.152 505.081 693 490.5Z" fill="#B8D4F0" fill-rule="evenodd"/><path d="M693 490.5C692.715 475.735 705.896 462.661 720 463 736.105 463.848 747.855 476.962 747 490.5 746.898 506.867 734.784 517.59 720 518 704.979 519.579 696.592 506.151 693 490.5Z" stroke="#595959" stroke-width="2" stroke-miterlimit="8" stroke-dasharray="8 6" fill="none" fill-rule="evenodd"/><text fill="#071420" font-family="Aptos,Aptos_MSFontService,sans-serif" font-weight="400" font-size="21" transform="translate(639.438 500)">1</text><text fill="#071420" font-family="Aptos,Aptos_MSFontService,sans-serif" font-weight="400" font-size="21" transform="translate(714.344 500)">2</text><path d="M616 563.5C614.56 546.757 625.143 534.416 643 536 656.434 533.028 667.798 547.906 670 563.5 672.076 581.258 657.513 590.53 643 591 630.695 592.7 616.152 578.081 616 563.5Z" fill="#B8D4F0" fill-rule="evenodd"/><path d="M616 563.5C615.75 548.683 628.805 535.699 643 536 659.105 536.848 670.856 549.962 670 563.5 669.773 581.309 656.919 587.818 643 591 627.979 592.579 619.595 579.151 616 563.5Z" stroke="#595959" stroke-width="2" stroke-miterlimit="8" stroke-dasharray="8 6" fill="none" fill-rule="evenodd"/><path d="M693 561.5C692.397 545.66 703.163 532.964 720 534 733.435 531.028 744.8 545.906 747 561.5 748.744 578.849 732.834 586.551 720 589 707.693 590.7 693.152 576.081 693 561.5Z" fill="#B8D4F0" fill-rule="evenodd"/><path d="M693 561.5C692.715 546.735 705.896 533.661 720 534 736.105 534.848 747.855 547.962 747 561.5 746.898 577.867 734.784 588.59 720 589 704.979 590.579 696.592 577.151 693 561.5Z" stroke="#595959" stroke-width="2" stroke-miterlimit="8" stroke-dasharray="8 6" fill="none" fill-rule="evenodd"/><text fill="#071420" font-family="Aptos,Aptos_MSFontService,sans-serif" font-weight="400" font-size="21" transform="translate(639.438 570)">1</text><text fill="#071420" font-family="Aptos,Aptos_MSFontService,sans-serif" font-weight="400" font-size="21" transform="translate(714.344 570)">2</text><path d="M616 631.5C614.56 614.757 625.143 602.416 643 604 656.434 601.028 667.798 615.906 670 631.5 672.076 649.258 657.513 658.53 643 659 630.695 660.7 616.152 646.081 616 631.5Z" fill="#B8D4F0" fill-rule="evenodd"/><path d="M616 631.5C615.75 616.683 628.805 603.699 643 604 659.105 604.848 670.856 617.962 670 631.5 669.773 649.309 656.919 655.818 643 659 627.979 660.579 619.595 647.151 616 631.5Z" stroke="#595959" stroke-width="2" stroke-miterlimit="8" stroke-dasharray="8 6" fill="none" fill-rule="evenodd"/><path d="M693 629.5C692.397 613.66 703.163 600.964 720 602 733.435 599.028 744.8 613.906 747 629.5 748.744 646.849 732.834 654.551 720 657 707.693 658.7 693.152 644.081 693 629.5Z" fill="#B8D4F0" fill-rule="evenodd"/><path d="M693 629.5C692.715 614.735 705.896 601.661 720 602 736.105 602.848 747.855 615.962 747 629.5 746.898 645.867 734.784 656.59 720 657 704.979 658.579 696.592 645.151 693 629.5Z" stroke="#595959" stroke-width="2" stroke-miterlimit="8" stroke-dasharray="8 6" fill="none" fill-rule="evenodd"/><text fill="#071420" font-family="Aptos,Aptos_MSFontService,sans-serif" font-weight="400" font-size="21" transform="translate(639.438 639)">1</text><text fill="#071420" font-family="Aptos,Aptos_MSFontService,sans-serif" font-weight="400" font-size="21" transform="translate(714.344 639)">2</text><text font-family="Aptos,Aptos_MSFontService,sans-serif" font-weight="400" font-size="24" transform="translate(789.817 288)">og</text><path d="M861 348.5C859.56 331.757 870.143 319.416 888 321 901.434 318.028 912.798 332.906 915 348.5 917.076 366.258 902.513 375.53 888 376 875.695 377.7 861.152 363.081 861 348.5Z" fill="#B8D4F0" fill-rule="evenodd"/><path d="M861 348.5C860.75 333.683 873.805 320.699 888 321 904.105 321.848 915.856 334.962 915 348.5 914.773 366.309 901.919 372.818 888 376 872.979 377.579 864.595 364.151 861 348.5Z" stroke="#595959" stroke-width="2" stroke-miterlimit="8" stroke-dasharray="8 6" fill="none" fill-rule="evenodd"/><path d="M938 346.5C937.397 330.66 948.163 317.964 965 319 978.435 316.028 989.8 330.906 992 346.5 993.744 363.849 977.834 371.551 965 374 952.693 375.7 938.152 361.081 938 346.5Z" fill="#B8D4F0" fill-rule="evenodd"/><path d="M938 346.5C937.715 331.735 950.896 318.661 965 319 981.105 319.848 992.855 332.962 992 346.5 991.898 362.867 979.784 373.59 965 374 949.979 375.579 941.592 362.151 938 346.5Z" stroke="#595959" stroke-width="2" stroke-miterlimit="8" stroke-dasharray="8 6" fill="none" fill-rule="evenodd"/><text fill="#071420" font-family="Aptos,Aptos_MSFontService,sans-serif" font-weight="400" font-size="21" transform="translate(884.408 356)">2</text><text fill="#071420" font-family="Aptos,Aptos_MSFontService,sans-serif" font-weight="400" font-size="21" transform="translate(959.314 356)">1</text><path d="M861 414.5C859.56 397.757 870.143 385.416 888 387 901.434 384.028 912.798 398.906 915 414.5 917.076 432.258 902.513 441.53 888 442 875.695 443.7 861.152 429.081 861 414.5Z" fill="#B8D4F0" fill-rule="evenodd"/><path d="M861 414.5C860.75 399.683 873.805 386.699 888 387 904.105 387.848 915.856 400.962 915 414.5 914.773 432.309 901.919 438.818 888 442 872.979 443.579 864.595 430.151 861 414.5Z" stroke="#595959" stroke-width="2" stroke-miterlimit="8" stroke-dasharray="8 6" fill="none" fill-rule="evenodd"/><path d="M938 412.5C937.397 396.66 948.163 383.964 965 385 978.435 382.028 989.8 396.906 992 412.5 993.744 429.849 977.834 437.551 965 440 952.693 441.7 938.152 427.081 938 412.5Z" fill="#B8D4F0" fill-rule="evenodd"/><path d="M938 412.5C937.715 397.735 950.896 384.661 965 385 981.105 385.848 992.855 398.962 992 412.5 991.898 428.867 979.784 439.59 965 440 949.979 441.579 941.592 428.151 938 412.5Z" stroke="#595959" stroke-width="2" stroke-miterlimit="8" stroke-dasharray="8 6" fill="none" fill-rule="evenodd"/><text fill="#071420" font-family="Aptos,Aptos_MSFontService,sans-serif" font-weight="400" font-size="21" transform="translate(884.408 422)">2</text><text fill="#071420" font-family="Aptos,Aptos_MSFontService,sans-serif" font-weight="400" font-size="21" transform="translate(959.314 422)">1</text><path d="M865 490.5C863.56 473.757 874.143 461.416 892 463 905.434 460.028 916.798 474.906 919 490.5 921.076 508.258 906.513 517.53 892 518 879.695 519.7 865.152 505.081 865 490.5Z" fill="#B8D4F0" fill-rule="evenodd"/><path d="M865 490.5C864.75 475.683 877.805 462.699 892 463 908.105 463.848 919.856 476.962 919 490.5 918.773 508.309 905.919 514.818 892 518 876.979 519.579 868.595 506.151 865 490.5Z" stroke="#595959" stroke-width="2" stroke-miterlimit="8" stroke-dasharray="8 6" fill="none" fill-rule="evenodd"/><path d="M941 488.5C940.397 472.66 951.163 459.964 968 461 981.435 458.028 992.8 472.906 995 488.5 996.744 505.849 980.834 513.551 968 516 955.693 517.7 941.152 503.081 941 488.5Z" fill="#B8D4F0" fill-rule="evenodd"/><path d="M941 488.5C940.715 473.735 953.896 460.661 968 461 984.105 461.848 995.855 474.962 995 488.5 994.898 504.867 982.784 515.59 968 516 952.979 517.579 944.592 504.151 941 488.5Z" stroke="#595959" stroke-width="2" stroke-miterlimit="8" stroke-dasharray="8 6" fill="none" fill-rule="evenodd"/><text fill="#071420" font-family="Aptos,Aptos_MSFontService,sans-serif" font-weight="400" font-size="21" transform="translate(887.552 497)">2</text><text fill="#071420" font-family="Aptos,Aptos_MSFontService,sans-serif" font-weight="400" font-size="21" transform="translate(962.458 497)">1</text><path d="M866 560.5C864.56 543.757 875.143 531.416 893 533 906.434 530.028 917.798 544.906 920 560.5 922.076 578.258 907.513 587.53 893 588 880.695 589.7 866.152 575.081 866 560.5Z" fill="#B8D4F0" fill-rule="evenodd"/><path d="M866 560.5C865.75 545.683 878.805 532.699 893 533 909.105 533.848 920.856 546.962 920 560.5 919.773 578.309 906.919 584.818 893 588 877.979 589.579 869.595 576.151 866 560.5Z" stroke="#595959" stroke-width="2" stroke-miterlimit="8" stroke-dasharray="8 6" fill="none" fill-rule="evenodd"/><path d="M942 558.5C941.397 542.66 952.163 529.964 969 531 982.435 528.028 993.8 542.906 996 558.5 997.744 575.849 981.834 583.551 969 586 956.693 587.7 942.152 573.081 942 558.5Z" fill="#B8D4F0" fill-rule="evenodd"/><path d="M942 558.5C941.715 543.735 954.896 530.661 969 531 985.105 531.848 996.855 544.962 996 558.5 995.898 574.867 983.784 585.59 969 586 953.979 587.579 945.592 574.151 942 558.5Z" stroke="#595959" stroke-width="2" stroke-miterlimit="8" stroke-dasharray="8 6" fill="none" fill-rule="evenodd"/><text fill="#071420" font-family="Aptos,Aptos_MSFontService,sans-serif" font-weight="400" font-size="21" transform="translate(888.757 568)">2</text><text fill="#071420" font-family="Aptos,Aptos_MSFontService,sans-serif" font-weight="400" font-size="21" transform="translate(963.663 568)">1</text><path d="M866 627.5C864.56 610.757 875.143 598.416 893 600 906.434 597.028 917.798 611.906 920 627.5 922.076 645.258 907.513 654.53 893 655 880.695 656.7 866.152 642.081 866 627.5Z" fill="#B8D4F0" fill-rule="evenodd"/><path d="M866 627.5C865.75 612.683 878.805 599.699 893 600 909.105 600.848 920.856 613.962 920 627.5 919.773 645.309 906.919 651.818 893 655 877.979 656.579 869.595 643.151 866 627.5Z" stroke="#595959" stroke-width="2" stroke-miterlimit="8" stroke-dasharray="8 6" fill="none" fill-rule="evenodd"/><path d="M942 624.5C941.397 608.66 952.163 595.964 969 597 982.435 594.028 993.8 608.906 996 624.5 997.744 641.849 981.834 649.551 969 652 956.693 653.7 942.152 639.081 942 624.5Z" fill="#B8D4F0" fill-rule="evenodd"/><path d="M942 624.5C941.715 609.735 954.896 596.661 969 597 985.105 597.848 996.855 610.962 996 624.5 995.898 640.867 983.784 651.59 969 652 953.979 653.579 945.592 640.151 942 624.5Z" stroke="#595959" stroke-width="2" stroke-miterlimit="8" stroke-dasharray="8 6" fill="none" fill-rule="evenodd"/><text fill="#071420" font-family="Aptos,Aptos_MSFontService,sans-serif" font-weight="400" font-size="21" transform="translate(888.757 634)">2</text><text fill="#071420" font-family="Aptos,Aptos_MSFontService,sans-serif" font-weight="400" font-size="21" transform="translate(963.663 634)">1</text><text font-family="Aptos,Aptos_MSFontService,sans-serif" font-weight="400" font-size="24" transform="translate(789.817 351)">og</text><text font-family="Aptos,Aptos_MSFontService,sans-serif" font-weight="400" font-size="24" transform="translate(789.817 420)">og</text><text font-family="Aptos,Aptos_MSFontService,sans-serif" font-weight="400" font-size="24" transform="translate(789.654 495)">og</text><text font-family="Aptos,Aptos_MSFontService,sans-serif" font-weight="400" font-size="24" transform="translate(789.654 557)">og</text><text font-family="Aptos,Aptos_MSFontService,sans-serif" font-weight="400" font-size="24" transform="translate(789.654 626)">og</text></g></svg>