<svg width="1280" height="720" xmlns="http://www.w3.org/2000/svg" xmlns:xlink="http://www.w3.org/1999/xlink" overflow="hidden"><g><rect x="0" y="0" width="1280" height="720" fill="#FFFFFF"/><path d="M149 158.5C147.099 141.267 159.152 129.243 179 131 194.086 128.028 206.79 142.906 209 158.5 209.287 174.042 194.169 184.357 179 186 165.048 187.7 149.152 173.081 149 158.5Z" fill="#B4E5A2" fill-rule="evenodd"/><path d="M149 158.5C147.347 145.755 163.396 130.597 179 131 196.767 131.848 209.859 144.962 209 158.5 208.859 175.307 195.346 185.29 179 186 162.322 187.579 152.608 174.151 149 158.5Z" stroke="#000000" stroke-width="2" stroke-miterlimit="8" fill="none" fill-rule="evenodd"/><path d="M226 158.5C223.946 141.08 235.426 129.438 253.5 131 267.22 128.028 278.813 142.906 281 158.5 282.935 176.1 268.021 185.209 253.5 186 240.901 187.7 226.151 173.081 226 158.5Z" fill="#B4E5A2" fill-rule="evenodd"/><path d="M226 158.5C225.739 143.702 239.878 130.338 253.5 131 269.874 131.848 281.85 144.962 281 158.5 280.796 176.06 267.581 182.428 253.5 186 238.204 187.579 229.571 174.151 226 158.5Z" stroke="#000000" stroke-width="2" stroke-miterlimit="8" fill="none" fill-rule="evenodd"/><path d="M933 160C930.181 140.949 943.74 129.197 964.5 131 980.211 127.62 992.296 143.303 996 160 998.713 179.365 981.46 188.486 964.5 189 950.422 191.158 933.963 172.182 933 160Z" fill="#96DCF8" fill-rule="evenodd"/><path d="M933 160C931.233 146.596 947.51 130.829 964.5 131 983.845 132.38 997.45 146.77 996 160 995.934 176.773 981.067 186.349 964.5 189 946.922 191.604 935.311 176.313 933 160Z" stroke="#000000" stroke-width="2" stroke-miterlimit="8" fill="none" fill-rule="evenodd"/><path d="M850 158.5C848.099 141.267 860.152 129.243 880 131 895.086 128.028 907.79 142.906 910 158.5 910.287 174.042 895.169 184.357 880 186 866.047 187.7 850.152 173.081 850 158.5Z" fill="#96DCF8" fill-rule="evenodd"/><path d="M850 158.5C848.347 145.755 864.396 130.597 880 131 897.767 131.848 910.859 144.962 910 158.5 909.859 175.307 896.346 185.29 880 186 863.322 187.579 853.608 174.151 850 158.5Z" stroke="#000000" stroke-width="2" stroke-miterlimit="8" fill="none" fill-rule="evenodd"/><path d="M761 158.5C759.099 141.267 771.152 129.243 791 131 806.086 128.028 818.79 142.906 821 158.5 821.287 174.042 806.169 184.357 791 186 777.047 187.7 761.152 173.081 761 158.5Z" fill="#96DCF8" fill-rule="evenodd"/><path d="M761 158.5C759.347 145.755 775.396 130.597 791 131 808.767 131.848 821.859 144.962 821 158.5 820.859 175.307 807.346 185.29 791 186 774.322 187.579 764.608 174.151 761 158.5Z" stroke="#000000" stroke-width="2" stroke-miterlimit="8" fill="none" fill-rule="evenodd"/><path d="M319 160.5C317.099 143.267 329.152 131.243 349 133 364.086 130.028 376.79 144.906 379 160.5 379.287 176.042 364.169 186.357 349 188 335.048 189.7 319.152 175.081 319 160.5Z" fill="#B4E5A2" fill-rule="evenodd"/><path d="M319 160.5C317.347 147.755 333.396 132.597 349 133 366.767 133.848 379.859 146.962 379 160.5 378.859 177.307 365.346 187.29 349 188 332.322 189.579 322.608 176.151 319 160.5Z" stroke="#000000" stroke-width="2" stroke-miterlimit="8" fill="none" fill-rule="evenodd"/><path d="M417 160.5C415.56 143.757 426.143 131.416 444 133 457.434 130.028 468.798 144.906 471 160.5 473.076 178.258 458.513 187.53 444 188 431.695 189.7 417.152 175.081 417 160.5Z" fill="#B4E5A2" fill-rule="evenodd"/><path d="M417 160.5C416.75 145.683 429.805 132.699 444 133 460.105 133.848 471.856 146.962 471 160.5 470.773 178.309 457.919 184.818 444 188 428.979 189.579 420.595 176.151 417 160.5Z" stroke="#000000" stroke-width="2" stroke-miterlimit="8" fill="none" fill-rule="evenodd"/><path d="M491 158.5C490.397 142.66 501.163 129.964 518 131 531.435 128.028 542.8 142.906 545 158.5 546.744 175.849 530.834 183.551 518 186 505.693 187.7 491.152 173.081 491 158.5Z" fill="#96DCF8" fill-rule="evenodd"/><path d="M491 158.5C490.715 143.735 503.896 130.661 518 131 534.105 131.848 545.855 144.962 545 158.5 544.898 174.867 532.784 185.59 518 186 502.979 187.579 494.592 174.151 491 158.5Z" stroke="#000000" stroke-width="2" stroke-miterlimit="8" fill="none" fill-rule="evenodd"/><path d="M573 161.5C571.099 144.267 583.152 132.243 603 134 618.086 131.028 630.79 145.906 633 161.5 633.287 177.042 618.169 187.357 603 189 589.047 190.7 573.152 176.081 573 161.5Z" fill="#96DCF8" fill-rule="evenodd"/><path d="M573 161.5C571.347 148.755 587.396 133.597 603 134 620.767 134.848 633.859 147.962 633 161.5 632.859 178.307 619.346 188.29 603 189 586.322 190.579 576.608 177.151 573 161.5Z" stroke="#000000" stroke-width="2" stroke-miterlimit="8" fill="none" fill-rule="evenodd"/><path d="M673 160.5C671.131 143.267 682.983 131.243 702.5 133 717.334 130.028 729.827 144.906 732 160.5 732.282 176.042 717.416 186.357 702.5 188 688.78 189.7 673.15 175.081 673 160.5Z" fill="#96DCF8" fill-rule="evenodd"/><path d="M673 160.5C671.375 147.755 687.156 132.597 702.5 133 719.97 133.848 732.844 146.962 732 160.5 731.862 177.307 718.574 187.29 702.5 188 686.1 189.579 676.548 176.151 673 160.5Z" stroke="#000000" stroke-width="2" stroke-miterlimit="8" fill="none" fill-rule="evenodd"/><path d="M149 292.5C147.099 275.267 159.152 263.243 179 265 194.086 262.028 206.79 276.906 209 292.5 209.287 308.042 194.169 318.357 179 320 165.048 321.7 149.152 307.081 149 292.5Z" fill="#B4E5A2" fill-rule="evenodd"/><path d="M149 292.5C147.347 279.755 163.396 264.597 179 265 196.767 265.848 209.859 278.962 209 292.5 208.859 309.307 195.346 319.29 179 320 162.322 321.579 152.608 308.151 149 292.5Z" stroke="#000000" stroke-width="2" stroke-miterlimit="8" fill="none" fill-rule="evenodd"/><path d="M226 292.5C223.946 275.08 235.426 263.438 253.5 265 267.22 262.028 278.813 276.906 281 292.5 282.935 310.1 268.021 319.209 253.5 320 240.901 321.7 226.151 307.081 226 292.5Z" fill="#B4E5A2" fill-rule="evenodd"/><path d="M226 292.5C225.739 277.702 239.878 264.338 253.5 265 269.874 265.848 281.85 278.962 281 292.5 280.796 310.06 267.581 316.427 253.5 320 238.204 321.579 229.571 308.151 226 292.5Z" stroke="#000000" stroke-width="2" stroke-miterlimit="8" fill="none" fill-rule="evenodd"/><path d="M933 294C930.181 274.949 943.74 263.197 964.5 265 980.211 261.62 992.296 277.303 996 294 998.713 313.365 981.46 322.486 964.5 323 950.422 325.158 933.963 306.182 933 294Z" fill="#96DCF8" fill-rule="evenodd"/><path d="M933 294C931.233 280.596 947.51 264.829 964.5 265 983.845 266.38 997.45 280.77 996 294 995.934 310.773 981.067 320.349 964.5 323 946.922 325.604 935.311 310.313 933 294Z" stroke="#000000" stroke-width="2" stroke-miterlimit="8" fill="none" fill-rule="evenodd"/><path d="M850 292.5C848.099 275.267 860.152 263.243 880 265 895.086 262.028 907.79 276.906 910 292.5 910.287 308.042 895.169 318.357 880 320 866.047 321.7 850.152 307.081 850 292.5Z" fill="#96DCF8" fill-rule="evenodd"/><path d="M850 292.5C848.347 279.755 864.396 264.597 880 265 897.767 265.848 910.859 278.962 910 292.5 909.859 309.307 896.346 319.29 880 320 863.322 321.579 853.608 308.151 850 292.5Z" stroke="#000000" stroke-width="2" stroke-miterlimit="8" fill="none" fill-rule="evenodd"/><path d="M761 292.5C759.099 275.267 771.152 263.243 791 265 806.086 262.028 818.79 276.906 821 292.5 821.287 308.042 806.169 318.357 791 320 777.047 321.7 761.152 307.081 761 292.5Z" fill="#71AAE0" fill-rule="evenodd"/><path d="M761 292.5C759.347 279.755 775.396 264.597 791 265 808.767 265.848 821.859 278.962 821 292.5 820.859 309.307 807.346 319.29 791 320 774.322 321.579 764.608 308.151 761 292.5Z" stroke="#000000" stroke-width="2" stroke-miterlimit="8" fill="none" fill-rule="evenodd"/><path d="M319 294.5C317.099 277.267 329.152 265.243 349 267 364.086 264.028 376.79 278.906 379 294.5 379.287 310.042 364.169 320.357 349 322 335.048 323.7 319.152 309.081 319 294.5Z" fill="#B4E5A2" fill-rule="evenodd"/><path d="M319 294.5C317.347 281.755 333.396 266.597 349 267 366.767 267.848 379.859 280.962 379 294.5 378.859 311.307 365.346 321.29 349 322 332.322 323.579 322.608 310.151 319 294.5Z" stroke="#000000" stroke-width="2" stroke-miterlimit="8" fill="none" fill-rule="evenodd"/><path d="M417 294.5C415.56 277.757 426.143 265.416 444 267 457.434 264.028 468.798 278.906 471 294.5 473.076 312.258 458.513 321.53 444 322 431.695 323.7 417.152 309.081 417 294.5Z" fill="#71AAE0" fill-rule="evenodd"/><path d="M417 294.5C416.75 279.683 429.805 266.699 444 267 460.105 267.848 471.856 280.962 471 294.5 470.773 312.309 457.919 318.818 444 322 428.979 323.579 420.595 310.151 417 294.5Z" stroke="#000000" stroke-width="2" stroke-miterlimit="8" fill="none" fill-rule="evenodd"/><path d="M491 292.5C490.397 276.66 501.163 263.964 518 265 531.435 262.028 542.8 276.906 545 292.5 546.744 309.849 530.834 317.551 518 320 505.693 321.7 491.152 307.081 491 292.5Z" fill="#71AAE0" fill-rule="evenodd"/><path d="M491 292.5C490.715 277.735 503.896 264.661 518 265 534.105 265.848 545.855 278.962 545 292.5 544.898 308.867 532.784 319.59 518 320 502.979 321.579 494.592 308.151 491 292.5Z" stroke="#000000" stroke-width="2" stroke-miterlimit="8" fill="none" fill-rule="evenodd"/><path d="M573 295.5C571.099 278.267 583.152 266.243 603 268 618.086 265.028 630.79 279.906 633 295.5 633.287 311.042 618.169 321.357 603 323 589.047 324.7 573.152 310.081 573 295.5Z" fill="#71AAE0" fill-rule="evenodd"/><path d="M573 295.5C571.347 282.755 587.396 267.597 603 268 620.767 268.848 633.859 281.962 633 295.5 632.859 312.307 619.346 322.29 603 323 586.322 324.579 576.608 311.151 573 295.5Z" stroke="#000000" stroke-width="2" stroke-miterlimit="8" fill="none" fill-rule="evenodd"/><path d="M673 294.5C671.131 277.267 682.983 265.243 702.5 267 717.334 264.028 729.827 278.906 732 294.5 732.282 310.042 717.416 320.357 702.5 322 688.78 323.7 673.15 309.081 673 294.5Z" fill="#71AAE0" fill-rule="evenodd"/><path d="M673 294.5C671.375 281.755 687.156 266.597 702.5 267 719.97 267.848 732.844 280.962 732 294.5 731.862 311.307 718.574 321.29 702.5 322 686.1 323.579 676.548 310.151 673 294.5Z" stroke="#000000" stroke-width="2" stroke-miterlimit="8" fill="none" fill-rule="evenodd"/><path d="M149 428.5C147.099 411.267 159.152 399.243 179 401 194.086 398.028 206.79 412.906 209 428.5 209.287 444.042 194.169 454.357 179 456 165.048 457.7 149.152 443.081 149 428.5Z" fill="#B4E5A2" fill-rule="evenodd"/><path d="M149 428.5C147.347 415.755 163.396 400.597 179 401 196.767 401.848 209.859 414.962 209 428.5 208.859 445.307 195.346 455.29 179 456 162.322 457.579 152.608 444.151 149 428.5Z" stroke="#000000" stroke-width="2" stroke-miterlimit="8" fill="none" fill-rule="evenodd"/><path d="M226 428.5C223.946 411.08 235.426 399.438 253.5 401 267.22 398.028 278.813 412.906 281 428.5 282.935 446.1 268.021 455.209 253.5 456 240.901 457.7 226.151 443.081 226 428.5Z" fill="#B4E5A2" fill-rule="evenodd"/><path d="M226 428.5C225.739 413.702 239.878 400.338 253.5 401 269.874 401.848 281.85 414.962 281 428.5 280.796 446.06 267.581 452.427 253.5 456 238.204 457.579 229.571 444.151 226 428.5Z" stroke="#000000" stroke-width="2" stroke-miterlimit="8" fill="none" fill-rule="evenodd"/><path d="M933 430C930.181 410.949 943.74 399.197 964.5 401 980.211 397.62 992.296 413.303 996 430 998.713 449.365 981.46 458.486 964.5 459 950.422 461.158 933.963 442.182 933 430Z" fill="#F6C6AD" fill-rule="evenodd"/><path d="M933 430C931.233 416.596 947.51 400.829 964.5 401 983.845 402.38 997.45 416.77 996 430 995.934 446.773 981.067 456.349 964.5 459 946.922 461.604 935.311 446.313 933 430Z" stroke="#000000" stroke-width="2" stroke-miterlimit="8" fill="none" fill-rule="evenodd"/><path d="M850 428.5C848.099 411.267 860.152 399.243 880 401 895.086 398.028 907.79 412.906 910 428.5 910.287 444.042 895.169 454.357 880 456 866.047 457.7 850.152 443.081 850 428.5Z" fill="#F6C6AD" fill-rule="evenodd"/><path d="M850 428.5C848.347 415.755 864.396 400.597 880 401 897.767 401.848 910.859 414.962 910 428.5 909.859 445.307 896.346 455.29 880 456 863.322 457.579 853.608 444.151 850 428.5Z" stroke="#000000" stroke-width="2" stroke-miterlimit="8" fill="none" fill-rule="evenodd"/><path d="M761 428.5C759.099 411.267 771.152 399.243 791 401 806.086 398.028 818.79 412.906 821 428.5 821.287 444.042 806.169 454.357 791 456 777.047 457.7 761.152 443.081 761 428.5Z" fill="#F6C6AD" fill-rule="evenodd"/><path d="M761 428.5C759.347 415.755 775.396 400.597 791 401 808.767 401.848 821.859 414.962 821 428.5 820.859 445.307 807.346 455.29 791 456 774.322 457.579 764.608 444.151 761 428.5Z" stroke="#000000" stroke-width="2" stroke-miterlimit="8" fill="none" fill-rule="evenodd"/><path d="M319 430.5C317.099 413.267 329.152 401.243 349 403 364.086 400.028 376.79 414.906 379 430.5 379.287 446.042 364.169 456.357 349 458 335.048 459.7 319.152 445.081 319 430.5Z" fill="#71AAE0" fill-rule="evenodd"/><path d="M319 430.5C317.347 417.755 333.396 402.597 349 403 366.767 403.848 379.859 416.962 379 430.5 378.859 447.307 365.346 457.29 349 458 332.322 459.579 322.608 446.151 319 430.5Z" stroke="#000000" stroke-width="2" stroke-miterlimit="8" fill="none" fill-rule="evenodd"/><path d="M417 430.5C415.56 413.757 426.143 401.416 444 403 457.434 400.028 468.798 414.906 471 430.5 473.076 448.258 458.513 457.53 444 458 431.695 459.7 417.152 445.081 417 430.5Z" fill="#71AAE0" fill-rule="evenodd"/><path d="M417 430.5C416.75 415.683 429.805 402.699 444 403 460.105 403.848 471.856 416.962 471 430.5 470.773 448.309 457.919 454.818 444 458 428.979 459.579 420.595 446.151 417 430.5Z" stroke="#000000" stroke-width="2" stroke-miterlimit="8" fill="none" fill-rule="evenodd"/><path d="M491 428.5C490.397 412.66 501.163 399.964 518 401 531.435 398.028 542.8 412.906 545 428.5 546.744 445.849 530.834 453.551 518 456 505.693 457.7 491.152 443.081 491 428.5Z" fill="#71AAE0" fill-rule="evenodd"/><path d="M491 428.5C490.715 413.735 503.896 400.661 518 401 534.105 401.848 545.855 414.962 545 428.5 544.898 444.867 532.784 455.59 518 456 502.979 457.579 494.592 444.151 491 428.5Z" stroke="#000000" stroke-width="2" stroke-miterlimit="8" fill="none" fill-rule="evenodd"/><path d="M573 431.5C571.099 414.267 583.152 402.243 603 404 618.086 401.028 630.79 415.906 633 431.5 633.287 447.042 618.169 457.357 603 459 589.047 460.7 573.152 446.081 573 431.5Z" fill="#96DCF8" fill-rule="evenodd"/><path d="M573 431.5C571.347 418.755 587.396 403.597 603 404 620.767 404.848 633.859 417.962 633 431.5 632.859 448.307 619.346 458.29 603 459 586.322 460.579 576.608 447.151 573 431.5Z" stroke="#000000" stroke-width="2" stroke-miterlimit="8" fill="none" fill-rule="evenodd"/><path d="M673 430.5C671.131 413.267 682.983 401.243 702.5 403 717.334 400.028 729.827 414.906 732 430.5 732.282 446.042 717.416 456.357 702.5 458 688.78 459.7 673.15 445.081 673 430.5Z" fill="#96DCF8" fill-rule="evenodd"/><path d="M673 430.5C671.375 417.755 687.156 402.597 702.5 403 719.97 403.848 732.844 416.962 732 430.5 731.862 447.307 718.574 457.29 702.5 458 686.1 459.579 676.548 446.151 673 430.5Z" stroke="#000000" stroke-width="2" stroke-miterlimit="8" fill="none" fill-rule="evenodd"/></g></svg>