<?xml version="1.0" encoding="UTF-8" standalone="no"?>
<!-- Created with Inkscape (http://www.inkscape.org/) -->

<svg
   width="270.20114mm"
   height="90.143814mm"
   viewBox="0 0 270.20114 90.143814"
   version="1.1"
   id="svg1"
   xmlns:inkscape="http://www.inkscape.org/namespaces/inkscape"
   xmlns:sodipodi="http://sodipodi.sourceforge.net/DTD/sodipodi-0.dtd"
   xmlns="http://www.w3.org/2000/svg"
   xmlns:svg="http://www.w3.org/2000/svg">
  <sodipodi:namedview
     id="namedview1"
     pagecolor="#505050"
     bordercolor="#ffffff"
     borderopacity="1"
     inkscape:showpageshadow="0"
     inkscape:pageopacity="0"
     inkscape:pagecheckerboard="1"
     inkscape:deskcolor="#d1d1d1"
     inkscape:document-units="mm"
     inkscape:export-bgcolor="#ffffff00" />
  <defs
     id="defs1" />
  <g
     inkscape:label="Lag 1"
     inkscape:groupmode="layer"
     id="layer1"
     transform="translate(-7.7037193,-101.91327)">
    <g
       id="g9"
       transform="translate(0,-2.4237759)">
      <text
         font-family="Calibri, Calibri_MSFontService, sans-serif"
         font-weight="400"
         font-size="11.3771px"
         id="text25"
         x="34.460655"
         y="140.75833"
         style="stroke-width:0.264583">-</text>
      <text
         font-family="Calibri, Calibri_MSFontService, sans-serif"
         font-weight="400"
         font-size="11.3771px"
         id="text26"
         x="37.900238"
         y="140.75833"
         style="stroke-width:0.264583">5</text>
    </g>
    <text
       font-family="Calibri, Calibri_MSFontService, sans-serif"
       font-weight="400"
       font-size="11.3771px"
       id="text26-2"
       x="235.57143"
       y="138.33455"
       style="stroke-width:0.264583">5</text>
    <g
       id="g8"
       transform="translate(0,-1.8618917)">
      <text
         font-family="Calibri, Calibri_MSFontService, sans-serif"
         font-weight="400"
         font-size="11.3771px"
         id="text27"
         x="53.596909"
         y="140.24922"
         style="stroke-width:0.264583">-</text>
      <text
         font-family="Calibri, Calibri_MSFontService, sans-serif"
         font-weight="400"
         font-size="11.3771px"
         id="text28"
         x="57.036491"
         y="140.24922"
         style="stroke-width:0.264583">4</text>
    </g>
    <text
       font-family="Calibri, Calibri_MSFontService, sans-serif"
       font-weight="400"
       font-size="11.3771px"
       id="text28-5"
       x="217.90463"
       y="138.38733"
       style="stroke-width:0.264583">4</text>
    <g
       id="g7"
       transform="translate(0,-3.3892355)">
      <text
         font-family="Calibri, Calibri_MSFontService, sans-serif"
         font-weight="400"
         font-size="11.3771px"
         id="text29"
         x="74.514809"
         y="141.77657"
         style="stroke-width:0.264583">-</text>
      <text
         font-family="Calibri, Calibri_MSFontService, sans-serif"
         font-weight="400"
         font-size="11.3771px"
         id="text30"
         x="77.954391"
         y="141.77657"
         style="stroke-width:0.264583">3</text>
    </g>
    <text
       font-family="Calibri, Calibri_MSFontService, sans-serif"
       font-weight="400"
       font-size="11.3771px"
       id="text30-0"
       x="197.25269"
       y="138.38733"
       style="stroke-width:0.264583">3</text>
    <text
       font-family="Calibri, Calibri_MSFontService, sans-serif"
       font-weight="400"
       font-size="11.3771px"
       id="text32-0"
       x="158.80125"
       y="138.41232"
       style="stroke-width:0.264583">1</text>
    <text
       font-family="Calibri, Calibri_MSFontService, sans-serif"
       font-weight="400"
       font-size="11.3771px"
       id="text32-0-3"
       x="138.65749"
       y="138.38733"
       style="stroke-width:0.264583">0</text>
    <g
       id="g6"
       transform="translate(-1.7819091,-1.0753943)">
      <text
         font-family="Calibri, Calibri_MSFontService, sans-serif"
         font-weight="400"
         font-size="11.3771px"
         id="text31"
         x="97.978554"
         y="139.48553"
         style="stroke-width:0.264583">-</text>
      <text
         font-family="Calibri, Calibri_MSFontService, sans-serif"
         font-weight="400"
         font-size="11.3771px"
         id="text32-1"
         x="102.0612"
         y="139.26094"
         style="stroke-width:0.264583">2</text>
    </g>
    <text
       font-family="Calibri, Calibri_MSFontService, sans-serif"
       font-weight="400"
       font-size="11.3771px"
       id="text32-1-5"
       x="178.46274"
       y="138.44011"
       style="stroke-width:0.264583">2</text>
    <g
       id="g5"
       transform="translate(0,-0.81864371)">
      <text
         font-family="Calibri, Calibri_MSFontService, sans-serif"
         font-weight="400"
         font-size="11.3771px"
         id="text32"
         x="120.25546"
         y="139.23097"
         style="stroke-width:0.264583">1</text>
      <text
         font-family="Calibri, Calibri_MSFontService, sans-serif"
         font-weight="400"
         font-size="11.3771px"
         id="text33"
         x="114.82378"
         y="139.48553"
         style="stroke-width:0.264583">-</text>
    </g>
    <path
       d="m 21.695833,152.13542 c 6.827044,-0.81175 14.434079,0.92233 18.052785,0 3.618706,-0.92234 15.461985,-0.0333 22.746494,0 7.284243,0.0333 11.459368,0.60219 22.746229,0 11.28686,-0.6022 5.554397,-0.28523 11.012222,0 5.457827,0.28522 9.488757,-0.16405 18.052787,0 8.56377,0.16404 7.04506,0.0114 11.01222,0 3.9669,-0.0114 5.81872,-0.39953 11.01196,0 5.19324,0.39952 9.02811,0.26431 15.70593,0 6.67808,-0.26432 13.92978,-0.70618 18.05279,0 4.123,0.70617 7.65413,0.16298 11.01222,0 3.35809,-0.16299 6.8326,0.65114 13.35908,0 6.52621,-0.65114 8.98789,-0.30401 15.70566,0 6.71804,0.304 7.61789,-0.19685 11.01222,0 3.39434,0.19685 7.54724,-0.42096 11.01223,0 3.46472,0.42095 13.66546,-1.07421 24.19059,0 -0.005,0.28442 0.0106,0.87894 0,1.32291 -4.90273,-0.69162 -11.94594,-1.0406 -22.7465,0 -10.80108,1.04061 -12.52696,-0.12012 -22.74649,0 -10.21927,0.12012 -8.12297,-0.15346 -15.70567,0 -7.58295,0.15346 -12.33381,0.42122 -15.70593,0 -3.37238,-0.42121 -17.40376,-0.19473 -22.74649,0 -5.34247,0.19474 -8.57726,-0.4019 -11.01222,0 -2.4347,0.4019 -16.01365,0.3384 -20.39938,0 -4.386,-0.3384 -12.35101,-0.30453 -15.70593,0 -3.35492,0.30454 -10.47062,0.55192 -13.359077,0 -2.888456,-0.55192 -14.23617,0.87128 -18.052785,0 -3.81635,-0.87127 -15.278893,1.0541 -20.399375,0 -5.120745,-1.0541 -11.678443,0.59399 -15.705931,0 -4.027752,-0.59399 -13.158258,0.47096 -20.399639,0 -0.01429,-0.36512 0.03122,-0.68183 0,-1.32291 z"
       fill-rule="evenodd"
       id="path1"
       style="stroke-width:0.264583" />
    <path
       d="m 21.695833,152.13542 c 4.903523,-0.46117 8.553185,-0.45906 11.012223,0 2.459037,0.45905 7.252229,-0.40826 13.359077,0 6.106583,0.40825 11.478154,-0.013 15.705666,0 4.227513,0.013 8.860631,-0.002 15.705931,0 6.8453,0.002 9.982729,0.63129 13.359077,0 3.376348,-0.6313 10.490203,0.41195 13.359073,0 2.86888,-0.41196 9.91024,0.0717 13.35882,0 3.44884,-0.0717 7.9412,0.34422 11.01222,0 3.07102,-0.34423 6.90615,0.16377 11.01222,0 4.10607,-0.16378 6.62411,-0.37386 11.01222,0 4.38812,0.37385 7.87453,0.0699 11.01223,0 3.13743,-0.0699 10.52697,-0.39 18.05252,0 7.52581,0.38999 17.89615,-0.58209 22.74649,0 4.85034,0.58208 8.14864,-0.16537 11.01222,0 2.86359,0.16536 9.48929,-0.55775 15.70567,0 6.21665,0.55774 7.40013,0.28125 11.01169,0 3.61157,-0.28126 11.47498,0.56462 16.24807,0 0.0238,0.41698 -0.0238,0.83264 0,1.32291 -10.67329,-1.01415 -14.80873,-1.18295 -22.7465,0 -7.93829,1.18295 -10.76616,-0.6014 -18.05278,0 -7.28636,0.6014 -6.47065,0.53816 -11.01196,0 -4.54157,-0.53816 -7.32393,-0.58287 -13.35908,0 -6.03514,0.58288 -16.22531,0.89641 -20.39964,0 -4.17433,-0.89641 -7.35277,0.1987 -11.01222,0 -3.65919,-0.1987 -13.75145,-0.9353 -18.05252,0 -4.30133,0.9353 -13.52973,0.71279 -18.05278,0 -4.52306,-0.71279 -10.16979,0.1315 -15.70594,0 -5.53614,-0.1315 -13.079144,-0.75803 -18.052781,0 -4.973638,0.75803 -14.756606,-0.97922 -22.746494,0 -7.989622,0.97923 -9.140825,0.16934 -15.705666,0 -6.564842,-0.16933 -7.144544,-0.11509 -11.012223,0 -3.867679,0.1151 -12.775406,0.55007 -18.774833,0 0.01852,-0.5752 0.0061,-0.91546 0,-1.32291 z"
       stroke="#000000"
       stroke-width="0.529167"
       stroke-miterlimit="8"
       fill="none"
       fill-rule="evenodd"
       id="path2" />
    <path
       d="m 140.75833,147.10833 c 0.31935,0.007 0.60828,0.0273 0.79375,0 -0.36195,2.18705 -0.23865,6.74476 0,10.05417 -0.30718,-0.0259 -0.41883,-0.0286 -0.79375,0 0.006,-4.10845 -0.38206,-6.94426 0,-10.05417 z"
       fill-rule="evenodd"
       id="path3"
       style="stroke-width:0.264583" />
    <path
       d="m 140.75833,147.10833 c 0.24553,0.0111 0.47599,0.0347 0.79375,0 0.1315,3.28586 0.14976,6.06214 0,10.05417 -0.23257,0.0349 -0.48842,0.0452 -0.79375,0 -0.17648,-3.36868 0.0151,-5.55096 0,-10.05417 z"
       stroke="#000000"
       stroke-width="0.529167"
       stroke-miterlimit="8"
       fill="none"
       fill-rule="evenodd"
       id="path4" />
    <path
       d="m 161.13125,147.6375 c 0.42571,0.007 0.81121,0.0265 1.05833,0 -0.4826,2.12963 -0.31803,6.56722 0,9.78958 -0.40957,-0.0251 -0.55853,-0.0278 -1.05833,0 0.008,-4.00023 -0.50959,-6.76142 0,-9.78958 z"
       fill-rule="evenodd"
       id="path5"
       style="stroke-width:0.264583" />
    <path
       d="m 161.13125,147.6375 c 0.32755,0.0109 0.63473,0.0336 1.05833,0 0.17542,3.19934 0.19976,5.90259 0,9.78958 -0.31009,0.0339 -0.6514,0.0439 -1.05833,0 -0.23548,-3.28004 0.0201,-5.40491 0,-9.78958 z"
       stroke="#000000"
       stroke-width="0.529167"
       stroke-miterlimit="8"
       fill="none"
       fill-rule="evenodd"
       id="path6" />
    <path
       d="m 180.71041,146.84375 c 0.42572,0.007 0.81122,0.0273 1.05834,0 -0.4826,2.18705 -0.31803,6.74476 0,10.05417 -0.40958,-0.0259 -0.55854,-0.0286 -1.05834,0 0.008,-4.10845 -0.50958,-6.94426 0,-10.05417 z"
       fill-rule="evenodd"
       id="path7"
       style="stroke-width:0.264583" />
    <path
       d="m 180.71041,146.84375 c 0.32756,0.0111 0.63474,0.0347 1.05834,0 0.17542,3.28586 0.19976,6.06213 0,10.05417 -0.31009,0.0349 -0.65141,0.0452 -1.05834,0 -0.23547,-3.36868 0.0201,-5.55096 0,-10.05417 z"
       stroke="#000000"
       stroke-width="0.529167"
       stroke-miterlimit="8"
       fill="none"
       fill-rule="evenodd"
       id="path8" />
    <path
       d="m 200.55416,146.84375 c 0.42572,0.007 0.81122,0.0273 1.05834,0 -0.4826,2.18705 -0.31803,6.74476 0,10.05417 -0.40958,-0.0259 -0.55854,-0.0286 -1.05834,0 0.008,-4.10845 -0.50958,-6.94426 0,-10.05417 z"
       fill-rule="evenodd"
       id="path9"
       style="stroke-width:0.264583" />
    <path
       d="m 200.55416,146.84375 c 0.32756,0.0111 0.63474,0.0347 1.05834,0 0.17542,3.28586 0.19976,6.06213 0,10.05417 -0.31009,0.0349 -0.65141,0.0452 -1.05834,0 -0.23548,-3.36868 0.0201,-5.55096 0,-10.05417 z"
       stroke="#000000"
       stroke-width="0.529167"
       stroke-miterlimit="8"
       fill="none"
       fill-rule="evenodd"
       id="path10" />
    <path
       d="m 220.92708,146.84375 c 0.31935,0.007 0.60828,0.0265 0.79375,0 -0.36195,2.12963 -0.23865,6.56722 0,9.78958 -0.30718,-0.0251 -0.41883,-0.0278 -0.79375,0 0.006,-4.00023 -0.38206,-6.76142 0,-9.78958 z"
       fill-rule="evenodd"
       id="path11"
       style="stroke-width:0.264583" />
    <path
       d="m 220.92708,146.84375 c 0.24553,0.0109 0.47599,0.0336 0.79375,0 0.1315,3.19934 0.14975,5.90259 0,9.78958 -0.23257,0.0339 -0.48842,0.0439 -0.79375,0 -0.17648,-3.28004 0.0151,-5.40491 0,-9.78958 z"
       stroke="#000000"
       stroke-width="0.529167"
       stroke-miterlimit="8"
       fill="none"
       fill-rule="evenodd"
       id="path12" />
    <path
       d="m 241.3,147.10833 c 0.42598,0.007 0.81227,0.0273 1.05833,0 -0.48154,2.18705 -0.3175,6.74476 0,10.05417 -0.4101,-0.0259 -0.55827,-0.0286 -1.05833,0 0.008,-4.10845 -0.51065,-6.94426 0,-10.05417 z"
       fill-rule="evenodd"
       id="path13"
       style="stroke-width:0.264583" />
    <path
       d="m 241.3,147.10833 c 0.32808,0.0111 0.635,0.0347 1.05833,0 0.17463,3.28586 0.19844,6.06214 0,10.05417 -0.30956,0.0349 -0.65087,0.0452 -1.05833,0 -0.23548,-3.36868 0.0212,-5.55096 0,-10.05417 z"
       stroke="#000000"
       stroke-width="0.529167"
       stroke-miterlimit="8"
       fill="none"
       fill-rule="evenodd"
       id="path14" />
    <path
       d="m 101.33542,147.10833 c 0.42571,0.007 0.81121,0.0273 1.05833,0 -0.4826,2.18705 -0.31803,6.74476 0,10.05417 -0.40958,-0.0259 -0.55854,-0.0286 -1.05833,0 0.008,-4.10845 -0.50959,-6.94426 0,-10.05417 z"
       fill-rule="evenodd"
       id="path15"
       style="stroke-width:0.264583" />
    <path
       d="m 101.33542,147.10833 c 0.32755,0.0111 0.63473,0.0347 1.05833,0 0.17542,3.28586 0.19976,6.06214 0,10.05417 -0.31009,0.0349 -0.65141,0.0452 -1.05833,0 -0.23548,-3.36868 0.0201,-5.55096 0,-10.05417 z"
       stroke="#000000"
       stroke-width="0.529167"
       stroke-miterlimit="8"
       fill="none"
       fill-rule="evenodd"
       id="path16" />
    <path
       d="m 121.17917,147.10833 c 0.42571,0.007 0.81121,0.0273 1.05833,0 -0.4826,2.18705 -0.31803,6.74476 0,10.05417 -0.40958,-0.0259 -0.55854,-0.0286 -1.05833,0 0.008,-4.10845 -0.50959,-6.94426 0,-10.05417 z"
       fill-rule="evenodd"
       id="path17"
       style="stroke-width:0.264583" />
    <path
       d="m 121.17917,147.10833 c 0.32755,0.0111 0.63473,0.0347 1.05833,0 0.17542,3.28586 0.19976,6.06214 0,10.05417 -0.31009,0.0349 -0.65141,0.0452 -1.05833,0 -0.23548,-3.36868 0.0201,-5.55096 0,-10.05417 z"
       stroke="#000000"
       stroke-width="0.529167"
       stroke-miterlimit="8"
       fill="none"
       fill-rule="evenodd"
       id="path18" />
    <path
       d="m 60.324999,146.84375 c 0.425715,0.007 0.811213,0.0273 1.058334,0 -0.4826,2.18705 -0.31803,6.74476 0,10.05417 -0.409575,-0.0259 -0.558536,-0.0286 -1.058334,0 0.0077,-4.10845 -0.509587,-6.94426 0,-10.05417 z"
       fill-rule="evenodd"
       id="path19"
       style="stroke-width:0.264583" />
    <path
       d="m 60.324999,146.84375 c 0.327554,0.0111 0.634736,0.0347 1.058334,0 0.175418,3.28586 0.19976,6.06213 0,10.05417 -0.310092,0.0349 -0.651405,0.0452 -1.058334,0 -0.235479,-3.36868 0.02011,-5.55096 0,-10.05417 z"
       stroke="#000000"
       stroke-width="0.529167"
       stroke-miterlimit="8"
       fill="none"
       fill-rule="evenodd"
       id="path20" />
    <path
       d="m 80.962499,147.37292 c 0.319352,0.007 0.608277,0.0273 0.79375,0 -0.36195,2.18704 -0.238654,6.74475 0,10.05416 -0.307181,-0.0259 -0.418835,-0.0286 -0.79375,0 0.0058,-4.10845 -0.382058,-6.94425 0,-10.05416 z"
       fill-rule="evenodd"
       id="path21"
       style="stroke-width:0.264583" />
    <path
       d="m 80.962499,147.37292 c 0.245533,0.0111 0.475985,0.0347 0.79375,0 0.131498,3.28586 0.149754,6.06213 0,10.05416 -0.232569,0.0349 -0.488421,0.0453 -0.79375,0 -0.176477,-3.36867 0.01508,-5.55096 0,-10.05416 z"
       stroke="#000000"
       stroke-width="0.529167"
       stroke-miterlimit="8"
       fill="none"
       fill-rule="evenodd"
       id="path22" />
    <path
       d="m 41.010416,146.84375 c 0.425715,0.007 0.811213,0.0273 1.058333,0 -0.4826,2.18705 -0.318029,6.74476 0,10.05417 -0.409575,-0.0259 -0.558535,-0.0286 -1.058333,0 0.0077,-4.10845 -0.509587,-6.94426 0,-10.05417 z"
       fill-rule="evenodd"
       id="path23"
       style="stroke-width:0.264583" />
    <path
       d="m 41.010416,146.84375 c 0.327554,0.0111 0.634736,0.0347 1.058333,0 0.175419,3.28586 0.199761,6.06213 0,10.05417 -0.310091,0.0349 -0.651404,0.0452 -1.058333,0 -0.235479,-3.36868 0.02011,-5.55096 0,-10.05417 z"
       stroke="#000000"
       stroke-width="0.529167"
       stroke-miterlimit="8"
       fill="none"
       fill-rule="evenodd"
       id="path24" />
    <text
       font-family="Calibri, Calibri_MSFontService, sans-serif"
       font-weight="400"
       font-size="11.3771px"
       id="text24"
       x="18.982531"
       y="140.75833"
       style="stroke-width:0.264583">…</text>
    <path
       d="m 268.67379,172.29931 c -6.9559,0.94165 -11.99356,1.50601 -17.99167,0 -6.09335,-0.73263 -12.84287,0.45376 -20.51182,0 -8.19124,0.57097 -10.46321,0.46276 -16.73252,0 -7.27842,-0.0259 -12.93071,-0.98663 -15.47309,0 -3.72639,-0.62203 -10.69155,-1.61369 -20.51077,0 -9.87875,-0.0275 -11.59086,-0.20928 -17.99193,0 -6.40583,0.63738 -9.51547,0.95832 -16.73251,0 -0.12039,0.6985 -0.72073,2.96757 -1.3343,8.01423 0.0712,-4.51247 -0.56568,-7.97639 -1.33403,-8.01423 -4.70693,-0.0365 -8.3857,1.29937 -13.96232,0 -5.53085,-0.33364 -7.98036,-0.0942 -15.19926,0 -5.87322,-0.0913 -11.47524,0.56409 -15.19925,0 -1.966384,-0.40693 -12.302331,-1.24751 -17.673373,0 -5.01359,1.06019 -13.958623,0.24077 -17.673637,0 -3.697552,-0.32147 -10.875963,-0.9308 -17.673638,0 -7.170208,-0.0331 -17.465145,-0.95435 -26.333449,0"
       stroke="#000000"
       stroke-width="0.79375"
       stroke-miterlimit="8"
       fill="none"
       fill-rule="evenodd"
       id="path34" />
    <path
       d="m 156.23646,129.13095 c -0.0376,-4.35266 0.59716,-7.9629 1.33217,-8.01079 5.96318,-0.39766 13.11963,0.14103 17.40059,0 5.34935,-1.02473 13.09899,0.81915 16.41554,0 3.28613,-0.40031 10.21795,-1.56421 15.43077,0 0.49953,-0.35745 1.33932,-3.51287 1.33218,-8.01079 -0.0249,4.28943 0.48736,8.11689 1.33217,8.01079 4.46247,0.87075 9.23634,0.40032 15.63238,0 5.39141,-0.43047 10.38622,-0.0873 16.1163,0 5.04825,0.58791 11.77131,0.27596 16.59731,0"
       stroke="#000000"
       stroke-width="0.79375"
       stroke-miterlimit="8"
       fill="none"
       fill-rule="evenodd"
       id="path35" />
    <text
       font-family="Calibri, Calibri_MSFontService, sans-serif"
       font-weight="400"
       font-size="11.3771px"
       id="text35"
       x="6.8704352"
       y="173.56667"
       style="stroke-width:0.264583">…</text>
    <text
       font-family="Calibri, Calibri_MSFontService, sans-serif"
       font-weight="400"
       font-size="11.3771px"
       id="text36"
       x="270.88306"
       y="173.56667"
       style="stroke-width:0.264583">…</text>
    <text
       font-family="Calibri, Calibri_MSFontService, sans-serif"
       font-weight="400"
       font-size="11.3771px"
       id="text37"
       x="259.59857"
       y="122.2375"
       style="stroke-width:0.264583">…</text>
    <text
       font-family="Calibri, Calibri_MSFontService, sans-serif"
       font-weight="400"
       font-size="7.14375px"
       id="text38"
       x="171.63493"
       y="107.68542"
       style="font-style:normal;font-variant:normal;font-weight:normal;font-stretch:normal;font-family:Handlee;-inkscape-font-specification:Handlee;stroke-width:0.264583">Mengden naturlige tall,</text>
    <text
       font-family="Calibri, Calibri_MSFontService, sans-serif"
       font-weight="700"
       font-size="7.14375px"
       id="text39"
       x="240.19669"
       y="107.68542"
       style="stroke-width:0.264583">N</text>
    <text
       font-family="Calibri, Calibri_MSFontService, sans-serif"
       font-weight="400"
       font-size="7.14375px"
       id="text40"
       x="112.0259"
       y="190.23541"
       style="stroke-width:0.264583"><tspan
         style="font-style:normal;font-variant:normal;font-weight:normal;font-stretch:normal;font-family:Handlee;-inkscape-font-specification:Handlee"
         id="tspan4">Mengden hele tall,</tspan></text>
    <text
       font-family="Calibri, Calibri_MSFontService, sans-serif"
       font-weight="700"
       font-size="7.14375px"
       id="text41"
       x="167.34869"
       y="190.23541"
       style="stroke-width:0.264583"
       inkscape:export-filename="tallinja.svg"
       inkscape:export-xdpi="96"
       inkscape:export-ydpi="96">Z</text>
  </g>
</svg>
