<?xml version="1.0" encoding="UTF-8" standalone="no"?>
<!-- Created with Inkscape (http://www.inkscape.org/) -->

<svg
   width="300.2005mm"
   height="169.70166mm"
   viewBox="0 0 300.2005 169.70166"
   version="1.1"
   id="svg1"
   xmlns:inkscape="http://www.inkscape.org/namespaces/inkscape"
   xmlns:sodipodi="http://sodipodi.sourceforge.net/DTD/sodipodi-0.dtd"
   xmlns="http://www.w3.org/2000/svg"
   xmlns:svg="http://www.w3.org/2000/svg">
  <sodipodi:namedview
     id="namedview1"
     pagecolor="#505050"
     bordercolor="#ffffff"
     borderopacity="1"
     inkscape:showpageshadow="0"
     inkscape:pageopacity="0"
     inkscape:pagecheckerboard="1"
     inkscape:deskcolor="#d1d1d1"
     inkscape:document-units="mm"
     inkscape:export-bgcolor="#ffffff00"
     showguides="false" />
  <defs
     id="defs1">
    <clipPath
       id="clip0">
      <rect
         x="-28"
         y="38"
         width="677"
         height="331"
         id="rect1" />
    </clipPath>
  </defs>
  <g
     inkscape:label="Lag 1"
     inkscape:groupmode="layer"
     id="layer1"
     transform="translate(199.0122,-1113.3902)">
    <g
       transform="matrix(0.26458333,0,0,0.26458333,-503.2375,641.87917)"
       id="g13">
      <path
         d="m 160,205 c 24.843,-2.569 51.157,-2.522 66.66,0 15.503,2.522 29.895,-1.911 51.51,0 21.615,1.911 35.774,2.782 66.66,0 30.886,-2.782 29.519,-1.453 51.51,0 21.991,1.453 42.087,2.404 66.66,0 -0.415,27.455 -1.608,32.143 0,56.81 1.608,24.667 -0.319,38.059 0,56.81 0.319,18.751 -1.784,39.532 0,56.81 1.784,17.278 0.581,41.125 0,59.8 -0.581,18.675 -0.052,46.591 0,68.77 -12.402,-1.536 -33.104,2.996 -60.6,0 -27.496,-2.996 -32.922,1.256 -54.54,0 -21.618,-1.256 -31.956,2.302 -57.57,0 -25.614,-2.302 -33.982,2.801 -66.66,0 -32.678,-2.801 -38.632,0.067 -63.63,0 -1.743,-21.327 -0.269,-36.901 0,-50.83 0.269,-13.929 2.415,-46.383 0,-59.8 -2.415,-13.417 0.009,-25.719 0,-50.83 -0.009,-25.111 1.419,-36.74 0,-59.8 -1.419,-23.06 3.411,-56.761 0,-77.74 z"
         fill="#d1d1d1"
         fill-rule="evenodd"
         id="path1-7" />
      <path
         d="m 160,205 c 12.936,-2.136 38.747,1.504 63.63,0 24.883,-1.504 41.506,1.156 66.66,0 25.154,-1.156 36.996,-2.734 60.6,0 23.604,2.734 39.684,1.1 51.51,0 11.826,-1.1 43.112,1.988 60.6,0 -2,24.282 2.615,35.692 0,53.82 -2.615,18.128 -2.763,38.558 0,59.8 2.763,21.242 1.119,46.309 0,59.8 -1.119,13.491 2.444,38.797 0,59.8 -2.444,21.003 1.568,36.732 0,65.78 -16.575,-0.569 -36.98,-2.803 -63.63,0 -26.65,2.803 -29.745,0.633 -54.54,0 -24.795,-0.633 -43.97,-0.478 -63.63,0 -19.66,0.478 -36.051,2.167 -57.57,0 -21.519,-2.167 -40.837,1.46 -63.63,0 1.894,-19.635 -2.302,-36.003 0,-50.83 2.302,-14.827 0.451,-40.649 0,-53.82 -0.451,-13.171 -0.871,-30.076 0,-53.82 0.871,-23.744 1.434,-39.937 0,-59.8 -1.434,-19.863 -4.03,-55.824 0,-80.73 z"
         stroke="#000000"
         stroke-width="2"
         stroke-miterlimit="8"
         fill="none"
         fill-rule="evenodd"
         id="path2-5" />
      <path
         d="m 160,79 c 28.389,1.3172 48.474,-1.6474 79.893,0 31.419,1.6474 39.353,1.7209 58.494,0 19.14,-1.7209 59.624,2.4932 79.893,0 20.269,-2.4932 43.024,1.023 58.493,0 15.469,-1.023 54.335,0.2407 75.614,0 21.279,-0.2407 47.464,0.6985 75.613,0 -1.984,30.102 -0.397,47.87 0,70.833 0.397,22.964 1.576,38.165 0,66.584 -1.576,28.419 0.037,52.083 0,70.833 -0.037,18.75 -0.419,35.62 0,58.083 0.419,22.464 -0.453,47.312 0,70.834 0.453,23.521 2.329,52.572 0,87.833 -17.961,-1.366 -50.163,0.795 -62.773,0 -12.61,-0.795 -51.234,-1.424 -79.894,0 -28.66,1.424 -38.588,-0.258 -75.613,0 -37.025,0.258 -33.517,1.418 -58.493,0 -24.976,-1.418 -34.195,2.052 -67.054,0 -32.858,-2.052 -48.423,3.664 -84.173,0 1.111,-31.737 -1.075,-39.969 0,-70.833 1.075,-30.864 -0.101,-60.744 0,-79.334 0.101,-18.589 1.865,-39.503 0,-75.083 -1.865,-35.58 -2.512,-47.221 0,-75.083 2.512,-27.863 0.645,-95.614 0,-124.667 z"
         stroke="#000000"
         stroke-width="2"
         stroke-miterlimit="8"
         fill="none"
         fill-rule="evenodd"
         id="path3-2" />
      <path
         d="m 756,205 c 24.843,-2.569 51.157,-2.522 66.66,0 15.503,2.522 29.895,-1.911 51.51,0 21.615,1.911 35.774,2.782 66.66,0 30.886,-2.782 29.519,-1.453 51.51,0 21.99,1.453 42.09,2.404 66.66,0 -0.41,27.455 -1.61,32.143 0,56.81 1.61,24.667 -0.32,38.059 0,56.81 0.32,18.751 -1.78,39.532 0,56.81 1.78,17.278 0.58,41.125 0,59.8 -0.58,18.675 -0.05,46.591 0,68.77 -12.4,-1.536 -33.1,2.996 -60.6,0 -27.496,-2.996 -32.922,1.256 -54.54,0 -21.618,-1.256 -31.956,2.302 -57.57,0 -25.614,-2.302 -33.982,2.801 -66.66,0 -32.678,-2.801 -38.632,0.067 -63.63,0 -1.743,-21.327 -0.269,-36.901 0,-50.83 0.269,-13.929 2.415,-46.383 0,-59.8 -2.415,-13.417 0.009,-25.719 0,-50.83 -0.009,-25.111 1.419,-36.74 0,-59.8 -1.419,-23.06 3.411,-56.761 0,-77.74 z"
         fill="#d1d1d1"
         fill-rule="evenodd"
         id="path4-2" />
      <path
         d="m 756,205 c 12.936,-2.136 38.747,1.504 63.63,0 24.883,-1.504 41.506,1.156 66.66,0 25.154,-1.156 36.996,-2.734 60.6,0 23.604,2.734 39.684,1.1 51.51,0 11.83,-1.1 43.11,1.988 60.6,0 -2,24.282 2.61,35.692 0,53.82 -2.61,18.128 -2.76,38.558 0,59.8 2.76,21.242 1.12,46.309 0,59.8 -1.12,13.491 2.44,38.797 0,59.8 -2.44,21.003 1.57,36.732 0,65.78 -16.57,-0.569 -36.98,-2.803 -63.63,0 -26.65,2.803 -29.745,0.633 -54.54,0 -24.795,-0.633 -43.97,-0.478 -63.63,0 -19.66,0.478 -36.051,2.167 -57.57,0 -21.519,-2.167 -40.837,1.46 -63.63,0 1.894,-19.635 -2.302,-36.003 0,-50.83 2.302,-14.827 0.451,-40.649 0,-53.82 -0.451,-13.171 -0.871,-30.076 0,-53.82 0.871,-23.744 1.434,-39.937 0,-59.8 -1.434,-19.863 -4.03,-55.824 0,-80.73 z"
         stroke="#000000"
         stroke-width="2"
         stroke-miterlimit="8"
         fill="none"
         fill-rule="evenodd"
         id="path5" />
      <path
         d="m 756,79 c 28.389,1.3172 48.474,-1.6474 79.893,0 31.419,1.6474 39.353,1.7209 58.494,0 19.14,-1.7209 59.624,2.4932 79.893,0 20.269,-2.4932 43.02,1.023 58.49,0 15.47,-1.023 54.34,0.2407 75.62,0 21.28,-0.2407 47.46,0.6985 75.61,0 -1.98,30.102 -0.4,47.87 0,70.833 0.4,22.964 1.58,38.165 0,66.584 -1.58,28.419 0.04,52.083 0,70.833 -0.04,18.75 -0.42,35.62 0,58.083 0.42,22.464 -0.45,47.312 0,70.834 0.45,23.521 2.33,52.572 0,87.833 -17.96,-1.366 -50.16,0.795 -62.77,0 -12.61,-0.795 -51.24,-1.424 -79.9,0 -28.66,1.424 -38.58,-0.258 -75.61,0 -37.025,0.258 -33.517,1.418 -58.493,0 -24.976,-1.418 -34.195,2.052 -67.054,0 -32.858,-2.052 -48.423,3.664 -84.173,0 1.111,-31.737 -1.075,-39.969 0,-70.833 1.075,-30.864 -0.101,-60.744 0,-79.334 0.101,-18.589 1.865,-39.503 0,-75.083 -1.865,-35.58 -2.512,-47.221 0,-75.083 2.512,-27.863 0.645,-95.614 0,-124.667 z"
         stroke="#000000"
         stroke-width="2"
         stroke-miterlimit="8"
         fill="none"
         fill-rule="evenodd"
         id="path6" />
      <rect
         x="1056"
         y="79"
         width="128"
         height="425"
         stroke="#042433"
         stroke-width="2"
         stroke-miterlimit="8"
         fill="#fbe3d6"
         fill-opacity="0.388235"
         id="rect6" />
      <rect
         x="756"
         y="79"
         width="428"
         height="126"
         stroke="#042433"
         stroke-width="2"
         stroke-miterlimit="8"
         fill="#d9f2d0"
         fill-opacity="0.419608"
         id="rect7" />
      <text
         font-family="Handlee, Handlee_MSFontService, sans-serif"
         font-weight="700"
         font-size="43px"
         transform="translate(1121.6,557)"
         id="text7-9">b</text>
      <text
         font-family="Handlee, Handlee_MSFontService, sans-serif"
         font-weight="700"
         font-size="43px"
         transform="translate(726.69,160)"
         id="text8-55">b</text>
      <text
         font-family="Handlee, Handlee_MSFontService, sans-serif"
         font-weight="700"
         font-size="43px"
         transform="translate(130.69,152)"
         id="text9-4">b</text>
      <text
         font-family="Handlee, Handlee_MSFontService, sans-serif"
         font-weight="700"
         font-size="43px"
         transform="translate(517.357,545)"
         id="text10-9">b</text>
      <path
         d="M 2,-1.19303e-6 2.0001,166 h -4 L -2,1.19303e-6 Z M 6.0001,164 1.04987e-4,176 -5.9999,164 Z"
         transform="matrix(1,0,0,-1,699,255)"
         id="path10" />
      <path
         d="m 701,336 v 170 h -4 V 336 Z m 4,168 -6,12 -6,-12 z"
         id="path11" />
      <text
         font-family="Handlee, Handlee_MSFontService, sans-serif"
         font-weight="700"
         font-size="43px"
         transform="translate(688.812,314)"
         id="text11-2">a</text>
      <path
         d="M 2,-1.19303e-6 2.0001,166 h -4 L -2,1.19303e-6 Z M 6.0001,164 1.04987e-4,176 -5.9999,164 Z"
         transform="matrix(1,0,0,-1,112,255)"
         id="path12-5" />
      <path
         d="m 114,336 v 170 h -4 V 336 Z m 4,168 -6,12 -6,-12 z"
         id="path13-8" />
      <text
         font-family="Handlee, Handlee_MSFontService, sans-serif"
         font-weight="700"
         font-size="43px"
         transform="translate(102.108,314)"
         id="text13-6">a</text>
      <g
         transform="translate(311.99998,1526)"
         id="g24">
        <g
           transform="translate(733.99999,307.00005)"
           id="g8">
          <path
             d="m 160,-48 c 24.843,-2.5655 51.157,-2.5191 66.66,0 15.503,2.5191 29.895,-1.9082 51.51,0 21.615,1.9082 35.774,2.7788 66.66,0 30.886,-2.7788 29.519,-1.4508 51.51,0 21.991,1.4508 42.087,2.4012 66.66,0 -2.352,21.0613 1.149,34.2513 0,63.48 -1.149,29.2287 -2.887,39.2841 0,63.48 2.887,24.196 2.718,36.616 0,63.48 -2.718,26.864 0.648,36.909 0,69 -0.648,32.091 0.522,36.455 0,52.44 -0.522,15.985 1.272,37.201 0,69 -1.272,31.799 -2.055,48.446 0,80.04 2.055,31.594 2.526,49.275 0,91.08 -28.684,1.25 -39.296,-2.196 -57.57,0 -18.274,2.196 -38.632,0.067 -63.63,0 -24.998,-0.067 -40.12,-0.038 -51.51,0 -11.39,0.038 -40.905,0.347 -57.57,0 -16.665,-0.347 -55.404,-1.124 -72.72,0 -1.206,-31.183 2.163,-52.887 0,-69 -2.163,-16.113 1.5,-49.024 0,-80.04 -1.5,-31.016 -1.718,-37.458 0,-74.52 1.718,-37.063 0.415,-52.622 0,-74.52 -0.415,-21.898 -2.122,-46.599 0,-63.48 2.122,-16.881 -2.717,-37.011 0,-57.96 2.717,-20.9491 -3.493,-84.719555 0,-132.48 z"
             stroke="#000000"
             stroke-width="2"
             stroke-miterlimit="8"
             fill="#c2f1c8"
             fill-rule="evenodd"
             fill-opacity="0.301961"
             id="path1-9" />
          <path
             d="m 160,83 c 15.795,2.8821 36.324,-2.0244 63.63,0 27.306,2.0244 36.996,-2.7318 60.6,0 23.604,2.7318 39.684,1.0994 51.51,0 11.826,-1.0994 43.112,1.9865 60.6,0 17.488,-1.9865 49.03,2.936 66.66,0 -0.137,27.194 -3.168,34.611 0,65.957 3.168,31.346 -1.842,49.487 0,70.166 1.842,20.68 0.034,41.418 0,70.167 -0.034,28.749 2.973,41.654 0,61.747 -2.973,20.092 2.167,45.5 0,74.376 -2.167,28.876 1.277,52.154 0,78.587 -22.574,-1.635 -30.631,1.793 -60.6,0 -29.969,-1.793 -36.051,2.166 -57.57,0 -21.519,-2.166 -27.703,-0.812 -54.54,0 -26.837,0.812 -28.445,1.906 -51.51,0 -23.065,-1.906 -39.638,1.964 -78.78,0 1.838,-17.775 -2.483,-34.419 0,-65.957 2.483,-31.537 2.548,-39.701 0,-70.166 -2.548,-30.465 -2.108,-43.844 0,-61.747 2.108,-17.903 -1.506,-54.408 0,-78.587 1.506,-24.178 2.937,-49.526 0,-74.376 -2.937,-24.851 -1.692,-42.569 0,-70.167 z"
             stroke="#000000"
             stroke-width="2"
             stroke-miterlimit="8"
             fill="none"
             fill-rule="evenodd"
             id="path2-7" />
          <text
             font-family="Handlee, Handlee_MSFontService, sans-serif"
             font-weight="700"
             font-size="43px"
             transform="translate(130.69,31)"
             id="text2">b</text>
          <text
             font-family="Handlee, Handlee_MSFontService, sans-serif"
             font-weight="700"
             font-size="43px"
             transform="translate(517.357,545)"
             id="text3-3">b</text>
          <path
             d="M 2,-1.19303e-6 2.0001,166 h -4 L -2,1.19303e-6 Z M 6.0001,164 1.04987e-4,176 -5.9999,164 Z"
             transform="matrix(1,0,0,-1,112,255)"
             id="path3-3" />
          <path
             d="m 114,336 v 170 h -4 V 336 Z m 4,168 -6,12 -6,-12 z"
             id="path4-7" />
          <text
             font-family="Handlee, Handlee_MSFontService, sans-serif"
             font-weight="700"
             font-size="43px"
             transform="translate(102.108,314)"
             id="text4-3">a</text>
          <path
             d="m 463,79 c 16.136,-0.1324 42.358,6.9647 61.25,0 18.892,-6.9647 42.527,6.8029 63.75,0 3.231,20.949 -6.156,30.523 0,52.214 6.156,21.692 -2.214,42.001 0,69.215 2.214,27.213 -6.511,47.079 0,69.214 6.511,22.135 -4.493,32.723 0,60.714 4.493,27.991 -1.722,28.245 0,47.964 1.722,19.72 -6.206,40.651 0,69.215 6.206,28.563 -1.742,40.651 0,56.464 -13.802,3.612 -39.443,-0.878 -63.75,0 -24.306,0.878 -46.438,-0.189 -61.25,0 -4.929,-21.792 1.738,-28.401 0,-52.214 -1.738,-23.814 1.085,-41.516 0,-56.465 -1.085,-14.948 3.438,-32.824 0,-52.214 -3.438,-19.39 6.886,-43.347 0,-69.214 -6.886,-25.867 7.617,-39.523 0,-64.964 -7.617,-25.442 4.859,-51.146 0,-69.215 -4.859,-18.069 1.298,-33.059 0,-60.714 z"
             fill="#ff0000"
             fill-rule="evenodd"
             fill-opacity="0.180392"
             id="path5-1" />
          <path
             d="m 463,79 c 24.473,-0.4042 38.026,2.3698 61.25,0 23.224,-2.3698 40.429,4.6435 63.75,0 3.824,16.6375 -3.369,37.674 0,52.214 3.369,14.54 -3.236,43.737 0,64.965 3.236,21.227 -3.54,41.601 0,52.214 3.54,10.612 -0.163,27.73 0,47.964 0.163,20.234 -4.411,53.859 0,69.214 4.411,15.356 -2.467,27.779 0,47.965 2.467,20.185 -2.603,65.35 0,90.464 -26.017,2.746 -35.139,-2.519 -63.75,0 -28.611,2.519 -32.915,-5.919 -61.25,0 -3.317,-18.292 6.075,-40.738 0,-64.964 -6.075,-24.226 2.526,-38.041 0,-69.215 -2.526,-31.173 0.467,-28.387 0,-47.964 -0.467,-19.577 0.414,-50.615 0,-69.214 -0.414,-18.599 0.581,-44.472 0,-64.964 -0.581,-20.493 5.253,-32.475 0,-52.215 -5.253,-19.739 4.156,-43.8399 0,-56.464 z"
             stroke="#042433"
             stroke-width="2"
             stroke-miterlimit="8"
             fill="none"
             fill-rule="evenodd"
             id="path6-2" />
          <path
             d="m 416,575 h 162 v 4 H 416 Z m 160,-4 12,6 -12,6 z"
             id="path7-7" />
          <path
             d="M 1.15794e-6,-2 171.333,-1.9999 v 4 L -1.15794e-6,2 Z M 169.333,-5.9999 l 12,6.000004987 -12,5.999995013 z"
             transform="matrix(-1,0,0,1,341.333,577)"
             id="path8-5" />
          <text
             font-family="Handlee, Handlee_MSFontService, sans-serif"
             font-weight="700"
             font-size="43px"
             transform="translate(368.821,586)"
             id="text8-2">a</text>
        </g>
        <g
           clip-path="url(#clip0)"
           transform="translate(1265.3197,225.73548)"
           id="g1" />
        <g
           transform="translate(1917.9701,311.13706)"
           id="g11">
          <path
             d="m -69,196 c 22.3189,-2.837 33.1587,-1.691 58.08,0 24.9213,1.691 35.6025,-2.808 62.92,0 -1.702,32.668 1.8386,39.741 0,67.98 -1.8386,28.24 0.282,33.768 0,61.8 -0.282,28.032 1.9519,36.95 0,58.71 -1.9519,21.76 0.0747,46.582 0,61.8 -0.0746,15.218 2.1921,37.664 0,58.71 -30.7198,-0.536 -44.95548,-0.899 -62.92,0 -17.9646,0.899 -43.8198,-2.423 -58.08,0 2.5463,-24.298 0.246,-46.411 0,-64.89 -0.246,-18.479 1.4856,-46.048 0,-64.89 -1.4856,-18.842 -2.7247,-45.939 0,-67.98 2.7247,-22.041 -1.4707,-33.777 0,-52.53 1.4707,-18.753 -0.2541,-42.737 0,-58.71 z"
             fill="#c2f1c8"
             fill-rule="evenodd"
             fill-opacity="0.231373"
             id="path1-3" />
          <path
             d="m -69,196 c 17.0089,2.487 33.159,-0.069 60.50005,0 27.34105,0.069 39.43445,-1.21 60.49995,0 1.4881,17.057 -1.4602,34.278 0,52.53 1.4602,18.252 1.037,31.935 0,52.53 -1.037,20.595 1.6629,42.749 0,61.8 -1.6628,19.051 2.707,52.518 0,67.98 -2.707,15.462 0.9541,54.944 0,74.16 -28.1075,0.438 -46.24369,-2.446 -61.70999,0 -15.46631,2.446 -44.49131,1.12 -59.29001,0 -2.8838,-23.078 2.7187,-34.747 0,-61.8 -2.7187,-27.053 -0.1645,-35.285 0,-52.53 0.1645,-17.245 0.9291,-30.669 0,-55.62 -0.9291,-24.951 0.1125,-41.267 0,-55.62 -0.1125,-14.353 -3.4852,-46.758 0,-83.43 z"
             stroke="#000000"
             stroke-width="2"
             stroke-miterlimit="8"
             fill="none"
             fill-rule="evenodd"
             id="path2-1" />
          <path
             d="m -376,77 c 24.843,-2.5689 51.157,-2.5224 66.66,0 15.503,2.5224 29.895,-1.9108 51.51,0 21.615,1.9108 35.774,2.7825 66.66,0 30.886,-2.7825 29.519,-1.4527 51.51,0 21.991,1.4527 42.0869,2.4044 66.66,0 -0.1475,14.3201 -1.4562,37.876 0,66.897 1.4562,29.021 -1.5311,43.841 0,66.896 1.5311,23.056 -1.9651,52.444 0,66.897 1.9651,14.452 -0.7398,47.617 0,71.167 0.7398,23.549 2.0673,39.421 0,58.356 -2.0673,18.936 1.1671,71.105 0,96.787 -25.0827,0.782 -39.418,0.044 -66.66,0 -27.242,-0.044 -31.956,2.302 -57.57,0 -25.614,-2.302 -33.982,2.801 -66.66,0 -32.678,-2.801 -62.093,0.673 -112.11,0 0.956,-20.853 0.487,-43.298 0,-58.357 -0.487,-15.059 -2.453,-41.305 0,-71.166 2.453,-29.862 1.182,-35.942 0,-58.357 -1.182,-22.415 -3.43,-45.939 0,-71.167 3.43,-25.227 1.002,-58.569 0,-79.706 -1.002,-21.138 -3.855,-68.9121 0,-88.247 z"
             fill="#84e291"
             fill-rule="evenodd"
             fill-opacity="0.301961"
             id="path3-23" />
          <path
             d="m -376,77 c 15.795,2.8843 36.324,-2.026 63.63,0 27.306,2.026 36.996,-2.7339 60.6,0 23.604,2.7339 39.684,1.1002 51.51,0 11.826,-1.1002 43.112,1.988 60.6,0 17.488,-1.988 49.0297,2.9382 66.66,0 0.6652,25.632 -2.4535,51.067 0,66.897 2.4535,15.829 3.0775,45.665 0,71.166 -3.0775,25.502 1.5454,43.643 0,71.167 -1.5454,27.524 2.1478,37.503 0,62.627 -2.1478,25.123 -2.9188,45.647 0,75.436 2.9188,29.79 -1.3376,49.07 0,79.707 -22.5737,-1.637 -30.631,1.794 -60.6,0 -29.969,-1.794 -36.051,2.167 -57.57,0 -21.519,-2.167 -27.703,-0.813 -54.54,0 -26.837,0.813 -28.445,1.907 -51.51,0 -23.065,-1.907 -39.638,1.965 -78.78,0 -2.968,-14.132 1.963,-36.656 0,-66.897 -1.963,-30.24 -1.247,-39.523 0,-71.166 1.247,-31.644 -2.493,-49.075 0,-62.627 2.493,-13.552 3.088,-61.716 0,-79.707 -3.088,-17.99 -1.734,-53.903 0,-75.436 1.734,-21.534 2.173,-43.97 0,-71.167 z"
             stroke="#000000"
             stroke-width="2"
             stroke-miterlimit="8"
             fill="none"
             fill-rule="evenodd"
             id="path4-21" />
          <path
             d="m -376,79 c 24.843,-2.5638 51.157,-2.5174 66.66,0 15.503,2.5174 29.895,-1.907 51.51,0 21.615,1.907 35.774,2.7769 66.66,0 30.886,-2.7769 29.519,-1.4498 51.51,0 21.991,1.4498 42.0869,2.3996 66.66,0 3.1985,30.532 -0.6645,35.413 0,66.583 0.6645,31.17 1.0223,47.467 0,66.584 -1.0223,19.116 2.0032,38.009 0,66.583 -2.0033,28.574 0.0369,52.084 0,70.833 -0.0369,18.75 -0.7747,36.119 0,58.084 0.7747,21.964 2.8405,62.606 0,96.333 -25.0827,0.78 -39.418,0.044 -66.66,0 -27.242,-0.044 -31.956,2.297 -57.57,0 -25.614,-2.297 -33.982,2.795 -66.66,0 -32.678,-2.796 -62.093,0.672 -112.11,0 2.449,-22.628 1.741,-46.186 0,-58.083 -1.741,-11.897 -0.857,-56.128 0,-70.834 0.857,-14.705 2.363,-40.605 0,-58.083 -2.363,-17.478 -1.076,-39.969 0,-70.833 1.076,-30.864 -0.101,-60.744 0,-79.334 0.101,-18.589 -3.433,-48.597 0,-87.833 z"
             stroke="#000000"
             stroke-width="2"
             stroke-miterlimit="8"
             fill="none"
             fill-rule="evenodd"
             id="path5-9" />
          <text
             font-family="Handlee, Handlee_MSFontService, sans-serif"
             font-weight="700"
             font-size="43px"
             transform="translate(-405.093,152)"
             id="text5-7">b</text>
          <text
             font-family="Handlee, Handlee_MSFontService, sans-serif"
             font-weight="700"
             font-size="43px"
             transform="translate(-18.4261,545)"
             id="text6-4">b</text>
          <path
             d="M 2,-1.19303e-6 2.0001,166 h -4 L -2,1.19303e-6 Z M 6.0001,164 1.04987e-4,176 -5.9999,164 Z"
             transform="matrix(1,0,0,-1,-424,255)"
             id="path6-24" />
          <path
             d="m -422,336 v 170 h -4 V 336 Z m 4,168 -6,12 -6,-12 z"
             id="path7-78" />
          <text
             font-family="Handlee, Handlee_MSFontService, sans-serif"
             font-weight="700"
             font-size="43px"
             transform="translate(-433.675,314)"
             id="text7-6">a</text>
          <path
             d="m -73,79 c 16.1364,-0.1322 42.3585,6.954 61.25,0 18.89163,-6.954 42.5269,6.7924 63.75,0 2.9798,15.931 -0.0145,30.48 0,56.16 0.0144,25.68 -0.6567,37.082 0,60.84 -28.2113,6.433 -41.0097,-6.577 -65,0 -23.9901,6.577 -42.3443,-4.582 -60,0 -5.6472,-23.984 4.4542,-47.047 0,-60.84 -4.4542,-13.793 2.3174,-40.5176 0,-56.16 z"
             fill="#ff0000"
             fill-rule="evenodd"
             fill-opacity="0.180392"
             id="path8-4" />
          <path
             d="m -73,79 c 17.1154,-0.959 43.794,1.061 60,0 16.20609,-1.061 46.1483,5.0875 65,0 1.5214,25.65 -5.3253,33.109 0,59.67 5.3253,26.561 -5.8957,33.226 0,57.33 -17.624,3.779 -35.2286,-6.482 -62.5,0 -27.2713,6.482 -43.9039,-2.545 -62.5,0 -3.3036,-21.093 1.9909,-43.084 0,-60.84 -1.9909,-17.756 3.8243,-31.925 0,-56.16 z"
             stroke="#042433"
             stroke-width="2"
             stroke-miterlimit="8"
             fill="none"
             fill-rule="evenodd"
             id="path9-9" />
          <path
             d="M -120,575 H 41.9999 v 4 H -120 Z m 159.9999,-4 12,6 -12,6 z"
             id="path10-1" />
          <path
             d="M 1.15794e-6,-2 171.333,-1.9999 v 4 L -1.15794e-6,2 Z M 169.333,-5.9999 l 12,6.000004987 -12,5.999995013 z"
             transform="matrix(-1,0,0,1,-194.667,577)"
             id="path11-7" />
          <text
             font-family="Handlee, Handlee_MSFontService, sans-serif"
             font-weight="700"
             font-size="43px"
             transform="translate(-166.962,586)"
             id="text11-1">a</text>
        </g>
      </g>
    </g>
  </g>
</svg>
