<svg width="908.753" height="458.98" viewBox="0 0 240.441 121.438" xmlns="http://www.w3.org/2000/svg" xmlns:xlink="http://www.w3.org/1999/xlink" id="svg5" overflow="hidden"><defs id="defs2"></defs><g id="layer1" transform="translate(-591.68 -620.926)"><g id="g20312" transform="matrix(0.264583 0 0 0.264583 522.945 586.159)"><path d="M262 136C287.474 134.721 298.016 134.431 317.409 136 336.801 137.569 361.207 138.056 386.347 136 411.488 133.944 426.333 137.404 441.756 136 457.178 134.596 474.054 133.365 501.674 136 529.295 138.635 538.184 135.244 570.613 136 603.042 136.756 604.946 137.356 626.021 136 647.097 134.644 687.637 139.198 713 136 711.812 160.061 711.356 171.539 713 187.011 714.644 202.484 709.862 227.805 713 260.623 716.138 293.44 711.56 299.592 713 311.634 714.44 323.676 711.711 350.885 713 362.646 714.289 374.406 714.978 398.861 713 413.657 711.022 428.453 715.914 458.383 713 473.709 710.086 489.034 714.667 514.756 713 529.24 711.333 543.724 711.7 558.907 713 588 683.287 587.647 663.722 586.689 644.061 588 624.401 589.311 601.368 586.325 570.613 588 539.858 589.675 542.289 587.71 515.204 588 488.12 588.29 484.61 588.18 464.306 588 444.002 587.82 429.462 586.301 399.877 588 370.292 589.699 371.304 587.502 344.469 588 317.633 588.498 292.647 589.861 262 588 265.363 564.606 259.443 546.997 262 518.909 264.557 490.82 265.013 473.112 262 454.337 258.987 435.562 264.169 412.129 262 394.286 259.831 376.443 259.429 353.496 262 329.714 264.571 305.933 261.446 291.189 262 260.623 262.554 230.057 261.083 221.044 262 200.571 262.917 180.099 263.093 158.679 262 136Z" id="path20286" fill="#F2F2F2" fill-rule="evenodd"/><path d="M262 136C275.551 136.607 289.893 135.968 312.899 136 335.904 136.032 364.823 139.171 381.837 136 398.851 132.829 423.199 135.249 437.246 136 451.292 136.751 470.109 137.355 501.674 136 533.24 134.645 544.062 133.473 566.103 136 588.143 138.527 604.529 134.522 621.511 136 638.493 137.478 693.964 135.567 713 136 712.14 165.291 713.563 176.024 713 196.051 712.437 216.078 711.286 236.432 713 260.623 714.714 284.814 714.839 310.389 713 329.714 711.161 349.04 712.208 365.155 713 394.286 713.792 423.417 714.125 427.044 713 449.817 711.875 472.59 712.362 482.263 713 509.869 713.638 537.474 714.616 560.058 713 588 689.836 584.597 658.812 587.108 644.061 588 629.311 588.892 611.814 585.148 584.143 588 556.471 590.852 542.701 588.475 510.694 588 478.688 587.525 465.155 590.265 446.266 588 427.377 585.735 389.598 591.281 372.817 588 356.036 584.719 286.215 583.8 262 588 262.159 555.017 264.064 541.791 262 518.909 259.936 496.026 263.812 488.051 262 458.857 260.188 429.663 261.21 417.186 262 403.326 262.79 389.466 265.421 367.577 262 334.234 258.579 300.891 265.508 281.082 262 260.623 258.492 240.164 263.906 213.035 262 200.571 260.094 188.108 265.05 163.77 262 136Z" id="path20288" stroke="#042433" stroke-width="2" stroke-miterlimit="8" fill="none" fill-rule="evenodd"/><path d="M715 134C740.474 132.722 751.016 132.431 770.409 134 789.801 135.569 814.207 136.056 839.347 134 864.488 131.944 879.333 135.404 894.756 134 910.178 132.596 927.054 131.365 954.674 134 982.295 136.635 991.184 133.244 1023.61 134 1056.04 134.756 1057.95 135.356 1079.02 134 1100.1 132.644 1140.64 137.197 1166 134 1168.22 145.255 1165.61 174.851 1166 185.237 1166.39 195.623 1162.51 239.548 1166 259.174 1169.49 278.8 1163.51 293.451 1166 310.411 1168.49 327.372 1164.99 344.917 1166 361.649 1167.01 378.381 1163.82 393.8 1166 412.886 1168.18 431.971 1165.1 446.532 1166 473.203 1166.9 499.874 1163.98 515.539 1166 528.98 1168.02 542.421 1164.39 567.745 1166 588 1136.29 587.647 1116.72 586.689 1097.06 588 1077.4 589.311 1054.37 586.325 1023.61 588 992.858 589.675 995.289 587.71 968.204 588 941.12 588.289 937.61 588.18 917.306 588 897.002 587.82 882.462 586.301 852.877 588 823.292 589.699 824.304 587.502 797.469 588 770.633 588.498 745.647 589.861 715 588 712.125 568.388 717.764 542.613 715 518.603 712.236 494.593 717.076 468.263 715 453.746 712.924 439.228 715.006 409.512 715 393.429 714.994 377.345 711.989 357.116 715 328.571 718.011 300.027 718.446 288.821 715 259.174 711.554 229.527 714.214 220.179 715 198.857 715.786 177.535 716.614 153.373 715 134Z" id="path20290" fill="#C5E0B4" fill-rule="evenodd"/><path d="M715 134C728.551 134.607 742.893 133.968 765.899 134 788.904 134.032 817.823 137.171 834.837 134 851.851 130.829 876.199 133.249 890.246 134 904.292 134.751 923.109 135.355 954.674 134 986.24 132.645 997.062 131.473 1019.1 134 1041.14 136.527 1057.53 132.522 1074.51 134 1091.49 135.478 1146.96 133.567 1166 134 1166.36 151.48 1168.18 173.845 1166 194.317 1163.82 214.789 1167.67 238.271 1166 259.174 1164.33 280.078 1167.58 311.888 1166 328.571 1164.42 345.255 1165.93 369.883 1166 393.429 1166.07 416.974 1163.96 429.462 1166 449.206 1168.04 468.95 1168.05 495.022 1166 509.523 1163.95 524.024 1162.87 568.829 1166 588 1142.84 584.597 1111.81 587.108 1097.06 588 1082.31 588.892 1064.81 585.148 1037.14 588 1009.47 590.852 995.701 588.475 963.694 588 931.688 587.525 918.155 590.265 899.266 588 880.377 585.735 842.598 591.281 825.817 588 809.036 584.719 739.215 583.8 715 588 715.123 573.704 718.113 552.298 715 518.603 711.887 484.908 717.973 472.357 715 458.286 712.027 444.214 713.258 429.742 715 402.509 716.742 375.276 711.677 354.12 715 333.111 718.323 312.103 716.731 295.941 715 259.174 713.269 222.408 714.032 219.877 715 198.857 715.968 177.837 711.982 163.073 715 134Z" id="path20292" stroke="#042433" stroke-width="2" stroke-miterlimit="8" fill="none" fill-rule="evenodd"/><text id="text20294" font-family="Kalam,Kalam_MSFontService,Arial" font-weight="400" font-size="40" transform="translate(375.24 345)">Stillingen blir</text><text id="text20296" font-family="Kalam,Kalam_MSFontService,Arial" font-weight="400" font-size="40" transform="translate(463.907 393)">4</text><text id="text20298" font-family="Kalam,Kalam_MSFontService,Arial" font-weight="400" font-size="40" transform="translate(485.907 393)">-</text><text id="text20300" font-family="Kalam,Kalam_MSFontService,Arial" font-weight="400" font-size="40" transform="translate(504.24 393)">3</text><text id="text20302" font-family="Kalam,Kalam_MSFontService,Arial" font-weight="400" font-size="40" transform="translate(889.891 322)">Stillingen</text><text id="text20304" font-family="Kalam,Kalam_MSFontService,Arial" font-weight="400" font-size="40" transform="translate(940.638 370)">blir</text><text id="text20306" font-family="Kalam,Kalam_MSFontService,Arial" font-weight="400" font-size="40" transform="translate(943.891 418)">5</text><text id="text20308" font-family="Kalam,Kalam_MSFontService,Arial" font-weight="400" font-size="40" transform="translate(965.391 418)">-</text><text id="text20310" font-family="Kalam,Kalam_MSFontService,Arial" font-weight="400" font-size="40" transform="translate(983.724 418)">2</text></g></g></svg>