<svg width="633.126" height="567.677" viewBox="0 0 167.515 150.198" xmlns="http://www.w3.org/2000/svg" xmlns:xlink="http://www.w3.org/1999/xlink" id="svg5" overflow="hidden"><defs id="defs2"></defs><g id="layer1" transform="translate(-32.0224 -590.634)"><g id="g5502" transform="matrix(0.264583 0 0 0.264583 -34.5187 575.997)"><path d="M323.511 425 458.375 425 458.375 529.579C458.375 546.977 472.483 561.08 489.886 561.08L534 561.08 534 582.499C534 599.897 519.892 614 502.489 614L323.511 614C306.108 614 292 599.897 292 582.499L292 456.501C292 439.103 306.108 425 323.511 425Z" id="path5486" stroke="#042433" stroke-width="2" stroke-miterlimit="8" fill="#C5E0B4" fill-rule="evenodd" fill-opacity="0.701961"/><path d="M254 58C273.843 59.8877 285.927 58.5387 311.218 58 336.509 57.4613 366.259 59.9936 387.276 58 408.292 56.0064 422.769 57.6171 444.493 58 466.217 58.3829 493.435 58.0226 507.991 58 522.547 57.9774 550.391 60.052 584.049 58 617.707 55.948 616.501 56.3115 641.267 58 666.032 59.6885 691.106 55.3861 704.764 58 718.423 60.6139 732.318 56.698 755.702 58 779.086 59.302 839.243 56.9344 882 58 882.885 71.4787 884.032 97.1367 882 124.4 879.968 151.663 883.295 164.501 882 180.84 880.705 197.179 882.366 222.565 882 237.28 881.634 251.995 883.17 276.785 882 300.36 880.83 323.935 879.629 371.853 882 390 870.628 391.618 843.31 388.085 831.062 390 818.814 391.915 783.416 391.971 748.724 390 714.033 388.029 706.626 392.451 666.387 390 626.147 387.549 630.564 389.684 609.169 390 587.774 390.316 579.787 389.654 558.231 390 536.676 390.346 505.268 387.035 488.453 390 471.638 392.965 448.957 390.9 431.236 390 413.514 389.1 388.087 392.848 367.738 390 347.388 387.152 288.053 386.556 254 390 252.572 367.093 253.201 335.433 254 316.96 254.799 298.487 253.747 272.951 254 253.88 254.253 234.809 252.778 214.792 254 187.48 255.222 160.168 252.191 137.186 254 117.76 255.809 98.3338 252.042 72.3495 254 58Z" id="path5488" fill="#F2F2F2" fill-rule="evenodd"/><path d="M254 58C277.676 58.4478 309.807 56.0796 323.778 58 337.749 59.9204 379.101 57.0424 393.556 58 408.01 58.9576 432.68 61.3665 469.613 58 506.547 54.6335 501.747 57.8188 526.831 58 551.915 58.1812 562.072 54.7913 596.609 58 631.145 61.2087 636.45 55.8509 666.387 58 696.323 60.1491 697.979 60.7275 723.604 58 749.23 55.2725 752.141 60.0993 774.542 58 796.944 55.9007 851.39 55.6418 882 58 883.531 69.3342 883.688 99.5452 882 114.44 880.312 129.335 878.574 155.001 882 184.16 885.426 213.319 882.416 226.57 882 250.56 881.584 274.55 883.631 286.085 882 310.32 880.369 334.555 885.649 351.225 882 390 870.863 388.069 847.324 391.272 831.062 390 814.801 388.728 772.088 388.632 748.724 390 725.361 391.368 711.362 389.093 685.227 390 659.091 390.907 626.851 390.61 602.889 390 578.927 389.39 565.653 390.465 533.111 390 500.569 389.535 475.877 387.227 450.773 390 425.669 392.773 391.793 391.559 374.716 390 357.639 388.441 298.268 387.562 254 390 252.558 355.875 254.903 345.846 254 316.96 253.097 288.074 253.792 278.324 254 257.2 254.208 236.076 251.018 206.334 254 187.48 256.982 168.626 249.438 112.667 254 58Z" id="path5490" stroke="#042433" stroke-width="2" stroke-miterlimit="8" fill="none" fill-rule="evenodd"/><path d="M330 214.501C330 197.103 344.103 183 361.5 183L540.5 183C557.897 183 572 197.103 572 214.501L572 340.499C572 357.897 557.897 372 540.5 372L361.5 372C344.103 372 330 357.897 330 340.499Z" id="path5492" stroke="#042433" stroke-width="2" stroke-miterlimit="8" fill="#C5E0B4" fill-rule="evenodd" fill-opacity="0.701961"/><path d="M496 161.501C496 144.103 510.103 130 527.5 130L706.5 130C723.897 130 738 144.103 738 161.501L738 287.499C738 304.897 723.897 319 706.5 319L527.5 319C510.103 319 496 304.897 496 287.499Z" id="path5494" stroke="#042433" stroke-width="2" stroke-miterlimit="8" fill="#F8CECC" fill-rule="evenodd" fill-opacity="0.701961"/><path d="M648.511 425 827.489 425C844.892 425 859 439.103 859 456.501L859 582.499C859 599.897 844.892 614 827.489 614L692.625 614 692.625 509.421C692.625 492.023 678.517 477.92 661.114 477.92L617 477.92 617 456.501C617 439.103 631.108 425 648.511 425Z" id="path5496" stroke="#042433" stroke-width="2" stroke-miterlimit="8" fill="#F8CECC" fill-rule="evenodd" fill-opacity="0.701961"/><path d="M466 418 510.333 418C527.822 418 542 432.095 542 449.482L542 554 497.667 554C480.178 554 466 539.905 466 522.518Z" id="path5498" stroke="#042433" stroke-width="2" stroke-miterlimit="8" fill="#F2F2F2" fill-rule="evenodd" fill-opacity="0.701961"/><path d="M610 486 653.749 486C671.009 486 685 500.095 685 517.482L685 622 641.251 622C623.991 622 610 607.905 610 590.518Z" id="path5500" stroke="#042433" stroke-width="2" stroke-miterlimit="8" fill="#F2F2F2" fill-rule="evenodd" fill-opacity="0.701961"/></g></g></svg>