<svg width="908.667" height="459.028" viewBox="0 0 240.418 121.451" xmlns="http://www.w3.org/2000/svg" xmlns:xlink="http://www.w3.org/1999/xlink" id="svg5" overflow="hidden"><defs id="defs2"></defs><g id="layer1" transform="translate(-808.821 -734.823)"><g id="g22300" transform="matrix(0.264583 0 0 0.264583 740.064 700.057)"><path d="M262 136C287.474 134.721 298.016 134.431 317.409 136 336.801 137.569 361.207 138.056 386.347 136 411.488 133.944 426.333 137.404 441.756 136 457.178 134.596 474.054 133.365 501.674 136 529.295 138.635 538.184 135.244 570.613 136 603.042 136.756 604.946 137.356 626.021 136 647.097 134.644 687.637 139.198 713 136 711.211 154.685 713.42 174.753 713 185.72 712.58 196.687 714.187 229.216 713 246.74 711.813 264.264 714.07 284.087 713 296.46 711.93 308.833 710.413 342.633 713 362 688.79 363.893 680.197 362.079 662.101 362 644.005 361.921 619.78 363.128 602.183 362 584.585 360.872 554.52 358.655 528.734 362 502.949 365.345 477.388 360.704 464.306 362 451.223 363.296 420.15 364.959 390.857 362 361.564 359.041 348.586 360.855 317.409 362 286.231 363.145 289.084 361.71 262 362 259.875 338.499 262.346 327.699 262 312.28 261.654 296.861 259.102 272.972 262 251.26 264.898 229.548 261.243 215.429 262 197.02 262.757 178.612 264.359 163.257 262 136Z" id="path22258" fill="#F2F2F2" fill-rule="evenodd"/><path d="M262 136C283.342 137.318 309.314 137.467 321.919 136 334.523 134.533 362.452 133.741 372.817 136 383.182 138.259 409.976 137.667 423.716 136 437.455 134.333 456.984 136.397 474.614 136 492.245 135.603 504.426 134.811 525.513 136 546.599 137.189 565.075 135.08 580.921 136 596.767 136.92 625.027 135.393 649.86 136 674.693 136.607 698.772 137.691 713 136 715.476 150.899 714.928 179.65 713 194.76 711.072 209.87 710.441 229.972 713 249 715.559 268.028 712.889 283.474 713 298.72 713.111 313.967 714.139 347.241 713 362 679.799 358.752 670.403 364.404 644.061 362 617.72 359.596 610.891 364.267 584.143 362 557.394 359.733 543.975 358.341 510.694 362 477.413 365.659 467.084 359.777 446.266 362 425.447 364.223 411.91 360.319 386.347 362 360.784 363.681 289.158 364.104 262 362 259.326 345.098 262.29 316.664 262 303.24 261.71 289.816 261.146 268.451 262 246.74 262.854 225.029 262.688 218.604 262 192.5 261.312 166.396 264.021 153.236 262 136Z" id="path22260" stroke="#042433" stroke-width="2" stroke-miterlimit="8" fill="none" fill-rule="evenodd"/><path d="M715 134C740.474 132.722 751.016 132.431 770.409 134 789.801 135.569 814.207 136.056 839.347 134 864.488 131.944 879.333 135.404 894.756 134 910.178 132.596 927.054 131.365 954.674 134 982.295 136.635 991.184 133.244 1023.61 134 1056.04 134.756 1057.95 135.356 1079.02 134 1100.1 132.644 1140.64 137.197 1166 134 1168.22 145.255 1165.61 174.851 1166 185.237 1166.39 195.623 1162.51 239.548 1166 259.174 1169.49 278.8 1163.51 293.451 1166 310.411 1168.49 327.372 1164.99 344.917 1166 361.649 1167.01 378.381 1163.82 393.8 1166 412.886 1168.18 431.971 1165.1 446.532 1166 473.203 1166.9 499.874 1163.98 515.539 1166 528.98 1168.02 542.421 1164.39 567.745 1166 588 1136.29 587.647 1116.72 586.689 1097.06 588 1077.4 589.311 1054.37 586.325 1023.61 588 992.858 589.675 995.289 587.71 968.204 588 941.12 588.289 937.61 588.18 917.306 588 897.002 587.82 882.462 586.301 852.877 588 823.292 589.699 824.304 587.502 797.469 588 770.633 588.498 745.647 589.861 715 588 712.125 568.388 717.764 542.613 715 518.603 712.236 494.593 717.076 468.263 715 453.746 712.924 439.228 715.006 409.512 715 393.429 714.994 377.345 711.989 357.116 715 328.571 718.011 300.027 718.446 288.821 715 259.174 711.554 229.527 714.214 220.179 715 198.857 715.786 177.535 716.614 153.373 715 134Z" id="path22262" fill="#C5E0B4" fill-rule="evenodd"/><path d="M715 134C728.551 134.607 742.893 133.968 765.899 134 788.904 134.032 817.823 137.171 834.837 134 851.851 130.829 876.199 133.249 890.246 134 904.292 134.751 923.109 135.355 954.674 134 986.24 132.645 997.062 131.473 1019.1 134 1041.14 136.527 1057.53 132.522 1074.51 134 1091.49 135.478 1146.96 133.567 1166 134 1166.36 151.48 1168.18 173.845 1166 194.317 1163.82 214.789 1167.67 238.271 1166 259.174 1164.33 280.078 1167.58 311.888 1166 328.571 1164.42 345.255 1165.93 369.883 1166 393.429 1166.07 416.974 1163.96 429.462 1166 449.206 1168.04 468.95 1168.05 495.022 1166 509.523 1163.95 524.024 1162.87 568.829 1166 588 1142.84 584.597 1111.81 587.108 1097.06 588 1082.31 588.892 1064.81 585.148 1037.14 588 1009.47 590.852 995.701 588.475 963.694 588 931.688 587.525 918.155 590.265 899.266 588 880.377 585.735 842.598 591.281 825.817 588 809.036 584.719 739.215 583.8 715 588 715.123 573.704 718.113 552.298 715 518.603 711.887 484.908 717.973 472.357 715 458.286 712.027 444.214 713.258 429.742 715 402.509 716.742 375.276 711.677 354.12 715 333.111 718.323 312.103 716.731 295.941 715 259.174 713.269 222.408 714.032 219.877 715 198.857 715.968 177.837 711.982 163.073 715 134Z" id="path22264" stroke="#042433" stroke-width="2" stroke-miterlimit="8" fill="none" fill-rule="evenodd"/><path d="M264 362C289.417 360.721 299.936 360.431 319.286 362 338.635 363.569 362.987 364.056 388.071 362 413.156 359.944 427.969 363.404 443.357 362 458.745 360.596 475.584 359.365 503.143 362 530.702 364.635 539.571 361.244 571.929 362 604.286 362.756 606.186 363.356 627.214 362 648.243 360.644 688.693 365.198 714 362 712.215 380.685 714.419 400.753 714 411.72 713.581 422.687 715.185 455.216 714 472.74 712.815 490.264 715.067 510.087 714 522.46 712.933 534.833 711.418 568.633 714 588 689.844 589.893 681.27 588.079 663.214 588 645.158 587.921 620.987 589.128 603.429 588 585.87 586.872 555.871 584.655 530.143 588 504.414 591.345 478.911 586.704 465.857 588 452.804 589.296 421.799 590.959 392.571 588 363.344 585.041 350.394 586.855 319.286 588 288.178 589.145 291.024 587.71 264 588 261.88 564.499 264.345 553.699 264 538.28 263.655 522.861 261.108 498.972 264 477.26 266.892 455.548 263.245 441.429 264 423.02 264.755 404.612 266.354 389.257 264 362Z" id="path22266" fill="#C5E0B4" fill-rule="evenodd"/><path d="M264 362C285.295 363.318 311.209 363.467 323.786 362 336.362 360.533 364.23 359.741 374.571 362 384.913 364.259 411.648 363.667 425.357 362 439.066 360.333 458.551 362.397 476.143 362 493.734 361.603 505.889 360.811 526.929 362 547.968 363.189 566.403 361.08 582.214 362 598.025 362.92 626.223 361.393 651 362 675.777 362.607 699.804 363.691 714 362 716.471 376.899 715.924 405.65 714 420.76 712.076 435.87 711.447 455.972 714 475 716.553 494.028 713.889 509.474 714 524.72 714.111 539.967 715.137 573.241 714 588 680.872 584.752 671.497 590.404 645.214 588 618.931 585.596 612.118 590.267 585.429 588 558.739 585.733 545.35 584.341 512.143 588 478.936 591.659 468.63 585.777 447.857 588 427.085 590.223 413.578 586.319 388.071 588 362.565 589.681 291.097 590.104 264 588 261.332 571.098 264.29 542.664 264 529.24 263.71 515.816 263.148 494.451 264 472.74 264.852 451.029 264.686 444.604 264 418.5 263.314 392.396 266.016 379.236 264 362Z" id="path22268" stroke="#042433" stroke-width="2" stroke-miterlimit="8" fill="none" fill-rule="evenodd"/><text id="text22270" font-family="Kalam,Kalam_MSFontService,Arial" font-weight="400" font-size="40" transform="translate(410.903 439)">Stillingen</text><text id="text22272" font-family="Kalam,Kalam_MSFontService,Arial" font-weight="400" font-size="40" transform="translate(461.649 487)">blir</text><text id="text22274" font-family="Kalam,Kalam_MSFontService,Arial" font-weight="400" font-size="40" transform="translate(465.069 535)">5</text><text id="text22276" font-family="Kalam,Kalam_MSFontService,Arial" font-weight="400" font-size="40" transform="translate(486.569 535)">-</text><text id="text22278" font-family="Kalam,Kalam_MSFontService,Arial" font-weight="400" font-size="40" transform="translate(504.903 535)">3</text><text id="text22280" font-family="Kalam,Kalam_MSFontService,Arial" font-weight="400" font-size="40" transform="translate(409.534 219)">Stillingen</text><text id="text22282" font-family="Kalam,Kalam_MSFontService,Arial" font-weight="400" font-size="40" transform="translate(460.281 267)">blir</text><text id="text22284" font-family="Kalam,Kalam_MSFontService,Arial" font-weight="400" font-size="40" transform="translate(463.867 315)">4</text><text id="text22286" font-family="Kalam,Kalam_MSFontService,Arial" font-weight="400" font-size="40" transform="translate(485.867 315)">-</text><text id="text22288" font-family="Kalam,Kalam_MSFontService,Arial" font-weight="400" font-size="40" transform="translate(504.201 315)">4</text><text id="text22290" font-family="Kalam,Kalam_MSFontService,Arial" font-weight="400" font-size="40" transform="translate(870.982 322)">Stillingen</text><text id="text22292" font-family="Kalam,Kalam_MSFontService,Arial" font-weight="400" font-size="40" transform="translate(921.729 370)">blir</text><text id="text22294" font-family="Kalam,Kalam_MSFontService,Arial" font-weight="400" font-size="40" transform="translate(924.982 418)">5</text><text id="text22296" font-family="Kalam,Kalam_MSFontService,Arial" font-weight="400" font-size="40" transform="translate(946.482 418)">-</text><text id="text22298" font-family="Kalam,Kalam_MSFontService,Arial" font-weight="400" font-size="40" transform="translate(964.816 418)">2</text></g></g></svg>