<svg width="906.664" height="459.028" viewBox="0 0 239.888 121.451" xmlns="http://www.w3.org/2000/svg" xmlns:xlink="http://www.w3.org/1999/xlink" id="svg5" overflow="hidden"><defs id="defs2"></defs><g id="layer1" transform="translate(-563.481 -843.388)"><g id="g24362" transform="matrix(0.264583 0 0 0.264583 494.193 808.622)"><path d="M715 134C740.474 132.722 751.016 132.431 770.409 134 789.801 135.569 814.207 136.056 839.347 134 864.488 131.944 879.333 135.404 894.756 134 910.178 132.596 927.054 131.365 954.674 134 982.295 136.635 991.184 133.244 1023.61 134 1056.04 134.756 1057.95 135.356 1079.02 134 1100.1 132.644 1140.64 137.197 1166 134 1168.22 145.255 1165.61 174.851 1166 185.237 1166.39 195.623 1162.51 239.548 1166 259.174 1169.49 278.8 1163.51 293.451 1166 310.411 1168.49 327.372 1164.99 344.917 1166 361.649 1167.01 378.381 1163.82 393.8 1166 412.886 1168.18 431.971 1165.1 446.532 1166 473.203 1166.9 499.874 1163.98 515.539 1166 528.98 1168.02 542.421 1164.39 567.745 1166 588 1136.29 587.647 1116.72 586.689 1097.06 588 1077.4 589.311 1054.37 586.325 1023.61 588 992.858 589.675 995.289 587.71 968.204 588 941.12 588.289 937.61 588.18 917.306 588 897.002 587.82 882.462 586.301 852.877 588 823.292 589.699 824.304 587.502 797.469 588 770.633 588.498 745.647 589.861 715 588 712.125 568.388 717.764 542.613 715 518.603 712.236 494.593 717.076 468.263 715 453.746 712.924 439.228 715.006 409.512 715 393.429 714.994 377.345 711.989 357.116 715 328.571 718.011 300.027 718.446 288.821 715 259.174 711.554 229.527 714.214 220.179 715 198.857 715.786 177.535 716.614 153.373 715 134Z" id="path24306" fill="#C5E0B4" fill-rule="evenodd"/><path d="M715 134C728.551 134.607 742.893 133.968 765.899 134 788.904 134.032 817.823 137.171 834.837 134 851.851 130.829 876.199 133.249 890.246 134 904.292 134.751 923.109 135.355 954.674 134 986.24 132.645 997.062 131.473 1019.1 134 1041.14 136.527 1057.53 132.522 1074.51 134 1091.49 135.478 1146.96 133.567 1166 134 1166.36 151.48 1168.18 173.845 1166 194.317 1163.82 214.789 1167.67 238.271 1166 259.174 1164.33 280.078 1167.58 311.888 1166 328.571 1164.42 345.255 1165.93 369.883 1166 393.429 1166.07 416.974 1163.96 429.462 1166 449.206 1168.04 468.95 1168.05 495.022 1166 509.523 1163.95 524.024 1162.87 568.829 1166 588 1142.84 584.597 1111.81 587.108 1097.06 588 1082.31 588.892 1064.81 585.148 1037.14 588 1009.47 590.852 995.701 588.475 963.694 588 931.688 587.525 918.155 590.265 899.266 588 880.377 585.735 842.598 591.281 825.817 588 809.036 584.719 739.215 583.8 715 588 715.123 573.704 718.113 552.298 715 518.603 711.887 484.908 717.973 472.357 715 458.286 712.027 444.214 713.258 429.742 715 402.509 716.742 375.276 711.677 354.12 715 333.111 718.323 312.103 716.731 295.941 715 259.174 713.269 222.408 714.032 219.877 715 198.857 715.968 177.837 711.982 163.073 715 134Z" id="path24308" stroke="#042433" stroke-width="2" stroke-miterlimit="8" fill="none" fill-rule="evenodd"/><path d="M264 362C289.417 360.721 299.936 360.431 319.286 362 338.635 363.569 362.987 364.056 388.071 362 413.156 359.944 427.969 363.404 443.357 362 458.745 360.596 475.584 359.365 503.143 362 530.702 364.635 539.571 361.244 571.929 362 604.286 362.756 606.186 363.356 627.214 362 648.243 360.644 688.693 365.198 714 362 712.215 380.685 714.419 400.753 714 411.72 713.581 422.687 715.185 455.216 714 472.74 712.815 490.264 715.067 510.087 714 522.46 712.933 534.833 711.418 568.633 714 588 689.844 589.893 681.27 588.079 663.214 588 645.158 587.921 620.987 589.128 603.429 588 585.87 586.872 555.871 584.655 530.143 588 504.414 591.345 478.911 586.704 465.857 588 452.804 589.296 421.799 590.959 392.571 588 363.344 585.041 350.394 586.855 319.286 588 288.178 589.145 291.024 587.71 264 588 261.88 564.499 264.345 553.699 264 538.28 263.655 522.861 261.108 498.972 264 477.26 266.892 455.548 263.245 441.429 264 423.02 264.755 404.612 266.354 389.257 264 362Z" id="path24310" fill="#C5E0B4" fill-rule="evenodd"/><path d="M264 362C285.295 363.318 311.209 363.467 323.786 362 336.362 360.533 364.23 359.741 374.571 362 384.913 364.259 411.648 363.667 425.357 362 439.066 360.333 458.551 362.397 476.143 362 493.734 361.603 505.889 360.811 526.929 362 547.968 363.189 566.403 361.08 582.214 362 598.025 362.92 626.223 361.393 651 362 675.777 362.607 699.804 363.691 714 362 716.471 376.899 715.924 405.65 714 420.76 712.076 435.87 711.447 455.972 714 475 716.553 494.028 713.889 509.474 714 524.72 714.111 539.967 715.137 573.241 714 588 680.872 584.752 671.497 590.404 645.214 588 618.931 585.596 612.118 590.267 585.429 588 558.739 585.733 545.35 584.341 512.143 588 478.936 591.659 468.63 585.777 447.857 588 427.085 590.223 413.578 586.319 388.071 588 362.565 589.681 291.097 590.104 264 588 261.332 571.098 264.29 542.664 264 529.24 263.71 515.816 263.148 494.451 264 472.74 264.852 451.029 264.686 444.604 264 418.5 263.314 392.396 266.016 379.236 264 362Z" id="path24312" stroke="#042433" stroke-width="2" stroke-miterlimit="8" fill="none" fill-rule="evenodd"/><path d="M490 134C514.662 131.856 524.697 135.539 541.98 134 559.263 132.461 583.348 134.844 600.74 134 618.132 133.156 640.868 132.69 652.72 134 664.572 135.31 701.785 132.616 716 134 718.367 159.719 714.344 167.662 716 193.28 717.656 218.898 714.153 236.867 716 254.84 717.847 272.813 717.946 330.392 716 362 702.541 359.417 687.905 360.113 664.02 362 640.135 363.887 635.755 361.812 612.04 362 588.325 362.188 580.724 362.823 555.54 362 530.357 361.177 509.892 364.216 490 362 489.018 342.01 488.013 318.242 490 305 491.987 291.758 491.149 267.872 490 250.28 488.851 232.688 488.822 213.222 490 200.12 491.178 187.018 490.545 163.558 490 134Z" id="path24314" fill="#C5E0B4" fill-rule="evenodd"/><path d="M490 134C504.358 134.538 528.429 132.889 539.72 134 551.011 135.111 585.227 132.554 600.74 134 616.253 135.446 638.474 132.727 659.5 134 680.526 135.273 689.439 133.051 716 134 713.415 148.553 715.27 174.777 716 191 716.73 207.223 717.871 237.915 716 250.28 714.129 262.645 719 298.825 716 311.84 713 324.855 714.291 350.156 716 362 693.217 359.563 686.475 363.381 659.5 362 632.525 360.619 626.064 361.38 600.74 362 575.416 362.62 571.042 359.965 546.5 362 521.958 364.035 516.963 359.336 490 362 489.518 346.987 490.533 325.999 490 311.84 489.467 297.681 491.35 266.229 490 252.56 488.65 238.891 488.423 212.666 490 200.12 491.577 187.574 488.519 151.178 490 134Z" id="path24316" stroke="#042433" stroke-width="2" stroke-miterlimit="8" fill="none" fill-rule="evenodd"/><path d="M265 134C284.932 133.735 302.266 132.829 316.52 134 330.774 135.171 360.265 131.701 374.76 134 389.255 136.299 400.576 134.549 426.28 134 451.985 133.451 465.195 136.648 489 134 487.701 152.703 486.141 172.982 489 192.76 491.859 212.538 490.018 233.272 489 253.78 487.982 274.289 485.169 317.54 489 360 473.116 358.116 462.776 360.671 437.48 360 412.184 359.329 406.556 361.443 385.96 360 365.364 358.557 350.055 360.112 329.96 360 309.865 359.888 296.976 361.575 265 360 267.773 339.13 264.948 317.742 265 303.5 265.052 289.258 263.419 267.23 265 249.26 266.581 231.29 265.873 216.661 265 199.54 264.127 182.419 264.103 159.999 265 134Z" id="path24318" fill="#F8CECC" fill-rule="evenodd"/><path d="M265 134C289.581 135.948 297.441 135.338 314.28 134 331.119 132.662 351.516 132.655 374.76 134 398.004 135.345 404.842 134 433 134 461.158 134 464.536 132.4 489 134 489.941 162.201 487.513 169.93 489 190.5 490.487 211.07 490.436 229.567 489 249.26 487.564 268.953 491.423 287.485 489 310.28 486.577 333.075 487.315 349.171 489 360 461.738 362.015 448.557 358.46 433 360 417.443 361.54 398.009 361.839 374.76 360 351.511 358.161 338.187 358.548 321 360 303.813 361.452 284.446 360.526 265 360 267.262 348.75 264.963 332.192 265 310.28 265.037 288.368 262.531 277.753 265 251.52 267.469 225.287 264.473 218.402 265 199.54 265.527 180.678 267.563 158.239 265 134Z" id="path24320" stroke="#042433" stroke-width="2" stroke-miterlimit="8" fill="none" fill-rule="evenodd"/><text id="text24322" font-family="Kalam,Kalam_MSFontService,Arial" font-weight="400" font-size="40" transform="translate(298.811 219)">Stillingen</text><text id="text24324" font-family="Kalam,Kalam_MSFontService,Arial" font-weight="400" font-size="40" transform="translate(349.558 267)">blir</text><text id="text24326" font-family="Kalam,Kalam_MSFontService,Arial" font-weight="400" font-size="40" transform="translate(353.392 315)">4</text><text id="text24328" font-family="Kalam,Kalam_MSFontService,Arial" font-weight="400" font-size="40" transform="translate(375.392 315)">-</text><text id="text24330" font-family="Kalam,Kalam_MSFontService,Arial" font-weight="400" font-size="40" transform="translate(393.725 315)">5</text><text id="text24332" font-family="Kalam,Kalam_MSFontService,Arial" font-weight="400" font-size="40" transform="translate(525.095 219)">Stillingen</text><text id="text24334" font-family="Kalam,Kalam_MSFontService,Arial" font-weight="400" font-size="40" transform="translate(575.842 267)">blir</text><text id="text24336" font-family="Kalam,Kalam_MSFontService,Arial" font-weight="400" font-size="40" transform="translate(579.675 315)">5</text><text id="text24338" font-family="Kalam,Kalam_MSFontService,Arial" font-weight="400" font-size="40" transform="translate(601.175 315)">-</text><text id="text24340" font-family="Kalam,Kalam_MSFontService,Arial" font-weight="400" font-size="40" transform="translate(619.509 315)">4</text><text id="text24342" font-family="Kalam,Kalam_MSFontService,Arial" font-weight="400" font-size="40" transform="translate(410.269 429)">Stillingen</text><text id="text24344" font-family="Kalam,Kalam_MSFontService,Arial" font-weight="400" font-size="40" transform="translate(461.016 477)">blir</text><text id="text24346" font-family="Kalam,Kalam_MSFontService,Arial" font-weight="400" font-size="40" transform="translate(464.436 525)">5</text><text id="text24348" font-family="Kalam,Kalam_MSFontService,Arial" font-weight="400" font-size="40" transform="translate(485.936 525)">-</text><text id="text24350" font-family="Kalam,Kalam_MSFontService,Arial" font-weight="400" font-size="40" transform="translate(504.269 525)">3</text><text id="text24352" font-family="Kalam,Kalam_MSFontService,Arial" font-weight="400" font-size="40" transform="translate(865.9 326)">Stillingen</text><text id="text24354" font-family="Kalam,Kalam_MSFontService,Arial" font-weight="400" font-size="40" transform="translate(916.646 374)">blir</text><text id="text24356" font-family="Kalam,Kalam_MSFontService,Arial" font-weight="400" font-size="40" transform="translate(919.9 422)">5</text><text id="text24358" font-family="Kalam,Kalam_MSFontService,Arial" font-weight="400" font-size="40" transform="translate(941.4 422)">-</text><text id="text24360" font-family="Kalam,Kalam_MSFontService,Arial" font-weight="400" font-size="40" transform="translate(959.733 422)">2</text></g></g></svg>